<?xml version="1.0" encoding="UTF-8"?><svg xmlns="http://www.w3.org/2000/svg" xmlns:xlink="http://www.w3.org/1999/xlink" clip-rule="evenodd" stroke-miterlimit="10" viewBox="0 0 906 68"><desc>SVG generated by Keynote</desc><defs></defs><g transform="matrix(1.00, 0.00, -0.00, -1.00, 0.0, 68.0)"><text xml:space="preserve" font-family="Avenir-Heavy,Avenir" font-weight="bold" font-size="27.3" fill="#FEFFFF" transform="matrix(1.00, 0.00, -0.00, -1.00, 0.0, 45.5)">d</text><text xml:space="preserve" font-family="Avenir-Heavy,Avenir" font-weight="bold" font-size="27.3" fill="#FEFFFF" transform="matrix(1.00, 0.00, -0.00, -1.00, 17.2, 45.5)">a</text><text xml:space="preserve" font-family="Avenir-Heavy,Avenir" font-weight="bold" font-size="27.3" fill="#FEFFFF" transform="matrix(1.00, 0.00, -0.00, -1.00, 31.9, 45.5)">t</text><text xml:space="preserve" font-family="Avenir-Heavy,Avenir" font-weight="bold" font-size="27.3" fill="#FEFFFF" transform="matrix(1.00, 0.00, -0.00, -1.00, 42.5, 45.5)">u</text><text xml:space="preserve" font-family="Avenir-Heavy,Avenir" font-weight="bold" font-size="27.3" fill="#FEFFFF" transform="matrix(1.00, 0.00, -0.00, -1.00, 58.1, 45.5)">m</text><text xml:space="preserve" font-family="Avenir-Light,Avenir" font-size="27.3" fill="#FEFFFF" transform="matrix(1.00, 0.00, -0.00, -1.00, 81.9, 45.5)"> </text><text xml:space="preserve" font-family="Avenir-Light,Avenir" font-size="27.3" fill="#FEFFFF" transform="matrix(1.00, 0.00, -0.00, -1.00, 89.0, 45.5)">i</text><text xml:space="preserve" font-family="Avenir-Light,Avenir" font-size="27.3" fill="#FEFFFF" transform="matrix(1.00, 0.00, -0.00, -1.00, 95.6, 45.5)">n</text><text xml:space="preserve" font-family="Avenir-Light,Avenir" font-size="27.3" fill="#FEFFFF" transform="matrix(1.00, 0.00, -0.00, -1.00, 110.7, 45.5)">c</text><text xml:space="preserve" font-family="Avenir-Light,Avenir" font-size="27.3" fill="#FEFFFF" transform="matrix(1.00, 0.00, -0.00, -1.00, 123.9, 45.5)">l</text><text xml:space="preserve" font-family="Avenir-Light,Avenir" font-size="27.3" fill="#FEFFFF" transform="matrix(1.00, 0.00, -0.00, -1.00, 130.4, 45.5)">u</text><text xml:space="preserve" font-family="Avenir-Light,Avenir" font-size="27.3" fill="#FEFFFF" transform="matrix(1.00, 0.00, -0.00, -1.00, 145.6, 45.5)">d</text><text xml:space="preserve" font-family="Avenir-Light,Avenir" font-size="27.3" fill="#FEFFFF" transform="matrix(1.00, 0.00, -0.00, -1.00, 162.3, 45.5)">e</text><text xml:space="preserve" font-family="Avenir-Light,Avenir" font-size="27.3" fill="#FEFFFF" transform="matrix(1.00, 0.00, -0.00, -1.00, 177.5, 45.5)">s</text><text xml:space="preserve" font-family="Avenir-Light,Avenir" font-size="27.3" fill="#FEFFFF" transform="matrix(1.00, 0.00, -0.00, -1.00, 189.1, 45.5)"> </text><text xml:space="preserve" font-family="Avenir-Light,Avenir" font-size="27.3" fill="#FEFFFF" transform="matrix(1.00, 0.00, -0.00, -1.00, 196.2, 45.5)">t</text><text xml:space="preserve" font-family="Avenir-Light,Avenir" font-size="27.3" fill="#FEFFFF" transform="matrix(1.00, 0.00, -0.00, -1.00, 205.3, 45.5)">e</text><text xml:space="preserve" font-family="Avenir-Light,Avenir" font-size="27.3" fill="#FEFFFF" transform="matrix(1.00, 0.00, -0.00, -1.00, 220.4, 45.5)">x</text><text xml:space="preserve" font-family="Avenir-Light,Avenir" font-size="27.3" fill="#FEFFFF" transform="matrix(1.00, 0.00, -0.00, -1.00, 233.6, 45.5)">t</text><text xml:space="preserve" font-family="Avenir-Light,Avenir" font-size="27.3" fill="#FEFFFF" transform="matrix(1.00, 0.00, -0.00, -1.00, 242.7, 45.5)">s</text><text xml:space="preserve" font-family="Avenir-Light,Avenir" font-size="27.3" fill="#FEFFFF" transform="matrix(1.00, 0.00, -0.00, -1.00, 254.3, 45.5)"> </text><text xml:space="preserve" font-family="Avenir-Light,Avenir" font-size="27.3" fill="#FEFFFF" transform="matrix(1.00, 0.00, -0.00, -1.00, 261.4, 45.5)">o</text><text xml:space="preserve" font-family="Avenir-Light,Avenir" font-size="27.3" fill="#FEFFFF" transform="matrix(1.00, 0.00, -0.00, -1.00, 277.6, 45.5)">f</text><text xml:space="preserve" font-family="Avenir-Light,Avenir" font-size="27.3" fill="#FEFFFF" transform="matrix(1.00, 0.00, -0.00, -1.00, 285.7, 45.5)"> </text><text xml:space="preserve" font-family="Avenir-Light,Avenir" font-size="27.3" fill="#FEFFFF" transform="matrix(1.00, 0.00, -0.00, -1.00, 292.8, 45.5)">P</text><text xml:space="preserve" font-family="Avenir-Light,Avenir" font-size="27.3" fill="#FEFFFF" transform="matrix(1.00, 0.00, -0.00, -1.00, 308.5, 45.5)">l</text><text xml:space="preserve" font-family="Avenir-Light,Avenir" font-size="27.3" fill="#FEFFFF" transform="matrix(1.00, 0.00, -0.00, -1.00, 315.0, 45.5)">a</text><text xml:space="preserve" font-family="Avenir-Light,Avenir" font-size="27.3" fill="#FEFFFF" transform="matrix(1.00, 0.00, -0.00, -1.00, 329.2, 45.5)">t</text><text xml:space="preserve" font-family="Avenir-Light,Avenir" font-size="27.3" fill="#FEFFFF" transform="matrix(1.00, 0.00, -0.00, -1.00, 338.3, 45.5)">o</text><text xml:space="preserve" font-family="Avenir-Light,Avenir" font-size="27.3" fill="#FEFFFF" transform="matrix(1.00, 0.00, -0.00, -1.00, 354.5, 45.5)">,</text><text xml:space="preserve" font-family="Avenir-Light,Avenir" font-size="27.3" fill="#FEFFFF" transform="matrix(1.00, 0.00, -0.00, -1.00, 361.6, 45.5)"> </text><text xml:space="preserve" font-family="Avenir-Light,Avenir" font-size="27.3" fill="#FEFFFF" transform="matrix(1.00, 0.00, -0.00, -1.00, 368.7, 45.5)">A</text><text xml:space="preserve" font-family="Avenir-Light,Avenir" font-size="27.3" fill="#FEFFFF" transform="matrix(1.00, 0.00, -0.00, -1.00, 387.4, 45.5)">r</text><text xml:space="preserve" font-family="Avenir-Light,Avenir" font-size="27.3" fill="#FEFFFF" transform="matrix(1.00, 0.00, -0.00, -1.00, 396.5, 45.5)">i</text><text xml:space="preserve" font-family="Avenir-Light,Avenir" font-size="27.3" fill="#FEFFFF" transform="matrix(1.00, 0.00, -0.00, -1.00, 403.0, 45.5)">s</text><text xml:space="preserve" font-family="Avenir-Light,Avenir" font-size="27.3" fill="#FEFFFF" transform="matrix(1.00, 0.00, -0.00, -1.00, 414.7, 45.5)">t</text><text xml:space="preserve" font-family="Avenir-Light,Avenir" font-size="27.3" fill="#FEFFFF" transform="matrix(1.00, 0.00, -0.00, -1.00, 423.8, 45.5)">o</text><text xml:space="preserve" font-family="Avenir-Light,Avenir" font-size="27.3" fill="#FEFFFF" transform="matrix(1.00, 0.00, -0.00, -1.00, 440.0, 45.5)">t</text><text xml:space="preserve" font-family="Avenir-Light,Avenir" font-size="27.3" fill="#FEFFFF" transform="matrix(1.00, 0.00, -0.00, -1.00, 449.1, 45.5)">l</text><text xml:space="preserve" font-family="Avenir-Light,Avenir" font-size="27.3" fill="#FEFFFF" transform="matrix(1.00, 0.00, -0.00, -1.00, 455.6, 45.5)">e</text><text xml:space="preserve" font-family="Avenir-Light,Avenir" font-size="27.3" fill="#FEFFFF" transform="matrix(1.00, 0.00, -0.00, -1.00, 470.8, 45.5)">,</text><text xml:space="preserve" font-family="Avenir-Light,Avenir" font-size="27.3" fill="#FEFFFF" transform="matrix(1.00, 0.00, -0.00, -1.00, 477.9, 45.5)"> </text><text xml:space="preserve" font-family="Avenir-Light,Avenir" font-size="27.3" fill="#FEFFFF" transform="matrix(1.00, 0.00, -0.00, -1.00, 485.0, 45.5)">T</text><text xml:space="preserve" font-family="Avenir-Light,Avenir" font-size="27.3" fill="#FEFFFF" transform="matrix(1.00, 0.00, -0.00, -1.00, 500.7, 45.5)">h</text><text xml:space="preserve" font-family="Avenir-Light,Avenir" font-size="27.3" fill="#FEFFFF" transform="matrix(1.00, 0.00, -0.00, -1.00, 515.9, 45.5)">o</text><text xml:space="preserve" font-family="Avenir-Light,Avenir" font-size="27.3" fill="#FEFFFF" transform="matrix(1.00, 0.00, -0.00, -1.00, 532.1, 45.5)">m</text><text xml:space="preserve" font-family="Avenir-Light,Avenir" font-size="27.3" fill="#FEFFFF" transform="matrix(1.00, 0.00, -0.00, -1.00, 555.3, 45.5)">a</text><text xml:space="preserve" font-family="Avenir-Light,Avenir" font-size="27.3" fill="#FEFFFF" transform="matrix(1.00, 0.00, -0.00, -1.00, 569.5, 45.5)">s</text><text xml:space="preserve" font-family="Avenir-Light,Avenir" font-size="27.3" fill="#FEFFFF" transform="matrix(1.00, 0.00, -0.00, -1.00, 581.1, 45.5)"> </text><text xml:space="preserve" font-family="Avenir-Light,Avenir" font-size="27.3" fill="#FEFFFF" transform="matrix(1.00, 0.00, -0.00, -1.00, 588.2, 45.5)">A</text><text xml:space="preserve" font-family="Avenir-Light,Avenir" font-size="27.3" fill="#FEFFFF" transform="matrix(1.00, 0.00, -0.00, -1.00, 606.9, 45.5)">q</text><text xml:space="preserve" font-family="Avenir-Light,Avenir" font-size="27.3" fill="#FEFFFF" transform="matrix(1.00, 0.00, -0.00, -1.00, 623.6, 45.5)">u</text><text xml:space="preserve" font-family="Avenir-Light,Avenir" font-size="27.3" fill="#FEFFFF" transform="matrix(1.00, 0.00, -0.00, -1.00, 638.8, 45.5)">i</text><text xml:space="preserve" font-family="Avenir-Light,Avenir" font-size="27.3" fill="#FEFFFF" transform="matrix(1.00, 0.00, -0.00, -1.00, 645.3, 45.5)">n</text><text xml:space="preserve" font-family="Avenir-Light,Avenir" font-size="27.3" fill="#FEFFFF" transform="matrix(1.00, 0.00, -0.00, -1.00, 660.5, 45.5)">a</text><text xml:space="preserve" font-family="Avenir-Light,Avenir" font-size="27.3" fill="#FEFFFF" transform="matrix(1.00, 0.00, -0.00, -1.00, 674.7, 45.5)">s</text><text xml:space="preserve" font-family="Avenir-Light,Avenir" font-size="27.3" fill="#FEFFFF" transform="matrix(1.00, 0.00, -0.00, -1.00, 686.3, 45.5)">,</text><text xml:space="preserve" font-family="Avenir-Light,Avenir" font-size="27.3" fill="#FEFFFF" transform="matrix(1.00, 0.00, -0.00, -1.00, 693.4, 45.5)"> </text><text xml:space="preserve" font-family="Avenir-Light,Avenir" font-size="27.3" fill="#FEFFFF" transform="matrix(1.00, 0.00, -0.00, -1.00, 700.5, 45.5)">D</text><text xml:space="preserve" font-family="Avenir-Light,Avenir" font-size="27.3" fill="#FEFFFF" transform="matrix(1.00, 0.00, -0.00, -1.00, 720.7, 45.5)">e</text><text xml:space="preserve" font-family="Avenir-Light,Avenir" font-size="27.3" fill="#FEFFFF" transform="matrix(1.00, 0.00, -0.00, -1.00, 735.9, 45.5)">s</text><text xml:space="preserve" font-family="Avenir-Light,Avenir" font-size="27.3" fill="#FEFFFF" transform="matrix(1.00, 0.00, -0.00, -1.00, 747.6, 45.5)">c</text><text xml:space="preserve" font-family="Avenir-Light,Avenir" font-size="27.3" fill="#FEFFFF" transform="matrix(1.00, 0.00, -0.00, -1.00, 760.7, 45.5)">a</text><text xml:space="preserve" font-family="Avenir-Light,Avenir" font-size="27.3" fill="#FEFFFF" transform="matrix(1.00, 0.00, -0.00, -1.00, 774.9, 45.5)">r</text><text xml:space="preserve" font-family="Avenir-Light,Avenir" font-size="27.3" fill="#FEFFFF" transform="matrix(1.00, 0.00, -0.00, -1.00, 783.9, 45.5)">t</text><text xml:space="preserve" font-family="Avenir-Light,Avenir" font-size="27.3" fill="#FEFFFF" transform="matrix(1.00, 0.00, -0.00, -1.00, 793.0, 45.5)">e</text><text xml:space="preserve" font-family="Avenir-Light,Avenir" font-size="27.3" fill="#FEFFFF" transform="matrix(1.00, 0.00, -0.00, -1.00, 808.2, 45.5)">s</text><text xml:space="preserve" font-family="Avenir-Light,Avenir" font-size="27.3" fill="#FEFFFF" transform="matrix(1.00, 0.00, -0.00, -1.00, 819.8, 45.5)">,</text><text xml:space="preserve" font-family="Avenir-Light,Avenir" font-size="27.3" fill="#FEFFFF" transform="matrix(1.00, 0.00, -0.00, -1.00, 826.9, 45.5)"> </text><text xml:space="preserve" font-family="Avenir-Light,Avenir" font-size="27.3" fill="#FEFFFF" transform="matrix(1.00, 0.00, -0.00, -1.00, 0.0, 8.5)">S</text><text xml:space="preserve" font-family="Avenir-Light,Avenir" font-size="27.3" fill="#FEFFFF" transform="matrix(1.00, 0.00, -0.00, -1.00, 15.2, 8.5)">p</text><text xml:space="preserve" font-family="Avenir-Light,Avenir" font-size="27.3" fill="#FEFFFF" transform="matrix(1.00, 0.00, -0.00, -1.00, 31.9, 8.5)">i</text><text xml:space="preserve" font-family="Avenir-Light,Avenir" font-size="27.3" fill="#FEFFFF" transform="matrix(1.00, 0.00, -0.00, -1.00, 38.4, 8.5)">n</text><text xml:space="preserve" font-family="Avenir-Light,Avenir" font-size="27.3" fill="#FEFFFF" transform="matrix(1.00, 0.00, -0.00, -1.00, 53.6, 8.5)">o</text><text xml:space="preserve" font-family="Avenir-Light,Avenir" font-size="27.3" fill="#FEFFFF" transform="matrix(1.00, 0.00, -0.00, -1.00, 69.8, 8.5)">z</text><text xml:space="preserve" font-family="Avenir-Light,Avenir" font-size="27.3" fill="#FEFFFF" transform="matrix(1.00, 0.00, -0.00, -1.00, 81.4, 8.5)">a</text><text xml:space="preserve" font-family="Avenir-Light,Avenir" font-size="27.3" fill="#FEFFFF" transform="matrix(1.00, 0.00, -0.00, -1.00, 95.6, 8.5)">,</text><text xml:space="preserve" font-family="Avenir-Light,Avenir" font-size="27.3" fill="#FEFFFF" transform="matrix(1.00, 0.00, -0.00, -1.00, 102.7, 8.5)"> </text><text xml:space="preserve" font-family="Avenir-Light,Avenir" font-size="27.3" fill="#FEFFFF" transform="matrix(1.00, 0.00, -0.00, -1.00, 109.8, 8.5)">N</text><text xml:space="preserve" font-family="Avenir-Light,Avenir" font-size="27.3" fill="#FEFFFF" transform="matrix(1.00, 0.00, -0.00, -1.00, 131.0, 8.5)">e</text><text xml:space="preserve" font-family="Avenir-Light,Avenir" font-size="27.3" fill="#FEFFFF" transform="matrix(1.00, 0.00, -0.00, -1.00, 146.2, 8.5)">w</text><text xml:space="preserve" font-family="Avenir-Light,Avenir" font-size="27.3" fill="#FEFFFF" transform="matrix(1.00, 0.00, -0.00, -1.00, 165.4, 8.5)">t</text><text xml:space="preserve" font-family="Avenir-Light,Avenir" font-size="27.3" fill="#FEFFFF" transform="matrix(1.00, 0.00, -0.00, -1.00, 174.5, 8.5)">o</text><text xml:space="preserve" font-family="Avenir-Light,Avenir" font-size="27.3" fill="#FEFFFF" transform="matrix(1.00, 0.00, -0.00, -1.00, 190.7, 8.5)">n</text><text xml:space="preserve" font-family="Avenir-Light,Avenir" font-size="27.3" fill="#FEFFFF" transform="matrix(1.00, 0.00, -0.00, -1.00, 205.9, 8.5)">,</text><text xml:space="preserve" font-family="Avenir-Light,Avenir" font-size="27.3" fill="#FEFFFF" transform="matrix(1.00, 0.00, -0.00, -1.00, 213.0, 8.5)"> </text><text xml:space="preserve" font-family="Avenir-Light,Avenir" font-size="27.3" fill="#FEFFFF" transform="matrix(1.00, 0.00, -0.00, -1.00, 220.1, 8.5)">L</text><text xml:space="preserve" font-family="Avenir-Light,Avenir" font-size="27.3" fill="#FEFFFF" transform="matrix(1.00, 0.00, -0.00, -1.00, 233.8, 8.5)">e</text><text xml:space="preserve" font-family="Avenir-Light,Avenir" font-size="27.3" fill="#FEFFFF" transform="matrix(1.00, 0.00, -0.00, -1.00, 248.9, 8.5)">i</text><text xml:space="preserve" font-family="Avenir-Light,Avenir" font-size="27.3" fill="#FEFFFF" transform="matrix(1.00, 0.00, -0.00, -1.00, 255.5, 8.5)">b</text><text xml:space="preserve" font-family="Avenir-Light,Avenir" font-size="27.3" fill="#FEFFFF" transform="matrix(1.00, 0.00, -0.00, -1.00, 272.2, 8.5)">n</text><text xml:space="preserve" font-family="Avenir-Light,Avenir" font-size="27.3" fill="#FEFFFF" transform="matrix(1.00, 0.00, -0.00, -1.00, 287.4, 8.5)">i</text><text xml:space="preserve" font-family="Avenir-Light,Avenir" font-size="27.3" fill="#FEFFFF" transform="matrix(1.00, 0.00, -0.00, -1.00, 293.9, 8.5)">z</text><text xml:space="preserve" font-family="Avenir-Light,Avenir" font-size="27.3" fill="#FEFFFF" transform="matrix(1.00, 0.00, -0.00, -1.00, 305.5, 8.5)">,</text><text xml:space="preserve" font-family="Avenir-Light,Avenir" font-size="27.3" fill="#FEFFFF" transform="matrix(1.00, 0.00, -0.00, -1.00, 312.6, 8.5)"> </text><text xml:space="preserve" font-family="Avenir-Light,Avenir" font-size="27.3" fill="#FEFFFF" transform="matrix(1.00, 0.00, -0.00, -1.00, 319.7, 8.5)">L</text><text xml:space="preserve" font-family="Avenir-Light,Avenir" font-size="27.3" fill="#FEFFFF" transform="matrix(1.00, 0.00, -0.00, -1.00, 333.4, 8.5)">o</text><text xml:space="preserve" font-family="Avenir-Light,Avenir" font-size="27.3" fill="#FEFFFF" transform="matrix(1.00, 0.00, -0.00, -1.00, 349.6, 8.5)">c</text><text xml:space="preserve" font-family="Avenir-Light,Avenir" font-size="27.3" fill="#FEFFFF" transform="matrix(1.00, 0.00, -0.00, -1.00, 362.7, 8.5)">k</text><text xml:space="preserve" font-family="Avenir-Light,Avenir" font-size="27.3" fill="#FEFFFF" transform="matrix(1.00, 0.00, -0.00, -1.00, 375.9, 8.5)">e</text><text xml:space="preserve" font-family="Avenir-Light,Avenir" font-size="27.3" fill="#FEFFFF" transform="matrix(1.00, 0.00, -0.00, -1.00, 391.0, 8.5)">,</text><text xml:space="preserve" font-family="Avenir-Light,Avenir" font-size="27.3" fill="#FEFFFF" transform="matrix(1.00, 0.00, -0.00, -1.00, 398.1, 8.5)"> </text><text xml:space="preserve" font-family="Avenir-Light,Avenir" font-size="27.3" fill="#FEFFFF" transform="matrix(1.00, 0.00, -0.00, -1.00, 405.2, 8.5)">B</text><text xml:space="preserve" font-family="Avenir-Light,Avenir" font-size="27.3" fill="#FEFFFF" transform="matrix(1.00, 0.00, -0.00, -1.00, 422.4, 8.5)">e</text><text xml:space="preserve" font-family="Avenir-Light,Avenir" font-size="27.3" fill="#FEFFFF" transform="matrix(1.00, 0.00, -0.00, -1.00, 437.6, 8.5)">r</text><text xml:space="preserve" font-family="Avenir-Light,Avenir" font-size="27.3" fill="#FEFFFF" transform="matrix(1.00, 0.00, -0.00, -1.00, 446.7, 8.5)">k</text><text xml:space="preserve" font-family="Avenir-Light,Avenir" font-size="27.3" fill="#FEFFFF" transform="matrix(1.00, 0.00, -0.00, -1.00, 459.8, 8.5)">e</text><text xml:space="preserve" font-family="Avenir-Light,Avenir" font-size="27.3" fill="#FEFFFF" transform="matrix(1.00, 0.00, -0.00, -1.00, 475.0, 8.5)">l</text><text xml:space="preserve" font-family="Avenir-Light,Avenir" font-size="27.3" fill="#FEFFFF" transform="matrix(1.00, 0.00, -0.00, -1.00, 481.6, 8.5)">e</text><text xml:space="preserve" font-family="Avenir-Light,Avenir" font-size="27.3" fill="#FEFFFF" transform="matrix(1.00, 0.00, -0.00, -1.00, 496.8, 8.5)">y</text><text xml:space="preserve" font-family="Avenir-Light,Avenir" font-size="27.3" fill="#FEFFFF" transform="matrix(1.00, 0.00, -0.00, -1.00, 506.9, 8.5)">,</text><text xml:space="preserve" font-family="Avenir-Light,Avenir" font-size="27.3" fill="#FEFFFF" transform="matrix(1.00, 0.00, -0.00, -1.00, 514.0, 8.5)"> </text><text xml:space="preserve" font-family="Avenir-Light,Avenir" font-size="27.3" fill="#FEFFFF" transform="matrix(1.00, 0.00, -0.00, -1.00, 521.1, 8.5)">H</text><text xml:space="preserve" font-family="Avenir-Light,Avenir" font-size="27.3" fill="#FEFFFF" transform="matrix(1.00, 0.00, -0.00, -1.00, 540.8, 8.5)">u</text><text xml:space="preserve" font-family="Avenir-Light,Avenir" font-size="27.3" fill="#FEFFFF" transform="matrix(1.00, 0.00, -0.00, -1.00, 556.0, 8.5)">m</text><text xml:space="preserve" font-family="Avenir-Light,Avenir" font-size="27.3" fill="#FEFFFF" transform="matrix(1.00, 0.00, -0.00, -1.00, 579.2, 8.5)">e</text><text xml:space="preserve" font-family="Avenir-Light,Avenir" font-size="27.3" fill="#FEFFFF" transform="matrix(1.00, 0.00, -0.00, -1.00, 594.4, 8.5)">,</text><text xml:space="preserve" font-family="Avenir-Light,Avenir" font-size="27.3" fill="#FEFFFF" transform="matrix(1.00, 0.00, -0.00, -1.00, 601.5, 8.5)"> </text><text xml:space="preserve" font-family="Avenir-Light,Avenir" font-size="27.3" fill="#FEFFFF" transform="matrix(1.00, 0.00, -0.00, -1.00, 608.6, 8.5)">K</text><text xml:space="preserve" font-family="Avenir-Light,Avenir" font-size="27.3" fill="#FEFFFF" transform="matrix(1.00, 0.00, -0.00, -1.00, 625.3, 8.5)">a</text><text xml:space="preserve" font-family="Avenir-Light,Avenir" font-size="27.3" fill="#FEFFFF" transform="matrix(1.00, 0.00, -0.00, -1.00, 639.4, 8.5)">n</text><text xml:space="preserve" font-family="Avenir-Light,Avenir" font-size="27.3" fill="#FEFFFF" transform="matrix(1.00, 0.00, -0.00, -1.00, 654.6, 8.5)">t</text><text xml:space="preserve" font-family="Avenir-Light,Avenir" font-size="27.3" fill="#FEFFFF" transform="matrix(1.00, 0.00, -0.00, -1.00, 663.7, 8.5)">,</text><text xml:space="preserve" font-family="Avenir-Light,Avenir" font-size="27.3" fill="#FEFFFF" transform="matrix(1.00, 0.00, -0.00, -1.00, 670.8, 8.5)"> </text><text xml:space="preserve" font-family="Avenir-Light,Avenir" font-size="27.3" fill="#FEFFFF" transform="matrix(1.00, 0.00, -0.00, -1.00, 677.9, 8.5)">H</text><text xml:space="preserve" font-family="Avenir-Light,Avenir" font-size="27.3" fill="#FEFFFF" transform="matrix(1.00, 0.00, -0.00, -1.00, 697.6, 8.5)">e</text><text xml:space="preserve" font-family="Avenir-Light,Avenir" font-size="27.3" fill="#FEFFFF" transform="matrix(1.00, 0.00, -0.00, -1.00, 712.8, 8.5)">g</text><text xml:space="preserve" font-family="Avenir-Light,Avenir" font-size="27.3" fill="#FEFFFF" transform="matrix(1.00, 0.00, -0.00, -1.00, 729.5, 8.5)">e</text><text xml:space="preserve" font-family="Avenir-Light,Avenir" font-size="27.3" fill="#FEFFFF" transform="matrix(1.00, 0.00, -0.00, -1.00, 744.7, 8.5)">l</text><text xml:space="preserve" font-family="Avenir-Light,Avenir" font-size="27.3" fill="#FEFFFF" transform="matrix(1.00, 0.00, -0.00, -1.00, 751.2, 8.5)">,</text><text xml:space="preserve" font-family="Avenir-Light,Avenir" font-size="27.3" fill="#FEFFFF" transform="matrix(1.00, 0.00, -0.00, -1.00, 758.3, 8.5)"> </text><text xml:space="preserve" font-family="Avenir-Light,Avenir" font-size="27.3" fill="#FEFFFF" transform="matrix(1.00, 0.00, -0.00, -1.00, 765.4, 8.5)">B</text><text xml:space="preserve" font-family="Avenir-Light,Avenir" font-size="27.3" fill="#FEFFFF" transform="matrix(1.00, 0.00, -0.00, -1.00, 782.6, 8.5)">e</text><text xml:space="preserve" font-family="Avenir-Light,Avenir" font-size="27.3" fill="#FEFFFF" transform="matrix(1.00, 0.00, -0.00, -1.00, 797.8, 8.5)">r</text><text xml:space="preserve" font-family="Avenir-Light,Avenir" font-size="27.3" fill="#FEFFFF" transform="matrix(1.00, 0.00, -0.00, -1.00, 806.4, 8.5)">g</text><text xml:space="preserve" font-family="Avenir-Light,Avenir" font-size="27.3" fill="#FEFFFF" transform="matrix(1.00, 0.00, -0.00, -1.00, 823.1, 8.5)">s</text><text xml:space="preserve" font-family="Avenir-Light,Avenir" font-size="27.3" fill="#FEFFFF" transform="matrix(1.00, 0.00, -0.00, -1.00, 834.7, 8.5)">o</text><text xml:space="preserve" font-family="Avenir-Light,Avenir" font-size="27.3" fill="#FEFFFF" transform="matrix(1.00, 0.00, -0.00, -1.00, 850.9, 8.5)">n</text><text xml:space="preserve" font-family="Avenir-Light,Avenir" font-size="27.3" fill="#FEFFFF" transform="matrix(1.00, 0.00, -0.00, -1.00, 866.1, 8.5)">,</text><text xml:space="preserve" font-family="Avenir-Light,Avenir" font-size="27.3" fill="#FEFFFF" transform="matrix(1.00, 0.00, -0.00, -1.00, 873.2, 8.5)"> </text><text xml:space="preserve" font-family="Avenir-Light,Avenir" font-size="27.3" fill="#FEFFFF" transform="matrix(1.00, 0.00, -0.00, -1.00, 880.3, 8.5)">…</text></g></svg>