<?xml version="1.0" encoding="UTF-8"?><svg xmlns="http://www.w3.org/2000/svg" xmlns:xlink="http://www.w3.org/1999/xlink" clip-rule="evenodd" stroke-miterlimit="10" viewBox="0 0 1024 768"><desc>SVG generated by Keynote</desc><defs></defs><g transform="matrix(1.00, 0.00, -0.00, -1.00, 0.0, 768.0)"><path d="M 0.0 0.0 L 1024.0 0.0 L 1024.0 768.0 L 0.0 768.0 Z M 0.0 0.0 " fill="#000000"></path><path d="M 512.0 637.4 C 236.0 637.4 12.3 528.8 12.3 394.9 C 12.3 313.7 94.7 241.8 221.2 197.8 L 105.0 34.5 L 347.5 166.0 C 399.0 157.3 454.3 152.5 512.0 152.5 C 788.0 152.5 1011.7 261.0 1011.7 394.9 C 1011.7 528.8 788.0 637.4 512.0 637.4 Z M 512.0 637.4 " fill="#1E3B6D"></path><text xml:space="preserve" font-family="Avenir-Light,Avenir" font-size="45.0" fill="#FEFFFF" transform="matrix(1.00, 0.00, -0.00, -1.00, 74.0, 671.5)">H</text><text xml:space="preserve" font-family="Avenir-Light,Avenir" font-size="45.0" fill="#FEFFFF" transform="matrix(1.00, 0.00, -0.00, -1.00, 113.7, 671.5)">U</text><text xml:space="preserve" font-family="Avenir-Light,Avenir" font-size="45.0" fill="#FEFFFF" transform="matrix(1.00, 0.00, -0.00, -1.00, 151.7, 671.5)">M</text><text xml:space="preserve" font-family="Avenir-Light,Avenir" font-size="45.0" fill="#FEFFFF" transform="matrix(1.00, 0.00, -0.00, -1.00, 198.9, 671.5)">A</text><text xml:space="preserve" font-family="Avenir-Light,Avenir" font-size="45.0" fill="#FEFFFF" transform="matrix(1.00, 0.00, -0.00, -1.00, 236.9, 671.5)">N</text><text xml:space="preserve" font-family="Avenir-Light,Avenir" font-size="45.0" fill="#FEFFFF" transform="matrix(1.00, 0.00, -0.00, -1.00, 279.1, 671.5)"> </text><text xml:space="preserve" font-family="Avenir-Light,Avenir" font-size="45.0" fill="#FEFFFF" transform="matrix(1.00, 0.00, -0.00, -1.00, 298.0, 671.5)">P</text><text xml:space="preserve" font-family="Avenir-Light,Avenir" font-size="45.0" fill="#FEFFFF" transform="matrix(1.00, 0.00, -0.00, -1.00, 331.0, 671.5)">R</text><text xml:space="preserve" font-family="Avenir-Light,Avenir" font-size="45.0" fill="#FEFFFF" transform="matrix(1.00, 0.00, -0.00, -1.00, 364.9, 671.5)">O</text><text xml:space="preserve" font-family="Avenir-Light,Avenir" font-size="45.0" fill="#FEFFFF" transform="matrix(1.00, 0.00, -0.00, -1.00, 409.7, 671.5)">C</text><text xml:space="preserve" font-family="Avenir-Light,Avenir" font-size="45.0" fill="#FEFFFF" transform="matrix(1.00, 0.00, -0.00, -1.00, 448.5, 671.5)">E</text><text xml:space="preserve" font-family="Avenir-Light,Avenir" font-size="45.0" fill="#FEFFFF" transform="matrix(1.00, 0.00, -0.00, -1.00, 482.4, 671.5)">S</text><text xml:space="preserve" font-family="Avenir-Light,Avenir" font-size="45.0" fill="#FEFFFF" transform="matrix(1.00, 0.00, -0.00, -1.00, 514.6, 671.5)">S</text><text xml:space="preserve" font-family="Avenir-Light,Avenir" font-size="45.0" fill="#FEFFFF" transform="matrix(1.00, 0.00, -0.00, -1.00, 546.9, 671.5)"> </text><text xml:space="preserve" font-family="Avenir-Light,Avenir" font-size="45.0" fill="#FEFFFF" transform="matrix(1.00, 0.00, -0.00, -1.00, 565.8, 671.5)">E</text><text xml:space="preserve" font-family="Avenir-Light,Avenir" font-size="45.0" fill="#FEFFFF" transform="matrix(1.00, 0.00, -0.00, -1.00, 599.6, 671.5)">V</text><text xml:space="preserve" font-family="Avenir-Light,Avenir" font-size="45.0" fill="#FEFFFF" transform="matrix(1.00, 0.00, -0.00, -1.00, 633.5, 671.5)">E</text><text xml:space="preserve" font-family="Avenir-Light,Avenir" font-size="45.0" fill="#FEFFFF" transform="matrix(1.00, 0.00, -0.00, -1.00, 667.4, 671.5)">N</text><text xml:space="preserve" font-family="Avenir-Light,Avenir" font-size="45.0" fill="#FEFFFF" transform="matrix(1.00, 0.00, -0.00, -1.00, 709.6, 671.5)">T</text><text xml:space="preserve" font-family="Avenir-Light,Avenir" font-size="40.0" fill="#FEFFFF" transform="matrix(1.00, 0.00, -0.00, -1.00, 381.2, 285.5)">b</text><text xml:space="preserve" font-family="Avenir-Light,Avenir" font-size="40.0" fill="#FEFFFF" transform="matrix(1.00, 0.00, -0.00, -1.00, 405.6, 285.5)">e</text><text xml:space="preserve" font-family="Avenir-Light,Avenir" font-size="40.0" fill="#FEFFFF" transform="matrix(1.00, 0.00, -0.00, -1.00, 427.9, 285.5)"> </text><text xml:space="preserve" font-family="Avenir-Light,Avenir" font-size="40.0" fill="#FEFFFF" transform="matrix(1.00, 0.00, -0.00, -1.00, 438.3, 285.5)">r</text><text xml:space="preserve" font-family="Avenir-Light,Avenir" font-size="40.0" fill="#FEFFFF" transform="matrix(1.00, 0.00, -0.00, -1.00, 450.9, 285.5)">e</text><text xml:space="preserve" font-family="Avenir-Light,Avenir" font-size="40.0" fill="#FEFFFF" transform="matrix(1.00, 0.00, -0.00, -1.00, 473.1, 285.5)">s</text><text xml:space="preserve" font-family="Avenir-Light,Avenir" font-size="40.0" fill="#FEFFFF" transform="matrix(1.00, 0.00, -0.00, -1.00, 490.1, 285.5)">p</text><text xml:space="preserve" font-family="Avenir-Light,Avenir" font-size="40.0" fill="#FEFFFF" transform="matrix(1.00, 0.00, -0.00, -1.00, 514.6, 285.5)">o</text><text xml:space="preserve" font-family="Avenir-Light,Avenir" font-size="40.0" fill="#FEFFFF" transform="matrix(1.00, 0.00, -0.00, -1.00, 538.3, 285.5)">n</text><text xml:space="preserve" font-family="Avenir-Light,Avenir" font-size="40.0" fill="#FEFFFF" transform="matrix(1.00, 0.00, -0.00, -1.00, 560.6, 285.5)">s</text><text xml:space="preserve" font-family="Avenir-Light,Avenir" font-size="40.0" fill="#FEFFFF" transform="matrix(1.00, 0.00, -0.00, -1.00, 577.6, 285.5)">i</text><text xml:space="preserve" font-family="Avenir-Light,Avenir" font-size="40.0" fill="#FEFFFF" transform="matrix(1.00, 0.00, -0.00, -1.00, 587.2, 285.5)">b</text><text xml:space="preserve" font-family="Avenir-Light,Avenir" font-size="40.0" fill="#FEFFFF" transform="matrix(1.00, 0.00, -0.00, -1.00, 611.7, 285.5)">l</text><text xml:space="preserve" font-family="Avenir-Light,Avenir" font-size="40.0" fill="#FEFFFF" transform="matrix(1.00, 0.00, -0.00, -1.00, 621.3, 285.5)">e</text><path d="M 205.7 345.1 C 204.3 345.9 200.6 344.7 199.5 345.5 M 205.7 345.1 C 205.7 345.1 205.7 345.1 205.7 345.1 C 207.1 344.2 201.2 341.6 200.7 340.6 C 200.1 339.6 199.0 340.7 198.3 340.7 C 196.4 340.7 199.0 338.2 195.2 339.0 C 192.3 339.6 189.5 338.4 186.7 338.2 C 184.2 337.9 182.5 338.0 182.9 340.9 C 186.5 343.1 185.9 345.5 185.9 345.5 C 183.0 345.8 176.7 346.3 174.6 345.1 C 174.0 344.8 175.7 337.8 175.2 337.8 C 173.4 337.2 172.7 339.4 170.9 339.4 C 169.0 339.4 168.0 339.7 166.3 338.5 C 166.0 338.2 162.5 338.0 163.9 339.1 C 162.5 339.0 160.4 338.4 159.0 339.0 C 157.8 339.5 157.5 341.8 159.1 342.1 C 158.8 342.4 165.7 343.0 165.8 342.5 C 165.6 344.5 160.1 341.7 158.7 344.6 C 156.8 348.7 160.0 347.0 161.8 348.2 C 163.7 349.3 158.8 351.3 157.0 351.3 C 153.3 351.3 162.5 355.0 158.7 356.1 C 155.0 357.3 158.9 358.3 162.0 360.2 C 164.2 361.5 163.4 363.1 161.7 364.0 C 164.1 363.7 165.5 364.2 167.3 366.5 C 169.7 367.0 168.7 365.4 168.4 364.3 C 167.4 359.6 175.9 365.0 176.3 364.9 C 177.6 364.8 178.6 363.4 180.0 363.9 C 181.0 364.3 180.8 366.4 181.7 366.4 C 183.0 366.3 184.3 366.3 185.6 366.3 C 186.5 366.3 184.3 365.4 185.7 364.0 C 187.2 362.6 185.2 360.0 184.9 359.6 C 185.1 358.0 191.4 364.8 194.9 364.6 C 198.3 364.5 196.1 362.9 198.4 362.8 C 200.5 362.7 199.8 364.7 201.3 364.8 C 202.8 364.8 203.3 363.6 204.6 364.1 C 207.5 365.3 207.5 362.0 205.5 359.5 C 204.5 358.3 202.7 357.4 203.9 355.2 C 205.0 353.1 208.5 354.3 206.8 352.8 C 205.1 351.3 198.0 353.5 197.1 352.2 C 196.1 350.8 203.8 351.2 202.7 349.3 C 201.7 347.5 201.1 349.7 198.6 348.7 C 198.8 347.7 200.0 348.6 200.2 347.4 C 200.4 346.2 198.5 346.3 199.5 345.5 C 200.6 344.7 204.3 345.9 205.7 345.1 C 205.7 345.1 205.7 345.1 205.7 345.1 Z M 171.7 341.0 C 171.7 341.0 171.7 341.0 171.7 341.0 C 171.3 340.5 172.1 340.0 172.9 340.3 C 173.8 340.5 172.1 341.4 171.7 341.0 C 171.7 341.0 171.7 341.0 171.7 341.0 Z M 194.8 366.4 C 194.8 366.4 194.8 366.4 194.8 366.4 C 194.5 366.0 195.2 365.4 196.0 365.7 C 196.9 366.0 195.2 366.8 194.8 366.4 C 194.8 366.4 194.8 366.4 194.8 366.4 Z M 170.0 364.4 C 170.0 364.4 170.0 364.4 170.0 364.4 C 169.7 364.0 170.4 363.4 171.3 363.7 C 172.1 364.0 170.4 364.9 170.0 364.4 C 170.0 364.4 170.0 364.4 170.0 364.4 Z M 180.6 342.2 C 180.6 342.2 180.6 342.2 180.6 342.2 C 181.7 342.1 183.2 343.1 180.7 344.0 C 179.7 344.2 178.8 344.2 178.0 343.9 C 177.1 343.9 175.8 343.7 175.3 343.1 C 177.5 342.6 179.4 340.9 180.6 342.2 C 180.6 342.2 180.6 342.2 180.6 342.2 Z M 181.3 353.2 C 181.3 353.2 181.3 353.2 181.3 353.2 C 181.7 352.5 183.9 352.3 183.7 354.2 C 182.3 354.7 180.9 353.9 181.3 353.2 C 181.3 353.2 181.3 353.2 181.3 353.2 Z M 154.8 345.4 C 154.8 345.4 154.8 345.4 154.8 345.4 C 155.2 344.7 157.4 344.5 157.2 346.4 C 155.8 346.9 154.4 346.1 154.8 345.4 C 154.8 345.4 154.8 345.4 154.8 345.4 Z M 186.6 347.2 C 186.6 347.2 186.6 347.2 186.6 347.2 C 187.9 347.6 188.5 349.3 186.8 349.5 C 186.1 348.7 182.3 348.4 186.6 347.2 C 186.6 347.2 186.6 347.2 186.6 347.2 Z M 195.0 340.9 C 195.0 340.9 195.0 340.9 195.0 340.9 C 195.8 341.3 196.3 341.1 196.1 342.6 C 195.0 342.6 195.3 342.7 194.1 342.8 C 192.3 342.4 191.4 345.9 190.5 343.8 C 189.2 340.9 194.4 339.8 195.0 340.9 C 195.0 340.9 195.0 340.9 195.0 340.9 Z M 189.2 349.9 C 189.2 349.9 189.2 349.9 189.2 349.9 C 189.7 350.0 190.1 350.4 190.2 350.7 C 189.9 351.5 188.8 350.2 189.2 349.9 C 189.2 349.9 189.2 349.9 189.2 349.9 Z M 158.5 359.5 C 158.5 359.5 158.5 359.5 158.5 359.5 C 158.9 359.6 159.4 360.1 159.5 360.3 C 159.1 361.1 158.0 359.9 158.5 359.5 C 158.5 359.5 158.5 359.5 158.5 359.5 Z M 178.0 365.4 C 178.0 365.4 178.0 365.4 178.0 365.4 C 178.4 365.5 178.9 366.0 179.0 366.2 C 178.6 367.0 177.6 365.7 178.0 365.4 C 178.0 365.4 178.0 365.4 178.0 365.4 Z M 170.7 346.0 C 170.7 346.0 170.7 346.0 170.7 346.0 C 169.8 346.8 167.3 344.9 167.6 344.4 C 168.5 342.9 171.6 345.2 170.7 346.0 C 170.7 346.0 170.7 346.0 170.7 346.0 Z M 205.3 340.4 C 205.3 340.4 205.3 340.4 205.3 340.4 C 204.4 341.2 201.9 339.4 202.2 338.9 C 203.1 337.3 206.2 339.7 205.3 340.4 C 205.3 340.4 205.3 340.4 205.3 340.4 Z M 740.7 342.2 C 740.7 342.2 740.7 342.2 740.7 342.2 C 741.4 342.1 742.0 342.0 742.6 341.6 C 742.3 341.5 742.0 341.3 741.8 341.2 C 741.3 341.2 740.8 341.2 740.4 341.2 C 738.3 341.2 741.2 338.7 737.0 339.5 C 734.2 340.0 733.9 339.0 731.1 338.6 C 730.5 338.7 732.2 341.8 732.3 342.3 C 732.6 344.3 730.6 346.8 730.1 346.6 C 729.0 346.8 726.4 347.3 724.4 346.3 C 722.0 346.4 723.3 342.3 723.2 342.3 C 720.2 342.6 721.3 342.0 719.0 341.5 C 717.2 341.6 717.8 344.1 716.0 344.1 C 715.4 344.6 714.8 339.7 710.8 339.7 C 708.7 339.7 707.6 339.9 705.8 338.6 C 705.4 338.3 701.6 338.1 703.2 339.3 C 702.3 339.2 701.0 339.0 700.5 339.7 C 698.9 342.7 703.6 341.5 703.9 342.3 C 704.0 342.6 701.3 343.1 701.6 344.3 C 702.0 345.8 691.9 344.9 695.5 346.6 C 699.4 348.4 698.2 353.1 697.4 353.7 C 696.8 353.7 696.6 351.2 695.3 352.6 C 694.0 354.0 697.3 355.6 697.3 356.6 C 697.3 362.6 697.4 358.8 700.7 360.8 C 702.4 361.8 699.9 363.3 699.1 364.2 C 699.4 364.5 702.2 364.4 702.5 364.7 C 703.9 364.9 703.6 364.2 704.9 365.8 C 705.6 366.6 708.0 365.6 708.3 365.6 C 708.9 365.2 707.0 365.3 706.9 364.5 C 706.1 360.8 709.6 365.2 712.1 365.1 C 714.5 365.0 715.4 364.8 715.8 364.9 C 716.2 364.9 716.0 362.3 716.7 362.5 C 717.6 362.1 718.3 363.3 719.0 364.1 C 719.8 364.9 721.9 363.0 723.0 363.1 C 724.1 363.3 723.9 364.6 726.4 365.4 C 728.9 366.2 728.9 362.4 728.5 361.4 C 727.3 357.9 730.6 364.9 732.4 364.7 C 734.2 364.5 734.1 363.0 735.3 363.1 C 735.9 363.3 736.4 363.7 736.9 364.2 C 737.5 363.4 738.4 363.9 740.2 363.8 C 740.5 363.8 740.7 363.8 740.9 363.8 C 741.0 363.5 738.1 361.9 738.4 361.4 C 739.4 360.1 741.0 362.0 741.6 362.8 C 742.6 361.6 744.0 361.1 745.7 361.7 C 748.8 362.9 748.9 359.6 746.7 357.0 C 745.6 355.8 743.3 354.2 745.0 352.6 C 746.8 351.0 750.1 352.7 748.2 350.2 C 748.0 350.2 748.5 348.9 745.4 349.8 C 742.4 350.8 740.7 349.3 740.7 349.2 C 738.9 349.1 738.7 350.4 737.7 349.4 C 736.7 348.5 739.1 348.4 740.9 348.5 C 741.1 348.0 740.3 347.0 741.9 347.0 C 743.4 346.9 743.4 348.3 744.2 347.4 C 744.9 346.5 744.1 346.9 743.9 346.6 C 745.1 346.4 746.3 346.4 747.5 346.5 C 749.9 346.9 746.0 343.9 745.0 343.7 C 743.2 343.3 741.3 345.5 740.7 342.2 C 740.7 342.2 740.7 342.2 740.7 342.2 Z M 742.3 351.9 C 742.3 351.9 742.3 351.9 742.3 351.9 C 741.7 352.2 739.4 351.7 740.4 351.0 C 741.4 350.4 742.9 351.5 742.3 351.9 C 742.3 351.9 742.3 351.9 742.3 351.9 Z M 725.8 366.9 C 725.8 366.9 725.8 366.9 725.8 366.9 C 725.2 367.2 722.9 366.7 723.9 366.0 C 724.9 365.4 726.4 366.5 725.8 366.9 C 725.8 366.9 725.8 366.9 725.8 366.9 Z M 726.4 340.5 C 726.4 340.5 726.4 340.5 726.4 340.5 C 725.7 341.8 723.7 339.6 724.5 339.0 C 725.3 339.2 726.2 340.0 726.4 340.5 C 726.4 340.5 726.4 340.5 726.4 340.5 Z M 733.4 361.4 C 733.4 361.4 733.4 361.4 733.4 361.4 C 733.1 361.4 732.8 361.4 732.5 361.4 C 732.9 360.7 734.5 360.2 735.1 360.1 C 735.2 361.3 734.1 361.4 733.4 361.4 C 733.4 361.4 733.4 361.4 733.4 361.4 Z M 718.7 340.5 C 718.7 340.5 718.7 340.5 718.7 340.5 C 717.7 341.5 716.7 341.0 715.6 340.9 C 715.4 337.0 719.6 339.5 718.7 340.5 C 718.7 340.5 718.7 340.5 718.7 340.5 Z M 704.9 347.0 C 704.9 347.0 704.9 347.0 704.9 347.0 C 706.5 348.2 702.5 350.2 701.8 349.1 C 701.0 347.9 702.5 347.5 703.6 347.4 C 703.8 347.1 703.3 345.8 704.9 347.0 C 704.9 347.0 704.9 347.0 704.9 347.0 Z M 714.5 362.1 C 714.5 362.1 714.5 362.1 714.5 362.1 C 714.8 361.9 715.1 361.3 715.4 361.7 C 715.6 362.0 715.0 362.6 714.5 362.1 C 714.5 362.1 714.5 362.1 714.5 362.1 Z M 744.2 363.1 C 744.2 363.1 744.2 363.1 744.2 363.1 C 744.5 362.9 744.8 362.3 745.0 362.7 C 745.3 363.0 744.7 363.6 744.2 363.1 C 744.2 363.1 744.2 363.1 744.2 363.1 Z M 706.0 361.4 C 706.0 361.4 706.0 361.4 706.0 361.4 C 705.6 360.3 706.8 360.9 707.3 360.6 C 707.5 361.5 706.4 362.5 706.0 361.4 C 706.0 361.4 706.0 361.4 706.0 361.4 Z M 725.1 343.3 C 725.1 343.3 725.1 343.3 725.1 343.3 C 726.5 341.6 730.2 341.4 730.2 344.6 C 729.1 344.8 728.0 345.3 727.0 345.0 C 726.3 344.9 725.6 343.8 725.1 343.3 C 725.1 343.3 725.1 343.3 725.1 343.3 Z M 736.3 342.7 C 736.3 342.7 736.3 342.7 736.3 342.7 C 737.0 342.1 738.6 342.2 737.7 343.7 C 737.2 344.2 736.6 344.6 736.0 344.7 C 735.3 345.0 734.0 345.9 733.7 345.3 C 733.3 344.7 734.7 342.4 736.3 342.7 C 736.3 342.7 736.3 342.7 736.3 342.7 Z M 718.6 343.9 C 718.6 343.9 718.6 343.9 718.6 343.9 C 718.9 342.9 721.7 342.8 721.7 343.4 C 721.7 343.9 718.3 344.9 718.6 343.9 C 718.6 343.9 718.6 343.9 718.6 343.9 Z M 729.4 340.9 C 729.4 340.9 729.4 340.9 729.4 340.9 C 729.8 340.9 730.2 341.1 729.9 341.3 C 729.7 341.5 729.2 341.5 729.1 341.3 C 728.9 341.1 729.0 340.8 729.4 340.9 C 729.4 340.9 729.4 340.9 729.4 340.9 Z M 710.1 338.2 C 710.1 338.2 710.1 338.2 710.1 338.2 C 710.6 338.3 710.9 338.4 710.6 338.6 C 710.4 338.8 710.0 338.8 709.8 338.6 C 709.6 338.5 709.7 338.1 710.1 338.2 C 710.1 338.2 710.1 338.2 710.1 338.2 Z M 741.6 339.9 C 741.6 339.9 741.6 339.9 741.6 339.9 C 742.0 340.0 742.3 340.1 742.1 340.3 C 741.8 340.5 741.4 340.5 741.2 340.3 C 741.0 340.2 741.2 339.8 741.6 339.9 C 741.6 339.9 741.6 339.9 741.6 339.9 Z M 711.9 341.8 C 711.9 341.8 711.9 341.8 711.9 341.8 C 712.6 342.4 712.6 343.4 711.0 343.5 C 719.4 346.8 707.5 347.6 706.4 345.1 C 704.8 341.4 711.2 340.4 711.9 341.8 C 711.9 341.8 711.9 341.8 711.9 341.8 Z M 220.9 345.2 C 218.9 343.3 214.9 345.0 212.7 344.0 C 210.3 343.1 208.6 340.4 207.6 343.9 C 206.9 346.3 201.1 346.3 201.6 348.6 C 202.0 350.3 202.9 351.6 202.8 353.5 C 202.7 356.8 200.2 357.6 203.2 360.0 C 205.6 361.9 205.3 357.7 207.2 362.0 C 208.5 365.0 211.6 365.2 213.0 362.2 C 214.2 359.3 216.1 357.7 217.7 361.7 C 218.5 363.7 218.5 364.3 220.2 365.0 C 220.8 365.3 224.9 363.4 224.9 363.4 C 224.6 362.7 222.0 360.5 224.2 360.2 C 225.6 360.0 227.7 362.0 227.1 363.8 C 226.2 366.9 234.9 364.4 234.1 363.6 C 234.4 363.8 236.3 367.2 237.1 364.7 C 237.1 364.7 240.8 364.2 241.4 364.2 C 249.1 363.3 236.5 358.2 244.8 358.1 C 250.3 358.0 246.7 362.5 247.0 363.4 C 247.6 365.3 252.1 365.1 253.7 365.3 C 255.0 365.4 256.3 363.3 257.1 362.3 C 258.4 360.9 261.4 361.5 262.4 362.9 C 262.9 363.5 263.8 365.3 264.5 365.5 C 264.5 365.5 267.2 365.7 266.7 365.1 C 266.5 364.9 264.2 363.6 265.2 362.8 C 265.9 362.2 268.3 365.2 269.2 365.4 C 270.9 365.9 270.8 360.7 273.9 363.1 C 276.1 364.8 274.7 364.6 276.2 362.2 C 277.0 360.9 280.3 363.9 280.4 364.9 C 279.4 359.8 282.8 364.3 283.0 363.5 C 282.8 364.1 281.2 364.4 281.3 365.0 C 281.4 365.3 294.3 366.2 294.8 364.5 C 295.3 362.8 293.4 361.2 296.8 361.8 C 297.9 361.9 299.8 363.1 299.6 363.6 C 297.7 364.4 298.3 363.8 296.2 365.0 C 296.2 365.1 300.4 365.6 301.0 365.6 C 303.3 365.7 304.1 364.5 306.1 363.3 C 307.4 362.5 308.5 364.9 310.2 365.0 C 312.1 365.1 313.7 365.2 315.6 364.8 C 317.4 364.3 317.9 364.5 318.0 362.7 C 318.0 361.0 321.5 360.9 322.4 360.0 C 323.2 359.1 323.4 359.2 324.7 360.1 C 326.9 361.7 325.3 361.9 325.6 362.8 C 326.4 366.0 332.1 365.6 334.0 365.1 C 336.1 364.5 332.7 363.0 333.1 362.6 C 334.2 361.9 335.6 362.8 336.7 362.8 C 338.4 362.8 336.8 363.9 337.3 364.4 C 340.0 367.2 341.1 361.4 342.9 361.8 C 345.6 362.5 346.3 366.6 349.4 364.6 C 352.6 362.5 355.2 366.5 358.5 364.8 C 361.1 363.5 365.3 368.1 366.8 363.9 C 367.5 362.0 370.2 359.8 370.2 357.7 C 370.2 357.1 368.5 351.1 367.7 352.1 C 368.2 351.4 370.1 351.6 370.3 350.7 C 370.4 349.9 367.6 348.9 367.2 348.4 C 367.0 348.1 370.4 346.6 370.6 346.0 C 370.9 345.2 364.9 343.7 364.9 340.9 C 364.8 339.7 362.4 338.8 362.5 340.2 C 362.5 340.9 363.5 344.5 364.2 344.4 C 363.9 344.4 360.8 343.5 360.8 343.5 C 361.2 344.0 361.4 344.6 361.5 345.4 C 361.3 345.7 354.5 345.7 354.3 345.3 C 353.6 344.2 354.5 341.0 353.6 340.3 C 353.0 339.8 351.5 341.8 350.6 341.7 C 349.2 341.6 350.7 339.9 349.3 339.5 C 348.9 339.3 341.3 340.6 341.2 341.2 C 341.1 341.4 343.2 344.4 343.2 345.4 C 343.4 347.4 341.2 346.5 340.3 346.4 C 338.9 346.3 333.6 344.5 333.6 341.9 C 333.6 341.1 337.3 340.8 337.8 340.4 C 337.2 340.9 332.3 336.3 330.8 339.5 C 330.6 340.0 332.5 340.2 332.7 340.4 C 332.9 340.8 331.5 343.8 330.5 343.6 C 329.9 343.4 328.5 341.2 327.9 341.9 C 328.2 341.6 325.9 344.6 325.6 343.4 C 325.8 344.1 327.7 346.2 327.2 346.9 C 327.2 346.9 323.3 346.5 322.9 346.4 C 320.2 345.6 321.1 346.6 319.7 347.8 C 318.2 349.0 314.8 350.1 315.4 346.8 C 316.1 343.0 312.9 341.9 312.9 344.8 C 312.9 347.8 312.4 347.1 310.0 346.4 C 307.6 345.7 305.0 346.9 303.0 344.6 C 300.5 341.8 304.5 341.2 303.7 340.1 C 302.8 338.9 300.7 339.1 299.6 339.3 C 297.7 339.8 299.3 341.7 298.6 342.0 C 297.2 342.6 295.8 339.6 294.3 340.1 C 294.2 340.1 292.0 342.0 292.5 342.0 C 286.6 341.6 292.7 343.2 293.5 345.9 C 293.7 346.8 290.1 345.0 291.0 348.3 C 291.9 351.7 286.8 351.6 286.5 350.0 C 286.9 349.6 287.2 349.3 287.5 348.9 C 287.0 347.1 281.8 347.7 281.6 346.2 C 281.5 345.5 288.7 343.2 287.5 341.4 C 286.8 340.3 285.3 342.1 284.9 342.6 C 284.2 343.5 284.0 341.3 283.7 341.0 C 283.9 341.2 280.8 341.3 280.4 342.6 C 280.3 342.9 282.8 343.9 281.9 344.3 C 278.6 345.7 280.4 343.0 278.9 341.3 C 277.9 340.2 272.6 339.1 272.7 339.3 C 272.9 339.6 274.6 340.0 274.3 340.7 C 273.8 341.8 272.1 341.0 271.6 341.9 C 271.5 342.2 273.1 342.7 272.9 343.0 C 272.3 344.0 268.6 343.6 268.5 344.6 C 268.4 345.5 272.1 344.9 272.1 346.1 C 272.1 347.0 270.2 348.5 269.9 346.9 C 269.6 344.9 266.0 347.3 264.9 346.2 C 263.7 345.1 267.1 343.5 264.2 343.1 C 261.0 342.5 263.2 344.2 262.6 345.2 C 260.7 348.1 256.8 338.9 255.7 341.2 C 255.4 342.0 258.6 345.6 255.6 344.8 C 254.2 344.4 247.9 347.8 247.9 344.9 C 247.9 344.2 251.6 343.9 251.4 343.3 C 250.7 342.0 248.3 342.3 247.3 342.0 C 245.6 341.7 246.5 340.2 245.4 339.2 C 244.1 338.1 243.1 341.3 242.0 341.1 C 240.8 340.9 241.9 345.7 242.0 346.3 C 241.6 344.4 238.2 346.9 237.3 345.1 C 235.2 341.1 234.8 342.6 232.1 341.3 C 232.6 341.4 233.0 341.6 233.2 342.2 C 233.0 342.5 231.0 342.7 230.8 342.6 C 231.6 342.9 232.2 343.4 232.6 344.2 C 232.7 344.3 223.9 349.3 223.0 345.1 C 222.9 344.5 222.3 337.5 220.7 339.7 C 220.2 340.4 221.0 345.3 220.9 345.2 M 253.3 342.4 C 253.9 342.3 254.3 342.6 254.5 343.2 C 253.9 343.7 253.2 343.8 252.5 343.4 C 252.4 342.7 252.6 342.4 253.3 342.4 M 253.0 340.1 C 253.6 340.1 254.0 340.3 254.0 340.9 C 250.6 342.4 250.3 337.4 253.4 339.2 C 253.5 339.2 252.6 340.0 253.0 340.1 M 281.7 339.8 C 281.8 340.3 279.1 341.3 279.6 340.0 C 279.8 339.4 281.5 339.3 281.7 339.8 M 287.2 345.2 C 288.1 346.4 286.0 346.5 285.6 345.9 C 285.0 345.0 287.0 344.9 287.2 345.2 M 350.7 343.4 C 351.2 346.1 345.5 350.2 345.1 346.3 C 344.6 341.8 350.0 339.8 350.7 343.4 M 308.7 340.9 C 308.5 341.9 305.9 341.0 306.1 339.8 C 306.4 337.9 309.0 339.7 308.7 340.9 M 306.4 344.1 C 306.1 345.2 304.5 344.5 304.5 343.8 C 304.4 343.1 306.7 342.9 306.4 344.1 M 338.6 343.5 C 338.9 342.7 340.9 343.8 340.3 344.2 C 339.9 344.5 338.3 344.3 338.6 343.5 C 338.6 343.5 338.6 343.5 338.6 343.5 Z M 357.4 343.9 C 357.0 343.6 357.3 342.8 357.7 343.2 C 358.1 343.5 357.8 344.1 357.4 343.9 C 357.4 343.9 357.4 343.9 357.4 343.9 Z M 320.4 344.8 C 318.4 344.6 320.4 342.0 322.5 343.3 C 324.3 344.4 322.7 345.0 320.4 344.8 C 320.4 344.8 320.4 344.8 320.4 344.8 Z M 348.4 363.3 C 348.9 363.6 348.0 364.3 347.5 364.0 C 346.3 363.3 348.0 363.1 348.4 363.3 C 348.4 363.3 348.4 363.3 348.4 363.3 Z M 247.8 348.3 C 248.7 348.9 247.4 349.3 247.0 348.8 C 246.6 348.3 246.9 347.6 247.8 348.3 C 247.8 348.3 247.8 348.3 247.8 348.3 Z M 226.4 343.4 C 227.3 344.1 225.3 344.1 224.9 343.6 C 224.5 343.1 225.5 342.8 226.4 343.4 C 226.4 343.4 226.4 343.4 226.4 343.4 Z M 209.1 358.1 C 210.0 358.8 208.7 359.1 208.3 358.7 C 207.9 358.1 208.2 357.4 209.1 358.1 C 209.1 358.1 209.1 358.1 209.1 358.1 Z M 240.7 355.1 C 241.6 355.7 240.2 356.1 239.9 355.6 C 239.4 355.1 239.8 354.4 240.7 355.1 C 240.7 355.1 240.7 355.1 240.7 355.1 Z M 243.7 345.5 C 242.9 344.4 243.6 340.9 245.6 343.7 C 247.6 346.5 244.6 346.7 243.7 345.5 C 243.7 345.5 243.7 345.5 243.7 345.5 Z M 313.2 362.6 C 313.2 362.6 314.4 361.2 314.7 361.6 C 316.4 363.4 313.2 362.6 313.2 362.6 C 313.2 362.6 313.2 362.6 313.2 362.6 Z M 288.0 348.0 C 288.0 348.0 289.1 347.4 289.3 347.5 C 290.9 348.6 288.0 348.0 288.0 348.0 C 288.0 348.0 288.0 348.0 288.0 348.0 Z M 276.3 338.5 C 276.3 338.5 277.3 337.8 277.5 337.9 C 279.1 339.0 276.3 338.5 276.3 338.5 C 276.3 338.5 276.3 338.5 276.3 338.5 Z M 226.8 341.5 C 224.5 341.0 226.4 339.6 228.2 340.2 C 229.7 340.6 229.1 341.9 226.8 341.5 C 226.8 341.5 226.8 341.5 226.8 341.5 Z M 234.4 346.9 C 232.3 344.8 234.5 343.9 236.0 345.7 C 237.3 347.3 236.5 348.9 234.4 346.9 C 234.4 346.9 234.4 346.9 234.4 346.9 Z M 225.4 348.7 C 225.9 348.6 226.0 348.8 225.9 349.4 C 225.4 350.2 223.5 349.8 223.0 349.1 C 222.2 347.7 225.4 348.7 225.4 348.7 M 230.6 358.9 C 234.4 355.6 230.9 363.7 230.3 362.9 C 229.7 361.9 229.7 359.6 230.6 358.9 C 230.6 358.9 230.6 358.9 230.6 358.9 Z M 263.5 361.5 C 264.3 360.7 265.6 361.7 264.8 362.4 C 264.2 362.9 262.8 362.4 263.5 361.5 C 263.5 361.5 263.5 361.5 263.5 361.5 Z M 260.1 342.2 C 260.5 341.7 262.6 342.0 261.8 342.7 C 261.2 343.1 259.3 343.0 260.1 342.2 C 260.1 342.2 260.1 342.2 260.1 342.2 Z M 210.4 340.7 C 210.8 340.3 212.9 340.5 212.1 341.2 C 211.6 341.7 209.6 341.5 210.4 340.7 C 210.4 340.7 210.4 340.7 210.4 340.7 Z M 282.7 355.1 C 284.3 353.8 285.6 355.5 284.3 356.1 C 283.0 356.7 281.1 356.3 282.7 355.1 C 282.7 355.1 282.7 355.1 282.7 355.1 Z M 317.1 347.4 C 317.8 346.7 318.6 347.8 317.9 347.9 C 317.2 348.1 316.7 347.7 317.1 347.4 C 317.1 347.4 317.1 347.4 317.1 347.4 Z M 323.5 344.7 C 324.0 344.3 324.7 344.9 324.1 345.0 C 323.3 345.2 323.1 344.9 323.5 344.7 C 323.5 344.7 323.5 344.7 323.5 344.7 Z M 350.1 351.5 C 351.2 350.7 353.0 352.0 351.4 352.3 C 349.8 352.6 349.2 352.1 350.1 351.5 C 350.1 351.5 350.1 351.5 350.1 351.5 Z M 329.3 341.5 C 329.8 341.1 330.5 341.7 329.9 341.9 C 329.2 342.0 328.9 341.8 329.3 341.5 C 329.3 341.5 329.3 341.5 329.3 341.5 Z M 347.7 343.2 C 348.8 342.3 349.8 343.8 348.9 343.9 C 347.9 344.1 347.2 343.7 347.7 343.2 C 347.7 343.2 347.7 343.2 347.7 343.2 Z M 345.2 337.5 C 346.2 336.5 347.2 338.0 346.3 338.2 C 345.4 338.4 344.7 337.9 345.2 337.5 C 345.2 337.5 345.2 337.5 345.2 337.5 Z M 304.1 366.4 C 305.2 365.5 306.2 367.0 305.3 367.1 C 304.3 367.3 303.6 366.9 304.1 366.4 C 304.1 366.4 304.1 366.4 304.1 366.4 Z M 236.9 339.3 C 238.8 339.1 239.4 340.1 238.3 341.0 C 237.2 342.0 235.0 339.4 236.9 339.3 C 236.9 339.3 236.9 339.3 236.9 339.3 Z M 346.3 345.8 C 346.8 345.2 347.3 346.0 346.8 346.3 C 346.4 346.5 345.7 346.4 346.3 345.8 C 346.3 345.8 346.3 345.8 346.3 345.8 Z M 301.2 351.0 C 301.5 351.6 301.6 352.1 301.2 352.5 C 300.1 352.4 298.7 350.4 299.1 348.9 C 299.4 347.5 303.2 349.5 302.3 350.8 C 302.1 351.1 300.9 350.2 301.2 351.0 M 307.3 360.4 C 308.0 361.0 307.2 361.7 306.5 361.0 C 305.7 360.1 306.5 359.8 307.3 360.4 C 307.3 360.4 307.3 360.4 307.3 360.4 Z M 286.8 363.9 C 287.6 364.5 286.7 365.2 286.1 364.5 C 285.3 363.6 286.1 363.3 286.8 363.9 C 286.8 363.9 286.8 363.9 286.8 363.9 Z M 326.1 340.4 C 327.1 340.5 326.0 339.7 326.4 339.4 C 327.0 339.4 327.5 339.7 328.0 340.3 C 328.5 341.8 325.5 340.8 325.3 340.5 C 325.5 340.5 325.8 340.4 326.1 340.4 M 350.3 361.4 C 351.4 361.5 350.3 360.7 350.6 360.4 C 351.2 360.4 351.8 360.7 352.2 361.3 C 352.7 362.8 349.7 361.8 349.6 361.5 C 349.8 361.5 350.1 361.4 350.3 361.4 M 203.9 342.8 C 204.1 343.3 201.4 344.3 201.9 343.0 C 202.1 342.4 203.7 342.3 203.9 342.8 M 282.3 366.9 C 282.5 367.3 279.8 368.3 280.2 367.0 C 280.4 366.5 282.1 366.3 282.3 366.9 M 291.8 359.7 C 292.9 359.8 291.8 359.0 292.1 358.7 C 292.7 358.7 293.3 359.0 293.7 359.6 C 294.2 361.1 291.2 360.1 291.0 359.8 C 291.3 359.8 291.5 359.7 291.8 359.7 M 336.3 361.2 C 336.2 360.6 337.6 360.6 337.2 361.3 C 336.8 361.7 336.4 361.7 336.3 361.2 C 336.3 361.2 336.3 361.2 336.3 361.2 Z M 268.8 342.8 C 268.7 342.2 270.4 342.7 269.6 343.1 C 269.1 343.3 268.9 343.4 268.8 342.8 C 268.8 342.8 268.8 342.8 268.8 342.8 Z M 293.7 349.5 C 292.9 350.3 292.9 348.8 293.2 348.2 C 294.1 346.6 295.5 350.1 295.1 350.2 C 294.7 350.2 293.9 349.3 293.7 349.5 M 261.5 350.4 C 260.0 351.7 260.4 345.5 263.0 349.1 C 265.5 352.6 261.8 350.1 261.5 350.4 M 360.9 362.7 C 361.5 362.1 358.1 361.3 358.5 360.7 C 359.4 359.3 362.2 362.1 362.2 363.4 C 362.2 363.8 359.8 363.8 360.9 362.7 M 333.5 346.5 C 334.1 345.8 330.7 345.1 331.0 344.5 C 331.9 343.1 334.8 345.9 334.8 347.2 C 334.8 347.5 332.4 347.6 333.5 346.5 M 273.8 345.6 C 273.0 345.5 274.9 343.4 275.7 344.8 C 277.1 347.2 274.4 345.6 273.8 345.6 M 216.9 342.3 C 216.3 342.5 215.9 342.3 215.6 341.7 C 215.2 340.9 217.9 340.7 217.7 341.0 C 217.4 341.5 217.1 341.9 216.9 342.3 M 322.8 361.4 C 323.2 360.3 324.3 361.8 323.6 362.1 C 322.8 362.5 322.3 362.5 322.8 361.4 C 322.8 361.4 322.8 361.4 322.8 361.4 Z M 234.0 367.0 C 234.5 365.9 235.6 367.5 234.9 367.8 C 234.0 368.1 233.6 368.1 234.0 367.0 C 234.0 367.0 234.0 367.0 234.0 367.0 Z M 368.0 341.5 C 368.4 340.6 369.6 341.8 368.9 342.0 C 368.0 342.3 367.6 342.3 368.0 341.5 C 368.0 341.5 368.0 341.5 368.0 341.5 Z M 330.1 349.4 C 330.4 349.2 332.3 349.9 330.8 350.7 C 329.9 351.2 329.8 349.7 330.1 349.4 C 330.1 349.4 330.1 349.4 330.1 349.4 Z M 357.4 340.5 C 357.9 340.2 360.4 341.0 358.3 341.9 C 357.1 342.4 357.0 340.9 357.4 340.5 C 357.4 340.5 357.4 340.5 357.4 340.5 Z M 312.9 354.5 C 313.3 354.0 313.9 354.6 313.2 355.0 C 312.7 355.3 312.5 355.0 312.9 354.5 C 312.9 354.5 312.9 354.5 312.9 354.5 Z M 309.4 338.0 C 309.8 337.5 310.4 338.1 309.7 338.5 C 309.2 338.7 309.0 338.5 309.4 338.0 C 309.4 338.0 309.4 338.0 309.4 338.0 Z M 290.5 345.0 C 290.9 344.5 291.5 345.1 290.8 345.5 C 290.3 345.8 290.1 345.5 290.5 345.0 C 290.5 345.0 290.5 345.0 290.5 345.0 Z M 318.0 339.3 C 320.7 338.4 322.5 339.3 319.2 341.3 C 317.2 342.5 317.3 339.5 318.0 339.3 C 318.0 339.3 318.0 339.3 318.0 339.3 Z M 298.5 355.8 C 299.1 355.3 299.4 356.0 298.8 356.3 C 298.4 356.4 297.9 356.2 298.5 355.8 C 298.5 355.8 298.5 355.8 298.5 355.8 Z M 296.9 344.1 C 295.1 342.8 302.7 341.7 301.5 345.1 C 300.0 349.5 297.7 344.7 296.9 344.1 M 265.5 340.2 C 264.8 339.5 267.1 339.2 267.0 340.5 C 266.9 342.9 265.7 340.4 265.5 340.2 M 253.0 361.9 C 253.0 361.9 253.5 363.1 252.9 362.8 C 251.8 362.3 253.0 361.9 253.0 361.9 C 253.0 361.9 253.0 361.9 253.0 361.9 Z M 256.3 360.2 C 256.7 359.4 258.6 360.4 257.4 360.7 C 256.7 361.0 255.8 361.0 256.3 360.2 C 256.3 360.2 256.3 360.2 256.3 360.2 Z M 257.8 339.2 C 258.0 338.9 258.9 339.3 258.3 339.5 C 258.0 339.6 257.6 339.6 257.8 339.2 C 257.8 339.2 257.8 339.2 257.8 339.2 Z M 256.7 366.4 C 257.2 365.8 259.0 366.6 257.8 366.8 C 257.2 367.0 256.3 367.0 256.7 366.4 C 256.7 366.4 256.7 366.4 256.7 366.4 Z M 305.1 338.4 C 305.3 338.1 306.1 338.5 305.6 338.7 C 305.3 338.7 304.9 338.7 305.1 338.4 C 305.1 338.4 305.1 338.4 305.1 338.4 Z M 362.9 338.2 C 363.1 337.9 363.9 338.3 363.4 338.5 C 363.1 338.5 362.7 338.5 362.9 338.2 C 362.9 338.2 362.9 338.2 362.9 338.2 Z M 218.5 359.6 C 218.9 358.7 220.7 359.9 219.5 360.3 C 218.9 360.5 218.1 360.5 218.5 359.6 C 218.5 359.6 218.5 359.6 218.5 359.6 Z M 311.1 344.9 C 311.6 344.0 313.0 345.2 311.7 345.7 C 311.0 345.9 310.6 345.9 311.1 344.9 C 311.1 344.9 311.1 344.9 311.1 344.9 Z M 244.8 360.9 C 245.3 360.0 246.7 361.2 245.4 361.6 C 244.6 361.8 244.3 361.9 244.8 360.9 C 244.8 360.9 244.8 360.9 244.8 360.9 Z M 307.4 343.6 C 307.7 343.0 308.5 343.5 307.8 343.8 C 307.4 343.9 307.1 344.1 307.4 343.6 C 307.4 343.6 307.4 343.6 307.4 343.6 Z M 321.0 362.8 C 321.3 362.2 322.2 362.7 321.4 363.0 C 321.0 363.1 320.7 363.3 321.0 362.8 C 321.0 362.8 321.0 362.8 321.0 362.8 Z M 333.4 366.5 C 333.7 365.9 334.6 366.4 333.8 366.7 C 333.4 366.8 333.1 367.0 333.4 366.5 C 333.4 366.5 333.4 366.5 333.4 366.5 Z M 320.1 351.2 C 320.4 350.8 321.6 351.4 320.8 351.6 C 320.4 351.7 319.8 351.7 320.1 351.2 C 320.1 351.2 320.1 351.2 320.1 351.2 Z M 240.7 353.8 C 239.5 353.9 237.8 352.2 237.5 350.5 C 237.7 351.8 241.7 350.6 242.1 350.8 C 242.6 351.0 241.9 353.6 240.7 353.8 M 324.0 352.6 C 316.5 353.5 320.5 347.7 325.4 349.6 C 325.8 349.8 325.1 352.5 324.0 352.6 C 325.8 349.8 325.1 352.5 324.0 352.6 C 325.8 349.8 325.1 352.5 324.0 352.6 C 325.8 349.8 325.1 352.5 324.0 352.6 M 373.7 338.8 C 369.4 339.4 372.3 339.7 370.3 342.5 C 369.9 343.0 366.6 345.2 366.9 346.0 C 367.5 347.2 369.8 345.8 370.4 346.8 C 371.7 349.1 367.8 349.5 367.4 350.5 C 366.3 353.0 368.5 355.5 370.0 356.9 C 372.0 358.9 371.5 355.5 372.8 354.9 C 373.7 354.5 373.3 357.6 373.2 358.2 C 372.7 361.0 370.2 359.1 371.0 363.1 C 371.5 365.6 371.6 366.7 374.0 365.7 C 375.8 365.0 375.6 362.2 376.3 360.3 C 376.6 359.4 382.6 360.0 381.1 362.2 C 380.1 363.7 379.5 365.1 381.8 365.0 C 382.5 364.7 383.2 364.2 383.8 363.5 C 384.8 362.6 385.6 364.2 386.9 363.4 C 389.6 361.8 393.4 367.1 396.9 365.3 C 397.5 365.1 400.6 359.8 402.1 364.4 C 403.0 364.7 403.1 362.0 403.7 362.0 C 405.7 362.1 405.2 364.0 405.8 364.5 C 407.2 364.8 412.5 360.9 412.6 363.4 C 412.8 367.3 418.2 365.4 418.4 364.6 C 418.6 364.2 423.3 365.2 425.8 364.7 C 425.5 364.4 425.2 364.2 424.9 364.0 C 425.3 364.0 426.0 363.5 426.2 363.5 C 425.3 363.5 422.0 362.1 421.3 361.3 C 421.1 360.9 427.7 358.7 427.3 361.5 C 427.1 362.9 426.9 363.9 428.6 363.3 C 430.9 362.5 428.8 364.3 430.4 364.9 C 433.0 365.8 433.4 361.8 435.5 364.1 C 437.0 365.7 437.0 364.3 438.6 363.8 C 441.4 363.0 441.6 366.0 444.0 365.7 C 444.3 365.6 449.4 365.4 448.1 364.0 C 447.2 363.0 444.7 362.7 444.0 361.3 C 442.7 358.4 449.5 361.9 448.8 361.7 C 450.3 362.0 453.7 358.5 454.6 359.4 C 455.4 360.1 451.5 363.0 451.1 363.4 C 449.5 365.0 456.2 364.5 456.0 364.5 C 457.0 364.8 458.3 363.3 459.0 363.8 C 460.2 364.7 460.2 365.1 461.7 364.9 C 462.7 364.8 463.3 364.9 464.4 364.9 C 465.7 364.9 466.0 362.2 467.1 361.3 C 468.9 359.9 468.8 362.7 469.8 363.2 C 472.1 364.3 477.1 361.1 477.9 363.4 C 478.8 366.1 482.0 359.6 484.2 362.4 C 484.9 363.4 487.2 364.1 487.6 363.4 C 486.7 365.0 491.1 364.9 492.0 365.0 C 493.1 365.3 493.9 363.9 494.9 363.4 C 496.1 362.7 497.1 364.5 498.2 365.1 C 500.5 366.6 499.1 361.6 501.0 363.3 C 504.1 366.1 502.3 358.9 503.3 358.6 C 503.7 358.4 505.6 363.1 506.0 363.7 C 506.8 364.6 506.7 361.9 507.3 362.8 C 508.2 363.9 509.6 365.7 510.8 363.9 C 511.4 363.2 510.4 360.2 511.4 360.5 C 511.6 360.6 513.2 361.9 513.3 361.4 C 513.7 356.2 516.6 366.3 513.7 364.3 C 515.0 365.2 522.5 365.9 522.6 363.6 C 522.6 362.5 519.2 362.2 519.8 361.0 C 520.9 358.6 526.7 362.3 524.8 363.4 C 526.1 362.6 529.2 366.1 531.2 364.6 C 531.5 364.3 533.1 365.0 533.2 364.5 C 533.3 363.7 533.0 361.7 533.5 361.1 C 534.6 359.8 537.4 358.4 536.8 356.1 C 536.6 355.5 533.5 347.0 533.3 347.6 C 533.6 346.7 535.6 346.9 535.7 345.7 C 535.8 343.7 530.1 346.1 530.8 343.3 C 530.8 343.3 528.8 342.8 528.7 342.1 C 528.4 339.9 529.2 340.6 527.1 340.3 C 525.3 340.0 526.7 340.7 526.0 342.0 C 525.5 342.7 524.0 338.6 521.5 340.8 C 523.7 341.3 522.8 342.4 523.9 344.0 C 525.6 346.3 522.1 346.4 521.2 346.6 C 517.5 347.3 516.0 345.9 513.0 343.9 C 511.3 342.8 515.8 336.5 512.3 340.5 C 510.8 342.2 504.3 340.7 502.2 341.7 C 502.3 341.6 504.0 343.0 504.0 343.3 C 504.3 347.6 496.7 343.9 495.6 342.9 C 493.9 341.4 494.2 342.9 495.0 344.5 C 496.2 346.7 494.1 346.9 492.8 346.8 C 492.1 346.8 490.1 346.2 489.5 346.8 C 488.7 347.7 486.2 341.7 485.4 341.2 C 483.7 340.1 483.4 342.7 481.3 341.6 C 481.0 341.5 476.6 338.4 476.6 339.6 C 476.7 342.2 484.5 343.5 477.9 344.7 C 477.5 344.8 469.8 345.4 470.7 343.9 C 471.1 343.2 472.1 343.6 472.7 343.3 C 470.3 344.5 469.2 338.0 465.6 339.7 C 463.9 340.5 455.6 338.9 458.4 342.3 C 461.0 345.3 457.5 346.9 455.2 345.1 C 453.2 343.4 452.6 342.9 450.5 344.5 C 450.2 344.8 445.3 345.8 445.8 344.1 C 446.1 343.0 447.9 343.6 448.1 341.8 C 448.2 340.7 447.1 339.8 446.3 340.3 C 445.4 340.8 445.3 342.3 444.7 343.1 C 444.5 343.3 442.4 342.2 442.1 342.2 C 440.8 342.0 438.9 342.4 437.7 341.5 C 436.8 340.9 438.4 339.7 437.8 339.2 C 434.3 336.6 437.9 344.3 438.0 343.9 C 438.0 344.1 433.7 346.3 433.2 346.4 C 430.1 347.0 429.1 345.2 428.4 342.1 C 428.3 341.5 432.6 340.8 432.6 340.8 C 430.1 336.6 426.8 340.0 424.0 339.4 C 423.2 339.3 417.8 337.2 418.9 340.8 C 419.5 342.9 417.6 342.0 416.8 342.1 C 417.1 342.1 420.1 345.4 420.7 345.9 C 418.5 346.2 416.3 346.7 414.1 346.7 C 412.9 346.7 411.3 346.9 410.2 346.3 C 409.6 346.0 409.1 343.1 407.7 344.2 C 408.5 343.5 409.7 343.2 410.7 342.8 C 409.7 342.5 407.2 337.9 405.7 340.1 C 405.2 340.8 406.2 341.9 405.0 342.2 C 403.9 342.4 402.6 342.4 401.5 343.0 C 400.5 343.5 401.0 348.5 397.3 346.2 C 397.5 346.3 395.9 342.7 395.9 342.9 C 395.6 341.1 395.3 340.3 393.6 340.2 C 394.7 340.2 394.4 346.1 392.1 346.6 C 389.8 347.1 384.8 346.8 385.1 342.6 C 383.5 341.7 382.1 339.1 379.8 341.6 C 378.4 343.1 375.2 343.9 373.5 342.1 C 373.0 341.6 375.5 340.9 375.7 340.5 C 376.0 339.8 374.0 338.7 373.7 338.8 M 378.0 339.9 C 378.6 340.9 375.5 340.5 376.5 339.1 C 377.1 339.0 377.6 339.2 378.0 339.9 M 376.2 341.9 C 375.7 342.4 375.6 341.6 375.8 341.5 C 376.1 341.3 376.7 341.4 376.2 341.9 C 376.2 341.9 376.2 341.9 376.2 341.9 Z M 399.7 343.4 C 398.4 343.6 398.5 343.1 399.3 342.5 C 400.1 341.8 400.9 343.1 399.7 343.4 C 399.7 343.4 399.7 343.4 399.7 343.4 Z M 418.2 367.1 C 417.0 367.4 417.0 366.8 417.8 366.2 C 418.6 365.6 419.4 366.9 418.2 367.1 C 418.2 367.1 418.2 367.1 418.2 367.1 Z M 415.3 343.9 C 415.3 344.2 414.8 344.2 414.8 343.8 C 414.8 343.4 415.3 343.6 415.3 343.9 C 415.3 343.9 415.3 343.9 415.3 343.9 Z M 391.3 344.9 C 391.3 345.2 390.7 345.1 390.7 344.8 C 390.7 344.4 391.3 344.5 391.3 344.9 C 391.3 344.9 391.3 344.9 391.3 344.9 Z M 413.9 340.4 C 414.6 340.8 412.9 343.1 411.7 339.7 C 411.4 338.9 414.0 339.7 414.2 339.9 C 414.4 340.1 413.3 340.1 413.9 340.4 M 434.3 339.0 C 434.8 339.2 435.0 339.6 434.7 340.3 C 434.7 340.4 432.7 339.4 434.3 339.0 M 479.3 366.9 C 479.8 367.1 480.0 367.5 479.7 368.1 C 479.7 368.3 477.7 367.3 479.3 366.9 M 483.0 338.8 C 483.6 338.3 484.7 339.7 484.4 340.0 C 483.9 340.6 482.0 339.6 483.0 338.8 M 454.6 342.6 C 454.9 342.3 458.1 342.5 457.5 343.2 C 456.8 343.9 454.4 342.7 454.6 342.6 M 499.4 340.8 C 498.7 340.4 497.9 340.1 497.3 339.7 C 497.0 339.5 501.9 338.2 501.9 339.8 C 501.9 340.9 499.8 340.9 499.4 340.8 M 507.0 338.7 C 507.4 338.3 509.3 338.9 509.1 339.7 C 508.9 340.9 506.3 339.4 507.0 338.7 M 471.7 340.0 C 472.1 340.2 471.7 340.9 471.2 340.8 C 470.4 340.6 471.2 339.9 471.7 340.0 C 471.7 340.0 471.7 340.0 471.7 340.0 Z M 452.0 341.2 C 451.7 341.2 449.5 340.5 450.1 339.8 C 451.6 338.0 457.3 339.9 452.0 341.2 M 402.5 339.9 C 402.4 339.9 404.2 338.8 404.5 340.7 C 404.9 343.3 402.5 340.1 402.5 339.9 M 393.2 341.9 C 393.8 342.1 393.4 342.8 392.9 342.5 C 392.3 342.2 392.6 341.8 393.2 341.9 C 393.2 341.9 393.2 341.9 393.2 341.9 Z M 486.8 340.5 C 487.5 341.0 485.9 341.3 485.9 340.8 C 485.9 340.4 486.1 340.1 486.8 340.5 C 486.8 340.5 486.8 340.5 486.8 340.5 Z M 495.9 339.9 C 496.6 340.3 495.0 340.6 495.0 340.2 C 495.0 339.7 495.2 339.5 495.9 339.9 C 495.9 339.9 495.9 339.9 495.9 339.9 Z M 510.9 366.0 C 511.6 366.4 510.0 366.7 510.0 366.2 C 510.0 365.8 510.2 365.5 510.9 366.0 C 510.9 366.0 510.9 366.0 510.9 366.0 Z M 400.0 352.8 C 399.5 353.2 399.1 353.0 398.9 352.3 C 399.0 351.7 399.3 351.4 399.8 351.3 C 399.1 351.4 395.9 350.9 397.6 349.5 C 399.1 348.2 400.7 350.4 402.1 349.8 C 402.7 349.6 403.2 347.9 403.1 347.6 C 403.2 347.7 404.5 348.3 405.1 350.6 C 405.7 353.3 400.8 352.2 400.0 352.8 M 446.0 349.1 C 446.3 349.2 449.0 349.6 448.9 350.0 C 448.0 354.1 441.3 349.7 442.5 346.1 C 443.9 341.6 447.0 349.5 446.0 349.1 M 508.2 344.5 C 506.1 344.5 511.0 346.4 510.7 347.5 C 510.4 349.3 506.4 346.1 506.0 345.5 C 503.6 341.6 509.9 341.8 510.2 343.9 C 509.7 344.5 509.0 344.7 508.2 344.5 M 520.5 342.7 C 521.5 343.5 516.5 344.2 516.0 343.8 C 515.1 343.3 515.6 341.6 516.2 341.1 C 517.9 339.4 519.3 341.5 520.5 342.7 M 434.6 343.3 C 436.1 344.9 430.1 345.9 430.5 343.6 C 430.7 342.5 434.1 342.8 434.6 343.3 M 472.1 358.0 C 471.3 356.8 476.0 357.1 476.3 356.9 C 476.9 356.6 474.6 354.1 475.1 354.3 C 477.3 354.8 487.7 355.2 479.4 357.5 C 477.8 358.0 476.4 360.8 474.8 361.2 C 471.4 362.1 473.4 360.0 472.1 358.0 M 379.9 344.9 C 381.3 345.2 380.3 342.8 381.2 342.4 C 382.3 341.9 383.6 344.8 382.8 345.8 C 379.7 349.5 375.0 343.5 379.9 344.9 M 403.6 345.6 C 402.5 345.2 403.1 344.3 403.8 344.5 C 404.6 344.6 404.8 345.9 403.6 345.6 C 403.6 345.6 403.6 345.6 403.6 345.6 Z M 413.0 344.3 C 413.5 344.2 414.7 345.3 414.4 346.2 C 413.8 347.3 410.9 344.6 413.0 344.3 M 383.7 337.9 C 384.2 337.9 385.4 339.0 385.0 339.8 C 384.5 341.0 381.6 338.2 383.7 337.9 M 471.9 349.9 C 472.5 349.8 473.7 350.9 473.3 351.7 C 472.8 352.9 469.9 350.2 471.9 349.9 M 452.8 344.7 C 454.4 344.4 456.1 348.6 454.4 348.2 C 453.3 348.0 449.8 345.1 452.8 344.7 M 430.4 359.6 C 430.8 359.7 431.1 359.8 431.4 359.9 C 433.2 363.3 424.7 359.9 430.4 359.6 M 467.8 341.7 C 470.8 341.5 468.8 347.3 467.2 347.1 C 463.5 346.8 465.1 342.0 467.8 341.7 M 448.3 343.9 C 447.7 343.4 449.0 342.7 449.7 343.9 C 449.9 344.2 448.9 344.4 448.3 343.9 C 448.3 343.9 448.3 343.9 448.3 343.9 Z M 474.5 358.9 C 474.7 359.4 474.2 359.8 474.0 359.2 C 473.8 358.7 474.3 358.4 474.5 358.9 C 474.5 358.9 474.5 358.9 474.5 358.9 Z M 477.3 358.5 C 477.8 358.7 476.9 359.5 476.4 359.1 C 475.6 358.4 476.8 358.3 477.3 358.5 C 477.3 358.5 477.3 358.5 477.3 358.5 Z M 475.8 340.9 C 476.3 341.0 475.4 341.9 474.9 341.5 C 474.1 340.8 475.3 340.7 475.8 340.9 C 475.8 340.9 475.8 340.9 475.8 340.9 Z M 392.6 362.3 C 395.2 361.9 395.1 363.1 392.9 363.0 C 391.6 362.8 389.9 362.6 392.6 362.3 C 392.6 362.3 392.6 362.3 392.6 362.3 Z M 421.3 340.5 C 425.3 339.7 425.3 346.3 421.3 344.7 C 421.3 344.7 417.3 341.3 421.3 340.5 C 421.3 340.5 421.3 340.5 421.3 340.5 Z M 433.5 350.1 C 433.9 349.7 434.2 351.1 433.5 351.4 C 433.0 351.7 433.1 350.6 433.5 350.1 C 433.5 350.1 433.5 350.1 433.5 350.1 Z M 463.7 337.2 C 464.1 336.7 464.3 338.1 463.7 338.4 C 463.2 338.7 463.3 337.6 463.7 337.2 C 463.7 337.2 463.7 337.2 463.7 337.2 Z M 395.8 363.2 C 396.2 362.8 396.5 364.2 395.8 364.5 C 395.3 364.8 395.4 363.7 395.8 363.2 C 395.8 363.2 395.8 363.2 395.8 363.2 Z M 494.2 344.9 C 494.6 344.4 494.9 345.8 494.2 346.1 C 493.7 346.4 493.8 345.3 494.2 344.9 C 494.2 344.9 494.2 344.9 494.2 344.9 Z M 457.0 360.0 C 456.5 358.7 459.6 359.2 458.2 359.8 C 456.7 360.4 457.5 361.3 457.0 360.0 C 457.0 360.0 457.0 360.0 457.0 360.0 Z M 466.6 360.1 C 466.4 359.3 467.8 359.1 467.4 359.9 C 467.2 360.5 466.8 360.8 466.6 360.1 C 466.6 360.1 466.6 360.1 466.6 360.1 Z M 509.5 338.1 C 509.3 337.3 510.6 337.1 510.2 337.9 C 510.0 338.5 509.7 338.9 509.5 338.1 C 509.5 338.1 509.5 338.1 509.5 338.1 Z M 491.3 367.0 C 491.1 366.3 492.5 366.1 492.1 366.9 C 491.9 367.4 491.5 367.8 491.3 367.0 C 491.3 367.0 491.3 367.0 491.3 367.0 Z M 499.5 358.4 C 500.4 358.8 499.8 359.7 499.1 358.7 C 498.6 358.0 498.5 357.9 499.5 358.4 C 499.5 358.4 499.5 358.4 499.5 358.4 Z M 474.0 342.7 C 474.1 341.9 480.2 342.4 477.3 343.3 C 475.8 343.9 473.9 344.2 474.0 342.7 C 474.0 342.7 474.0 342.7 474.0 342.7 Z M 523.4 356.0 C 524.0 355.4 524.6 356.7 524.2 357.4 C 524.2 357.4 522.8 356.6 523.4 356.0 C 523.4 356.0 523.4 356.0 523.4 356.0 Z M 528.3 345.9 C 528.9 345.3 529.5 346.6 529.1 347.3 C 529.1 347.3 527.7 346.5 528.3 345.9 C 528.3 345.9 528.3 345.9 528.3 345.9 Z M 530.8 340.5 C 531.4 339.9 532.0 341.2 531.6 342.0 C 531.6 342.0 530.2 341.1 530.8 340.5 C 530.8 340.5 530.8 340.5 530.8 340.5 Z M 412.8 355.1 C 411.6 356.0 412.1 354.1 412.1 354.1 C 414.0 354.3 414.0 354.3 412.8 355.1 C 412.8 355.1 412.8 355.1 412.8 355.1 Z M 409.0 338.7 C 408.5 339.1 408.7 338.3 408.7 338.3 C 409.5 338.4 409.5 338.4 409.0 338.7 C 409.0 338.7 409.0 338.7 409.0 338.7 Z M 422.1 337.9 C 421.6 338.3 421.8 337.5 421.8 337.5 C 422.6 337.6 422.6 337.6 422.1 337.9 C 422.1 337.9 422.1 337.9 422.1 337.9 Z M 410.4 365.1 C 409.7 365.5 410.0 364.5 410.0 364.5 C 411.2 364.6 411.2 364.6 410.4 365.1 C 410.4 365.1 410.4 365.1 410.4 365.1 Z M 459.6 351.1 C 458.5 351.9 459.0 350.2 459.0 350.2 C 460.7 350.4 460.7 350.4 459.6 351.1 C 459.6 351.1 459.6 351.1 459.6 351.1 Z M 464.2 357.7 C 463.1 358.5 463.5 356.8 463.5 356.8 C 465.3 357.0 465.3 357.0 464.2 357.7 C 464.2 357.7 464.2 357.7 464.2 357.7 Z M 452.9 366.6 C 452.4 366.9 452.6 366.2 452.6 366.2 C 453.4 366.2 453.4 366.2 452.9 366.6 C 452.9 366.6 452.9 366.6 452.9 366.6 Z M 467.8 363.5 C 467.3 363.8 467.5 363.1 467.5 363.1 C 468.3 363.2 468.3 363.2 467.8 363.5 C 467.8 363.5 467.8 363.5 467.8 363.5 Z M 377.5 362.0 C 378.4 361.9 378.4 362.7 377.4 362.5 C 376.8 362.5 376.6 362.1 377.5 362.0 C 377.5 362.0 377.5 362.0 377.5 362.0 Z M 376.5 349.4 C 377.9 349.3 378.0 351.1 375.9 350.7 C 374.8 350.5 375.0 349.6 376.5 349.4 C 376.5 349.4 376.5 349.4 376.5 349.4 Z M 461.1 342.0 C 460.6 341.8 462.3 341.3 462.4 341.3 C 463.1 341.4 463.3 342.9 463.5 343.0 C 462.8 342.6 461.8 342.3 461.1 342.0 M 442.4 343.6 C 443.1 343.9 442.5 344.4 442.1 344.2 C 441.6 343.9 441.7 343.3 442.4 343.6 C 442.4 343.6 442.4 343.6 442.4 343.6 Z M 492.6 342.4 C 493.9 344.3 490.0 344.5 489.3 343.0 C 489.1 342.6 491.4 340.6 492.6 342.4 C 492.6 342.4 492.6 342.4 492.6 342.4 Z M 482.7 363.5 C 482.9 363.1 483.7 363.5 483.2 363.7 C 482.5 364.0 482.5 363.8 482.7 363.5 C 482.7 363.5 482.7 363.5 482.7 363.5 Z M 487.6 361.3 C 488.6 360.7 489.5 363.1 488.6 362.8 C 487.3 362.4 486.6 361.9 487.6 361.3 C 487.6 361.3 487.6 361.3 487.6 361.3 Z M 514.7 347.8 C 515.4 347.8 515.9 348.3 516.2 349.2 C 516.8 350.7 512.2 347.5 514.7 347.8 M 440.0 339.1 C 440.7 339.0 441.3 339.2 441.8 339.9 C 442.7 342.3 437.3 338.9 440.0 339.1 M 498.9 342.7 C 499.8 343.0 498.5 343.7 498.1 343.1 C 497.6 342.4 498.0 342.3 498.9 342.7 C 498.9 342.7 498.9 342.7 498.9 342.7 Z M 520.7 345.0 C 521.6 345.3 520.3 346.0 519.9 345.4 C 519.4 344.7 519.8 344.6 520.7 345.0 C 520.7 345.0 520.7 345.0 520.7 345.0 Z M 426.7 342.5 C 428.8 342.0 427.2 345.9 426.4 346.4 C 424.4 347.6 425.9 344.1 425.8 343.9 C 425.8 343.8 425.8 345.5 426.2 345.0 C 427.1 343.9 426.0 342.7 426.7 342.5 M 389.4 344.4 C 391.0 344.7 390.6 346.3 389.6 345.7 C 388.5 345.1 387.9 344.1 389.4 344.4 C 389.4 344.4 389.4 344.4 389.4 344.4 Z M 550.4 340.6 C 548.6 337.8 545.9 339.1 543.0 338.6 C 542.5 338.5 540.1 340.1 540.8 340.6 C 543.1 342.5 541.7 347.4 540.2 343.6 C 539.3 341.3 540.5 337.7 537.3 338.8 C 535.1 339.5 537.9 342.6 535.6 343.8 C 535.2 344.0 532.6 344.8 532.8 345.7 C 533.0 346.6 534.4 346.2 534.4 347.3 C 534.4 348.6 533.5 350.0 533.2 351.2 C 532.5 353.2 533.4 357.0 534.9 358.2 C 535.8 358.9 539.1 359.0 537.6 360.9 C 534.8 364.6 544.3 367.9 544.9 365.5 C 545.4 363.7 546.6 362.7 547.8 361.7 C 549.7 360.0 550.9 363.9 552.3 364.2 C 559.6 365.9 553.4 359.5 554.6 357.8 C 555.2 357.0 558.0 357.1 558.9 357.3 C 562.2 357.9 559.9 360.7 560.0 364.0 C 560.0 365.0 568.5 365.8 567.4 362.4 C 570.6 362.5 568.1 365.0 572.6 364.7 C 573.9 364.6 572.3 362.5 574.1 362.4 C 578.4 362.5 575.6 364.5 577.2 364.6 C 578.8 364.7 580.4 363.7 581.4 362.2 C 582.3 361.0 582.6 362.0 583.5 362.4 C 585.2 363.3 585.0 360.1 586.5 360.3 C 592.4 360.9 585.1 364.8 587.1 364.9 C 595.0 365.2 593.4 361.9 597.7 362.1 C 599.4 362.2 602.1 368.2 604.9 363.7 C 608.4 357.9 608.5 365.6 611.9 365.3 C 613.1 365.1 613.8 365.0 615.0 365.1 C 615.9 365.2 614.2 362.2 614.6 361.5 C 614.8 360.9 618.2 357.8 617.4 356.8 C 615.1 354.3 615.7 358.8 612.6 358.7 C 609.3 358.5 611.7 357.1 612.3 356.3 C 612.9 356.2 613.9 355.9 614.4 355.6 C 614.9 354.7 613.0 353.5 613.3 352.6 C 613.4 351.8 619.9 352.0 620.0 352.8 C 620.3 354.0 617.2 353.5 618.7 356.2 C 620.1 358.7 619.7 358.8 617.7 360.2 C 615.0 362.2 619.7 365.4 621.3 365.5 C 622.5 365.5 625.0 365.8 626.1 365.4 C 628.2 364.6 624.5 362.6 630.2 363.3 C 633.2 363.7 640.1 359.5 641.7 361.3 C 642.3 361.9 638.6 364.9 642.9 364.9 C 645.1 364.9 647.4 365.4 649.4 365.5 C 656.2 365.6 650.7 364.2 652.2 363.5 C 654.6 362.5 657.1 365.0 659.4 364.6 C 661.2 364.2 662.1 362.0 664.0 363.1 C 666.1 364.3 666.4 365.0 668.8 364.9 C 669.3 364.9 674.0 363.8 673.9 363.5 C 673.5 362.7 670.5 363.7 670.7 362.7 C 671.5 359.1 675.0 361.2 676.7 361.9 C 677.6 362.4 680.8 360.9 681.0 363.0 C 681.1 364.2 677.9 364.8 678.4 364.9 C 685.4 365.7 687.9 362.7 690.3 362.9 C 693.7 363.2 689.9 364.6 693.6 364.8 C 694.9 364.9 695.9 363.9 696.8 363.0 C 698.0 361.8 698.2 359.7 699.0 358.1 C 700.1 355.8 701.1 354.8 701.0 352.1 C 701.0 350.6 700.9 348.9 700.4 347.5 C 700.0 346.4 698.4 346.7 698.3 345.2 C 698.2 343.9 701.2 341.5 700.7 341.1 C 696.9 338.5 697.2 342.5 696.6 342.8 C 695.9 343.2 695.3 341.6 694.6 341.2 C 693.5 340.6 692.1 339.9 693.2 342.9 C 693.3 342.6 688.7 344.1 687.5 342.0 C 686.6 340.5 682.0 342.1 679.5 341.8 C 679.8 342.9 683.4 346.1 679.8 346.6 C 678.0 346.8 677.3 346.9 676.0 344.9 C 675.5 344.3 677.8 343.4 677.4 343.0 C 676.8 342.8 676.3 342.7 675.7 342.5 C 675.4 342.4 677.7 340.5 677.4 340.4 C 673.6 338.4 666.9 338.8 668.7 342.3 C 669.1 343.1 674.4 344.5 671.9 344.9 C 668.9 345.3 666.4 345.0 664.3 345.1 C 664.7 345.1 665.0 348.4 661.8 347.6 C 661.3 347.8 659.5 347.8 660.0 348.1 C 660.5 348.4 663.4 347.9 663.5 348.9 C 663.5 349.9 660.4 349.1 657.8 348.6 C 655.0 348.1 657.8 349.9 656.2 349.9 C 651.8 350.1 657.4 344.5 650.4 345.0 C 649.9 345.0 652.2 347.3 652.2 347.2 C 653.0 348.9 644.3 344.3 648.6 343.8 C 649.9 343.6 651.4 342.6 649.6 341.4 C 647.4 339.9 647.8 341.7 646.2 342.7 C 646.8 342.3 643.9 340.6 643.8 340.5 C 642.8 340.3 642.4 342.4 641.6 341.9 C 641.2 341.7 636.6 338.0 638.1 341.8 C 638.5 342.7 641.3 344.9 641.1 345.9 C 641.0 346.9 636.6 346.2 636.1 346.1 C 634.6 345.7 634.3 343.7 634.5 343.8 C 632.5 343.0 629.7 347.8 630.1 342.6 C 630.2 341.5 630.5 339.9 630.1 339.0 C 629.7 337.9 626.7 338.8 626.8 339.2 C 627.0 340.9 628.5 341.4 627.9 343.6 C 627.2 345.7 628.2 344.8 628.2 345.9 C 628.2 346.4 624.5 346.7 624.9 345.4 C 625.1 344.4 626.2 343.1 625.2 342.2 C 624.9 342.0 621.3 340.1 621.5 340.9 C 622.5 344.6 619.7 342.7 620.6 342.0 C 621.8 341.1 619.1 337.6 618.1 339.3 C 617.7 340.2 620.5 343.2 617.0 343.5 C 616.9 343.5 613.7 340.1 614.2 343.4 C 614.5 345.2 616.2 346.8 613.9 347.0 C 613.0 347.0 608.3 347.9 607.8 346.5 C 607.4 345.2 611.5 343.8 610.5 342.2 C 609.6 340.9 608.9 344.2 608.0 343.1 C 604.8 339.7 607.1 343.9 604.8 344.2 C 602.2 344.5 602.1 340.5 604.5 340.3 C 604.2 340.3 609.5 340.9 608.3 339.7 C 606.8 338.2 598.7 337.7 600.1 340.8 C 600.9 342.3 602.1 346.0 599.3 345.1 C 600.0 345.3 596.5 337.9 596.1 340.5 C 595.7 343.3 598.9 344.4 596.2 346.2 C 593.1 348.3 590.6 346.9 587.2 347.1 C 586.8 347.2 584.2 346.9 583.9 345.4 C 583.7 344.1 585.2 343.4 585.5 343.4 C 587.6 343.4 579.9 340.1 584.9 339.7 C 585.6 339.6 581.1 339.4 580.6 339.4 C 577.5 339.4 583.9 344.7 581.2 344.8 C 579.5 344.9 574.8 345.5 574.4 342.6 C 573.8 337.9 570.8 345.2 570.4 346.2 C 570.1 346.9 565.5 346.8 564.5 346.3 C 561.5 344.9 564.1 342.7 562.6 342.2 C 561.6 341.9 559.2 342.0 560.7 340.1 C 562.1 338.4 559.1 338.7 558.5 338.8 C 556.9 339.2 557.1 345.3 555.0 345.4 C 551.5 345.6 552.2 343.6 550.4 340.6 M 564.0 344.5 C 564.0 343.6 566.4 343.5 566.3 344.3 C 566.1 345.8 564.0 345.4 564.0 344.5 M 533.3 340.7 C 533.3 339.8 535.7 339.7 535.6 340.5 C 535.4 341.9 533.3 341.5 533.3 340.7 M 576.6 342.2 C 576.6 340.9 579.0 341.7 579.1 342.4 C 579.5 344.0 576.6 343.6 576.6 342.2 M 659.0 346.1 C 658.2 346.3 657.6 346.5 657.0 345.8 C 656.3 345.2 660.2 344.8 659.0 346.1 M 545.5 340.2 C 545.5 339.2 548.2 339.0 548.1 340.4 C 548.0 342.4 545.5 341.3 545.5 340.2 M 539.9 346.5 C 540.3 346.3 540.6 346.5 540.8 346.9 C 541.1 347.5 539.5 347.3 539.9 346.5 M 667.1 339.5 C 667.5 339.3 667.7 339.4 668.0 339.9 C 668.3 340.5 666.7 340.3 667.1 339.5 M 645.0 339.4 C 645.6 339.1 646.1 339.2 646.6 339.8 C 646.7 340.0 644.4 340.6 645.0 339.4 M 644.2 366.2 C 644.8 366.0 645.3 366.1 645.8 366.7 C 645.8 366.8 643.6 367.5 644.2 366.2 M 679.1 339.2 C 679.4 338.2 681.6 338.6 681.8 339.5 C 682.1 340.5 678.9 340.1 679.1 339.2 M 691.5 345.1 C 691.7 344.2 694.2 344.2 694.4 345.1 C 694.8 346.5 691.3 345.8 691.5 345.1 M 561.2 353.9 C 563.1 353.9 561.5 355.3 561.0 354.9 C 560.4 354.3 559.4 353.9 561.2 353.9 C 561.2 353.9 561.2 353.9 561.2 353.9 Z M 601.7 360.6 C 601.3 360.5 600.1 360.9 600.1 359.9 C 600.1 358.9 603.7 360.3 603.6 361.1 C 603.4 363.1 601.7 360.6 601.7 360.6 M 594.2 343.0 C 596.5 345.2 594.6 345.0 593.1 345.7 C 591.9 346.3 591.9 340.8 594.2 343.0 C 594.2 343.0 594.2 343.0 594.2 343.0 Z M 587.2 345.4 C 588.0 345.6 586.8 346.3 586.8 346.3 C 586.1 345.7 586.3 345.3 587.2 345.4 C 587.2 345.4 587.2 345.4 587.2 345.4 Z M 610.0 345.8 C 610.2 346.1 609.1 346.5 609.3 346.0 C 609.4 345.4 609.8 345.4 610.0 345.8 C 610.0 345.8 610.0 345.8 610.0 345.8 Z M 605.3 346.2 C 605.5 346.6 603.3 346.8 603.4 346.2 C 603.5 345.7 605.1 345.9 605.3 346.2 C 605.3 346.2 605.3 346.2 605.3 346.2 Z M 638.5 363.6 C 638.7 363.9 636.5 364.1 636.6 363.5 C 636.7 363.0 638.3 363.2 638.5 363.6 C 638.5 363.6 638.5 363.6 638.5 363.6 Z M 598.1 348.1 C 598.5 349.4 596.1 350.9 596.3 348.7 C 596.6 346.8 597.7 346.8 598.1 348.1 C 598.1 348.1 598.1 348.1 598.1 348.1 Z M 622.6 361.1 C 623.6 359.7 624.8 362.9 625.1 362.8 C 624.8 362.9 621.9 362.2 622.6 361.1 M 671.7 340.5 C 672.7 339.0 673.9 342.3 674.2 342.2 C 673.9 342.3 671.0 341.6 671.7 340.5 M 623.4 338.9 C 624.4 337.5 625.6 340.7 625.9 340.6 C 625.6 340.8 622.7 340.0 623.4 338.9 M 566.6 342.1 C 567.0 341.2 568.6 343.7 568.2 344.0 C 567.5 344.5 566.3 343.0 566.6 342.1 M 593.4 365.8 C 593.3 364.8 595.7 365.3 595.5 365.9 C 595.3 366.8 593.6 366.7 593.4 365.8 M 547.9 364.0 C 547.7 363.0 550.1 363.5 550.0 364.1 C 549.8 365.0 548.1 364.9 547.9 364.0 M 664.9 365.7 C 664.7 364.7 667.3 365.4 667.0 365.8 C 666.6 366.2 664.9 366.1 664.9 365.7 M 629.1 347.7 C 627.9 347.3 636.6 348.8 631.7 350.9 C 630.6 351.4 629.5 351.1 628.8 350.9 C 625.7 350.3 630.7 349.7 630.5 349.0 C 630.4 348.4 629.1 348.6 629.0 348.5 C 629.0 348.5 630.3 348.0 629.1 347.7 C 629.1 347.7 629.1 347.7 629.1 347.7 Z M 644.3 360.1 C 644.5 359.4 646.4 361.3 646.1 361.6 C 645.5 362.2 644.0 361.3 644.3 360.1 M 636.6 342.6 C 636.8 341.9 638.7 343.8 638.4 344.1 C 637.8 344.7 636.3 343.8 636.6 342.6 M 661.4 343.1 C 662.1 342.0 663.7 345.2 663.0 345.6 C 661.8 346.1 660.3 344.8 661.4 343.1 M 664.5 341.6 C 665.0 341.9 664.5 342.7 664.2 342.3 C 663.8 341.9 663.9 341.3 664.5 341.6 C 664.5 341.6 664.5 341.6 664.5 341.6 Z M 691.6 339.4 C 692.1 339.7 691.7 340.4 691.3 340.1 C 691.0 339.7 691.1 339.0 691.6 339.4 C 691.6 339.4 691.6 339.4 691.6 339.4 Z M 653.5 343.8 C 654.0 344.1 653.5 344.9 653.2 344.6 C 652.8 344.1 653.0 343.5 653.5 343.8 C 653.5 343.8 653.5 343.8 653.5 343.8 Z M 675.9 364.7 C 676.3 364.6 676.3 365.4 675.9 365.3 C 675.3 365.3 675.4 364.8 675.9 364.7 C 675.9 364.7 675.9 364.7 675.9 364.7 Z M 673.0 361.4 C 673.5 361.3 673.5 362.1 673.1 362.0 C 672.5 362.0 672.6 361.4 673.0 361.4 C 673.0 361.4 673.0 361.4 673.0 361.4 Z M 552.6 340.6 C 551.8 339.2 554.3 339.5 555.1 341.7 C 555.7 343.1 555.6 343.3 554.3 343.5 C 551.8 343.8 553.5 342.3 552.6 340.6 M 685.1 361.4 C 687.4 362.0 685.7 363.3 683.8 363.0 C 683.8 363.0 682.8 360.8 685.1 361.4 C 685.1 361.4 685.1 361.4 685.1 361.4 Z M 650.5 348.4 C 651.6 347.8 653.3 349.6 651.6 350.5 C 650.5 351.1 649.6 348.9 650.5 348.4 M 666.0 342.1 C 667.1 341.5 668.8 343.3 667.0 344.2 C 665.9 344.8 665.1 342.6 666.0 342.1 M 594.1 338.0 C 595.1 337.3 596.8 339.2 595.1 340.1 C 594.0 340.7 593.2 338.5 594.1 338.0 M 685.1 343.2 C 687.1 342.2 691.1 345.1 687.3 346.6 C 685.3 347.4 683.1 344.1 685.1 343.2 M 588.8 343.2 C 588.1 343.7 586.9 342.5 588.0 341.8 C 588.7 341.3 589.3 342.8 588.8 343.2 M 614.7 353.3 C 615.6 353.0 616.4 353.0 617.2 353.5 C 619.3 355.3 612.8 354.5 614.7 353.3 M 634.4 346.5 C 634.7 346.5 634.2 347.7 633.8 347.3 C 633.4 346.9 634.0 346.5 634.4 346.5 C 634.4 346.5 634.4 346.5 634.4 346.5 Z M 622.9 346.5 C 622.7 347.1 619.8 346.5 620.1 346.2 C 620.4 345.8 623.1 345.9 622.9 346.5 C 622.9 346.5 622.9 346.5 622.9 346.5 Z M 558.0 345.6 C 560.8 346.2 557.6 347.1 557.5 346.6 C 557.4 345.5 557.3 345.5 558.0 345.6 C 558.0 345.6 558.0 345.6 558.0 345.6 Z M 679.8 355.8 C 680.8 356.2 679.1 357.6 679.0 357.0 C 678.8 355.7 678.8 355.5 679.8 355.8 C 679.8 355.8 679.8 355.8 679.8 355.8 Z M 652.1 340.0 C 653.1 340.4 650.5 340.9 650.4 340.4 C 650.2 339.0 651.1 339.7 652.1 340.0 C 652.1 340.0 652.1 340.0 652.1 340.0 Z M 695.6 339.4 C 696.6 339.7 694.0 340.3 693.9 339.7 C 693.7 338.4 694.6 339.1 695.6 339.4 C 695.6 339.4 695.6 339.4 695.6 339.4 Z M 549.2 344.7 C 551.6 345.7 547.6 349.5 547.4 348.0 C 546.9 344.2 546.8 343.8 549.2 344.7 C 549.2 344.7 549.2 344.7 549.2 344.7 Z M 627.5 342.8 C 628.2 343.0 627.1 344.2 627.0 343.7 C 626.9 342.6 626.9 342.5 627.5 342.8 C 627.5 342.8 627.5 342.8 627.5 342.8 Z M 578.1 339.0 C 578.8 339.3 577.7 340.4 577.7 339.9 C 577.5 338.9 577.5 338.7 578.1 339.0 C 578.1 339.0 578.1 339.0 578.1 339.0 Z M 569.7 344.0 C 570.2 344.3 569.4 345.2 569.3 344.8 C 569.2 343.9 569.2 343.8 569.7 344.0 C 569.7 344.0 569.7 344.0 569.7 344.0 Z M 572.1 365.3 C 572.6 365.5 571.8 366.5 571.7 366.1 C 571.6 365.2 571.6 365.1 572.1 365.3 C 572.1 365.3 572.1 365.3 572.1 365.3 Z M 575.0 355.5 C 576.5 356.1 573.9 358.6 573.8 357.6 C 573.5 355.3 573.4 355.0 575.0 355.5 C 575.0 355.5 575.0 355.5 575.0 355.5 Z M 557.7 359.2 C 558.5 359.5 557.1 360.9 557.1 360.4 C 556.9 359.0 556.9 358.9 557.7 359.2 C 557.7 359.2 557.7 359.2 557.7 359.2 Z M 558.1 362.1 C 558.4 362.2 557.8 362.9 557.8 362.7 C 557.7 362.0 557.7 361.9 558.1 362.1 C 558.1 362.1 558.1 362.1 558.1 362.1 Z M 666.0 348.1 C 666.9 348.5 665.4 350.1 665.4 349.5 C 665.1 347.9 665.1 347.7 666.0 348.1 C 666.0 348.1 666.0 348.1 666.0 348.1 Z M 656.8 357.0 C 658.2 354.6 661.6 358.0 658.6 358.0 C 655.9 358.0 655.4 359.4 656.8 357.0 C 656.8 357.0 656.8 357.0 656.8 357.0 Z M 601.5 352.7 C 602.3 351.2 604.0 353.3 602.5 353.3 C 601.1 353.3 600.8 354.2 601.5 352.7 C 601.5 352.7 601.5 352.7 601.5 352.7 Z M 607.7 364.3 C 608.0 363.7 608.7 364.5 608.1 364.5 C 607.5 364.5 607.4 364.8 607.7 364.3 C 607.7 364.3 607.7 364.3 607.7 364.3 Z M 569.8 338.8 C 570.7 339.7 569.5 341.5 569.1 340.5 C 568.6 339.1 568.8 337.9 569.8 338.8 C 569.8 338.8 569.8 338.8 569.8 338.8 Z M 559.3 342.5 C 559.2 342.7 558.5 344.3 558.2 343.9 C 556.7 341.7 559.6 341.6 559.3 342.5 M 612.2 339.9 C 614.0 339.5 614.1 342.1 612.2 341.6 C 610.3 341.1 611.1 340.1 612.2 339.9 C 612.2 339.9 612.2 339.9 612.2 339.9 Z M 645.8 346.9 C 646.5 346.7 646.3 347.8 645.5 348.0 C 644.9 348.1 645.0 347.2 645.8 346.9 C 645.8 346.9 645.8 346.9 645.8 346.9 Z M 679.0 344.0 C 680.2 343.6 679.8 345.7 678.6 345.9 C 677.7 346.1 677.8 344.5 679.0 344.0 C 679.0 344.0 679.0 344.0 679.0 344.0 Z M 633.1 340.5 C 634.4 340.0 634.0 342.0 632.6 342.2 C 631.6 342.4 631.7 340.9 633.1 340.5 C 633.1 340.5 633.1 340.5 633.1 340.5 Z M 617.2 344.6 C 618.6 344.1 618.1 346.2 616.7 346.4 C 615.7 346.5 615.9 345.0 617.2 344.6 C 617.2 344.6 617.2 344.6 617.2 344.6 Z M 686.3 350.4 C 687.3 351.4 686.2 352.2 685.6 351.2 C 684.8 350.2 685.4 349.3 686.3 350.4 C 686.3 350.4 686.3 350.4 686.3 350.4 Z M 636.8 339.8 C 637.3 340.3 636.7 340.7 636.4 340.3 C 636.0 339.7 636.3 339.3 636.8 339.8 C 636.8 339.8 636.8 339.8 636.8 339.8 Z M 646.4 354.1 C 647.8 353.6 646.9 356.2 645.5 355.3 C 644.1 354.4 646.0 354.2 646.4 354.1 C 646.4 354.1 646.4 354.1 646.4 354.1 Z M 560.8 336.1 C 561.3 335.8 560.9 337.3 560.4 336.8 C 559.8 336.2 560.6 336.2 560.8 336.1 C 560.8 336.1 560.8 336.1 560.8 336.1 Z M 686.6 344.4 C 687.2 344.1 686.8 345.6 686.3 345.1 C 685.7 344.5 686.5 344.5 686.6 344.4 C 686.6 344.4 686.6 344.4 686.6 344.4 Z M 688.7 340.4 C 689.3 340.1 688.9 341.6 688.3 341.1 C 687.7 340.6 688.5 340.5 688.7 340.4 C 688.7 340.4 688.7 340.4 688.7 340.4 Z M 665.1 361.8 C 664.4 362.2 660.5 362.2 661.5 360.3 C 662.9 357.8 664.4 360.3 666.2 360.3 C 667.8 360.4 664.0 358.2 668.6 358.4 C 669.9 358.4 667.3 357.1 667.1 355.9 C 667.0 355.0 676.1 355.6 674.4 357.9 C 673.8 358.7 671.2 359.5 670.4 359.7 C 668.2 360.0 669.0 360.7 667.1 361.9 C 666.4 361.8 665.8 361.8 665.1 361.8 C 665.1 361.8 665.1 361.8 665.1 361.8 Z M 665.1 361.8 " fill="#DB2800"></path><path d="M 743.2 413.5 C 742.6 416.0 735.5 418.4 740.3 413.7 C 740.6 413.4 743.4 412.5 743.2 413.5 Z M 754.2 407.0 C 753.4 407.6 752.7 407.8 751.7 407.6 C 749.4 406.3 757.1 405.3 754.2 407.0 Z M 736.8 414.4 C 736.6 414.8 733.1 417.0 733.3 415.9 C 733.6 414.9 736.8 414.1 736.8 414.4 Z M 761.6 396.8 C 762.0 397.8 758.3 399.9 757.4 399.9 C 754.8 399.7 760.7 394.7 761.6 396.8 Z M 731.4 378.2 C 731.4 377.8 731.3 377.5 731.2 377.2 C 731.4 377.6 731.4 377.9 731.4 378.2 Z M 814.2 368.6 C 813.7 369.1 811.8 369.0 811.7 368.1 C 811.5 366.8 816.2 367.0 814.2 368.6 Z M 729.3 305.5 C 729.3 305.5 728.5 307.2 727.9 306.5 C 727.2 305.8 728.5 305.0 729.3 305.5 Z M 728.0 305.6 C 727.0 306.0 726.6 304.3 727.4 304.6 C 728.4 305.0 728.9 305.3 728.0 305.6 Z M 786.8 321.0 C 787.3 321.2 787.7 321.2 787.1 321.4 C 786.5 321.6 785.9 320.7 786.8 321.0 Z M 784.5 321.3 C 783.5 321.8 783.2 319.9 784.1 320.1 C 785.2 320.5 785.6 320.7 784.5 321.3 Z M 776.5 309.8 C 777.0 310.0 777.4 310.0 776.8 310.2 C 776.2 310.4 775.6 309.5 776.5 309.8 Z M 726.2 335.4 C 725.8 335.0 726.4 332.7 727.2 332.9 C 728.5 333.1 726.9 336.3 726.2 335.4 Z M 725.6 332.5 C 724.8 332.7 724.6 331.1 725.4 331.5 C 726.0 331.8 726.4 332.2 725.6 332.5 Z M 727.4 341.7 C 728.6 341.7 728.6 344.3 728.4 344.7 C 728.1 345.5 727.8 346.6 727.3 347.4 C 727.2 347.7 725.8 341.7 727.4 341.7 Z M 728.6 361.1 C 728.1 361.1 727.9 360.9 728.3 360.1 C 728.8 359.2 729.1 361.1 728.6 361.1 Z M 727.9 350.1 C 727.4 350.1 727.2 349.9 727.6 349.0 C 728.0 348.2 728.3 350.1 727.9 350.1 Z M 783.6 386.8 C 784.4 387.2 781.2 388.4 780.9 388.3 C 780.6 388.3 781.7 387.6 780.9 387.7 C 779.9 387.9 780.4 384.9 783.6 386.8 Z M 760.2 403.1 C 759.5 403.3 759.1 403.1 759.1 402.3 C 759.0 402.2 761.6 401.7 760.2 403.1 Z M 778.0 385.7 C 778.3 386.0 777.5 386.3 777.3 386.0 C 777.1 385.8 777.8 385.4 778.0 385.7 Z M 779.6 384.0 C 779.1 384.5 777.2 384.4 777.1 383.5 C 777.0 382.2 781.6 382.4 779.6 384.0 Z M 787.6 385.8 C 786.8 386.3 786.8 386.3 787.1 385.7 C 787.4 385.1 787.6 385.8 787.6 385.8 Z M 774.2 395.6 C 773.4 396.1 773.4 396.1 773.7 395.4 C 774.0 394.8 774.2 395.6 774.2 395.6 Z M 793.2 380.2 C 793.3 380.2 792.0 382.3 790.6 381.0 C 788.7 379.2 793.1 380.1 793.2 380.2 Z M 801.8 372.1 C 801.1 372.4 801.1 371.6 801.8 371.5 C 802.6 371.3 802.5 371.9 801.8 372.1 Z M 803.5 366.6 C 804.9 366.4 806.2 366.7 804.4 367.5 C 802.6 368.4 802.0 366.8 803.5 366.6 Z M 802.1 368.5 C 801.9 368.2 802.5 367.9 802.8 368.2 C 803.0 368.5 802.3 368.8 802.1 368.5 Z M 795.1 375.9 C 794.6 377.0 793.0 376.5 794.2 375.5 C 795.3 374.4 795.6 374.9 795.1 375.9 Z M 726.4 388.3 C 726.6 388.9 725.5 388.8 725.1 388.3 C 724.6 387.8 726.0 387.5 726.4 388.3 Z M 730.8 346.3 C 730.1 346.9 730.0 346.4 730.4 345.3 C 730.7 344.2 731.4 345.8 730.8 346.3 Z M 732.9 319.7 C 732.3 320.4 732.2 319.9 732.5 318.8 C 732.8 317.7 733.5 319.2 732.9 319.7 Z M 730.8 357.0 C 730.4 357.3 728.3 354.5 730.2 353.0 C 732.1 351.4 732.3 356.1 730.8 357.0 Z M 751.9 383.1 C 752.2 383.7 751.5 383.4 751.5 383.4 C 751.6 382.5 751.6 382.5 751.9 383.1 Z M 733.9 351.0 C 734.2 351.6 733.1 351.5 732.6 351.0 C 732.2 350.5 733.6 350.2 733.9 351.0 Z M 731.4 324.5 C 730.8 325.6 729.1 325.0 728.6 324.3 C 726.8 322.1 729.0 320.5 730.1 319.0 C 731.0 317.8 731.7 323.9 731.4 324.5 Z M 730.4 394.6 C 730.7 394.0 730.9 393.4 730.9 392.9 C 730.4 392.7 730.5 392.3 731.0 391.7 C 730.7 389.2 728.3 387.5 727.6 385.9 C 726.1 382.0 731.2 380.5 731.4 378.2 C 731.4 378.8 731.4 379.4 731.9 379.7 C 733.4 380.8 732.7 371.4 732.6 370.9 C 731.4 362.9 730.1 372.4 727.5 372.5 C 726.2 372.5 729.3 367.1 729.4 366.8 C 730.5 364.2 727.9 363.8 729.0 361.7 C 729.5 360.8 735.5 357.7 734.7 356.7 C 734.0 356.0 734.6 353.5 734.7 352.7 C 734.7 351.2 734.5 348.6 732.3 350.0 C 730.7 351.1 729.1 351.4 730.6 349.4 C 731.6 348.0 735.4 338.7 730.9 339.1 C 730.6 339.2 729.3 341.1 729.3 341.3 C 728.3 338.7 729.8 330.8 728.0 328.9 C 723.9 324.8 730.4 330.2 731.5 328.1 C 733.5 324.5 734.9 322.6 734.1 318.0 C 733.9 317.0 733.8 312.7 731.4 314.8 C 729.8 316.2 728.7 315.1 728.2 317.8 C 726.0 314.8 730.2 312.9 729.4 312.3 C 728.1 311.4 727.4 313.1 727.6 311.0 C 728.0 308.3 727.2 309.4 729.5 309.0 C 730.2 308.8 730.7 306.5 730.7 306.5 C 730.9 306.5 731.1 306.5 731.3 306.5 C 731.1 304.3 726.9 301.0 727.9 300.4 C 728.7 299.9 731.5 301.1 732.3 301.1 C 732.4 300.9 732.5 300.7 732.6 300.6 C 732.2 299.6 730.5 297.4 730.9 297.1 C 731.3 296.8 735.2 298.4 734.1 297.4 C 733.0 296.4 734.4 291.6 735.6 291.4 C 736.8 291.1 742.1 289.9 742.4 289.0 C 742.8 288.2 745.3 289.9 746.1 290.2 C 746.9 290.5 747.5 292.7 747.7 293.1 C 747.9 293.6 750.0 294.3 750.0 294.3 C 750.0 294.3 751.1 294.4 752.7 295.2 C 754.2 296.0 754.8 297.7 756.4 299.4 C 758.0 301.1 759.6 300.4 761.5 301.3 C 763.3 302.1 763.3 305.9 764.6 307.3 C 765.9 308.6 767.3 306.2 769.4 307.2 C 771.5 308.2 772.2 309.4 771.4 309.4 C 770.6 309.5 770.8 310.4 771.3 310.7 C 771.9 311.1 773.8 313.2 774.9 313.3 C 775.9 313.4 771.2 307.9 778.5 312.6 C 782.1 314.9 783.2 318.9 782.2 318.4 C 779.4 316.9 783.0 323.9 783.7 322.8 C 784.4 321.6 790.6 325.6 790.2 322.7 C 790.2 321.8 796.9 324.9 797.5 325.8 C 798.2 326.7 801.5 327.9 801.1 330.4 C 800.9 331.6 806.1 331.1 806.9 331.6 C 807.7 332.1 812.5 335.4 813.2 336.5 C 813.9 337.6 811.5 336.3 810.4 335.6 C 809.3 334.8 808.3 332.9 807.3 332.6 C 806.2 332.3 807.7 334.4 808.8 335.3 C 809.9 336.1 809.7 337.4 810.5 338.3 C 811.2 338.4 811.9 339.0 812.8 339.8 C 813.3 339.9 813.8 340.0 814.0 339.6 C 814.4 338.9 813.9 338.1 814.3 337.9 C 814.6 337.7 815.8 337.7 817.3 338.6 C 818.8 339.6 820.0 340.5 821.6 342.3 C 823.3 344.2 824.2 343.8 825.7 344.5 C 827.1 345.2 828.3 346.1 828.1 346.6 C 827.9 347.1 826.0 346.3 825.6 346.6 C 825.2 346.9 826.5 349.2 827.2 349.7 C 830.7 352.4 825.8 353.8 829.3 356.5 C 831.3 358.0 828.2 357.8 826.3 358.3 C 826.6 358.7 826.6 359.0 825.0 360.4 C 825.4 360.9 822.6 361.8 821.5 362.6 C 820.8 363.2 816.7 366.9 818.8 363.9 C 818.9 363.6 819.1 363.4 819.3 363.2 C 819.2 363.2 819.2 363.2 819.1 363.2 C 819.1 363.2 819.4 360.5 819.3 360.5 C 819.3 360.5 819.1 363.1 819.0 363.1 C 818.1 362.7 817.2 362.4 816.5 362.1 C 816.4 362.4 816.2 362.7 816.2 363.1 C 816.1 363.2 816.1 363.3 816.0 363.4 C 816.0 363.4 816.1 363.4 816.1 363.4 C 816.6 364.1 816.4 364.1 815.6 364.3 C 814.3 366.3 809.7 367.3 807.8 367.6 C 809.8 361.1 802.4 365.6 800.3 367.6 C 798.1 369.7 801.2 374.5 802.4 373.8 C 800.6 374.9 799.8 374.4 798.4 373.2 C 798.6 373.4 794.8 371.6 795.0 371.6 C 789.8 372.3 793.2 376.0 792.4 377.0 C 791.6 378.2 790.3 379.1 789.2 380.2 C 788.2 381.2 789.8 381.4 789.7 382.3 C 789.4 385.1 784.1 383.1 782.8 383.6 C 783.6 382.6 784.7 381.6 785.3 380.4 C 784.4 382.3 782.1 380.3 781.4 380.5 C 779.8 380.8 778.3 382.1 777.0 382.9 C 774.7 384.5 772.6 386.4 770.6 388.1 C 771.5 388.1 776.6 388.7 776.8 388.5 C 776.1 389.1 773.5 389.7 775.4 390.9 C 778.6 393.1 771.8 395.1 770.8 395.6 C 767.5 397.1 766.0 402.1 760.9 400.5 C 760.9 400.5 765.1 396.9 764.6 396.5 C 762.0 394.6 759.9 393.9 757.1 396.5 C 756.6 396.9 753.4 401.6 753.5 401.8 C 753.3 401.4 761.6 405.0 756.4 405.3 C 755.4 405.4 756.4 403.3 755.1 403.5 C 753.4 403.6 751.6 405.3 750.1 406.0 C 749.8 406.2 746.9 406.8 746.8 407.0 C 746.7 408.1 747.4 409.4 746.8 410.4 C 746.2 411.4 744.5 411.4 744.0 410.5 C 743.9 410.3 743.9 410.2 743.9 410.1 C 743.6 410.2 743.2 410.0 742.9 409.4 C 742.6 409.8 741.9 410.2 741.1 410.0 C 740.7 409.8 741.7 408.9 742.6 408.9 C 742.5 408.6 742.4 408.3 742.3 407.9 C 741.1 408.8 740.0 409.8 739.9 410.0 C 738.6 412.7 739.2 413.5 734.6 412.9 C 731.0 412.4 728.7 403.7 729.9 398.5 C 729.5 397.5 729.6 396.2 730.4 394.6 Z M 814.5 342.6 C 814.3 342.5 814.2 342.4 814.1 342.3 C 813.9 342.8 813.5 343.2 813.3 343.8 C 814.3 344.7 813.6 342.7 814.6 343.5 C 815.7 344.5 815.8 343.9 814.5 342.6 Z M 813.6 354.5 C 814.6 354.7 814.5 354.3 814.1 353.7 C 813.8 354.0 813.6 354.3 813.6 354.5 Z M 816.0 359.5 C 817.3 358.2 813.8 357.7 811.8 359.7 C 813.9 359.9 815.3 359.8 816.0 359.5 Z M 813.7 363.8 C 813.6 363.4 813.6 363.1 813.5 362.8 C 813.3 362.1 812.2 363.7 812.0 363.1 C 811.9 362.4 813.1 360.9 811.8 361.1 C 811.5 361.1 811.1 361.2 810.8 361.2 C 810.7 361.4 810.6 361.6 810.6 361.9 C 810.3 363.0 812.5 364.1 813.7 363.8 Z M 805.6 342.0 C 806.5 342.1 806.1 341.5 805.6 341.4 C 804.9 341.2 804.8 341.9 805.6 342.0 Z M 799.5 332.5 C 800.0 333.5 800.9 333.8 800.6 332.6 C 800.4 331.6 799.1 331.6 799.5 332.5 Z M 786.5 346.3 C 787.1 346.1 786.7 346.1 786.2 345.9 C 785.4 345.5 786.0 346.5 786.5 346.3 Z M 785.9 356.0 C 785.4 356.8 786.5 357.7 786.6 357.0 C 786.8 356.4 786.3 355.5 785.9 356.0 Z M 787.1 333.8 C 786.3 333.6 786.5 334.4 787.2 334.3 C 787.9 334.3 787.9 333.9 787.1 333.8 Z M 789.2 347.0 C 788.5 346.0 788.2 346.3 787.8 346.6 C 787.4 346.8 787.7 347.6 788.6 348.0 C 789.7 348.5 789.9 348.1 789.2 347.0 Z M 789.9 355.3 C 787.5 356.6 788.1 357.7 790.7 355.6 C 793.2 353.5 791.4 354.4 789.9 355.3 Z M 794.4 325.9 C 794.7 326.2 796.2 326.6 796.2 326.6 C 796.2 326.6 793.2 324.2 794.4 325.9 Z M 789.2 377.5 C 790.0 377.1 790.2 376.0 788.7 376.5 C 787.3 377.1 788.2 378.0 789.2 377.5 Z M 784.3 373.5 C 786.2 375.0 788.0 374.5 788.1 374.6 C 787.8 374.4 787.4 372.6 787.9 372.1 C 789.0 370.6 792.0 371.2 792.9 369.2 C 793.8 366.9 790.1 368.7 789.5 369.3 C 789.9 368.9 790.0 368.4 789.8 367.9 C 789.2 367.4 788.7 367.6 788.3 368.3 C 787.9 369.3 782.0 371.9 784.3 373.5 Z M 784.4 350.1 C 785.5 350.5 786.4 349.8 785.7 348.8 C 784.9 347.8 784.0 347.2 783.7 347.5 C 783.3 347.7 783.5 349.7 784.4 350.1 Z M 783.6 342.7 C 784.6 342.4 784.3 342.1 783.4 341.8 C 781.8 341.2 782.6 343.1 783.6 342.7 Z M 770.0 311.6 C 769.2 311.8 770.6 312.8 770.9 312.3 C 771.1 311.8 770.6 311.5 770.0 311.6 Z M 770.5 323.9 C 768.5 323.5 769.9 325.3 770.4 325.3 C 770.9 325.3 771.6 324.1 770.5 323.9 Z M 777.7 331.1 C 776.8 330.8 777.6 332.1 778.2 331.9 C 778.7 331.7 778.1 331.3 777.7 331.1 Z M 778.4 335.8 C 777.7 335.5 777.8 336.9 779.0 336.8 C 779.5 336.8 779.2 336.2 778.4 335.8 Z M 774.8 375.7 C 774.8 375.7 774.2 373.8 773.5 375.3 C 772.7 376.8 772.7 376.8 774.8 375.7 Z M 778.2 361.4 C 779.4 360.5 780.3 359.4 779.1 355.5 C 777.8 351.5 777.0 353.1 776.4 355.5 C 775.8 358.0 774.0 351.4 773.0 356.0 C 772.5 358.0 777.0 362.3 778.2 361.4 Z M 771.2 336.3 C 772.6 338.7 776.1 338.1 774.2 336.6 C 772.0 334.8 770.1 334.2 771.2 336.3 Z M 771.0 334.5 C 771.6 334.6 771.5 334.3 770.7 333.9 C 769.9 333.5 770.3 334.5 771.0 334.5 Z M 773.0 392.8 C 776.8 389.4 770.6 389.5 770.6 389.5 C 765.4 391.1 769.3 396.3 773.0 392.8 Z M 733.4 308.7 C 733.3 308.8 733.3 309.0 733.3 309.2 C 733.3 309.3 733.3 309.3 733.4 309.4 C 734.0 310.1 734.8 308.5 734.8 308.5 C 734.3 308.2 733.7 308.3 733.4 308.7 Z M 732.1 334.0 C 732.4 333.0 732.2 332.2 731.5 331.5 C 729.3 331.9 729.3 339.6 733.1 336.6 C 733.8 336.2 737.1 331.3 735.2 330.8 C 734.1 330.6 732.2 336.5 732.1 334.0 Z M 735.4 326.1 C 735.2 329.1 738.4 323.5 736.8 324.2 C 736.0 324.6 735.5 325.2 735.4 326.1 Z M 742.4 303.7 C 740.8 299.6 734.7 300.4 737.9 306.7 C 741.0 313.0 743.6 313.3 742.7 310.1 C 741.9 306.9 744.8 309.5 742.4 303.7 Z M 742.3 336.5 C 738.0 335.8 739.2 337.7 742.4 338.9 C 743.2 339.1 745.0 337.0 742.3 336.5 Z M 743.1 345.7 C 742.6 346.9 742.7 346.8 743.4 346.2 C 744.4 345.3 743.5 344.5 743.1 345.7 Z M 748.4 297.1 C 747.7 295.5 746.0 294.5 747.1 294.4 C 748.1 294.4 747.6 294.2 746.8 293.2 C 745.9 292.1 745.9 294.2 746.0 295.1 C 746.2 296.1 749.1 298.6 748.4 297.1 Z M 763.0 332.3 C 762.3 332.0 762.7 332.9 763.4 333.0 C 764.0 333.1 763.8 332.7 763.0 332.3 Z M 767.7 367.1 C 767.7 367.1 767.4 366.1 766.9 367.0 C 766.4 367.9 766.4 367.9 767.7 367.1 Z M 766.2 395.0 C 766.9 394.4 764.9 394.1 765.2 392.7 C 765.3 392.2 766.1 393.0 766.3 393.2 C 766.1 392.9 765.6 389.5 764.3 391.7 C 763.7 392.7 764.3 396.9 766.2 395.0 Z M 762.0 342.0 C 763.3 343.5 764.4 337.6 765.5 338.5 C 766.6 339.5 766.7 338.9 765.4 337.6 C 764.2 336.4 760.6 340.4 762.0 342.0 Z M 761.0 327.1 C 761.1 328.1 764.0 330.6 763.3 329.1 C 762.7 327.5 761.0 326.5 762.0 326.4 C 763.0 326.3 762.5 326.1 761.8 325.2 C 760.9 324.1 760.9 326.2 761.0 327.1 Z M 759.9 302.4 C 760.2 302.9 762.0 303.8 761.3 302.6 C 761.0 301.9 759.7 301.9 759.9 302.4 Z M 758.4 371.2 C 758.9 370.2 758.6 369.7 757.4 370.8 C 756.3 371.8 757.9 372.3 758.4 371.2 Z M 755.8 304.6 C 757.1 306.2 756.2 303.7 757.3 304.7 C 758.4 305.6 758.5 305.1 757.1 303.7 C 756.0 302.5 754.5 303.1 755.8 304.6 Z M 754.6 393.7 C 754.7 393.1 754.2 392.2 753.8 392.7 C 753.3 393.4 754.4 394.3 754.6 393.7 Z M 751.1 384.5 C 751.4 384.3 751.9 384.2 752.2 384.0 C 758.1 379.8 747.2 383.0 751.1 384.5 Z M 751.9 370.2 C 752.3 372.1 753.3 369.8 753.2 369.7 C 752.6 369.4 752.1 369.6 751.9 370.2 Z M 751.8 354.6 C 750.9 354.2 751.2 355.8 752.0 355.6 C 752.7 355.3 752.4 354.9 751.8 354.6 Z M 749.0 405.1 C 749.9 404.8 749.7 404.3 749.0 404.4 C 748.4 404.5 748.2 405.4 749.0 405.1 Z M 748.4 366.1 C 748.7 366.3 748.9 366.3 748.7 365.5 C 748.4 364.8 748.1 365.9 748.4 366.1 Z M 748.1 318.6 C 748.5 318.9 749.0 319.3 749.3 319.7 C 750.2 319.2 750.5 316.3 751.5 316.3 C 751.6 316.3 751.6 316.4 751.7 316.4 C 751.7 316.4 751.8 316.3 751.9 316.3 C 752.4 316.4 752.8 316.8 752.4 317.0 C 752.6 317.4 752.7 317.9 752.9 318.5 C 753.8 317.6 754.4 316.5 753.7 315.7 C 752.9 314.8 750.8 314.5 749.0 314.7 C 748.7 315.3 748.4 315.9 748.2 316.6 C 748.3 316.6 748.4 316.6 748.5 316.7 C 749.6 317.2 750.0 318.0 749.3 318.0 C 748.7 318.0 748.3 317.8 748.1 317.5 C 748.0 317.9 748.0 318.2 748.1 318.6 Z M 746.2 360.1 C 746.8 361.3 747.2 360.5 747.7 358.9 C 747.9 357.8 745.6 358.9 746.2 360.1 Z M 747.5 403.2 C 747.4 402.7 747.1 402.4 746.8 402.1 C 746.8 402.3 746.7 402.5 746.7 402.8 C 746.5 403.6 746.3 404.5 746.1 405.3 C 747.1 405.3 747.9 404.8 747.5 403.2 Z M 743.0 389.6 C 743.1 390.0 742.9 395.7 744.1 394.7 C 746.1 393.1 748.3 395.6 747.4 391.4 C 746.9 389.5 744.0 387.8 743.6 385.8 C 741.1 375.8 740.8 388.5 740.2 391.2 C 740.2 391.7 742.6 388.9 743.0 389.6 Z M 739.9 376.4 C 739.0 376.0 737.9 377.5 738.0 378.1 C 738.3 380.6 741.1 377.1 739.9 376.4 Z M 738.4 404.5 C 738.5 404.6 738.7 404.6 739.1 404.5 C 738.9 404.3 738.6 404.2 738.4 404.1 C 738.4 404.2 738.4 404.4 738.4 404.5 Z M 737.4 411.5 C 740.3 409.1 734.9 409.2 733.6 409.8 C 731.7 410.7 735.8 412.8 737.4 411.5 Z M 735.2 384.0 C 735.4 382.0 729.5 379.6 729.7 383.2 C 730.0 386.5 734.9 388.4 735.2 384.0 Z M 727.8 363.0 C 728.4 363.7 727.3 365.9 726.5 364.7 C 726.0 364.1 727.5 362.6 727.8 363.0 Z M 724.6 394.2 C 724.9 393.6 725.1 394.3 725.1 394.3 C 724.2 394.8 724.2 394.8 724.6 394.2 Z M 728.8 391.3 C 728.4 392.2 728.1 393.4 727.8 394.3 C 727.6 394.9 727.1 392.8 727.1 392.7 C 727.2 391.9 728.8 391.5 728.8 391.3 Z M 729.4 374.6 C 728.7 375.5 728.6 374.1 728.7 373.5 C 728.9 372.9 729.8 374.0 729.4 374.6 Z M 727.9 378.5 C 728.1 377.9 728.8 378.4 728.7 379.2 C 728.6 380.1 727.8 379.2 727.9 378.5 Z M 731.3 371.6 C 731.8 373.4 732.2 375.8 730.6 375.6 C 729.9 375.5 730.2 368.2 731.3 371.6 Z M 731.3 371.6 " fill="#DB2800"></path></g></svg>