<?xml version="1.0" encoding="UTF-8"?><svg xmlns="http://www.w3.org/2000/svg" xmlns:xlink="http://www.w3.org/1999/xlink" clip-rule="evenodd" stroke-miterlimit="10" viewBox="0 0 883 35"><desc>SVG generated by Keynote</desc><defs></defs><g transform="matrix(1.00, 0.00, -0.00, -1.00, 0.0, 35.0)"><text xml:space="preserve" font-family="Avenir-Light,Avenir" font-size="43.6" fill="#FEFFFF" transform="matrix(1.00, 0.00, -0.00, -1.00, -1.0, 2.0)">S</text><text xml:space="preserve" font-family="Avenir-Light,Avenir" font-size="43.6" fill="#FEFFFF" transform="matrix(1.00, 0.00, -0.00, -1.00, 30.3, 2.0)">O</text><text xml:space="preserve" font-family="Avenir-Light,Avenir" font-size="43.6" fill="#FEFFFF" transform="matrix(1.00, 0.00, -0.00, -1.00, 73.6, 2.0)">F</text><text xml:space="preserve" font-family="Avenir-Light,Avenir" font-size="43.6" fill="#FEFFFF" transform="matrix(1.00, 0.00, -0.00, -1.00, 104.9, 2.0)">T</text><text xml:space="preserve" font-family="Avenir-Light,Avenir" font-size="43.6" fill="#FEFFFF" transform="matrix(1.00, 0.00, -0.00, -1.00, 136.9, 2.0)">W</text><text xml:space="preserve" font-family="Avenir-Light,Avenir" font-size="43.6" fill="#FEFFFF" transform="matrix(1.00, 0.00, -0.00, -1.00, 184.3, 2.0)">A</text><text xml:space="preserve" font-family="Avenir-Light,Avenir" font-size="43.6" fill="#FEFFFF" transform="matrix(1.00, 0.00, -0.00, -1.00, 221.2, 2.0)">R</text><text xml:space="preserve" font-family="Avenir-Light,Avenir" font-size="43.6" fill="#FEFFFF" transform="matrix(1.00, 0.00, -0.00, -1.00, 254.1, 2.0)">E</text><text xml:space="preserve" font-family="Avenir-Light,Avenir" font-size="43.6" fill="#FEFFFF" transform="matrix(1.00, 0.00, -0.00, -1.00, 287.0, 2.0)"> </text><text xml:space="preserve" font-family="Avenir-Light,Avenir" font-size="43.6" fill="#FEFFFF" transform="matrix(1.00, 0.00, -0.00, -1.00, 305.3, 2.0)">D</text><text xml:space="preserve" font-family="Avenir-Light,Avenir" font-size="43.6" fill="#FEFFFF" transform="matrix(1.00, 0.00, -0.00, -1.00, 344.6, 2.0)">E</text><text xml:space="preserve" font-family="Avenir-Light,Avenir" font-size="43.6" fill="#FEFFFF" transform="matrix(1.00, 0.00, -0.00, -1.00, 377.5, 2.0)">V</text><text xml:space="preserve" font-family="Avenir-Light,Avenir" font-size="43.6" fill="#FEFFFF" transform="matrix(1.00, 0.00, -0.00, -1.00, 410.4, 2.0)">E</text><text xml:space="preserve" font-family="Avenir-Light,Avenir" font-size="43.6" fill="#FEFFFF" transform="matrix(1.00, 0.00, -0.00, -1.00, 443.2, 2.0)">L</text><text xml:space="preserve" font-family="Avenir-Light,Avenir" font-size="43.6" fill="#FEFFFF" transform="matrix(1.00, 0.00, -0.00, -1.00, 472.0, 2.0)">O</text><text xml:space="preserve" font-family="Avenir-Light,Avenir" font-size="43.6" fill="#FEFFFF" transform="matrix(1.00, 0.00, -0.00, -1.00, 515.4, 2.0)">P</text><text xml:space="preserve" font-family="Avenir-Light,Avenir" font-size="43.6" fill="#FEFFFF" transform="matrix(1.00, 0.00, -0.00, -1.00, 547.5, 2.0)">M</text><text xml:space="preserve" font-family="Avenir-Light,Avenir" font-size="43.6" fill="#FEFFFF" transform="matrix(1.00, 0.00, -0.00, -1.00, 593.3, 2.0)">E</text><text xml:space="preserve" font-family="Avenir-Light,Avenir" font-size="43.6" fill="#FEFFFF" transform="matrix(1.00, 0.00, -0.00, -1.00, 626.1, 2.0)">N</text><text xml:space="preserve" font-family="Avenir-Light,Avenir" font-size="43.6" fill="#FEFFFF" transform="matrix(1.00, 0.00, -0.00, -1.00, 667.1, 2.0)">T</text><text xml:space="preserve" font-family="Avenir-Light,Avenir" font-size="43.6" fill="#FEFFFF" transform="matrix(1.00, 0.00, -0.00, -1.00, 699.1, 2.0)"> </text><text xml:space="preserve" font-family="Avenir-Light,Avenir" font-size="43.6" fill="#FEFFFF" transform="matrix(1.00, 0.00, -0.00, -1.00, 717.4, 2.0)">E</text><text xml:space="preserve" font-family="Avenir-Light,Avenir" font-size="43.6" fill="#FEFFFF" transform="matrix(1.00, 0.00, -0.00, -1.00, 750.3, 2.0)">V</text><text xml:space="preserve" font-family="Avenir-Light,Avenir" font-size="43.6" fill="#FEFFFF" transform="matrix(1.00, 0.00, -0.00, -1.00, 783.2, 2.0)">E</text><text xml:space="preserve" font-family="Avenir-Light,Avenir" font-size="43.6" fill="#FEFFFF" transform="matrix(1.00, 0.00, -0.00, -1.00, 816.0, 2.0)">N</text><text xml:space="preserve" font-family="Avenir-Light,Avenir" font-size="43.6" fill="#FEFFFF" transform="matrix(1.00, 0.00, -0.00, -1.00, 857.0, 2.0)">T</text></g></svg>