<?xml version="1.0" encoding="UTF-8"?><svg xmlns="http://www.w3.org/2000/svg" xmlns:xlink="http://www.w3.org/1999/xlink" clip-rule="evenodd" stroke-miterlimit="10" viewBox="0 0 74 58"><desc>SVG generated by Keynote</desc><defs></defs><g transform="matrix(1.00, 0.00, -0.00, -1.00, 0.0, 58.0)"><text xml:space="preserve" font-family="Avenir-Light,Avenir" font-size="23.0" fill="#FEFFFF" transform="matrix(1.00, 0.00, -0.00, -1.00, 1.9, 39.1)">h</text><text xml:space="preserve" font-family="Avenir-Light,Avenir" font-size="23.0" fill="#FEFFFF" transform="matrix(1.00, 0.00, -0.00, -1.00, 14.7, 39.1)">u</text><text xml:space="preserve" font-family="Avenir-Light,Avenir" font-size="23.0" fill="#FEFFFF" transform="matrix(1.00, 0.00, -0.00, -1.00, 27.5, 39.1)">m</text><text xml:space="preserve" font-family="Avenir-Light,Avenir" font-size="23.0" fill="#FEFFFF" transform="matrix(1.00, 0.00, -0.00, -1.00, 47.1, 39.1)">a</text><text xml:space="preserve" font-family="Avenir-Light,Avenir" font-size="23.0" fill="#FEFFFF" transform="matrix(1.00, 0.00, -0.00, -1.00, 59.0, 39.1)">n</text><text xml:space="preserve" font-family="Avenir-Light,Avenir" font-size="23.0" fill="#FEFFFF" transform="matrix(1.00, 0.00, -0.00, -1.00, 71.8, 39.1)"> </text><text xml:space="preserve" font-family="Avenir-Light,Avenir" font-size="23.0" fill="#FEFFFF" transform="matrix(1.00, 0.00, -0.00, -1.00, 1.7, 8.1)">f</text><text xml:space="preserve" font-family="Avenir-Light,Avenir" font-size="23.0" fill="#FEFFFF" transform="matrix(1.00, 0.00, -0.00, -1.00, 8.5, 8.1)">e</text><text xml:space="preserve" font-family="Avenir-Light,Avenir" font-size="23.0" fill="#FEFFFF" transform="matrix(1.00, 0.00, -0.00, -1.00, 21.3, 8.1)">e</text><text xml:space="preserve" font-family="Avenir-Light,Avenir" font-size="23.0" fill="#FEFFFF" transform="matrix(1.00, 0.00, -0.00, -1.00, 34.1, 8.1)">l</text><text xml:space="preserve" font-family="Avenir-Light,Avenir" font-size="23.0" fill="#FEFFFF" transform="matrix(1.00, 0.00, -0.00, -1.00, 39.6, 8.1)">i</text><text xml:space="preserve" font-family="Avenir-Light,Avenir" font-size="23.0" fill="#FEFFFF" transform="matrix(1.00, 0.00, -0.00, -1.00, 45.2, 8.1)">n</text><text xml:space="preserve" font-family="Avenir-Light,Avenir" font-size="23.0" fill="#FEFFFF" transform="matrix(1.00, 0.00, -0.00, -1.00, 57.9, 8.1)">g</text></g></svg>