<?xml version="1.0" encoding="UTF-8"?><svg xmlns="http://www.w3.org/2000/svg" xmlns:xlink="http://www.w3.org/1999/xlink" clip-rule="evenodd" stroke-miterlimit="10" viewBox="0 0 742 39"><desc>SVG generated by Keynote</desc><defs></defs><g transform="matrix(1.00, 0.00, -0.00, -1.00, 0.0, 39.0)"><text xml:space="preserve" font-family="Avenir-LightOblique,Avenir" font-style="italic" font-size="36.0" fill="#FEFFFF" transform="matrix(1.00, 0.00, -0.00, -1.00, -2.0, 10.2)">P</text><text xml:space="preserve" font-family="Avenir-LightOblique,Avenir" font-style="italic" font-size="36.0" fill="#FEFFFF" transform="matrix(1.00, 0.00, -0.00, -1.00, 18.7, 10.2)">a</text><text xml:space="preserve" font-family="Avenir-LightOblique,Avenir" font-style="italic" font-size="36.0" fill="#FEFFFF" transform="matrix(1.00, 0.00, -0.00, -1.00, 37.3, 10.2)">t</text><text xml:space="preserve" font-family="Avenir-LightOblique,Avenir" font-style="italic" font-size="36.0" fill="#FEFFFF" transform="matrix(1.00, 0.00, -0.00, -1.00, 49.4, 10.2)">t</text><text xml:space="preserve" font-family="Avenir-LightOblique,Avenir" font-style="italic" font-size="36.0" fill="#FEFFFF" transform="matrix(1.00, 0.00, -0.00, -1.00, 61.4, 10.2)">e</text><text xml:space="preserve" font-family="Avenir-LightOblique,Avenir" font-style="italic" font-size="36.0" fill="#FEFFFF" transform="matrix(1.00, 0.00, -0.00, -1.00, 81.4, 10.2)">r</text><text xml:space="preserve" font-family="Avenir-LightOblique,Avenir" font-style="italic" font-size="36.0" fill="#FEFFFF" transform="matrix(1.00, 0.00, -0.00, -1.00, 94.0, 10.2)">n</text><text xml:space="preserve" font-family="Avenir-LightOblique,Avenir" font-style="italic" font-size="36.0" fill="#FEFFFF" transform="matrix(1.00, 0.00, -0.00, -1.00, 114.0, 10.2)">s</text><text xml:space="preserve" font-family="Avenir-LightOblique,Avenir" font-style="italic" font-size="36.0" fill="#FEFFFF" transform="matrix(1.00, 0.00, -0.00, -1.00, 129.4, 10.2)"> </text><text xml:space="preserve" font-family="Avenir-LightOblique,Avenir" font-style="italic" font-size="36.0" fill="#FEFFFF" transform="matrix(1.00, 0.00, -0.00, -1.00, 138.7, 10.2)">o</text><text xml:space="preserve" font-family="Avenir-LightOblique,Avenir" font-style="italic" font-size="36.0" fill="#FEFFFF" transform="matrix(1.00, 0.00, -0.00, -1.00, 160.1, 10.2)">f</text><text xml:space="preserve" font-family="Avenir-LightOblique,Avenir" font-style="italic" font-size="36.0" fill="#FEFFFF" transform="matrix(1.00, 0.00, -0.00, -1.00, 170.8, 10.2)"> </text><text xml:space="preserve" font-family="Avenir-LightOblique,Avenir" font-style="italic" font-size="36.0" fill="#FEFFFF" transform="matrix(1.00, 0.00, -0.00, -1.00, 180.1, 10.2)">E</text><text xml:space="preserve" font-family="Avenir-LightOblique,Avenir" font-style="italic" font-size="36.0" fill="#FEFFFF" transform="matrix(1.00, 0.00, -0.00, -1.00, 201.5, 10.2)">n</text><text xml:space="preserve" font-family="Avenir-LightOblique,Avenir" font-style="italic" font-size="36.0" fill="#FEFFFF" transform="matrix(1.00, 0.00, -0.00, -1.00, 221.5, 10.2)">t</text><text xml:space="preserve" font-family="Avenir-LightOblique,Avenir" font-style="italic" font-size="36.0" fill="#FEFFFF" transform="matrix(1.00, 0.00, -0.00, -1.00, 233.5, 10.2)">e</text><text xml:space="preserve" font-family="Avenir-LightOblique,Avenir" font-style="italic" font-size="36.0" fill="#FEFFFF" transform="matrix(1.00, 0.00, -0.00, -1.00, 253.5, 10.2)">r</text><text xml:space="preserve" font-family="Avenir-LightOblique,Avenir" font-style="italic" font-size="36.0" fill="#FEFFFF" transform="matrix(1.00, 0.00, -0.00, -1.00, 265.5, 10.2)">p</text><text xml:space="preserve" font-family="Avenir-LightOblique,Avenir" font-style="italic" font-size="36.0" fill="#FEFFFF" transform="matrix(1.00, 0.00, -0.00, -1.00, 287.5, 10.2)">r</text><text xml:space="preserve" font-family="Avenir-LightOblique,Avenir" font-style="italic" font-size="36.0" fill="#FEFFFF" transform="matrix(1.00, 0.00, -0.00, -1.00, 299.5, 10.2)">i</text><text xml:space="preserve" font-family="Avenir-LightOblique,Avenir" font-style="italic" font-size="36.0" fill="#FEFFFF" transform="matrix(1.00, 0.00, -0.00, -1.00, 308.1, 10.2)">s</text><text xml:space="preserve" font-family="Avenir-LightOblique,Avenir" font-style="italic" font-size="36.0" fill="#FEFFFF" transform="matrix(1.00, 0.00, -0.00, -1.00, 323.4, 10.2)">e</text><text xml:space="preserve" font-family="Avenir-LightOblique,Avenir" font-style="italic" font-size="36.0" fill="#FEFFFF" transform="matrix(1.00, 0.00, -0.00, -1.00, 343.5, 10.2)"> </text><text xml:space="preserve" font-family="Avenir-LightOblique,Avenir" font-style="italic" font-size="36.0" fill="#FEFFFF" transform="matrix(1.00, 0.00, -0.00, -1.00, 352.8, 10.2)">A</text><text xml:space="preserve" font-family="Avenir-LightOblique,Avenir" font-style="italic" font-size="36.0" fill="#FEFFFF" transform="matrix(1.00, 0.00, -0.00, -1.00, 377.5, 10.2)">p</text><text xml:space="preserve" font-family="Avenir-LightOblique,Avenir" font-style="italic" font-size="36.0" fill="#FEFFFF" transform="matrix(1.00, 0.00, -0.00, -1.00, 399.5, 10.2)">p</text><text xml:space="preserve" font-family="Avenir-LightOblique,Avenir" font-style="italic" font-size="36.0" fill="#FEFFFF" transform="matrix(1.00, 0.00, -0.00, -1.00, 421.5, 10.2)">l</text><text xml:space="preserve" font-family="Avenir-LightOblique,Avenir" font-style="italic" font-size="36.0" fill="#FEFFFF" transform="matrix(1.00, 0.00, -0.00, -1.00, 430.1, 10.2)">i</text><text xml:space="preserve" font-family="Avenir-LightOblique,Avenir" font-style="italic" font-size="36.0" fill="#FEFFFF" transform="matrix(1.00, 0.00, -0.00, -1.00, 438.8, 10.2)">c</text><text xml:space="preserve" font-family="Avenir-LightOblique,Avenir" font-style="italic" font-size="36.0" fill="#FEFFFF" transform="matrix(1.00, 0.00, -0.00, -1.00, 456.1, 10.2)">a</text><text xml:space="preserve" font-family="Avenir-LightOblique,Avenir" font-style="italic" font-size="36.0" fill="#FEFFFF" transform="matrix(1.00, 0.00, -0.00, -1.00, 474.8, 10.2)">t</text><text xml:space="preserve" font-family="Avenir-LightOblique,Avenir" font-style="italic" font-size="36.0" fill="#FEFFFF" transform="matrix(1.00, 0.00, -0.00, -1.00, 486.8, 10.2)">i</text><text xml:space="preserve" font-family="Avenir-LightOblique,Avenir" font-style="italic" font-size="36.0" fill="#FEFFFF" transform="matrix(1.00, 0.00, -0.00, -1.00, 495.4, 10.2)">o</text><text xml:space="preserve" font-family="Avenir-LightOblique,Avenir" font-style="italic" font-size="36.0" fill="#FEFFFF" transform="matrix(1.00, 0.00, -0.00, -1.00, 516.8, 10.2)">n</text><text xml:space="preserve" font-family="Avenir-LightOblique,Avenir" font-style="italic" font-size="36.0" fill="#FEFFFF" transform="matrix(1.00, 0.00, -0.00, -1.00, 536.8, 10.2)"> </text><text xml:space="preserve" font-family="Avenir-LightOblique,Avenir" font-style="italic" font-size="36.0" fill="#FEFFFF" transform="matrix(1.00, 0.00, -0.00, -1.00, 546.2, 10.2)">A</text><text xml:space="preserve" font-family="Avenir-LightOblique,Avenir" font-style="italic" font-size="36.0" fill="#FEFFFF" transform="matrix(1.00, 0.00, -0.00, -1.00, 570.9, 10.2)">r</text><text xml:space="preserve" font-family="Avenir-LightOblique,Avenir" font-style="italic" font-size="36.0" fill="#FEFFFF" transform="matrix(1.00, 0.00, -0.00, -1.00, 582.2, 10.2)">c</text><text xml:space="preserve" font-family="Avenir-LightOblique,Avenir" font-style="italic" font-size="36.0" fill="#FEFFFF" transform="matrix(1.00, 0.00, -0.00, -1.00, 599.5, 10.2)">h</text><text xml:space="preserve" font-family="Avenir-LightOblique,Avenir" font-style="italic" font-size="36.0" fill="#FEFFFF" transform="matrix(1.00, 0.00, -0.00, -1.00, 619.5, 10.2)">i</text><text xml:space="preserve" font-family="Avenir-LightOblique,Avenir" font-style="italic" font-size="36.0" fill="#FEFFFF" transform="matrix(1.00, 0.00, -0.00, -1.00, 628.2, 10.2)">t</text><text xml:space="preserve" font-family="Avenir-LightOblique,Avenir" font-style="italic" font-size="36.0" fill="#FEFFFF" transform="matrix(1.00, 0.00, -0.00, -1.00, 640.2, 10.2)">e</text><text xml:space="preserve" font-family="Avenir-LightOblique,Avenir" font-style="italic" font-size="36.0" fill="#FEFFFF" transform="matrix(1.00, 0.00, -0.00, -1.00, 660.2, 10.2)">c</text><text xml:space="preserve" font-family="Avenir-LightOblique,Avenir" font-style="italic" font-size="36.0" fill="#FEFFFF" transform="matrix(1.00, 0.00, -0.00, -1.00, 677.5, 10.2)">t</text><text xml:space="preserve" font-family="Avenir-LightOblique,Avenir" font-style="italic" font-size="36.0" fill="#FEFFFF" transform="matrix(1.00, 0.00, -0.00, -1.00, 689.5, 10.2)">u</text><text xml:space="preserve" font-family="Avenir-LightOblique,Avenir" font-style="italic" font-size="36.0" fill="#FEFFFF" transform="matrix(1.00, 0.00, -0.00, -1.00, 709.5, 10.2)">r</text><text xml:space="preserve" font-family="Avenir-LightOblique,Avenir" font-style="italic" font-size="36.0" fill="#FEFFFF" transform="matrix(1.00, 0.00, -0.00, -1.00, 720.8, 10.2)">e</text></g></svg>