<?xml version="1.0" encoding="UTF-8"?><svg xmlns="http://www.w3.org/2000/svg" xmlns:xlink="http://www.w3.org/1999/xlink" clip-rule="evenodd" stroke-miterlimit="10" viewBox="0 0 1024 768"><desc>SVG generated by Keynote</desc><defs></defs><g transform="matrix(1.00, 0.00, -0.00, -1.00, 0.0, 768.0)"><path d="M 0.0 0.0 L 1024.0 0.0 L 1024.0 768.0 L 0.0 768.0 Z M 0.0 0.0 " fill="#000000"></path><text xml:space="preserve" font-family="Avenir-LightOblique,Avenir" font-style="italic" font-size="36.0" fill="#FEFFFF" transform="matrix(1.00, 0.00, -0.00, -1.00, 56.0, 509.2)">P</text><text xml:space="preserve" font-family="Avenir-LightOblique,Avenir" font-style="italic" font-size="36.0" fill="#FEFFFF" transform="matrix(1.00, 0.00, -0.00, -1.00, 76.7, 509.2)">a</text><text xml:space="preserve" font-family="Avenir-LightOblique,Avenir" font-style="italic" font-size="36.0" fill="#FEFFFF" transform="matrix(1.00, 0.00, -0.00, -1.00, 95.3, 509.2)">t</text><text xml:space="preserve" font-family="Avenir-LightOblique,Avenir" font-style="italic" font-size="36.0" fill="#FEFFFF" transform="matrix(1.00, 0.00, -0.00, -1.00, 107.4, 509.2)">t</text><text xml:space="preserve" font-family="Avenir-LightOblique,Avenir" font-style="italic" font-size="36.0" fill="#FEFFFF" transform="matrix(1.00, 0.00, -0.00, -1.00, 119.4, 509.2)">e</text><text xml:space="preserve" font-family="Avenir-LightOblique,Avenir" font-style="italic" font-size="36.0" fill="#FEFFFF" transform="matrix(1.00, 0.00, -0.00, -1.00, 139.4, 509.2)">r</text><text xml:space="preserve" font-family="Avenir-LightOblique,Avenir" font-style="italic" font-size="36.0" fill="#FEFFFF" transform="matrix(1.00, 0.00, -0.00, -1.00, 152.0, 509.2)">n</text><text xml:space="preserve" font-family="Avenir-LightOblique,Avenir" font-style="italic" font-size="36.0" fill="#FEFFFF" transform="matrix(1.00, 0.00, -0.00, -1.00, 172.0, 509.2)">s</text><text xml:space="preserve" font-family="Avenir-LightOblique,Avenir" font-style="italic" font-size="36.0" fill="#FEFFFF" transform="matrix(1.00, 0.00, -0.00, -1.00, 187.4, 509.2)"> </text><text xml:space="preserve" font-family="Avenir-LightOblique,Avenir" font-style="italic" font-size="36.0" fill="#FEFFFF" transform="matrix(1.00, 0.00, -0.00, -1.00, 196.7, 509.2)">o</text><text xml:space="preserve" font-family="Avenir-LightOblique,Avenir" font-style="italic" font-size="36.0" fill="#FEFFFF" transform="matrix(1.00, 0.00, -0.00, -1.00, 218.1, 509.2)">f</text><text xml:space="preserve" font-family="Avenir-LightOblique,Avenir" font-style="italic" font-size="36.0" fill="#FEFFFF" transform="matrix(1.00, 0.00, -0.00, -1.00, 228.8, 509.2)"> </text><text xml:space="preserve" font-family="Avenir-LightOblique,Avenir" font-style="italic" font-size="36.0" fill="#FEFFFF" transform="matrix(1.00, 0.00, -0.00, -1.00, 238.1, 509.2)">E</text><text xml:space="preserve" font-family="Avenir-LightOblique,Avenir" font-style="italic" font-size="36.0" fill="#FEFFFF" transform="matrix(1.00, 0.00, -0.00, -1.00, 259.5, 509.2)">n</text><text xml:space="preserve" font-family="Avenir-LightOblique,Avenir" font-style="italic" font-size="36.0" fill="#FEFFFF" transform="matrix(1.00, 0.00, -0.00, -1.00, 279.5, 509.2)">t</text><text xml:space="preserve" font-family="Avenir-LightOblique,Avenir" font-style="italic" font-size="36.0" fill="#FEFFFF" transform="matrix(1.00, 0.00, -0.00, -1.00, 291.5, 509.2)">e</text><text xml:space="preserve" font-family="Avenir-LightOblique,Avenir" font-style="italic" font-size="36.0" fill="#FEFFFF" transform="matrix(1.00, 0.00, -0.00, -1.00, 311.5, 509.2)">r</text><text xml:space="preserve" font-family="Avenir-LightOblique,Avenir" font-style="italic" font-size="36.0" fill="#FEFFFF" transform="matrix(1.00, 0.00, -0.00, -1.00, 323.5, 509.2)">p</text><text xml:space="preserve" font-family="Avenir-LightOblique,Avenir" font-style="italic" font-size="36.0" fill="#FEFFFF" transform="matrix(1.00, 0.00, -0.00, -1.00, 345.5, 509.2)">r</text><text xml:space="preserve" font-family="Avenir-LightOblique,Avenir" font-style="italic" font-size="36.0" fill="#FEFFFF" transform="matrix(1.00, 0.00, -0.00, -1.00, 357.5, 509.2)">i</text><text xml:space="preserve" font-family="Avenir-LightOblique,Avenir" font-style="italic" font-size="36.0" fill="#FEFFFF" transform="matrix(1.00, 0.00, -0.00, -1.00, 366.1, 509.2)">s</text><text xml:space="preserve" font-family="Avenir-LightOblique,Avenir" font-style="italic" font-size="36.0" fill="#FEFFFF" transform="matrix(1.00, 0.00, -0.00, -1.00, 381.4, 509.2)">e</text><text xml:space="preserve" font-family="Avenir-LightOblique,Avenir" font-style="italic" font-size="36.0" fill="#FEFFFF" transform="matrix(1.00, 0.00, -0.00, -1.00, 401.5, 509.2)"> </text><text xml:space="preserve" font-family="Avenir-LightOblique,Avenir" font-style="italic" font-size="36.0" fill="#FEFFFF" transform="matrix(1.00, 0.00, -0.00, -1.00, 410.8, 509.2)">A</text><text xml:space="preserve" font-family="Avenir-LightOblique,Avenir" font-style="italic" font-size="36.0" fill="#FEFFFF" transform="matrix(1.00, 0.00, -0.00, -1.00, 435.5, 509.2)">p</text><text xml:space="preserve" font-family="Avenir-LightOblique,Avenir" font-style="italic" font-size="36.0" fill="#FEFFFF" transform="matrix(1.00, 0.00, -0.00, -1.00, 457.5, 509.2)">p</text><text xml:space="preserve" font-family="Avenir-LightOblique,Avenir" font-style="italic" font-size="36.0" fill="#FEFFFF" transform="matrix(1.00, 0.00, -0.00, -1.00, 479.5, 509.2)">l</text><text xml:space="preserve" font-family="Avenir-LightOblique,Avenir" font-style="italic" font-size="36.0" fill="#FEFFFF" transform="matrix(1.00, 0.00, -0.00, -1.00, 488.1, 509.2)">i</text><text xml:space="preserve" font-family="Avenir-LightOblique,Avenir" font-style="italic" font-size="36.0" fill="#FEFFFF" transform="matrix(1.00, 0.00, -0.00, -1.00, 496.8, 509.2)">c</text><text xml:space="preserve" font-family="Avenir-LightOblique,Avenir" font-style="italic" font-size="36.0" fill="#FEFFFF" transform="matrix(1.00, 0.00, -0.00, -1.00, 514.1, 509.2)">a</text><text xml:space="preserve" font-family="Avenir-LightOblique,Avenir" font-style="italic" font-size="36.0" fill="#FEFFFF" transform="matrix(1.00, 0.00, -0.00, -1.00, 532.8, 509.2)">t</text><text xml:space="preserve" font-family="Avenir-LightOblique,Avenir" font-style="italic" font-size="36.0" fill="#FEFFFF" transform="matrix(1.00, 0.00, -0.00, -1.00, 544.8, 509.2)">i</text><text xml:space="preserve" font-family="Avenir-LightOblique,Avenir" font-style="italic" font-size="36.0" fill="#FEFFFF" transform="matrix(1.00, 0.00, -0.00, -1.00, 553.4, 509.2)">o</text><text xml:space="preserve" font-family="Avenir-LightOblique,Avenir" font-style="italic" font-size="36.0" fill="#FEFFFF" transform="matrix(1.00, 0.00, -0.00, -1.00, 574.8, 509.2)">n</text><text xml:space="preserve" font-family="Avenir-LightOblique,Avenir" font-style="italic" font-size="36.0" fill="#FEFFFF" transform="matrix(1.00, 0.00, -0.00, -1.00, 594.8, 509.2)"> </text><text xml:space="preserve" font-family="Avenir-LightOblique,Avenir" font-style="italic" font-size="36.0" fill="#FEFFFF" transform="matrix(1.00, 0.00, -0.00, -1.00, 604.2, 509.2)">A</text><text xml:space="preserve" font-family="Avenir-LightOblique,Avenir" font-style="italic" font-size="36.0" fill="#FEFFFF" transform="matrix(1.00, 0.00, -0.00, -1.00, 628.9, 509.2)">r</text><text xml:space="preserve" font-family="Avenir-LightOblique,Avenir" font-style="italic" font-size="36.0" fill="#FEFFFF" transform="matrix(1.00, 0.00, -0.00, -1.00, 640.2, 509.2)">c</text><text xml:space="preserve" font-family="Avenir-LightOblique,Avenir" font-style="italic" font-size="36.0" fill="#FEFFFF" transform="matrix(1.00, 0.00, -0.00, -1.00, 657.5, 509.2)">h</text><text xml:space="preserve" font-family="Avenir-LightOblique,Avenir" font-style="italic" font-size="36.0" fill="#FEFFFF" transform="matrix(1.00, 0.00, -0.00, -1.00, 677.5, 509.2)">i</text><text xml:space="preserve" font-family="Avenir-LightOblique,Avenir" font-style="italic" font-size="36.0" fill="#FEFFFF" transform="matrix(1.00, 0.00, -0.00, -1.00, 686.2, 509.2)">t</text><text xml:space="preserve" font-family="Avenir-LightOblique,Avenir" font-style="italic" font-size="36.0" fill="#FEFFFF" transform="matrix(1.00, 0.00, -0.00, -1.00, 698.2, 509.2)">e</text><text xml:space="preserve" font-family="Avenir-LightOblique,Avenir" font-style="italic" font-size="36.0" fill="#FEFFFF" transform="matrix(1.00, 0.00, -0.00, -1.00, 718.2, 509.2)">c</text><text xml:space="preserve" font-family="Avenir-LightOblique,Avenir" font-style="italic" font-size="36.0" fill="#FEFFFF" transform="matrix(1.00, 0.00, -0.00, -1.00, 735.5, 509.2)">t</text><text xml:space="preserve" font-family="Avenir-LightOblique,Avenir" font-style="italic" font-size="36.0" fill="#FEFFFF" transform="matrix(1.00, 0.00, -0.00, -1.00, 747.5, 509.2)">u</text><text xml:space="preserve" font-family="Avenir-LightOblique,Avenir" font-style="italic" font-size="36.0" fill="#FEFFFF" transform="matrix(1.00, 0.00, -0.00, -1.00, 767.5, 509.2)">r</text><text xml:space="preserve" font-family="Avenir-LightOblique,Avenir" font-style="italic" font-size="36.0" fill="#FEFFFF" transform="matrix(1.00, 0.00, -0.00, -1.00, 778.8, 509.2)">e</text><text xml:space="preserve" font-family="Avenir-Light,Avenir" font-size="36.0" fill="#FEFFFF" transform="matrix(1.00, 0.00, -0.00, -1.00, 56.0, 418.2)">“</text><text xml:space="preserve" font-family="Avenir-Light,Avenir" font-size="36.0" fill="#FEFFFF" transform="matrix(1.00, 0.00, -0.00, -1.00, 74.7, 418.2)">T</text><text xml:space="preserve" font-family="Avenir-Light,Avenir" font-size="36.0" fill="#FEFFFF" transform="matrix(1.00, 0.00, -0.00, -1.00, 91.4, 418.2)">o</text><text xml:space="preserve" font-family="Avenir-Light,Avenir" font-size="36.0" fill="#FEFFFF" transform="matrix(1.00, 0.00, -0.00, -1.00, 112.8, 418.2)"> </text><text xml:space="preserve" font-family="Avenir-Light,Avenir" font-size="36.0" fill="#FEFFFF" transform="matrix(1.00, 0.00, -0.00, -1.00, 122.1, 418.2)">b</text><text xml:space="preserve" font-family="Avenir-Light,Avenir" font-size="36.0" fill="#FEFFFF" transform="matrix(1.00, 0.00, -0.00, -1.00, 144.1, 418.2)">u</text><text xml:space="preserve" font-family="Avenir-Light,Avenir" font-size="36.0" fill="#FEFFFF" transform="matrix(1.00, 0.00, -0.00, -1.00, 164.1, 418.2)">i</text><text xml:space="preserve" font-family="Avenir-Light,Avenir" font-size="36.0" fill="#FEFFFF" transform="matrix(1.00, 0.00, -0.00, -1.00, 172.8, 418.2)">l</text><text xml:space="preserve" font-family="Avenir-Light,Avenir" font-size="36.0" fill="#FEFFFF" transform="matrix(1.00, 0.00, -0.00, -1.00, 181.4, 418.2)">d</text><text xml:space="preserve" font-family="Avenir-Light,Avenir" font-size="36.0" fill="#FEFFFF" transform="matrix(1.00, 0.00, -0.00, -1.00, 203.4, 418.2)"> </text><text xml:space="preserve" font-family="Avenir-Light,Avenir" font-size="36.0" fill="#FEFFFF" transform="matrix(1.00, 0.00, -0.00, -1.00, 212.8, 418.2)">a</text><text xml:space="preserve" font-family="Avenir-Light,Avenir" font-size="36.0" fill="#FEFFFF" transform="matrix(1.00, 0.00, -0.00, -1.00, 231.5, 418.2)"> </text><text xml:space="preserve" font-family="Avenir-Light,Avenir" font-size="36.0" fill="#FEFFFF" transform="matrix(1.00, 0.00, -0.00, -1.00, 240.8, 418.2)">g</text><text xml:space="preserve" font-family="Avenir-Light,Avenir" font-size="36.0" fill="#FEFFFF" transform="matrix(1.00, 0.00, -0.00, -1.00, 262.8, 418.2)">o</text><text xml:space="preserve" font-family="Avenir-Light,Avenir" font-size="36.0" fill="#FEFFFF" transform="matrix(1.00, 0.00, -0.00, -1.00, 284.2, 418.2)">o</text><text xml:space="preserve" font-family="Avenir-Light,Avenir" font-size="36.0" fill="#FEFFFF" transform="matrix(1.00, 0.00, -0.00, -1.00, 305.6, 418.2)">d</text><text xml:space="preserve" font-family="Avenir-Light,Avenir" font-size="36.0" fill="#FEFFFF" transform="matrix(1.00, 0.00, -0.00, -1.00, 327.6, 418.2)"> </text><text xml:space="preserve" font-family="Avenir-Light,Avenir" font-size="36.0" fill="#FEFFFF" transform="matrix(1.00, 0.00, -0.00, -1.00, 336.9, 418.2)">d</text><text xml:space="preserve" font-family="Avenir-Light,Avenir" font-size="36.0" fill="#FEFFFF" transform="matrix(1.00, 0.00, -0.00, -1.00, 358.9, 418.2)">o</text><text xml:space="preserve" font-family="Avenir-Light,Avenir" font-size="36.0" fill="#FEFFFF" transform="matrix(1.00, 0.00, -0.00, -1.00, 380.3, 418.2)">m</text><text xml:space="preserve" font-family="Avenir-Light,Avenir" font-size="36.0" fill="#FEFFFF" transform="matrix(1.00, 0.00, -0.00, -1.00, 411.0, 418.2)">a</text><text xml:space="preserve" font-family="Avenir-Light,Avenir" font-size="36.0" fill="#FEFFFF" transform="matrix(1.00, 0.00, -0.00, -1.00, 429.7, 418.2)">i</text><text xml:space="preserve" font-family="Avenir-Light,Avenir" font-size="36.0" fill="#FEFFFF" transform="matrix(1.00, 0.00, -0.00, -1.00, 438.3, 418.2)">n</text><text xml:space="preserve" font-family="Avenir-Light,Avenir" font-size="36.0" fill="#FEFFFF" transform="matrix(1.00, 0.00, -0.00, -1.00, 458.3, 418.2)"> </text><text xml:space="preserve" font-family="Avenir-Light,Avenir" font-size="36.0" fill="#FEFFFF" transform="matrix(1.00, 0.00, -0.00, -1.00, 467.7, 418.2)">m</text><text xml:space="preserve" font-family="Avenir-Light,Avenir" font-size="36.0" fill="#FEFFFF" transform="matrix(1.00, 0.00, -0.00, -1.00, 498.4, 418.2)">o</text><text xml:space="preserve" font-family="Avenir-Light,Avenir" font-size="36.0" fill="#FEFFFF" transform="matrix(1.00, 0.00, -0.00, -1.00, 519.8, 418.2)">d</text><text xml:space="preserve" font-family="Avenir-Light,Avenir" font-size="36.0" fill="#FEFFFF" transform="matrix(1.00, 0.00, -0.00, -1.00, 541.7, 418.2)">e</text><text xml:space="preserve" font-family="Avenir-Light,Avenir" font-size="36.0" fill="#FEFFFF" transform="matrix(1.00, 0.00, -0.00, -1.00, 561.8, 418.2)">l</text><text xml:space="preserve" font-family="Avenir-Light,Avenir" font-size="36.0" fill="#FEFFFF" transform="matrix(1.00, 0.00, -0.00, -1.00, 570.4, 418.2)"> </text><text xml:space="preserve" font-family="Avenir-Light,Avenir" font-size="36.0" fill="#FEFFFF" transform="matrix(1.00, 0.00, -0.00, -1.00, 579.8, 418.2)">y</text><text xml:space="preserve" font-family="Avenir-Light,Avenir" font-size="36.0" fill="#FEFFFF" transform="matrix(1.00, 0.00, -0.00, -1.00, 596.4, 418.2)">o</text><text xml:space="preserve" font-family="Avenir-Light,Avenir" font-size="36.0" fill="#FEFFFF" transform="matrix(1.00, 0.00, -0.00, -1.00, 617.8, 418.2)">u</text><text xml:space="preserve" font-family="Avenir-Light,Avenir" font-size="36.0" fill="#FEFFFF" transform="matrix(1.00, 0.00, -0.00, -1.00, 637.8, 418.2)"> </text><text xml:space="preserve" font-family="Avenir-Light,Avenir" font-size="36.0" fill="#FEFFFF" transform="matrix(1.00, 0.00, -0.00, -1.00, 647.2, 418.2)">s</text><text xml:space="preserve" font-family="Avenir-Light,Avenir" font-size="36.0" fill="#FEFFFF" transform="matrix(1.00, 0.00, -0.00, -1.00, 662.5, 418.2)">h</text><text xml:space="preserve" font-family="Avenir-Light,Avenir" font-size="36.0" fill="#FEFFFF" transform="matrix(1.00, 0.00, -0.00, -1.00, 682.5, 418.2)">o</text><text xml:space="preserve" font-family="Avenir-Light,Avenir" font-size="36.0" fill="#FEFFFF" transform="matrix(1.00, 0.00, -0.00, -1.00, 703.9, 418.2)">u</text><text xml:space="preserve" font-family="Avenir-Light,Avenir" font-size="36.0" fill="#FEFFFF" transform="matrix(1.00, 0.00, -0.00, -1.00, 723.9, 418.2)">l</text><text xml:space="preserve" font-family="Avenir-Light,Avenir" font-size="36.0" fill="#FEFFFF" transform="matrix(1.00, 0.00, -0.00, -1.00, 732.6, 418.2)">d</text><text xml:space="preserve" font-family="Avenir-Light,Avenir" font-size="36.0" fill="#FEFFFF" transform="matrix(1.00, 0.00, -0.00, -1.00, 754.6, 418.2)"> </text><text xml:space="preserve" font-family="Avenir-Light,Avenir" font-size="36.0" fill="#FEFFFF" transform="matrix(1.00, 0.00, -0.00, -1.00, 763.9, 418.2)">h</text><text xml:space="preserve" font-family="Avenir-Light,Avenir" font-size="36.0" fill="#FEFFFF" transform="matrix(1.00, 0.00, -0.00, -1.00, 784.0, 418.2)">a</text><text xml:space="preserve" font-family="Avenir-Light,Avenir" font-size="36.0" fill="#FEFFFF" transform="matrix(1.00, 0.00, -0.00, -1.00, 802.6, 418.2)">v</text><text xml:space="preserve" font-family="Avenir-Light,Avenir" font-size="36.0" fill="#FEFFFF" transform="matrix(1.00, 0.00, -0.00, -1.00, 819.3, 418.2)">e</text><text xml:space="preserve" font-family="Avenir-Light,Avenir" font-size="36.0" fill="#FEFFFF" transform="matrix(1.00, 0.00, -0.00, -1.00, 839.3, 418.2)"> </text><text xml:space="preserve" font-family="Avenir-Light,Avenir" font-size="36.0" fill="#FEFFFF" transform="matrix(1.00, 0.00, -0.00, -1.00, 848.7, 418.2)">a</text><text xml:space="preserve" font-family="Avenir-Light,Avenir" font-size="36.0" fill="#FEFFFF" transform="matrix(1.00, 0.00, -0.00, -1.00, 867.4, 418.2)">n</text><text xml:space="preserve" font-family="Avenir-Light,Avenir" font-size="36.0" fill="#FEFFFF" transform="matrix(1.00, 0.00, -0.00, -1.00, 887.4, 418.2)"> </text><text xml:space="preserve" font-family="Avenir-Light,Avenir" font-size="36.0" fill="#FEFFFF" transform="matrix(1.00, 0.00, -0.00, -1.00, 56.0, 369.2)">u</text><text xml:space="preserve" font-family="Avenir-Light,Avenir" font-size="36.0" fill="#FEFFFF" transform="matrix(1.00, 0.00, -0.00, -1.00, 76.0, 369.2)">n</text><text xml:space="preserve" font-family="Avenir-Light,Avenir" font-size="36.0" fill="#FEFFFF" transform="matrix(1.00, 0.00, -0.00, -1.00, 96.0, 369.2)">d</text><text xml:space="preserve" font-family="Avenir-Light,Avenir" font-size="36.0" fill="#FEFFFF" transform="matrix(1.00, 0.00, -0.00, -1.00, 118.0, 369.2)">e</text><text xml:space="preserve" font-family="Avenir-Light,Avenir" font-size="36.0" fill="#FEFFFF" transform="matrix(1.00, 0.00, -0.00, -1.00, 138.0, 369.2)">r</text><text xml:space="preserve" font-family="Avenir-Light,Avenir" font-size="36.0" fill="#FEFFFF" transform="matrix(1.00, 0.00, -0.00, -1.00, 150.0, 369.2)">s</text><text xml:space="preserve" font-family="Avenir-Light,Avenir" font-size="36.0" fill="#FEFFFF" transform="matrix(1.00, 0.00, -0.00, -1.00, 165.4, 369.2)">t</text><text xml:space="preserve" font-family="Avenir-Light,Avenir" font-size="36.0" fill="#FEFFFF" transform="matrix(1.00, 0.00, -0.00, -1.00, 177.4, 369.2)">a</text><text xml:space="preserve" font-family="Avenir-Light,Avenir" font-size="36.0" fill="#FEFFFF" transform="matrix(1.00, 0.00, -0.00, -1.00, 196.0, 369.2)">n</text><text xml:space="preserve" font-family="Avenir-Light,Avenir" font-size="36.0" fill="#FEFFFF" transform="matrix(1.00, 0.00, -0.00, -1.00, 216.1, 369.2)">d</text><text xml:space="preserve" font-family="Avenir-Light,Avenir" font-size="36.0" fill="#FEFFFF" transform="matrix(1.00, 0.00, -0.00, -1.00, 238.1, 369.2)">i</text><text xml:space="preserve" font-family="Avenir-Light,Avenir" font-size="36.0" fill="#FEFFFF" transform="matrix(1.00, 0.00, -0.00, -1.00, 246.7, 369.2)">n</text><text xml:space="preserve" font-family="Avenir-Light,Avenir" font-size="36.0" fill="#FEFFFF" transform="matrix(1.00, 0.00, -0.00, -1.00, 266.7, 369.2)">g</text><text xml:space="preserve" font-family="Avenir-Light,Avenir" font-size="36.0" fill="#FEFFFF" transform="matrix(1.00, 0.00, -0.00, -1.00, 288.7, 369.2)"> </text><text xml:space="preserve" font-family="Avenir-Light,Avenir" font-size="36.0" fill="#FEFFFF" transform="matrix(1.00, 0.00, -0.00, -1.00, 298.1, 369.2)">o</text><text xml:space="preserve" font-family="Avenir-Light,Avenir" font-size="36.0" fill="#FEFFFF" transform="matrix(1.00, 0.00, -0.00, -1.00, 319.5, 369.2)">f</text><text xml:space="preserve" font-family="Avenir-Light,Avenir" font-size="36.0" fill="#FEFFFF" transform="matrix(1.00, 0.00, -0.00, -1.00, 330.1, 369.2)"> </text><text xml:space="preserve" font-family="Avenir-Light,Avenir" font-size="36.0" fill="#FEFFFF" transform="matrix(1.00, 0.00, -0.00, -1.00, 339.5, 369.2)">c</text><text xml:space="preserve" font-family="Avenir-Light,Avenir" font-size="36.0" fill="#FEFFFF" transform="matrix(1.00, 0.00, -0.00, -1.00, 356.8, 369.2)">o</text><text xml:space="preserve" font-family="Avenir-Light,Avenir" font-size="36.0" fill="#FEFFFF" transform="matrix(1.00, 0.00, -0.00, -1.00, 378.2, 369.2)">n</text><text xml:space="preserve" font-family="Avenir-Light,Avenir" font-size="36.0" fill="#FEFFFF" transform="matrix(1.00, 0.00, -0.00, -1.00, 398.2, 369.2)">c</text><text xml:space="preserve" font-family="Avenir-Light,Avenir" font-size="36.0" fill="#FEFFFF" transform="matrix(1.00, 0.00, -0.00, -1.00, 415.5, 369.2)">e</text><text xml:space="preserve" font-family="Avenir-Light,Avenir" font-size="36.0" fill="#FEFFFF" transform="matrix(1.00, 0.00, -0.00, -1.00, 435.5, 369.2)">p</text><text xml:space="preserve" font-family="Avenir-Light,Avenir" font-size="36.0" fill="#FEFFFF" transform="matrix(1.00, 0.00, -0.00, -1.00, 457.5, 369.2)">t</text><text xml:space="preserve" font-family="Avenir-Light,Avenir" font-size="36.0" fill="#FEFFFF" transform="matrix(1.00, 0.00, -0.00, -1.00, 469.5, 369.2)">u</text><text xml:space="preserve" font-family="Avenir-Light,Avenir" font-size="36.0" fill="#FEFFFF" transform="matrix(1.00, 0.00, -0.00, -1.00, 489.5, 369.2)">a</text><text xml:space="preserve" font-family="Avenir-Light,Avenir" font-size="36.0" fill="#FEFFFF" transform="matrix(1.00, 0.00, -0.00, -1.00, 508.2, 369.2)">l</text><text xml:space="preserve" font-family="Avenir-Light,Avenir" font-size="36.0" fill="#FEFFFF" transform="matrix(1.00, 0.00, -0.00, -1.00, 516.9, 369.2)"> </text><text xml:space="preserve" font-family="Avenir-Light,Avenir" font-size="36.0" fill="#FEFFFF" transform="matrix(1.00, 0.00, -0.00, -1.00, 526.2, 369.2)">t</text><text xml:space="preserve" font-family="Avenir-Light,Avenir" font-size="36.0" fill="#FEFFFF" transform="matrix(1.00, 0.00, -0.00, -1.00, 538.3, 369.2)">h</text><text xml:space="preserve" font-family="Avenir-Light,Avenir" font-size="36.0" fill="#FEFFFF" transform="matrix(1.00, 0.00, -0.00, -1.00, 558.3, 369.2)">i</text><text xml:space="preserve" font-family="Avenir-Light,Avenir" font-size="36.0" fill="#FEFFFF" transform="matrix(1.00, 0.00, -0.00, -1.00, 566.9, 369.2)">n</text><text xml:space="preserve" font-family="Avenir-Light,Avenir" font-size="36.0" fill="#FEFFFF" transform="matrix(1.00, 0.00, -0.00, -1.00, 586.9, 369.2)">k</text><text xml:space="preserve" font-family="Avenir-Light,Avenir" font-size="36.0" fill="#FEFFFF" transform="matrix(1.00, 0.00, -0.00, -1.00, 604.2, 369.2)">i</text><text xml:space="preserve" font-family="Avenir-Light,Avenir" font-size="36.0" fill="#FEFFFF" transform="matrix(1.00, 0.00, -0.00, -1.00, 612.9, 369.2)">n</text><text xml:space="preserve" font-family="Avenir-Light,Avenir" font-size="36.0" fill="#FEFFFF" transform="matrix(1.00, 0.00, -0.00, -1.00, 632.9, 369.2)">g</text><text xml:space="preserve" font-family="Avenir-Light,Avenir" font-size="36.0" fill="#FEFFFF" transform="matrix(1.00, 0.00, -0.00, -1.00, 654.9, 369.2)"> </text><text xml:space="preserve" font-family="Avenir-Light,Avenir" font-size="36.0" fill="#FEFFFF" transform="matrix(1.00, 0.00, -0.00, -1.00, 664.3, 369.2)">a</text><text xml:space="preserve" font-family="Avenir-Light,Avenir" font-size="36.0" fill="#FEFFFF" transform="matrix(1.00, 0.00, -0.00, -1.00, 682.9, 369.2)">b</text><text xml:space="preserve" font-family="Avenir-Light,Avenir" font-size="36.0" fill="#FEFFFF" transform="matrix(1.00, 0.00, -0.00, -1.00, 704.9, 369.2)">o</text><text xml:space="preserve" font-family="Avenir-Light,Avenir" font-size="36.0" fill="#FEFFFF" transform="matrix(1.00, 0.00, -0.00, -1.00, 726.3, 369.2)">u</text><text xml:space="preserve" font-family="Avenir-Light,Avenir" font-size="36.0" fill="#FEFFFF" transform="matrix(1.00, 0.00, -0.00, -1.00, 746.3, 369.2)">t</text><text xml:space="preserve" font-family="Avenir-Light,Avenir" font-size="36.0" fill="#FEFFFF" transform="matrix(1.00, 0.00, -0.00, -1.00, 758.3, 369.2)"> </text><text xml:space="preserve" font-family="Avenir-Light,Avenir" font-size="36.0" fill="#FEFFFF" transform="matrix(1.00, 0.00, -0.00, -1.00, 767.7, 369.2)">o</text><text xml:space="preserve" font-family="Avenir-Light,Avenir" font-size="36.0" fill="#FEFFFF" transform="matrix(1.00, 0.00, -0.00, -1.00, 789.1, 369.2)">b</text><text xml:space="preserve" font-family="Avenir-Light,Avenir" font-size="36.0" fill="#FEFFFF" transform="matrix(1.00, 0.00, -0.00, -1.00, 811.1, 369.2)">j</text><text xml:space="preserve" font-family="Avenir-Light,Avenir" font-size="36.0" fill="#FEFFFF" transform="matrix(1.00, 0.00, -0.00, -1.00, 819.7, 369.2)">e</text><text xml:space="preserve" font-family="Avenir-Light,Avenir" font-size="36.0" fill="#FEFFFF" transform="matrix(1.00, 0.00, -0.00, -1.00, 839.7, 369.2)">c</text><text xml:space="preserve" font-family="Avenir-Light,Avenir" font-size="36.0" fill="#FEFFFF" transform="matrix(1.00, 0.00, -0.00, -1.00, 857.0, 369.2)">t</text><text xml:space="preserve" font-family="Avenir-Light,Avenir" font-size="36.0" fill="#FEFFFF" transform="matrix(1.00, 0.00, -0.00, -1.00, 869.0, 369.2)">s</text><text xml:space="preserve" font-family="Avenir-Light,Avenir" font-size="36.0" fill="#FEFFFF" transform="matrix(1.00, 0.00, -0.00, -1.00, 884.4, 369.2)">.</text><text xml:space="preserve" font-family="Avenir-Light,Avenir" font-size="36.0" fill="#FEFFFF" transform="matrix(1.00, 0.00, -0.00, -1.00, 893.7, 369.2)">”</text><text xml:space="preserve" font-family="Avenir-Light,Avenir" font-size="36.0" fill="#FEFFFF" transform="matrix(1.00, 0.00, -0.00, -1.00, 56.0, 278.2)">“</text><text xml:space="preserve" font-family="Avenir-Light,Avenir" font-size="36.0" fill="#FEFFFF" transform="matrix(1.00, 0.00, -0.00, -1.00, 74.7, 278.2)">E</text><text xml:space="preserve" font-family="Avenir-Light,Avenir" font-size="36.0" fill="#FEFFFF" transform="matrix(1.00, 0.00, -0.00, -1.00, 96.1, 278.2)">r</text><text xml:space="preserve" font-family="Avenir-Light,Avenir" font-size="36.0" fill="#FEFFFF" transform="matrix(1.00, 0.00, -0.00, -1.00, 108.1, 278.2)">i</text><text xml:space="preserve" font-family="Avenir-Light,Avenir" font-size="36.0" fill="#FEFFFF" transform="matrix(1.00, 0.00, -0.00, -1.00, 116.7, 278.2)">c</text><text xml:space="preserve" font-family="Avenir-Light,Avenir" font-size="36.0" fill="#FEFFFF" transform="matrix(1.00, 0.00, -0.00, -1.00, 134.0, 278.2)"> </text><text xml:space="preserve" font-family="Avenir-Light,Avenir" font-size="36.0" fill="#FEFFFF" transform="matrix(1.00, 0.00, -0.00, -1.00, 143.4, 278.2)">E</text><text xml:space="preserve" font-family="Avenir-Light,Avenir" font-size="36.0" fill="#FEFFFF" transform="matrix(1.00, 0.00, -0.00, -1.00, 164.7, 278.2)">v</text><text xml:space="preserve" font-family="Avenir-Light,Avenir" font-size="36.0" fill="#FEFFFF" transform="matrix(1.00, 0.00, -0.00, -1.00, 181.4, 278.2)">a</text><text xml:space="preserve" font-family="Avenir-Light,Avenir" font-size="36.0" fill="#FEFFFF" transform="matrix(1.00, 0.00, -0.00, -1.00, 200.1, 278.2)">n</text><text xml:space="preserve" font-family="Avenir-Light,Avenir" font-size="36.0" fill="#FEFFFF" transform="matrix(1.00, 0.00, -0.00, -1.00, 220.1, 278.2)">s</text><text xml:space="preserve" font-family="Avenir-Light,Avenir" font-size="36.0" fill="#FEFFFF" transform="matrix(1.00, 0.00, -0.00, -1.00, 235.4, 278.2)"> </text><text xml:space="preserve" font-family="Avenir-Light,Avenir" font-size="36.0" fill="#FEFFFF" transform="matrix(1.00, 0.00, -0.00, -1.00, 244.8, 278.2)">i</text><text xml:space="preserve" font-family="Avenir-Light,Avenir" font-size="36.0" fill="#FEFFFF" transform="matrix(1.00, 0.00, -0.00, -1.00, 253.4, 278.2)">s</text><text xml:space="preserve" font-family="Avenir-Light,Avenir" font-size="36.0" fill="#FEFFFF" transform="matrix(1.00, 0.00, -0.00, -1.00, 268.8, 278.2)"> </text><text xml:space="preserve" font-family="Avenir-Light,Avenir" font-size="36.0" fill="#FEFFFF" transform="matrix(1.00, 0.00, -0.00, -1.00, 278.1, 278.2)">c</text><text xml:space="preserve" font-family="Avenir-Light,Avenir" font-size="36.0" fill="#FEFFFF" transform="matrix(1.00, 0.00, -0.00, -1.00, 295.4, 278.2)">u</text><text xml:space="preserve" font-family="Avenir-Light,Avenir" font-size="36.0" fill="#FEFFFF" transform="matrix(1.00, 0.00, -0.00, -1.00, 315.5, 278.2)">r</text><text xml:space="preserve" font-family="Avenir-Light,Avenir" font-size="36.0" fill="#FEFFFF" transform="matrix(1.00, 0.00, -0.00, -1.00, 327.4, 278.2)">r</text><text xml:space="preserve" font-family="Avenir-Light,Avenir" font-size="36.0" fill="#FEFFFF" transform="matrix(1.00, 0.00, -0.00, -1.00, 338.8, 278.2)">e</text><text xml:space="preserve" font-family="Avenir-Light,Avenir" font-size="36.0" fill="#FEFFFF" transform="matrix(1.00, 0.00, -0.00, -1.00, 358.8, 278.2)">n</text><text xml:space="preserve" font-family="Avenir-Light,Avenir" font-size="36.0" fill="#FEFFFF" transform="matrix(1.00, 0.00, -0.00, -1.00, 378.8, 278.2)">t</text><text xml:space="preserve" font-family="Avenir-Light,Avenir" font-size="36.0" fill="#FEFFFF" transform="matrix(1.00, 0.00, -0.00, -1.00, 390.8, 278.2)">l</text><text xml:space="preserve" font-family="Avenir-Light,Avenir" font-size="36.0" fill="#FEFFFF" transform="matrix(1.00, 0.00, -0.00, -1.00, 399.5, 278.2)">y</text><text xml:space="preserve" font-family="Avenir-Light,Avenir" font-size="36.0" fill="#FEFFFF" transform="matrix(1.00, 0.00, -0.00, -1.00, 416.1, 278.2)"> </text><text xml:space="preserve" font-family="Avenir-Light,Avenir" font-size="36.0" fill="#FEFFFF" transform="matrix(1.00, 0.00, -0.00, -1.00, 425.5, 278.2)">w</text><text xml:space="preserve" font-family="Avenir-Light,Avenir" font-size="36.0" fill="#FEFFFF" transform="matrix(1.00, 0.00, -0.00, -1.00, 450.8, 278.2)">r</text><text xml:space="preserve" font-family="Avenir-Light,Avenir" font-size="36.0" fill="#FEFFFF" transform="matrix(1.00, 0.00, -0.00, -1.00, 462.8, 278.2)">i</text><text xml:space="preserve" font-family="Avenir-Light,Avenir" font-size="36.0" fill="#FEFFFF" transform="matrix(1.00, 0.00, -0.00, -1.00, 471.5, 278.2)">t</text><text xml:space="preserve" font-family="Avenir-Light,Avenir" font-size="36.0" fill="#FEFFFF" transform="matrix(1.00, 0.00, -0.00, -1.00, 483.5, 278.2)">i</text><text xml:space="preserve" font-family="Avenir-Light,Avenir" font-size="36.0" fill="#FEFFFF" transform="matrix(1.00, 0.00, -0.00, -1.00, 492.1, 278.2)">n</text><text xml:space="preserve" font-family="Avenir-Light,Avenir" font-size="36.0" fill="#FEFFFF" transform="matrix(1.00, 0.00, -0.00, -1.00, 512.2, 278.2)">g</text><text xml:space="preserve" font-family="Avenir-Light,Avenir" font-size="36.0" fill="#FEFFFF" transform="matrix(1.00, 0.00, -0.00, -1.00, 534.2, 278.2)"> </text><text xml:space="preserve" font-family="Avenir-Light,Avenir" font-size="36.0" fill="#FEFFFF" transform="matrix(1.00, 0.00, -0.00, -1.00, 543.5, 278.2)">a</text><text xml:space="preserve" font-family="Avenir-Light,Avenir" font-size="36.0" fill="#FEFFFF" transform="matrix(1.00, 0.00, -0.00, -1.00, 562.2, 278.2)"> </text><text xml:space="preserve" font-family="Avenir-Light,Avenir" font-size="36.0" fill="#FEFFFF" transform="matrix(1.00, 0.00, -0.00, -1.00, 571.6, 278.2)">b</text><text xml:space="preserve" font-family="Avenir-Light,Avenir" font-size="36.0" fill="#FEFFFF" transform="matrix(1.00, 0.00, -0.00, -1.00, 593.6, 278.2)">o</text><text xml:space="preserve" font-family="Avenir-Light,Avenir" font-size="36.0" fill="#FEFFFF" transform="matrix(1.00, 0.00, -0.00, -1.00, 614.9, 278.2)">o</text><text xml:space="preserve" font-family="Avenir-Light,Avenir" font-size="36.0" fill="#FEFFFF" transform="matrix(1.00, 0.00, -0.00, -1.00, 636.3, 278.2)">k</text><text xml:space="preserve" font-family="Avenir-Light,Avenir" font-size="36.0" fill="#FEFFFF" transform="matrix(1.00, 0.00, -0.00, -1.00, 653.6, 278.2)"> </text><text xml:space="preserve" font-family="Avenir-Light,Avenir" font-size="36.0" fill="#FEFFFF" transform="matrix(1.00, 0.00, -0.00, -1.00, 663.0, 278.2)">o</text><text xml:space="preserve" font-family="Avenir-Light,Avenir" font-size="36.0" fill="#FEFFFF" transform="matrix(1.00, 0.00, -0.00, -1.00, 684.4, 278.2)">n</text><text xml:space="preserve" font-family="Avenir-Light,Avenir" font-size="36.0" fill="#FEFFFF" transform="matrix(1.00, 0.00, -0.00, -1.00, 704.4, 278.2)"> </text><text xml:space="preserve" font-family="Avenir-Light,Avenir" font-size="36.0" fill="#FEFFFF" transform="matrix(1.00, 0.00, -0.00, -1.00, 713.8, 278.2)">b</text><text xml:space="preserve" font-family="Avenir-Light,Avenir" font-size="36.0" fill="#FEFFFF" transform="matrix(1.00, 0.00, -0.00, -1.00, 735.8, 278.2)">u</text><text xml:space="preserve" font-family="Avenir-Light,Avenir" font-size="36.0" fill="#FEFFFF" transform="matrix(1.00, 0.00, -0.00, -1.00, 755.8, 278.2)">i</text><text xml:space="preserve" font-family="Avenir-Light,Avenir" font-size="36.0" fill="#FEFFFF" transform="matrix(1.00, 0.00, -0.00, -1.00, 764.4, 278.2)">l</text><text xml:space="preserve" font-family="Avenir-Light,Avenir" font-size="36.0" fill="#FEFFFF" transform="matrix(1.00, 0.00, -0.00, -1.00, 773.0, 278.2)">d</text><text xml:space="preserve" font-family="Avenir-Light,Avenir" font-size="36.0" fill="#FEFFFF" transform="matrix(1.00, 0.00, -0.00, -1.00, 795.1, 278.2)">i</text><text xml:space="preserve" font-family="Avenir-Light,Avenir" font-size="36.0" fill="#FEFFFF" transform="matrix(1.00, 0.00, -0.00, -1.00, 803.7, 278.2)">n</text><text xml:space="preserve" font-family="Avenir-Light,Avenir" font-size="36.0" fill="#FEFFFF" transform="matrix(1.00, 0.00, -0.00, -1.00, 823.7, 278.2)">g</text><text xml:space="preserve" font-family="Avenir-Light,Avenir" font-size="36.0" fill="#FEFFFF" transform="matrix(1.00, 0.00, -0.00, -1.00, 845.7, 278.2)"> </text><text xml:space="preserve" font-family="Avenir-Light,Avenir" font-size="36.0" fill="#FEFFFF" transform="matrix(1.00, 0.00, -0.00, -1.00, 56.0, 229.2)">d</text><text xml:space="preserve" font-family="Avenir-Light,Avenir" font-size="36.0" fill="#FEFFFF" transform="matrix(1.00, 0.00, -0.00, -1.00, 78.0, 229.2)">o</text><text xml:space="preserve" font-family="Avenir-Light,Avenir" font-size="36.0" fill="#FEFFFF" transform="matrix(1.00, 0.00, -0.00, -1.00, 99.4, 229.2)">m</text><text xml:space="preserve" font-family="Avenir-Light,Avenir" font-size="36.0" fill="#FEFFFF" transform="matrix(1.00, 0.00, -0.00, -1.00, 130.1, 229.2)">a</text><text xml:space="preserve" font-family="Avenir-Light,Avenir" font-size="36.0" fill="#FEFFFF" transform="matrix(1.00, 0.00, -0.00, -1.00, 148.7, 229.2)">i</text><text xml:space="preserve" font-family="Avenir-Light,Avenir" font-size="36.0" fill="#FEFFFF" transform="matrix(1.00, 0.00, -0.00, -1.00, 157.4, 229.2)">n</text><text xml:space="preserve" font-family="Avenir-Light,Avenir" font-size="36.0" fill="#FEFFFF" transform="matrix(1.00, 0.00, -0.00, -1.00, 177.4, 229.2)"> </text><text xml:space="preserve" font-family="Avenir-Light,Avenir" font-size="36.0" fill="#FEFFFF" transform="matrix(1.00, 0.00, -0.00, -1.00, 186.8, 229.2)">m</text><text xml:space="preserve" font-family="Avenir-Light,Avenir" font-size="36.0" fill="#FEFFFF" transform="matrix(1.00, 0.00, -0.00, -1.00, 217.4, 229.2)">o</text><text xml:space="preserve" font-family="Avenir-Light,Avenir" font-size="36.0" fill="#FEFFFF" transform="matrix(1.00, 0.00, -0.00, -1.00, 238.8, 229.2)">d</text><text xml:space="preserve" font-family="Avenir-Light,Avenir" font-size="36.0" fill="#FEFFFF" transform="matrix(1.00, 0.00, -0.00, -1.00, 260.8, 229.2)">e</text><text xml:space="preserve" font-family="Avenir-Light,Avenir" font-size="36.0" fill="#FEFFFF" transform="matrix(1.00, 0.00, -0.00, -1.00, 280.8, 229.2)">l</text><text xml:space="preserve" font-family="Avenir-Light,Avenir" font-size="36.0" fill="#FEFFFF" transform="matrix(1.00, 0.00, -0.00, -1.00, 289.5, 229.2)">s</text><text xml:space="preserve" font-family="Avenir-Light,Avenir" font-size="36.0" fill="#FEFFFF" transform="matrix(1.00, 0.00, -0.00, -1.00, 304.8, 229.2)"> </text><text xml:space="preserve" font-family="Avenir-Light,Avenir" font-size="36.0" fill="#FEFFFF" transform="matrix(1.00, 0.00, -0.00, -1.00, 314.2, 229.2)">[</text><text xml:space="preserve" font-family="Avenir-Light,Avenir" font-size="36.0" fill="#FEFFFF" transform="matrix(1.00, 0.00, -0.00, -1.00, 323.5, 229.2)">…</text><text xml:space="preserve" font-family="Avenir-Light,Avenir" font-size="36.0" fill="#FEFFFF" transform="matrix(1.00, 0.00, -0.00, -1.00, 359.5, 229.2)">]</text><text xml:space="preserve" font-family="Avenir-Light,Avenir" font-size="36.0" fill="#FEFFFF" transform="matrix(1.00, 0.00, -0.00, -1.00, 368.9, 229.2)"> </text><text xml:space="preserve" font-family="Avenir-Light,Avenir" font-size="36.0" fill="#FEFFFF" transform="matrix(1.00, 0.00, -0.00, -1.00, 378.2, 229.2)">i</text><text xml:space="preserve" font-family="Avenir-Light,Avenir" font-size="36.0" fill="#FEFFFF" transform="matrix(1.00, 0.00, -0.00, -1.00, 386.9, 229.2)">t</text><text xml:space="preserve" font-family="Avenir-Light,Avenir" font-size="36.0" fill="#FEFFFF" transform="matrix(1.00, 0.00, -0.00, -1.00, 398.9, 229.2)"> </text><text xml:space="preserve" font-family="Avenir-Light,Avenir" font-size="36.0" fill="#FEFFFF" transform="matrix(1.00, 0.00, -0.00, -1.00, 408.2, 229.2)">l</text><text xml:space="preserve" font-family="Avenir-Light,Avenir" font-size="36.0" fill="#FEFFFF" transform="matrix(1.00, 0.00, -0.00, -1.00, 416.9, 229.2)">o</text><text xml:space="preserve" font-family="Avenir-Light,Avenir" font-size="36.0" fill="#FEFFFF" transform="matrix(1.00, 0.00, -0.00, -1.00, 438.2, 229.2)">o</text><text xml:space="preserve" font-family="Avenir-Light,Avenir" font-size="36.0" fill="#FEFFFF" transform="matrix(1.00, 0.00, -0.00, -1.00, 459.6, 229.2)">k</text><text xml:space="preserve" font-family="Avenir-Light,Avenir" font-size="36.0" fill="#FEFFFF" transform="matrix(1.00, 0.00, -0.00, -1.00, 476.9, 229.2)">s</text><text xml:space="preserve" font-family="Avenir-Light,Avenir" font-size="36.0" fill="#FEFFFF" transform="matrix(1.00, 0.00, -0.00, -1.00, 492.3, 229.2)"> </text><text xml:space="preserve" font-family="Avenir-Light,Avenir" font-size="36.0" fill="#FEFFFF" transform="matrix(1.00, 0.00, -0.00, -1.00, 501.6, 229.2)">v</text><text xml:space="preserve" font-family="Avenir-Light,Avenir" font-size="36.0" fill="#FEFFFF" transform="matrix(1.00, 0.00, -0.00, -1.00, 518.3, 229.2)">e</text><text xml:space="preserve" font-family="Avenir-Light,Avenir" font-size="36.0" fill="#FEFFFF" transform="matrix(1.00, 0.00, -0.00, -1.00, 538.3, 229.2)">r</text><text xml:space="preserve" font-family="Avenir-Light,Avenir" font-size="36.0" fill="#FEFFFF" transform="matrix(1.00, 0.00, -0.00, -1.00, 550.3, 229.2)">y</text><text xml:space="preserve" font-family="Avenir-Light,Avenir" font-size="36.0" fill="#FEFFFF" transform="matrix(1.00, 0.00, -0.00, -1.00, 567.0, 229.2)"> </text><text xml:space="preserve" font-family="Avenir-Light,Avenir" font-size="36.0" fill="#FEFFFF" transform="matrix(1.00, 0.00, -0.00, -1.00, 576.3, 229.2)">p</text><text xml:space="preserve" font-family="Avenir-Light,Avenir" font-size="36.0" fill="#FEFFFF" transform="matrix(1.00, 0.00, -0.00, -1.00, 598.3, 229.2)">r</text><text xml:space="preserve" font-family="Avenir-Light,Avenir" font-size="36.0" fill="#FEFFFF" transform="matrix(1.00, 0.00, -0.00, -1.00, 609.7, 229.2)">o</text><text xml:space="preserve" font-family="Avenir-Light,Avenir" font-size="36.0" fill="#FEFFFF" transform="matrix(1.00, 0.00, -0.00, -1.00, 631.1, 229.2)">m</text><text xml:space="preserve" font-family="Avenir-Light,Avenir" font-size="36.0" fill="#FEFFFF" transform="matrix(1.00, 0.00, -0.00, -1.00, 661.7, 229.2)">i</text><text xml:space="preserve" font-family="Avenir-Light,Avenir" font-size="36.0" fill="#FEFFFF" transform="matrix(1.00, 0.00, -0.00, -1.00, 670.4, 229.2)">s</text><text xml:space="preserve" font-family="Avenir-Light,Avenir" font-size="36.0" fill="#FEFFFF" transform="matrix(1.00, 0.00, -0.00, -1.00, 685.7, 229.2)">i</text><text xml:space="preserve" font-family="Avenir-Light,Avenir" font-size="36.0" fill="#FEFFFF" transform="matrix(1.00, 0.00, -0.00, -1.00, 694.4, 229.2)">n</text><text xml:space="preserve" font-family="Avenir-Light,Avenir" font-size="36.0" fill="#FEFFFF" transform="matrix(1.00, 0.00, -0.00, -1.00, 714.4, 229.2)">g</text><text xml:space="preserve" font-family="Avenir-Light,Avenir" font-size="36.0" fill="#FEFFFF" transform="matrix(1.00, 0.00, -0.00, -1.00, 736.4, 229.2)">.</text><text xml:space="preserve" font-family="Avenir-Light,Avenir" font-size="36.0" fill="#FEFFFF" transform="matrix(1.00, 0.00, -0.00, -1.00, 745.7, 229.2)">”</text><text xml:space="preserve" font-family="Avenir-Light,Avenir" font-size="30.0" fill="#FEFFFF" transform="matrix(1.00, 0.00, -0.00, -1.00, 56.0, 154.0)">—</text><text xml:space="preserve" font-family="Avenir-Light,Avenir" font-size="30.0" fill="#FEFFFF" transform="matrix(1.00, 0.00, -0.00, -1.00, 86.0, 154.0)"> </text><text xml:space="preserve" font-family="Avenir-Light,Avenir" font-size="30.0" fill="#FEFFFF" transform="matrix(1.00, 0.00, -0.00, -1.00, 93.8, 154.0)">M</text><text xml:space="preserve" font-family="Avenir-Light,Avenir" font-size="30.0" fill="#FEFFFF" transform="matrix(1.00, 0.00, -0.00, -1.00, 120.5, 154.0)">a</text><text xml:space="preserve" font-family="Avenir-Light,Avenir" font-size="30.0" fill="#FEFFFF" transform="matrix(1.00, 0.00, -0.00, -1.00, 136.0, 154.0)">r</text><text xml:space="preserve" font-family="Avenir-Light,Avenir" font-size="30.0" fill="#FEFFFF" transform="matrix(1.00, 0.00, -0.00, -1.00, 146.0, 154.0)">t</text><text xml:space="preserve" font-family="Avenir-Light,Avenir" font-size="30.0" fill="#FEFFFF" transform="matrix(1.00, 0.00, -0.00, -1.00, 156.0, 154.0)">i</text><text xml:space="preserve" font-family="Avenir-Light,Avenir" font-size="30.0" fill="#FEFFFF" transform="matrix(1.00, 0.00, -0.00, -1.00, 163.2, 154.0)">n</text><text xml:space="preserve" font-family="Avenir-Light,Avenir" font-size="30.0" fill="#FEFFFF" transform="matrix(1.00, 0.00, -0.00, -1.00, 179.9, 154.0)"> </text><text xml:space="preserve" font-family="Avenir-Light,Avenir" font-size="30.0" fill="#FEFFFF" transform="matrix(1.00, 0.00, -0.00, -1.00, 187.7, 154.0)">F</text><text xml:space="preserve" font-family="Avenir-Light,Avenir" font-size="30.0" fill="#FEFFFF" transform="matrix(1.00, 0.00, -0.00, -1.00, 204.4, 154.0)">o</text><text xml:space="preserve" font-family="Avenir-Light,Avenir" font-size="30.0" fill="#FEFFFF" transform="matrix(1.00, 0.00, -0.00, -1.00, 222.2, 154.0)">w</text><text xml:space="preserve" font-family="Avenir-Light,Avenir" font-size="30.0" fill="#FEFFFF" transform="matrix(1.00, 0.00, -0.00, -1.00, 243.3, 154.0)">l</text><text xml:space="preserve" font-family="Avenir-Light,Avenir" font-size="30.0" fill="#FEFFFF" transform="matrix(1.00, 0.00, -0.00, -1.00, 250.5, 154.0)">e</text><text xml:space="preserve" font-family="Avenir-Light,Avenir" font-size="30.0" fill="#FEFFFF" transform="matrix(1.00, 0.00, -0.00, -1.00, 267.2, 154.0)">r</text><text xml:space="preserve" font-family="Avenir-Light,Avenir" font-size="30.0" fill="#FEFFFF" transform="matrix(1.00, 0.00, -0.00, -1.00, 274.5, 154.0)">,</text><text xml:space="preserve" font-family="Avenir-Light,Avenir" font-size="30.0" fill="#FEFFFF" transform="matrix(1.00, 0.00, -0.00, -1.00, 282.3, 154.0)"> </text><text xml:space="preserve" font-family="Avenir-Light,Avenir" font-size="30.0" fill="#FEFFFF" transform="matrix(1.00, 0.00, -0.00, -1.00, 290.1, 154.0)">2</text><text xml:space="preserve" font-family="Avenir-Light,Avenir" font-size="30.0" fill="#FEFFFF" transform="matrix(1.00, 0.00, -0.00, -1.00, 305.7, 154.0)">0</text><text xml:space="preserve" font-family="Avenir-Light,Avenir" font-size="30.0" fill="#FEFFFF" transform="matrix(1.00, 0.00, -0.00, -1.00, 321.3, 154.0)">0</text><text xml:space="preserve" font-family="Avenir-Light,Avenir" font-size="30.0" fill="#FEFFFF" transform="matrix(1.00, 0.00, -0.00, -1.00, 336.9, 154.0)">2</text><text xml:space="preserve" font-family="Avenir-Light,Avenir" font-size="45.0" fill="#FEFFFF" transform="matrix(1.00, 0.00, -0.00, -1.00, 74.0, 671.5)">E</text><text xml:space="preserve" font-family="Avenir-Light,Avenir" font-size="45.0" fill="#FEFFFF" transform="matrix(1.00, 0.00, -0.00, -1.00, 107.9, 671.5)">V</text><text xml:space="preserve" font-family="Avenir-Light,Avenir" font-size="45.0" fill="#FEFFFF" transform="matrix(1.00, 0.00, -0.00, -1.00, 141.8, 671.5)">E</text><text xml:space="preserve" font-family="Avenir-Light,Avenir" font-size="45.0" fill="#FEFFFF" transform="matrix(1.00, 0.00, -0.00, -1.00, 175.7, 671.5)">R</text><text xml:space="preserve" font-family="Avenir-Light,Avenir" font-size="45.0" fill="#FEFFFF" transform="matrix(1.00, 0.00, -0.00, -1.00, 209.0, 671.5)">Y</text><text xml:space="preserve" font-family="Avenir-Light,Avenir" font-size="45.0" fill="#FEFFFF" transform="matrix(1.00, 0.00, -0.00, -1.00, 242.0, 671.5)">T</text><text xml:space="preserve" font-family="Avenir-Light,Avenir" font-size="45.0" fill="#FEFFFF" transform="matrix(1.00, 0.00, -0.00, -1.00, 275.0, 671.5)">H</text><text xml:space="preserve" font-family="Avenir-Light,Avenir" font-size="45.0" fill="#FEFFFF" transform="matrix(1.00, 0.00, -0.00, -1.00, 314.7, 671.5)">I</text><text xml:space="preserve" font-family="Avenir-Light,Avenir" font-size="45.0" fill="#FEFFFF" transform="matrix(1.00, 0.00, -0.00, -1.00, 333.6, 671.5)">N</text><text xml:space="preserve" font-family="Avenir-Light,Avenir" font-size="45.0" fill="#FEFFFF" transform="matrix(1.00, 0.00, -0.00, -1.00, 375.8, 671.5)">G</text><text xml:space="preserve" font-family="Avenir-Light,Avenir" font-size="45.0" fill="#FEFFFF" transform="matrix(1.00, 0.00, -0.00, -1.00, 418.0, 671.5)"> </text><text xml:space="preserve" font-family="Avenir-Light,Avenir" font-size="45.0" fill="#FEFFFF" transform="matrix(1.00, 0.00, -0.00, -1.00, 436.9, 671.5)">I</text><text xml:space="preserve" font-family="Avenir-Light,Avenir" font-size="45.0" fill="#FEFFFF" transform="matrix(1.00, 0.00, -0.00, -1.00, 455.8, 671.5)">S</text><text xml:space="preserve" font-family="Avenir-Light,Avenir" font-size="45.0" fill="#FEFFFF" transform="matrix(1.00, 0.00, -0.00, -1.00, 488.0, 671.5)"> </text><text xml:space="preserve" font-family="Avenir-Light,Avenir" font-size="45.0" fill="#FEFFFF" transform="matrix(1.00, 0.00, -0.00, -1.00, 506.9, 671.5)">A</text><text xml:space="preserve" font-family="Avenir-Light,Avenir" font-size="45.0" fill="#FEFFFF" transform="matrix(1.00, 0.00, -0.00, -1.00, 545.0, 671.5)">N</text><text xml:space="preserve" font-family="Avenir-Light,Avenir" font-size="45.0" fill="#FEFFFF" transform="matrix(1.00, 0.00, -0.00, -1.00, 587.2, 671.5)"> </text><text xml:space="preserve" font-family="Avenir-Light,Avenir" font-size="45.0" fill="#FEFFFF" transform="matrix(1.00, 0.00, -0.00, -1.00, 606.1, 671.5)">O</text><text xml:space="preserve" font-family="Avenir-Light,Avenir" font-size="45.0" fill="#FEFFFF" transform="matrix(1.00, 0.00, -0.00, -1.00, 650.8, 671.5)">B</text><text xml:space="preserve" font-family="Avenir-Light,Avenir" font-size="45.0" fill="#FEFFFF" transform="matrix(1.00, 0.00, -0.00, -1.00, 686.4, 671.5)">J</text><text xml:space="preserve" font-family="Avenir-Light,Avenir" font-size="45.0" fill="#FEFFFF" transform="matrix(1.00, 0.00, -0.00, -1.00, 715.2, 671.5)">E</text><text xml:space="preserve" font-family="Avenir-Light,Avenir" font-size="45.0" fill="#FEFFFF" transform="matrix(1.00, 0.00, -0.00, -1.00, 749.1, 671.5)">C</text><text xml:space="preserve" font-family="Avenir-Light,Avenir" font-size="45.0" fill="#FEFFFF" transform="matrix(1.00, 0.00, -0.00, -1.00, 788.0, 671.5)">T</text></g></svg>