<?xml version="1.0" encoding="UTF-8"?><svg xmlns="http://www.w3.org/2000/svg" xmlns:xlink="http://www.w3.org/1999/xlink" clip-rule="evenodd" stroke-miterlimit="10" viewBox="0 0 145 58"><desc>SVG generated by Keynote</desc><defs></defs><g transform="matrix(1.00, 0.00, -0.00, -1.00, 0.0, 58.0)"><text xml:space="preserve" font-family="Avenir-Light,Avenir" font-size="23.0" fill="#FEFFFF" transform="matrix(1.00, 0.00, -0.00, -1.00, 1.3, 38.7)">a</text><text xml:space="preserve" font-family="Avenir-Light,Avenir" font-size="23.0" fill="#FEFFFF" transform="matrix(1.00, 0.00, -0.00, -1.00, 13.2, 38.7)">c</text><text xml:space="preserve" font-family="Avenir-Light,Avenir" font-size="23.0" fill="#FEFFFF" transform="matrix(1.00, 0.00, -0.00, -1.00, 24.3, 38.7)">c</text><text xml:space="preserve" font-family="Avenir-Light,Avenir" font-size="23.0" fill="#FEFFFF" transform="matrix(1.00, 0.00, -0.00, -1.00, 35.4, 38.7)">o</text><text xml:space="preserve" font-family="Avenir-Light,Avenir" font-size="23.0" fill="#FEFFFF" transform="matrix(1.00, 0.00, -0.00, -1.00, 49.0, 38.7)">m</text><text xml:space="preserve" font-family="Avenir-Light,Avenir" font-size="23.0" fill="#FEFFFF" transform="matrix(1.00, 0.00, -0.00, -1.00, 68.6, 38.7)">p</text><text xml:space="preserve" font-family="Avenir-Light,Avenir" font-size="23.0" fill="#FEFFFF" transform="matrix(1.00, 0.00, -0.00, -1.00, 82.7, 38.7)">l</text><text xml:space="preserve" font-family="Avenir-Light,Avenir" font-size="23.0" fill="#FEFFFF" transform="matrix(1.00, 0.00, -0.00, -1.00, 88.2, 38.7)">i</text><text xml:space="preserve" font-family="Avenir-Light,Avenir" font-size="23.0" fill="#FEFFFF" transform="matrix(1.00, 0.00, -0.00, -1.00, 93.7, 38.7)">s</text><text xml:space="preserve" font-family="Avenir-Light,Avenir" font-size="23.0" fill="#FEFFFF" transform="matrix(1.00, 0.00, -0.00, -1.00, 103.5, 38.7)">h</text><text xml:space="preserve" font-family="Avenir-Light,Avenir" font-size="23.0" fill="#FEFFFF" transform="matrix(1.00, 0.00, -0.00, -1.00, 116.3, 38.7)">e</text><text xml:space="preserve" font-family="Avenir-Light,Avenir" font-size="23.0" fill="#FEFFFF" transform="matrix(1.00, 0.00, -0.00, -1.00, 129.1, 38.7)">d</text><text xml:space="preserve" font-family="Avenir-Light,Avenir" font-size="23.0" fill="#FEFFFF" transform="matrix(1.00, 0.00, -0.00, -1.00, 143.2, 38.7)"> </text><text xml:space="preserve" font-family="Avenir-Light,Avenir" font-size="23.0" fill="#FEFFFF" transform="matrix(1.00, 0.00, -0.00, -1.00, 4.9, 7.7)">r</text><text xml:space="preserve" font-family="Avenir-Light,Avenir" font-size="23.0" fill="#FEFFFF" transform="matrix(1.00, 0.00, -0.00, -1.00, 12.2, 7.7)">e</text><text xml:space="preserve" font-family="Avenir-Light,Avenir" font-size="23.0" fill="#FEFFFF" transform="matrix(1.00, 0.00, -0.00, -1.00, 25.0, 7.7)">s</text><text xml:space="preserve" font-family="Avenir-Light,Avenir" font-size="23.0" fill="#FEFFFF" transform="matrix(1.00, 0.00, -0.00, -1.00, 34.8, 7.7)">p</text><text xml:space="preserve" font-family="Avenir-Light,Avenir" font-size="23.0" fill="#FEFFFF" transform="matrix(1.00, 0.00, -0.00, -1.00, 48.8, 7.7)">o</text><text xml:space="preserve" font-family="Avenir-Light,Avenir" font-size="23.0" fill="#FEFFFF" transform="matrix(1.00, 0.00, -0.00, -1.00, 62.5, 7.7)">n</text><text xml:space="preserve" font-family="Avenir-Light,Avenir" font-size="23.0" fill="#FEFFFF" transform="matrix(1.00, 0.00, -0.00, -1.00, 75.3, 7.7)">s</text><text xml:space="preserve" font-family="Avenir-Light,Avenir" font-size="23.0" fill="#FEFFFF" transform="matrix(1.00, 0.00, -0.00, -1.00, 85.1, 7.7)">i</text><text xml:space="preserve" font-family="Avenir-Light,Avenir" font-size="23.0" fill="#FEFFFF" transform="matrix(1.00, 0.00, -0.00, -1.00, 90.6, 7.7)">b</text><text xml:space="preserve" font-family="Avenir-Light,Avenir" font-size="23.0" fill="#FEFFFF" transform="matrix(1.00, 0.00, -0.00, -1.00, 104.6, 7.7)">i</text><text xml:space="preserve" font-family="Avenir-Light,Avenir" font-size="23.0" fill="#FEFFFF" transform="matrix(1.00, 0.00, -0.00, -1.00, 110.2, 7.7)">l</text><text xml:space="preserve" font-family="Avenir-Light,Avenir" font-size="23.0" fill="#FEFFFF" transform="matrix(1.00, 0.00, -0.00, -1.00, 115.7, 7.7)">i</text><text xml:space="preserve" font-family="Avenir-Light,Avenir" font-size="23.0" fill="#FEFFFF" transform="matrix(1.00, 0.00, -0.00, -1.00, 121.2, 7.7)">t</text><text xml:space="preserve" font-family="Avenir-Light,Avenir" font-size="23.0" fill="#FEFFFF" transform="matrix(1.00, 0.00, -0.00, -1.00, 128.9, 7.7)">y</text></g></svg>