<?xml version="1.0" encoding="UTF-8"?><svg xmlns="http://www.w3.org/2000/svg" xmlns:xlink="http://www.w3.org/1999/xlink" clip-rule="evenodd" stroke-miterlimit="10" viewBox="0 0 1024 768"><desc>SVG generated by Keynote</desc><defs></defs><g transform="matrix(1.00, 0.00, -0.00, -1.00, 0.0, 768.0)"><path d="M 0.0 0.0 L 1024.0 0.0 L 1024.0 768.0 L 0.0 768.0 Z M 0.0 0.0 " fill="#000000"></path><text xml:space="preserve" font-family="Avenir-Light,Avenir" font-size="43.2" fill="#FEFFFF" transform="matrix(1.00, 0.00, -0.00, -1.00, 74.0, 672.8)">E</text><text xml:space="preserve" font-family="Avenir-Light,Avenir" font-size="43.2" fill="#FEFFFF" transform="matrix(1.00, 0.00, -0.00, -1.00, 106.5, 672.8)">V</text><text xml:space="preserve" font-family="Avenir-Light,Avenir" font-size="43.2" fill="#FEFFFF" transform="matrix(1.00, 0.00, -0.00, -1.00, 139.1, 672.8)">E</text><text xml:space="preserve" font-family="Avenir-Light,Avenir" font-size="43.2" fill="#FEFFFF" transform="matrix(1.00, 0.00, -0.00, -1.00, 171.6, 672.8)">N</text><text xml:space="preserve" font-family="Avenir-Light,Avenir" font-size="43.2" fill="#FEFFFF" transform="matrix(1.00, 0.00, -0.00, -1.00, 212.1, 672.8)">T</text><text xml:space="preserve" font-family="Avenir-Light,Avenir" font-size="43.2" fill="#FEFFFF" transform="matrix(1.00, 0.00, -0.00, -1.00, 243.8, 672.8)">S</text><text xml:space="preserve" font-family="Avenir-Light,Avenir" font-size="43.2" fill="#FEFFFF" transform="matrix(1.00, 0.00, -0.00, -1.00, 274.8, 672.8)"> </text><text xml:space="preserve" font-family="Avenir-Light,Avenir" font-size="43.2" fill="#FEFFFF" transform="matrix(1.00, 0.00, -0.00, -1.00, 292.9, 672.8)">I</text><text xml:space="preserve" font-family="Avenir-Light,Avenir" font-size="43.2" fill="#FEFFFF" transform="matrix(1.00, 0.00, -0.00, -1.00, 311.0, 672.8)">N</text><text xml:space="preserve" font-family="Avenir-Light,Avenir" font-size="43.2" fill="#FEFFFF" transform="matrix(1.00, 0.00, -0.00, -1.00, 351.6, 672.8)"> </text><text xml:space="preserve" font-family="Avenir-Light,Avenir" font-size="43.2" fill="#FEFFFF" transform="matrix(1.00, 0.00, -0.00, -1.00, 369.7, 672.8)">D</text><text xml:space="preserve" font-family="Avenir-Light,Avenir" font-size="43.2" fill="#FEFFFF" transform="matrix(1.00, 0.00, -0.00, -1.00, 408.6, 672.8)">I</text><text xml:space="preserve" font-family="Avenir-Light,Avenir" font-size="43.2" fill="#FEFFFF" transform="matrix(1.00, 0.00, -0.00, -1.00, 426.8, 672.8)">S</text><text xml:space="preserve" font-family="Avenir-Light,Avenir" font-size="43.2" fill="#FEFFFF" transform="matrix(1.00, 0.00, -0.00, -1.00, 457.7, 672.8)">T</text><text xml:space="preserve" font-family="Avenir-Light,Avenir" font-size="43.2" fill="#FEFFFF" transform="matrix(1.00, 0.00, -0.00, -1.00, 489.4, 672.8)">R</text><text xml:space="preserve" font-family="Avenir-Light,Avenir" font-size="43.2" fill="#FEFFFF" transform="matrix(1.00, 0.00, -0.00, -1.00, 521.9, 672.8)">I</text><text xml:space="preserve" font-family="Avenir-Light,Avenir" font-size="43.2" fill="#FEFFFF" transform="matrix(1.00, 0.00, -0.00, -1.00, 540.1, 672.8)">B</text><text xml:space="preserve" font-family="Avenir-Light,Avenir" font-size="43.2" fill="#FEFFFF" transform="matrix(1.00, 0.00, -0.00, -1.00, 574.2, 672.8)">U</text><text xml:space="preserve" font-family="Avenir-Light,Avenir" font-size="43.2" fill="#FEFFFF" transform="matrix(1.00, 0.00, -0.00, -1.00, 610.7, 672.8)">T</text><text xml:space="preserve" font-family="Avenir-Light,Avenir" font-size="43.2" fill="#FEFFFF" transform="matrix(1.00, 0.00, -0.00, -1.00, 642.4, 672.8)">E</text><text xml:space="preserve" font-family="Avenir-Light,Avenir" font-size="43.2" fill="#FEFFFF" transform="matrix(1.00, 0.00, -0.00, -1.00, 674.9, 672.8)">D</text><text xml:space="preserve" font-family="Avenir-Light,Avenir" font-size="43.2" fill="#FEFFFF" transform="matrix(1.00, 0.00, -0.00, -1.00, 713.8, 672.8)"> </text><text xml:space="preserve" font-family="Avenir-Light,Avenir" font-size="43.2" fill="#FEFFFF" transform="matrix(1.00, 0.00, -0.00, -1.00, 732.0, 672.8)">S</text><text xml:space="preserve" font-family="Avenir-Light,Avenir" font-size="43.2" fill="#FEFFFF" transform="matrix(1.00, 0.00, -0.00, -1.00, 762.9, 672.8)">Y</text><text xml:space="preserve" font-family="Avenir-Light,Avenir" font-size="43.2" fill="#FEFFFF" transform="matrix(1.00, 0.00, -0.00, -1.00, 794.6, 672.8)">S</text><text xml:space="preserve" font-family="Avenir-Light,Avenir" font-size="43.2" fill="#FEFFFF" transform="matrix(1.00, 0.00, -0.00, -1.00, 825.6, 672.8)">T</text><text xml:space="preserve" font-family="Avenir-Light,Avenir" font-size="43.2" fill="#FEFFFF" transform="matrix(1.00, 0.00, -0.00, -1.00, 857.3, 672.8)">E</text><text xml:space="preserve" font-family="Avenir-Light,Avenir" font-size="43.2" fill="#FEFFFF" transform="matrix(1.00, 0.00, -0.00, -1.00, 889.8, 672.8)">M</text><text xml:space="preserve" font-family="Avenir-Light,Avenir" font-size="43.2" fill="#FEFFFF" transform="matrix(1.00, 0.00, -0.00, -1.00, 935.1, 672.8)">S</text></g></svg>