<?xml version="1.0" encoding="UTF-8"?><svg xmlns="http://www.w3.org/2000/svg" xmlns:xlink="http://www.w3.org/1999/xlink" clip-rule="evenodd" stroke-miterlimit="10" viewBox="0 0 142 57"><desc>SVG generated by Keynote</desc><defs></defs><g transform="matrix(1.00, 0.00, -0.00, -1.00, 0.0, 57.0)"><text xml:space="preserve" font-family="Avenir-Light,Avenir" font-size="23.0" fill="#FEFFFF" transform="matrix(1.00, 0.00, -0.00, -1.00, 23.4, 37.7)">c</text><text xml:space="preserve" font-family="Avenir-Light,Avenir" font-size="23.0" fill="#FEFFFF" transform="matrix(1.00, 0.00, -0.00, -1.00, 34.5, 37.7)">o</text><text xml:space="preserve" font-family="Avenir-Light,Avenir" font-size="23.0" fill="#FEFFFF" transform="matrix(1.00, 0.00, -0.00, -1.00, 48.2, 37.7)">l</text><text xml:space="preserve" font-family="Avenir-Light,Avenir" font-size="23.0" fill="#FEFFFF" transform="matrix(1.00, 0.00, -0.00, -1.00, 53.7, 37.7)">l</text><text xml:space="preserve" font-family="Avenir-Light,Avenir" font-size="23.0" fill="#FEFFFF" transform="matrix(1.00, 0.00, -0.00, -1.00, 59.2, 37.7)">e</text><text xml:space="preserve" font-family="Avenir-Light,Avenir" font-size="23.0" fill="#FEFFFF" transform="matrix(1.00, 0.00, -0.00, -1.00, 72.0, 37.7)">c</text><text xml:space="preserve" font-family="Avenir-Light,Avenir" font-size="23.0" fill="#FEFFFF" transform="matrix(1.00, 0.00, -0.00, -1.00, 83.1, 37.7)">t</text><text xml:space="preserve" font-family="Avenir-Light,Avenir" font-size="23.0" fill="#FEFFFF" transform="matrix(1.00, 0.00, -0.00, -1.00, 90.8, 37.7)">i</text><text xml:space="preserve" font-family="Avenir-Light,Avenir" font-size="23.0" fill="#FEFFFF" transform="matrix(1.00, 0.00, -0.00, -1.00, 96.3, 37.7)">v</text><text xml:space="preserve" font-family="Avenir-Light,Avenir" font-size="23.0" fill="#FEFFFF" transform="matrix(1.00, 0.00, -0.00, -1.00, 106.9, 37.7)">e</text><text xml:space="preserve" font-family="Avenir-Light,Avenir" font-size="23.0" fill="#FEFFFF" transform="matrix(1.00, 0.00, -0.00, -1.00, 119.7, 37.7)"> </text><text xml:space="preserve" font-family="Avenir-Light,Avenir" font-size="23.0" fill="#FEFFFF" transform="matrix(1.00, 0.00, -0.00, -1.00, 1.5, 6.7)">a</text><text xml:space="preserve" font-family="Avenir-Light,Avenir" font-size="23.0" fill="#FEFFFF" transform="matrix(1.00, 0.00, -0.00, -1.00, 13.4, 6.7)">p</text><text xml:space="preserve" font-family="Avenir-Light,Avenir" font-size="23.0" fill="#FEFFFF" transform="matrix(1.00, 0.00, -0.00, -1.00, 27.5, 6.7)">p</text><text xml:space="preserve" font-family="Avenir-Light,Avenir" font-size="23.0" fill="#FEFFFF" transform="matrix(1.00, 0.00, -0.00, -1.00, 41.5, 6.7)">r</text><text xml:space="preserve" font-family="Avenir-Light,Avenir" font-size="23.0" fill="#FEFFFF" transform="matrix(1.00, 0.00, -0.00, -1.00, 48.8, 6.7)">e</text><text xml:space="preserve" font-family="Avenir-Light,Avenir" font-size="23.0" fill="#FEFFFF" transform="matrix(1.00, 0.00, -0.00, -1.00, 61.6, 6.7)">h</text><text xml:space="preserve" font-family="Avenir-Light,Avenir" font-size="23.0" fill="#FEFFFF" transform="matrix(1.00, 0.00, -0.00, -1.00, 74.3, 6.7)">e</text><text xml:space="preserve" font-family="Avenir-Light,Avenir" font-size="23.0" fill="#FEFFFF" transform="matrix(1.00, 0.00, -0.00, -1.00, 87.1, 6.7)">n</text><text xml:space="preserve" font-family="Avenir-Light,Avenir" font-size="23.0" fill="#FEFFFF" transform="matrix(1.00, 0.00, -0.00, -1.00, 99.9, 6.7)">s</text><text xml:space="preserve" font-family="Avenir-Light,Avenir" font-size="23.0" fill="#FEFFFF" transform="matrix(1.00, 0.00, -0.00, -1.00, 109.7, 6.7)">i</text><text xml:space="preserve" font-family="Avenir-Light,Avenir" font-size="23.0" fill="#FEFFFF" transform="matrix(1.00, 0.00, -0.00, -1.00, 115.2, 6.7)">o</text><text xml:space="preserve" font-family="Avenir-Light,Avenir" font-size="23.0" fill="#FEFFFF" transform="matrix(1.00, 0.00, -0.00, -1.00, 128.9, 6.7)">n</text></g></svg>