<?xml version="1.0" encoding="UTF-8"?><svg xmlns="http://www.w3.org/2000/svg" xmlns:xlink="http://www.w3.org/1999/xlink" clip-rule="evenodd" stroke-miterlimit="10" viewBox="0 0 381 36"><desc>SVG generated by Keynote</desc><defs></defs><g transform="matrix(1.00, 0.00, -0.00, -1.00, 0.0, 36.0)"><text xml:space="preserve" font-family="Avenir-Light,Avenir" font-size="25.7" fill="#646363" transform="matrix(1.00, 0.00, -0.00, -1.00, 0.0, 9.9)">•</text><text xml:space="preserve" font-family="Avenir-Light,Avenir" font-size="28.5" fill="#FEFFFF" transform="matrix(1.00, 0.00, -0.00, -1.00, 29.3, 8.9)">A</text><text xml:space="preserve" font-family="Avenir-Light,Avenir" font-size="28.5" fill="#FEFFFF" transform="matrix(1.00, 0.00, -0.00, -1.00, 48.8, 8.9)">C</text><text xml:space="preserve" font-family="Avenir-Light,Avenir" font-size="28.5" fill="#FEFFFF" transform="matrix(1.00, 0.00, -0.00, -1.00, 68.9, 8.9)">I</text><text xml:space="preserve" font-family="Avenir-Light,Avenir" font-size="28.5" fill="#FEFFFF" transform="matrix(1.00, 0.00, -0.00, -1.00, 76.3, 8.9)">D</text><text xml:space="preserve" font-family="Avenir-Light,Avenir" font-size="28.5" fill="#FEFFFF" transform="matrix(1.00, 0.00, -0.00, -1.00, 97.4, 8.9)"> </text><text xml:space="preserve" font-family="Avenir-Light,Avenir" font-size="28.5" fill="#FEFFFF" transform="matrix(1.00, 0.00, -0.00, -1.00, 104.8, 8.9)">d</text><text xml:space="preserve" font-family="Avenir-Light,Avenir" font-size="28.5" fill="#FEFFFF" transform="matrix(1.00, 0.00, -0.00, -1.00, 122.2, 8.9)">a</text><text xml:space="preserve" font-family="Avenir-Light,Avenir" font-size="28.5" fill="#FEFFFF" transform="matrix(1.00, 0.00, -0.00, -1.00, 137.0, 8.9)">t</text><text xml:space="preserve" font-family="Avenir-Light,Avenir" font-size="28.5" fill="#FEFFFF" transform="matrix(1.00, 0.00, -0.00, -1.00, 146.5, 8.9)">a</text><text xml:space="preserve" font-family="Avenir-Light,Avenir" font-size="28.5" fill="#FEFFFF" transform="matrix(1.00, 0.00, -0.00, -1.00, 161.3, 8.9)">b</text><text xml:space="preserve" font-family="Avenir-Light,Avenir" font-size="28.5" fill="#FEFFFF" transform="matrix(1.00, 0.00, -0.00, -1.00, 178.7, 8.9)">a</text><text xml:space="preserve" font-family="Avenir-Light,Avenir" font-size="28.5" fill="#FEFFFF" transform="matrix(1.00, 0.00, -0.00, -1.00, 193.5, 8.9)">s</text><text xml:space="preserve" font-family="Avenir-Light,Avenir" font-size="28.5" fill="#FEFFFF" transform="matrix(1.00, 0.00, -0.00, -1.00, 205.6, 8.9)">e</text><text xml:space="preserve" font-family="Avenir-Light,Avenir" font-size="28.5" fill="#FEFFFF" transform="matrix(1.00, 0.00, -0.00, -1.00, 221.5, 8.9)"> </text><text xml:space="preserve" font-family="Avenir-Light,Avenir" font-size="28.5" fill="#FEFFFF" transform="matrix(1.00, 0.00, -0.00, -1.00, 228.9, 8.9)">t</text><text xml:space="preserve" font-family="Avenir-Light,Avenir" font-size="28.5" fill="#FEFFFF" transform="matrix(1.00, 0.00, -0.00, -1.00, 238.4, 8.9)">r</text><text xml:space="preserve" font-family="Avenir-Light,Avenir" font-size="28.5" fill="#FEFFFF" transform="matrix(1.00, 0.00, -0.00, -1.00, 247.9, 8.9)">a</text><text xml:space="preserve" font-family="Avenir-Light,Avenir" font-size="28.5" fill="#FEFFFF" transform="matrix(1.00, 0.00, -0.00, -1.00, 262.7, 8.9)">n</text><text xml:space="preserve" font-family="Avenir-Light,Avenir" font-size="28.5" fill="#FEFFFF" transform="matrix(1.00, 0.00, -0.00, -1.00, 278.5, 8.9)">s</text><text xml:space="preserve" font-family="Avenir-Light,Avenir" font-size="28.5" fill="#FEFFFF" transform="matrix(1.00, 0.00, -0.00, -1.00, 290.7, 8.9)">a</text><text xml:space="preserve" font-family="Avenir-Light,Avenir" font-size="28.5" fill="#FEFFFF" transform="matrix(1.00, 0.00, -0.00, -1.00, 305.5, 8.9)">c</text><text xml:space="preserve" font-family="Avenir-Light,Avenir" font-size="28.5" fill="#FEFFFF" transform="matrix(1.00, 0.00, -0.00, -1.00, 319.2, 8.9)">t</text><text xml:space="preserve" font-family="Avenir-Light,Avenir" font-size="28.5" fill="#FEFFFF" transform="matrix(1.00, 0.00, -0.00, -1.00, 328.7, 8.9)">i</text><text xml:space="preserve" font-family="Avenir-Light,Avenir" font-size="28.5" fill="#FEFFFF" transform="matrix(1.00, 0.00, -0.00, -1.00, 335.5, 8.9)">o</text><text xml:space="preserve" font-family="Avenir-Light,Avenir" font-size="28.5" fill="#FEFFFF" transform="matrix(1.00, 0.00, -0.00, -1.00, 352.5, 8.9)">n</text><text xml:space="preserve" font-family="Avenir-Light,Avenir" font-size="28.5" fill="#FEFFFF" transform="matrix(1.00, 0.00, -0.00, -1.00, 368.3, 8.9)">s</text></g></svg>