<?xml version="1.0" encoding="UTF-8"?><svg xmlns="http://www.w3.org/2000/svg" xmlns:xlink="http://www.w3.org/1999/xlink" clip-rule="evenodd" stroke-miterlimit="10" viewBox="0 0 835 69"><desc>SVG generated by Keynote</desc><defs></defs><g transform="matrix(1.00, 0.00, -0.00, -1.00, 0.0, 69.0)"><text xml:space="preserve" font-family="Avenir-Heavy,Avenir" font-weight="bold" font-size="27.3" fill="#FEFFFF" transform="matrix(1.00, 0.00, -0.00, -1.00, 0.0, 46.1)">d</text><text xml:space="preserve" font-family="Avenir-Heavy,Avenir" font-weight="bold" font-size="27.3" fill="#FEFFFF" transform="matrix(1.00, 0.00, -0.00, -1.00, 17.2, 46.1)">e</text><text xml:space="preserve" font-family="Avenir-Heavy,Avenir" font-weight="bold" font-size="27.3" fill="#FEFFFF" transform="matrix(1.00, 0.00, -0.00, -1.00, 32.9, 46.1)">c</text><text xml:space="preserve" font-family="Avenir-Heavy,Avenir" font-weight="bold" font-size="27.3" fill="#FEFFFF" transform="matrix(1.00, 0.00, -0.00, -1.00, 46.0, 46.1)">i</text><text xml:space="preserve" font-family="Avenir-Heavy,Avenir" font-weight="bold" font-size="27.3" fill="#FEFFFF" transform="matrix(1.00, 0.00, -0.00, -1.00, 53.1, 46.1)">s</text><text xml:space="preserve" font-family="Avenir-Heavy,Avenir" font-weight="bold" font-size="27.3" fill="#FEFFFF" transform="matrix(1.00, 0.00, -0.00, -1.00, 65.2, 46.1)">i</text><text xml:space="preserve" font-family="Avenir-Heavy,Avenir" font-weight="bold" font-size="27.3" fill="#FEFFFF" transform="matrix(1.00, 0.00, -0.00, -1.00, 72.3, 46.1)">o</text><text xml:space="preserve" font-family="Avenir-Heavy,Avenir" font-weight="bold" font-size="27.3" fill="#FEFFFF" transform="matrix(1.00, 0.00, -0.00, -1.00, 89.0, 46.1)">n</text><text xml:space="preserve" font-family="Avenir-Light,Avenir" font-size="27.3" fill="#FEFFFF" transform="matrix(1.00, 0.00, -0.00, -1.00, 104.7, 46.1)"> </text><text xml:space="preserve" font-family="Avenir-Light,Avenir" font-size="27.3" fill="#FEFFFF" transform="matrix(1.00, 0.00, -0.00, -1.00, 111.8, 46.1)">i</text><text xml:space="preserve" font-family="Avenir-Light,Avenir" font-size="27.3" fill="#FEFFFF" transform="matrix(1.00, 0.00, -0.00, -1.00, 118.3, 46.1)">n</text><text xml:space="preserve" font-family="Avenir-Light,Avenir" font-size="27.3" fill="#FEFFFF" transform="matrix(1.00, 0.00, -0.00, -1.00, 133.5, 46.1)"> </text><text xml:space="preserve" font-family="Avenir-Light,Avenir" font-size="27.3" fill="#FEFFFF" transform="matrix(1.00, 0.00, -0.00, -1.00, 140.6, 46.1)">t</text><text xml:space="preserve" font-family="Avenir-Light,Avenir" font-size="27.3" fill="#FEFFFF" transform="matrix(1.00, 0.00, -0.00, -1.00, 149.7, 46.1)">h</text><text xml:space="preserve" font-family="Avenir-Light,Avenir" font-size="27.3" fill="#FEFFFF" transform="matrix(1.00, 0.00, -0.00, -1.00, 164.9, 46.1)">e</text><text xml:space="preserve" font-family="Avenir-Light,Avenir" font-size="27.3" fill="#FEFFFF" transform="matrix(1.00, 0.00, -0.00, -1.00, 180.1, 46.1)"> </text><text xml:space="preserve" font-family="Avenir-Light,Avenir" font-size="27.3" fill="#FEFFFF" transform="matrix(1.00, 0.00, -0.00, -1.00, 187.2, 46.1)">f</text><text xml:space="preserve" font-family="Avenir-Light,Avenir" font-size="27.3" fill="#FEFFFF" transform="matrix(1.00, 0.00, -0.00, -1.00, 195.2, 46.1)">o</text><text xml:space="preserve" font-family="Avenir-Light,Avenir" font-size="27.3" fill="#FEFFFF" transform="matrix(1.00, 0.00, -0.00, -1.00, 211.5, 46.1)">r</text><text xml:space="preserve" font-family="Avenir-Light,Avenir" font-size="27.3" fill="#FEFFFF" transform="matrix(1.00, 0.00, -0.00, -1.00, 220.6, 46.1)">m</text><text xml:space="preserve" font-family="Avenir-Light,Avenir" font-size="27.3" fill="#FEFFFF" transform="matrix(1.00, 0.00, -0.00, -1.00, 243.8, 46.1)"> </text><text xml:space="preserve" font-family="Avenir-Light,Avenir" font-size="27.3" fill="#FEFFFF" transform="matrix(1.00, 0.00, -0.00, -1.00, 250.9, 46.1)">o</text><text xml:space="preserve" font-family="Avenir-Light,Avenir" font-size="27.3" fill="#FEFFFF" transform="matrix(1.00, 0.00, -0.00, -1.00, 267.1, 46.1)">f</text><text xml:space="preserve" font-family="Avenir-Light,Avenir" font-size="27.3" fill="#FEFFFF" transform="matrix(1.00, 0.00, -0.00, -1.00, 275.2, 46.1)"> </text><text xml:space="preserve" font-family="Avenir-Light,Avenir" font-size="27.3" fill="#FEFFFF" transform="matrix(1.00, 0.00, -0.00, -1.00, 282.3, 46.1)">a</text><text xml:space="preserve" font-family="Avenir-Light,Avenir" font-size="27.3" fill="#FEFFFF" transform="matrix(1.00, 0.00, -0.00, -1.00, 296.5, 46.1)"> </text><text xml:space="preserve" font-family="Avenir-Light,Avenir" font-size="27.3" fill="#FEFFFF" transform="matrix(1.00, 0.00, -0.00, -1.00, 303.6, 46.1)">p</text><text xml:space="preserve" font-family="Avenir-Light,Avenir" font-size="27.3" fill="#FEFFFF" transform="matrix(1.00, 0.00, -0.00, -1.00, 320.3, 46.1)">r</text><text xml:space="preserve" font-family="Avenir-Light,Avenir" font-size="27.3" fill="#FEFFFF" transform="matrix(1.00, 0.00, -0.00, -1.00, 329.3, 46.1)">i</text><text xml:space="preserve" font-family="Avenir-Light,Avenir" font-size="27.3" fill="#FEFFFF" transform="matrix(1.00, 0.00, -0.00, -1.00, 335.9, 46.1)">n</text><text xml:space="preserve" font-family="Avenir-Light,Avenir" font-size="27.3" fill="#FEFFFF" transform="matrix(1.00, 0.00, -0.00, -1.00, 351.1, 46.1)">t</text><text xml:space="preserve" font-family="Avenir-Light,Avenir" font-size="27.3" fill="#FEFFFF" transform="matrix(1.00, 0.00, -0.00, -1.00, 360.2, 46.1)">e</text><text xml:space="preserve" font-family="Avenir-Light,Avenir" font-size="27.3" fill="#FEFFFF" transform="matrix(1.00, 0.00, -0.00, -1.00, 375.3, 46.1)">d</text><text xml:space="preserve" font-family="Avenir-Light,Avenir" font-size="27.3" fill="#FEFFFF" transform="matrix(1.00, 0.00, -0.00, -1.00, 392.0, 46.1)"> </text><text xml:space="preserve" font-family="Avenir-Light,Avenir" font-size="27.3" fill="#FEFFFF" transform="matrix(1.00, 0.00, -0.00, -1.00, 399.1, 46.1)">b</text><text xml:space="preserve" font-family="Avenir-Light,Avenir" font-size="27.3" fill="#FEFFFF" transform="matrix(1.00, 0.00, -0.00, -1.00, 415.8, 46.1)">o</text><text xml:space="preserve" font-family="Avenir-Light,Avenir" font-size="27.3" fill="#FEFFFF" transform="matrix(1.00, 0.00, -0.00, -1.00, 432.0, 46.1)">o</text><text xml:space="preserve" font-family="Avenir-Light,Avenir" font-size="27.3" fill="#FEFFFF" transform="matrix(1.00, 0.00, -0.00, -1.00, 448.2, 46.1)">k</text><text xml:space="preserve" font-family="Avenir-Light,Avenir" font-size="27.3" fill="#FEFFFF" transform="matrix(1.00, 0.00, -0.00, -1.00, 461.4, 46.1)">,</text><text xml:space="preserve" font-family="Avenir-Light,Avenir" font-size="27.3" fill="#FEFFFF" transform="matrix(1.00, 0.00, -0.00, -1.00, 468.5, 46.1)"> </text><text xml:space="preserve" font-family="Avenir-Light,Avenir" font-size="27.3" fill="#FEFFFF" transform="matrix(1.00, 0.00, -0.00, -1.00, 475.6, 46.1)">P</text><text xml:space="preserve" font-family="Avenir-Light,Avenir" font-size="27.3" fill="#FEFFFF" transform="matrix(1.00, 0.00, -0.00, -1.00, 491.2, 46.1)">r</text><text xml:space="preserve" font-family="Avenir-Light,Avenir" font-size="27.3" fill="#FEFFFF" transform="matrix(1.00, 0.00, -0.00, -1.00, 499.8, 46.1)">o</text><text xml:space="preserve" font-family="Avenir-Light,Avenir" font-size="27.3" fill="#FEFFFF" transform="matrix(1.00, 0.00, -0.00, -1.00, 516.1, 46.1)">c</text><text xml:space="preserve" font-family="Avenir-Light,Avenir" font-size="27.3" fill="#FEFFFF" transform="matrix(1.00, 0.00, -0.00, -1.00, 529.2, 46.1)">e</text><text xml:space="preserve" font-family="Avenir-Light,Avenir" font-size="27.3" fill="#FEFFFF" transform="matrix(1.00, 0.00, -0.00, -1.00, 544.4, 46.1)">s</text><text xml:space="preserve" font-family="Avenir-Light,Avenir" font-size="27.3" fill="#FEFFFF" transform="matrix(1.00, 0.00, -0.00, -1.00, 556.0, 46.1)">s</text><text xml:space="preserve" font-family="Avenir-Light,Avenir" font-size="27.3" fill="#FEFFFF" transform="matrix(1.00, 0.00, -0.00, -1.00, 567.6, 46.1)"> </text><text xml:space="preserve" font-family="Avenir-Light,Avenir" font-size="27.3" fill="#FEFFFF" transform="matrix(1.00, 0.00, -0.00, -1.00, 574.7, 46.1)">a</text><text xml:space="preserve" font-family="Avenir-Light,Avenir" font-size="27.3" fill="#FEFFFF" transform="matrix(1.00, 0.00, -0.00, -1.00, 588.9, 46.1)">n</text><text xml:space="preserve" font-family="Avenir-Light,Avenir" font-size="27.3" fill="#FEFFFF" transform="matrix(1.00, 0.00, -0.00, -1.00, 604.1, 46.1)">d</text><text xml:space="preserve" font-family="Avenir-Light,Avenir" font-size="27.3" fill="#FEFFFF" transform="matrix(1.00, 0.00, -0.00, -1.00, 620.7, 46.1)"> </text><text xml:space="preserve" font-family="Avenir-Light,Avenir" font-size="27.3" fill="#FEFFFF" transform="matrix(1.00, 0.00, -0.00, -1.00, 627.8, 46.1)">R</text><text xml:space="preserve" font-family="Avenir-Light,Avenir" font-size="27.3" fill="#FEFFFF" transform="matrix(1.00, 0.00, -0.00, -1.00, 644.0, 46.1)">e</text><text xml:space="preserve" font-family="Avenir-Light,Avenir" font-size="27.3" fill="#FEFFFF" transform="matrix(1.00, 0.00, -0.00, -1.00, 659.2, 46.1)">a</text><text xml:space="preserve" font-family="Avenir-Light,Avenir" font-size="27.3" fill="#FEFFFF" transform="matrix(1.00, 0.00, -0.00, -1.00, 673.4, 46.1)">l</text><text xml:space="preserve" font-family="Avenir-Light,Avenir" font-size="27.3" fill="#FEFFFF" transform="matrix(1.00, 0.00, -0.00, -1.00, 680.0, 46.1)">i</text><text xml:space="preserve" font-family="Avenir-Light,Avenir" font-size="27.3" fill="#FEFFFF" transform="matrix(1.00, 0.00, -0.00, -1.00, 686.5, 46.1)">t</text><text xml:space="preserve" font-family="Avenir-Light,Avenir" font-size="27.3" fill="#FEFFFF" transform="matrix(1.00, 0.00, -0.00, -1.00, 695.6, 46.1)">y</text><text xml:space="preserve" font-family="Avenir-Light,Avenir" font-size="27.3" fill="#FEFFFF" transform="matrix(1.00, 0.00, -0.00, -1.00, 705.7, 46.1)">,</text><text xml:space="preserve" font-family="Avenir-Light,Avenir" font-size="27.3" fill="#FEFFFF" transform="matrix(1.00, 0.00, -0.00, -1.00, 712.8, 46.1)"> </text><text xml:space="preserve" font-family="Avenir-Light,Avenir" font-size="27.3" fill="#FEFFFF" transform="matrix(1.00, 0.00, -0.00, -1.00, 719.9, 46.1)">a</text><text xml:space="preserve" font-family="Avenir-Light,Avenir" font-size="27.3" fill="#FEFFFF" transform="matrix(1.00, 0.00, -0.00, -1.00, 734.1, 46.1)"> </text><text xml:space="preserve" font-family="Avenir-Light,Avenir" font-size="27.3" fill="#FEFFFF" transform="matrix(1.00, 0.00, -0.00, -1.00, 741.2, 46.1)">l</text><text xml:space="preserve" font-family="Avenir-Light,Avenir" font-size="27.3" fill="#FEFFFF" transform="matrix(1.00, 0.00, -0.00, -1.00, 747.8, 46.1)">i</text><text xml:space="preserve" font-family="Avenir-Light,Avenir" font-size="27.3" fill="#FEFFFF" transform="matrix(1.00, 0.00, -0.00, -1.00, 754.3, 46.1)">t</text><text xml:space="preserve" font-family="Avenir-Light,Avenir" font-size="27.3" fill="#FEFFFF" transform="matrix(1.00, 0.00, -0.00, -1.00, 763.4, 46.1)">t</text><text xml:space="preserve" font-family="Avenir-Light,Avenir" font-size="27.3" fill="#FEFFFF" transform="matrix(1.00, 0.00, -0.00, -1.00, 772.6, 46.1)">l</text><text xml:space="preserve" font-family="Avenir-Light,Avenir" font-size="27.3" fill="#FEFFFF" transform="matrix(1.00, 0.00, -0.00, -1.00, 779.1, 46.1)">e</text><text xml:space="preserve" font-family="Avenir-Light,Avenir" font-size="27.3" fill="#FEFFFF" transform="matrix(1.00, 0.00, -0.00, -1.00, 794.3, 46.1)"> </text><text xml:space="preserve" font-family="Avenir-Light,Avenir" font-size="27.3" fill="#FEFFFF" transform="matrix(1.00, 0.00, -0.00, -1.00, 801.4, 46.1)">b</text><text xml:space="preserve" font-family="Avenir-Light,Avenir" font-size="27.3" fill="#FEFFFF" transform="matrix(1.00, 0.00, -0.00, -1.00, 818.1, 46.1)">i</text><text xml:space="preserve" font-family="Avenir-Light,Avenir" font-size="27.3" fill="#FEFFFF" transform="matrix(1.00, 0.00, -0.00, -1.00, 824.6, 46.1)">t</text><text xml:space="preserve" font-family="Avenir-Light,Avenir" font-size="27.3" fill="#FEFFFF" transform="matrix(1.00, 0.00, -0.00, -1.00, 833.7, 46.1)"> </text><text xml:space="preserve" font-family="Avenir-Light,Avenir" font-size="27.3" fill="#FEFFFF" transform="matrix(1.00, 0.00, -0.00, -1.00, 0.0, 9.1)">b</text><text xml:space="preserve" font-family="Avenir-Light,Avenir" font-size="27.3" fill="#FEFFFF" transform="matrix(1.00, 0.00, -0.00, -1.00, 16.7, 9.1)">o</text><text xml:space="preserve" font-family="Avenir-Light,Avenir" font-size="27.3" fill="#FEFFFF" transform="matrix(1.00, 0.00, -0.00, -1.00, 32.9, 9.1)">t</text><text xml:space="preserve" font-family="Avenir-Light,Avenir" font-size="27.3" fill="#FEFFFF" transform="matrix(1.00, 0.00, -0.00, -1.00, 42.0, 9.1)">c</text><text xml:space="preserve" font-family="Avenir-Light,Avenir" font-size="27.3" fill="#FEFFFF" transform="matrix(1.00, 0.00, -0.00, -1.00, 55.1, 9.1)">h</text><text xml:space="preserve" font-family="Avenir-Light,Avenir" font-size="27.3" fill="#FEFFFF" transform="matrix(1.00, 0.00, -0.00, -1.00, 70.3, 9.1)">e</text><text xml:space="preserve" font-family="Avenir-Light,Avenir" font-size="27.3" fill="#FEFFFF" transform="matrix(1.00, 0.00, -0.00, -1.00, 85.5, 9.1)">d</text><text xml:space="preserve" font-family="Avenir-Light,Avenir" font-size="27.3" fill="#FEFFFF" transform="matrix(1.00, 0.00, -0.00, -1.00, 102.2, 9.1)"> </text><text xml:space="preserve" font-family="Avenir-Light,Avenir" font-size="27.3" fill="#FEFFFF" transform="matrix(1.00, 0.00, -0.00, -1.00, 109.3, 9.1)">i</text><text xml:space="preserve" font-family="Avenir-Light,Avenir" font-size="27.3" fill="#FEFFFF" transform="matrix(1.00, 0.00, -0.00, -1.00, 115.8, 9.1)">n</text><text xml:space="preserve" font-family="Avenir-Light,Avenir" font-size="27.3" fill="#FEFFFF" transform="matrix(1.00, 0.00, -0.00, -1.00, 131.0, 9.1)"> </text><text xml:space="preserve" font-family="Avenir-Light,Avenir" font-size="27.3" fill="#FEFFFF" transform="matrix(1.00, 0.00, -0.00, -1.00, 138.1, 9.1)">t</text><text xml:space="preserve" font-family="Avenir-Light,Avenir" font-size="27.3" fill="#FEFFFF" transform="matrix(1.00, 0.00, -0.00, -1.00, 147.2, 9.1)">h</text><text xml:space="preserve" font-family="Avenir-Light,Avenir" font-size="27.3" fill="#FEFFFF" transform="matrix(1.00, 0.00, -0.00, -1.00, 162.4, 9.1)">e</text><text xml:space="preserve" font-family="Avenir-Light,Avenir" font-size="27.3" fill="#FEFFFF" transform="matrix(1.00, 0.00, -0.00, -1.00, 177.6, 9.1)"> </text><text xml:space="preserve" font-family="Avenir-Light,Avenir" font-size="27.3" fill="#FEFFFF" transform="matrix(1.00, 0.00, -0.00, -1.00, 184.7, 9.1)">p</text><text xml:space="preserve" font-family="Avenir-Light,Avenir" font-size="27.3" fill="#FEFFFF" transform="matrix(1.00, 0.00, -0.00, -1.00, 201.3, 9.1)">r</text><text xml:space="preserve" font-family="Avenir-Light,Avenir" font-size="27.3" fill="#FEFFFF" transform="matrix(1.00, 0.00, -0.00, -1.00, 210.4, 9.1)">i</text><text xml:space="preserve" font-family="Avenir-Light,Avenir" font-size="27.3" fill="#FEFFFF" transform="matrix(1.00, 0.00, -0.00, -1.00, 217.0, 9.1)">n</text><text xml:space="preserve" font-family="Avenir-Light,Avenir" font-size="27.3" fill="#FEFFFF" transform="matrix(1.00, 0.00, -0.00, -1.00, 232.2, 9.1)">t</text><text xml:space="preserve" font-family="Avenir-Light,Avenir" font-size="27.3" fill="#FEFFFF" transform="matrix(1.00, 0.00, -0.00, -1.00, 241.3, 9.1)">i</text><text xml:space="preserve" font-family="Avenir-Light,Avenir" font-size="27.3" fill="#FEFFFF" transform="matrix(1.00, 0.00, -0.00, -1.00, 247.8, 9.1)">n</text><text xml:space="preserve" font-family="Avenir-Light,Avenir" font-size="27.3" fill="#FEFFFF" transform="matrix(1.00, 0.00, -0.00, -1.00, 263.0, 9.1)">g</text><text xml:space="preserve" font-family="Avenir-Light,Avenir" font-size="27.3" fill="#FEFFFF" transform="matrix(1.00, 0.00, -0.00, -1.00, 279.7, 9.1)"> </text><text xml:space="preserve" font-family="Avenir-Light,Avenir" font-size="27.3" fill="#FEFFFF" transform="matrix(1.00, 0.00, -0.00, -1.00, 286.8, 9.1)">p</text><text xml:space="preserve" font-family="Avenir-Light,Avenir" font-size="27.3" fill="#FEFFFF" transform="matrix(1.00, 0.00, -0.00, -1.00, 303.5, 9.1)">r</text><text xml:space="preserve" font-family="Avenir-Light,Avenir" font-size="27.3" fill="#FEFFFF" transform="matrix(1.00, 0.00, -0.00, -1.00, 312.1, 9.1)">o</text><text xml:space="preserve" font-family="Avenir-Light,Avenir" font-size="27.3" fill="#FEFFFF" transform="matrix(1.00, 0.00, -0.00, -1.00, 328.3, 9.1)">c</text><text xml:space="preserve" font-family="Avenir-Light,Avenir" font-size="27.3" fill="#FEFFFF" transform="matrix(1.00, 0.00, -0.00, -1.00, 341.4, 9.1)">e</text><text xml:space="preserve" font-family="Avenir-Light,Avenir" font-size="27.3" fill="#FEFFFF" transform="matrix(1.00, 0.00, -0.00, -1.00, 356.6, 9.1)">s</text><text xml:space="preserve" font-family="Avenir-Light,Avenir" font-size="27.3" fill="#FEFFFF" transform="matrix(1.00, 0.00, -0.00, -1.00, 368.2, 9.1)">s</text></g></svg>