<?xml version="1.0" encoding="UTF-8"?><svg xmlns="http://www.w3.org/2000/svg" xmlns:xlink="http://www.w3.org/1999/xlink" clip-rule="evenodd" stroke-miterlimit="10" viewBox="0 0 761 37"><desc>SVG generated by Keynote</desc><defs></defs><g transform="matrix(1.00, 0.00, -0.00, -1.00, 0.0, 37.0)"><text xml:space="preserve" font-family="Avenir-Light,Avenir" font-size="32.8" fill="#FEFFFF" transform="matrix(1.00, 0.00, -0.00, -1.00, 0.0, 9.6)">G</text><text xml:space="preserve" font-family="Avenir-Light,Avenir" font-size="32.8" fill="#FEFFFF" transform="matrix(1.00, 0.00, -0.00, -1.00, 25.5, 9.6)">i</text><text xml:space="preserve" font-family="Avenir-Light,Avenir" font-size="32.8" fill="#FEFFFF" transform="matrix(1.00, 0.00, -0.00, -1.00, 33.3, 9.6)">f</text><text xml:space="preserve" font-family="Avenir-Light,Avenir" font-size="32.8" fill="#FEFFFF" transform="matrix(1.00, 0.00, -0.00, -1.00, 42.5, 9.6)">f</text><text xml:space="preserve" font-family="Avenir-Light,Avenir" font-size="32.8" fill="#FEFFFF" transform="matrix(1.00, 0.00, -0.00, -1.00, 52.2, 9.6)">o</text><text xml:space="preserve" font-family="Avenir-Light,Avenir" font-size="32.8" fill="#FEFFFF" transform="matrix(1.00, 0.00, -0.00, -1.00, 71.6, 9.6)">r</text><text xml:space="preserve" font-family="Avenir-Light,Avenir" font-size="32.8" fill="#FEFFFF" transform="matrix(1.00, 0.00, -0.00, -1.00, 81.9, 9.6)">d</text><text xml:space="preserve" font-family="Avenir-Light,Avenir" font-size="32.8" fill="#FEFFFF" transform="matrix(1.00, 0.00, -0.00, -1.00, 101.9, 9.6)"> </text><text xml:space="preserve" font-family="Avenir-Light,Avenir" font-size="32.8" fill="#FEFFFF" transform="matrix(1.00, 0.00, -0.00, -1.00, 110.5, 9.6)">L</text><text xml:space="preserve" font-family="Avenir-Light,Avenir" font-size="32.8" fill="#FEFFFF" transform="matrix(1.00, 0.00, -0.00, -1.00, 126.8, 9.6)">e</text><text xml:space="preserve" font-family="Avenir-Light,Avenir" font-size="32.8" fill="#FEFFFF" transform="matrix(1.00, 0.00, -0.00, -1.00, 145.1, 9.6)">c</text><text xml:space="preserve" font-family="Avenir-Light,Avenir" font-size="32.8" fill="#FEFFFF" transform="matrix(1.00, 0.00, -0.00, -1.00, 160.8, 9.6)">t</text><text xml:space="preserve" font-family="Avenir-Light,Avenir" font-size="32.8" fill="#FEFFFF" transform="matrix(1.00, 0.00, -0.00, -1.00, 171.7, 9.6)">u</text><text xml:space="preserve" font-family="Avenir-Light,Avenir" font-size="32.8" fill="#FEFFFF" transform="matrix(1.00, 0.00, -0.00, -1.00, 189.9, 9.6)">r</text><text xml:space="preserve" font-family="Avenir-Light,Avenir" font-size="32.8" fill="#FEFFFF" transform="matrix(1.00, 0.00, -0.00, -1.00, 200.3, 9.6)">e</text><text xml:space="preserve" font-family="Avenir-Light,Avenir" font-size="32.8" fill="#FEFFFF" transform="matrix(1.00, 0.00, -0.00, -1.00, 218.5, 9.6)">s</text><text xml:space="preserve" font-family="Avenir-Light,Avenir" font-size="32.8" fill="#FEFFFF" transform="matrix(1.00, 0.00, -0.00, -1.00, 232.4, 9.6)"> </text><text xml:space="preserve" font-family="Avenir-Light,Avenir" font-size="32.8" fill="#FEFFFF" transform="matrix(1.00, 0.00, -0.00, -1.00, 240.9, 9.6)">(</text><text xml:space="preserve" font-family="Avenir-Light,Avenir" font-size="32.8" fill="#FEFFFF" transform="matrix(1.00, 0.00, -0.00, -1.00, 249.5, 9.6)">1</text><text xml:space="preserve" font-family="Avenir-Light,Avenir" font-size="32.8" fill="#FEFFFF" transform="matrix(1.00, 0.00, -0.00, -1.00, 266.5, 9.6)">9</text><text xml:space="preserve" font-family="Avenir-Light,Avenir" font-size="32.8" fill="#FEFFFF" transform="matrix(1.00, 0.00, -0.00, -1.00, 283.5, 9.6)">2</text><text xml:space="preserve" font-family="Avenir-Light,Avenir" font-size="32.8" fill="#FEFFFF" transform="matrix(1.00, 0.00, -0.00, -1.00, 300.6, 9.6)">7</text><text xml:space="preserve" font-family="Avenir-Light,Avenir" font-size="32.8" fill="#FEFFFF" transform="matrix(1.00, 0.00, -0.00, -1.00, 317.6, 9.6)">-</text><text xml:space="preserve" font-family="Avenir-Light,Avenir" font-size="32.8" fill="#FEFFFF" transform="matrix(1.00, 0.00, -0.00, -1.00, 328.5, 9.6)">2</text><text xml:space="preserve" font-family="Avenir-Light,Avenir" font-size="32.8" fill="#FEFFFF" transform="matrix(1.00, 0.00, -0.00, -1.00, 345.6, 9.6)">8</text><text xml:space="preserve" font-family="Avenir-Light,Avenir" font-size="32.8" fill="#FEFFFF" transform="matrix(1.00, 0.00, -0.00, -1.00, 362.6, 9.6)">)</text><text xml:space="preserve" font-family="Avenir-Light,Avenir" font-size="32.8" fill="#FEFFFF" transform="matrix(1.00, 0.00, -0.00, -1.00, 371.1, 9.6)">,</text><text xml:space="preserve" font-family="Avenir-Light,Avenir" font-size="32.8" fill="#FEFFFF" transform="matrix(1.00, 0.00, -0.00, -1.00, 379.6, 9.6)"> </text><text xml:space="preserve" font-family="Avenir-Light,Avenir" font-size="32.8" fill="#FEFFFF" transform="matrix(1.00, 0.00, -0.00, -1.00, 388.1, 9.6)">P</text><text xml:space="preserve" font-family="Avenir-Light,Avenir" font-size="32.8" fill="#FEFFFF" transform="matrix(1.00, 0.00, -0.00, -1.00, 406.9, 9.6)">r</text><text xml:space="preserve" font-family="Avenir-Light,Avenir" font-size="32.8" fill="#FEFFFF" transform="matrix(1.00, 0.00, -0.00, -1.00, 417.3, 9.6)">o</text><text xml:space="preserve" font-family="Avenir-Light,Avenir" font-size="32.8" fill="#FEFFFF" transform="matrix(1.00, 0.00, -0.00, -1.00, 436.7, 9.6)">c</text><text xml:space="preserve" font-family="Avenir-Light,Avenir" font-size="32.8" fill="#FEFFFF" transform="matrix(1.00, 0.00, -0.00, -1.00, 452.5, 9.6)">e</text><text xml:space="preserve" font-family="Avenir-Light,Avenir" font-size="32.8" fill="#FEFFFF" transform="matrix(1.00, 0.00, -0.00, -1.00, 470.7, 9.6)">s</text><text xml:space="preserve" font-family="Avenir-Light,Avenir" font-size="32.8" fill="#FEFFFF" transform="matrix(1.00, 0.00, -0.00, -1.00, 484.7, 9.6)">s</text><text xml:space="preserve" font-family="Avenir-Light,Avenir" font-size="32.8" fill="#FEFFFF" transform="matrix(1.00, 0.00, -0.00, -1.00, 498.6, 9.6)"> </text><text xml:space="preserve" font-family="Avenir-Light,Avenir" font-size="32.8" fill="#FEFFFF" transform="matrix(1.00, 0.00, -0.00, -1.00, 507.1, 9.6)">a</text><text xml:space="preserve" font-family="Avenir-Light,Avenir" font-size="32.8" fill="#FEFFFF" transform="matrix(1.00, 0.00, -0.00, -1.00, 524.1, 9.6)">n</text><text xml:space="preserve" font-family="Avenir-Light,Avenir" font-size="32.8" fill="#FEFFFF" transform="matrix(1.00, 0.00, -0.00, -1.00, 542.3, 9.6)">d</text><text xml:space="preserve" font-family="Avenir-Light,Avenir" font-size="32.8" fill="#FEFFFF" transform="matrix(1.00, 0.00, -0.00, -1.00, 562.4, 9.6)"> </text><text xml:space="preserve" font-family="Avenir-Light,Avenir" font-size="32.8" fill="#FEFFFF" transform="matrix(1.00, 0.00, -0.00, -1.00, 570.9, 9.6)">R</text><text xml:space="preserve" font-family="Avenir-Light,Avenir" font-size="32.8" fill="#FEFFFF" transform="matrix(1.00, 0.00, -0.00, -1.00, 590.3, 9.6)">e</text><text xml:space="preserve" font-family="Avenir-Light,Avenir" font-size="32.8" fill="#FEFFFF" transform="matrix(1.00, 0.00, -0.00, -1.00, 608.5, 9.6)">a</text><text xml:space="preserve" font-family="Avenir-Light,Avenir" font-size="32.8" fill="#FEFFFF" transform="matrix(1.00, 0.00, -0.00, -1.00, 625.5, 9.6)">l</text><text xml:space="preserve" font-family="Avenir-Light,Avenir" font-size="32.8" fill="#FEFFFF" transform="matrix(1.00, 0.00, -0.00, -1.00, 633.4, 9.6)">i</text><text xml:space="preserve" font-family="Avenir-Light,Avenir" font-size="32.8" fill="#FEFFFF" transform="matrix(1.00, 0.00, -0.00, -1.00, 641.3, 9.6)">t</text><text xml:space="preserve" font-family="Avenir-Light,Avenir" font-size="32.8" fill="#FEFFFF" transform="matrix(1.00, 0.00, -0.00, -1.00, 652.2, 9.6)">y</text><text xml:space="preserve" font-family="Avenir-Light,Avenir" font-size="32.8" fill="#FEFFFF" transform="matrix(1.00, 0.00, -0.00, -1.00, 667.4, 9.6)"> </text><text xml:space="preserve" font-family="Avenir-Light,Avenir" font-size="32.8" fill="#FEFFFF" transform="matrix(1.00, 0.00, -0.00, -1.00, 675.9, 9.6)">(</text><text xml:space="preserve" font-family="Avenir-Light,Avenir" font-size="32.8" fill="#FEFFFF" transform="matrix(1.00, 0.00, -0.00, -1.00, 684.4, 9.6)">1</text><text xml:space="preserve" font-family="Avenir-Light,Avenir" font-size="32.8" fill="#FEFFFF" transform="matrix(1.00, 0.00, -0.00, -1.00, 701.4, 9.6)">9</text><text xml:space="preserve" font-family="Avenir-Light,Avenir" font-size="32.8" fill="#FEFFFF" transform="matrix(1.00, 0.00, -0.00, -1.00, 718.5, 9.6)">2</text><text xml:space="preserve" font-family="Avenir-Light,Avenir" font-size="32.8" fill="#FEFFFF" transform="matrix(1.00, 0.00, -0.00, -1.00, 735.5, 9.6)">9</text><text xml:space="preserve" font-family="Avenir-Light,Avenir" font-size="32.8" fill="#FEFFFF" transform="matrix(1.00, 0.00, -0.00, -1.00, 752.5, 9.6)">)</text></g></svg>