<?xml version="1.0" encoding="UTF-8"?><svg xmlns="http://www.w3.org/2000/svg" xmlns:xlink="http://www.w3.org/1999/xlink" clip-rule="evenodd" stroke-miterlimit="10" viewBox="0 0 253 43"><desc>SVG generated by Keynote</desc><defs></defs><g transform="matrix(1.00, 0.00, -0.00, -1.00, 0.0, 43.0)"><text xml:space="preserve" font-family="Avenir-Light,Avenir" font-size="40.0" fill="#FEFFFF" transform="matrix(1.00, 0.00, -0.00, -1.00, 1.3, 10.9)">s</text><text xml:space="preserve" font-family="Avenir-Light,Avenir" font-size="40.0" fill="#FEFFFF" transform="matrix(1.00, 0.00, -0.00, -1.00, 18.3, 10.9)">u</text><text xml:space="preserve" font-family="Avenir-Light,Avenir" font-size="40.0" fill="#FEFFFF" transform="matrix(1.00, 0.00, -0.00, -1.00, 40.6, 10.9)">b</text><text xml:space="preserve" font-family="Avenir-Light,Avenir" font-size="40.0" fill="#FEFFFF" transform="matrix(1.00, 0.00, -0.00, -1.00, 65.0, 10.9)">j</text><text xml:space="preserve" font-family="Avenir-Light,Avenir" font-size="40.0" fill="#FEFFFF" transform="matrix(1.00, 0.00, -0.00, -1.00, 74.6, 10.9)">e</text><text xml:space="preserve" font-family="Avenir-Light,Avenir" font-size="40.0" fill="#FEFFFF" transform="matrix(1.00, 0.00, -0.00, -1.00, 96.9, 10.9)">c</text><text xml:space="preserve" font-family="Avenir-Light,Avenir" font-size="40.0" fill="#FEFFFF" transform="matrix(1.00, 0.00, -0.00, -1.00, 116.1, 10.9)">t</text><text xml:space="preserve" font-family="Avenir-Light,Avenir" font-size="40.0" fill="#FEFFFF" transform="matrix(1.00, 0.00, -0.00, -1.00, 129.5, 10.9)">i</text><text xml:space="preserve" font-family="Avenir-Light,Avenir" font-size="40.0" fill="#FEFFFF" transform="matrix(1.00, 0.00, -0.00, -1.00, 139.1, 10.9)">v</text><text xml:space="preserve" font-family="Avenir-Light,Avenir" font-size="40.0" fill="#FEFFFF" transform="matrix(1.00, 0.00, -0.00, -1.00, 157.6, 10.9)">e</text><text xml:space="preserve" font-family="Avenir-Light,Avenir" font-size="40.0" fill="#FEFFFF" transform="matrix(1.00, 0.00, -0.00, -1.00, 179.8, 10.9)"> </text><text xml:space="preserve" font-family="Avenir-Light,Avenir" font-size="40.0" fill="#FEFFFF" transform="matrix(1.00, 0.00, -0.00, -1.00, 190.2, 10.9)">a</text><text xml:space="preserve" font-family="Avenir-Light,Avenir" font-size="40.0" fill="#FEFFFF" transform="matrix(1.00, 0.00, -0.00, -1.00, 211.0, 10.9)">i</text><text xml:space="preserve" font-family="Avenir-Light,Avenir" font-size="40.0" fill="#FEFFFF" transform="matrix(1.00, 0.00, -0.00, -1.00, 220.6, 10.9)">m</text></g></svg>