<?xml version="1.0" encoding="UTF-8"?><svg xmlns="http://www.w3.org/2000/svg" xmlns:xlink="http://www.w3.org/1999/xlink" clip-rule="evenodd" stroke-miterlimit="10" viewBox="0 0 1024 768"><desc>SVG generated by Keynote</desc><defs></defs><g transform="matrix(1.00, 0.00, -0.00, -1.00, 0.0, 768.0)"><path d="M 0.0 0.0 L 1024.0 0.0 L 1024.0 768.0 L 0.0 768.0 Z M 0.0 0.0 " fill="#000000"></path><text xml:space="preserve" font-family="Avenir-LightOblique,Avenir" font-style="italic" font-size="36.0" fill="#FEFFFF" transform="matrix(1.00, 0.00, -0.00, -1.00, 56.0, 557.7)">D</text><text xml:space="preserve" font-family="Avenir-LightOblique,Avenir" font-style="italic" font-size="36.0" fill="#FEFFFF" transform="matrix(1.00, 0.00, -0.00, -1.00, 82.7, 557.7)">o</text><text xml:space="preserve" font-family="Avenir-LightOblique,Avenir" font-style="italic" font-size="36.0" fill="#FEFFFF" transform="matrix(1.00, 0.00, -0.00, -1.00, 104.1, 557.7)">m</text><text xml:space="preserve" font-family="Avenir-LightOblique,Avenir" font-style="italic" font-size="36.0" fill="#FEFFFF" transform="matrix(1.00, 0.00, -0.00, -1.00, 134.7, 557.7)">a</text><text xml:space="preserve" font-family="Avenir-LightOblique,Avenir" font-style="italic" font-size="36.0" fill="#FEFFFF" transform="matrix(1.00, 0.00, -0.00, -1.00, 153.4, 557.7)">i</text><text xml:space="preserve" font-family="Avenir-LightOblique,Avenir" font-style="italic" font-size="36.0" fill="#FEFFFF" transform="matrix(1.00, 0.00, -0.00, -1.00, 162.1, 557.7)">n</text><text xml:space="preserve" font-family="Avenir-LightOblique,Avenir" font-style="italic" font-size="36.0" fill="#FEFFFF" transform="matrix(1.00, 0.00, -0.00, -1.00, 182.1, 557.7)"> </text><text xml:space="preserve" font-family="Avenir-LightOblique,Avenir" font-style="italic" font-size="36.0" fill="#FEFFFF" transform="matrix(1.00, 0.00, -0.00, -1.00, 191.4, 557.7)">D</text><text xml:space="preserve" font-family="Avenir-LightOblique,Avenir" font-style="italic" font-size="36.0" fill="#FEFFFF" transform="matrix(1.00, 0.00, -0.00, -1.00, 218.1, 557.7)">r</text><text xml:space="preserve" font-family="Avenir-LightOblique,Avenir" font-style="italic" font-size="36.0" fill="#FEFFFF" transform="matrix(1.00, 0.00, -0.00, -1.00, 230.1, 557.7)">i</text><text xml:space="preserve" font-family="Avenir-LightOblique,Avenir" font-style="italic" font-size="36.0" fill="#FEFFFF" transform="matrix(1.00, 0.00, -0.00, -1.00, 238.7, 557.7)">v</text><text xml:space="preserve" font-family="Avenir-LightOblique,Avenir" font-style="italic" font-size="36.0" fill="#FEFFFF" transform="matrix(1.00, 0.00, -0.00, -1.00, 255.4, 557.7)">e</text><text xml:space="preserve" font-family="Avenir-LightOblique,Avenir" font-style="italic" font-size="36.0" fill="#FEFFFF" transform="matrix(1.00, 0.00, -0.00, -1.00, 275.4, 557.7)">n</text><text xml:space="preserve" font-family="Avenir-LightOblique,Avenir" font-style="italic" font-size="36.0" fill="#FEFFFF" transform="matrix(1.00, 0.00, -0.00, -1.00, 295.4, 557.7)"> </text><text xml:space="preserve" font-family="Avenir-LightOblique,Avenir" font-style="italic" font-size="36.0" fill="#FEFFFF" transform="matrix(1.00, 0.00, -0.00, -1.00, 304.8, 557.7)">D</text><text xml:space="preserve" font-family="Avenir-LightOblique,Avenir" font-style="italic" font-size="36.0" fill="#FEFFFF" transform="matrix(1.00, 0.00, -0.00, -1.00, 331.5, 557.7)">e</text><text xml:space="preserve" font-family="Avenir-LightOblique,Avenir" font-style="italic" font-size="36.0" fill="#FEFFFF" transform="matrix(1.00, 0.00, -0.00, -1.00, 351.5, 557.7)">s</text><text xml:space="preserve" font-family="Avenir-LightOblique,Avenir" font-style="italic" font-size="36.0" fill="#FEFFFF" transform="matrix(1.00, 0.00, -0.00, -1.00, 366.8, 557.7)">i</text><text xml:space="preserve" font-family="Avenir-LightOblique,Avenir" font-style="italic" font-size="36.0" fill="#FEFFFF" transform="matrix(1.00, 0.00, -0.00, -1.00, 375.5, 557.7)">g</text><text xml:space="preserve" font-family="Avenir-LightOblique,Avenir" font-style="italic" font-size="36.0" fill="#FEFFFF" transform="matrix(1.00, 0.00, -0.00, -1.00, 397.5, 557.7)">n</text><text xml:space="preserve" font-family="Avenir-Light,Avenir" font-size="45.0" fill="#FEFFFF" transform="matrix(1.00, 0.00, -0.00, -1.00, 74.0, 671.5)">E</text><text xml:space="preserve" font-family="Avenir-Light,Avenir" font-size="45.0" fill="#FEFFFF" transform="matrix(1.00, 0.00, -0.00, -1.00, 107.9, 671.5)">V</text><text xml:space="preserve" font-family="Avenir-Light,Avenir" font-size="45.0" fill="#FEFFFF" transform="matrix(1.00, 0.00, -0.00, -1.00, 141.8, 671.5)">E</text><text xml:space="preserve" font-family="Avenir-Light,Avenir" font-size="45.0" fill="#FEFFFF" transform="matrix(1.00, 0.00, -0.00, -1.00, 175.7, 671.5)">R</text><text xml:space="preserve" font-family="Avenir-Light,Avenir" font-size="45.0" fill="#FEFFFF" transform="matrix(1.00, 0.00, -0.00, -1.00, 209.0, 671.5)">Y</text><text xml:space="preserve" font-family="Avenir-Light,Avenir" font-size="45.0" fill="#FEFFFF" transform="matrix(1.00, 0.00, -0.00, -1.00, 242.0, 671.5)">T</text><text xml:space="preserve" font-family="Avenir-Light,Avenir" font-size="45.0" fill="#FEFFFF" transform="matrix(1.00, 0.00, -0.00, -1.00, 275.0, 671.5)">H</text><text xml:space="preserve" font-family="Avenir-Light,Avenir" font-size="45.0" fill="#FEFFFF" transform="matrix(1.00, 0.00, -0.00, -1.00, 314.7, 671.5)">I</text><text xml:space="preserve" font-family="Avenir-Light,Avenir" font-size="45.0" fill="#FEFFFF" transform="matrix(1.00, 0.00, -0.00, -1.00, 333.6, 671.5)">N</text><text xml:space="preserve" font-family="Avenir-Light,Avenir" font-size="45.0" fill="#FEFFFF" transform="matrix(1.00, 0.00, -0.00, -1.00, 375.8, 671.5)">G</text><text xml:space="preserve" font-family="Avenir-Light,Avenir" font-size="45.0" fill="#FEFFFF" transform="matrix(1.00, 0.00, -0.00, -1.00, 418.0, 671.5)"> </text><text xml:space="preserve" font-family="Avenir-Light,Avenir" font-size="45.0" fill="#FEFFFF" transform="matrix(1.00, 0.00, -0.00, -1.00, 436.9, 671.5)">I</text><text xml:space="preserve" font-family="Avenir-Light,Avenir" font-size="45.0" fill="#FEFFFF" transform="matrix(1.00, 0.00, -0.00, -1.00, 455.8, 671.5)">S</text><text xml:space="preserve" font-family="Avenir-Light,Avenir" font-size="45.0" fill="#FEFFFF" transform="matrix(1.00, 0.00, -0.00, -1.00, 488.0, 671.5)"> </text><text xml:space="preserve" font-family="Avenir-Light,Avenir" font-size="45.0" fill="#FEFFFF" transform="matrix(1.00, 0.00, -0.00, -1.00, 506.9, 671.5)">A</text><text xml:space="preserve" font-family="Avenir-Light,Avenir" font-size="45.0" fill="#FEFFFF" transform="matrix(1.00, 0.00, -0.00, -1.00, 545.0, 671.5)">N</text><text xml:space="preserve" font-family="Avenir-Light,Avenir" font-size="45.0" fill="#FEFFFF" transform="matrix(1.00, 0.00, -0.00, -1.00, 587.2, 671.5)"> </text><text xml:space="preserve" font-family="Avenir-Light,Avenir" font-size="45.0" fill="#FEFFFF" transform="matrix(1.00, 0.00, -0.00, -1.00, 606.1, 671.5)">O</text><text xml:space="preserve" font-family="Avenir-Light,Avenir" font-size="45.0" fill="#FEFFFF" transform="matrix(1.00, 0.00, -0.00, -1.00, 650.8, 671.5)">B</text><text xml:space="preserve" font-family="Avenir-Light,Avenir" font-size="45.0" fill="#FEFFFF" transform="matrix(1.00, 0.00, -0.00, -1.00, 686.4, 671.5)">J</text><text xml:space="preserve" font-family="Avenir-Light,Avenir" font-size="45.0" fill="#FEFFFF" transform="matrix(1.00, 0.00, -0.00, -1.00, 715.2, 671.5)">E</text><text xml:space="preserve" font-family="Avenir-Light,Avenir" font-size="45.0" fill="#FEFFFF" transform="matrix(1.00, 0.00, -0.00, -1.00, 749.1, 671.5)">C</text><text xml:space="preserve" font-family="Avenir-Light,Avenir" font-size="45.0" fill="#FEFFFF" transform="matrix(1.00, 0.00, -0.00, -1.00, 788.0, 671.5)">T</text></g></svg>