<?xml version="1.0" encoding="UTF-8"?><svg xmlns="http://www.w3.org/2000/svg" xmlns:xlink="http://www.w3.org/1999/xlink" clip-rule="evenodd" stroke-miterlimit="10" viewBox="0 0 1024 768"><desc>SVG generated by Keynote</desc><defs></defs><g transform="matrix(1.00, 0.00, -0.00, -1.00, 0.0, 768.0)"><path d="M 0.0 0.0 L 1024.0 0.0 L 1024.0 768.0 L 0.0 768.0 Z M 0.0 0.0 " fill="#000000"></path><text xml:space="preserve" font-family="Avenir-Light,Avenir" font-size="43.2" fill="#FEFFFF" transform="matrix(1.00, 0.00, -0.00, -1.00, 74.0, 672.8)">E</text><text xml:space="preserve" font-family="Avenir-Light,Avenir" font-size="43.2" fill="#FEFFFF" transform="matrix(1.00, 0.00, -0.00, -1.00, 106.5, 672.8)">V</text><text xml:space="preserve" font-family="Avenir-Light,Avenir" font-size="43.2" fill="#FEFFFF" transform="matrix(1.00, 0.00, -0.00, -1.00, 139.1, 672.8)">E</text><text xml:space="preserve" font-family="Avenir-Light,Avenir" font-size="43.2" fill="#FEFFFF" transform="matrix(1.00, 0.00, -0.00, -1.00, 171.6, 672.8)">N</text><text xml:space="preserve" font-family="Avenir-Light,Avenir" font-size="43.2" fill="#FEFFFF" transform="matrix(1.00, 0.00, -0.00, -1.00, 212.1, 672.8)">T</text><text xml:space="preserve" font-family="Avenir-Light,Avenir" font-size="43.2" fill="#FEFFFF" transform="matrix(1.00, 0.00, -0.00, -1.00, 243.8, 672.8)">S</text><text xml:space="preserve" font-family="Avenir-Light,Avenir" font-size="43.2" fill="#FEFFFF" transform="matrix(1.00, 0.00, -0.00, -1.00, 274.8, 672.8)"> </text><text xml:space="preserve" font-family="Avenir-Light,Avenir" font-size="43.2" fill="#FEFFFF" transform="matrix(1.00, 0.00, -0.00, -1.00, 292.9, 672.8)">I</text><text xml:space="preserve" font-family="Avenir-Light,Avenir" font-size="43.2" fill="#FEFFFF" transform="matrix(1.00, 0.00, -0.00, -1.00, 311.0, 672.8)">N</text><text xml:space="preserve" font-family="Avenir-Light,Avenir" font-size="43.2" fill="#FEFFFF" transform="matrix(1.00, 0.00, -0.00, -1.00, 351.6, 672.8)"> </text><text xml:space="preserve" font-family="Avenir-Light,Avenir" font-size="43.2" fill="#FEFFFF" transform="matrix(1.00, 0.00, -0.00, -1.00, 369.7, 672.8)">D</text><text xml:space="preserve" font-family="Avenir-Light,Avenir" font-size="43.2" fill="#FEFFFF" transform="matrix(1.00, 0.00, -0.00, -1.00, 408.6, 672.8)">I</text><text xml:space="preserve" font-family="Avenir-Light,Avenir" font-size="43.2" fill="#FEFFFF" transform="matrix(1.00, 0.00, -0.00, -1.00, 426.8, 672.8)">S</text><text xml:space="preserve" font-family="Avenir-Light,Avenir" font-size="43.2" fill="#FEFFFF" transform="matrix(1.00, 0.00, -0.00, -1.00, 457.7, 672.8)">T</text><text xml:space="preserve" font-family="Avenir-Light,Avenir" font-size="43.2" fill="#FEFFFF" transform="matrix(1.00, 0.00, -0.00, -1.00, 489.4, 672.8)">R</text><text xml:space="preserve" font-family="Avenir-Light,Avenir" font-size="43.2" fill="#FEFFFF" transform="matrix(1.00, 0.00, -0.00, -1.00, 521.9, 672.8)">I</text><text xml:space="preserve" font-family="Avenir-Light,Avenir" font-size="43.2" fill="#FEFFFF" transform="matrix(1.00, 0.00, -0.00, -1.00, 540.1, 672.8)">B</text><text xml:space="preserve" font-family="Avenir-Light,Avenir" font-size="43.2" fill="#FEFFFF" transform="matrix(1.00, 0.00, -0.00, -1.00, 574.2, 672.8)">U</text><text xml:space="preserve" font-family="Avenir-Light,Avenir" font-size="43.2" fill="#FEFFFF" transform="matrix(1.00, 0.00, -0.00, -1.00, 610.7, 672.8)">T</text><text xml:space="preserve" font-family="Avenir-Light,Avenir" font-size="43.2" fill="#FEFFFF" transform="matrix(1.00, 0.00, -0.00, -1.00, 642.4, 672.8)">E</text><text xml:space="preserve" font-family="Avenir-Light,Avenir" font-size="43.2" fill="#FEFFFF" transform="matrix(1.00, 0.00, -0.00, -1.00, 674.9, 672.8)">D</text><text xml:space="preserve" font-family="Avenir-Light,Avenir" font-size="43.2" fill="#FEFFFF" transform="matrix(1.00, 0.00, -0.00, -1.00, 713.8, 672.8)"> </text><text xml:space="preserve" font-family="Avenir-Light,Avenir" font-size="43.2" fill="#FEFFFF" transform="matrix(1.00, 0.00, -0.00, -1.00, 732.0, 672.8)">S</text><text xml:space="preserve" font-family="Avenir-Light,Avenir" font-size="43.2" fill="#FEFFFF" transform="matrix(1.00, 0.00, -0.00, -1.00, 762.9, 672.8)">Y</text><text xml:space="preserve" font-family="Avenir-Light,Avenir" font-size="43.2" fill="#FEFFFF" transform="matrix(1.00, 0.00, -0.00, -1.00, 794.6, 672.8)">S</text><text xml:space="preserve" font-family="Avenir-Light,Avenir" font-size="43.2" fill="#FEFFFF" transform="matrix(1.00, 0.00, -0.00, -1.00, 825.6, 672.8)">T</text><text xml:space="preserve" font-family="Avenir-Light,Avenir" font-size="43.2" fill="#FEFFFF" transform="matrix(1.00, 0.00, -0.00, -1.00, 857.3, 672.8)">E</text><text xml:space="preserve" font-family="Avenir-Light,Avenir" font-size="43.2" fill="#FEFFFF" transform="matrix(1.00, 0.00, -0.00, -1.00, 889.8, 672.8)">M</text><text xml:space="preserve" font-family="Avenir-Light,Avenir" font-size="43.2" fill="#FEFFFF" transform="matrix(1.00, 0.00, -0.00, -1.00, 935.1, 672.8)">S</text><text xml:space="preserve" font-family="Avenir-Light,Avenir" font-size="30.8" fill="#646363" transform="matrix(1.00, 0.00, -0.00, -1.00, 56.0, 568.8)">•</text><text xml:space="preserve" font-family="Avenir-Light,Avenir" font-size="34.2" fill="#FEFFFF" transform="matrix(1.00, 0.00, -0.00, -1.00, 91.2, 567.5)">P</text><text xml:space="preserve" font-family="Avenir-Light,Avenir" font-size="34.2" fill="#FEFFFF" transform="matrix(1.00, 0.00, -0.00, -1.00, 110.8, 567.5)">r</text><text xml:space="preserve" font-family="Avenir-Light,Avenir" font-size="34.2" fill="#FEFFFF" transform="matrix(1.00, 0.00, -0.00, -1.00, 121.6, 567.5)">o</text><text xml:space="preserve" font-family="Avenir-Light,Avenir" font-size="34.2" fill="#FEFFFF" transform="matrix(1.00, 0.00, -0.00, -1.00, 141.9, 567.5)">c</text><text xml:space="preserve" font-family="Avenir-Light,Avenir" font-size="34.2" fill="#FEFFFF" transform="matrix(1.00, 0.00, -0.00, -1.00, 158.3, 567.5)">e</text><text xml:space="preserve" font-family="Avenir-Light,Avenir" font-size="34.2" fill="#FEFFFF" transform="matrix(1.00, 0.00, -0.00, -1.00, 177.3, 567.5)">s</text><text xml:space="preserve" font-family="Avenir-Light,Avenir" font-size="34.2" fill="#FEFFFF" transform="matrix(1.00, 0.00, -0.00, -1.00, 191.9, 567.5)">s</text><text xml:space="preserve" font-family="Avenir-Light,Avenir" font-size="34.2" fill="#FEFFFF" transform="matrix(1.00, 0.00, -0.00, -1.00, 206.5, 567.5)">i</text><text xml:space="preserve" font-family="Avenir-Light,Avenir" font-size="34.2" fill="#FEFFFF" transform="matrix(1.00, 0.00, -0.00, -1.00, 214.7, 567.5)">n</text><text xml:space="preserve" font-family="Avenir-Light,Avenir" font-size="34.2" fill="#FEFFFF" transform="matrix(1.00, 0.00, -0.00, -1.00, 233.7, 567.5)">g</text><text xml:space="preserve" font-family="Avenir-Light,Avenir" font-size="34.2" fill="#FEFFFF" transform="matrix(1.00, 0.00, -0.00, -1.00, 254.6, 567.5)"> </text><text xml:space="preserve" font-family="Avenir-Light,Avenir" font-size="34.2" fill="#FEFFFF" transform="matrix(1.00, 0.00, -0.00, -1.00, 263.5, 567.5)">a</text><text xml:space="preserve" font-family="Avenir-Light,Avenir" font-size="34.2" fill="#FEFFFF" transform="matrix(1.00, 0.00, -0.00, -1.00, 281.2, 567.5)">s</text><text xml:space="preserve" font-family="Avenir-Light,Avenir" font-size="34.2" fill="#FEFFFF" transform="matrix(1.00, 0.00, -0.00, -1.00, 295.8, 567.5)"> </text><text xml:space="preserve" font-family="Avenir-Light,Avenir" font-size="34.2" fill="#FEFFFF" transform="matrix(1.00, 0.00, -0.00, -1.00, 304.7, 567.5)">m</text><text xml:space="preserve" font-family="Avenir-Light,Avenir" font-size="34.2" fill="#FEFFFF" transform="matrix(1.00, 0.00, -0.00, -1.00, 333.8, 567.5)">u</text><text xml:space="preserve" font-family="Avenir-Light,Avenir" font-size="34.2" fill="#FEFFFF" transform="matrix(1.00, 0.00, -0.00, -1.00, 352.8, 567.5)">l</text><text xml:space="preserve" font-family="Avenir-Light,Avenir" font-size="34.2" fill="#FEFFFF" transform="matrix(1.00, 0.00, -0.00, -1.00, 361.1, 567.5)">t</text><text xml:space="preserve" font-family="Avenir-Light,Avenir" font-size="34.2" fill="#FEFFFF" transform="matrix(1.00, 0.00, -0.00, -1.00, 372.5, 567.5)">i</text><text xml:space="preserve" font-family="Avenir-Light,Avenir" font-size="34.2" fill="#FEFFFF" transform="matrix(1.00, 0.00, -0.00, -1.00, 380.7, 567.5)">p</text><text xml:space="preserve" font-family="Avenir-Light,Avenir" font-size="34.2" fill="#FEFFFF" transform="matrix(1.00, 0.00, -0.00, -1.00, 401.6, 567.5)">l</text><text xml:space="preserve" font-family="Avenir-Light,Avenir" font-size="34.2" fill="#FEFFFF" transform="matrix(1.00, 0.00, -0.00, -1.00, 409.9, 567.5)">i</text><text xml:space="preserve" font-family="Avenir-Light,Avenir" font-size="34.2" fill="#FEFFFF" transform="matrix(1.00, 0.00, -0.00, -1.00, 418.1, 567.5)">c</text><text xml:space="preserve" font-family="Avenir-Light,Avenir" font-size="34.2" fill="#FEFFFF" transform="matrix(1.00, 0.00, -0.00, -1.00, 434.5, 567.5)">i</text><text xml:space="preserve" font-family="Avenir-Light,Avenir" font-size="34.2" fill="#FEFFFF" transform="matrix(1.00, 0.00, -0.00, -1.00, 442.7, 567.5)">t</text><text xml:space="preserve" font-family="Avenir-Light,Avenir" font-size="34.2" fill="#FEFFFF" transform="matrix(1.00, 0.00, -0.00, -1.00, 454.1, 567.5)">y</text><text xml:space="preserve" font-family="Avenir-Light,Avenir" font-size="34.2" fill="#FEFFFF" transform="matrix(1.00, 0.00, -0.00, -1.00, 469.9, 567.5)"> </text><text xml:space="preserve" font-family="Avenir-Light,Avenir" font-size="34.2" fill="#FEFFFF" transform="matrix(1.00, 0.00, -0.00, -1.00, 478.8, 567.5)">o</text><text xml:space="preserve" font-family="Avenir-Light,Avenir" font-size="34.2" fill="#FEFFFF" transform="matrix(1.00, 0.00, -0.00, -1.00, 499.2, 567.5)">f</text><text xml:space="preserve" font-family="Avenir-Light,Avenir" font-size="34.2" fill="#FEFFFF" transform="matrix(1.00, 0.00, -0.00, -1.00, 509.3, 567.5)"> </text><text xml:space="preserve" font-family="Avenir-Light,Avenir" font-size="34.2" fill="#FEFFFF" transform="matrix(1.00, 0.00, -0.00, -1.00, 518.2, 567.5)">“</text><text xml:space="preserve" font-family="Avenir-Light,Avenir" font-size="34.2" fill="#FEFFFF" transform="matrix(1.00, 0.00, -0.00, -1.00, 536.0, 567.5)">p</text><text xml:space="preserve" font-family="Avenir-Light,Avenir" font-size="34.2" fill="#FEFFFF" transform="matrix(1.00, 0.00, -0.00, -1.00, 556.9, 567.5)">r</text><text xml:space="preserve" font-family="Avenir-Light,Avenir" font-size="34.2" fill="#FEFFFF" transform="matrix(1.00, 0.00, -0.00, -1.00, 567.6, 567.5)">o</text><text xml:space="preserve" font-family="Avenir-Light,Avenir" font-size="34.2" fill="#FEFFFF" transform="matrix(1.00, 0.00, -0.00, -1.00, 587.9, 567.5)">c</text><text xml:space="preserve" font-family="Avenir-Light,Avenir" font-size="34.2" fill="#FEFFFF" transform="matrix(1.00, 0.00, -0.00, -1.00, 604.4, 567.5)">e</text><text xml:space="preserve" font-family="Avenir-Light,Avenir" font-size="34.2" fill="#FEFFFF" transform="matrix(1.00, 0.00, -0.00, -1.00, 623.4, 567.5)">s</text><text xml:space="preserve" font-family="Avenir-Light,Avenir" font-size="34.2" fill="#FEFFFF" transform="matrix(1.00, 0.00, -0.00, -1.00, 638.0, 567.5)">s</text><text xml:space="preserve" font-family="Avenir-Light,Avenir" font-size="34.2" fill="#FEFFFF" transform="matrix(1.00, 0.00, -0.00, -1.00, 652.5, 567.5)"> </text><text xml:space="preserve" font-family="Avenir-Light,Avenir" font-size="34.2" fill="#FEFFFF" transform="matrix(1.00, 0.00, -0.00, -1.00, 661.4, 567.5)">e</text><text xml:space="preserve" font-family="Avenir-Light,Avenir" font-size="34.2" fill="#FEFFFF" transform="matrix(1.00, 0.00, -0.00, -1.00, 680.5, 567.5)">v</text><text xml:space="preserve" font-family="Avenir-Light,Avenir" font-size="34.2" fill="#FEFFFF" transform="matrix(1.00, 0.00, -0.00, -1.00, 696.3, 567.5)">e</text><text xml:space="preserve" font-family="Avenir-Light,Avenir" font-size="34.2" fill="#FEFFFF" transform="matrix(1.00, 0.00, -0.00, -1.00, 715.3, 567.5)">n</text><text xml:space="preserve" font-family="Avenir-Light,Avenir" font-size="34.2" fill="#FEFFFF" transform="matrix(1.00, 0.00, -0.00, -1.00, 734.3, 567.5)">t</text><text xml:space="preserve" font-family="Avenir-Light,Avenir" font-size="34.2" fill="#FEFFFF" transform="matrix(1.00, 0.00, -0.00, -1.00, 745.7, 567.5)">s</text><text xml:space="preserve" font-family="Avenir-Light,Avenir" font-size="34.2" fill="#FEFFFF" transform="matrix(1.00, 0.00, -0.00, -1.00, 760.3, 567.5)">”</text><text xml:space="preserve" font-family="Avenir-Light,Avenir" font-size="34.2" fill="#FEFFFF" transform="matrix(1.00, 0.00, -0.00, -1.00, 778.1, 567.5)">?</text><text xml:space="preserve" font-family="Avenir-Light,Avenir" font-size="30.8" fill="#646363" transform="matrix(1.00, 0.00, -0.00, -1.00, 56.0, 481.9)">•</text><text xml:space="preserve" font-family="Avenir-Light,Avenir" font-size="34.2" fill="#FEFFFF" transform="matrix(1.00, 0.00, -0.00, -1.00, 91.2, 480.6)">W</text><text xml:space="preserve" font-family="Avenir-Light,Avenir" font-size="34.2" fill="#FEFFFF" transform="matrix(1.00, 0.00, -0.00, -1.00, 123.4, 480.6)">h</text><text xml:space="preserve" font-family="Avenir-Light,Avenir" font-size="34.2" fill="#FEFFFF" transform="matrix(1.00, 0.00, -0.00, -1.00, 142.5, 480.6)">a</text><text xml:space="preserve" font-family="Avenir-Light,Avenir" font-size="34.2" fill="#FEFFFF" transform="matrix(1.00, 0.00, -0.00, -1.00, 160.2, 480.6)">t</text><text xml:space="preserve" font-family="Avenir-Light,Avenir" font-size="34.2" fill="#FEFFFF" transform="matrix(1.00, 0.00, -0.00, -1.00, 171.6, 480.6)"> </text><text xml:space="preserve" font-family="Avenir-Light,Avenir" font-size="34.2" fill="#FEFFFF" transform="matrix(1.00, 0.00, -0.00, -1.00, 180.5, 480.6)">d</text><text xml:space="preserve" font-family="Avenir-Light,Avenir" font-size="34.2" fill="#FEFFFF" transform="matrix(1.00, 0.00, -0.00, -1.00, 201.4, 480.6)">o</text><text xml:space="preserve" font-family="Avenir-Light,Avenir" font-size="34.2" fill="#FEFFFF" transform="matrix(1.00, 0.00, -0.00, -1.00, 221.7, 480.6)"> </text><text xml:space="preserve" font-family="Avenir-Light,Avenir" font-size="34.2" fill="#FEFFFF" transform="matrix(1.00, 0.00, -0.00, -1.00, 230.6, 480.6)">w</text><text xml:space="preserve" font-family="Avenir-Light,Avenir" font-size="34.2" fill="#FEFFFF" transform="matrix(1.00, 0.00, -0.00, -1.00, 254.7, 480.6)">e</text><text xml:space="preserve" font-family="Avenir-Light,Avenir" font-size="34.2" fill="#FEFFFF" transform="matrix(1.00, 0.00, -0.00, -1.00, 273.7, 480.6)"> </text><text xml:space="preserve" font-family="Avenir-Light,Avenir" font-size="34.2" fill="#FEFFFF" transform="matrix(1.00, 0.00, -0.00, -1.00, 282.6, 480.6)">w</text><text xml:space="preserve" font-family="Avenir-Light,Avenir" font-size="34.2" fill="#FEFFFF" transform="matrix(1.00, 0.00, -0.00, -1.00, 306.6, 480.6)">a</text><text xml:space="preserve" font-family="Avenir-Light,Avenir" font-size="34.2" fill="#FEFFFF" transform="matrix(1.00, 0.00, -0.00, -1.00, 324.4, 480.6)">n</text><text xml:space="preserve" font-family="Avenir-Light,Avenir" font-size="34.2" fill="#FEFFFF" transform="matrix(1.00, 0.00, -0.00, -1.00, 343.4, 480.6)">t</text><text xml:space="preserve" font-family="Avenir-Light,Avenir" font-size="34.2" fill="#FEFFFF" transform="matrix(1.00, 0.00, -0.00, -1.00, 354.8, 480.6)">?</text><text xml:space="preserve" font-family="Avenir-Light,Avenir" font-size="25.7" fill="#646363" transform="matrix(1.00, 0.00, -0.00, -1.00, 93.0, 410.1)">•</text><text xml:space="preserve" font-family="Avenir-Light,Avenir" font-size="28.5" fill="#FEFFFF" transform="matrix(1.00, 0.00, -0.00, -1.00, 122.3, 409.1)">T</text><text xml:space="preserve" font-family="Avenir-Light,Avenir" font-size="28.5" fill="#FEFFFF" transform="matrix(1.00, 0.00, -0.00, -1.00, 135.5, 409.1)">o</text><text xml:space="preserve" font-family="Avenir-Light,Avenir" font-size="28.5" fill="#FEFFFF" transform="matrix(1.00, 0.00, -0.00, -1.00, 152.4, 409.1)"> </text><text xml:space="preserve" font-family="Avenir-Light,Avenir" font-size="28.5" fill="#FEFFFF" transform="matrix(1.00, 0.00, -0.00, -1.00, 159.8, 409.1)">p</text><text xml:space="preserve" font-family="Avenir-Light,Avenir" font-size="28.5" fill="#FEFFFF" transform="matrix(1.00, 0.00, -0.00, -1.00, 177.2, 409.1)">r</text><text xml:space="preserve" font-family="Avenir-Light,Avenir" font-size="28.5" fill="#FEFFFF" transform="matrix(1.00, 0.00, -0.00, -1.00, 186.2, 409.1)">o</text><text xml:space="preserve" font-family="Avenir-Light,Avenir" font-size="28.5" fill="#FEFFFF" transform="matrix(1.00, 0.00, -0.00, -1.00, 203.1, 409.1)">c</text><text xml:space="preserve" font-family="Avenir-Light,Avenir" font-size="28.5" fill="#FEFFFF" transform="matrix(1.00, 0.00, -0.00, -1.00, 216.9, 409.1)">e</text><text xml:space="preserve" font-family="Avenir-Light,Avenir" font-size="28.5" fill="#FEFFFF" transform="matrix(1.00, 0.00, -0.00, -1.00, 232.7, 409.1)">s</text><text xml:space="preserve" font-family="Avenir-Light,Avenir" font-size="28.5" fill="#FEFFFF" transform="matrix(1.00, 0.00, -0.00, -1.00, 244.8, 409.1)">s</text><text xml:space="preserve" font-family="Avenir-Light,Avenir" font-size="28.5" fill="#FEFFFF" transform="matrix(1.00, 0.00, -0.00, -1.00, 257.0, 409.1)"> </text><text xml:space="preserve" font-family="Avenir-Light,Avenir" font-size="28.5" fill="#FEFFFF" transform="matrix(1.00, 0.00, -0.00, -1.00, 264.4, 409.1)">“</text><text xml:space="preserve" font-family="Avenir-Light,Avenir" font-size="28.5" fill="#FEFFFF" transform="matrix(1.00, 0.00, -0.00, -1.00, 279.2, 409.1)">d</text><text xml:space="preserve" font-family="Avenir-Light,Avenir" font-size="28.5" fill="#FEFFFF" transform="matrix(1.00, 0.00, -0.00, -1.00, 296.6, 409.1)">o</text><text xml:space="preserve" font-family="Avenir-Light,Avenir" font-size="28.5" fill="#FEFFFF" transform="matrix(1.00, 0.00, -0.00, -1.00, 313.6, 409.1)">m</text><text xml:space="preserve" font-family="Avenir-Light,Avenir" font-size="28.5" fill="#FEFFFF" transform="matrix(1.00, 0.00, -0.00, -1.00, 337.8, 409.1)">a</text><text xml:space="preserve" font-family="Avenir-Light,Avenir" font-size="28.5" fill="#FEFFFF" transform="matrix(1.00, 0.00, -0.00, -1.00, 352.6, 409.1)">i</text><text xml:space="preserve" font-family="Avenir-Light,Avenir" font-size="28.5" fill="#FEFFFF" transform="matrix(1.00, 0.00, -0.00, -1.00, 359.5, 409.1)">n</text><text xml:space="preserve" font-family="Avenir-Light,Avenir" font-size="28.5" fill="#FEFFFF" transform="matrix(1.00, 0.00, -0.00, -1.00, 375.3, 409.1)"> </text><text xml:space="preserve" font-family="Avenir-Light,Avenir" font-size="28.5" fill="#FEFFFF" transform="matrix(1.00, 0.00, -0.00, -1.00, 382.7, 409.1)">e</text><text xml:space="preserve" font-family="Avenir-Light,Avenir" font-size="28.5" fill="#FEFFFF" transform="matrix(1.00, 0.00, -0.00, -1.00, 398.6, 409.1)">v</text><text xml:space="preserve" font-family="Avenir-Light,Avenir" font-size="28.5" fill="#FEFFFF" transform="matrix(1.00, 0.00, -0.00, -1.00, 411.8, 409.1)">e</text><text xml:space="preserve" font-family="Avenir-Light,Avenir" font-size="28.5" fill="#FEFFFF" transform="matrix(1.00, 0.00, -0.00, -1.00, 427.6, 409.1)">n</text><text xml:space="preserve" font-family="Avenir-Light,Avenir" font-size="28.5" fill="#FEFFFF" transform="matrix(1.00, 0.00, -0.00, -1.00, 443.5, 409.1)">t</text><text xml:space="preserve" font-family="Avenir-Light,Avenir" font-size="28.5" fill="#FEFFFF" transform="matrix(1.00, 0.00, -0.00, -1.00, 452.9, 409.1)">s</text><text xml:space="preserve" font-family="Avenir-Light,Avenir" font-size="28.5" fill="#FEFFFF" transform="matrix(1.00, 0.00, -0.00, -1.00, 465.1, 409.1)">”</text><text xml:space="preserve" font-family="Avenir-Light,Avenir" font-size="30.8" fill="#646363" transform="matrix(1.00, 0.00, -0.00, -1.00, 93.0, 325.6)">•</text><text xml:space="preserve" font-family="Avenir-Light,Avenir" font-size="34.2" fill="#FEFFFF" transform="matrix(1.00, 0.00, -0.00, -1.00, 128.2, 324.3)">R</text><text xml:space="preserve" font-family="Avenir-Light,Avenir" font-size="34.2" fill="#FEFFFF" transform="matrix(1.00, 0.00, -0.00, -1.00, 148.4, 324.3)">e</text><text xml:space="preserve" font-family="Avenir-Light,Avenir" font-size="34.2" fill="#FEFFFF" transform="matrix(1.00, 0.00, -0.00, -1.00, 167.4, 324.3)">l</text><text xml:space="preserve" font-family="Avenir-Light,Avenir" font-size="34.2" fill="#FEFFFF" transform="matrix(1.00, 0.00, -0.00, -1.00, 175.7, 324.3)">i</text><text xml:space="preserve" font-family="Avenir-Light,Avenir" font-size="34.2" fill="#FEFFFF" transform="matrix(1.00, 0.00, -0.00, -1.00, 183.9, 324.3)">a</text><text xml:space="preserve" font-family="Avenir-Light,Avenir" font-size="34.2" fill="#FEFFFF" transform="matrix(1.00, 0.00, -0.00, -1.00, 201.6, 324.3)">b</text><text xml:space="preserve" font-family="Avenir-Light,Avenir" font-size="34.2" fill="#FEFFFF" transform="matrix(1.00, 0.00, -0.00, -1.00, 222.5, 324.3)">i</text><text xml:space="preserve" font-family="Avenir-Light,Avenir" font-size="34.2" fill="#FEFFFF" transform="matrix(1.00, 0.00, -0.00, -1.00, 230.8, 324.3)">l</text><text xml:space="preserve" font-family="Avenir-Light,Avenir" font-size="34.2" fill="#FEFFFF" transform="matrix(1.00, 0.00, -0.00, -1.00, 239.0, 324.3)">i</text><text xml:space="preserve" font-family="Avenir-Light,Avenir" font-size="34.2" fill="#FEFFFF" transform="matrix(1.00, 0.00, -0.00, -1.00, 247.2, 324.3)">t</text><text xml:space="preserve" font-family="Avenir-Light,Avenir" font-size="34.2" fill="#FEFFFF" transform="matrix(1.00, 0.00, -0.00, -1.00, 258.6, 324.3)">y</text><text xml:space="preserve" font-family="Avenir-Light,Avenir" font-size="34.2" fill="#FEFFFF" transform="matrix(1.00, 0.00, -0.00, -1.00, 271.3, 324.3)">,</text><text xml:space="preserve" font-family="Avenir-Light,Avenir" font-size="34.2" fill="#FEFFFF" transform="matrix(1.00, 0.00, -0.00, -1.00, 280.2, 324.3)"> </text><text xml:space="preserve" font-family="Avenir-Light,Avenir" font-size="34.2" fill="#FEFFFF" transform="matrix(1.00, 0.00, -0.00, -1.00, 289.1, 324.3)">s</text><text xml:space="preserve" font-family="Avenir-Light,Avenir" font-size="34.2" fill="#FEFFFF" transform="matrix(1.00, 0.00, -0.00, -1.00, 303.6, 324.3)">c</text><text xml:space="preserve" font-family="Avenir-Light,Avenir" font-size="34.2" fill="#FEFFFF" transform="matrix(1.00, 0.00, -0.00, -1.00, 320.1, 324.3)">a</text><text xml:space="preserve" font-family="Avenir-Light,Avenir" font-size="34.2" fill="#FEFFFF" transform="matrix(1.00, 0.00, -0.00, -1.00, 337.8, 324.3)">l</text><text xml:space="preserve" font-family="Avenir-Light,Avenir" font-size="34.2" fill="#FEFFFF" transform="matrix(1.00, 0.00, -0.00, -1.00, 346.0, 324.3)">a</text><text xml:space="preserve" font-family="Avenir-Light,Avenir" font-size="34.2" fill="#FEFFFF" transform="matrix(1.00, 0.00, -0.00, -1.00, 363.8, 324.3)">b</text><text xml:space="preserve" font-family="Avenir-Light,Avenir" font-size="34.2" fill="#FEFFFF" transform="matrix(1.00, 0.00, -0.00, -1.00, 384.7, 324.3)">i</text><text xml:space="preserve" font-family="Avenir-Light,Avenir" font-size="34.2" fill="#FEFFFF" transform="matrix(1.00, 0.00, -0.00, -1.00, 392.9, 324.3)">l</text><text xml:space="preserve" font-family="Avenir-Light,Avenir" font-size="34.2" fill="#FEFFFF" transform="matrix(1.00, 0.00, -0.00, -1.00, 401.1, 324.3)">i</text><text xml:space="preserve" font-family="Avenir-Light,Avenir" font-size="34.2" fill="#FEFFFF" transform="matrix(1.00, 0.00, -0.00, -1.00, 409.3, 324.3)">t</text><text xml:space="preserve" font-family="Avenir-Light,Avenir" font-size="34.2" fill="#FEFFFF" transform="matrix(1.00, 0.00, -0.00, -1.00, 420.7, 324.3)">y</text><text xml:space="preserve" font-family="Avenir-Light,Avenir" font-size="34.2" fill="#FEFFFF" transform="matrix(1.00, 0.00, -0.00, -1.00, 433.4, 324.3)">,</text><text xml:space="preserve" font-family="Avenir-Light,Avenir" font-size="34.2" fill="#FEFFFF" transform="matrix(1.00, 0.00, -0.00, -1.00, 442.3, 324.3)"> </text><text xml:space="preserve" font-family="Avenir-Light,Avenir" font-size="34.2" fill="#FEFFFF" transform="matrix(1.00, 0.00, -0.00, -1.00, 451.2, 324.3)">m</text><text xml:space="preserve" font-family="Avenir-Light,Avenir" font-size="34.2" fill="#FEFFFF" transform="matrix(1.00, 0.00, -0.00, -1.00, 480.3, 324.3)">a</text><text xml:space="preserve" font-family="Avenir-Light,Avenir" font-size="34.2" fill="#FEFFFF" transform="matrix(1.00, 0.00, -0.00, -1.00, 498.1, 324.3)">i</text><text xml:space="preserve" font-family="Avenir-Light,Avenir" font-size="34.2" fill="#FEFFFF" transform="matrix(1.00, 0.00, -0.00, -1.00, 506.3, 324.3)">n</text><text xml:space="preserve" font-family="Avenir-Light,Avenir" font-size="34.2" fill="#FEFFFF" transform="matrix(1.00, 0.00, -0.00, -1.00, 525.3, 324.3)">t</text><text xml:space="preserve" font-family="Avenir-Light,Avenir" font-size="34.2" fill="#FEFFFF" transform="matrix(1.00, 0.00, -0.00, -1.00, 536.7, 324.3)">a</text><text xml:space="preserve" font-family="Avenir-Light,Avenir" font-size="34.2" fill="#FEFFFF" transform="matrix(1.00, 0.00, -0.00, -1.00, 554.5, 324.3)">i</text><text xml:space="preserve" font-family="Avenir-Light,Avenir" font-size="34.2" fill="#FEFFFF" transform="matrix(1.00, 0.00, -0.00, -1.00, 562.7, 324.3)">n</text><text xml:space="preserve" font-family="Avenir-Light,Avenir" font-size="34.2" fill="#FEFFFF" transform="matrix(1.00, 0.00, -0.00, -1.00, 581.7, 324.3)">a</text><text xml:space="preserve" font-family="Avenir-Light,Avenir" font-size="34.2" fill="#FEFFFF" transform="matrix(1.00, 0.00, -0.00, -1.00, 599.4, 324.3)">b</text><text xml:space="preserve" font-family="Avenir-Light,Avenir" font-size="34.2" fill="#FEFFFF" transform="matrix(1.00, 0.00, -0.00, -1.00, 620.3, 324.3)">i</text><text xml:space="preserve" font-family="Avenir-Light,Avenir" font-size="34.2" fill="#FEFFFF" transform="matrix(1.00, 0.00, -0.00, -1.00, 628.5, 324.3)">l</text><text xml:space="preserve" font-family="Avenir-Light,Avenir" font-size="34.2" fill="#FEFFFF" transform="matrix(1.00, 0.00, -0.00, -1.00, 636.8, 324.3)">i</text><text xml:space="preserve" font-family="Avenir-Light,Avenir" font-size="34.2" fill="#FEFFFF" transform="matrix(1.00, 0.00, -0.00, -1.00, 645.0, 324.3)">t</text><text xml:space="preserve" font-family="Avenir-Light,Avenir" font-size="34.2" fill="#FEFFFF" transform="matrix(1.00, 0.00, -0.00, -1.00, 656.4, 324.3)">y</text><text xml:space="preserve" font-family="Avenir-Light,Avenir" font-size="34.2" fill="#FEFFFF" transform="matrix(1.00, 0.00, -0.00, -1.00, 669.1, 324.3)">…</text><text xml:space="preserve" font-family="Avenir-Light,Avenir" font-size="30.8" fill="#646363" transform="matrix(1.00, 0.00, -0.00, -1.00, 56.0, 238.7)">•</text><text xml:space="preserve" font-family="Avenir-Light,Avenir" font-size="34.2" fill="#FEFFFF" transform="matrix(1.00, 0.00, -0.00, -1.00, 91.2, 237.4)">W</text><text xml:space="preserve" font-family="Avenir-Light,Avenir" font-size="34.2" fill="#FEFFFF" transform="matrix(1.00, 0.00, -0.00, -1.00, 123.4, 237.4)">h</text><text xml:space="preserve" font-family="Avenir-Light,Avenir" font-size="34.2" fill="#FEFFFF" transform="matrix(1.00, 0.00, -0.00, -1.00, 142.5, 237.4)">a</text><text xml:space="preserve" font-family="Avenir-Light,Avenir" font-size="34.2" fill="#FEFFFF" transform="matrix(1.00, 0.00, -0.00, -1.00, 160.2, 237.4)">t</text><text xml:space="preserve" font-family="Avenir-Light,Avenir" font-size="34.2" fill="#FEFFFF" transform="matrix(1.00, 0.00, -0.00, -1.00, 171.6, 237.4)"> </text><text xml:space="preserve" font-family="Avenir-Light,Avenir" font-size="34.2" fill="#FEFFFF" transform="matrix(1.00, 0.00, -0.00, -1.00, 180.5, 237.4)">i</text><text xml:space="preserve" font-family="Avenir-Light,Avenir" font-size="34.2" fill="#FEFFFF" transform="matrix(1.00, 0.00, -0.00, -1.00, 188.7, 237.4)">s</text><text xml:space="preserve" font-family="Avenir-Light,Avenir" font-size="34.2" fill="#FEFFFF" transform="matrix(1.00, 0.00, -0.00, -1.00, 203.3, 237.4)"> </text><text xml:space="preserve" font-family="Avenir-Light,Avenir" font-size="34.2" fill="#FEFFFF" transform="matrix(1.00, 0.00, -0.00, -1.00, 212.1, 237.4)">a</text><text xml:space="preserve" font-family="Avenir-Light,Avenir" font-size="34.2" fill="#FEFFFF" transform="matrix(1.00, 0.00, -0.00, -1.00, 229.9, 237.4)">c</text><text xml:space="preserve" font-family="Avenir-Light,Avenir" font-size="34.2" fill="#FEFFFF" transform="matrix(1.00, 0.00, -0.00, -1.00, 246.3, 237.4)">t</text><text xml:space="preserve" font-family="Avenir-Light,Avenir" font-size="34.2" fill="#FEFFFF" transform="matrix(1.00, 0.00, -0.00, -1.00, 257.7, 237.4)">u</text><text xml:space="preserve" font-family="Avenir-Light,Avenir" font-size="34.2" fill="#FEFFFF" transform="matrix(1.00, 0.00, -0.00, -1.00, 276.8, 237.4)">a</text><text xml:space="preserve" font-family="Avenir-Light,Avenir" font-size="34.2" fill="#FEFFFF" transform="matrix(1.00, 0.00, -0.00, -1.00, 294.5, 237.4)">l</text><text xml:space="preserve" font-family="Avenir-Light,Avenir" font-size="34.2" fill="#FEFFFF" transform="matrix(1.00, 0.00, -0.00, -1.00, 302.7, 237.4)">l</text><text xml:space="preserve" font-family="Avenir-Light,Avenir" font-size="34.2" fill="#FEFFFF" transform="matrix(1.00, 0.00, -0.00, -1.00, 311.0, 237.4)">y</text><text xml:space="preserve" font-family="Avenir-Light,Avenir" font-size="34.2" fill="#FEFFFF" transform="matrix(1.00, 0.00, -0.00, -1.00, 326.8, 237.4)"> </text><text xml:space="preserve" font-family="Avenir-Light,Avenir" font-size="34.2" fill="#FEFFFF" transform="matrix(1.00, 0.00, -0.00, -1.00, 335.7, 237.4)">1</text><text xml:space="preserve" font-family="Avenir-Light,Avenir" font-size="34.2" fill="#FEFFFF" transform="matrix(1.00, 0.00, -0.00, -1.00, 353.5, 237.4)">0</text><text xml:space="preserve" font-family="Avenir-Light,Avenir" font-size="34.2" fill="#FEFFFF" transform="matrix(1.00, 0.00, -0.00, -1.00, 371.2, 237.4)">0</text><text xml:space="preserve" font-family="Avenir-Light,Avenir" font-size="34.2" fill="#FEFFFF" transform="matrix(1.00, 0.00, -0.00, -1.00, 389.0, 237.4)">%</text><text xml:space="preserve" font-family="Avenir-Light,Avenir" font-size="34.2" fill="#FEFFFF" transform="matrix(1.00, 0.00, -0.00, -1.00, 416.9, 237.4)"> </text><text xml:space="preserve" font-family="Avenir-Light,Avenir" font-size="34.2" fill="#FEFFFF" transform="matrix(1.00, 0.00, -0.00, -1.00, 425.8, 237.4)">r</text><text xml:space="preserve" font-family="Avenir-Light,Avenir" font-size="34.2" fill="#FEFFFF" transform="matrix(1.00, 0.00, -0.00, -1.00, 436.6, 237.4)">e</text><text xml:space="preserve" font-family="Avenir-Light,Avenir" font-size="34.2" fill="#FEFFFF" transform="matrix(1.00, 0.00, -0.00, -1.00, 455.6, 237.4)">l</text><text xml:space="preserve" font-family="Avenir-Light,Avenir" font-size="34.2" fill="#FEFFFF" transform="matrix(1.00, 0.00, -0.00, -1.00, 463.8, 237.4)">i</text><text xml:space="preserve" font-family="Avenir-Light,Avenir" font-size="34.2" fill="#FEFFFF" transform="matrix(1.00, 0.00, -0.00, -1.00, 472.0, 237.4)">a</text><text xml:space="preserve" font-family="Avenir-Light,Avenir" font-size="34.2" fill="#FEFFFF" transform="matrix(1.00, 0.00, -0.00, -1.00, 489.8, 237.4)">b</text><text xml:space="preserve" font-family="Avenir-Light,Avenir" font-size="34.2" fill="#FEFFFF" transform="matrix(1.00, 0.00, -0.00, -1.00, 510.7, 237.4)">l</text><text xml:space="preserve" font-family="Avenir-Light,Avenir" font-size="34.2" fill="#FEFFFF" transform="matrix(1.00, 0.00, -0.00, -1.00, 518.9, 237.4)">e</text><text xml:space="preserve" font-family="Avenir-Light,Avenir" font-size="34.2" fill="#FEFFFF" transform="matrix(1.00, 0.00, -0.00, -1.00, 537.9, 237.4)">?</text><text xml:space="preserve" font-family="Avenir-Light,Avenir" font-size="25.7" fill="#646363" transform="matrix(1.00, 0.00, -0.00, -1.00, 93.0, 166.9)">•</text><text xml:space="preserve" font-family="Avenir-Light,Avenir" font-size="28.5" fill="#FEFFFF" transform="matrix(1.00, 0.00, -0.00, -1.00, 122.3, 165.9)">A</text><text xml:space="preserve" font-family="Avenir-Light,Avenir" font-size="28.5" fill="#FEFFFF" transform="matrix(1.00, 0.00, -0.00, -1.00, 141.8, 165.9)">C</text><text xml:space="preserve" font-family="Avenir-Light,Avenir" font-size="28.5" fill="#FEFFFF" transform="matrix(1.00, 0.00, -0.00, -1.00, 161.9, 165.9)">I</text><text xml:space="preserve" font-family="Avenir-Light,Avenir" font-size="28.5" fill="#FEFFFF" transform="matrix(1.00, 0.00, -0.00, -1.00, 169.3, 165.9)">D</text><text xml:space="preserve" font-family="Avenir-Light,Avenir" font-size="28.5" fill="#FEFFFF" transform="matrix(1.00, 0.00, -0.00, -1.00, 190.4, 165.9)"> </text><text xml:space="preserve" font-family="Avenir-Light,Avenir" font-size="28.5" fill="#FEFFFF" transform="matrix(1.00, 0.00, -0.00, -1.00, 197.8, 165.9)">d</text><text xml:space="preserve" font-family="Avenir-Light,Avenir" font-size="28.5" fill="#FEFFFF" transform="matrix(1.00, 0.00, -0.00, -1.00, 215.2, 165.9)">a</text><text xml:space="preserve" font-family="Avenir-Light,Avenir" font-size="28.5" fill="#FEFFFF" transform="matrix(1.00, 0.00, -0.00, -1.00, 230.0, 165.9)">t</text><text xml:space="preserve" font-family="Avenir-Light,Avenir" font-size="28.5" fill="#FEFFFF" transform="matrix(1.00, 0.00, -0.00, -1.00, 239.5, 165.9)">a</text><text xml:space="preserve" font-family="Avenir-Light,Avenir" font-size="28.5" fill="#FEFFFF" transform="matrix(1.00, 0.00, -0.00, -1.00, 254.3, 165.9)">b</text><text xml:space="preserve" font-family="Avenir-Light,Avenir" font-size="28.5" fill="#FEFFFF" transform="matrix(1.00, 0.00, -0.00, -1.00, 271.7, 165.9)">a</text><text xml:space="preserve" font-family="Avenir-Light,Avenir" font-size="28.5" fill="#FEFFFF" transform="matrix(1.00, 0.00, -0.00, -1.00, 286.5, 165.9)">s</text><text xml:space="preserve" font-family="Avenir-Light,Avenir" font-size="28.5" fill="#FEFFFF" transform="matrix(1.00, 0.00, -0.00, -1.00, 298.6, 165.9)">e</text><text xml:space="preserve" font-family="Avenir-Light,Avenir" font-size="28.5" fill="#FEFFFF" transform="matrix(1.00, 0.00, -0.00, -1.00, 314.5, 165.9)"> </text><text xml:space="preserve" font-family="Avenir-Light,Avenir" font-size="28.5" fill="#FEFFFF" transform="matrix(1.00, 0.00, -0.00, -1.00, 321.9, 165.9)">t</text><text xml:space="preserve" font-family="Avenir-Light,Avenir" font-size="28.5" fill="#FEFFFF" transform="matrix(1.00, 0.00, -0.00, -1.00, 331.4, 165.9)">r</text><text xml:space="preserve" font-family="Avenir-Light,Avenir" font-size="28.5" fill="#FEFFFF" transform="matrix(1.00, 0.00, -0.00, -1.00, 340.9, 165.9)">a</text><text xml:space="preserve" font-family="Avenir-Light,Avenir" font-size="28.5" fill="#FEFFFF" transform="matrix(1.00, 0.00, -0.00, -1.00, 355.7, 165.9)">n</text><text xml:space="preserve" font-family="Avenir-Light,Avenir" font-size="28.5" fill="#FEFFFF" transform="matrix(1.00, 0.00, -0.00, -1.00, 371.5, 165.9)">s</text><text xml:space="preserve" font-family="Avenir-Light,Avenir" font-size="28.5" fill="#FEFFFF" transform="matrix(1.00, 0.00, -0.00, -1.00, 383.7, 165.9)">a</text><text xml:space="preserve" font-family="Avenir-Light,Avenir" font-size="28.5" fill="#FEFFFF" transform="matrix(1.00, 0.00, -0.00, -1.00, 398.5, 165.9)">c</text><text xml:space="preserve" font-family="Avenir-Light,Avenir" font-size="28.5" fill="#FEFFFF" transform="matrix(1.00, 0.00, -0.00, -1.00, 412.2, 165.9)">t</text><text xml:space="preserve" font-family="Avenir-Light,Avenir" font-size="28.5" fill="#FEFFFF" transform="matrix(1.00, 0.00, -0.00, -1.00, 421.7, 165.9)">i</text><text xml:space="preserve" font-family="Avenir-Light,Avenir" font-size="28.5" fill="#FEFFFF" transform="matrix(1.00, 0.00, -0.00, -1.00, 428.5, 165.9)">o</text><text xml:space="preserve" font-family="Avenir-Light,Avenir" font-size="28.5" fill="#FEFFFF" transform="matrix(1.00, 0.00, -0.00, -1.00, 445.5, 165.9)">n</text><text xml:space="preserve" font-family="Avenir-Light,Avenir" font-size="28.5" fill="#FEFFFF" transform="matrix(1.00, 0.00, -0.00, -1.00, 461.3, 165.9)">s</text><text xml:space="preserve" font-family="Avenir-Light,Avenir" font-size="25.7" fill="#646363" transform="matrix(1.00, 0.00, -0.00, -1.00, 93.0, 97.5)">•</text><text xml:space="preserve" font-family="Avenir-Light,Avenir" font-size="28.5" fill="#FEFFFF" transform="matrix(1.00, 0.00, -0.00, -1.00, 122.3, 96.5)">C</text><text xml:space="preserve" font-family="Avenir-Light,Avenir" font-size="28.5" fill="#FEFFFF" transform="matrix(1.00, 0.00, -0.00, -1.00, 142.4, 96.5)">o</text><text xml:space="preserve" font-family="Avenir-Light,Avenir" font-size="28.5" fill="#FEFFFF" transform="matrix(1.00, 0.00, -0.00, -1.00, 159.3, 96.5)">u</text><text xml:space="preserve" font-family="Avenir-Light,Avenir" font-size="28.5" fill="#FEFFFF" transform="matrix(1.00, 0.00, -0.00, -1.00, 175.1, 96.5)">n</text><text xml:space="preserve" font-family="Avenir-Light,Avenir" font-size="28.5" fill="#FEFFFF" transform="matrix(1.00, 0.00, -0.00, -1.00, 191.0, 96.5)">t</text><text xml:space="preserve" font-family="Avenir-Light,Avenir" font-size="28.5" fill="#FEFFFF" transform="matrix(1.00, 0.00, -0.00, -1.00, 200.5, 96.5)">i</text><text xml:space="preserve" font-family="Avenir-Light,Avenir" font-size="28.5" fill="#FEFFFF" transform="matrix(1.00, 0.00, -0.00, -1.00, 207.3, 96.5)">n</text><text xml:space="preserve" font-family="Avenir-Light,Avenir" font-size="28.5" fill="#FEFFFF" transform="matrix(1.00, 0.00, -0.00, -1.00, 223.2, 96.5)">g</text></g></svg>