<?xml version="1.0" encoding="UTF-8"?><svg xmlns="http://www.w3.org/2000/svg" xmlns:xlink="http://www.w3.org/1999/xlink" clip-rule="evenodd" stroke-miterlimit="10" viewBox="0 0 498 43"><desc>SVG generated by Keynote</desc><defs></defs><g transform="matrix(1.00, 0.00, -0.00, -1.00, 0.0, 43.0)"><text xml:space="preserve" font-family="Avenir-Light,Avenir" font-size="30.8" fill="#646363" transform="matrix(1.00, 0.00, -0.00, -1.00, 0.0, 11.7)">•</text><text xml:space="preserve" font-family="Avenir-Light,Avenir" font-size="34.2" fill="#FEFFFF" transform="matrix(1.00, 0.00, -0.00, -1.00, 35.1, 10.4)">W</text><text xml:space="preserve" font-family="Avenir-Light,Avenir" font-size="34.2" fill="#FEFFFF" transform="matrix(1.00, 0.00, -0.00, -1.00, 67.4, 10.4)">h</text><text xml:space="preserve" font-family="Avenir-Light,Avenir" font-size="34.2" fill="#FEFFFF" transform="matrix(1.00, 0.00, -0.00, -1.00, 86.5, 10.4)">a</text><text xml:space="preserve" font-family="Avenir-Light,Avenir" font-size="34.2" fill="#FEFFFF" transform="matrix(1.00, 0.00, -0.00, -1.00, 104.2, 10.4)">t</text><text xml:space="preserve" font-family="Avenir-Light,Avenir" font-size="34.2" fill="#FEFFFF" transform="matrix(1.00, 0.00, -0.00, -1.00, 115.6, 10.4)"> </text><text xml:space="preserve" font-family="Avenir-Light,Avenir" font-size="34.2" fill="#FEFFFF" transform="matrix(1.00, 0.00, -0.00, -1.00, 124.5, 10.4)">i</text><text xml:space="preserve" font-family="Avenir-Light,Avenir" font-size="34.2" fill="#FEFFFF" transform="matrix(1.00, 0.00, -0.00, -1.00, 132.7, 10.4)">s</text><text xml:space="preserve" font-family="Avenir-Light,Avenir" font-size="34.2" fill="#FEFFFF" transform="matrix(1.00, 0.00, -0.00, -1.00, 147.3, 10.4)"> </text><text xml:space="preserve" font-family="Avenir-Light,Avenir" font-size="34.2" fill="#FEFFFF" transform="matrix(1.00, 0.00, -0.00, -1.00, 156.1, 10.4)">a</text><text xml:space="preserve" font-family="Avenir-Light,Avenir" font-size="34.2" fill="#FEFFFF" transform="matrix(1.00, 0.00, -0.00, -1.00, 173.9, 10.4)">c</text><text xml:space="preserve" font-family="Avenir-Light,Avenir" font-size="34.2" fill="#FEFFFF" transform="matrix(1.00, 0.00, -0.00, -1.00, 190.3, 10.4)">t</text><text xml:space="preserve" font-family="Avenir-Light,Avenir" font-size="34.2" fill="#FEFFFF" transform="matrix(1.00, 0.00, -0.00, -1.00, 201.7, 10.4)">u</text><text xml:space="preserve" font-family="Avenir-Light,Avenir" font-size="34.2" fill="#FEFFFF" transform="matrix(1.00, 0.00, -0.00, -1.00, 220.8, 10.4)">a</text><text xml:space="preserve" font-family="Avenir-Light,Avenir" font-size="34.2" fill="#FEFFFF" transform="matrix(1.00, 0.00, -0.00, -1.00, 238.5, 10.4)">l</text><text xml:space="preserve" font-family="Avenir-Light,Avenir" font-size="34.2" fill="#FEFFFF" transform="matrix(1.00, 0.00, -0.00, -1.00, 246.7, 10.4)">l</text><text xml:space="preserve" font-family="Avenir-Light,Avenir" font-size="34.2" fill="#FEFFFF" transform="matrix(1.00, 0.00, -0.00, -1.00, 255.0, 10.4)">y</text><text xml:space="preserve" font-family="Avenir-Light,Avenir" font-size="34.2" fill="#FEFFFF" transform="matrix(1.00, 0.00, -0.00, -1.00, 270.8, 10.4)"> </text><text xml:space="preserve" font-family="Avenir-Light,Avenir" font-size="34.2" fill="#FEFFFF" transform="matrix(1.00, 0.00, -0.00, -1.00, 279.7, 10.4)">1</text><text xml:space="preserve" font-family="Avenir-Light,Avenir" font-size="34.2" fill="#FEFFFF" transform="matrix(1.00, 0.00, -0.00, -1.00, 297.5, 10.4)">0</text><text xml:space="preserve" font-family="Avenir-Light,Avenir" font-size="34.2" fill="#FEFFFF" transform="matrix(1.00, 0.00, -0.00, -1.00, 315.2, 10.4)">0</text><text xml:space="preserve" font-family="Avenir-Light,Avenir" font-size="34.2" fill="#FEFFFF" transform="matrix(1.00, 0.00, -0.00, -1.00, 333.0, 10.4)">%</text><text xml:space="preserve" font-family="Avenir-Light,Avenir" font-size="34.2" fill="#FEFFFF" transform="matrix(1.00, 0.00, -0.00, -1.00, 360.9, 10.4)"> </text><text xml:space="preserve" font-family="Avenir-Light,Avenir" font-size="34.2" fill="#FEFFFF" transform="matrix(1.00, 0.00, -0.00, -1.00, 369.8, 10.4)">r</text><text xml:space="preserve" font-family="Avenir-Light,Avenir" font-size="34.2" fill="#FEFFFF" transform="matrix(1.00, 0.00, -0.00, -1.00, 380.6, 10.4)">e</text><text xml:space="preserve" font-family="Avenir-Light,Avenir" font-size="34.2" fill="#FEFFFF" transform="matrix(1.00, 0.00, -0.00, -1.00, 399.6, 10.4)">l</text><text xml:space="preserve" font-family="Avenir-Light,Avenir" font-size="34.2" fill="#FEFFFF" transform="matrix(1.00, 0.00, -0.00, -1.00, 407.8, 10.4)">i</text><text xml:space="preserve" font-family="Avenir-Light,Avenir" font-size="34.2" fill="#FEFFFF" transform="matrix(1.00, 0.00, -0.00, -1.00, 416.0, 10.4)">a</text><text xml:space="preserve" font-family="Avenir-Light,Avenir" font-size="34.2" fill="#FEFFFF" transform="matrix(1.00, 0.00, -0.00, -1.00, 433.8, 10.4)">b</text><text xml:space="preserve" font-family="Avenir-Light,Avenir" font-size="34.2" fill="#FEFFFF" transform="matrix(1.00, 0.00, -0.00, -1.00, 454.7, 10.4)">l</text><text xml:space="preserve" font-family="Avenir-Light,Avenir" font-size="34.2" fill="#FEFFFF" transform="matrix(1.00, 0.00, -0.00, -1.00, 462.9, 10.4)">e</text><text xml:space="preserve" font-family="Avenir-Light,Avenir" font-size="34.2" fill="#FEFFFF" transform="matrix(1.00, 0.00, -0.00, -1.00, 481.9, 10.4)">?</text></g></svg>