<?xml version="1.0" encoding="UTF-8"?><svg xmlns="http://www.w3.org/2000/svg" xmlns:xlink="http://www.w3.org/1999/xlink" clip-rule="evenodd" stroke-miterlimit="10" viewBox="0 0 907 44"><desc>SVG generated by Keynote</desc><defs></defs><g transform="matrix(1.00, 0.00, -0.00, -1.00, 0.0, 44.0)"><text xml:space="preserve" font-family="Avenir-Light,Avenir" font-size="31.4" fill="#646363" transform="matrix(1.00, 0.00, -0.00, -1.00, 0.0, 11.8)">•</text><text xml:space="preserve" font-family="Avenir-Light,Avenir" font-size="34.9" fill="#FEFFFF" transform="matrix(1.00, 0.00, -0.00, -1.00, 40.4, 10.5)">A</text><text xml:space="preserve" font-family="Avenir-Light,Avenir" font-size="34.9" fill="#FEFFFF" transform="matrix(1.00, 0.00, -0.00, -1.00, 64.3, 10.5)">p</text><text xml:space="preserve" font-family="Avenir-Light,Avenir" font-size="34.9" fill="#FEFFFF" transform="matrix(1.00, 0.00, -0.00, -1.00, 85.6, 10.5)">p</text><text xml:space="preserve" font-family="Avenir-Light,Avenir" font-size="34.9" fill="#FEFFFF" transform="matrix(1.00, 0.00, -0.00, -1.00, 107.0, 10.5)">l</text><text xml:space="preserve" font-family="Avenir-Light,Avenir" font-size="34.9" fill="#FEFFFF" transform="matrix(1.00, 0.00, -0.00, -1.00, 115.4, 10.5)">i</text><text xml:space="preserve" font-family="Avenir-Light,Avenir" font-size="34.9" fill="#FEFFFF" transform="matrix(1.00, 0.00, -0.00, -1.00, 123.8, 10.5)">e</text><text xml:space="preserve" font-family="Avenir-Light,Avenir" font-size="34.9" fill="#FEFFFF" transform="matrix(1.00, 0.00, -0.00, -1.00, 143.2, 10.5)">d</text><text xml:space="preserve" font-family="Avenir-Light,Avenir" font-size="34.9" fill="#FEFFFF" transform="matrix(1.00, 0.00, -0.00, -1.00, 164.5, 10.5)"> </text><text xml:space="preserve" font-family="Avenir-Light,Avenir" font-size="34.9" fill="#FEFFFF" transform="matrix(1.00, 0.00, -0.00, -1.00, 173.6, 10.5)">t</text><text xml:space="preserve" font-family="Avenir-Light,Avenir" font-size="34.9" fill="#FEFFFF" transform="matrix(1.00, 0.00, -0.00, -1.00, 185.2, 10.5)">o</text><text xml:space="preserve" font-family="Avenir-Light,Avenir" font-size="34.9" fill="#FEFFFF" transform="matrix(1.00, 0.00, -0.00, -1.00, 206.0, 10.5)"> </text><text xml:space="preserve" font-family="Avenir-Light,Avenir" font-size="34.9" fill="#FEFFFF" transform="matrix(1.00, 0.00, -0.00, -1.00, 215.0, 10.5)">p</text><text xml:space="preserve" font-family="Avenir-Light,Avenir" font-size="34.9" fill="#FEFFFF" transform="matrix(1.00, 0.00, -0.00, -1.00, 236.4, 10.5)">r</text><text xml:space="preserve" font-family="Avenir-Light,Avenir" font-size="34.9" fill="#FEFFFF" transform="matrix(1.00, 0.00, -0.00, -1.00, 247.4, 10.5)">o</text><text xml:space="preserve" font-family="Avenir-Light,Avenir" font-size="34.9" fill="#FEFFFF" transform="matrix(1.00, 0.00, -0.00, -1.00, 268.1, 10.5)">g</text><text xml:space="preserve" font-family="Avenir-Light,Avenir" font-size="34.9" fill="#FEFFFF" transform="matrix(1.00, 0.00, -0.00, -1.00, 289.5, 10.5)">r</text><text xml:space="preserve" font-family="Avenir-Light,Avenir" font-size="34.9" fill="#FEFFFF" transform="matrix(1.00, 0.00, -0.00, -1.00, 301.1, 10.5)">a</text><text xml:space="preserve" font-family="Avenir-Light,Avenir" font-size="34.9" fill="#FEFFFF" transform="matrix(1.00, 0.00, -0.00, -1.00, 319.2, 10.5)">m</text><text xml:space="preserve" font-family="Avenir-Light,Avenir" font-size="34.9" fill="#FEFFFF" transform="matrix(1.00, 0.00, -0.00, -1.00, 349.0, 10.5)">m</text><text xml:space="preserve" font-family="Avenir-Light,Avenir" font-size="34.9" fill="#FEFFFF" transform="matrix(1.00, 0.00, -0.00, -1.00, 378.7, 10.5)">i</text><text xml:space="preserve" font-family="Avenir-Light,Avenir" font-size="34.9" fill="#FEFFFF" transform="matrix(1.00, 0.00, -0.00, -1.00, 387.1, 10.5)">n</text><text xml:space="preserve" font-family="Avenir-Light,Avenir" font-size="34.9" fill="#FEFFFF" transform="matrix(1.00, 0.00, -0.00, -1.00, 406.5, 10.5)">g</text><text xml:space="preserve" font-family="Avenir-Light,Avenir" font-size="34.9" fill="#FEFFFF" transform="matrix(1.00, 0.00, -0.00, -1.00, 427.8, 10.5)"> </text><text xml:space="preserve" font-family="Avenir-Light,Avenir" font-size="34.9" fill="#FEFFFF" transform="matrix(1.00, 0.00, -0.00, -1.00, 436.9, 10.5)">b</text><text xml:space="preserve" font-family="Avenir-Light,Avenir" font-size="34.9" fill="#FEFFFF" transform="matrix(1.00, 0.00, -0.00, -1.00, 458.3, 10.5)">y</text><text xml:space="preserve" font-family="Avenir-Light,Avenir" font-size="34.9" fill="#FEFFFF" transform="matrix(1.00, 0.00, -0.00, -1.00, 474.4, 10.5)"> </text><text xml:space="preserve" font-family="Avenir-Light,Avenir" font-size="34.9" fill="#FEFFFF" transform="matrix(1.00, 0.00, -0.00, -1.00, 483.5, 10.5)">W</text><text xml:space="preserve" font-family="Avenir-Light,Avenir" font-size="34.9" fill="#FEFFFF" transform="matrix(1.00, 0.00, -0.00, -1.00, 515.2, 10.5)">a</text><text xml:space="preserve" font-family="Avenir-Light,Avenir" font-size="34.9" fill="#FEFFFF" transform="matrix(1.00, 0.00, -0.00, -1.00, 533.3, 10.5)">r</text><text xml:space="preserve" font-family="Avenir-Light,Avenir" font-size="34.9" fill="#FEFFFF" transform="matrix(1.00, 0.00, -0.00, -1.00, 544.3, 10.5)">d</text><text xml:space="preserve" font-family="Avenir-Light,Avenir" font-size="34.9" fill="#FEFFFF" transform="matrix(1.00, 0.00, -0.00, -1.00, 565.6, 10.5)"> </text><text xml:space="preserve" font-family="Avenir-Light,Avenir" font-size="34.9" fill="#FEFFFF" transform="matrix(1.00, 0.00, -0.00, -1.00, 574.7, 10.5)">C</text><text xml:space="preserve" font-family="Avenir-Light,Avenir" font-size="34.9" fill="#FEFFFF" transform="matrix(1.00, 0.00, -0.00, -1.00, 599.3, 10.5)">u</text><text xml:space="preserve" font-family="Avenir-Light,Avenir" font-size="34.9" fill="#FEFFFF" transform="matrix(1.00, 0.00, -0.00, -1.00, 618.7, 10.5)">n</text><text xml:space="preserve" font-family="Avenir-Light,Avenir" font-size="34.9" fill="#FEFFFF" transform="matrix(1.00, 0.00, -0.00, -1.00, 638.1, 10.5)">n</text><text xml:space="preserve" font-family="Avenir-Light,Avenir" font-size="34.9" fill="#FEFFFF" transform="matrix(1.00, 0.00, -0.00, -1.00, 657.6, 10.5)">i</text><text xml:space="preserve" font-family="Avenir-Light,Avenir" font-size="34.9" fill="#FEFFFF" transform="matrix(1.00, 0.00, -0.00, -1.00, 665.9, 10.5)">n</text><text xml:space="preserve" font-family="Avenir-Light,Avenir" font-size="34.9" fill="#FEFFFF" transform="matrix(1.00, 0.00, -0.00, -1.00, 685.3, 10.5)">g</text><text xml:space="preserve" font-family="Avenir-Light,Avenir" font-size="34.9" fill="#FEFFFF" transform="matrix(1.00, 0.00, -0.00, -1.00, 706.7, 10.5)">h</text><text xml:space="preserve" font-family="Avenir-Light,Avenir" font-size="34.9" fill="#FEFFFF" transform="matrix(1.00, 0.00, -0.00, -1.00, 726.1, 10.5)">a</text><text xml:space="preserve" font-family="Avenir-Light,Avenir" font-size="34.9" fill="#FEFFFF" transform="matrix(1.00, 0.00, -0.00, -1.00, 744.2, 10.5)">m</text><text xml:space="preserve" font-family="Avenir-Light,Avenir" font-size="34.9" fill="#FEFFFF" transform="matrix(1.00, 0.00, -0.00, -1.00, 774.0, 10.5)"> </text><text xml:space="preserve" font-family="Avenir-Light,Avenir" font-size="34.9" fill="#FEFFFF" transform="matrix(1.00, 0.00, -0.00, -1.00, 783.1, 10.5)">i</text><text xml:space="preserve" font-family="Avenir-Light,Avenir" font-size="34.9" fill="#FEFFFF" transform="matrix(1.00, 0.00, -0.00, -1.00, 791.4, 10.5)">n</text><text xml:space="preserve" font-family="Avenir-Light,Avenir" font-size="34.9" fill="#FEFFFF" transform="matrix(1.00, 0.00, -0.00, -1.00, 810.9, 10.5)"> </text><text xml:space="preserve" font-family="Avenir-Light,Avenir" font-size="34.9" fill="#FEFFFF" transform="matrix(1.00, 0.00, -0.00, -1.00, 819.9, 10.5)">1</text><text xml:space="preserve" font-family="Avenir-Light,Avenir" font-size="34.9" fill="#FEFFFF" transform="matrix(1.00, 0.00, -0.00, -1.00, 838.1, 10.5)">9</text><text xml:space="preserve" font-family="Avenir-Light,Avenir" font-size="34.9" fill="#FEFFFF" transform="matrix(1.00, 0.00, -0.00, -1.00, 856.2, 10.5)">8</text><text xml:space="preserve" font-family="Avenir-Light,Avenir" font-size="34.9" fill="#FEFFFF" transform="matrix(1.00, 0.00, -0.00, -1.00, 874.4, 10.5)">0</text><text xml:space="preserve" font-family="Avenir-Light,Avenir" font-size="34.9" fill="#FEFFFF" transform="matrix(1.00, 0.00, -0.00, -1.00, 892.6, 10.5)">s</text></g></svg>