<?xml version="1.0" encoding="UTF-8"?><svg xmlns="http://www.w3.org/2000/svg" xmlns:xlink="http://www.w3.org/1999/xlink" clip-rule="evenodd" stroke-miterlimit="10" viewBox="0 0 711 131"><desc>SVG generated by Keynote</desc><defs></defs><g transform="matrix(1.00, 0.00, -0.00, -1.00, 0.0, 131.0)"><path d="M 68.7 58.1 C 67.3 58.9 63.6 57.7 62.5 58.5 M 68.7 58.1 C 68.7 58.1 68.7 58.1 68.7 58.1 C 70.1 57.2 64.2 54.6 63.7 53.6 C 63.1 52.6 62.0 53.7 61.3 53.7 C 59.4 53.7 62.0 51.2 58.2 52.0 C 55.3 52.6 52.5 51.4 49.7 51.2 C 47.2 50.9 45.5 51.0 45.9 53.9 C 49.5 56.1 48.9 58.5 48.9 58.5 C 46.0 58.8 39.7 59.3 37.6 58.1 C 37.0 57.8 38.7 50.8 38.2 50.8 C 36.4 50.2 35.7 52.4 33.9 52.4 C 32.0 52.4 31.0 52.7 29.3 51.5 C 29.0 51.2 25.5 51.0 26.9 52.1 C 25.5 52.0 23.4 51.4 22.0 52.0 C 20.8 52.5 20.5 54.8 22.1 55.1 C 21.8 55.4 28.7 56.0 28.8 55.5 C 28.6 57.5 23.1 54.7 21.7 57.6 C 19.8 61.7 23.0 60.0 24.8 61.2 C 26.7 62.3 21.8 64.3 20.0 64.3 C 16.3 64.3 25.5 68.0 21.7 69.1 C 18.0 70.3 21.9 71.3 25.0 73.2 C 27.2 74.5 26.4 76.1 24.7 77.0 C 27.1 76.7 28.5 77.2 30.3 79.5 C 32.7 80.0 31.7 78.4 31.4 77.3 C 30.4 72.6 38.9 78.0 39.3 77.9 C 40.6 77.8 41.6 76.4 43.0 76.9 C 44.0 77.3 43.8 79.4 44.7 79.4 C 46.0 79.3 47.3 79.3 48.6 79.3 C 49.5 79.3 47.3 78.4 48.7 77.0 C 50.2 75.6 48.2 73.0 47.9 72.6 C 48.1 71.0 54.4 77.8 57.9 77.6 C 61.3 77.5 59.1 75.9 61.4 75.8 C 63.5 75.7 62.8 77.7 64.3 77.8 C 65.8 77.8 66.3 76.6 67.6 77.1 C 70.5 78.3 70.5 75.0 68.5 72.5 C 67.5 71.3 65.7 70.4 66.9 68.2 C 68.0 66.1 71.5 67.3 69.8 65.8 C 68.1 64.3 61.0 66.5 60.1 65.2 C 59.1 63.8 66.8 64.2 65.7 62.3 C 64.7 60.5 64.1 62.7 61.6 61.7 C 61.8 60.7 63.0 61.6 63.2 60.4 C 63.4 59.2 61.5 59.3 62.5 58.5 C 63.6 57.7 67.3 58.9 68.7 58.1 C 68.7 58.1 68.7 58.1 68.7 58.1 Z M 34.7 54.0 C 34.7 54.0 34.7 54.0 34.7 54.0 C 34.3 53.5 35.1 53.0 35.9 53.3 C 36.8 53.5 35.1 54.4 34.7 54.0 C 34.7 54.0 34.7 54.0 34.7 54.0 Z M 57.8 79.4 C 57.8 79.4 57.8 79.4 57.8 79.4 C 57.5 79.0 58.2 78.4 59.0 78.7 C 59.9 79.0 58.2 79.8 57.8 79.4 C 57.8 79.4 57.8 79.4 57.8 79.4 Z M 33.0 77.4 C 33.0 77.4 33.0 77.4 33.0 77.4 C 32.7 77.0 33.4 76.4 34.3 76.7 C 35.1 77.0 33.4 77.9 33.0 77.4 C 33.0 77.4 33.0 77.4 33.0 77.4 Z M 43.6 55.2 C 43.6 55.2 43.6 55.2 43.6 55.2 C 44.7 55.1 46.2 56.1 43.7 57.0 C 42.7 57.2 41.8 57.2 41.0 56.9 C 40.1 56.9 38.8 56.7 38.3 56.1 C 40.5 55.6 42.4 53.9 43.6 55.2 C 43.6 55.2 43.6 55.2 43.6 55.2 Z M 44.3 66.2 C 44.3 66.2 44.3 66.2 44.3 66.2 C 44.7 65.5 46.9 65.3 46.7 67.2 C 45.3 67.7 43.9 66.9 44.3 66.2 C 44.3 66.2 44.3 66.2 44.3 66.2 Z M 17.8 58.4 C 17.8 58.4 17.8 58.4 17.8 58.4 C 18.2 57.7 20.4 57.5 20.2 59.4 C 18.8 59.9 17.4 59.1 17.8 58.4 C 17.8 58.4 17.8 58.4 17.8 58.4 Z M 49.6 60.2 C 49.6 60.2 49.6 60.2 49.6 60.2 C 50.9 60.6 51.5 62.3 49.8 62.5 C 49.1 61.7 45.3 61.4 49.6 60.2 C 49.6 60.2 49.6 60.2 49.6 60.2 Z M 58.0 53.9 C 58.0 53.9 58.0 53.9 58.0 53.9 C 58.8 54.3 59.3 54.1 59.1 55.6 C 58.0 55.6 58.3 55.7 57.1 55.8 C 55.3 55.4 54.4 58.9 53.5 56.8 C 52.2 53.9 57.4 52.8 58.0 53.9 C 58.0 53.9 58.0 53.9 58.0 53.9 Z M 52.2 62.9 C 52.2 62.9 52.2 62.9 52.2 62.9 C 52.7 63.0 53.1 63.4 53.2 63.7 C 52.9 64.5 51.8 63.2 52.2 62.9 C 52.2 62.9 52.2 62.9 52.2 62.9 Z M 21.5 72.5 C 21.5 72.5 21.5 72.5 21.5 72.5 C 21.9 72.6 22.4 73.1 22.5 73.3 C 22.1 74.1 21.0 72.9 21.5 72.5 C 21.5 72.5 21.5 72.5 21.5 72.5 Z M 41.0 78.4 C 41.0 78.4 41.0 78.4 41.0 78.4 C 41.4 78.5 41.9 79.0 42.0 79.2 C 41.6 80.0 40.6 78.7 41.0 78.4 C 41.0 78.4 41.0 78.4 41.0 78.4 Z M 33.7 59.0 C 33.7 59.0 33.7 59.0 33.7 59.0 C 32.8 59.8 30.3 57.9 30.6 57.4 C 31.5 55.9 34.6 58.2 33.7 59.0 C 33.7 59.0 33.7 59.0 33.7 59.0 Z M 68.3 53.4 C 68.3 53.4 68.3 53.4 68.3 53.4 C 67.4 54.2 64.9 52.4 65.2 51.9 C 66.1 50.3 69.2 52.7 68.3 53.4 C 68.3 53.4 68.3 53.4 68.3 53.4 Z M 603.7 55.2 C 603.7 55.2 603.7 55.2 603.7 55.2 C 604.4 55.1 605.0 55.0 605.6 54.6 C 605.3 54.5 605.0 54.3 604.8 54.2 C 604.3 54.2 603.8 54.2 603.4 54.2 C 601.3 54.2 604.2 51.7 600.0 52.5 C 597.2 53.0 596.9 52.0 594.1 51.6 C 593.5 51.7 595.2 54.8 595.3 55.3 C 595.6 57.3 593.6 59.8 593.1 59.6 C 592.0 59.8 589.4 60.3 587.4 59.3 C 585.0 59.4 586.3 55.3 586.2 55.3 C 583.2 55.6 584.3 55.0 582.0 54.5 C 580.2 54.6 580.8 57.1 579.0 57.1 C 578.4 57.6 577.8 52.7 573.8 52.7 C 571.7 52.7 570.6 52.9 568.8 51.6 C 568.4 51.3 564.6 51.1 566.2 52.3 C 565.3 52.2 564.0 52.0 563.5 52.7 C 561.9 55.7 566.6 54.5 566.9 55.3 C 567.0 55.6 564.3 56.1 564.6 57.3 C 565.0 58.8 554.9 57.9 558.5 59.6 C 562.4 61.4 561.2 66.1 560.4 66.7 C 559.8 66.7 559.6 64.2 558.3 65.6 C 557.0 67.0 560.3 68.6 560.3 69.6 C 560.3 75.6 560.4 71.8 563.7 73.8 C 565.4 74.8 562.9 76.3 562.1 77.2 C 562.4 77.5 565.2 77.4 565.5 77.7 C 566.9 77.9 566.6 77.2 567.9 78.8 C 568.6 79.6 571.0 78.6 571.3 78.6 C 571.9 78.2 570.0 78.3 569.9 77.5 C 569.1 73.8 572.6 78.2 575.1 78.1 C 577.5 78.0 578.4 77.8 578.8 77.9 C 579.2 77.9 579.0 75.3 579.7 75.5 C 580.6 75.1 581.3 76.3 582.0 77.1 C 582.8 77.9 584.9 76.0 586.0 76.1 C 587.1 76.3 586.9 77.6 589.4 78.4 C 591.9 79.2 591.9 75.4 591.5 74.4 C 590.3 70.9 593.6 77.9 595.4 77.7 C 597.2 77.5 597.1 76.0 598.3 76.1 C 598.9 76.3 599.4 76.7 599.9 77.2 C 600.5 76.4 601.4 76.9 603.2 76.8 C 603.5 76.8 603.7 76.8 603.9 76.8 C 604.0 76.5 601.1 74.9 601.4 74.4 C 602.4 73.1 604.0 75.0 604.6 75.8 C 605.6 74.6 607.0 74.1 608.7 74.7 C 611.8 75.9 611.9 72.6 609.7 70.0 C 608.6 68.8 606.3 67.2 608.0 65.6 C 609.8 64.0 613.1 65.7 611.2 63.2 C 611.0 63.2 611.5 61.9 608.4 62.8 C 605.4 63.8 603.7 62.3 603.7 62.2 C 601.9 62.1 601.7 63.4 600.7 62.4 C 599.7 61.5 602.1 61.4 603.9 61.5 C 604.1 61.0 603.3 60.0 604.9 60.0 C 606.4 59.9 606.4 61.3 607.2 60.4 C 607.9 59.5 607.1 59.9 606.9 59.6 C 608.1 59.4 609.3 59.4 610.5 59.5 C 612.9 59.9 609.0 56.9 608.0 56.7 C 606.2 56.3 604.3 58.5 603.7 55.2 C 603.7 55.2 603.7 55.2 603.7 55.2 Z M 605.3 64.9 C 605.3 64.9 605.3 64.9 605.3 64.9 C 604.7 65.2 602.4 64.7 603.4 64.0 C 604.4 63.4 605.9 64.5 605.3 64.9 C 605.3 64.9 605.3 64.9 605.3 64.9 Z M 588.8 79.9 C 588.8 79.9 588.8 79.9 588.8 79.9 C 588.2 80.2 585.9 79.7 586.9 79.0 C 587.9 78.4 589.4 79.5 588.8 79.9 C 588.8 79.9 588.8 79.9 588.8 79.9 Z M 589.4 53.5 C 589.4 53.5 589.4 53.5 589.4 53.5 C 588.7 54.8 586.7 52.6 587.5 52.0 C 588.3 52.2 589.2 53.0 589.4 53.5 C 589.4 53.5 589.4 53.5 589.4 53.5 Z M 596.4 74.4 C 596.4 74.4 596.4 74.4 596.4 74.4 C 596.1 74.4 595.8 74.4 595.5 74.4 C 595.9 73.7 597.5 73.2 598.1 73.1 C 598.2 74.3 597.1 74.4 596.4 74.4 C 596.4 74.4 596.4 74.4 596.4 74.4 Z M 581.7 53.5 C 581.7 53.5 581.7 53.5 581.7 53.5 C 580.7 54.5 579.7 54.0 578.6 53.9 C 578.4 50.0 582.6 52.5 581.7 53.5 C 581.7 53.5 581.7 53.5 581.7 53.5 Z M 567.9 60.0 C 567.9 60.0 567.9 60.0 567.9 60.0 C 569.5 61.2 565.5 63.2 564.8 62.1 C 564.0 60.9 565.5 60.5 566.6 60.4 C 566.8 60.1 566.3 58.8 567.9 60.0 C 567.9 60.0 567.9 60.0 567.9 60.0 Z M 577.5 75.1 C 577.5 75.1 577.5 75.1 577.5 75.1 C 577.8 74.9 578.1 74.3 578.4 74.7 C 578.6 75.0 578.0 75.6 577.5 75.1 C 577.5 75.1 577.5 75.1 577.5 75.1 Z M 607.2 76.1 C 607.2 76.1 607.2 76.1 607.2 76.1 C 607.5 75.9 607.8 75.3 608.0 75.7 C 608.3 76.0 607.7 76.6 607.2 76.1 C 607.2 76.1 607.2 76.1 607.2 76.1 Z M 569.0 74.4 C 569.0 74.4 569.0 74.4 569.0 74.4 C 568.6 73.3 569.8 73.9 570.3 73.6 C 570.5 74.5 569.4 75.5 569.0 74.4 C 569.0 74.4 569.0 74.4 569.0 74.4 Z M 588.1 56.3 C 588.1 56.3 588.1 56.3 588.1 56.3 C 589.5 54.6 593.2 54.4 593.2 57.6 C 592.1 57.8 591.0 58.3 590.0 58.0 C 589.3 57.9 588.6 56.8 588.1 56.3 C 588.1 56.3 588.1 56.3 588.1 56.3 Z M 599.3 55.7 C 599.3 55.7 599.3 55.7 599.3 55.7 C 600.0 55.1 601.6 55.2 600.7 56.7 C 600.2 57.2 599.6 57.6 599.0 57.7 C 598.3 58.0 597.0 58.9 596.7 58.3 C 596.3 57.7 597.7 55.4 599.3 55.7 C 599.3 55.7 599.3 55.7 599.3 55.7 Z M 581.6 56.9 C 581.6 56.9 581.6 56.9 581.6 56.9 C 581.9 55.9 584.7 55.8 584.7 56.4 C 584.7 56.9 581.3 57.9 581.6 56.9 C 581.6 56.9 581.6 56.9 581.6 56.9 Z M 592.4 53.9 C 592.4 53.9 592.4 53.9 592.4 53.9 C 592.8 53.9 593.2 54.1 592.9 54.3 C 592.7 54.5 592.2 54.5 592.1 54.3 C 591.9 54.1 592.0 53.8 592.4 53.9 C 592.4 53.9 592.4 53.9 592.4 53.9 Z M 573.1 51.2 C 573.1 51.2 573.1 51.2 573.1 51.2 C 573.6 51.3 573.9 51.4 573.6 51.6 C 573.4 51.8 573.0 51.8 572.8 51.6 C 572.6 51.5 572.7 51.1 573.1 51.2 C 573.1 51.2 573.1 51.2 573.1 51.2 Z M 604.6 52.9 C 604.6 52.9 604.6 52.9 604.6 52.9 C 605.0 53.0 605.3 53.1 605.1 53.3 C 604.8 53.5 604.4 53.5 604.2 53.3 C 604.0 53.2 604.2 52.8 604.6 52.9 C 604.6 52.9 604.6 52.9 604.6 52.9 Z M 574.9 54.8 C 574.9 54.8 574.9 54.8 574.9 54.8 C 575.6 55.4 575.6 56.4 574.0 56.5 C 582.4 59.8 570.5 60.6 569.4 58.1 C 567.8 54.4 574.2 53.4 574.9 54.8 C 574.9 54.8 574.9 54.8 574.9 54.8 Z M 83.9 58.2 C 81.9 56.3 77.9 58.0 75.7 57.0 C 73.3 56.1 71.6 53.4 70.6 56.9 C 69.9 59.3 64.1 59.3 64.6 61.6 C 65.0 63.3 65.9 64.6 65.8 66.5 C 65.7 69.8 63.2 70.6 66.2 73.0 C 68.6 74.9 68.3 70.7 70.2 75.0 C 71.5 78.0 74.6 78.2 76.0 75.2 C 77.2 72.3 79.1 70.7 80.7 74.7 C 81.5 76.7 81.5 77.3 83.2 78.0 C 83.8 78.3 87.9 76.4 87.9 76.4 C 87.6 75.7 85.0 73.5 87.2 73.2 C 88.6 73.0 90.7 75.0 90.1 76.8 C 89.2 79.9 97.9 77.4 97.1 76.6 C 97.4 76.8 99.3 80.2 100.1 77.7 C 100.1 77.7 103.8 77.2 104.4 77.2 C 112.1 76.3 99.5 71.2 107.8 71.1 C 113.3 71.0 109.7 75.5 110.0 76.4 C 110.6 78.3 115.1 78.1 116.7 78.3 C 118.0 78.4 119.3 76.3 120.1 75.3 C 121.4 73.9 124.4 74.5 125.4 75.9 C 125.9 76.5 126.8 78.3 127.5 78.5 C 127.5 78.5 130.2 78.7 129.7 78.1 C 129.5 77.9 127.2 76.6 128.2 75.8 C 128.9 75.2 131.3 78.2 132.2 78.4 C 133.9 78.9 133.8 73.7 136.9 76.1 C 139.1 77.8 137.7 77.6 139.2 75.2 C 140.0 73.9 143.3 76.9 143.4 77.9 C 142.4 72.8 145.8 77.3 146.0 76.5 C 145.8 77.1 144.2 77.4 144.3 78.0 C 144.4 78.3 157.3 79.2 157.8 77.5 C 158.3 75.8 156.4 74.2 159.8 74.8 C 160.9 74.9 162.8 76.1 162.6 76.6 C 160.7 77.4 161.3 76.8 159.2 78.0 C 159.2 78.1 163.4 78.6 164.0 78.6 C 166.3 78.7 167.1 77.5 169.1 76.3 C 170.4 75.5 171.5 77.9 173.2 78.0 C 175.1 78.1 176.7 78.2 178.6 77.8 C 180.4 77.3 180.9 77.5 181.0 75.7 C 181.0 74.0 184.5 73.9 185.4 73.0 C 186.2 72.1 186.4 72.2 187.7 73.1 C 189.9 74.7 188.3 74.9 188.6 75.8 C 189.4 79.0 195.1 78.6 197.0 78.1 C 199.1 77.5 195.7 76.0 196.1 75.6 C 197.2 74.9 198.6 75.8 199.7 75.8 C 201.4 75.8 199.8 76.9 200.3 77.4 C 203.0 80.2 204.1 74.4 205.9 74.8 C 208.6 75.5 209.3 79.6 212.4 77.6 C 215.6 75.5 218.2 79.5 221.5 77.8 C 224.1 76.5 228.3 81.1 229.8 76.9 C 230.5 75.0 233.2 72.8 233.2 70.7 C 233.2 70.1 231.5 64.1 230.7 65.1 C 231.2 64.4 233.1 64.6 233.3 63.7 C 233.4 62.9 230.6 61.9 230.2 61.4 C 230.0 61.1 233.4 59.6 233.6 59.0 C 233.9 58.2 227.9 56.7 227.9 53.9 C 227.8 52.7 225.4 51.8 225.5 53.2 C 225.5 53.9 226.5 57.5 227.2 57.4 C 226.9 57.4 223.8 56.5 223.8 56.5 C 224.2 57.0 224.4 57.6 224.5 58.4 C 224.3 58.7 217.5 58.7 217.3 58.3 C 216.6 57.2 217.5 54.0 216.6 53.3 C 216.0 52.8 214.5 54.8 213.6 54.7 C 212.2 54.6 213.7 52.9 212.3 52.5 C 211.9 52.3 204.3 53.6 204.2 54.2 C 204.1 54.4 206.2 57.4 206.2 58.4 C 206.4 60.4 204.2 59.5 203.3 59.4 C 201.9 59.3 196.6 57.5 196.6 54.9 C 196.6 54.1 200.3 53.8 200.8 53.4 C 200.2 53.9 195.3 49.3 193.8 52.5 C 193.6 53.0 195.5 53.2 195.7 53.4 C 195.9 53.8 194.5 56.8 193.5 56.6 C 192.9 56.4 191.5 54.2 190.9 54.9 C 191.2 54.6 188.9 57.6 188.6 56.4 C 188.8 57.1 190.7 59.2 190.2 59.9 C 190.2 59.9 186.3 59.5 185.9 59.4 C 183.2 58.6 184.1 59.6 182.7 60.8 C 181.2 62.0 177.8 63.1 178.4 59.8 C 179.1 56.0 175.9 54.9 175.9 57.8 C 175.9 60.8 175.4 60.1 173.0 59.4 C 170.6 58.7 168.0 59.9 166.0 57.6 C 163.5 54.8 167.5 54.2 166.7 53.1 C 165.8 51.9 163.7 52.1 162.6 52.3 C 160.7 52.8 162.3 54.7 161.6 55.0 C 160.2 55.6 158.8 52.6 157.3 53.1 C 157.2 53.1 155.0 55.0 155.5 55.0 C 149.6 54.6 155.7 56.2 156.5 58.9 C 156.7 59.8 153.1 58.0 154.0 61.3 C 154.9 64.7 149.8 64.6 149.5 63.0 C 149.9 62.6 150.2 62.3 150.5 61.9 C 150.0 60.1 144.8 60.7 144.6 59.2 C 144.5 58.5 151.7 56.2 150.5 54.4 C 149.8 53.3 148.3 55.1 147.9 55.6 C 147.2 56.5 147.0 54.3 146.7 54.0 C 146.9 54.2 143.8 54.3 143.4 55.6 C 143.3 55.9 145.8 56.9 144.9 57.3 C 141.6 58.7 143.4 56.0 141.9 54.3 C 140.9 53.2 135.6 52.1 135.7 52.3 C 135.9 52.6 137.6 53.0 137.3 53.7 C 136.8 54.8 135.1 54.0 134.6 54.9 C 134.5 55.2 136.1 55.7 135.9 56.0 C 135.3 57.0 131.6 56.6 131.5 57.6 C 131.4 58.5 135.1 57.9 135.1 59.1 C 135.1 60.0 133.2 61.5 132.9 59.9 C 132.6 57.9 129.0 60.3 127.9 59.2 C 126.7 58.1 130.1 56.5 127.2 56.1 C 124.0 55.5 126.2 57.2 125.6 58.2 C 123.7 61.1 119.8 51.9 118.7 54.2 C 118.4 55.0 121.6 58.6 118.6 57.8 C 117.2 57.4 110.9 60.8 110.9 57.9 C 110.9 57.2 114.6 56.9 114.4 56.3 C 113.7 55.0 111.3 55.3 110.3 55.0 C 108.6 54.7 109.5 53.2 108.4 52.2 C 107.1 51.1 106.1 54.3 105.0 54.1 C 103.8 53.9 104.9 58.7 105.0 59.3 C 104.6 57.4 101.2 59.9 100.3 58.1 C 98.2 54.1 97.8 55.6 95.1 54.3 C 95.6 54.4 96.0 54.6 96.2 55.2 C 96.0 55.5 94.0 55.7 93.8 55.6 C 94.6 55.9 95.2 56.4 95.6 57.2 C 95.7 57.3 86.9 62.3 86.0 58.1 C 85.9 57.5 85.3 50.5 83.7 52.7 C 83.2 53.4 84.0 58.3 83.9 58.2 M 116.3 55.4 C 116.9 55.3 117.3 55.6 117.5 56.2 C 116.9 56.7 116.2 56.8 115.5 56.4 C 115.4 55.7 115.6 55.4 116.3 55.4 M 116.0 53.1 C 116.6 53.1 117.0 53.3 117.0 53.9 C 113.6 55.4 113.3 50.4 116.4 52.2 C 116.5 52.2 115.6 53.0 116.0 53.1 M 144.7 52.8 C 144.8 53.3 142.1 54.3 142.6 53.0 C 142.8 52.4 144.5 52.3 144.7 52.8 M 150.2 58.2 C 151.1 59.4 149.0 59.5 148.6 58.9 C 148.0 58.0 150.0 57.9 150.2 58.2 M 213.7 56.4 C 214.2 59.1 208.5 63.2 208.1 59.3 C 207.6 54.8 213.0 52.8 213.7 56.4 M 171.7 53.9 C 171.5 54.9 168.9 54.0 169.1 52.8 C 169.4 50.9 172.0 52.7 171.7 53.9 M 169.4 57.1 C 169.1 58.2 167.5 57.5 167.5 56.8 C 167.4 56.1 169.7 55.9 169.4 57.1 M 201.6 56.5 C 201.9 55.7 203.9 56.8 203.3 57.2 C 202.9 57.5 201.3 57.3 201.6 56.5 C 201.6 56.5 201.6 56.5 201.6 56.5 Z M 220.4 56.9 C 220.0 56.6 220.3 55.8 220.7 56.2 C 221.1 56.5 220.8 57.1 220.4 56.9 C 220.4 56.9 220.4 56.9 220.4 56.9 Z M 183.4 57.8 C 181.4 57.6 183.4 55.0 185.5 56.3 C 187.3 57.4 185.7 58.0 183.4 57.8 C 183.4 57.8 183.4 57.8 183.4 57.8 Z M 211.4 76.3 C 211.9 76.6 211.0 77.3 210.5 77.0 C 209.3 76.3 211.0 76.1 211.4 76.3 C 211.4 76.3 211.4 76.3 211.4 76.3 Z M 110.8 61.3 C 111.7 61.9 110.4 62.3 110.0 61.8 C 109.6 61.3 109.9 60.6 110.8 61.3 C 110.8 61.3 110.8 61.3 110.8 61.3 Z M 89.4 56.4 C 90.3 57.1 88.3 57.1 87.9 56.6 C 87.5 56.1 88.5 55.8 89.4 56.4 C 89.4 56.4 89.4 56.4 89.4 56.4 Z M 72.1 71.1 C 73.0 71.8 71.7 72.1 71.3 71.7 C 70.9 71.1 71.2 70.4 72.1 71.1 C 72.1 71.1 72.1 71.1 72.1 71.1 Z M 103.7 68.1 C 104.6 68.7 103.2 69.1 102.9 68.6 C 102.4 68.1 102.8 67.4 103.7 68.1 C 103.7 68.1 103.7 68.1 103.7 68.1 Z M 106.7 58.5 C 105.9 57.4 106.6 53.9 108.6 56.7 C 110.6 59.5 107.6 59.7 106.7 58.5 C 106.7 58.5 106.7 58.5 106.7 58.5 Z M 176.2 75.6 C 176.2 75.6 177.4 74.2 177.7 74.6 C 179.4 76.4 176.2 75.6 176.2 75.6 C 176.2 75.6 176.2 75.6 176.2 75.6 Z M 151.0 61.0 C 151.0 61.0 152.1 60.4 152.3 60.5 C 153.9 61.6 151.0 61.0 151.0 61.0 C 151.0 61.0 151.0 61.0 151.0 61.0 Z M 139.3 51.5 C 139.3 51.5 140.3 50.8 140.5 50.9 C 142.1 52.0 139.3 51.5 139.3 51.5 C 139.3 51.5 139.3 51.5 139.3 51.5 Z M 89.8 54.5 C 87.5 54.0 89.4 52.6 91.2 53.2 C 92.7 53.6 92.1 54.9 89.8 54.5 C 89.8 54.5 89.8 54.5 89.8 54.5 Z M 97.4 59.9 C 95.3 57.8 97.5 56.9 99.0 58.7 C 100.3 60.3 99.5 61.9 97.4 59.9 C 97.4 59.9 97.4 59.9 97.4 59.9 Z M 88.4 61.7 C 88.9 61.6 89.0 61.8 88.9 62.4 C 88.4 63.2 86.5 62.8 86.0 62.1 C 85.2 60.7 88.4 61.7 88.4 61.7 M 93.6 71.9 C 97.4 68.6 93.9 76.7 93.3 75.9 C 92.7 74.9 92.7 72.6 93.6 71.9 C 93.6 71.9 93.6 71.9 93.6 71.9 Z M 126.5 74.5 C 127.3 73.7 128.6 74.7 127.8 75.4 C 127.2 75.9 125.8 75.4 126.5 74.5 C 126.5 74.5 126.5 74.5 126.5 74.5 Z M 123.1 55.2 C 123.5 54.7 125.6 55.0 124.8 55.7 C 124.2 56.1 122.3 56.0 123.1 55.2 C 123.1 55.2 123.1 55.2 123.1 55.2 Z M 73.4 53.7 C 73.8 53.3 75.9 53.5 75.1 54.2 C 74.6 54.7 72.6 54.5 73.4 53.7 C 73.4 53.7 73.4 53.7 73.4 53.7 Z M 145.7 68.1 C 147.3 66.8 148.6 68.5 147.3 69.1 C 146.0 69.7 144.1 69.3 145.7 68.1 C 145.7 68.1 145.7 68.1 145.7 68.1 Z M 180.1 60.4 C 180.8 59.7 181.6 60.8 180.9 60.9 C 180.2 61.1 179.7 60.7 180.1 60.4 C 180.1 60.4 180.1 60.4 180.1 60.4 Z M 186.5 57.7 C 187.0 57.3 187.7 57.9 187.1 58.0 C 186.3 58.2 186.1 57.9 186.5 57.7 C 186.5 57.7 186.5 57.7 186.5 57.7 Z M 213.1 64.5 C 214.2 63.7 216.0 65.0 214.4 65.3 C 212.8 65.6 212.2 65.1 213.1 64.5 C 213.1 64.5 213.1 64.5 213.1 64.5 Z M 192.3 54.5 C 192.8 54.1 193.5 54.7 192.9 54.9 C 192.2 55.0 191.9 54.8 192.3 54.5 C 192.3 54.5 192.3 54.5 192.3 54.5 Z M 210.7 56.2 C 211.8 55.3 212.8 56.8 211.9 56.9 C 210.9 57.1 210.2 56.7 210.7 56.2 C 210.7 56.2 210.7 56.2 210.7 56.2 Z M 208.2 50.5 C 209.2 49.5 210.2 51.0 209.3 51.2 C 208.4 51.4 207.7 50.9 208.2 50.5 C 208.2 50.5 208.2 50.5 208.2 50.5 Z M 167.1 79.4 C 168.2 78.5 169.2 80.0 168.3 80.1 C 167.3 80.3 166.6 79.9 167.1 79.4 C 167.1 79.4 167.1 79.4 167.1 79.4 Z M 99.9 52.3 C 101.8 52.1 102.4 53.1 101.3 54.0 C 100.2 55.0 98.0 52.4 99.9 52.3 C 99.9 52.3 99.9 52.3 99.9 52.3 Z M 209.3 58.8 C 209.8 58.2 210.3 59.0 209.8 59.3 C 209.4 59.5 208.7 59.4 209.3 58.8 C 209.3 58.8 209.3 58.8 209.3 58.8 Z M 164.2 64.0 C 164.5 64.6 164.6 65.1 164.2 65.5 C 163.1 65.4 161.7 63.4 162.1 61.9 C 162.4 60.5 166.2 62.5 165.3 63.8 C 165.1 64.1 163.9 63.2 164.2 64.0 M 170.3 73.4 C 171.0 74.0 170.2 74.7 169.5 74.0 C 168.7 73.1 169.5 72.8 170.3 73.4 C 170.3 73.4 170.3 73.4 170.3 73.4 Z M 149.8 76.9 C 150.6 77.5 149.7 78.2 149.1 77.5 C 148.3 76.6 149.1 76.3 149.8 76.9 C 149.8 76.9 149.8 76.9 149.8 76.9 Z M 189.1 53.4 C 190.1 53.5 189.0 52.7 189.4 52.4 C 190.0 52.4 190.5 52.7 191.0 53.3 C 191.5 54.8 188.5 53.8 188.3 53.5 C 188.5 53.5 188.8 53.4 189.1 53.4 M 213.3 74.4 C 214.4 74.5 213.3 73.7 213.6 73.4 C 214.2 73.4 214.8 73.7 215.2 74.3 C 215.7 75.8 212.7 74.8 212.6 74.5 C 212.8 74.5 213.1 74.4 213.3 74.4 M 66.9 55.8 C 67.1 56.3 64.4 57.3 64.9 56.0 C 65.1 55.4 66.7 55.3 66.9 55.8 M 145.3 79.9 C 145.5 80.3 142.8 81.3 143.2 80.0 C 143.4 79.5 145.1 79.3 145.3 79.9 M 154.8 72.7 C 155.9 72.8 154.8 72.0 155.1 71.7 C 155.7 71.7 156.3 72.0 156.7 72.6 C 157.2 74.1 154.2 73.1 154.0 72.8 C 154.3 72.8 154.5 72.7 154.8 72.7 M 199.3 74.2 C 199.2 73.6 200.6 73.6 200.2 74.3 C 199.8 74.7 199.4 74.7 199.3 74.2 C 199.3 74.2 199.3 74.2 199.3 74.2 Z M 131.8 55.8 C 131.7 55.2 133.4 55.7 132.6 56.1 C 132.1 56.3 131.9 56.4 131.8 55.8 C 131.8 55.8 131.8 55.8 131.8 55.8 Z M 156.7 62.5 C 155.9 63.3 155.9 61.8 156.2 61.2 C 157.1 59.6 158.5 63.1 158.1 63.2 C 157.7 63.2 156.9 62.3 156.7 62.5 M 124.5 63.4 C 123.0 64.7 123.4 58.5 126.0 62.1 C 128.5 65.6 124.8 63.1 124.5 63.4 M 223.9 75.7 C 224.5 75.1 221.1 74.3 221.5 73.7 C 222.4 72.3 225.2 75.1 225.2 76.4 C 225.2 76.8 222.8 76.8 223.9 75.7 M 196.5 59.5 C 197.1 58.8 193.7 58.1 194.0 57.5 C 194.9 56.1 197.8 58.9 197.8 60.2 C 197.8 60.5 195.4 60.6 196.5 59.5 M 136.8 58.6 C 136.0 58.5 137.9 56.4 138.7 57.8 C 140.1 60.2 137.4 58.6 136.8 58.6 M 79.9 55.3 C 79.3 55.5 78.9 55.3 78.6 54.7 C 78.2 53.9 80.9 53.7 80.7 54.0 C 80.4 54.5 80.1 54.9 79.9 55.3 M 185.8 74.4 C 186.2 73.3 187.3 74.8 186.6 75.1 C 185.8 75.5 185.3 75.5 185.8 74.4 C 185.8 74.4 185.8 74.4 185.8 74.4 Z M 97.0 80.0 C 97.5 78.9 98.6 80.5 97.9 80.8 C 97.0 81.1 96.6 81.1 97.0 80.0 C 97.0 80.0 97.0 80.0 97.0 80.0 Z M 231.0 54.5 C 231.4 53.6 232.6 54.8 231.9 55.0 C 231.0 55.3 230.6 55.3 231.0 54.5 C 231.0 54.5 231.0 54.5 231.0 54.5 Z M 193.1 62.4 C 193.4 62.2 195.3 62.9 193.8 63.7 C 192.9 64.2 192.8 62.7 193.1 62.4 C 193.1 62.4 193.1 62.4 193.1 62.4 Z M 220.4 53.5 C 220.9 53.2 223.4 54.0 221.3 54.9 C 220.1 55.4 220.0 53.9 220.4 53.5 C 220.4 53.5 220.4 53.5 220.4 53.5 Z M 175.9 67.5 C 176.3 67.0 176.9 67.6 176.2 68.0 C 175.7 68.3 175.5 68.0 175.9 67.5 C 175.9 67.5 175.9 67.5 175.9 67.5 Z M 172.4 51.0 C 172.8 50.5 173.4 51.1 172.7 51.5 C 172.2 51.7 172.0 51.5 172.4 51.0 C 172.4 51.0 172.4 51.0 172.4 51.0 Z M 153.5 58.0 C 153.9 57.5 154.5 58.1 153.8 58.5 C 153.3 58.8 153.1 58.5 153.5 58.0 C 153.5 58.0 153.5 58.0 153.5 58.0 Z M 181.0 52.3 C 183.7 51.4 185.5 52.3 182.2 54.3 C 180.2 55.5 180.3 52.5 181.0 52.3 C 181.0 52.3 181.0 52.3 181.0 52.3 Z M 161.5 68.8 C 162.1 68.3 162.4 69.0 161.8 69.3 C 161.4 69.4 160.9 69.2 161.5 68.8 C 161.5 68.8 161.5 68.8 161.5 68.8 Z M 159.9 57.1 C 158.1 55.8 165.7 54.7 164.5 58.1 C 163.0 62.5 160.7 57.7 159.9 57.1 M 128.5 53.2 C 127.8 52.5 130.1 52.2 130.0 53.5 C 129.9 55.9 128.7 53.4 128.5 53.2 M 116.0 74.9 C 116.0 74.9 116.5 76.1 115.9 75.8 C 114.8 75.3 116.0 74.9 116.0 74.9 C 116.0 74.9 116.0 74.9 116.0 74.9 Z M 119.3 73.2 C 119.7 72.4 121.6 73.4 120.4 73.7 C 119.7 74.0 118.8 74.0 119.3 73.2 C 119.3 73.2 119.3 73.2 119.3 73.2 Z M 120.8 52.2 C 121.0 51.9 121.9 52.3 121.3 52.5 C 121.0 52.6 120.6 52.6 120.8 52.2 C 120.8 52.2 120.8 52.2 120.8 52.2 Z M 119.7 79.4 C 120.2 78.8 122.0 79.6 120.8 79.8 C 120.2 80.0 119.3 80.0 119.7 79.4 C 119.7 79.4 119.7 79.4 119.7 79.4 Z M 168.1 51.4 C 168.3 51.1 169.1 51.5 168.6 51.7 C 168.3 51.7 167.9 51.7 168.1 51.4 C 168.1 51.4 168.1 51.4 168.1 51.4 Z M 225.9 51.2 C 226.1 50.9 226.9 51.3 226.4 51.5 C 226.1 51.5 225.7 51.5 225.9 51.2 C 225.9 51.2 225.9 51.2 225.9 51.2 Z M 81.5 72.6 C 81.9 71.7 83.7 72.9 82.5 73.3 C 81.9 73.5 81.1 73.5 81.5 72.6 C 81.5 72.6 81.5 72.6 81.5 72.6 Z M 174.1 57.9 C 174.6 57.0 176.0 58.2 174.7 58.7 C 174.0 58.9 173.6 58.9 174.1 57.9 C 174.1 57.9 174.1 57.9 174.1 57.9 Z M 107.8 73.9 C 108.3 73.0 109.7 74.2 108.4 74.6 C 107.6 74.8 107.3 74.9 107.8 73.9 C 107.8 73.9 107.8 73.9 107.8 73.9 Z M 170.4 56.6 C 170.7 56.0 171.5 56.5 170.8 56.8 C 170.4 56.9 170.1 57.1 170.4 56.6 C 170.4 56.6 170.4 56.6 170.4 56.6 Z M 184.0 75.8 C 184.3 75.2 185.2 75.7 184.4 76.0 C 184.0 76.1 183.7 76.3 184.0 75.8 C 184.0 75.8 184.0 75.8 184.0 75.8 Z M 196.4 79.5 C 196.7 78.9 197.6 79.4 196.8 79.7 C 196.4 79.8 196.1 80.0 196.4 79.5 C 196.4 79.5 196.4 79.5 196.4 79.5 Z M 183.1 64.2 C 183.4 63.8 184.6 64.4 183.8 64.6 C 183.4 64.7 182.8 64.7 183.1 64.2 C 183.1 64.2 183.1 64.2 183.1 64.2 Z M 103.7 66.8 C 102.5 66.9 100.8 65.2 100.5 63.5 C 100.7 64.8 104.7 63.6 105.1 63.8 C 105.6 64.0 104.9 66.6 103.7 66.8 M 187.0 65.6 C 179.5 66.5 183.5 60.7 188.4 62.6 C 188.8 62.8 188.1 65.5 187.0 65.6 C 188.8 62.8 188.1 65.5 187.0 65.6 C 188.8 62.8 188.1 65.5 187.0 65.6 C 188.8 62.8 188.1 65.5 187.0 65.6 M 236.7 51.8 C 232.4 52.4 235.3 52.7 233.3 55.5 C 232.9 56.0 229.6 58.2 229.9 59.0 C 230.5 60.2 232.8 58.8 233.4 59.8 C 234.7 62.1 230.8 62.5 230.4 63.5 C 229.3 66.0 231.5 68.5 233.0 69.9 C 235.0 71.9 234.5 68.5 235.8 67.9 C 236.7 67.5 236.3 70.6 236.2 71.2 C 235.7 74.0 233.2 72.1 234.0 76.1 C 234.5 78.6 234.6 79.7 237.0 78.7 C 238.8 78.0 238.6 75.2 239.3 73.3 C 239.6 72.4 245.6 73.0 244.1 75.2 C 243.1 76.7 242.5 78.1 244.8 78.0 C 245.5 77.7 246.2 77.2 246.8 76.5 C 247.8 75.6 248.6 77.2 249.9 76.4 C 252.6 74.8 256.4 80.1 259.9 78.3 C 260.5 78.1 263.6 72.8 265.1 77.4 C 266.0 77.7 266.1 75.0 266.7 75.0 C 268.7 75.1 268.2 77.0 268.8 77.5 C 270.2 77.8 275.5 73.9 275.6 76.4 C 275.8 80.3 281.2 78.4 281.4 77.6 C 281.6 77.2 286.3 78.2 288.8 77.7 C 288.5 77.4 288.2 77.2 287.9 77.0 C 288.3 77.0 289.0 76.5 289.2 76.5 C 288.3 76.5 285.0 75.1 284.3 74.3 C 284.1 73.9 290.7 71.7 290.3 74.5 C 290.1 75.9 289.9 76.9 291.6 76.3 C 293.9 75.5 291.8 77.3 293.4 77.9 C 296.0 78.8 296.4 74.8 298.5 77.1 C 300.0 78.7 300.0 77.3 301.6 76.8 C 304.4 76.0 304.6 79.0 307.0 78.7 C 307.3 78.6 312.4 78.4 311.1 77.0 C 310.2 76.0 307.7 75.7 307.0 74.3 C 305.7 71.4 312.5 74.9 311.8 74.7 C 313.3 75.0 316.7 71.5 317.6 72.4 C 318.4 73.1 314.5 76.0 314.1 76.4 C 312.5 78.0 319.2 77.5 319.0 77.5 C 320.0 77.8 321.3 76.3 322.0 76.8 C 323.2 77.7 323.2 78.1 324.7 77.9 C 325.7 77.8 326.3 77.9 327.4 77.9 C 328.7 77.9 329.0 75.2 330.1 74.3 C 331.9 72.9 331.8 75.7 332.8 76.2 C 335.1 77.3 340.1 74.1 340.9 76.4 C 341.8 79.1 345.0 72.6 347.2 75.4 C 347.9 76.4 350.2 77.1 350.6 76.4 C 349.7 78.0 354.1 77.9 355.0 78.0 C 356.1 78.3 356.9 76.9 357.9 76.4 C 359.1 75.7 360.1 77.5 361.2 78.1 C 363.5 79.6 362.1 74.6 364.0 76.3 C 367.1 79.1 365.3 71.9 366.3 71.6 C 366.7 71.4 368.6 76.1 369.0 76.7 C 369.8 77.6 369.7 74.9 370.3 75.8 C 371.2 76.9 372.6 78.7 373.8 76.9 C 374.4 76.2 373.4 73.2 374.4 73.5 C 374.6 73.6 376.2 74.9 376.3 74.4 C 376.7 69.2 379.6 79.3 376.7 77.3 C 378.0 78.2 385.5 78.9 385.6 76.6 C 385.6 75.5 382.2 75.2 382.8 74.0 C 383.9 71.6 389.7 75.3 387.8 76.4 C 389.1 75.6 392.2 79.1 394.2 77.6 C 394.5 77.3 396.1 78.0 396.2 77.5 C 396.3 76.7 396.0 74.7 396.5 74.1 C 397.6 72.8 400.4 71.4 399.8 69.1 C 399.6 68.5 396.5 60.0 396.3 60.6 C 396.6 59.7 398.6 59.9 398.7 58.7 C 398.8 56.7 393.1 59.1 393.8 56.3 C 393.8 56.3 391.8 55.8 391.7 55.1 C 391.4 52.9 392.2 53.6 390.1 53.3 C 388.3 53.0 389.7 53.7 389.0 55.0 C 388.5 55.7 387.0 51.6 384.5 53.8 C 386.7 54.3 385.8 55.4 386.9 57.0 C 388.6 59.3 385.1 59.4 384.2 59.6 C 380.5 60.3 379.0 58.9 376.0 56.9 C 374.3 55.8 378.8 49.5 375.3 53.5 C 373.8 55.2 367.3 53.7 365.2 54.7 C 365.3 54.6 367.0 56.0 367.0 56.3 C 367.3 60.6 359.7 56.9 358.6 55.9 C 356.9 54.4 357.2 55.9 358.0 57.5 C 359.2 59.7 357.1 59.9 355.8 59.8 C 355.1 59.8 353.1 59.2 352.5 59.8 C 351.7 60.7 349.2 54.7 348.4 54.2 C 346.7 53.1 346.4 55.7 344.3 54.6 C 344.0 54.5 339.6 51.4 339.6 52.6 C 339.7 55.2 347.5 56.5 340.9 57.7 C 340.5 57.8 332.8 58.4 333.7 56.9 C 334.1 56.2 335.1 56.6 335.7 56.3 C 333.3 57.5 332.2 51.0 328.6 52.7 C 326.9 53.5 318.6 51.9 321.4 55.3 C 324.0 58.3 320.5 59.9 318.2 58.1 C 316.2 56.4 315.6 55.9 313.5 57.5 C 313.2 57.8 308.3 58.8 308.8 57.1 C 309.1 56.0 310.9 56.6 311.1 54.8 C 311.2 53.7 310.1 52.8 309.3 53.3 C 308.4 53.8 308.3 55.3 307.7 56.1 C 307.5 56.3 305.4 55.2 305.1 55.2 C 303.8 55.0 301.9 55.4 300.7 54.5 C 299.8 53.9 301.4 52.7 300.8 52.2 C 297.3 49.6 300.9 57.3 301.0 56.9 C 301.0 57.1 296.7 59.3 296.2 59.4 C 293.1 60.0 292.1 58.2 291.4 55.1 C 291.3 54.5 295.6 53.8 295.6 53.8 C 293.1 49.6 289.8 53.0 287.0 52.4 C 286.2 52.3 280.8 50.2 281.9 53.8 C 282.5 55.9 280.6 55.0 279.8 55.1 C 280.1 55.1 283.1 58.4 283.7 58.9 C 281.5 59.2 279.3 59.7 277.1 59.7 C 275.9 59.7 274.3 59.9 273.2 59.3 C 272.6 59.0 272.1 56.1 270.7 57.2 C 271.5 56.5 272.7 56.2 273.7 55.8 C 272.7 55.5 270.2 50.9 268.7 53.1 C 268.2 53.8 269.2 54.9 268.0 55.2 C 266.9 55.4 265.6 55.4 264.5 56.0 C 263.5 56.5 264.0 61.5 260.3 59.2 C 260.5 59.3 258.9 55.7 258.9 55.9 C 258.6 54.1 258.3 53.3 256.6 53.2 C 257.7 53.2 257.4 59.1 255.1 59.6 C 252.8 60.1 247.8 59.8 248.1 55.6 C 246.5 54.7 245.1 52.1 242.8 54.6 C 241.4 56.1 238.2 56.9 236.5 55.1 C 236.0 54.6 238.5 53.9 238.7 53.5 C 239.0 52.8 237.0 51.7 236.7 51.8 M 241.0 52.9 C 241.6 53.9 238.5 53.5 239.5 52.1 C 240.1 52.0 240.6 52.2 241.0 52.9 M 239.2 54.9 C 238.7 55.4 238.6 54.6 238.8 54.5 C 239.1 54.3 239.7 54.4 239.2 54.9 C 239.2 54.9 239.2 54.9 239.2 54.9 Z M 262.7 56.4 C 261.4 56.6 261.5 56.1 262.3 55.5 C 263.1 54.8 263.9 56.1 262.7 56.4 C 262.7 56.4 262.7 56.4 262.7 56.4 Z M 281.2 80.1 C 280.0 80.4 280.0 79.8 280.8 79.2 C 281.6 78.6 282.4 79.9 281.2 80.1 C 281.2 80.1 281.2 80.1 281.2 80.1 Z M 278.3 56.9 C 278.3 57.2 277.8 57.2 277.8 56.8 C 277.8 56.4 278.3 56.6 278.3 56.9 C 278.3 56.9 278.3 56.9 278.3 56.9 Z M 254.3 57.9 C 254.3 58.2 253.7 58.1 253.7 57.8 C 253.7 57.4 254.3 57.5 254.3 57.9 C 254.3 57.9 254.3 57.9 254.3 57.9 Z M 276.9 53.4 C 277.6 53.8 275.9 56.1 274.7 52.7 C 274.4 51.9 277.0 52.7 277.2 52.9 C 277.4 53.1 276.3 53.1 276.9 53.4 M 297.3 52.0 C 297.8 52.2 298.0 52.6 297.7 53.3 C 297.7 53.4 295.7 52.4 297.3 52.0 M 342.3 79.9 C 342.8 80.1 343.0 80.5 342.7 81.1 C 342.7 81.3 340.7 80.3 342.3 79.9 M 346.0 51.8 C 346.6 51.3 347.7 52.7 347.4 53.0 C 346.9 53.6 345.0 52.6 346.0 51.8 M 317.6 55.6 C 317.9 55.3 321.1 55.5 320.5 56.2 C 319.8 56.9 317.4 55.7 317.6 55.6 M 362.4 53.8 C 361.7 53.4 360.9 53.1 360.3 52.7 C 360.0 52.5 364.9 51.2 364.9 52.8 C 364.9 53.9 362.8 53.9 362.4 53.8 M 370.0 51.7 C 370.4 51.3 372.3 51.9 372.1 52.7 C 371.9 53.9 369.3 52.4 370.0 51.7 M 334.7 53.0 C 335.1 53.2 334.7 53.9 334.2 53.8 C 333.4 53.6 334.2 52.9 334.7 53.0 C 334.7 53.0 334.7 53.0 334.7 53.0 Z M 315.0 54.2 C 314.7 54.2 312.5 53.5 313.1 52.8 C 314.6 51.0 320.3 52.9 315.0 54.2 M 265.5 52.9 C 265.4 52.9 267.2 51.8 267.5 53.7 C 267.9 56.3 265.5 53.1 265.5 52.9 M 256.2 54.9 C 256.8 55.1 256.4 55.8 255.9 55.5 C 255.3 55.2 255.6 54.8 256.2 54.9 C 256.2 54.9 256.2 54.9 256.2 54.9 Z M 349.8 53.5 C 350.5 54.0 348.9 54.3 348.9 53.8 C 348.9 53.4 349.1 53.1 349.8 53.5 C 349.8 53.5 349.8 53.5 349.8 53.5 Z M 358.9 52.9 C 359.6 53.3 358.0 53.6 358.0 53.2 C 358.0 52.7 358.2 52.5 358.9 52.9 C 358.9 52.9 358.9 52.9 358.9 52.9 Z M 373.9 79.0 C 374.6 79.4 373.0 79.7 373.0 79.2 C 373.0 78.8 373.2 78.5 373.9 79.0 C 373.9 79.0 373.9 79.0 373.9 79.0 Z M 263.0 65.8 C 262.5 66.2 262.1 66.0 261.9 65.3 C 262.0 64.7 262.3 64.4 262.8 64.3 C 262.1 64.4 258.9 63.9 260.6 62.5 C 262.1 61.2 263.7 63.4 265.1 62.8 C 265.7 62.6 266.2 60.9 266.1 60.6 C 266.2 60.7 267.5 61.3 268.1 63.6 C 268.7 66.3 263.8 65.2 263.0 65.8 M 309.0 62.1 C 309.3 62.2 312.0 62.6 311.9 63.0 C 311.0 67.1 304.3 62.7 305.5 59.1 C 306.9 54.6 310.0 62.5 309.0 62.1 M 371.2 57.5 C 369.1 57.5 374.0 59.4 373.7 60.5 C 373.4 62.3 369.4 59.1 369.0 58.5 C 366.6 54.6 372.9 54.8 373.2 56.9 C 372.7 57.5 372.0 57.7 371.2 57.5 M 383.5 55.7 C 384.5 56.5 379.5 57.2 379.0 56.8 C 378.1 56.3 378.6 54.6 379.2 54.1 C 380.9 52.4 382.3 54.5 383.5 55.7 M 297.6 56.3 C 299.1 57.9 293.1 58.9 293.5 56.6 C 293.7 55.5 297.1 55.8 297.6 56.3 M 335.1 71.0 C 334.3 69.8 339.0 70.1 339.3 69.9 C 339.9 69.6 337.6 67.1 338.1 67.3 C 340.3 67.8 350.7 68.2 342.4 70.5 C 340.8 71.0 339.4 73.8 337.8 74.2 C 334.4 75.1 336.4 73.0 335.1 71.0 M 242.9 57.9 C 244.3 58.2 243.3 55.8 244.2 55.4 C 245.3 54.9 246.6 57.8 245.8 58.8 C 242.7 62.5 238.0 56.5 242.9 57.9 M 266.6 58.6 C 265.5 58.2 266.1 57.3 266.8 57.5 C 267.6 57.6 267.8 58.9 266.6 58.6 C 266.6 58.6 266.6 58.6 266.6 58.6 Z M 276.0 57.3 C 276.5 57.2 277.7 58.3 277.4 59.2 C 276.8 60.3 273.9 57.6 276.0 57.3 M 246.7 50.9 C 247.2 50.9 248.4 52.0 248.0 52.8 C 247.5 54.0 244.6 51.2 246.7 50.9 M 334.9 62.9 C 335.5 62.8 336.7 63.9 336.3 64.7 C 335.8 65.9 332.9 63.2 334.9 62.9 M 315.8 57.7 C 317.4 57.4 319.1 61.6 317.4 61.2 C 316.3 61.0 312.8 58.1 315.8 57.7 M 293.4 72.6 C 293.8 72.7 294.1 72.8 294.4 72.9 C 296.2 76.3 287.7 72.9 293.4 72.6 M 330.8 54.7 C 333.8 54.5 331.8 60.3 330.2 60.1 C 326.5 59.8 328.1 55.0 330.8 54.7 M 311.3 56.9 C 310.7 56.4 312.0 55.7 312.7 56.9 C 312.9 57.2 311.9 57.4 311.3 56.9 C 311.3 56.9 311.3 56.9 311.3 56.9 Z M 337.5 71.9 C 337.7 72.4 337.2 72.8 337.0 72.2 C 336.8 71.7 337.3 71.4 337.5 71.9 C 337.5 71.9 337.5 71.9 337.5 71.9 Z M 340.3 71.5 C 340.8 71.7 339.9 72.5 339.4 72.1 C 338.6 71.4 339.8 71.3 340.3 71.5 C 340.3 71.5 340.3 71.5 340.3 71.5 Z M 338.8 53.9 C 339.3 54.0 338.4 54.9 337.9 54.5 C 337.1 53.8 338.3 53.7 338.8 53.9 C 338.8 53.9 338.8 53.9 338.8 53.9 Z M 255.6 75.3 C 258.2 74.9 258.1 76.1 255.9 76.0 C 254.6 75.8 252.9 75.6 255.6 75.3 C 255.6 75.3 255.6 75.3 255.6 75.3 Z M 284.3 53.5 C 288.3 52.7 288.3 59.3 284.3 57.7 C 284.3 57.7 280.3 54.3 284.3 53.5 C 284.3 53.5 284.3 53.5 284.3 53.5 Z M 296.5 63.1 C 296.9 62.7 297.2 64.1 296.5 64.4 C 296.0 64.7 296.1 63.6 296.5 63.1 C 296.5 63.1 296.5 63.1 296.5 63.1 Z M 326.7 50.2 C 327.1 49.7 327.3 51.1 326.7 51.4 C 326.2 51.7 326.3 50.6 326.7 50.2 C 326.7 50.2 326.7 50.2 326.7 50.2 Z M 258.8 76.2 C 259.2 75.8 259.5 77.2 258.8 77.5 C 258.3 77.8 258.4 76.7 258.8 76.2 C 258.8 76.2 258.8 76.2 258.8 76.2 Z M 357.2 57.9 C 357.6 57.4 357.9 58.8 357.2 59.1 C 356.7 59.4 356.8 58.3 357.2 57.9 C 357.2 57.9 357.2 57.9 357.2 57.9 Z M 320.0 73.0 C 319.5 71.7 322.6 72.2 321.2 72.8 C 319.7 73.4 320.5 74.3 320.0 73.0 C 320.0 73.0 320.0 73.0 320.0 73.0 Z M 329.6 73.1 C 329.4 72.3 330.8 72.1 330.4 72.9 C 330.2 73.5 329.8 73.8 329.6 73.1 C 329.6 73.1 329.6 73.1 329.6 73.1 Z M 372.5 51.1 C 372.3 50.3 373.6 50.1 373.2 50.9 C 373.0 51.5 372.7 51.9 372.5 51.1 C 372.5 51.1 372.5 51.1 372.5 51.1 Z M 354.3 80.0 C 354.1 79.3 355.5 79.1 355.1 79.9 C 354.9 80.4 354.5 80.8 354.3 80.0 C 354.3 80.0 354.3 80.0 354.3 80.0 Z M 362.5 71.4 C 363.4 71.8 362.8 72.7 362.1 71.7 C 361.6 71.0 361.5 70.9 362.5 71.4 C 362.5 71.4 362.5 71.4 362.5 71.4 Z M 337.0 55.7 C 337.1 54.9 343.2 55.4 340.3 56.3 C 338.8 56.9 336.9 57.2 337.0 55.7 C 337.0 55.7 337.0 55.7 337.0 55.7 Z M 386.4 69.0 C 387.0 68.4 387.6 69.7 387.2 70.4 C 387.2 70.4 385.8 69.6 386.4 69.0 C 386.4 69.0 386.4 69.0 386.4 69.0 Z M 391.3 58.9 C 391.9 58.3 392.5 59.6 392.1 60.3 C 392.1 60.3 390.7 59.5 391.3 58.9 C 391.3 58.9 391.3 58.9 391.3 58.9 Z M 393.8 53.5 C 394.4 52.9 395.0 54.2 394.6 55.0 C 394.6 55.0 393.2 54.1 393.8 53.5 C 393.8 53.5 393.8 53.5 393.8 53.5 Z M 275.8 68.1 C 274.6 69.0 275.1 67.1 275.1 67.1 C 277.0 67.3 277.0 67.3 275.8 68.1 C 275.8 68.1 275.8 68.1 275.8 68.1 Z M 272.0 51.7 C 271.5 52.1 271.7 51.3 271.7 51.3 C 272.5 51.4 272.5 51.4 272.0 51.7 C 272.0 51.7 272.0 51.7 272.0 51.7 Z M 285.1 50.9 C 284.6 51.3 284.8 50.5 284.8 50.5 C 285.6 50.6 285.6 50.6 285.1 50.9 C 285.1 50.9 285.1 50.9 285.1 50.9 Z M 273.4 78.1 C 272.7 78.5 273.0 77.5 273.0 77.5 C 274.2 77.6 274.2 77.6 273.4 78.1 C 273.4 78.1 273.4 78.1 273.4 78.1 Z M 322.6 64.1 C 321.5 64.9 322.0 63.2 322.0 63.2 C 323.7 63.4 323.7 63.4 322.6 64.1 C 322.6 64.1 322.6 64.1 322.6 64.1 Z M 327.2 70.7 C 326.1 71.5 326.5 69.8 326.5 69.8 C 328.3 70.0 328.3 70.0 327.2 70.7 C 327.2 70.7 327.2 70.7 327.2 70.7 Z M 315.9 79.6 C 315.4 79.9 315.6 79.2 315.6 79.2 C 316.4 79.2 316.4 79.2 315.9 79.6 C 315.9 79.6 315.9 79.6 315.9 79.6 Z M 330.8 76.5 C 330.3 76.8 330.5 76.1 330.5 76.1 C 331.3 76.2 331.3 76.2 330.8 76.5 C 330.8 76.5 330.8 76.5 330.8 76.5 Z M 240.5 75.0 C 241.4 74.9 241.4 75.7 240.4 75.5 C 239.8 75.5 239.6 75.1 240.5 75.0 C 240.5 75.0 240.5 75.0 240.5 75.0 Z M 239.5 62.4 C 240.9 62.3 241.0 64.1 238.9 63.7 C 237.8 63.5 238.0 62.6 239.5 62.4 C 239.5 62.4 239.5 62.4 239.5 62.4 Z M 324.1 55.0 C 323.6 54.8 325.3 54.3 325.4 54.3 C 326.1 54.4 326.3 55.9 326.5 56.0 C 325.8 55.6 324.8 55.3 324.1 55.0 M 305.4 56.6 C 306.1 56.9 305.5 57.4 305.1 57.2 C 304.6 56.9 304.7 56.3 305.4 56.6 C 305.4 56.6 305.4 56.6 305.4 56.6 Z M 355.6 55.4 C 356.9 57.3 353.0 57.5 352.3 56.0 C 352.1 55.6 354.4 53.6 355.6 55.4 C 355.6 55.4 355.6 55.4 355.6 55.4 Z M 345.7 76.5 C 345.9 76.1 346.7 76.5 346.2 76.7 C 345.5 77.0 345.5 76.8 345.7 76.5 C 345.7 76.5 345.7 76.5 345.7 76.5 Z M 350.6 74.3 C 351.6 73.7 352.5 76.1 351.6 75.8 C 350.3 75.4 349.6 74.9 350.6 74.3 C 350.6 74.3 350.6 74.3 350.6 74.3 Z M 377.7 60.8 C 378.4 60.8 378.9 61.3 379.2 62.2 C 379.8 63.7 375.2 60.5 377.7 60.8 M 303.0 52.1 C 303.7 52.0 304.3 52.2 304.8 52.9 C 305.7 55.3 300.3 51.9 303.0 52.1 M 361.9 55.7 C 362.8 56.0 361.5 56.7 361.1 56.1 C 360.6 55.4 361.0 55.3 361.9 55.7 C 361.9 55.7 361.9 55.7 361.9 55.7 Z M 383.7 58.0 C 384.6 58.3 383.3 59.0 382.9 58.4 C 382.4 57.7 382.8 57.6 383.7 58.0 C 383.7 58.0 383.7 58.0 383.7 58.0 Z M 289.7 55.5 C 291.8 55.0 290.2 58.9 289.4 59.4 C 287.4 60.6 288.9 57.1 288.8 56.9 C 288.8 56.8 288.8 58.5 289.2 58.0 C 290.1 56.9 289.0 55.7 289.7 55.5 M 252.4 57.4 C 254.0 57.7 253.6 59.3 252.6 58.7 C 251.5 58.1 250.9 57.1 252.4 57.4 C 252.4 57.4 252.4 57.4 252.4 57.4 Z M 413.4 53.6 C 411.6 50.8 408.9 52.1 406.0 51.6 C 405.5 51.5 403.1 53.1 403.8 53.6 C 406.1 55.5 404.7 60.4 403.2 56.6 C 402.3 54.3 403.5 50.7 400.3 51.8 C 398.1 52.5 400.9 55.6 398.6 56.8 C 398.2 57.0 395.6 57.8 395.8 58.7 C 396.0 59.6 397.4 59.2 397.4 60.3 C 397.4 61.6 396.5 63.0 396.2 64.2 C 395.5 66.2 396.4 70.0 397.9 71.2 C 398.8 71.9 402.1 72.0 400.6 73.9 C 397.8 77.6 407.3 80.9 407.9 78.5 C 408.4 76.7 409.6 75.7 410.8 74.7 C 412.7 73.0 413.9 76.9 415.3 77.2 C 422.6 78.9 416.4 72.5 417.6 70.8 C 418.2 70.0 421.0 70.1 421.9 70.3 C 425.2 70.9 422.9 73.7 423.0 77.0 C 423.0 78.0 431.5 78.8 430.4 75.4 C 433.6 75.5 431.1 78.0 435.6 77.7 C 436.9 77.6 435.3 75.5 437.1 75.4 C 441.4 75.5 438.6 77.5 440.2 77.6 C 441.8 77.7 443.4 76.7 444.4 75.2 C 445.3 74.0 445.6 75.0 446.5 75.4 C 448.2 76.3 448.0 73.1 449.5 73.3 C 455.4 73.9 448.1 77.8 450.1 77.9 C 458.0 78.2 456.4 74.9 460.7 75.1 C 462.4 75.2 465.1 81.2 467.9 76.7 C 471.4 70.9 471.5 78.6 474.9 78.3 C 476.1 78.1 476.8 78.0 478.0 78.1 C 478.9 78.2 477.2 75.2 477.6 74.5 C 477.8 73.9 481.2 70.8 480.4 69.8 C 478.1 67.3 478.7 71.8 475.6 71.7 C 472.3 71.5 474.7 70.1 475.3 69.3 C 475.9 69.2 476.9 68.9 477.4 68.6 C 477.9 67.7 476.0 66.5 476.3 65.6 C 476.4 64.8 482.9 65.0 483.0 65.8 C 483.3 67.0 480.2 66.5 481.7 69.2 C 483.1 71.7 482.7 71.8 480.7 73.2 C 478.0 75.2 482.7 78.4 484.3 78.5 C 485.5 78.5 488.0 78.8 489.1 78.4 C 491.2 77.6 487.5 75.6 493.2 76.3 C 496.2 76.7 503.1 72.5 504.7 74.3 C 505.3 74.9 501.6 77.9 505.9 77.9 C 508.1 77.9 510.4 78.4 512.4 78.5 C 519.2 78.6 513.7 77.2 515.2 76.5 C 517.6 75.5 520.1 78.0 522.4 77.6 C 524.2 77.2 525.1 75.0 527.0 76.1 C 529.1 77.3 529.4 78.0 531.8 77.9 C 532.3 77.9 537.0 76.8 536.9 76.5 C 536.5 75.7 533.5 76.7 533.7 75.7 C 534.5 72.1 538.0 74.2 539.7 74.9 C 540.6 75.4 543.8 73.9 544.0 76.0 C 544.1 77.2 540.9 77.8 541.4 77.9 C 548.4 78.7 550.9 75.7 553.3 75.9 C 556.7 76.2 552.9 77.6 556.6 77.8 C 557.9 77.9 558.9 76.9 559.8 76.0 C 561.0 74.8 561.2 72.7 562.0 71.1 C 563.1 68.8 564.1 67.8 564.0 65.1 C 564.0 63.6 563.9 61.9 563.4 60.5 C 563.0 59.4 561.4 59.7 561.3 58.2 C 561.2 56.9 564.2 54.5 563.7 54.1 C 559.9 51.5 560.2 55.5 559.6 55.8 C 558.9 56.2 558.3 54.6 557.6 54.2 C 556.5 53.6 555.1 52.9 556.2 55.9 C 556.3 55.6 551.7 57.1 550.5 55.0 C 549.6 53.5 545.0 55.1 542.5 54.8 C 542.8 55.9 546.4 59.1 542.8 59.6 C 541.0 59.8 540.3 59.9 539.0 57.9 C 538.5 57.3 540.8 56.4 540.4 56.0 C 539.8 55.8 539.3 55.7 538.7 55.5 C 538.4 55.4 540.7 53.5 540.4 53.4 C 536.6 51.4 529.9 51.8 531.7 55.3 C 532.1 56.1 537.4 57.5 534.9 57.9 C 531.9 58.3 529.4 58.0 527.3 58.1 C 527.7 58.1 528.0 61.4 524.8 60.6 C 524.3 60.8 522.5 60.8 523.0 61.1 C 523.5 61.4 526.4 60.9 526.5 61.9 C 526.5 62.9 523.4 62.1 520.8 61.6 C 518.0 61.1 520.8 62.9 519.2 62.9 C 514.8 63.1 520.4 57.5 513.4 58.0 C 512.9 58.0 515.2 60.3 515.2 60.2 C 516.0 61.9 507.3 57.3 511.6 56.8 C 512.9 56.6 514.4 55.6 512.6 54.4 C 510.4 52.9 510.8 54.7 509.2 55.7 C 509.8 55.3 506.9 53.6 506.8 53.5 C 505.8 53.3 505.4 55.4 504.6 54.9 C 504.2 54.7 499.6 51.0 501.1 54.8 C 501.5 55.7 504.3 57.9 504.1 58.9 C 504.0 59.9 499.6 59.2 499.1 59.1 C 497.6 58.7 497.3 56.7 497.5 56.8 C 495.5 56.0 492.7 60.8 493.1 55.6 C 493.2 54.5 493.5 52.9 493.1 52.0 C 492.7 50.9 489.7 51.8 489.8 52.2 C 490.0 53.9 491.5 54.4 490.9 56.6 C 490.2 58.7 491.2 57.8 491.2 58.9 C 491.2 59.4 487.5 59.7 487.9 58.4 C 488.1 57.4 489.2 56.1 488.2 55.2 C 487.9 55.0 484.3 53.1 484.5 53.9 C 485.5 57.6 482.7 55.7 483.6 55.0 C 484.8 54.1 482.1 50.6 481.1 52.3 C 480.7 53.2 483.5 56.2 480.0 56.5 C 479.9 56.5 476.7 53.1 477.2 56.4 C 477.5 58.2 479.2 59.8 476.9 60.0 C 476.0 60.0 471.3 60.9 470.8 59.5 C 470.4 58.2 474.5 56.8 473.5 55.2 C 472.6 53.9 471.9 57.2 471.0 56.1 C 467.8 52.7 470.1 56.9 467.8 57.2 C 465.2 57.5 465.1 53.5 467.5 53.3 C 467.2 53.3 472.5 53.9 471.3 52.7 C 469.8 51.2 461.7 50.7 463.1 53.8 C 463.9 55.3 465.1 59.0 462.3 58.1 C 463.0 58.3 459.5 50.9 459.1 53.5 C 458.7 56.3 461.9 57.4 459.2 59.2 C 456.1 61.3 453.6 59.9 450.2 60.1 C 449.8 60.2 447.2 59.9 446.9 58.4 C 446.7 57.1 448.2 56.4 448.5 56.4 C 450.6 56.4 442.9 53.1 447.9 52.7 C 448.6 52.6 444.1 52.4 443.6 52.4 C 440.5 52.4 446.9 57.7 444.2 57.8 C 442.5 57.9 437.8 58.5 437.4 55.6 C 436.8 50.9 433.8 58.2 433.4 59.2 C 433.1 59.9 428.5 59.8 427.5 59.3 C 424.5 57.9 427.1 55.7 425.6 55.2 C 424.6 54.9 422.2 55.0 423.7 53.1 C 425.1 51.4 422.1 51.7 421.5 51.8 C 419.9 52.2 420.1 58.3 418.0 58.4 C 414.5 58.6 415.2 56.6 413.4 53.6 M 427.0 57.5 C 427.0 56.6 429.4 56.5 429.3 57.3 C 429.1 58.8 427.0 58.4 427.0 57.5 M 396.3 53.7 C 396.3 52.8 398.7 52.7 398.6 53.5 C 398.4 54.9 396.3 54.5 396.3 53.7 M 439.6 55.2 C 439.6 53.9 442.0 54.7 442.1 55.4 C 442.5 57.0 439.6 56.6 439.6 55.2 M 522.0 59.1 C 521.2 59.3 520.6 59.5 520.0 58.8 C 519.3 58.2 523.2 57.8 522.0 59.1 M 408.5 53.2 C 408.5 52.2 411.2 52.0 411.1 53.4 C 411.0 55.4 408.5 54.3 408.5 53.2 M 402.9 59.5 C 403.3 59.3 403.6 59.5 403.8 59.9 C 404.1 60.5 402.5 60.3 402.9 59.5 M 530.1 52.5 C 530.5 52.3 530.7 52.4 531.0 52.9 C 531.3 53.5 529.7 53.3 530.1 52.5 M 508.0 52.4 C 508.6 52.1 509.1 52.2 509.6 52.8 C 509.7 53.0 507.4 53.6 508.0 52.4 M 507.2 79.2 C 507.8 79.0 508.3 79.1 508.8 79.7 C 508.8 79.8 506.6 80.5 507.2 79.2 M 542.1 52.2 C 542.4 51.2 544.6 51.6 544.8 52.5 C 545.1 53.5 541.9 53.1 542.1 52.2 M 554.5 58.1 C 554.7 57.2 557.2 57.2 557.4 58.1 C 557.8 59.5 554.3 58.8 554.5 58.1 M 424.2 66.9 C 426.1 66.9 424.5 68.3 424.0 67.9 C 423.4 67.3 422.4 66.9 424.2 66.9 C 424.2 66.9 424.2 66.9 424.2 66.9 Z M 464.7 73.6 C 464.3 73.5 463.1 73.9 463.1 72.9 C 463.1 71.9 466.7 73.3 466.6 74.1 C 466.4 76.1 464.7 73.6 464.7 73.6 M 457.2 56.0 C 459.5 58.2 457.6 58.0 456.1 58.7 C 454.9 59.3 454.9 53.8 457.2 56.0 C 457.2 56.0 457.2 56.0 457.2 56.0 Z M 450.2 58.4 C 451.0 58.6 449.8 59.3 449.8 59.3 C 449.1 58.7 449.3 58.3 450.2 58.4 C 450.2 58.4 450.2 58.4 450.2 58.4 Z M 473.0 58.8 C 473.2 59.1 472.1 59.5 472.3 59.0 C 472.4 58.4 472.8 58.4 473.0 58.8 C 473.0 58.8 473.0 58.8 473.0 58.8 Z M 468.3 59.2 C 468.5 59.6 466.3 59.8 466.4 59.2 C 466.5 58.7 468.1 58.9 468.3 59.2 C 468.3 59.2 468.3 59.2 468.3 59.2 Z M 501.5 76.6 C 501.7 76.9 499.5 77.1 499.6 76.5 C 499.7 76.0 501.3 76.2 501.5 76.6 C 501.5 76.6 501.5 76.6 501.5 76.6 Z M 461.1 61.1 C 461.5 62.4 459.1 63.9 459.3 61.7 C 459.6 59.8 460.7 59.8 461.1 61.1 C 461.1 61.1 461.1 61.1 461.1 61.1 Z M 485.6 74.1 C 486.6 72.7 487.8 75.9 488.1 75.8 C 487.8 75.9 484.9 75.2 485.6 74.1 M 534.7 53.5 C 535.7 52.0 536.9 55.3 537.2 55.2 C 536.9 55.3 534.0 54.6 534.7 53.5 M 486.4 51.9 C 487.4 50.5 488.6 53.7 488.9 53.6 C 488.6 53.8 485.7 53.0 486.4 51.9 M 429.6 55.1 C 430.0 54.2 431.6 56.7 431.2 57.0 C 430.5 57.5 429.3 56.0 429.6 55.1 M 456.4 78.8 C 456.3 77.8 458.7 78.3 458.5 78.9 C 458.3 79.8 456.6 79.7 456.4 78.8 M 410.9 77.0 C 410.7 76.0 413.1 76.5 413.0 77.1 C 412.8 78.0 411.1 77.9 410.9 77.0 M 527.9 78.7 C 527.7 77.7 530.3 78.4 530.0 78.8 C 529.6 79.2 527.9 79.1 527.9 78.7 M 492.1 60.7 C 490.9 60.3 499.6 61.8 494.7 63.9 C 493.6 64.4 492.5 64.1 491.8 63.9 C 488.7 63.3 493.7 62.7 493.5 62.0 C 493.4 61.4 492.1 61.6 492.0 61.5 C 492.0 61.5 493.3 61.0 492.1 60.7 C 492.1 60.7 492.1 60.7 492.1 60.7 Z M 507.3 73.1 C 507.5 72.4 509.4 74.3 509.1 74.6 C 508.5 75.2 507.0 74.3 507.3 73.1 M 499.6 55.6 C 499.8 54.9 501.7 56.8 501.4 57.1 C 500.8 57.7 499.3 56.8 499.6 55.6 M 524.4 56.1 C 525.1 55.0 526.7 58.2 526.0 58.6 C 524.8 59.1 523.3 57.8 524.4 56.1 M 527.5 54.6 C 528.0 54.9 527.5 55.7 527.2 55.3 C 526.8 54.9 526.9 54.3 527.5 54.6 C 527.5 54.6 527.5 54.6 527.5 54.6 Z M 554.6 52.4 C 555.1 52.7 554.7 53.4 554.3 53.1 C 554.0 52.7 554.1 52.0 554.6 52.4 C 554.6 52.4 554.6 52.4 554.6 52.4 Z M 516.5 56.8 C 517.0 57.1 516.5 57.9 516.2 57.6 C 515.8 57.1 516.0 56.5 516.5 56.8 C 516.5 56.8 516.5 56.8 516.5 56.8 Z M 538.9 77.7 C 539.3 77.6 539.3 78.4 538.9 78.3 C 538.3 78.3 538.4 77.8 538.9 77.7 C 538.9 77.7 538.9 77.7 538.9 77.7 Z M 536.0 74.4 C 536.5 74.3 536.5 75.1 536.1 75.0 C 535.5 75.0 535.6 74.4 536.0 74.4 C 536.0 74.4 536.0 74.4 536.0 74.4 Z M 415.6 53.6 C 414.8 52.2 417.3 52.5 418.1 54.7 C 418.7 56.1 418.6 56.3 417.3 56.5 C 414.8 56.8 416.5 55.3 415.6 53.6 M 548.1 74.4 C 550.4 75.0 548.7 76.3 546.8 76.0 C 546.8 76.0 545.8 73.8 548.1 74.4 C 548.1 74.4 548.1 74.4 548.1 74.4 Z M 513.5 61.4 C 514.6 60.8 516.3 62.6 514.6 63.5 C 513.5 64.1 512.6 61.9 513.5 61.4 M 529.0 55.1 C 530.1 54.5 531.8 56.3 530.0 57.2 C 528.9 57.8 528.1 55.6 529.0 55.1 M 457.1 51.0 C 458.1 50.3 459.8 52.2 458.1 53.1 C 457.0 53.7 456.2 51.5 457.1 51.0 M 548.1 56.2 C 550.1 55.2 554.1 58.1 550.3 59.6 C 548.3 60.4 546.1 57.1 548.1 56.2 M 451.8 56.2 C 451.1 56.7 449.9 55.5 451.0 54.8 C 451.7 54.3 452.3 55.8 451.8 56.2 M 477.7 66.3 C 478.6 66.0 479.4 66.0 480.2 66.5 C 482.3 68.3 475.8 67.5 477.7 66.3 M 497.4 59.5 C 497.7 59.5 497.2 60.7 496.8 60.3 C 496.4 59.9 497.0 59.5 497.4 59.5 C 497.4 59.5 497.4 59.5 497.4 59.5 Z M 485.9 59.5 C 485.7 60.1 482.8 59.5 483.1 59.2 C 483.4 58.8 486.1 58.9 485.9 59.5 C 485.9 59.5 485.9 59.5 485.9 59.5 Z M 421.0 58.6 C 423.8 59.2 420.6 60.1 420.5 59.6 C 420.4 58.5 420.3 58.5 421.0 58.6 C 421.0 58.6 421.0 58.6 421.0 58.6 Z M 542.8 68.8 C 543.8 69.2 542.1 70.6 542.0 70.0 C 541.8 68.7 541.8 68.5 542.8 68.8 C 542.8 68.8 542.8 68.8 542.8 68.8 Z M 515.1 53.0 C 516.1 53.4 513.5 53.9 513.4 53.4 C 513.2 52.0 514.1 52.7 515.1 53.0 C 515.1 53.0 515.1 53.0 515.1 53.0 Z M 558.6 52.4 C 559.6 52.7 557.0 53.3 556.9 52.7 C 556.7 51.4 557.6 52.1 558.6 52.4 C 558.6 52.4 558.6 52.4 558.6 52.4 Z M 412.2 57.7 C 414.6 58.7 410.6 62.5 410.4 61.0 C 409.9 57.2 409.8 56.8 412.2 57.7 C 412.2 57.7 412.2 57.7 412.2 57.7 Z M 490.5 55.8 C 491.2 56.0 490.1 57.2 490.0 56.7 C 489.9 55.6 489.9 55.5 490.5 55.8 C 490.5 55.8 490.5 55.8 490.5 55.8 Z M 441.1 52.0 C 441.8 52.3 440.7 53.4 440.7 52.9 C 440.5 51.9 440.5 51.7 441.1 52.0 C 441.1 52.0 441.1 52.0 441.1 52.0 Z M 432.7 57.0 C 433.2 57.3 432.4 58.2 432.3 57.8 C 432.2 56.9 432.2 56.8 432.7 57.0 C 432.7 57.0 432.7 57.0 432.7 57.0 Z M 435.1 78.3 C 435.6 78.5 434.8 79.5 434.7 79.1 C 434.6 78.2 434.6 78.1 435.1 78.3 C 435.1 78.3 435.1 78.3 435.1 78.3 Z M 438.0 68.5 C 439.5 69.1 436.9 71.6 436.8 70.6 C 436.5 68.3 436.4 68.0 438.0 68.5 C 438.0 68.5 438.0 68.5 438.0 68.5 Z M 420.7 72.2 C 421.5 72.5 420.1 73.9 420.1 73.4 C 419.9 72.0 419.9 71.9 420.7 72.2 C 420.7 72.2 420.7 72.2 420.7 72.2 Z M 421.1 75.1 C 421.4 75.2 420.8 75.9 420.8 75.7 C 420.7 75.0 420.7 74.9 421.1 75.1 C 421.1 75.1 421.1 75.1 421.1 75.1 Z M 529.0 61.1 C 529.9 61.5 528.4 63.1 528.4 62.5 C 528.1 60.9 528.1 60.7 529.0 61.1 C 529.0 61.1 529.0 61.1 529.0 61.1 Z M 519.8 70.0 C 521.2 67.6 524.6 71.0 521.6 71.0 C 518.9 71.0 518.4 72.4 519.8 70.0 C 519.8 70.0 519.8 70.0 519.8 70.0 Z M 464.5 65.7 C 465.3 64.2 467.0 66.3 465.5 66.3 C 464.1 66.3 463.8 67.2 464.5 65.7 C 464.5 65.7 464.5 65.7 464.5 65.7 Z M 470.7 77.3 C 471.0 76.7 471.7 77.5 471.1 77.5 C 470.5 77.5 470.4 77.8 470.7 77.3 C 470.7 77.3 470.7 77.3 470.7 77.3 Z M 432.8 51.8 C 433.7 52.7 432.5 54.5 432.1 53.5 C 431.6 52.1 431.8 50.9 432.8 51.8 C 432.8 51.8 432.8 51.8 432.8 51.8 Z M 422.3 55.5 C 422.2 55.7 421.5 57.3 421.2 56.9 C 419.7 54.7 422.6 54.6 422.3 55.5 M 475.2 52.9 C 477.0 52.5 477.1 55.1 475.2 54.6 C 473.3 54.1 474.1 53.1 475.2 52.9 C 475.2 52.9 475.2 52.9 475.2 52.9 Z M 508.8 59.9 C 509.5 59.7 509.3 60.8 508.5 61.0 C 507.9 61.1 508.0 60.2 508.8 59.9 C 508.8 59.9 508.8 59.9 508.8 59.9 Z M 542.0 57.0 C 543.2 56.6 542.8 58.7 541.6 58.9 C 540.7 59.1 540.8 57.5 542.0 57.0 C 542.0 57.0 542.0 57.0 542.0 57.0 Z M 496.1 53.5 C 497.4 53.0 497.0 55.0 495.6 55.2 C 494.6 55.4 494.7 53.9 496.1 53.5 C 496.1 53.5 496.1 53.5 496.1 53.5 Z M 480.2 57.6 C 481.6 57.1 481.1 59.2 479.7 59.4 C 478.7 59.5 478.9 58.0 480.2 57.6 C 480.2 57.6 480.2 57.6 480.2 57.6 Z M 549.3 63.4 C 550.3 64.4 549.2 65.2 548.6 64.2 C 547.8 63.2 548.4 62.3 549.3 63.4 C 549.3 63.4 549.3 63.4 549.3 63.4 Z M 499.8 52.8 C 500.3 53.3 499.7 53.7 499.4 53.3 C 499.0 52.7 499.3 52.3 499.8 52.8 C 499.8 52.8 499.8 52.8 499.8 52.8 Z M 509.4 67.1 C 510.8 66.6 509.9 69.2 508.5 68.3 C 507.1 67.4 509.0 67.2 509.4 67.1 C 509.4 67.1 509.4 67.1 509.4 67.1 Z M 423.8 49.1 C 424.3 48.8 423.9 50.3 423.4 49.8 C 422.8 49.2 423.6 49.2 423.8 49.1 C 423.8 49.1 423.8 49.1 423.8 49.1 Z M 549.6 57.4 C 550.2 57.1 549.8 58.6 549.3 58.1 C 548.7 57.5 549.5 57.5 549.6 57.4 C 549.6 57.4 549.6 57.4 549.6 57.4 Z M 551.7 53.4 C 552.3 53.1 551.9 54.6 551.3 54.1 C 550.7 53.6 551.5 53.5 551.7 53.4 C 551.7 53.4 551.7 53.4 551.7 53.4 Z M 528.1 74.8 C 527.4 75.2 523.5 75.2 524.5 73.3 C 525.9 70.8 527.4 73.3 529.2 73.3 C 530.8 73.4 527.0 71.2 531.6 71.4 C 532.9 71.4 530.3 70.1 530.1 68.9 C 530.0 68.0 539.1 68.6 537.4 70.9 C 536.8 71.7 534.2 72.5 533.4 72.7 C 531.2 73.0 532.0 73.7 530.1 74.9 C 529.4 74.8 528.8 74.8 528.1 74.8 C 528.1 74.8 528.1 74.8 528.1 74.8 Z M 528.1 74.8 " fill="#DB2800"></path><path d="M 606.2 126.5 C 605.6 129.0 598.5 131.4 603.3 126.7 C 603.6 126.4 606.4 125.5 606.2 126.5 Z M 617.2 120.0 C 616.4 120.6 615.7 120.8 614.7 120.6 C 612.4 119.3 620.1 118.3 617.2 120.0 Z M 599.8 127.4 C 599.6 127.8 596.1 130.0 596.3 128.9 C 596.6 127.9 599.8 127.1 599.8 127.4 Z M 624.6 109.8 C 625.0 110.8 621.3 112.9 620.4 112.9 C 617.8 112.7 623.7 107.7 624.6 109.8 Z M 594.4 91.2 C 594.4 90.8 594.3 90.5 594.2 90.2 C 594.4 90.6 594.4 90.9 594.4 91.2 Z M 677.2 81.6 C 676.7 82.1 674.8 82.0 674.7 81.1 C 674.5 79.8 679.2 80.0 677.2 81.6 Z M 592.3 18.5 C 592.3 18.5 591.5 20.2 590.9 19.5 C 590.2 18.7 591.5 18.0 592.3 18.5 Z M 591.0 18.6 C 590.0 19.0 589.6 17.3 590.4 17.6 C 591.4 18.0 591.9 18.3 591.0 18.6 Z M 649.8 34.0 C 650.3 34.2 650.7 34.2 650.1 34.4 C 649.5 34.6 648.9 33.7 649.8 34.0 Z M 647.5 34.3 C 646.5 34.8 646.2 32.9 647.1 33.1 C 648.2 33.5 648.6 33.7 647.5 34.3 Z M 639.5 22.8 C 640.0 23.0 640.4 23.0 639.8 23.2 C 639.2 23.4 638.6 22.5 639.5 22.8 Z M 589.2 48.4 C 588.8 48.0 589.4 45.7 590.2 45.9 C 591.5 46.1 589.9 49.3 589.2 48.4 Z M 588.6 45.5 C 587.8 45.7 587.6 44.1 588.4 44.5 C 589.0 44.8 589.4 45.2 588.6 45.5 Z M 590.4 54.7 C 591.6 54.7 591.6 57.3 591.4 57.7 C 591.1 58.5 590.8 59.6 590.3 60.4 C 590.2 60.7 588.8 54.7 590.4 54.7 Z M 591.6 74.1 C 591.1 74.1 590.9 73.9 591.3 73.1 C 591.8 72.2 592.1 74.1 591.6 74.1 Z M 590.9 63.1 C 590.4 63.1 590.2 62.9 590.6 62.0 C 591.0 61.2 591.3 63.1 590.9 63.1 Z M 646.6 99.8 C 647.4 100.2 644.2 101.4 643.9 101.3 C 643.6 101.3 644.7 100.6 643.9 100.7 C 642.9 100.9 643.4 97.9 646.6 99.8 Z M 623.2 116.1 C 622.5 116.3 622.1 116.1 622.1 115.3 C 622.0 115.2 624.6 114.7 623.2 116.1 Z M 641.0 98.7 C 641.3 99.0 640.5 99.3 640.3 99.0 C 640.1 98.8 640.8 98.4 641.0 98.7 Z M 642.6 97.0 C 642.1 97.5 640.2 97.4 640.1 96.5 C 640.0 95.2 644.6 95.4 642.6 97.0 Z M 650.6 98.8 C 649.8 99.3 649.8 99.3 650.1 98.7 C 650.4 98.1 650.6 98.8 650.6 98.8 Z M 637.2 108.6 C 636.4 109.1 636.4 109.1 636.7 108.4 C 637.0 107.8 637.2 108.6 637.2 108.6 Z M 656.2 93.2 C 656.3 93.2 655.0 95.3 653.6 94.0 C 651.7 92.2 656.1 93.1 656.2 93.2 Z M 664.8 85.1 C 664.1 85.4 664.1 84.6 664.8 84.5 C 665.6 84.3 665.5 84.9 664.8 85.1 Z M 666.5 79.6 C 667.9 79.4 669.2 79.7 667.4 80.5 C 665.6 81.4 665.0 79.8 666.5 79.6 Z M 665.1 81.5 C 664.9 81.2 665.5 80.9 665.8 81.2 C 666.0 81.5 665.3 81.8 665.1 81.5 Z M 658.1 88.9 C 657.6 90.0 656.0 89.5 657.2 88.5 C 658.3 87.4 658.6 87.9 658.1 88.9 Z M 589.4 101.3 C 589.6 101.9 588.5 101.8 588.1 101.3 C 587.6 100.8 589.0 100.5 589.4 101.3 Z M 593.8 59.3 C 593.1 59.9 593.0 59.4 593.4 58.3 C 593.7 57.2 594.4 58.8 593.8 59.3 Z M 595.9 32.7 C 595.3 33.4 595.2 32.9 595.5 31.8 C 595.8 30.7 596.5 32.2 595.9 32.7 Z M 593.8 70.0 C 593.4 70.3 591.3 67.5 593.2 66.0 C 595.1 64.4 595.3 69.1 593.8 70.0 Z M 614.9 96.1 C 615.2 96.7 614.5 96.4 614.5 96.4 C 614.6 95.5 614.6 95.5 614.9 96.1 Z M 596.9 64.0 C 597.2 64.6 596.1 64.5 595.6 64.0 C 595.2 63.5 596.6 63.2 596.9 64.0 Z M 594.4 37.5 C 593.8 38.6 592.1 38.0 591.6 37.3 C 589.8 35.1 592.0 33.5 593.1 32.0 C 594.0 30.8 594.7 36.9 594.4 37.5 Z M 593.4 107.6 C 593.7 107.0 593.9 106.4 593.9 105.9 C 593.4 105.7 593.5 105.3 594.0 104.7 C 593.7 102.2 591.3 100.5 590.6 98.9 C 589.1 95.0 594.2 93.5 594.4 91.2 C 594.4 91.8 594.4 92.4 594.9 92.7 C 596.4 93.8 595.7 84.4 595.6 83.9 C 594.4 75.9 593.1 85.4 590.5 85.5 C 589.2 85.5 592.3 80.1 592.4 79.8 C 593.5 77.2 590.9 76.8 592.0 74.7 C 592.5 73.8 598.5 70.7 597.7 69.7 C 597.0 69.0 597.6 66.5 597.7 65.7 C 597.7 64.2 597.5 61.6 595.3 63.0 C 593.7 64.1 592.1 64.4 593.6 62.4 C 594.6 61.0 598.4 51.7 593.9 52.1 C 593.6 52.2 592.3 54.1 592.3 54.3 C 591.3 51.7 592.8 43.8 591.0 41.9 C 586.9 37.8 593.4 43.2 594.5 41.1 C 596.5 37.5 597.9 35.6 597.1 31.0 C 596.9 30.0 596.8 25.7 594.4 27.8 C 592.8 29.2 591.7 28.1 591.2 30.8 C 589.0 27.8 593.2 25.9 592.4 25.3 C 591.1 24.4 590.4 26.1 590.6 24.0 C 591.0 21.3 590.2 22.4 592.5 22.0 C 593.2 21.8 593.7 19.5 593.7 19.5 C 593.9 19.5 594.1 19.5 594.3 19.5 C 594.1 17.3 589.9 14.0 590.9 13.4 C 591.7 12.9 594.5 14.1 595.3 14.1 C 595.4 13.9 595.5 13.7 595.6 13.6 C 595.2 12.6 593.5 10.4 593.9 10.1 C 594.3 9.8 598.2 11.4 597.1 10.4 C 596.0 9.4 597.4 4.6 598.6 4.4 C 599.8 4.1 605.1 2.9 605.4 2.0 C 605.8 1.2 608.3 2.9 609.1 3.2 C 609.9 3.5 610.5 5.7 610.7 6.1 C 610.9 6.6 613.0 7.3 613.0 7.3 C 613.0 7.3 614.1 7.4 615.7 8.2 C 617.2 9.0 617.8 10.7 619.4 12.4 C 621.0 14.1 622.6 13.4 624.5 14.3 C 626.3 15.1 626.3 18.9 627.6 20.3 C 628.9 21.6 630.3 19.2 632.4 20.2 C 634.5 21.2 635.2 22.4 634.4 22.4 C 633.6 22.5 633.8 23.4 634.3 23.7 C 634.9 24.1 636.8 26.2 637.9 26.3 C 638.9 26.4 634.2 20.9 641.5 25.6 C 645.1 27.9 646.2 31.9 645.2 31.4 C 642.4 29.9 646.0 36.9 646.7 35.8 C 647.4 34.6 653.6 38.6 653.2 35.7 C 653.2 34.8 659.9 37.9 660.5 38.8 C 661.2 39.7 664.5 40.9 664.1 43.4 C 663.9 44.6 669.1 44.1 669.9 44.6 C 670.7 45.1 675.5 48.4 676.2 49.5 C 676.9 50.6 674.5 49.3 673.4 48.6 C 672.3 47.8 671.3 45.9 670.3 45.6 C 669.2 45.3 670.7 47.4 671.8 48.3 C 672.9 49.1 672.7 50.4 673.5 51.3 C 674.2 51.4 674.9 52.0 675.8 52.8 C 676.3 52.9 676.8 53.0 677.0 52.6 C 677.4 51.9 676.9 51.1 677.3 50.9 C 677.6 50.7 678.8 50.7 680.3 51.6 C 681.8 52.6 683.0 53.5 684.6 55.3 C 686.3 57.2 687.2 56.8 688.7 57.5 C 690.1 58.2 691.3 59.1 691.1 59.6 C 690.9 60.1 689.0 59.3 688.6 59.6 C 688.2 59.9 689.5 62.2 690.2 62.7 C 693.7 65.4 688.8 66.8 692.3 69.5 C 694.3 71.0 691.2 70.8 689.3 71.3 C 689.6 71.7 689.6 72.0 688.0 73.4 C 688.4 73.9 685.6 74.8 684.5 75.6 C 683.8 76.2 679.7 79.9 681.8 76.9 C 681.9 76.6 682.1 76.4 682.3 76.2 C 682.2 76.2 682.2 76.2 682.1 76.2 C 682.1 76.2 682.4 73.5 682.3 73.5 C 682.3 73.5 682.1 76.1 682.0 76.1 C 681.1 75.7 680.2 75.4 679.5 75.1 C 679.4 75.4 679.2 75.7 679.2 76.1 C 679.1 76.2 679.1 76.3 679.0 76.4 C 679.0 76.4 679.1 76.4 679.1 76.4 C 679.6 77.1 679.4 77.1 678.6 77.3 C 677.3 79.3 672.7 80.3 670.8 80.6 C 672.8 74.1 665.4 78.6 663.3 80.6 C 661.1 82.7 664.2 87.5 665.4 86.8 C 663.6 87.9 662.8 87.4 661.4 86.2 C 661.6 86.4 657.8 84.6 658.0 84.6 C 652.8 85.3 656.2 89.0 655.4 90.0 C 654.6 91.2 653.3 92.1 652.2 93.2 C 651.2 94.2 652.8 94.4 652.7 95.3 C 652.4 98.1 647.1 96.1 645.8 96.6 C 646.6 95.6 647.7 94.6 648.3 93.4 C 647.4 95.3 645.1 93.3 644.4 93.5 C 642.8 93.8 641.3 95.1 640.0 95.9 C 637.7 97.5 635.6 99.4 633.6 101.1 C 634.5 101.1 639.6 101.7 639.8 101.5 C 639.1 102.1 636.5 102.7 638.4 103.9 C 641.6 106.1 634.8 108.1 633.8 108.6 C 630.5 110.1 629.0 115.1 623.9 113.5 C 623.9 113.5 628.1 109.9 627.6 109.5 C 625.0 107.6 622.9 106.9 620.1 109.5 C 619.6 109.9 616.4 114.6 616.5 114.8 C 616.3 114.4 624.6 118.0 619.4 118.3 C 618.4 118.4 619.4 116.3 618.1 116.5 C 616.4 116.6 614.6 118.3 613.1 119.0 C 612.8 119.2 609.9 119.8 609.8 120.0 C 609.7 121.1 610.4 122.4 609.8 123.4 C 609.2 124.4 607.5 124.4 607.0 123.5 C 606.9 123.3 606.9 123.2 606.9 123.1 C 606.6 123.2 606.2 123.0 605.9 122.4 C 605.6 122.8 604.9 123.2 604.1 123.0 C 603.7 122.8 604.7 121.9 605.6 121.9 C 605.5 121.6 605.4 121.3 605.3 120.9 C 604.1 121.8 603.0 122.8 602.9 123.0 C 601.6 125.7 602.2 126.5 597.6 125.9 C 594.0 125.4 591.7 116.7 592.9 111.5 C 592.5 110.5 592.6 109.2 593.4 107.6 Z M 677.5 55.6 C 677.3 55.5 677.2 55.4 677.1 55.3 C 676.9 55.8 676.5 56.2 676.3 56.8 C 677.3 57.7 676.6 55.7 677.6 56.5 C 678.7 57.5 678.8 56.9 677.5 55.6 Z M 676.6 67.5 C 677.6 67.7 677.5 67.3 677.1 66.7 C 676.8 67.0 676.6 67.3 676.6 67.5 Z M 679.0 72.5 C 680.3 71.2 676.8 70.7 674.8 72.7 C 676.9 72.9 678.3 72.8 679.0 72.5 Z M 676.7 76.8 C 676.6 76.4 676.6 76.1 676.5 75.8 C 676.3 75.1 675.2 76.7 675.0 76.1 C 674.9 75.4 676.1 73.9 674.8 74.1 C 674.5 74.1 674.1 74.2 673.8 74.2 C 673.7 74.4 673.6 74.6 673.6 74.9 C 673.3 76.0 675.5 77.1 676.7 76.8 Z M 668.6 55.0 C 669.5 55.1 669.1 54.5 668.6 54.4 C 667.9 54.2 667.8 54.9 668.6 55.0 Z M 662.5 45.5 C 663.0 46.5 663.9 46.8 663.6 45.6 C 663.4 44.6 662.1 44.6 662.5 45.5 Z M 649.5 59.3 C 650.1 59.1 649.7 59.1 649.2 58.9 C 648.4 58.5 649.0 59.5 649.5 59.3 Z M 648.9 69.0 C 648.4 69.8 649.5 70.7 649.6 70.0 C 649.8 69.4 649.3 68.5 648.9 69.0 Z M 650.1 46.8 C 649.3 46.6 649.5 47.4 650.2 47.3 C 650.9 47.3 650.9 46.9 650.1 46.8 Z M 652.2 60.0 C 651.5 59.0 651.2 59.3 650.8 59.6 C 650.4 59.8 650.7 60.6 651.6 61.0 C 652.7 61.5 652.9 61.1 652.2 60.0 Z M 652.9 68.3 C 650.5 69.6 651.1 70.7 653.7 68.6 C 656.2 66.5 654.4 67.4 652.9 68.3 Z M 657.4 38.9 C 657.7 39.2 659.2 39.6 659.2 39.6 C 659.2 39.6 656.2 37.2 657.4 38.9 Z M 652.2 90.5 C 653.0 90.1 653.2 89.0 651.7 89.5 C 650.3 90.1 651.2 91.0 652.2 90.5 Z M 647.3 86.5 C 649.2 88.0 651.0 87.5 651.1 87.6 C 650.8 87.4 650.4 85.6 650.9 85.1 C 652.0 83.6 655.0 84.2 655.9 82.2 C 656.8 79.9 653.1 81.7 652.5 82.3 C 652.9 81.9 653.0 81.4 652.8 80.9 C 652.2 80.4 651.7 80.6 651.3 81.3 C 650.9 82.3 645.0 84.9 647.3 86.5 Z M 647.4 63.1 C 648.5 63.5 649.4 62.8 648.7 61.8 C 647.9 60.8 647.0 60.2 646.7 60.5 C 646.3 60.7 646.5 62.7 647.4 63.1 Z M 646.6 55.7 C 647.6 55.4 647.3 55.1 646.4 54.8 C 644.8 54.2 645.6 56.1 646.6 55.7 Z M 633.0 24.6 C 632.2 24.8 633.6 25.8 633.9 25.3 C 634.1 24.8 633.6 24.5 633.0 24.6 Z M 633.5 36.9 C 631.5 36.5 632.9 38.3 633.4 38.3 C 633.9 38.3 634.6 37.1 633.5 36.9 Z M 640.7 44.1 C 639.8 43.8 640.6 45.1 641.2 44.9 C 641.7 44.7 641.1 44.3 640.7 44.1 Z M 641.4 48.8 C 640.7 48.5 640.8 49.9 642.0 49.8 C 642.5 49.8 642.2 49.2 641.4 48.8 Z M 637.8 88.7 C 637.8 88.7 637.2 86.8 636.5 88.3 C 635.7 89.8 635.7 89.8 637.8 88.7 Z M 641.2 74.4 C 642.4 73.5 643.3 72.4 642.1 68.5 C 640.8 64.5 640.0 66.1 639.4 68.5 C 638.8 71.0 637.0 64.4 636.0 69.0 C 635.5 71.0 640.0 75.3 641.2 74.4 Z M 634.2 49.3 C 635.6 51.7 639.1 51.1 637.2 49.6 C 635.0 47.8 633.1 47.2 634.2 49.3 Z M 634.0 47.5 C 634.6 47.6 634.5 47.3 633.7 46.9 C 632.9 46.5 633.3 47.5 634.0 47.5 Z M 636.0 105.8 C 639.8 102.4 633.6 102.5 633.6 102.5 C 628.4 104.1 632.3 109.3 636.0 105.8 Z M 596.4 21.7 C 596.3 21.8 596.3 22.0 596.3 22.2 C 596.3 22.3 596.3 22.3 596.4 22.4 C 597.0 23.1 597.8 21.5 597.8 21.5 C 597.3 21.2 596.7 21.3 596.4 21.7 Z M 595.1 47.0 C 595.4 46.0 595.2 45.2 594.5 44.5 C 592.3 44.9 592.3 52.6 596.1 49.6 C 596.8 49.2 600.1 44.3 598.2 43.8 C 597.1 43.6 595.2 49.5 595.1 47.0 Z M 598.4 39.1 C 598.2 42.1 601.4 36.5 599.8 37.2 C 599.0 37.6 598.5 38.2 598.4 39.1 Z M 605.4 16.7 C 603.8 12.6 597.7 13.4 600.9 19.7 C 604.0 26.0 606.6 26.3 605.7 23.1 C 604.9 19.9 607.8 22.5 605.4 16.7 Z M 605.3 49.5 C 601.0 48.8 602.2 50.7 605.4 51.9 C 606.2 52.1 608.0 50.0 605.3 49.5 Z M 606.1 58.7 C 605.6 59.9 605.7 59.8 606.4 59.2 C 607.4 58.3 606.5 57.5 606.1 58.7 Z M 611.4 10.1 C 610.7 8.5 609.0 7.5 610.1 7.4 C 611.1 7.4 610.6 7.2 609.8 6.2 C 608.9 5.1 608.9 7.2 609.0 8.1 C 609.2 9.1 612.1 11.6 611.4 10.1 Z M 626.0 45.3 C 625.3 45.0 625.7 45.9 626.4 46.0 C 627.0 46.1 626.8 45.7 626.0 45.3 Z M 630.7 80.1 C 630.7 80.1 630.4 79.1 629.9 80.0 C 629.4 80.9 629.4 80.9 630.7 80.1 Z M 629.2 108.0 C 629.9 107.4 627.9 107.1 628.2 105.7 C 628.3 105.2 629.1 106.0 629.3 106.2 C 629.1 105.9 628.6 102.5 627.3 104.7 C 626.7 105.7 627.3 109.9 629.2 108.0 Z M 625.0 55.0 C 626.3 56.5 627.4 50.6 628.5 51.5 C 629.6 52.5 629.7 51.9 628.4 50.6 C 627.2 49.4 623.6 53.4 625.0 55.0 Z M 624.0 40.1 C 624.1 41.1 627.0 43.6 626.3 42.1 C 625.7 40.5 624.0 39.5 625.0 39.4 C 626.0 39.3 625.5 39.1 624.8 38.2 C 623.9 37.1 623.9 39.2 624.0 40.1 Z M 622.9 15.4 C 623.2 15.9 625.0 16.8 624.3 15.6 C 624.0 14.9 622.7 14.9 622.9 15.4 Z M 621.4 84.2 C 621.9 83.2 621.6 82.7 620.4 83.8 C 619.3 84.8 620.9 85.3 621.4 84.2 Z M 618.8 17.6 C 620.1 19.2 619.2 16.7 620.3 17.7 C 621.4 18.6 621.5 18.1 620.1 16.7 C 619.0 15.5 617.5 16.1 618.8 17.6 Z M 617.6 106.7 C 617.7 106.1 617.2 105.2 616.8 105.7 C 616.3 106.4 617.4 107.3 617.6 106.7 Z M 614.1 97.5 C 614.4 97.3 614.9 97.2 615.2 97.0 C 621.1 92.8 610.2 96.0 614.1 97.5 Z M 614.9 83.2 C 615.3 85.1 616.3 82.8 616.2 82.7 C 615.6 82.4 615.1 82.6 614.9 83.2 Z M 614.8 67.6 C 613.9 67.2 614.2 68.8 615.0 68.6 C 615.7 68.3 615.4 67.9 614.8 67.6 Z M 612.0 118.1 C 612.9 117.8 612.7 117.3 612.0 117.4 C 611.4 117.5 611.2 118.4 612.0 118.1 Z M 611.4 79.1 C 611.7 79.3 611.9 79.3 611.7 78.5 C 611.4 77.8 611.1 78.9 611.4 79.1 Z M 611.1 31.6 C 611.5 31.9 612.0 32.3 612.3 32.7 C 613.2 32.2 613.5 29.3 614.5 29.3 C 614.6 29.3 614.6 29.4 614.7 29.4 C 614.7 29.4 614.8 29.3 614.9 29.3 C 615.4 29.4 615.8 29.8 615.4 30.0 C 615.6 30.4 615.7 30.9 615.9 31.5 C 616.8 30.6 617.4 29.5 616.7 28.7 C 615.9 27.8 613.8 27.5 612.0 27.7 C 611.7 28.3 611.4 28.9 611.2 29.6 C 611.3 29.6 611.4 29.6 611.5 29.7 C 612.6 30.2 613.0 31.0 612.3 31.0 C 611.7 31.0 611.3 30.8 611.1 30.5 C 611.0 30.9 611.0 31.2 611.1 31.6 Z M 609.2 73.1 C 609.8 74.3 610.2 73.5 610.7 71.9 C 610.9 70.8 608.6 71.9 609.2 73.1 Z M 610.5 116.2 C 610.4 115.7 610.1 115.4 609.8 115.1 C 609.8 115.3 609.7 115.5 609.7 115.8 C 609.5 116.6 609.3 117.5 609.1 118.3 C 610.1 118.3 610.9 117.8 610.5 116.2 Z M 606.0 102.6 C 606.1 103.0 605.9 108.7 607.1 107.7 C 609.1 106.1 611.3 108.6 610.4 104.4 C 609.9 102.5 607.0 100.8 606.6 98.8 C 604.1 88.8 603.8 101.5 603.2 104.2 C 603.2 104.7 605.6 101.9 606.0 102.6 Z M 602.9 89.4 C 602.0 89.0 600.9 90.5 601.0 91.1 C 601.3 93.6 604.1 90.1 602.9 89.4 Z M 601.4 117.5 C 601.5 117.6 601.7 117.6 602.1 117.5 C 601.9 117.3 601.6 117.2 601.4 117.1 C 601.4 117.2 601.4 117.4 601.4 117.5 Z M 600.4 124.5 C 603.3 122.1 597.9 122.2 596.6 122.8 C 594.7 123.7 598.8 125.8 600.4 124.5 Z M 598.2 97.0 C 598.4 95.0 592.5 92.6 592.7 96.2 C 593.0 99.5 597.9 101.4 598.2 97.0 Z M 590.8 76.0 C 591.4 76.7 590.3 78.9 589.5 77.7 C 589.0 77.1 590.5 75.6 590.8 76.0 Z M 587.6 107.2 C 587.9 106.6 588.1 107.3 588.1 107.3 C 587.2 107.8 587.2 107.8 587.6 107.2 Z M 591.8 104.3 C 591.4 105.2 591.1 106.4 590.8 107.3 C 590.6 107.9 590.1 105.8 590.1 105.7 C 590.2 104.9 591.8 104.5 591.8 104.3 Z M 592.4 87.6 C 591.7 88.5 591.6 87.1 591.7 86.5 C 591.9 85.9 592.8 87.0 592.4 87.6 Z M 590.9 91.5 C 591.1 90.9 591.8 91.4 591.7 92.2 C 591.6 93.1 590.8 92.2 590.9 91.5 Z M 594.3 84.6 C 594.8 86.4 595.2 88.8 593.6 88.6 C 592.9 88.5 593.2 81.2 594.3 84.6 Z M 594.3 84.6 " fill="#DB2800"></path></g></svg>