<?xml version="1.0" encoding="UTF-8"?><svg xmlns="http://www.w3.org/2000/svg" xmlns:xlink="http://www.w3.org/1999/xlink" clip-rule="evenodd" stroke-miterlimit="10" viewBox="0 0 258 27"><desc>SVG generated by Keynote</desc><defs></defs><g transform="matrix(1.00, 0.00, -0.00, -1.00, 0.0, 27.0)"><text xml:space="preserve" font-family="Avenir-Light,Avenir" font-size="23.0" fill="#FEFFFF" transform="matrix(1.00, 0.00, -0.00, -1.00, 0.6, 8.4)">d</text><text xml:space="preserve" font-family="Avenir-Light,Avenir" font-size="23.0" fill="#FEFFFF" transform="matrix(1.00, 0.00, -0.00, -1.00, 14.6, 8.4)">e</text><text xml:space="preserve" font-family="Avenir-Light,Avenir" font-size="23.0" fill="#FEFFFF" transform="matrix(1.00, 0.00, -0.00, -1.00, 27.4, 8.4)">s</text><text xml:space="preserve" font-family="Avenir-Light,Avenir" font-size="23.0" fill="#FEFFFF" transform="matrix(1.00, 0.00, -0.00, -1.00, 37.2, 8.4)">i</text><text xml:space="preserve" font-family="Avenir-Light,Avenir" font-size="23.0" fill="#FEFFFF" transform="matrix(1.00, 0.00, -0.00, -1.00, 42.7, 8.4)">g</text><text xml:space="preserve" font-family="Avenir-Light,Avenir" font-size="23.0" fill="#FEFFFF" transform="matrix(1.00, 0.00, -0.00, -1.00, 56.8, 8.4)">n</text><text xml:space="preserve" font-family="Avenir-Light,Avenir" font-size="23.0" fill="#FEFFFF" transform="matrix(1.00, 0.00, -0.00, -1.00, 69.6, 8.4)"> </text><text xml:space="preserve" font-family="Avenir-Light,Avenir" font-size="23.0" fill="#FEFFFF" transform="matrix(1.00, 0.00, -0.00, -1.00, 75.5, 8.4)"> </text><text xml:space="preserve" font-family="Avenir-Light,Avenir" font-size="23.0" fill="#FEFFFF" transform="matrix(1.00, 0.00, -0.00, -1.00, 81.5, 8.4)">b</text><text xml:space="preserve" font-family="Avenir-Light,Avenir" font-size="23.0" fill="#FEFFFF" transform="matrix(1.00, 0.00, -0.00, -1.00, 95.6, 8.4)">u</text><text xml:space="preserve" font-family="Avenir-Light,Avenir" font-size="23.0" fill="#FEFFFF" transform="matrix(1.00, 0.00, -0.00, -1.00, 108.4, 8.4)">i</text><text xml:space="preserve" font-family="Avenir-Light,Avenir" font-size="23.0" fill="#FEFFFF" transform="matrix(1.00, 0.00, -0.00, -1.00, 113.9, 8.4)">l</text><text xml:space="preserve" font-family="Avenir-Light,Avenir" font-size="23.0" fill="#FEFFFF" transform="matrix(1.00, 0.00, -0.00, -1.00, 119.4, 8.4)">d</text><text xml:space="preserve" font-family="Avenir-Light,Avenir" font-size="23.0" fill="#FEFFFF" transform="matrix(1.00, 0.00, -0.00, -1.00, 133.5, 8.4)"> </text><text xml:space="preserve" font-family="Avenir-Light,Avenir" font-size="23.0" fill="#FEFFFF" transform="matrix(1.00, 0.00, -0.00, -1.00, 139.4, 8.4)"> </text><text xml:space="preserve" font-family="Avenir-Light,Avenir" font-size="23.0" fill="#FEFFFF" transform="matrix(1.00, 0.00, -0.00, -1.00, 145.4, 8.4)">t</text><text xml:space="preserve" font-family="Avenir-Light,Avenir" font-size="23.0" fill="#FEFFFF" transform="matrix(1.00, 0.00, -0.00, -1.00, 153.1, 8.4)">e</text><text xml:space="preserve" font-family="Avenir-Light,Avenir" font-size="23.0" fill="#FEFFFF" transform="matrix(1.00, 0.00, -0.00, -1.00, 165.9, 8.4)">s</text><text xml:space="preserve" font-family="Avenir-Light,Avenir" font-size="23.0" fill="#FEFFFF" transform="matrix(1.00, 0.00, -0.00, -1.00, 175.7, 8.4)">t</text><text xml:space="preserve" font-family="Avenir-Light,Avenir" font-size="23.0" fill="#FEFFFF" transform="matrix(1.00, 0.00, -0.00, -1.00, 183.3, 8.4)"> </text><text xml:space="preserve" font-family="Avenir-Light,Avenir" font-size="23.0" fill="#FEFFFF" transform="matrix(1.00, 0.00, -0.00, -1.00, 189.3, 8.4)">r</text><text xml:space="preserve" font-family="Avenir-Light,Avenir" font-size="23.0" fill="#FEFFFF" transform="matrix(1.00, 0.00, -0.00, -1.00, 196.6, 8.4)">e</text><text xml:space="preserve" font-family="Avenir-Light,Avenir" font-size="23.0" fill="#FEFFFF" transform="matrix(1.00, 0.00, -0.00, -1.00, 209.3, 8.4)">p</text><text xml:space="preserve" font-family="Avenir-Light,Avenir" font-size="23.0" fill="#FEFFFF" transform="matrix(1.00, 0.00, -0.00, -1.00, 223.4, 8.4)">e</text><text xml:space="preserve" font-family="Avenir-Light,Avenir" font-size="23.0" fill="#FEFFFF" transform="matrix(1.00, 0.00, -0.00, -1.00, 236.2, 8.4)">a</text><text xml:space="preserve" font-family="Avenir-Light,Avenir" font-size="23.0" fill="#FEFFFF" transform="matrix(1.00, 0.00, -0.00, -1.00, 248.1, 8.4)">t</text></g></svg>