<?xml version="1.0" encoding="UTF-8"?><svg xmlns="http://www.w3.org/2000/svg" xmlns:xlink="http://www.w3.org/1999/xlink" clip-rule="evenodd" stroke-miterlimit="10" viewBox="0 0 63 59"><desc>SVG generated by Keynote</desc><defs></defs><g transform="matrix(1.00, 0.00, -0.00, -1.00, 0.0, 59.0)"><text xml:space="preserve" font-family="Avenir-Light,Avenir" font-size="23.0" fill="#FEFFFF" transform="matrix(1.00, 0.00, -0.00, -1.00, 9.6, 38.4)">f</text><text xml:space="preserve" font-family="Avenir-Light,Avenir" font-size="23.0" fill="#FEFFFF" transform="matrix(1.00, 0.00, -0.00, -1.00, 16.4, 38.4)">i</text><text xml:space="preserve" font-family="Avenir-Light,Avenir" font-size="23.0" fill="#FEFFFF" transform="matrix(1.00, 0.00, -0.00, -1.00, 21.9, 38.4)">n</text><text xml:space="preserve" font-family="Avenir-Light,Avenir" font-size="23.0" fill="#FEFFFF" transform="matrix(1.00, 0.00, -0.00, -1.00, 34.7, 38.4)">a</text><text xml:space="preserve" font-family="Avenir-Light,Avenir" font-size="23.0" fill="#FEFFFF" transform="matrix(1.00, 0.00, -0.00, -1.00, 46.6, 38.4)">l</text><text xml:space="preserve" font-family="Avenir-Light,Avenir" font-size="23.0" fill="#FEFFFF" transform="matrix(1.00, 0.00, -0.00, -1.00, 52.1, 38.4)"> </text><text xml:space="preserve" font-family="Avenir-Light,Avenir" font-size="23.0" fill="#FEFFFF" transform="matrix(1.00, 0.00, -0.00, -1.00, 0.2, 7.4)">r</text><text xml:space="preserve" font-family="Avenir-Light,Avenir" font-size="23.0" fill="#FEFFFF" transform="matrix(1.00, 0.00, -0.00, -1.00, 7.4, 7.4)">e</text><text xml:space="preserve" font-family="Avenir-Light,Avenir" font-size="23.0" fill="#FEFFFF" transform="matrix(1.00, 0.00, -0.00, -1.00, 20.2, 7.4)">a</text><text xml:space="preserve" font-family="Avenir-Light,Avenir" font-size="23.0" fill="#FEFFFF" transform="matrix(1.00, 0.00, -0.00, -1.00, 32.2, 7.4)">l</text><text xml:space="preserve" font-family="Avenir-Light,Avenir" font-size="23.0" fill="#FEFFFF" transform="matrix(1.00, 0.00, -0.00, -1.00, 37.7, 7.4)">i</text><text xml:space="preserve" font-family="Avenir-Light,Avenir" font-size="23.0" fill="#FEFFFF" transform="matrix(1.00, 0.00, -0.00, -1.00, 43.2, 7.4)">t</text><text xml:space="preserve" font-family="Avenir-Light,Avenir" font-size="23.0" fill="#FEFFFF" transform="matrix(1.00, 0.00, -0.00, -1.00, 50.9, 7.4)">y</text></g></svg>