<?xml version="1.0" encoding="UTF-8"?><svg xmlns="http://www.w3.org/2000/svg" xmlns:xlink="http://www.w3.org/1999/xlink" clip-rule="evenodd" stroke-miterlimit="10" viewBox="0 0 1024 768"><desc>SVG generated by Keynote</desc><defs></defs><g transform="matrix(1.00, 0.00, -0.00, -1.00, 0.0, 768.0)"><path d="M 0.0 0.0 L 1024.0 0.0 L 1024.0 768.0 L 0.0 768.0 Z M 0.0 0.0 " fill="#000000"></path><path d="M 512.0 637.4 C 236.0 637.4 12.3 528.8 12.3 394.9 C 12.3 313.7 94.7 241.8 221.2 197.8 L 105.0 34.5 L 347.5 166.0 C 399.0 157.3 454.3 152.5 512.0 152.5 C 788.0 152.5 1011.7 261.0 1011.7 394.9 C 1011.7 528.8 788.0 637.4 512.0 637.4 Z M 512.0 637.4 " fill="#1E3B6D"></path><text xml:space="preserve" font-family="Avenir-Light,Avenir" font-size="23.0" fill="#FEFFFF" transform="matrix(1.00, 0.00, -0.00, -1.00, 910.5, 361.4)">c</text><text xml:space="preserve" font-family="Avenir-Light,Avenir" font-size="23.0" fill="#FEFFFF" transform="matrix(1.00, 0.00, -0.00, -1.00, 921.5, 361.4)">o</text><text xml:space="preserve" font-family="Avenir-Light,Avenir" font-size="23.0" fill="#FEFFFF" transform="matrix(1.00, 0.00, -0.00, -1.00, 935.2, 361.4)">r</text><text xml:space="preserve" font-family="Avenir-Light,Avenir" font-size="23.0" fill="#FEFFFF" transform="matrix(1.00, 0.00, -0.00, -1.00, 942.4, 361.4)">e</text><text xml:space="preserve" font-family="Avenir-Light,Avenir" font-size="23.0" fill="#FEFFFF" transform="matrix(1.00, 0.00, -0.00, -1.00, 955.2, 361.4)"> </text><text xml:space="preserve" font-family="Avenir-Light,Avenir" font-size="23.0" fill="#FEFFFF" transform="matrix(1.00, 0.00, -0.00, -1.00, 894.1, 330.4)">d</text><text xml:space="preserve" font-family="Avenir-Light,Avenir" font-size="23.0" fill="#FEFFFF" transform="matrix(1.00, 0.00, -0.00, -1.00, 908.1, 330.4)">o</text><text xml:space="preserve" font-family="Avenir-Light,Avenir" font-size="23.0" fill="#FEFFFF" transform="matrix(1.00, 0.00, -0.00, -1.00, 921.8, 330.4)">m</text><text xml:space="preserve" font-family="Avenir-Light,Avenir" font-size="23.0" fill="#FEFFFF" transform="matrix(1.00, 0.00, -0.00, -1.00, 941.4, 330.4)">a</text><text xml:space="preserve" font-family="Avenir-Light,Avenir" font-size="23.0" fill="#FEFFFF" transform="matrix(1.00, 0.00, -0.00, -1.00, 953.3, 330.4)">i</text><text xml:space="preserve" font-family="Avenir-Light,Avenir" font-size="23.0" fill="#FEFFFF" transform="matrix(1.00, 0.00, -0.00, -1.00, 958.8, 330.4)">n</text><text xml:space="preserve" font-family="Avenir-Light,Avenir" font-size="45.0" fill="#FEFFFF" transform="matrix(1.00, 0.00, -0.00, -1.00, 74.0, 671.5)">D</text><text xml:space="preserve" font-family="Avenir-Light,Avenir" font-size="45.0" fill="#FEFFFF" transform="matrix(1.00, 0.00, -0.00, -1.00, 114.5, 671.5)">O</text><text xml:space="preserve" font-family="Avenir-Light,Avenir" font-size="45.0" fill="#FEFFFF" transform="matrix(1.00, 0.00, -0.00, -1.00, 159.3, 671.5)">M</text><text xml:space="preserve" font-family="Avenir-Light,Avenir" font-size="45.0" fill="#FEFFFF" transform="matrix(1.00, 0.00, -0.00, -1.00, 206.5, 671.5)">A</text><text xml:space="preserve" font-family="Avenir-Light,Avenir" font-size="45.0" fill="#FEFFFF" transform="matrix(1.00, 0.00, -0.00, -1.00, 244.5, 671.5)">I</text><text xml:space="preserve" font-family="Avenir-Light,Avenir" font-size="45.0" fill="#FEFFFF" transform="matrix(1.00, 0.00, -0.00, -1.00, 263.4, 671.5)">N</text><text xml:space="preserve" font-family="Avenir-Light,Avenir" font-size="45.0" fill="#FEFFFF" transform="matrix(1.00, 0.00, -0.00, -1.00, 305.6, 671.5)"> </text><text xml:space="preserve" font-family="Avenir-Light,Avenir" font-size="45.0" fill="#FEFFFF" transform="matrix(1.00, 0.00, -0.00, -1.00, 324.5, 671.5)">D</text><text xml:space="preserve" font-family="Avenir-Light,Avenir" font-size="45.0" fill="#FEFFFF" transform="matrix(1.00, 0.00, -0.00, -1.00, 365.1, 671.5)">R</text><text xml:space="preserve" font-family="Avenir-Light,Avenir" font-size="45.0" fill="#FEFFFF" transform="matrix(1.00, 0.00, -0.00, -1.00, 398.9, 671.5)">I</text><text xml:space="preserve" font-family="Avenir-Light,Avenir" font-size="45.0" fill="#FEFFFF" transform="matrix(1.00, 0.00, -0.00, -1.00, 417.8, 671.5)">V</text><text xml:space="preserve" font-family="Avenir-Light,Avenir" font-size="45.0" fill="#FEFFFF" transform="matrix(1.00, 0.00, -0.00, -1.00, 451.7, 671.5)">E</text><text xml:space="preserve" font-family="Avenir-Light,Avenir" font-size="45.0" fill="#FEFFFF" transform="matrix(1.00, 0.00, -0.00, -1.00, 485.6, 671.5)">N</text><text xml:space="preserve" font-family="Avenir-Light,Avenir" font-size="45.0" fill="#FEFFFF" transform="matrix(1.00, 0.00, -0.00, -1.00, 527.8, 671.5)"> </text><text xml:space="preserve" font-family="Avenir-Light,Avenir" font-size="45.0" fill="#FEFFFF" transform="matrix(1.00, 0.00, -0.00, -1.00, 546.7, 671.5)">D</text><text xml:space="preserve" font-family="Avenir-Light,Avenir" font-size="45.0" fill="#FEFFFF" transform="matrix(1.00, 0.00, -0.00, -1.00, 587.3, 671.5)">E</text><text xml:space="preserve" font-family="Avenir-Light,Avenir" font-size="45.0" fill="#FEFFFF" transform="matrix(1.00, 0.00, -0.00, -1.00, 621.2, 671.5)">S</text><text xml:space="preserve" font-family="Avenir-Light,Avenir" font-size="45.0" fill="#FEFFFF" transform="matrix(1.00, 0.00, -0.00, -1.00, 653.4, 671.5)">I</text><text xml:space="preserve" font-family="Avenir-Light,Avenir" font-size="45.0" fill="#FEFFFF" transform="matrix(1.00, 0.00, -0.00, -1.00, 672.3, 671.5)">G</text><text xml:space="preserve" font-family="Avenir-Light,Avenir" font-size="45.0" fill="#FEFFFF" transform="matrix(1.00, 0.00, -0.00, -1.00, 714.5, 671.5)">N</text><text xml:space="preserve" font-family="Avenir-Light,Avenir" font-size="40.0" fill="#FEFFFF" transform="matrix(1.00, 0.00, -0.00, -1.00, 300.5, 285.9)">d</text><text xml:space="preserve" font-family="Avenir-Light,Avenir" font-size="40.0" fill="#FEFFFF" transform="matrix(1.00, 0.00, -0.00, -1.00, 324.9, 285.9)">o</text><text xml:space="preserve" font-family="Avenir-Light,Avenir" font-size="40.0" fill="#FEFFFF" transform="matrix(1.00, 0.00, -0.00, -1.00, 348.7, 285.9)">m</text><text xml:space="preserve" font-family="Avenir-Light,Avenir" font-size="40.0" fill="#FEFFFF" transform="matrix(1.00, 0.00, -0.00, -1.00, 382.8, 285.9)">a</text><text xml:space="preserve" font-family="Avenir-Light,Avenir" font-size="40.0" fill="#FEFFFF" transform="matrix(1.00, 0.00, -0.00, -1.00, 403.5, 285.9)">i</text><text xml:space="preserve" font-family="Avenir-Light,Avenir" font-size="40.0" fill="#FEFFFF" transform="matrix(1.00, 0.00, -0.00, -1.00, 413.1, 285.9)">n</text><text xml:space="preserve" font-family="Avenir-Light,Avenir" font-size="40.0" fill="#FEFFFF" transform="matrix(1.00, 0.00, -0.00, -1.00, 435.4, 285.9)"> </text><text xml:space="preserve" font-family="Avenir-Light,Avenir" font-size="40.0" fill="#FEFFFF" transform="matrix(1.00, 0.00, -0.00, -1.00, 445.8, 285.9)">v</text><text xml:space="preserve" font-family="Avenir-Light,Avenir" font-size="40.0" fill="#FEFFFF" transform="matrix(1.00, 0.00, -0.00, -1.00, 464.3, 285.9)">i</text><text xml:space="preserve" font-family="Avenir-Light,Avenir" font-size="40.0" fill="#FEFFFF" transform="matrix(1.00, 0.00, -0.00, -1.00, 473.9, 285.9)">s</text><text xml:space="preserve" font-family="Avenir-Light,Avenir" font-size="40.0" fill="#FEFFFF" transform="matrix(1.00, 0.00, -0.00, -1.00, 490.9, 285.9)">i</text><text xml:space="preserve" font-family="Avenir-Light,Avenir" font-size="40.0" fill="#FEFFFF" transform="matrix(1.00, 0.00, -0.00, -1.00, 500.5, 285.9)">o</text><text xml:space="preserve" font-family="Avenir-Light,Avenir" font-size="40.0" fill="#FEFFFF" transform="matrix(1.00, 0.00, -0.00, -1.00, 524.3, 285.9)">n</text><text xml:space="preserve" font-family="Avenir-Light,Avenir" font-size="40.0" fill="#FEFFFF" transform="matrix(1.00, 0.00, -0.00, -1.00, 546.5, 285.9)"> </text><text xml:space="preserve" font-family="Avenir-Light,Avenir" font-size="40.0" fill="#FEFFFF" transform="matrix(1.00, 0.00, -0.00, -1.00, 556.9, 285.9)">s</text><text xml:space="preserve" font-family="Avenir-Light,Avenir" font-size="40.0" fill="#FEFFFF" transform="matrix(1.00, 0.00, -0.00, -1.00, 574.0, 285.9)">t</text><text xml:space="preserve" font-family="Avenir-Light,Avenir" font-size="40.0" fill="#FEFFFF" transform="matrix(1.00, 0.00, -0.00, -1.00, 587.3, 285.9)">a</text><text xml:space="preserve" font-family="Avenir-Light,Avenir" font-size="40.0" fill="#FEFFFF" transform="matrix(1.00, 0.00, -0.00, -1.00, 608.0, 285.9)">t</text><text xml:space="preserve" font-family="Avenir-Light,Avenir" font-size="40.0" fill="#FEFFFF" transform="matrix(1.00, 0.00, -0.00, -1.00, 621.4, 285.9)">e</text><text xml:space="preserve" font-family="Avenir-Light,Avenir" font-size="40.0" fill="#FEFFFF" transform="matrix(1.00, 0.00, -0.00, -1.00, 643.6, 285.9)">m</text><text xml:space="preserve" font-family="Avenir-Light,Avenir" font-size="40.0" fill="#FEFFFF" transform="matrix(1.00, 0.00, -0.00, -1.00, 677.7, 285.9)">e</text><text xml:space="preserve" font-family="Avenir-Light,Avenir" font-size="40.0" fill="#FEFFFF" transform="matrix(1.00, 0.00, -0.00, -1.00, 699.9, 285.9)">n</text><text xml:space="preserve" font-family="Avenir-Light,Avenir" font-size="40.0" fill="#FEFFFF" transform="matrix(1.00, 0.00, -0.00, -1.00, 722.2, 285.9)">t</text><path d="M 205.7 345.1 C 204.3 345.9 200.6 344.7 199.5 345.5 M 205.7 345.1 C 205.7 345.1 205.7 345.1 205.7 345.1 C 207.1 344.2 201.2 341.6 200.7 340.6 C 200.1 339.6 199.0 340.7 198.3 340.7 C 196.4 340.7 199.0 338.2 195.2 339.0 C 192.3 339.6 189.5 338.4 186.7 338.2 C 184.2 337.9 182.5 338.0 182.9 340.9 C 186.5 343.1 185.9 345.5 185.9 345.5 C 183.0 345.8 176.7 346.3 174.6 345.1 C 174.0 344.8 175.7 337.8 175.2 337.8 C 173.4 337.2 172.7 339.4 170.9 339.4 C 169.0 339.4 168.0 339.7 166.3 338.5 C 166.0 338.2 162.5 338.0 163.9 339.1 C 162.5 339.0 160.4 338.4 159.0 339.0 C 157.8 339.5 157.5 341.8 159.1 342.1 C 158.8 342.4 165.7 343.0 165.8 342.5 C 165.6 344.5 160.1 341.7 158.7 344.6 C 156.8 348.7 160.0 347.0 161.8 348.2 C 163.7 349.3 158.8 351.3 157.0 351.3 C 153.3 351.3 162.5 355.0 158.7 356.1 C 155.0 357.3 158.9 358.3 162.0 360.2 C 164.2 361.5 163.4 363.1 161.7 364.0 C 164.1 363.7 165.5 364.2 167.3 366.5 C 169.7 367.0 168.7 365.4 168.4 364.3 C 167.4 359.6 175.9 365.0 176.3 364.9 C 177.6 364.8 178.6 363.4 180.0 363.9 C 181.0 364.3 180.8 366.4 181.7 366.4 C 183.0 366.3 184.3 366.3 185.6 366.3 C 186.5 366.3 184.3 365.4 185.7 364.0 C 187.2 362.6 185.2 360.0 184.9 359.6 C 185.1 358.0 191.4 364.8 194.9 364.6 C 198.3 364.5 196.1 362.9 198.4 362.8 C 200.5 362.7 199.8 364.7 201.3 364.8 C 202.8 364.8 203.3 363.6 204.6 364.1 C 207.5 365.3 207.5 362.0 205.5 359.5 C 204.5 358.3 202.7 357.4 203.9 355.2 C 205.0 353.1 208.5 354.3 206.8 352.8 C 205.1 351.3 198.0 353.5 197.1 352.2 C 196.1 350.8 203.8 351.2 202.7 349.3 C 201.7 347.5 201.1 349.7 198.6 348.7 C 198.8 347.7 200.0 348.6 200.2 347.4 C 200.4 346.2 198.5 346.3 199.5 345.5 C 200.6 344.7 204.3 345.9 205.7 345.1 C 205.7 345.1 205.7 345.1 205.7 345.1 Z M 171.7 341.0 C 171.7 341.0 171.7 341.0 171.7 341.0 C 171.3 340.5 172.1 340.0 172.9 340.3 C 173.8 340.5 172.1 341.4 171.7 341.0 C 171.7 341.0 171.7 341.0 171.7 341.0 Z M 194.8 366.4 C 194.8 366.4 194.8 366.4 194.8 366.4 C 194.5 366.0 195.2 365.4 196.0 365.7 C 196.9 366.0 195.2 366.8 194.8 366.4 C 194.8 366.4 194.8 366.4 194.8 366.4 Z M 170.0 364.4 C 170.0 364.4 170.0 364.4 170.0 364.4 C 169.7 364.0 170.4 363.4 171.3 363.7 C 172.1 364.0 170.4 364.9 170.0 364.4 C 170.0 364.4 170.0 364.4 170.0 364.4 Z M 180.6 342.2 C 180.6 342.2 180.6 342.2 180.6 342.2 C 181.7 342.1 183.2 343.1 180.7 344.0 C 179.7 344.2 178.8 344.2 178.0 343.9 C 177.1 343.9 175.8 343.7 175.3 343.1 C 177.5 342.6 179.4 340.9 180.6 342.2 C 180.6 342.2 180.6 342.2 180.6 342.2 Z M 181.3 353.2 C 181.3 353.2 181.3 353.2 181.3 353.2 C 181.7 352.5 183.9 352.3 183.7 354.2 C 182.3 354.7 180.9 353.9 181.3 353.2 C 181.3 353.2 181.3 353.2 181.3 353.2 Z M 154.8 345.4 C 154.8 345.4 154.8 345.4 154.8 345.4 C 155.2 344.7 157.4 344.5 157.2 346.4 C 155.8 346.9 154.4 346.1 154.8 345.4 C 154.8 345.4 154.8 345.4 154.8 345.4 Z M 186.6 347.2 C 186.6 347.2 186.6 347.2 186.6 347.2 C 187.9 347.6 188.5 349.3 186.8 349.5 C 186.1 348.7 182.3 348.4 186.6 347.2 C 186.6 347.2 186.6 347.2 186.6 347.2 Z M 195.0 340.9 C 195.0 340.9 195.0 340.9 195.0 340.9 C 195.8 341.3 196.3 341.1 196.1 342.6 C 195.0 342.6 195.3 342.7 194.1 342.8 C 192.3 342.4 191.4 345.9 190.5 343.8 C 189.2 340.9 194.4 339.8 195.0 340.9 C 195.0 340.9 195.0 340.9 195.0 340.9 Z M 189.2 349.9 C 189.2 349.9 189.2 349.9 189.2 349.9 C 189.7 350.0 190.1 350.4 190.2 350.7 C 189.9 351.5 188.8 350.2 189.2 349.9 C 189.2 349.9 189.2 349.9 189.2 349.9 Z M 158.5 359.5 C 158.5 359.5 158.5 359.5 158.5 359.5 C 158.9 359.6 159.4 360.1 159.5 360.3 C 159.1 361.1 158.0 359.9 158.5 359.5 C 158.5 359.5 158.5 359.5 158.5 359.5 Z M 178.0 365.4 C 178.0 365.4 178.0 365.4 178.0 365.4 C 178.4 365.5 178.9 366.0 179.0 366.2 C 178.6 367.0 177.6 365.7 178.0 365.4 C 178.0 365.4 178.0 365.4 178.0 365.4 Z M 170.7 346.0 C 170.7 346.0 170.7 346.0 170.7 346.0 C 169.8 346.8 167.3 344.9 167.6 344.4 C 168.5 342.9 171.6 345.2 170.7 346.0 C 170.7 346.0 170.7 346.0 170.7 346.0 Z M 205.3 340.4 C 205.3 340.4 205.3 340.4 205.3 340.4 C 204.4 341.2 201.9 339.4 202.2 338.9 C 203.1 337.3 206.2 339.7 205.3 340.4 C 205.3 340.4 205.3 340.4 205.3 340.4 Z M 761.5 342.2 C 761.5 342.2 761.5 342.2 761.5 342.2 C 762.2 342.1 762.8 342.0 763.5 341.6 C 763.2 341.5 762.9 341.3 762.6 341.2 C 762.1 341.2 761.7 341.2 761.2 341.2 C 759.2 341.2 762.0 338.7 757.9 339.5 C 755.0 340.0 754.8 339.0 752.0 338.6 C 751.3 338.7 753.0 341.8 753.1 342.3 C 753.5 344.3 751.4 346.8 750.9 346.6 C 749.9 346.8 747.3 347.3 745.3 346.3 C 742.9 346.4 744.1 342.3 744.1 342.3 C 741.1 342.6 742.1 342.0 739.8 341.5 C 738.1 341.6 738.6 344.1 736.8 344.1 C 736.2 344.6 735.6 339.7 731.6 339.7 C 729.5 339.7 728.5 339.9 726.7 338.6 C 726.3 338.3 722.5 338.1 724.0 339.3 C 723.2 339.2 721.9 339.0 721.4 339.7 C 719.8 342.7 724.4 341.5 724.7 342.3 C 724.8 342.6 722.1 343.1 722.5 344.3 C 722.9 345.8 712.7 344.9 716.3 346.6 C 720.2 348.4 719.0 353.1 718.2 353.7 C 717.6 353.7 717.4 351.2 716.1 352.6 C 714.8 354.0 718.2 355.6 718.2 356.6 C 718.2 362.6 718.3 358.8 721.6 360.8 C 723.2 361.8 720.7 363.3 720.0 364.2 C 720.2 364.5 723.1 364.4 723.3 364.7 C 724.8 364.9 724.4 364.2 725.7 365.8 C 726.5 366.6 728.8 365.6 729.1 365.6 C 729.8 365.2 727.9 365.3 727.7 364.5 C 726.9 360.8 730.5 365.2 732.9 365.1 C 735.3 365.0 736.2 364.8 736.7 364.9 C 737.0 364.9 736.9 362.3 737.5 362.5 C 738.4 362.1 739.1 363.3 739.9 364.1 C 740.6 364.9 742.7 363.0 743.8 363.1 C 744.9 363.3 744.7 364.6 747.3 365.4 C 749.8 366.2 749.7 362.4 749.4 361.4 C 748.1 357.9 751.5 364.9 753.2 364.7 C 755.0 364.5 755.0 363.0 756.1 363.1 C 756.7 363.3 757.3 363.7 757.8 364.2 C 758.3 363.4 759.2 363.9 761.1 363.8 C 761.3 363.8 761.5 363.8 761.7 363.8 C 761.9 363.5 759.0 361.9 759.3 361.4 C 760.2 360.1 761.8 362.0 762.4 362.8 C 763.4 361.6 764.9 361.1 766.5 361.7 C 769.7 362.9 769.7 359.6 767.5 357.0 C 766.5 355.8 764.1 354.2 765.9 352.6 C 767.6 351.0 770.9 352.7 769.0 350.2 C 768.8 350.2 769.3 348.9 766.3 349.8 C 763.2 350.8 761.5 349.3 761.5 349.2 C 759.8 349.1 759.5 350.4 758.5 349.4 C 757.5 348.5 760.0 348.4 761.7 348.5 C 762.0 348.0 761.1 347.0 762.7 347.0 C 764.3 346.9 764.3 348.3 765.0 347.4 C 765.8 346.5 764.9 346.9 764.7 346.6 C 765.9 346.4 767.1 346.4 768.3 346.5 C 770.7 346.9 766.9 343.9 765.9 343.7 C 764.0 343.3 762.1 345.5 761.5 342.2 C 761.5 342.2 761.5 342.2 761.5 342.2 Z M 763.2 351.9 C 763.2 351.9 763.2 351.9 763.2 351.9 C 762.5 352.2 760.3 351.7 761.3 351.0 C 762.2 350.4 763.8 351.5 763.2 351.9 C 763.2 351.9 763.2 351.9 763.2 351.9 Z M 746.6 366.9 C 746.6 366.9 746.6 366.9 746.6 366.9 C 746.0 367.2 743.7 366.7 744.7 366.0 C 745.7 365.4 747.3 366.5 746.6 366.9 C 746.6 366.9 746.6 366.9 746.6 366.9 Z M 747.2 340.5 C 747.2 340.5 747.2 340.5 747.2 340.5 C 746.5 341.8 744.5 339.6 745.3 339.0 C 746.2 339.2 747.0 340.0 747.2 340.5 C 747.2 340.5 747.2 340.5 747.2 340.5 Z M 754.3 361.4 C 754.3 361.4 754.3 361.4 754.3 361.4 C 754.0 361.4 753.7 361.4 753.4 361.4 C 753.8 360.7 755.3 360.2 755.9 360.1 C 756.1 361.3 755.0 361.4 754.3 361.4 C 754.3 361.4 754.3 361.4 754.3 361.4 Z M 739.5 340.5 C 739.5 340.5 739.5 340.5 739.5 340.5 C 738.6 341.5 737.5 341.0 736.5 340.9 C 736.2 337.0 740.5 339.5 739.5 340.5 C 739.5 340.5 739.5 340.5 739.5 340.5 Z M 725.8 347.0 C 725.8 347.0 725.8 347.0 725.8 347.0 C 727.4 348.2 723.3 350.2 722.6 349.1 C 721.9 347.9 723.4 347.5 724.4 347.4 C 724.6 347.1 724.2 345.8 725.8 347.0 C 725.8 347.0 725.8 347.0 725.8 347.0 Z M 735.3 362.1 C 735.3 362.1 735.3 362.1 735.3 362.1 C 735.6 361.9 735.9 361.3 736.2 361.7 C 736.4 362.0 735.8 362.6 735.3 362.1 C 735.3 362.1 735.3 362.1 735.3 362.1 Z M 765.1 363.1 C 765.1 363.1 765.1 363.1 765.1 363.1 C 765.3 362.9 765.6 362.3 765.9 362.7 C 766.1 363.0 765.5 363.6 765.1 363.1 C 765.1 363.1 765.1 363.1 765.1 363.1 Z M 726.8 361.4 C 726.8 361.4 726.8 361.4 726.8 361.4 C 726.4 360.3 727.6 360.9 728.1 360.6 C 728.4 361.5 727.3 362.5 726.8 361.4 C 726.8 361.4 726.8 361.4 726.8 361.4 Z M 746.0 343.3 C 746.0 343.3 746.0 343.3 746.0 343.3 C 747.3 341.6 751.0 341.4 751.0 344.6 C 749.9 344.8 748.9 345.3 747.8 345.0 C 747.1 344.9 746.5 343.8 746.0 343.3 C 746.0 343.3 746.0 343.3 746.0 343.3 Z M 757.2 342.7 C 757.2 342.7 757.2 342.7 757.2 342.7 C 757.8 342.1 759.4 342.2 758.5 343.7 C 758.0 344.2 757.5 344.6 756.8 344.7 C 756.2 345.0 754.9 345.9 754.5 345.3 C 754.1 344.7 755.5 342.4 757.2 342.7 C 757.2 342.7 757.2 342.7 757.2 342.7 Z M 739.4 343.9 C 739.4 343.9 739.4 343.9 739.4 343.9 C 739.7 342.9 742.5 342.8 742.5 343.4 C 742.5 343.9 739.1 344.9 739.4 343.9 C 739.4 343.9 739.4 343.9 739.4 343.9 Z M 750.3 340.9 C 750.3 340.9 750.3 340.9 750.3 340.9 C 750.7 340.9 751.0 341.1 750.8 341.3 C 750.5 341.5 750.1 341.5 749.9 341.3 C 749.8 341.1 749.9 340.8 750.3 340.9 C 750.3 340.9 750.3 340.9 750.3 340.9 Z M 731.0 338.2 C 731.0 338.2 731.0 338.2 731.0 338.2 C 731.4 338.3 731.7 338.4 731.5 338.6 C 731.2 338.8 730.8 338.8 730.6 338.6 C 730.5 338.5 730.6 338.1 731.0 338.2 C 731.0 338.2 731.0 338.2 731.0 338.2 Z M 762.4 339.9 C 762.4 339.9 762.4 339.9 762.4 339.9 C 762.8 340.0 763.2 340.1 762.9 340.3 C 762.7 340.5 762.2 340.5 762.1 340.3 C 761.9 340.2 762.0 339.8 762.4 339.9 C 762.4 339.9 762.4 339.9 762.4 339.9 Z M 732.7 341.8 C 732.7 341.8 732.7 341.8 732.7 341.8 C 733.4 342.4 733.4 343.4 731.9 343.5 C 740.2 346.8 728.4 347.6 727.3 345.1 C 725.7 341.4 732.1 340.4 732.7 341.8 C 732.7 341.8 732.7 341.8 732.7 341.8 Z M 221.7 345.2 C 219.6 343.3 215.4 345.0 213.1 344.0 C 210.6 343.1 208.8 340.4 207.8 343.9 C 207.1 346.3 201.0 346.3 201.6 348.6 C 202.0 350.3 202.9 351.6 202.8 353.5 C 202.7 356.8 200.1 357.6 203.2 360.0 C 205.7 361.9 205.4 357.7 207.4 362.0 C 208.8 365.0 212.0 365.2 213.4 362.2 C 214.6 359.3 216.7 357.7 218.3 361.7 C 219.1 363.7 219.2 364.3 220.9 365.0 C 221.5 365.3 225.8 363.4 225.8 363.4 C 225.5 362.7 222.8 360.5 225.1 360.2 C 226.6 360.0 228.7 362.0 228.1 363.8 C 227.1 366.9 236.2 364.4 235.4 363.6 C 235.7 363.8 237.7 367.2 238.5 364.7 C 238.5 364.7 242.4 364.2 243.0 364.2 C 251.0 363.3 237.9 358.2 246.5 358.1 C 252.2 358.0 248.5 362.5 248.8 363.4 C 249.5 365.3 254.1 365.1 255.8 365.3 C 257.2 365.4 258.5 363.3 259.4 362.3 C 260.7 360.9 263.8 361.5 264.9 362.9 C 265.4 363.5 266.3 365.3 267.1 365.5 C 267.1 365.5 269.9 365.7 269.4 365.1 C 269.1 364.9 266.8 363.6 267.8 362.8 C 268.5 362.2 271.0 365.2 271.9 365.4 C 273.7 365.9 273.6 360.7 276.8 363.1 C 279.1 364.8 277.7 364.6 279.2 362.2 C 280.1 360.9 283.5 363.9 283.7 364.9 C 282.6 359.8 286.1 364.3 286.3 363.5 C 286.2 364.1 284.4 364.4 284.6 365.0 C 284.7 365.3 298.1 366.2 298.6 364.5 C 299.1 362.8 297.1 361.2 300.8 361.8 C 301.9 361.9 303.8 363.1 303.6 363.6 C 301.7 364.4 302.3 363.8 300.1 365.0 C 300.1 365.1 304.5 365.6 305.1 365.6 C 307.5 365.7 308.3 364.5 310.4 363.3 C 311.8 362.5 313.0 364.9 314.7 365.0 C 316.6 365.1 318.3 365.2 320.3 364.8 C 322.1 364.3 322.7 364.5 322.8 362.7 C 322.8 361.0 326.5 360.9 327.4 360.0 C 328.3 359.1 328.5 359.2 329.8 360.1 C 332.1 361.7 330.5 361.9 330.7 362.8 C 331.6 366.0 337.6 365.6 339.5 365.1 C 341.7 364.5 338.2 363.0 338.6 362.6 C 339.7 361.9 341.2 362.8 342.3 362.8 C 344.0 362.8 342.4 363.9 342.9 364.4 C 345.8 367.2 346.9 361.4 348.8 361.8 C 351.5 362.5 352.3 366.6 355.5 364.6 C 358.9 362.5 361.6 366.5 365.0 364.8 C 367.8 363.5 372.1 368.1 373.6 363.9 C 374.4 362.0 377.2 359.8 377.2 357.7 C 377.2 357.1 375.4 351.1 374.7 352.1 C 375.1 351.4 377.1 351.6 377.3 350.7 C 377.4 349.9 374.5 348.9 374.1 348.4 C 373.9 348.1 377.5 346.6 377.7 346.0 C 377.9 345.2 371.7 343.7 371.6 340.9 C 371.6 339.7 369.1 338.8 369.2 340.2 C 369.2 340.9 370.2 344.5 371.0 344.4 C 370.6 344.4 367.4 343.5 367.4 343.5 C 367.8 344.0 368.0 344.6 368.1 345.4 C 367.9 345.7 360.9 345.7 360.6 345.3 C 359.9 344.2 360.8 341.0 359.9 340.3 C 359.3 339.8 357.7 341.8 356.8 341.7 C 355.3 341.6 356.9 339.9 355.4 339.5 C 355.0 339.3 347.1 340.6 347.0 341.2 C 346.9 341.4 349.0 344.4 349.1 345.4 C 349.3 347.4 347.0 346.5 346.1 346.4 C 344.6 346.3 339.0 344.5 339.0 341.9 C 339.0 341.1 342.9 340.8 343.5 340.4 C 342.8 340.9 337.7 336.3 336.2 339.5 C 336.0 340.0 338.0 340.2 338.1 340.4 C 338.3 340.8 336.9 343.8 335.9 343.6 C 335.3 343.4 333.8 341.2 333.1 341.9 C 333.4 341.6 331.0 344.6 330.8 343.4 C 330.9 344.1 332.9 346.2 332.4 346.9 C 332.4 346.9 328.3 346.5 328.0 346.4 C 325.1 345.6 326.1 346.6 324.5 347.8 C 323.0 349.0 319.5 350.1 320.1 346.8 C 320.8 343.0 317.5 341.9 317.5 344.8 C 317.5 347.8 317.0 347.1 314.5 346.4 C 311.9 345.7 309.3 346.9 307.2 344.6 C 304.6 341.8 308.7 341.2 307.9 340.1 C 307.0 338.9 304.8 339.1 303.6 339.3 C 301.7 339.8 303.3 341.7 302.6 342.0 C 301.2 342.6 299.6 339.6 298.2 340.1 C 298.0 340.1 295.8 342.0 296.3 342.0 C 290.1 341.6 296.5 343.2 297.2 345.9 C 297.5 346.8 293.8 345.0 294.7 348.3 C 295.6 351.7 290.3 351.6 290.0 350.0 C 290.4 349.6 290.7 349.3 291.1 348.9 C 290.5 347.1 285.1 347.7 284.9 346.2 C 284.8 345.5 292.2 343.2 291.0 341.4 C 290.3 340.3 288.7 342.1 288.3 342.6 C 287.6 343.5 287.4 341.3 287.1 341.0 C 287.3 341.2 284.1 341.3 283.7 342.6 C 283.5 342.9 286.1 343.9 285.2 344.3 C 281.8 345.7 283.7 343.0 282.1 341.3 C 281.1 340.2 275.5 339.1 275.6 339.3 C 275.8 339.6 277.6 340.0 277.3 340.7 C 276.8 341.8 274.9 341.0 274.5 341.9 C 274.3 342.2 276.0 342.7 275.9 343.0 C 275.1 344.0 271.3 343.6 271.2 344.6 C 271.1 345.5 275.0 344.9 275.0 346.1 C 275.0 347.0 273.0 348.5 272.7 346.9 C 272.3 344.9 268.7 347.3 267.5 346.2 C 266.2 345.1 269.7 343.5 266.8 343.1 C 263.4 342.5 265.8 344.2 265.1 345.2 C 263.1 348.1 259.1 338.9 257.9 341.2 C 257.5 342.0 260.9 345.6 257.7 344.8 C 256.3 344.4 249.8 347.8 249.8 344.9 C 249.8 344.2 253.7 343.9 253.4 343.3 C 252.7 342.0 250.2 342.3 249.1 342.0 C 247.4 341.7 248.3 340.2 247.2 339.2 C 245.8 338.1 244.8 341.3 243.6 341.1 C 242.4 340.9 243.5 345.7 243.7 346.3 C 243.2 344.4 239.7 346.9 238.7 345.1 C 236.5 341.1 236.1 342.6 233.3 341.3 C 233.9 341.4 234.3 341.6 234.5 342.2 C 234.3 342.5 232.2 342.7 232.0 342.6 C 232.8 342.9 233.4 343.4 233.9 344.2 C 233.9 344.3 224.8 349.3 223.8 345.1 C 223.7 344.5 223.1 337.5 221.5 339.7 C 220.9 340.4 221.8 345.3 221.7 345.2 M 255.4 342.4 C 256.0 342.3 256.4 342.6 256.6 343.2 C 256.0 343.7 255.3 343.8 254.6 343.4 C 254.4 342.7 254.7 342.4 255.4 342.4 M 255.1 340.1 C 255.7 340.1 256.1 340.3 256.2 340.9 C 252.6 342.4 252.3 337.4 255.5 339.2 C 255.6 339.2 254.6 340.0 255.1 340.1 M 285.0 339.8 C 285.1 340.3 282.3 341.3 282.8 340.0 C 283.1 339.4 284.7 339.3 285.0 339.8 M 290.7 345.2 C 291.7 346.4 289.4 346.5 289.0 345.9 C 288.5 345.0 290.5 344.9 290.7 345.2 M 356.9 343.4 C 357.4 346.1 351.5 350.2 351.0 346.3 C 350.5 341.8 356.2 339.8 356.9 343.4 M 313.1 340.9 C 312.9 341.9 310.2 341.0 310.4 339.8 C 310.7 337.9 313.4 339.7 313.1 340.9 M 310.7 344.1 C 310.5 345.2 308.8 344.5 308.7 343.8 C 308.7 343.1 311.0 342.9 310.7 344.1 M 344.3 343.5 C 344.6 342.7 346.6 343.8 346.1 344.2 C 345.6 344.5 344.0 344.3 344.3 343.5 C 344.3 343.5 344.3 343.5 344.3 343.5 Z M 363.9 343.9 C 363.4 343.6 363.8 342.8 364.2 343.2 C 364.6 343.5 364.3 344.1 363.9 343.9 C 363.9 343.9 363.9 343.9 363.9 343.9 Z M 325.3 344.8 C 323.2 344.6 325.3 342.0 327.5 343.3 C 329.4 344.4 327.8 345.0 325.3 344.8 C 325.3 344.8 325.3 344.8 325.3 344.8 Z M 354.5 363.3 C 355.0 363.6 354.1 364.3 353.5 364.0 C 352.4 363.3 354.1 363.1 354.5 363.3 C 354.5 363.3 354.5 363.3 354.5 363.3 Z M 249.7 348.3 C 250.6 348.9 249.3 349.3 248.9 348.8 C 248.4 348.3 248.8 347.6 249.7 348.3 C 249.7 348.3 249.7 348.3 249.7 348.3 Z M 227.4 343.4 C 228.3 344.1 226.2 344.1 225.8 343.6 C 225.4 343.1 226.5 342.8 227.4 343.4 C 227.4 343.4 227.4 343.4 227.4 343.4 Z M 209.4 358.1 C 210.3 358.8 208.9 359.1 208.6 358.7 C 208.1 358.1 208.5 357.4 209.4 358.1 C 209.4 358.1 209.4 358.1 209.4 358.1 Z M 242.2 355.1 C 243.2 355.7 241.8 356.1 241.4 355.6 C 241.0 355.1 241.3 354.4 242.2 355.1 C 242.2 355.1 242.2 355.1 242.2 355.1 Z M 245.4 345.5 C 244.6 344.4 245.3 340.9 247.4 343.7 C 249.5 346.5 246.3 346.7 245.4 345.5 C 245.4 345.5 245.4 345.5 245.4 345.5 Z M 317.8 362.6 C 317.8 362.6 319.0 361.2 319.4 361.6 C 321.2 363.4 317.8 362.6 317.8 362.6 C 317.8 362.6 317.8 362.6 317.8 362.6 Z M 291.6 348.0 C 291.6 348.0 292.7 347.4 292.9 347.5 C 294.5 348.6 291.6 348.0 291.6 348.0 C 291.6 348.0 291.6 348.0 291.6 348.0 Z M 279.3 338.5 C 279.3 338.5 280.4 337.8 280.6 337.9 C 282.3 339.0 279.3 338.5 279.3 338.5 C 279.3 338.5 279.3 338.5 279.3 338.5 Z M 227.8 341.5 C 225.3 341.0 227.4 339.6 229.2 340.2 C 230.8 340.6 230.2 341.9 227.8 341.5 C 227.8 341.5 227.8 341.5 227.8 341.5 Z M 235.7 346.9 C 233.5 344.8 235.8 343.9 237.4 345.7 C 238.7 347.3 237.9 348.9 235.7 346.9 C 235.7 346.9 235.7 346.9 235.7 346.9 Z M 226.3 348.7 C 226.8 348.6 227.0 348.8 226.8 349.4 C 226.3 350.2 224.3 349.8 223.8 349.1 C 223.0 347.7 226.3 348.7 226.3 348.7 M 231.7 358.9 C 235.7 355.6 232.0 363.7 231.5 362.9 C 230.8 361.9 230.8 359.6 231.7 358.9 C 231.7 358.9 231.7 358.9 231.7 358.9 Z M 266.1 361.5 C 266.9 360.7 268.2 361.7 267.3 362.4 C 266.8 362.9 265.3 362.4 266.1 361.5 C 266.1 361.5 266.1 361.5 266.1 361.5 Z M 262.5 342.2 C 262.9 341.7 265.0 342.0 264.2 342.7 C 263.7 343.1 261.6 343.0 262.5 342.2 C 262.5 342.2 262.5 342.2 262.5 342.2 Z M 210.7 340.7 C 211.2 340.3 213.3 340.5 212.5 341.2 C 211.9 341.7 209.9 341.5 210.7 340.7 C 210.7 340.7 210.7 340.7 210.7 340.7 Z M 286.0 355.1 C 287.7 353.8 289.1 355.5 287.7 356.1 C 286.4 356.7 284.3 356.3 286.0 355.1 C 286.0 355.1 286.0 355.1 286.0 355.1 Z M 321.9 347.4 C 322.7 346.7 323.4 347.8 322.8 347.9 C 322.0 348.1 321.5 347.7 321.9 347.4 C 321.9 347.4 321.9 347.4 321.9 347.4 Z M 328.5 344.7 C 329.1 344.3 329.8 344.9 329.1 345.0 C 328.4 345.2 328.1 344.9 328.5 344.7 C 328.5 344.7 328.5 344.7 328.5 344.7 Z M 356.3 351.5 C 357.5 350.7 359.3 352.0 357.7 352.3 C 355.9 352.6 355.3 352.1 356.3 351.5 C 356.3 351.5 356.3 351.5 356.3 351.5 Z M 334.6 341.5 C 335.1 341.1 335.9 341.7 335.2 341.9 C 334.4 342.0 334.2 341.8 334.6 341.5 C 334.6 341.5 334.6 341.5 334.6 341.5 Z M 353.8 343.2 C 354.9 342.3 356.0 343.8 355.0 343.9 C 354.0 344.1 353.3 343.7 353.8 343.2 C 353.8 343.2 353.8 343.2 353.8 343.2 Z M 351.1 337.5 C 352.2 336.5 353.3 338.0 352.4 338.2 C 351.3 338.4 350.6 337.9 351.1 337.5 C 351.1 337.5 351.1 337.5 351.1 337.5 Z M 308.4 366.4 C 309.5 365.5 310.5 367.0 309.6 367.1 C 308.6 367.3 307.8 366.9 308.4 366.4 C 308.4 366.4 308.4 366.4 308.4 366.4 Z M 238.3 339.3 C 240.3 339.1 241.0 340.1 239.8 341.0 C 238.7 342.0 236.3 339.4 238.3 339.3 C 238.3 339.3 238.3 339.3 238.3 339.3 Z M 352.3 345.8 C 352.9 345.2 353.3 346.0 352.9 346.3 C 352.4 346.5 351.7 346.4 352.3 345.8 C 352.3 345.8 352.3 345.8 352.3 345.8 Z M 305.3 351.0 C 305.7 351.6 305.7 352.1 305.3 352.5 C 304.1 352.4 302.7 350.4 303.1 348.9 C 303.4 347.5 307.4 349.5 306.5 350.8 C 306.3 351.1 305.0 350.2 305.3 351.0 M 311.6 360.4 C 312.4 361.0 311.5 361.7 310.8 361.0 C 310.0 360.1 310.8 359.8 311.6 360.4 C 311.6 360.4 311.6 360.4 311.6 360.4 Z M 290.3 363.9 C 291.2 364.5 290.2 365.2 289.5 364.5 C 288.7 363.6 289.5 363.3 290.3 363.9 C 290.3 363.9 290.3 363.9 290.3 363.9 Z M 331.2 340.4 C 332.3 340.5 331.2 339.7 331.5 339.4 C 332.2 339.4 332.7 339.7 333.2 340.3 C 333.7 341.8 330.6 340.8 330.4 340.5 C 330.7 340.5 330.9 340.4 331.2 340.4 M 356.5 361.4 C 357.6 361.5 356.5 360.7 356.8 360.4 C 357.5 360.4 358.0 360.7 358.5 361.3 C 359.0 362.8 355.9 361.8 355.7 361.5 C 356.0 361.5 356.2 361.4 356.5 361.4 M 203.9 342.8 C 204.1 343.3 201.3 344.3 201.8 343.0 C 202.0 342.4 203.7 342.3 203.9 342.8 M 285.6 366.9 C 285.8 367.3 283.0 368.3 283.5 367.0 C 283.7 366.5 285.4 366.3 285.6 366.9 M 295.5 359.7 C 296.6 359.8 295.5 359.0 295.8 358.7 C 296.5 358.7 297.1 359.0 297.5 359.6 C 298.1 361.1 294.9 360.1 294.7 359.8 C 295.0 359.8 295.3 359.7 295.5 359.7 M 341.9 361.2 C 341.8 360.6 343.3 360.6 342.8 361.3 C 342.5 361.7 342.0 361.7 341.9 361.2 C 341.9 361.2 341.9 361.2 341.9 361.2 Z M 271.5 342.8 C 271.4 342.2 273.2 342.7 272.4 343.1 C 271.9 343.3 271.6 343.4 271.5 342.8 C 271.5 342.8 271.5 342.8 271.5 342.8 Z M 297.5 349.5 C 296.6 350.3 296.6 348.8 297.0 348.2 C 297.9 346.6 299.4 350.1 298.9 350.2 C 298.6 350.2 297.7 349.3 297.5 349.5 M 264.0 350.4 C 262.3 351.7 262.8 345.5 265.5 349.1 C 268.1 352.6 264.3 350.1 264.0 350.4 M 367.5 362.7 C 368.2 362.1 364.6 361.3 365.0 360.7 C 365.9 359.3 368.9 362.1 368.9 363.4 C 368.9 363.8 366.4 363.8 367.5 362.7 M 339.0 346.5 C 339.6 345.8 336.0 345.1 336.4 344.5 C 337.4 343.1 340.3 345.9 340.3 347.2 C 340.3 347.5 337.8 347.6 339.0 346.5 M 276.8 345.6 C 275.9 345.5 277.9 343.4 278.8 344.8 C 280.2 347.2 277.4 345.6 276.8 345.6 M 217.4 342.3 C 216.9 342.5 216.5 342.3 216.1 341.7 C 215.7 340.9 218.6 340.7 218.4 341.0 C 218.0 341.5 217.7 341.9 217.4 342.3 M 327.8 361.4 C 328.2 360.3 329.4 361.8 328.7 362.1 C 327.8 362.5 327.3 362.5 327.8 361.4 C 327.8 361.4 327.8 361.4 327.8 361.4 Z M 235.3 367.0 C 235.8 365.9 237.0 367.5 236.2 367.8 C 235.3 368.1 234.9 368.1 235.3 367.0 C 235.3 367.0 235.3 367.0 235.3 367.0 Z M 374.9 341.5 C 375.4 340.6 376.5 341.8 375.8 342.0 C 374.9 342.3 374.5 342.3 374.9 341.5 C 374.9 341.5 374.9 341.5 374.9 341.5 Z M 335.5 349.4 C 335.8 349.2 337.7 349.9 336.1 350.7 C 335.2 351.2 335.1 349.7 335.5 349.4 C 335.5 349.4 335.5 349.4 335.5 349.4 Z M 363.9 340.5 C 364.4 340.2 367.0 341.0 364.8 341.9 C 363.6 342.4 363.4 340.9 363.9 340.5 C 363.9 340.5 363.9 340.5 363.9 340.5 Z M 317.5 354.5 C 318.0 354.0 318.5 354.6 317.8 355.0 C 317.3 355.3 317.0 355.0 317.5 354.5 C 317.5 354.5 317.5 354.5 317.5 354.5 Z M 313.9 338.0 C 314.3 337.5 314.9 338.1 314.2 338.5 C 313.6 338.7 313.4 338.5 313.9 338.0 C 313.9 338.0 313.9 338.0 313.9 338.0 Z M 294.2 345.0 C 294.6 344.5 295.2 345.1 294.5 345.5 C 293.9 345.8 293.7 345.5 294.2 345.0 C 294.2 345.0 294.2 345.0 294.2 345.0 Z M 322.8 339.3 C 325.6 338.4 327.5 339.3 324.1 341.3 C 322.0 342.5 322.1 339.5 322.8 339.3 C 322.8 339.3 322.8 339.3 322.8 339.3 Z M 302.5 355.8 C 303.1 355.3 303.5 356.0 302.8 356.3 C 302.4 356.4 301.9 356.2 302.5 355.8 C 302.5 355.8 302.5 355.8 302.5 355.8 Z M 300.9 344.1 C 299.0 342.8 306.8 341.7 305.7 345.1 C 304.1 349.5 301.7 344.7 300.9 344.1 M 268.1 340.2 C 267.4 339.5 269.8 339.2 269.7 340.5 C 269.6 342.9 268.3 340.4 268.1 340.2 M 255.0 361.9 C 255.0 361.9 255.6 363.1 254.9 362.8 C 253.8 362.3 255.0 361.9 255.0 361.9 C 255.0 361.9 255.0 361.9 255.0 361.9 Z M 258.5 360.2 C 259.0 359.4 260.9 360.4 259.7 360.7 C 259.0 361.0 258.0 361.0 258.5 360.2 C 258.5 360.2 258.5 360.2 258.5 360.2 Z M 260.1 339.2 C 260.3 338.9 261.2 339.3 260.6 339.5 C 260.3 339.6 259.9 339.6 260.1 339.2 C 260.1 339.2 260.1 339.2 260.1 339.2 Z M 259.0 366.4 C 259.4 365.8 261.3 366.6 260.1 366.8 C 259.4 367.0 258.5 367.0 259.0 366.4 C 259.0 366.4 259.0 366.4 259.0 366.4 Z M 309.4 338.4 C 309.6 338.1 310.4 338.5 309.9 338.7 C 309.6 338.7 309.2 338.7 309.4 338.4 C 309.4 338.4 309.4 338.4 309.4 338.4 Z M 369.6 338.2 C 369.8 337.9 370.7 338.3 370.1 338.5 C 369.8 338.5 369.4 338.5 369.6 338.2 C 369.6 338.2 369.6 338.2 369.6 338.2 Z M 219.1 359.6 C 219.6 358.7 221.4 359.9 220.2 360.3 C 219.6 360.5 218.7 360.5 219.1 359.6 C 219.1 359.6 219.1 359.6 219.1 359.6 Z M 315.6 344.9 C 316.1 344.0 317.6 345.2 316.2 345.7 C 315.5 345.9 315.1 345.9 315.6 344.9 C 315.6 344.9 315.6 344.9 315.6 344.9 Z M 246.5 360.9 C 247.0 360.0 248.5 361.2 247.1 361.6 C 246.3 361.8 246.0 361.9 246.5 360.9 C 246.5 360.9 246.5 360.9 246.5 360.9 Z M 311.7 343.6 C 312.0 343.0 312.9 343.5 312.2 343.8 C 311.8 343.9 311.5 344.1 311.7 343.6 C 311.7 343.6 311.7 343.6 311.7 343.6 Z M 325.9 362.8 C 326.2 362.2 327.2 362.7 326.4 363.0 C 326.0 363.1 325.7 363.3 325.9 362.8 C 325.9 362.8 325.9 362.8 325.9 362.8 Z M 338.9 366.5 C 339.1 365.9 340.1 366.4 339.3 366.7 C 338.9 366.8 338.6 367.0 338.9 366.5 C 338.9 366.5 338.9 366.5 338.9 366.5 Z M 325.0 351.2 C 325.3 350.8 326.5 351.4 325.7 351.6 C 325.3 351.7 324.7 351.7 325.0 351.2 C 325.0 351.2 325.0 351.2 325.0 351.2 Z M 242.3 353.8 C 241.0 353.9 239.2 352.2 239.0 350.5 C 239.2 351.8 243.3 350.6 243.8 350.8 C 244.2 351.0 243.5 353.6 242.3 353.8 M 329.0 352.6 C 321.3 353.5 325.4 347.7 330.5 349.6 C 330.9 349.8 330.3 352.5 329.0 352.6 C 330.9 349.8 330.3 352.5 329.0 352.6 C 330.9 349.8 330.3 352.5 329.0 352.6 C 330.9 349.8 330.3 352.5 329.0 352.6 M 380.8 338.8 C 376.3 339.4 379.4 339.7 377.3 342.5 C 376.9 343.0 373.4 345.2 373.8 346.0 C 374.4 347.2 376.8 345.8 377.4 346.8 C 378.8 349.1 374.7 349.5 374.3 350.5 C 373.1 353.0 375.4 355.5 377.0 356.9 C 379.1 358.9 378.5 355.5 379.9 354.9 C 380.9 354.5 380.5 357.6 380.3 358.2 C 379.8 361.0 377.2 359.1 378.0 363.1 C 378.5 365.6 378.7 366.7 381.2 365.7 C 383.0 365.0 382.8 362.2 383.5 360.3 C 383.9 359.4 390.1 360.0 388.6 362.2 C 387.6 363.7 386.9 365.1 389.3 365.0 C 390.1 364.7 390.7 364.2 391.4 363.5 C 392.4 362.6 393.3 364.2 394.6 363.4 C 397.4 361.8 401.4 367.1 405.1 365.3 C 405.6 365.1 408.9 359.8 410.4 364.4 C 411.4 364.7 411.5 362.0 412.1 362.0 C 414.2 362.1 413.7 364.0 414.3 364.5 C 415.8 364.8 421.3 360.9 421.4 363.4 C 421.6 367.3 427.2 365.4 427.5 364.6 C 427.6 364.2 432.6 365.2 435.2 364.7 C 434.9 364.4 434.6 364.2 434.2 364.0 C 434.6 364.0 435.3 363.5 435.6 363.5 C 434.6 363.5 431.2 362.1 430.5 361.3 C 430.2 360.9 437.1 358.7 436.7 361.5 C 436.5 362.9 436.3 363.9 438.0 363.3 C 440.5 362.5 438.3 364.3 439.9 364.9 C 442.7 365.8 443.0 361.8 445.3 364.1 C 446.8 365.7 446.9 364.3 448.5 363.8 C 451.4 363.0 451.6 366.0 454.1 365.7 C 454.4 365.6 459.7 365.4 458.4 364.0 C 457.4 363.0 454.9 362.7 454.2 361.3 C 452.7 358.4 459.8 361.9 459.1 361.7 C 460.6 362.0 464.3 358.5 465.2 359.4 C 466.0 360.1 461.9 363.0 461.5 363.4 C 459.8 365.0 466.8 364.5 466.6 364.5 C 467.6 364.8 469.0 363.3 469.8 363.8 C 471.0 364.7 471.0 365.1 472.5 364.9 C 473.6 364.8 474.3 364.9 475.3 364.9 C 476.7 364.9 477.1 362.2 478.2 361.3 C 480.1 359.9 480.0 362.7 481.0 363.2 C 483.4 364.3 488.6 361.1 489.5 363.4 C 490.4 366.1 493.7 359.6 496.0 362.4 C 496.8 363.4 499.1 364.1 499.6 363.4 C 498.6 365.0 503.2 364.9 504.1 365.0 C 505.3 365.3 506.1 363.9 507.1 363.4 C 508.4 362.7 509.5 364.5 510.5 365.1 C 513.0 366.6 511.5 361.6 513.5 363.3 C 516.8 366.1 514.9 358.9 515.9 358.6 C 516.3 358.4 518.3 363.1 518.7 363.7 C 519.6 364.6 519.4 361.9 520.1 362.8 C 521.0 363.9 522.4 365.7 523.7 363.9 C 524.3 363.2 523.2 360.2 524.3 360.5 C 524.5 360.6 526.2 361.9 526.3 361.4 C 526.7 356.2 529.7 366.3 526.7 364.3 C 528.0 365.2 535.9 365.9 536.0 363.6 C 536.0 362.5 532.5 362.2 533.1 361.0 C 534.2 358.6 540.3 362.3 538.3 363.4 C 539.7 362.6 542.9 366.1 545.0 364.6 C 545.3 364.3 547.0 365.0 547.0 364.5 C 547.1 363.7 546.8 361.7 547.4 361.1 C 548.5 359.8 551.5 358.4 550.8 356.1 C 550.6 355.5 547.4 347.0 547.1 347.6 C 547.5 346.7 549.6 346.9 549.7 345.7 C 549.8 343.7 543.8 346.1 544.5 343.3 C 544.5 343.3 542.5 342.8 542.4 342.1 C 542.0 339.9 542.9 340.6 540.7 340.3 C 538.9 340.0 540.3 340.7 539.5 342.0 C 539.1 342.7 537.5 338.6 534.9 340.8 C 537.1 341.3 536.2 342.4 537.4 344.0 C 539.1 346.3 535.5 346.4 534.6 346.6 C 530.7 347.3 529.1 345.9 526.0 343.9 C 524.2 342.8 528.9 336.5 525.3 340.5 C 523.7 342.2 517.0 340.7 514.8 341.7 C 514.9 341.6 516.6 343.0 516.6 343.3 C 516.9 347.6 509.0 343.9 507.8 342.9 C 506.1 341.4 506.4 342.9 507.3 344.5 C 508.5 346.7 506.3 346.9 505.0 346.8 C 504.3 346.8 502.1 346.2 501.5 346.8 C 500.7 347.7 498.1 341.7 497.3 341.2 C 495.5 340.1 495.1 342.7 493.0 341.6 C 492.7 341.5 488.1 338.4 488.1 339.6 C 488.1 342.2 496.3 343.5 489.4 344.7 C 489.0 344.8 481.0 345.4 481.9 343.9 C 482.3 343.2 483.4 343.6 484.0 343.3 C 481.5 344.5 480.4 338.0 476.7 339.7 C 474.8 340.5 466.2 338.9 469.2 342.3 C 471.8 345.3 468.2 346.9 465.8 345.1 C 463.7 343.4 463.0 342.9 460.9 344.5 C 460.6 344.8 455.5 345.8 456.0 344.1 C 456.3 343.0 458.2 343.6 458.4 341.8 C 458.5 340.7 457.4 339.8 456.5 340.3 C 455.6 340.8 455.4 342.3 454.8 343.1 C 454.6 343.3 452.4 342.2 452.2 342.2 C 450.8 342.0 448.8 342.4 447.6 341.5 C 446.6 340.9 448.3 339.7 447.6 339.2 C 444.0 336.6 447.8 344.3 447.8 343.9 C 447.8 344.1 443.4 346.3 442.9 346.4 C 439.7 347.0 438.6 345.2 437.9 342.1 C 437.7 341.5 442.3 340.8 442.3 340.8 C 439.7 336.6 436.2 340.0 433.3 339.4 C 432.4 339.3 426.8 337.2 428.0 340.8 C 428.6 342.9 426.6 342.0 425.8 342.1 C 426.0 342.1 429.2 345.4 429.8 345.9 C 427.5 346.2 425.3 346.7 423.0 346.7 C 421.7 346.7 420.0 346.9 418.9 346.3 C 418.3 346.0 417.7 343.1 416.2 344.2 C 417.1 343.5 418.4 343.2 419.4 342.8 C 418.3 342.5 415.8 337.9 414.2 340.1 C 413.7 340.8 414.7 341.9 413.5 342.2 C 412.3 342.4 410.9 342.4 409.8 343.0 C 408.8 343.5 409.3 348.5 405.4 346.2 C 405.6 346.3 403.9 342.7 404.0 342.9 C 403.7 341.1 403.4 340.3 401.6 340.2 C 402.8 340.2 402.5 346.1 400.0 346.6 C 397.6 347.1 392.5 346.8 392.7 342.6 C 391.0 341.7 389.6 339.1 387.2 341.6 C 385.8 343.1 382.4 343.9 380.6 342.1 C 380.1 341.6 382.7 340.9 383.0 340.5 C 383.3 339.8 381.2 338.7 380.8 338.8 M 385.3 339.9 C 386.0 340.9 382.7 340.5 383.8 339.1 C 384.4 339.0 384.9 339.2 385.3 339.9 M 383.5 341.9 C 383.0 342.4 382.8 341.6 383.1 341.5 C 383.4 341.3 384.0 341.4 383.5 341.9 C 383.5 341.9 383.5 341.9 383.5 341.9 Z M 407.9 343.4 C 406.6 343.6 406.7 343.1 407.5 342.5 C 408.4 341.8 409.2 343.1 407.9 343.4 C 407.9 343.4 407.9 343.4 407.9 343.4 Z M 427.3 367.1 C 426.0 367.4 426.0 366.8 426.8 366.2 C 427.7 365.6 428.5 366.9 427.3 367.1 C 427.3 367.1 427.3 367.1 427.3 367.1 Z M 424.3 343.9 C 424.3 344.2 423.6 344.2 423.6 343.8 C 423.6 343.4 424.3 343.6 424.3 343.9 C 424.3 343.9 424.3 343.9 424.3 343.9 Z M 399.2 344.9 C 399.2 345.2 398.6 345.1 398.6 344.8 C 398.6 344.4 399.2 344.5 399.2 344.9 C 399.2 344.9 399.2 344.9 399.2 344.9 Z M 422.7 340.4 C 423.4 340.8 421.7 343.1 420.4 339.7 C 420.2 338.9 422.8 339.7 423.0 339.9 C 423.2 340.1 422.1 340.1 422.7 340.4 M 444.0 339.0 C 444.6 339.2 444.7 339.6 444.4 340.3 C 444.4 340.4 442.4 339.4 444.0 339.0 M 490.9 366.9 C 491.5 367.1 491.6 367.5 491.3 368.1 C 491.3 368.3 489.3 367.3 490.9 366.9 M 494.7 338.8 C 495.3 338.3 496.5 339.7 496.2 340.0 C 495.6 340.6 493.8 339.6 494.7 338.8 M 465.1 342.6 C 465.4 342.3 468.8 342.5 468.1 343.2 C 467.5 343.9 464.9 342.7 465.1 342.6 M 511.8 340.8 C 511.2 340.4 510.3 340.1 509.6 339.7 C 509.3 339.5 514.5 338.2 514.5 339.8 C 514.5 340.9 512.2 340.9 511.8 340.8 M 519.8 338.7 C 520.2 338.3 522.1 338.9 522.0 339.7 C 521.8 340.9 519.1 339.4 519.8 338.7 M 482.9 340.0 C 483.4 340.2 483.0 340.9 482.4 340.8 C 481.6 340.6 482.4 339.9 482.9 340.0 C 482.9 340.0 482.9 340.0 482.9 340.0 Z M 462.4 341.2 C 462.1 341.2 459.8 340.5 460.4 339.8 C 462.1 338.0 467.9 339.9 462.4 341.2 M 410.8 339.9 C 410.8 339.9 412.7 338.8 413.0 340.7 C 413.3 343.3 410.9 340.1 410.8 339.9 M 401.2 341.9 C 401.8 342.1 401.4 342.8 400.9 342.5 C 400.3 342.2 400.6 341.8 401.2 341.9 C 401.2 341.9 401.2 341.9 401.2 341.9 Z M 498.7 340.5 C 499.5 341.0 497.8 341.3 497.8 340.8 C 497.8 340.4 498.0 340.1 498.7 340.5 C 498.7 340.5 498.7 340.5 498.7 340.5 Z M 508.2 339.9 C 508.9 340.3 507.2 340.6 507.2 340.2 C 507.2 339.7 507.4 339.5 508.2 339.9 C 508.2 339.9 508.2 339.9 508.2 339.9 Z M 523.8 366.0 C 524.6 366.4 522.9 366.7 522.9 366.2 C 522.9 365.8 523.1 365.5 523.8 366.0 C 523.8 366.0 523.8 366.0 523.8 366.0 Z M 408.3 352.8 C 407.7 353.2 407.3 353.0 407.1 352.3 C 407.2 351.7 407.5 351.4 408.0 351.3 C 407.4 351.4 404.0 350.9 405.7 349.5 C 407.3 348.2 409.0 350.4 410.5 349.8 C 411.0 349.6 411.6 347.9 411.5 347.6 C 411.6 347.7 412.9 348.3 413.5 350.6 C 414.2 353.3 409.1 352.2 408.3 352.8 M 456.2 349.1 C 456.5 349.2 459.3 349.6 459.2 350.0 C 458.2 354.1 451.3 349.7 452.5 346.1 C 454.0 341.6 457.2 349.5 456.2 349.1 M 521.0 344.5 C 518.8 344.5 523.9 346.4 523.7 347.5 C 523.2 349.3 519.1 346.1 518.7 345.5 C 516.2 341.6 522.8 341.8 523.1 343.9 C 522.5 344.5 521.8 344.7 521.0 344.5 M 533.9 342.7 C 534.8 343.5 529.7 344.2 529.1 343.8 C 528.2 343.3 528.8 341.6 529.3 341.1 C 531.2 339.4 532.5 341.5 533.9 342.7 M 444.3 343.3 C 445.9 344.9 439.6 345.9 440.0 343.6 C 440.2 342.5 443.8 342.8 444.3 343.3 M 483.4 358.0 C 482.6 356.8 487.4 357.1 487.8 356.9 C 488.4 356.6 486.0 354.1 486.5 354.3 C 488.8 354.8 499.6 355.2 491.0 357.5 C 489.3 358.0 487.9 360.8 486.2 361.2 C 482.7 362.1 484.8 360.0 483.4 358.0 M 387.3 344.9 C 388.8 345.2 387.8 342.8 388.7 342.4 C 389.8 341.9 391.2 344.8 390.4 345.8 C 387.1 349.5 382.2 343.5 387.3 344.9 M 412.1 345.6 C 410.8 345.2 411.5 344.3 412.2 344.5 C 413.1 344.6 413.3 345.9 412.1 345.6 C 412.1 345.6 412.1 345.6 412.1 345.6 Z M 421.8 344.3 C 422.3 344.2 423.6 345.3 423.2 346.2 C 422.7 347.3 419.6 344.6 421.8 344.3 M 391.2 337.9 C 391.8 337.9 393.0 339.0 392.7 339.8 C 392.1 341.0 389.1 338.2 391.2 337.9 M 483.2 349.9 C 483.8 349.8 485.0 350.9 484.7 351.7 C 484.1 352.9 481.1 350.2 483.2 349.9 M 463.3 344.7 C 465.0 344.4 466.7 348.6 465.0 348.2 C 463.8 348.0 460.1 345.1 463.3 344.7 M 440.0 359.6 C 440.3 359.7 440.7 359.8 441.0 359.9 C 442.9 363.3 434.0 359.9 440.0 359.6 M 478.9 341.7 C 482.0 341.5 479.9 347.3 478.3 347.1 C 474.5 346.8 476.1 342.0 478.9 341.7 M 458.5 343.9 C 457.9 343.4 459.3 342.7 460.1 343.9 C 460.3 344.2 459.2 344.4 458.5 343.9 C 458.5 343.9 458.5 343.9 458.5 343.9 Z M 485.9 358.9 C 486.1 359.4 485.6 359.8 485.4 359.2 C 485.2 358.7 485.7 358.4 485.9 358.9 C 485.9 358.9 485.9 358.9 485.9 358.9 Z M 488.8 358.5 C 489.3 358.7 488.4 359.5 487.9 359.1 C 487.1 358.4 488.3 358.3 488.8 358.5 C 488.8 358.5 488.8 358.5 488.8 358.5 Z M 487.2 340.9 C 487.8 341.0 486.8 341.9 486.3 341.5 C 485.5 340.8 486.7 340.7 487.2 340.9 C 487.2 340.9 487.2 340.9 487.2 340.9 Z M 400.5 362.3 C 403.3 361.9 403.1 363.1 400.9 363.0 C 399.5 362.8 397.8 362.6 400.5 362.3 C 400.5 362.3 400.5 362.3 400.5 362.3 Z M 430.5 340.5 C 434.7 339.7 434.7 346.3 430.5 344.7 C 430.5 344.7 426.3 341.3 430.5 340.5 C 430.5 340.5 430.5 340.5 430.5 340.5 Z M 443.2 350.1 C 443.6 349.7 443.9 351.1 443.2 351.4 C 442.6 351.7 442.8 350.6 443.2 350.1 C 443.2 350.1 443.2 350.1 443.2 350.1 Z M 474.6 337.2 C 475.0 336.7 475.3 338.1 474.6 338.4 C 474.1 338.7 474.2 337.6 474.6 337.2 C 474.6 337.2 474.6 337.2 474.6 337.2 Z M 403.9 363.2 C 404.3 362.8 404.6 364.2 403.9 364.5 C 403.4 364.8 403.5 363.7 403.9 363.2 C 403.9 363.2 403.9 363.2 403.9 363.2 Z M 506.4 344.9 C 506.8 344.4 507.1 345.8 506.4 346.1 C 505.9 346.4 506.0 345.3 506.4 344.9 C 506.4 344.9 506.4 344.9 506.4 344.9 Z M 467.6 360.0 C 467.1 358.7 470.4 359.2 468.9 359.8 C 467.4 360.4 468.2 361.3 467.6 360.0 C 467.6 360.0 467.6 360.0 467.6 360.0 Z M 477.7 360.1 C 477.5 359.3 478.9 359.1 478.5 359.9 C 478.3 360.5 477.9 360.8 477.7 360.1 C 477.7 360.1 477.7 360.1 477.7 360.1 Z M 522.3 338.1 C 522.1 337.3 523.5 337.1 523.1 337.9 C 522.9 338.5 522.5 338.9 522.3 338.1 C 522.3 338.1 522.3 338.1 522.3 338.1 Z M 503.4 367.0 C 503.2 366.3 504.6 366.1 504.2 366.9 C 504.0 367.4 503.6 367.8 503.4 367.0 C 503.4 367.0 503.4 367.0 503.4 367.0 Z M 511.9 358.4 C 512.9 358.8 512.2 359.7 511.5 358.7 C 511.0 358.0 510.9 357.9 511.9 358.4 C 511.9 358.4 511.9 358.4 511.9 358.4 Z M 485.4 342.7 C 485.5 341.9 491.8 342.4 488.8 343.3 C 487.3 343.9 485.2 344.2 485.4 342.7 C 485.4 342.7 485.4 342.7 485.4 342.7 Z M 536.8 356.0 C 537.5 355.4 538.1 356.7 537.7 357.4 C 537.7 357.4 536.2 356.6 536.8 356.0 C 536.8 356.0 536.8 356.0 536.8 356.0 Z M 542.0 345.9 C 542.6 345.3 543.2 346.6 542.8 347.3 C 542.8 347.3 541.4 346.5 542.0 345.9 C 542.0 345.9 542.0 345.9 542.0 345.9 Z M 544.5 340.5 C 545.2 339.9 545.8 341.2 545.4 342.0 C 545.4 342.0 543.9 341.1 544.5 340.5 C 544.5 340.5 544.5 340.5 544.5 340.5 Z M 421.6 355.1 C 420.4 356.0 420.9 354.1 420.9 354.1 C 422.9 354.3 422.9 354.3 421.6 355.1 C 421.6 355.1 421.6 355.1 421.6 355.1 Z M 417.6 338.7 C 417.1 339.1 417.3 338.3 417.3 338.3 C 418.1 338.4 418.1 338.4 417.6 338.7 C 417.6 338.7 417.6 338.7 417.6 338.7 Z M 431.3 337.9 C 430.8 338.3 431.0 337.5 431.0 337.5 C 431.8 337.6 431.8 337.6 431.3 337.9 C 431.3 337.9 431.3 337.9 431.3 337.9 Z M 419.1 365.1 C 418.4 365.5 418.7 364.5 418.7 364.5 C 419.9 364.6 419.9 364.6 419.1 365.1 C 419.1 365.1 419.1 365.1 419.1 365.1 Z M 470.4 351.1 C 469.2 351.9 469.7 350.2 469.7 350.2 C 471.5 350.4 471.5 350.4 470.4 351.1 C 470.4 351.1 470.4 351.1 470.4 351.1 Z M 475.2 357.7 C 474.0 358.5 474.5 356.8 474.5 356.8 C 476.3 357.0 476.3 357.0 475.2 357.7 C 475.2 357.7 475.2 357.7 475.2 357.7 Z M 463.4 366.6 C 462.9 366.9 463.1 366.2 463.1 366.2 C 463.9 366.2 463.9 366.2 463.4 366.6 C 463.4 366.6 463.4 366.6 463.4 366.6 Z M 478.9 363.5 C 478.4 363.8 478.6 363.1 478.6 363.1 C 479.4 363.2 479.4 363.2 478.9 363.5 C 478.9 363.5 478.9 363.5 478.9 363.5 Z M 384.8 362.0 C 385.8 361.9 385.8 362.7 384.7 362.5 C 384.1 362.5 383.9 362.1 384.8 362.0 C 384.8 362.0 384.8 362.0 384.8 362.0 Z M 383.8 349.4 C 385.3 349.3 385.3 351.1 383.1 350.7 C 382.0 350.5 382.3 349.6 383.8 349.4 C 383.8 349.4 383.8 349.4 383.8 349.4 Z M 471.9 342.0 C 471.4 341.8 473.2 341.3 473.3 341.3 C 474.0 341.4 474.3 342.9 474.5 343.0 C 473.7 342.6 472.7 342.3 471.9 342.0 M 452.4 343.6 C 453.1 343.9 452.6 344.4 452.1 344.2 C 451.6 343.9 451.7 343.3 452.4 343.6 C 452.4 343.6 452.4 343.6 452.4 343.6 Z M 504.8 342.4 C 506.1 344.3 502.1 344.5 501.3 343.0 C 501.1 342.6 503.5 340.6 504.8 342.4 C 504.8 342.4 504.8 342.4 504.8 342.4 Z M 494.4 363.5 C 494.6 363.1 495.5 363.5 495.0 363.7 C 494.2 364.0 494.2 363.8 494.4 363.5 C 494.4 363.5 494.4 363.5 494.4 363.5 Z M 499.6 361.3 C 500.6 360.7 501.5 363.1 500.6 362.8 C 499.3 362.4 498.5 361.9 499.6 361.3 C 499.6 361.3 499.6 361.3 499.6 361.3 Z M 527.8 347.8 C 528.5 347.8 529.1 348.3 529.3 349.2 C 529.9 350.7 525.2 347.5 527.8 347.8 M 449.9 339.1 C 450.7 339.0 451.3 339.2 451.8 339.9 C 452.8 342.3 447.1 338.9 449.9 339.1 M 511.3 342.7 C 512.3 343.0 510.9 343.7 510.5 343.1 C 510.0 342.4 510.4 342.3 511.3 342.7 C 511.3 342.7 511.3 342.7 511.3 342.7 Z M 534.0 345.0 C 534.9 345.3 533.6 346.0 533.2 345.4 C 532.7 344.7 533.1 344.6 534.0 345.0 C 534.0 345.0 534.0 345.0 534.0 345.0 Z M 436.1 342.5 C 438.2 342.0 436.6 345.9 435.7 346.4 C 433.7 347.6 435.2 344.1 435.2 343.9 C 435.1 343.8 435.2 345.5 435.6 345.0 C 436.5 343.9 435.3 342.7 436.1 342.5 M 397.3 344.4 C 398.9 344.7 398.5 346.3 397.4 345.7 C 396.3 345.1 395.7 344.1 397.3 344.4 C 397.3 344.4 397.3 344.4 397.3 344.4 Z M 565.0 340.6 C 563.2 337.8 560.3 339.1 557.2 338.6 C 556.8 338.5 554.2 340.1 554.9 340.6 C 557.4 342.5 555.9 347.4 554.4 343.6 C 553.4 341.3 554.6 337.7 551.4 338.8 C 549.0 339.5 552.0 342.6 549.6 343.8 C 549.2 344.0 546.4 344.8 546.6 345.7 C 546.9 346.6 548.3 346.2 548.3 347.3 C 548.3 348.6 547.4 350.0 547.0 351.2 C 546.4 353.2 547.3 357.0 548.8 358.2 C 549.7 358.9 553.2 359.0 551.7 360.9 C 548.8 364.6 558.7 367.9 559.3 365.5 C 559.7 363.7 561.1 362.7 562.3 361.7 C 564.3 360.0 565.5 363.9 566.9 364.2 C 574.5 365.9 568.1 359.5 569.4 357.8 C 570.0 357.0 572.9 357.1 573.8 357.3 C 577.3 357.9 574.8 360.7 575.0 364.0 C 575.0 365.0 583.9 365.8 582.6 362.4 C 586.0 362.5 583.4 365.0 588.1 364.7 C 589.4 364.6 587.8 362.5 589.6 362.4 C 594.2 362.5 591.2 364.5 592.9 364.6 C 594.6 364.7 596.2 363.7 597.3 362.2 C 598.2 361.0 598.5 362.0 599.4 362.4 C 601.2 363.3 601.0 360.1 602.6 360.3 C 608.7 360.9 601.1 364.8 603.3 364.9 C 611.5 365.2 609.7 361.9 614.3 362.1 C 616.1 362.2 618.9 368.2 621.7 363.7 C 625.4 357.9 625.5 365.6 629.0 365.3 C 630.3 365.1 631.0 365.0 632.3 365.1 C 633.2 365.2 631.5 362.2 631.9 361.5 C 632.1 360.9 635.6 357.8 634.8 356.8 C 632.4 354.3 633.0 358.8 629.8 358.7 C 626.3 358.5 628.9 357.1 629.5 356.3 C 630.1 356.2 631.2 355.9 631.7 355.6 C 632.2 354.7 630.2 353.5 630.5 352.6 C 630.7 351.8 637.4 352.0 637.5 352.8 C 637.8 354.0 634.6 353.5 636.2 356.2 C 637.6 358.7 637.2 358.8 635.1 360.2 C 632.3 362.2 637.2 365.4 638.9 365.5 C 640.1 365.5 642.7 365.8 643.8 365.4 C 646.1 364.6 642.2 362.6 648.1 363.3 C 651.2 363.7 658.4 359.5 660.1 361.3 C 660.7 361.9 656.9 364.9 661.4 364.9 C 663.7 364.9 666.0 365.4 668.1 365.5 C 675.2 365.6 669.5 364.2 671.1 363.5 C 673.5 362.5 676.1 365.0 678.6 364.6 C 680.4 364.2 681.3 362.0 683.3 363.1 C 685.6 364.3 685.8 365.0 688.4 364.9 C 688.8 364.9 693.8 363.8 693.7 363.5 C 693.2 362.7 690.1 363.7 690.3 362.7 C 691.1 359.1 694.8 361.2 696.5 361.9 C 697.5 362.4 700.9 360.9 701.0 363.0 C 701.1 364.2 697.8 364.8 698.4 364.9 C 705.6 365.7 708.3 362.7 710.8 362.9 C 714.3 363.2 710.4 364.6 714.2 364.8 C 715.6 364.9 716.6 363.9 717.5 363.0 C 718.8 361.8 719.0 359.7 719.8 358.1 C 721.0 355.8 722.0 354.8 721.9 352.1 C 721.9 350.6 721.8 348.9 721.3 347.5 C 720.8 346.4 719.2 346.7 719.1 345.2 C 719.0 343.9 722.2 341.5 721.6 341.1 C 717.7 338.5 718.0 342.5 717.3 342.8 C 716.6 343.2 716.0 341.6 715.2 341.2 C 714.1 340.6 712.6 339.9 713.8 342.9 C 713.9 342.6 709.1 344.1 707.8 342.0 C 707.0 340.5 702.1 342.1 699.5 341.8 C 699.9 342.9 703.6 346.1 699.9 346.6 C 697.9 346.8 697.2 346.9 695.8 344.9 C 695.4 344.3 697.7 343.4 697.3 343.0 C 696.7 342.8 696.2 342.7 695.6 342.5 C 695.3 342.4 697.7 340.5 697.4 340.4 C 693.3 338.4 686.3 338.8 688.3 342.3 C 688.7 343.1 694.2 344.5 691.5 344.9 C 688.5 345.3 685.9 345.0 683.7 345.1 C 684.1 345.1 684.4 348.4 681.0 347.6 C 680.6 347.8 678.7 347.8 679.2 348.1 C 679.7 348.4 682.7 347.9 682.8 348.9 C 682.9 349.9 679.6 349.1 676.9 348.6 C 674.0 348.1 676.9 349.9 675.2 349.9 C 670.7 350.1 676.5 344.5 669.2 345.0 C 668.7 345.0 671.1 347.3 671.0 347.2 C 671.9 348.9 662.9 344.3 667.3 343.8 C 668.7 343.6 670.2 342.6 668.3 341.4 C 666.1 339.9 666.4 341.7 664.8 342.7 C 665.5 342.3 662.4 340.6 662.3 340.5 C 661.2 340.3 660.8 342.4 660.0 341.9 C 659.6 341.7 654.8 338.0 656.4 341.8 C 656.8 342.7 659.7 344.9 659.5 345.9 C 659.4 346.9 654.8 346.2 654.3 346.1 C 652.7 345.7 652.4 343.7 652.6 343.8 C 650.6 343.0 647.6 347.8 648.0 342.6 C 648.1 341.5 648.4 339.9 648.0 339.0 C 647.6 337.9 644.5 338.8 644.6 339.2 C 644.8 340.9 646.4 341.4 645.7 343.6 C 645.0 345.7 646.1 344.8 646.1 345.9 C 646.1 346.4 642.2 346.7 642.6 345.4 C 642.8 344.4 644.0 343.1 642.9 342.2 C 642.6 342.0 638.9 340.1 639.1 340.9 C 640.1 344.6 637.2 342.7 638.2 342.0 C 639.4 341.1 636.6 337.6 635.6 339.3 C 635.1 340.2 638.0 343.2 634.3 343.5 C 634.3 343.5 631.0 340.1 631.5 343.4 C 631.8 345.2 633.5 346.8 631.2 347.0 C 630.2 347.0 625.3 347.9 624.8 346.5 C 624.3 345.2 628.7 343.8 627.6 342.2 C 626.7 340.9 625.9 344.2 625.0 343.1 C 621.7 339.7 624.0 343.9 621.7 344.2 C 619.0 344.5 618.9 340.5 621.3 340.3 C 621.0 340.3 626.5 340.9 625.3 339.7 C 623.7 338.2 615.3 337.7 616.8 340.8 C 617.6 342.3 618.8 346.0 615.9 345.1 C 616.6 345.3 613.0 337.9 612.6 340.5 C 612.2 343.3 615.5 344.4 612.7 346.2 C 609.5 348.3 606.8 346.9 603.4 347.1 C 602.9 347.2 600.2 346.9 599.9 345.4 C 599.6 344.1 601.2 343.4 601.6 343.4 C 603.8 343.4 595.7 340.1 600.9 339.7 C 601.7 339.6 597.0 339.4 596.4 339.4 C 593.2 339.4 599.9 344.7 597.1 344.8 C 595.3 344.9 590.4 345.5 590.0 342.6 C 589.3 337.9 586.3 345.2 585.8 346.2 C 585.5 346.9 580.7 346.8 579.7 346.3 C 576.5 344.9 579.2 342.7 577.7 342.2 C 576.6 341.9 574.1 342.0 575.7 340.1 C 577.1 338.4 574.1 338.7 573.4 338.8 C 571.8 339.2 572.0 345.3 569.8 345.4 C 566.1 345.6 566.9 343.6 565.0 340.6 M 579.2 344.5 C 579.2 343.6 581.6 343.5 581.5 344.3 C 581.3 345.8 579.2 345.4 579.2 344.5 M 547.2 340.7 C 547.2 339.8 549.6 339.7 549.5 340.5 C 549.3 341.9 547.2 341.5 547.2 340.7 M 592.3 342.2 C 592.3 340.9 594.7 341.7 594.9 342.4 C 595.3 344.0 592.3 343.6 592.3 342.2 M 678.1 346.1 C 677.3 346.3 676.7 346.5 676.0 345.8 C 675.3 345.2 679.3 344.8 678.1 346.1 M 559.9 340.2 C 559.9 339.2 562.7 339.0 562.6 340.4 C 562.5 342.4 559.9 341.3 559.9 340.2 M 554.1 346.5 C 554.4 346.3 554.7 346.5 555.0 346.9 C 555.3 347.5 553.6 347.3 554.1 346.5 M 686.6 339.5 C 686.9 339.3 687.2 339.4 687.5 339.9 C 687.8 340.5 686.2 340.3 686.6 339.5 M 663.6 339.4 C 664.2 339.1 664.7 339.2 665.2 339.8 C 665.3 340.0 663.0 340.6 663.6 339.4 M 662.7 366.2 C 663.4 366.0 663.9 366.1 664.4 366.7 C 664.4 366.8 662.1 367.5 662.7 366.2 M 699.1 339.2 C 699.4 338.2 701.7 338.6 701.9 339.5 C 702.2 340.5 698.9 340.1 699.1 339.2 M 712.0 345.1 C 712.2 344.2 714.8 344.2 715.1 345.1 C 715.4 346.5 711.8 345.8 712.0 345.1 M 576.3 353.9 C 578.2 353.9 576.5 355.3 576.1 354.9 C 575.4 354.3 574.3 353.9 576.3 353.9 C 576.3 353.9 576.3 353.9 576.3 353.9 Z M 618.4 360.6 C 618.0 360.5 616.7 360.9 616.7 359.9 C 616.7 358.9 620.6 360.3 620.5 361.1 C 620.2 363.1 618.5 360.6 618.4 360.6 M 610.7 343.0 C 613.1 345.2 611.0 345.0 609.5 345.7 C 608.2 346.3 608.2 340.8 610.7 343.0 C 610.7 343.0 610.7 343.0 610.7 343.0 Z M 603.3 345.4 C 604.1 345.6 602.9 346.3 602.9 346.3 C 602.2 345.7 602.4 345.3 603.3 345.4 C 603.3 345.4 603.3 345.4 603.3 345.4 Z M 627.1 345.8 C 627.3 346.1 626.2 346.5 626.3 346.0 C 626.4 345.4 626.9 345.4 627.1 345.8 C 627.1 345.8 627.1 345.8 627.1 345.8 Z M 622.2 346.2 C 622.4 346.6 620.1 346.8 620.2 346.2 C 620.3 345.7 622.0 345.9 622.2 346.2 C 622.2 346.2 622.2 346.2 622.2 346.2 Z M 656.8 363.6 C 657.0 363.9 654.7 364.1 654.8 363.5 C 654.9 363.0 656.6 363.2 656.8 363.6 C 656.8 363.6 656.8 363.6 656.8 363.6 Z M 614.7 348.1 C 615.1 349.4 612.6 350.9 612.8 348.7 C 613.1 346.8 614.2 346.8 614.7 348.1 C 614.7 348.1 614.7 348.1 614.7 348.1 Z M 640.2 361.1 C 641.2 359.7 642.5 362.9 642.8 362.8 C 642.5 362.9 639.5 362.2 640.2 361.1 M 691.4 340.5 C 692.4 339.0 693.7 342.3 694.0 342.2 C 693.7 342.3 690.7 341.6 691.4 340.5 M 641.1 338.9 C 642.1 337.5 643.4 340.7 643.6 340.6 C 643.3 340.8 640.3 340.0 641.1 338.9 M 581.9 342.1 C 582.2 341.2 583.9 343.7 583.5 344.0 C 582.8 344.5 581.5 343.0 581.9 342.1 M 609.8 365.8 C 609.6 364.8 612.2 365.3 612.0 365.9 C 611.7 366.8 610.0 366.7 609.8 365.8 M 562.4 364.0 C 562.2 363.0 564.7 363.5 564.6 364.1 C 564.3 365.0 562.6 364.9 562.4 364.0 M 684.3 365.7 C 684.1 364.7 686.8 365.4 686.5 365.8 C 686.0 366.2 684.3 366.1 684.3 365.7 M 647.0 347.7 C 645.8 347.3 654.8 348.8 649.6 350.9 C 648.6 351.4 647.4 351.1 646.7 350.9 C 643.5 350.3 648.7 349.7 648.5 349.0 C 648.3 348.4 647.0 348.6 646.9 348.5 C 646.9 348.5 648.2 348.0 647.0 347.7 C 647.0 347.7 647.0 347.7 647.0 347.7 Z M 662.8 360.1 C 663.0 359.4 665.0 361.3 664.7 361.6 C 664.1 362.2 662.5 361.3 662.8 360.1 M 654.8 342.6 C 655.0 341.9 657.0 343.8 656.7 344.1 C 656.1 344.7 654.5 343.8 654.8 342.6 M 680.6 343.1 C 681.4 342.0 683.0 345.2 682.3 345.6 C 681.0 346.1 679.5 344.8 680.6 343.1 M 683.8 341.6 C 684.3 341.9 683.9 342.7 683.5 342.3 C 683.2 341.9 683.3 341.3 683.8 341.6 C 683.8 341.6 683.8 341.6 683.8 341.6 Z M 712.1 339.4 C 712.6 339.7 712.2 340.4 711.8 340.1 C 711.4 339.7 711.6 339.0 712.1 339.4 C 712.1 339.4 712.1 339.4 712.1 339.4 Z M 672.4 343.8 C 672.9 344.1 672.4 344.9 672.1 344.6 C 671.7 344.1 671.9 343.5 672.4 343.8 C 672.4 343.8 672.4 343.8 672.4 343.8 Z M 695.7 364.7 C 696.2 364.6 696.2 365.4 695.8 365.3 C 695.1 365.3 695.2 364.8 695.7 364.7 C 695.7 364.7 695.7 364.7 695.7 364.7 Z M 692.8 361.4 C 693.3 361.3 693.3 362.1 692.9 362.0 C 692.2 362.0 692.3 361.4 692.8 361.4 C 692.8 361.4 692.8 361.4 692.8 361.4 Z M 567.2 340.6 C 566.4 339.2 569.0 339.5 569.9 341.7 C 570.5 343.1 570.4 343.3 569.1 343.5 C 566.5 343.8 568.2 342.3 567.2 340.6 M 705.3 361.4 C 707.7 362.0 706.0 363.3 704.0 363.0 C 704.0 363.0 703.0 360.8 705.3 361.4 C 705.3 361.4 705.3 361.4 705.3 361.4 Z M 669.3 348.4 C 670.4 347.8 672.2 349.6 670.4 350.5 C 669.2 351.1 668.4 348.9 669.3 348.4 M 685.4 342.1 C 686.5 341.5 688.3 343.3 686.5 344.2 C 685.4 344.8 684.5 342.6 685.4 342.1 M 610.5 338.0 C 611.6 337.3 613.4 339.2 611.5 340.1 C 610.4 340.7 609.6 338.5 610.5 338.0 M 705.3 343.2 C 707.5 342.2 711.6 345.1 707.6 346.6 C 705.6 347.4 703.3 344.1 705.3 343.2 M 604.9 343.2 C 604.3 343.7 603.1 342.5 604.1 341.8 C 604.9 341.3 605.5 342.8 604.9 343.2 M 632.0 353.3 C 632.9 353.0 633.8 353.0 634.6 353.5 C 636.8 355.3 630.0 354.5 632.0 353.3 M 652.5 346.5 C 652.8 346.5 652.3 347.7 651.9 347.3 C 651.5 346.9 652.1 346.5 652.5 346.5 C 652.5 346.5 652.5 346.5 652.5 346.5 Z M 640.6 346.5 C 640.4 347.1 637.3 346.5 637.6 346.2 C 637.9 345.8 640.8 345.9 640.6 346.5 C 640.6 346.5 640.6 346.5 640.6 346.5 Z M 572.9 345.6 C 575.8 346.2 572.4 347.1 572.4 346.6 C 572.2 345.5 572.2 345.5 572.9 345.6 C 572.9 345.6 572.9 345.6 572.9 345.6 Z M 699.8 355.8 C 700.8 356.2 699.1 357.6 699.0 357.0 C 698.8 355.7 698.8 355.5 699.8 355.8 C 699.8 355.8 699.8 355.8 699.8 355.8 Z M 670.9 340.0 C 671.9 340.4 669.3 340.9 669.2 340.4 C 668.9 339.0 669.9 339.7 670.9 340.0 C 670.9 340.0 670.9 340.0 670.9 340.0 Z M 716.3 339.4 C 717.3 339.7 714.6 340.3 714.6 339.7 C 714.3 338.4 715.3 339.1 716.3 339.4 C 716.3 339.4 716.3 339.4 716.3 339.4 Z M 563.8 344.7 C 566.3 345.7 562.1 349.5 561.9 348.0 C 561.3 344.2 561.2 343.8 563.8 344.7 C 563.8 344.7 563.8 344.7 563.8 344.7 Z M 645.3 342.8 C 646.0 343.0 644.9 344.2 644.8 343.7 C 644.7 342.6 644.7 342.5 645.3 342.8 C 645.3 342.8 645.3 342.8 645.3 342.8 Z M 593.9 339.0 C 594.5 339.3 593.4 340.4 593.4 339.9 C 593.2 338.9 593.2 338.7 593.9 339.0 C 593.9 339.0 593.9 339.0 593.9 339.0 Z M 585.1 344.0 C 585.6 344.3 584.8 345.2 584.7 344.8 C 584.6 343.9 584.6 343.8 585.1 344.0 C 585.1 344.0 585.1 344.0 585.1 344.0 Z M 587.6 365.3 C 588.1 365.5 587.2 366.5 587.2 366.1 C 587.1 365.2 587.0 365.1 587.6 365.3 C 587.6 365.3 587.6 365.3 587.6 365.3 Z M 590.6 355.5 C 592.2 356.1 589.5 358.6 589.4 357.6 C 589.0 355.3 589.0 355.0 590.6 355.5 C 590.6 355.5 590.6 355.5 590.6 355.5 Z M 572.6 359.2 C 573.5 359.5 572.0 360.9 571.9 360.4 C 571.8 359.0 571.7 358.9 572.6 359.2 C 572.6 359.2 572.6 359.2 572.6 359.2 Z M 573.0 362.1 C 573.4 362.2 572.7 362.9 572.7 362.7 C 572.6 362.0 572.6 361.9 573.0 362.1 C 573.0 362.1 573.0 362.1 573.0 362.1 Z M 685.5 348.1 C 686.4 348.5 684.8 350.1 684.8 349.5 C 684.5 347.9 684.5 347.7 685.5 348.1 C 685.5 348.1 685.5 348.1 685.5 348.1 Z M 675.9 357.0 C 677.3 354.6 680.8 358.0 677.8 358.0 C 674.9 358.0 674.4 359.4 675.9 357.0 C 675.9 357.0 675.9 357.0 675.9 357.0 Z M 618.3 352.7 C 619.0 351.2 620.9 353.3 619.3 353.3 C 617.8 353.3 617.5 354.2 618.3 352.7 C 618.3 352.7 618.3 352.7 618.3 352.7 Z M 624.7 364.3 C 625.0 363.7 625.7 364.5 625.1 364.5 C 624.5 364.5 624.4 364.8 624.7 364.3 C 624.7 364.3 624.7 364.3 624.7 364.3 Z M 585.2 338.8 C 586.2 339.7 584.9 341.5 584.5 340.5 C 584.0 339.1 584.2 337.9 585.2 338.8 C 585.2 338.8 585.2 338.8 585.2 338.8 Z M 574.2 342.5 C 574.1 342.7 573.4 344.3 573.1 343.9 C 571.5 341.7 574.5 341.6 574.2 342.5 M 629.4 339.9 C 631.3 339.5 631.4 342.1 629.4 341.6 C 627.4 341.1 628.2 340.1 629.4 339.9 C 629.4 339.9 629.4 339.9 629.4 339.9 Z M 664.3 346.9 C 665.1 346.7 664.9 347.8 664.0 348.0 C 663.5 348.1 663.6 347.2 664.3 346.9 C 664.3 346.9 664.3 346.9 664.3 346.9 Z M 699.0 344.0 C 700.2 343.6 699.8 345.7 698.5 345.9 C 697.6 346.1 697.7 344.5 699.0 344.0 C 699.0 344.0 699.0 344.0 699.0 344.0 Z M 651.1 340.5 C 652.5 340.0 652.0 342.0 650.6 342.2 C 649.6 342.4 649.7 340.9 651.1 340.5 C 651.1 340.5 651.1 340.5 651.1 340.5 Z M 634.6 344.6 C 636.0 344.1 635.6 346.2 634.1 346.4 C 633.0 346.5 633.2 345.0 634.6 344.6 C 634.6 344.6 634.6 344.6 634.6 344.6 Z M 706.6 350.4 C 707.6 351.4 706.5 352.2 705.8 351.2 C 705.0 350.2 705.6 349.3 706.6 350.4 C 706.6 350.4 706.6 350.4 706.6 350.4 Z M 655.0 339.8 C 655.5 340.3 655.0 340.7 654.6 340.3 C 654.2 339.7 654.5 339.3 655.0 339.8 C 655.0 339.8 655.0 339.8 655.0 339.8 Z M 665.1 354.1 C 666.5 353.6 665.5 356.2 664.1 355.3 C 662.6 354.4 664.6 354.2 665.1 354.1 C 665.1 354.1 665.1 354.1 665.1 354.1 Z M 575.8 336.1 C 576.4 335.8 576.0 337.3 575.4 336.8 C 574.8 336.2 575.6 336.2 575.8 336.1 C 575.8 336.1 575.8 336.1 575.8 336.1 Z M 707.0 344.4 C 707.6 344.1 707.2 345.6 706.6 345.1 C 706.0 344.5 706.8 344.5 707.0 344.4 C 707.0 344.4 707.0 344.4 707.0 344.4 Z M 709.1 340.4 C 709.7 340.1 709.3 341.6 708.7 341.1 C 708.1 340.6 708.9 340.5 709.1 340.4 C 709.1 340.4 709.1 340.4 709.1 340.4 Z M 684.5 361.8 C 683.7 362.2 679.7 362.2 680.8 360.3 C 682.3 357.8 683.8 360.3 685.7 360.3 C 687.4 360.4 683.4 358.2 688.1 358.4 C 689.5 358.4 686.7 357.1 686.6 355.9 C 686.5 355.0 696.0 355.6 694.2 357.9 C 693.6 358.7 690.9 359.5 690.1 359.7 C 687.7 360.0 688.6 360.7 686.5 361.9 C 685.9 361.8 685.2 361.8 684.5 361.8 C 684.5 361.8 684.5 361.8 684.5 361.8 Z M 684.5 361.8 " fill="#DB2800"></path><path d="M 757.0 341.9 C 754.2 343.4 755.5 350.3 756.8 350.9 C 758.2 351.6 756.0 357.9 758.4 358.6 C 760.8 359.3 761.6 359.6 760.9 358.6 C 760.1 357.6 762.7 359.4 765.4 359.1 C 768.2 358.8 762.3 360.8 770.4 360.2 C 773.4 360.0 770.7 362.3 774.3 362.6 C 777.8 362.9 776.7 360.0 776.6 358.5 C 776.6 357.1 784.4 360.8 787.0 359.3 C 788.1 358.6 792.0 361.5 792.1 363.3 C 792.1 364.3 788.5 364.7 789.6 365.9 C 790.7 367.1 792.2 366.7 793.7 366.9 C 795.3 367.0 797.3 366.5 796.8 365.4 C 796.4 364.2 796.2 363.3 797.8 364.1 C 799.3 365.0 801.2 365.4 801.7 366.0 C 802.4 366.6 806.1 364.5 805.1 364.1 C 804.2 363.5 808.8 364.8 809.0 364.0 C 809.1 363.3 809.5 362.8 808.0 362.1 C 806.5 361.5 806.1 362.2 805.0 361.0 C 803.9 359.9 803.3 359.1 804.7 359.0 C 806.1 358.9 808.5 359.3 808.1 358.4 C 807.6 357.6 806.9 356.4 807.5 355.3 C 808.1 354.1 809.9 353.7 810.7 354.0 C 811.5 354.3 815.2 354.8 812.9 355.7 C 810.5 356.5 814.6 357.0 815.2 357.6 C 815.8 358.3 816.2 356.8 818.0 357.5 C 819.6 358.2 819.0 359.6 814.5 362.1 C 813.6 362.6 811.4 363.6 812.2 364.6 C 813.0 365.5 814.8 364.3 815.8 363.3 C 816.8 362.2 816.8 364.5 817.4 365.0 C 818.0 365.6 817.9 363.2 818.6 363.8 C 819.3 364.4 820.2 365.8 821.1 364.5 C 822.0 363.3 822.6 363.1 821.4 362.7 C 820.3 362.4 819.1 361.7 820.1 361.4 C 821.0 361.1 831.0 359.4 827.2 358.9 C 823.0 358.3 842.2 356.1 830.8 354.7 C 819.8 353.3 834.0 347.6 828.9 347.3 C 823.8 347.0 827.3 342.4 822.2 342.1 C 821.2 342.1 818.4 340.7 818.6 340.2 C 818.8 339.6 821.0 339.1 820.9 338.5 C 820.8 337.9 819.0 337.8 817.2 338.1 C 815.4 338.4 814.7 339.3 812.0 338.6 C 809.2 337.9 807.5 337.7 805.4 337.8 C 803.4 337.9 802.3 338.7 802.2 339.1 C 802.0 339.5 802.9 340.0 803.1 341.0 C 803.2 341.9 801.0 342.3 799.3 342.0 C 797.6 341.8 797.1 340.2 795.3 340.1 C 793.6 340.0 790.8 338.9 792.0 338.5 C 793.2 338.1 795.4 339.4 796.9 339.4 C 798.5 339.4 801.6 339.0 800.2 338.4 C 798.7 337.8 792.0 337.7 790.9 337.8 C 789.9 337.8 785.4 341.6 784.8 340.3 C 783.4 337.7 779.6 338.7 778.4 338.2 C 777.1 337.8 768.8 339.2 769.5 340.0 C 771.8 342.6 763.3 342.7 763.4 344.4 C 763.5 345.9 761.6 341.0 757.0 341.7 M 810.1 362.0 C 809.9 361.7 811.6 361.1 812.5 361.2 C 813.4 361.3 812.8 362.4 812.0 362.3 C 811.3 362.2 810.2 362.3 810.1 362.0 Z M 812.6 360.4 C 812.1 359.8 812.4 359.0 813.7 359.2 C 815.7 359.4 814.8 360.4 814.2 360.6 C 813.7 360.8 813.0 360.8 812.6 360.4 Z M 782.7 365.1 C 782.8 364.6 784.1 364.6 785.5 365.1 C 786.8 365.6 786.5 366.9 785.1 367.2 C 784.1 367.4 782.5 365.6 782.7 365.1 Z M 785.9 361.5 C 786.1 361.0 786.2 360.5 787.5 361.1 C 788.9 361.6 788.9 362.2 787.6 362.4 C 786.5 362.7 785.7 362.0 785.9 361.5 Z M 766.5 360.7 C 769.2 360.9 766.4 363.8 763.5 362.3 C 761.0 361.1 763.2 360.5 766.5 360.7 Z M 777.7 339.9 C 777.7 339.9 776.0 340.6 775.5 340.4 C 773.1 339.5 777.7 339.9 777.7 339.9 Z M 811.5 357.3 C 811.5 357.3 810.0 358.0 809.8 357.8 C 807.6 356.7 811.5 357.3 811.5 357.3 Z M 821.3 348.1 C 820.5 348.7 819.9 347.8 820.6 347.5 C 821.2 347.2 822.1 347.5 821.3 348.1 Z M 771.1 357.8 C 770.0 358.6 768.9 357.4 769.8 357.2 C 770.9 357.0 771.5 357.4 771.1 357.8 Z M 762.1 360.8 C 761.4 361.2 760.4 360.5 761.3 360.4 C 762.3 360.2 762.7 360.5 762.1 360.8 Z M 777.4 364.3 C 776.9 362.9 776.7 361.9 778.7 363.4 C 780.7 364.9 780.6 365.8 780.3 366.7 C 780.1 367.5 776.4 366.8 776.0 365.7 C 774.8 363.1 778.0 365.7 777.4 364.3 Z M 784.8 343.5 C 783.7 342.9 784.9 342.1 785.8 342.9 C 786.9 343.9 785.8 344.2 784.8 343.5 Z M 757.8 364.7 C 759.9 365.1 760.2 365.7 758.5 365.5 M 806.3 344.4 C 804.6 344.2 807.2 346.0 804.9 345.3 C 802.6 344.7 803.6 343.2 805.5 343.5 C 807.7 344.0 808.0 344.6 806.3 344.4 Z M 803.6 355.6 C 804.2 355.2 805.4 355.6 804.3 357.1 C 803.2 358.5 800.7 355.0 801.7 354.8 C 803.2 354.7 802.9 356.0 803.6 355.6 Z M 763.2 342.4 C 762.6 343.6 761.0 341.9 762.0 341.6 C 763.2 341.1 763.8 341.1 763.2 342.4 Z M 776.9 350.0 C 776.3 350.5 775.5 349.8 776.4 349.5 C 777.2 349.2 777.5 349.5 776.9 350.0 Z M 808.0 360.6 C 807.4 361.1 806.6 360.4 807.6 360.0 C 808.3 359.7 808.6 360.1 808.0 360.6 Z M 769.7 366.8 C 766.0 367.8 763.5 366.7 768.0 364.6 C 770.9 363.3 770.7 366.5 769.7 366.8 Z M 796.9 348.7 C 796.1 349.1 795.7 348.4 796.5 348.1 C 797.1 347.9 797.8 348.2 796.9 348.7 Z M 793.3 354.7 C 794.9 355.7 792.9 356.9 788.6 355.7 C 784.3 354.5 788.5 351.0 790.9 352.0 C 794.6 353.3 791.6 353.7 793.3 354.7 Z M 779.3 360.5 C 778.7 361.6 776.7 360.2 778.5 359.8 C 779.6 359.5 780.0 359.5 779.3 360.5 Z M 784.6 362.1 C 784.2 362.7 782.9 362.1 784.0 361.9 C 784.5 361.8 784.9 361.5 784.6 362.1 Z M 765.6 340.9 C 765.3 341.4 764.0 340.9 765.1 340.6 C 765.6 340.5 766.0 340.3 765.6 340.9 Z M 766.9 353.6 C 766.5 354.1 764.8 353.4 765.9 353.2 C 766.5 353.0 767.3 353.0 766.9 353.6 Z M 803.3 412.3 C 803.7 411.7 805.7 410.8 805.8 411.7 C 805.9 412.7 802.9 413.1 803.3 412.3 Z M 784.7 420.6 C 784.3 421.2 780.7 422.1 782.8 420.0 C 784.1 418.7 785.1 420.0 784.7 420.6 Z M 817.9 400.4 C 818.7 399.7 819.1 399.8 818.8 400.3 C 818.4 401.0 817.2 401.0 817.9 400.4 Z M 836.9 357.6 C 837.6 356.5 839.9 356.2 841.2 355.3 C 841.2 355.3 841.2 355.3 841.3 355.2 C 841.2 355.7 841.0 356.2 841.0 356.6 C 840.8 356.7 840.5 356.8 840.3 356.9 C 838.9 357.9 836.1 358.6 836.9 357.6 Z M 843.2 352.6 C 844.6 352.3 842.5 354.3 841.3 355.2 C 841.7 354.0 842.4 352.8 843.2 352.6 Z M 770.6 426.6 C 770.5 427.6 768.4 427.2 769.2 426.6 C 770.1 425.8 770.7 425.5 770.6 426.6 Z M 782.9 417.6 C 783.6 417.6 783.6 418.5 782.8 418.4 C 782.3 418.4 782.2 417.6 782.9 417.6 Z M 842.3 382.6 C 842.1 382.1 842.0 381.6 843.4 381.3 C 844.8 381.0 845.1 381.4 844.1 382.4 C 843.4 383.2 842.4 383.1 842.3 382.6 Z M 845.4 383.8 C 846.8 383.5 847.2 384.8 846.3 385.8 C 845.5 386.6 843.3 385.9 843.2 385.4 C 843.0 384.8 844.0 384.1 845.4 383.8 Z M 839.9 391.3 C 839.9 392.0 838.6 392.2 839.3 391.4 C 839.7 390.9 839.9 390.6 839.9 391.3 Z M 864.6 362.1 C 866.2 361.1 866.0 362.4 865.7 363.0 C 865.4 363.5 864.9 364.0 864.3 363.8 C 863.6 363.6 863.4 362.7 864.6 362.1 Z M 833.3 394.0 C 830.8 396.9 828.1 397.3 830.8 393.0 C 832.5 390.4 834.0 393.3 833.3 394.0 Z M 822.2 398.7 C 824.3 397.9 824.8 398.3 823.3 399.0 C 821.7 399.7 824.9 399.8 822.6 400.5 C 820.3 401.2 820.3 399.4 822.2 398.7 Z M 827.4 390.6 C 829.9 389.3 829.0 393.3 825.8 393.6 C 823.1 393.9 824.6 392.2 827.4 390.6 Z M 828.5 385.8 C 829.2 385.2 830.0 385.1 829.8 385.7 C 829.3 387.0 827.8 386.5 828.5 385.8 Z M 823.0 393.2 C 823.8 392.5 824.2 392.5 823.9 393.1 C 823.5 393.8 822.3 393.8 823.0 393.2 Z M 860.9 366.7 C 860.7 367.6 859.7 367.5 860.2 366.6 C 860.6 365.8 861.1 365.9 860.9 366.7 Z M 800.5 380.6 C 800.4 381.3 799.1 381.5 799.9 380.8 C 800.2 380.3 800.5 380.0 800.5 380.6 Z M 861.8 361.8 C 861.8 361.8 861.0 363.3 860.8 363.3 C 858.4 363.6 861.8 361.8 861.8 361.8 Z M 815.5 377.2 C 815.6 378.5 813.5 378.0 814.1 377.2 C 815.0 376.2 815.5 375.9 815.5 377.2 Z M 816.8 374.6 C 816.8 375.3 815.5 375.5 816.2 374.7 C 816.6 374.3 816.8 373.9 816.8 374.6 Z M 794.9 408.3 C 795.3 407.8 796.2 407.5 795.8 408.4 C 795.4 409.3 794.5 408.9 794.9 408.3 Z M 765.0 417.0 C 763.3 417.6 758.9 414.1 759.3 412.9 C 759.7 411.6 761.4 406.1 760.6 405.4 C 759.9 404.7 763.1 403.1 763.9 402.4 C 764.6 401.8 767.3 402.2 767.8 402.2 C 768.4 402.2 770.3 400.5 770.3 400.5 C 770.3 400.5 771.0 399.4 772.6 398.3 C 774.3 397.1 776.4 397.3 779.1 396.4 C 781.7 395.6 781.7 393.7 783.6 392.2 C 785.4 390.8 789.4 392.4 791.4 391.6 C 793.5 390.9 791.7 388.6 793.8 386.9 C 795.8 385.2 797.5 384.9 797.1 385.7 C 796.7 386.6 797.8 386.8 798.4 386.4 C 799.1 386.0 802.1 384.9 802.7 383.9 C 803.3 382.8 795.3 385.3 803.7 379.9 C 807.8 377.1 813.9 374.1 811.5 378.4 C 809.7 381.5 817.6 379.9 816.7 378.7 C 815.8 377.4 822.7 372.7 819.6 371.8 C 818.6 371.5 824.7 365.6 825.9 365.3 C 827.1 365.0 829.6 361.9 832.1 363.3 C 833.2 364.0 843.3 360.5 841.2 357.6 C 841.0 357.4 841.0 357.0 841.0 356.6 C 842.1 356.2 843.2 356.8 844.3 356.2 C 845.7 355.3 847.3 353.7 846.7 353.0 C 846.1 352.3 845.1 352.4 845.0 351.9 C 845.0 351.6 845.2 350.9 845.8 350.0 C 844.8 349.1 843.3 347.2 843.7 347.9 C 844.2 348.8 840.4 347.5 840.2 346.8 C 840.0 346.1 838.8 344.6 838.1 343.2 C 837.3 341.7 837.0 342.4 836.8 343.3 C 836.5 344.3 834.8 343.2 833.7 342.3 C 832.6 341.2 831.2 340.5 831.0 339.2 C 830.8 337.8 833.7 339.8 834.2 339.2 C 835.0 338.1 833.4 334.1 832.3 333.8 C 829.6 333.2 825.4 326.7 824.8 327.5 C 824.1 328.4 823.8 330.3 821.0 328.5 C 812.7 323.1 824.6 327.4 822.3 325.9 C 815.8 322.1 818.2 323.2 815.9 321.9 C 813.7 320.7 812.6 318.4 812.7 319.3 C 812.8 320.2 811.8 319.1 810.2 317.5 C 808.7 316.0 810.1 321.3 809.4 320.3 C 808.6 319.3 807.7 319.9 806.3 319.8 C 804.9 319.7 806.1 318.5 804.4 317.0 C 802.1 315.0 802.8 318.0 800.8 317.4 C 798.9 316.9 804.1 319.9 801.0 319.0 C 797.9 318.1 795.3 315.1 794.8 314.3 C 794.2 313.6 799.9 316.4 800.3 316.0 C 800.6 315.6 797.9 314.0 798.5 313.6 C 799.0 313.2 796.0 310.5 794.5 309.5 C 792.9 308.5 790.7 309.7 791.7 311.2 C 792.6 312.6 789.8 311.3 788.6 310.3 C 787.3 309.4 787.5 310.3 786.0 309.9 C 784.5 309.6 783.4 309.2 782.0 308.1 C 780.8 307.1 782.5 307.3 782.4 306.7 C 782.3 306.1 781.0 305.7 778.5 305.6 C 776.1 305.6 781.3 302.7 779.4 302.0 C 777.6 301.3 775.1 300.5 773.3 299.4 C 771.5 298.3 771.8 299.7 771.9 300.3 C 771.9 300.9 768.0 297.6 768.6 298.4 C 769.2 299.3 768.6 301.8 767.6 301.4 C 764.1 299.9 766.8 300.2 766.5 298.7 C 766.1 297.3 761.5 295.4 762.5 294.9 C 763.4 294.4 767.6 295.5 767.5 295.0 C 767.4 294.5 764.5 290.7 764.9 290.4 C 765.4 290.1 771.7 290.0 770.4 289.4 C 769.2 288.8 767.1 285.1 768.4 284.8 C 769.6 284.5 773.1 285.7 772.7 285.1 C 769.8 280.3 781.1 283.4 782.0 283.5 C 782.8 283.6 780.9 286.2 783.0 286.7 C 784.9 287.2 786.2 289.7 785.1 289.5 C 785.1 289.5 786.3 289.5 787.9 290.0 C 789.6 290.5 790.3 291.7 792.1 292.9 C 793.9 294.1 795.4 293.5 797.5 294.1 C 799.4 294.8 799.6 297.8 801.1 298.8 C 802.5 299.9 803.8 298.0 806.0 298.8 C 808.2 299.6 809.1 300.6 808.2 300.6 C 807.3 300.6 807.6 301.4 808.2 301.7 C 808.8 302.0 810.8 303.8 812.0 303.9 C 813.1 304.0 807.9 299.3 815.7 303.4 C 819.6 305.5 820.9 309.1 819.9 308.6 C 817.0 307.2 821.0 313.5 821.6 312.6 C 822.4 311.6 828.9 315.8 828.4 313.0 C 828.3 312.2 835.4 315.6 836.1 316.5 C 836.8 317.5 840.2 318.9 839.9 321.3 C 839.8 322.5 845.0 322.6 845.9 323.2 C 846.8 323.8 851.8 327.7 852.6 329.0 C 853.4 330.3 850.8 328.6 849.7 327.7 C 848.5 326.8 847.5 324.7 846.4 324.3 C 845.3 323.8 846.8 326.1 848.1 327.2 C 849.4 328.3 849.0 329.6 850.1 330.8 C 851.3 331.9 853.2 333.1 853.5 332.4 C 853.9 331.7 853.4 330.8 853.8 330.7 C 854.1 330.5 855.3 330.6 856.9 331.9 C 858.5 333.1 859.7 334.3 861.5 336.5 C 863.2 338.8 864.1 338.6 865.7 339.6 C 867.2 340.7 868.4 341.9 868.3 342.4 C 868.1 342.9 866.0 341.7 865.7 341.9 C 865.3 342.2 866.5 343.6 867.1 344.5 C 867.5 345.2 870.1 349.7 870.6 350.3 C 870.4 350.5 869.9 351.0 869.3 351.8 L 870.1 353.5 C 869.6 354.4 871.3 360.8 872.4 360.5 C 873.5 360.1 873.1 360.5 873.1 362.2 C 873.1 363.9 871.6 363.3 870.8 363.2 C 870.0 363.1 871.3 365.0 870.6 364.9 C 869.8 364.8 868.6 362.8 868.4 364.4 C 868.2 365.9 867.4 368.1 866.3 367.7 C 865.2 367.4 866.3 365.1 866.7 364.1 C 868.8 359.2 869.0 359.9 867.3 360.3 C 865.7 360.7 865.6 360.0 864.8 359.8 C 864.1 359.7 861.6 361.1 861.7 360.3 L 861.2 360.7 C 861.3 360.6 860.7 359.9 859.9 359.2 C 859.7 359.3 859.5 359.4 859.4 359.4 C 858.6 359.6 857.4 361.1 857.6 362.5 C 857.7 363.8 858.9 364.4 859.7 364.8 C 860.6 365.3 858.5 366.5 857.4 367.4 C 856.4 368.3 857.3 368.6 858.8 368.9 C 860.2 369.3 860.2 368.4 861.7 368.1 C 863.3 367.7 863.2 368.4 863.5 369.1 C 863.8 369.9 859.5 371.6 860.5 371.4 C 861.5 371.3 859.7 375.3 858.9 375.2 C 858.2 375.0 856.4 375.7 854.8 375.9 C 853.1 376.1 853.7 376.8 854.7 377.6 C 855.7 378.3 854.3 379.8 853.0 380.6 C 851.8 381.4 850.7 382.6 849.2 382.1 C 847.6 381.7 850.4 379.4 849.8 378.5 C 848.8 377.0 844.1 376.8 843.5 377.9 C 842.3 380.7 833.6 384.8 834.4 386.0 C 835.2 387.2 846.7 382.2 835.2 389.9 C 832.3 391.8 832.5 381.7 830.2 383.5 C 823.8 388.5 827.9 388.1 825.8 389.8 C 823.6 391.6 820.6 391.5 821.7 391.9 C 822.8 392.3 821.2 392.7 818.7 393.4 C 816.3 394.2 823.4 395.8 821.9 396.0 C 820.4 396.2 820.8 397.5 820.2 398.9 C 819.7 400.4 818.5 398.4 816.1 399.3 C 812.7 400.5 816.8 401.6 815.5 403.3 C 814.1 404.9 819.7 401.4 817.6 404.2 C 815.4 406.9 810.5 407.7 809.3 407.7 C 808.0 407.7 813.8 401.0 810.2 403.4 C 809.6 403.8 807.8 402.8 807.4 402.0 C 807.2 401.3 802.0 404.0 800.0 404.9 C 798.0 405.9 801.4 408.7 803.7 408.7 C 806.1 408.8 803.2 410.7 801.4 411.2 C 799.5 411.8 800.8 412.3 799.7 413.6 C 798.6 414.8 797.5 415.6 795.5 416.2 C 793.4 416.8 794.5 415.2 793.6 414.9 C 792.7 414.6 790.0 416.5 788.8 418.8 C 787.6 421.1 788.7 414.3 786.7 415.6 C 784.8 416.9 780.9 417.3 778.2 418.1 C 775.5 418.9 777.9 419.7 778.8 420.1 C 779.8 420.5 772.5 421.5 774.2 421.7 C 775.9 421.8 779.5 424.3 778.3 424.8 C 773.9 426.8 775.9 424.6 773.4 423.8 C 770.9 422.9 765.0 425.4 764.8 424.2 C 764.7 423.0 769.0 420.2 768.0 419.9 C 767.1 419.6 763.1 420.4 762.9 419.8 C 762.8 419.3 766.7 416.4 765.0 417.0 Z M 783.6 291.6 C 782.8 290.5 781.0 289.9 782.1 289.8 C 783.1 289.7 782.6 289.6 781.7 288.9 C 780.7 288.2 780.8 289.7 781.0 290.4 C 781.2 291.0 784.4 292.7 783.6 291.6 Z M 790.3 305.4 C 788.6 304.1 783.3 304.2 782.7 305.3 C 782.1 306.3 784.7 307.1 786.0 308.3 C 787.3 309.4 791.9 306.6 790.3 305.4 Z M 793.1 296.2 C 791.8 295.3 790.3 295.8 791.8 296.9 C 793.2 298.1 792.1 296.2 793.3 296.9 C 794.5 297.7 794.6 297.2 793.1 296.2 Z M 797.4 295.2 C 797.0 294.7 795.6 294.7 795.9 295.1 C 796.3 295.5 798.2 296.2 797.4 295.2 Z M 804.4 315.8 C 803.6 314.4 801.7 313.4 802.8 313.5 C 803.9 313.5 803.4 313.3 802.5 312.4 C 801.5 311.4 801.6 313.2 801.8 314.0 C 802.0 314.8 805.1 317.1 804.4 315.8 Z M 806.9 302.4 C 806.1 302.6 807.6 303.4 807.8 303.0 C 808.0 302.6 807.5 302.3 806.9 302.4 Z M 808.0 312.7 C 806.0 312.2 807.6 313.8 808.1 313.9 C 808.6 313.9 809.3 313.0 808.0 312.7 Z M 816.4 316.1 C 813.9 314.7 814.1 315.7 814.4 316.3 C 814.6 316.7 811.7 316.6 814.3 317.3 C 816.8 318.0 817.5 320.8 819.9 320.6 C 822.8 320.1 818.8 317.4 816.4 316.1 Z M 820.2 323.2 C 819.5 322.8 819.6 324.0 820.9 324.1 C 821.4 324.2 821.1 323.6 820.2 323.2 Z M 829.1 322.2 C 828.2 322.0 828.4 322.8 829.2 322.8 C 829.9 322.8 829.8 322.5 829.1 322.2 Z M 832.8 316.4 C 833.1 316.7 834.7 317.2 834.7 317.2 C 834.7 317.2 831.5 314.6 832.8 316.4 Z M 836.4 340.2 C 839.0 343.6 841.2 344.1 840.4 342.5 C 839.6 340.9 842.0 342.6 840.0 339.5 C 838.5 337.4 833.7 336.9 836.4 340.2 Z M 839.5 323.5 C 839.2 322.5 837.9 322.3 838.4 323.3 C 838.9 324.3 839.8 324.7 839.5 323.5 Z M 841.1 334.6 C 840.3 332.5 839.9 333.2 839.7 334.4 C 839.4 335.6 838.3 332.1 837.9 334.4 C 837.7 335.3 840.1 337.9 840.8 337.5 C 841.4 337.2 841.9 336.7 841.1 334.6 Z M 845.3 362.9 C 844.8 363.7 845.5 364.1 845.9 363.2 C 846.3 362.3 845.6 362.5 845.3 362.9 Z M 845.0 332.9 C 844.2 332.6 844.2 333.3 845.1 333.5 C 845.9 333.7 845.5 333.1 845.0 332.9 Z M 846.7 341.8 C 846.0 341.7 846.9 341.0 845.6 340.2 C 844.8 339.6 845.0 343.4 846.5 343.2 C 848.0 343.0 847.3 341.9 846.7 341.8 Z M 849.8 344.1 C 848.8 344.4 848.8 345.6 848.7 346.4 C 848.6 347.2 846.9 345.4 845.8 344.6 C 844.7 343.8 844.8 344.6 845.1 346.0 C 845.3 347.4 846.0 347.3 846.8 348.6 C 846.9 348.7 846.9 348.8 846.9 348.9 C 847.9 348.0 848.9 347.4 850.0 346.7 C 849.9 346.4 850.1 346.4 850.3 346.5 C 850.9 346.2 851.5 345.9 852.3 345.5 C 852.4 345.4 852.6 345.4 852.8 345.4 C 852.3 344.7 850.8 343.9 849.8 344.1 Z M 850.4 355.5 C 852.0 354.9 850.6 354.7 850.5 354.3 C 850.2 354.2 849.8 354.1 849.5 353.9 C 848.3 354.8 848.4 356.3 850.4 355.5 Z M 854.1 335.6 C 852.8 334.1 851.4 334.5 852.8 336.3 C 854.2 338.2 853.1 335.4 854.3 336.6 C 855.5 337.8 855.6 337.3 854.1 335.6 Z M 856.1 365.9 C 856.2 364.1 855.0 364.4 854.7 365.1 C 854.5 365.9 854.0 364.5 852.9 365.6 C 852.2 366.3 856.1 367.8 856.1 365.9 Z M 851.3 376.4 C 855.3 374.9 856.3 372.8 854.4 372.9 C 852.6 373.0 854.8 370.9 851.1 371.9 C 848.7 372.5 847.2 377.9 851.3 376.4 Z M 845.3 371.8 C 846.2 372.5 849.5 370.9 849.2 370.0 C 849.0 369.1 848.6 368.4 846.2 368.3 C 843.9 368.1 844.5 368.9 845.7 369.8 C 846.9 370.6 843.0 370.2 845.3 371.8 Z M 833.7 366.0 C 834.8 365.9 835.5 365.0 834.2 364.8 C 833.0 364.7 832.5 366.1 833.7 366.0 Z M 830.6 375.8 C 830.8 375.1 830.4 375.0 830.0 375.7 C 829.4 376.5 830.3 376.6 830.6 375.8 Z M 836.3 367.8 C 836.3 367.8 830.3 368.7 830.9 370.8 C 831.1 371.3 836.3 367.8 836.3 367.8 Z M 818.5 388.3 C 819.1 388.3 818.0 391.3 819.7 389.0 C 821.4 386.8 825.0 387.5 825.3 384.9 C 825.7 381.5 821.3 384.2 818.9 386.1 C 816.5 387.9 817.7 388.3 818.5 388.3 Z M 811.9 392.9 C 810.5 394.8 813.1 394.0 813.4 393.6 C 813.6 393.0 812.7 391.8 811.9 392.9 Z M 811.3 400.2 C 812.3 400.4 816.4 398.6 814.5 398.6 C 812.5 398.6 810.5 399.9 811.0 398.8 C 811.4 397.7 810.9 398.1 809.5 398.5 C 807.9 398.9 810.2 399.9 811.3 400.2 Z M 799.8 387.5 C 799.3 387.1 798.8 387.4 798.7 388.0 C 798.5 389.0 800.2 387.9 799.8 387.5 Z M 791.6 413.5 C 792.9 414.8 795.2 412.9 797.3 412.4 C 799.5 411.9 797.6 405.5 795.1 406.2 C 792.6 407.0 790.3 412.2 791.6 413.5 Z M 784.9 393.0 C 784.0 393.0 783.3 394.3 784.0 394.3 C 784.7 394.2 786.5 392.8 784.9 393.0 Z M 784.3 399.3 C 786.6 398.6 783.5 398.5 785.0 397.8 C 786.6 397.2 786.1 396.8 784.0 397.5 C 782.1 398.2 781.9 399.9 784.3 399.3 Z M 769.0 404.6 C 770.1 404.9 774.4 403.2 772.4 403.2 C 770.4 403.2 768.3 404.4 768.8 403.3 C 769.4 402.3 768.8 402.7 767.4 403.0 C 765.7 403.4 768.0 404.3 769.0 404.6 Z M 795.4 411.7 C 794.6 413.3 792.5 412.6 793.5 411.8 C 794.7 411.0 795.7 411.0 795.4 411.7 Z M 824.2 384.4 C 824.1 385.1 822.4 385.4 823.1 384.6 C 823.6 384.2 824.2 383.7 824.2 384.4 Z M 812.1 320.6 C 813.0 321.0 813.1 321.3 812.5 321.2 C 811.8 321.1 811.4 320.2 812.1 320.6 Z M 827.0 337.3 C 826.1 336.7 825.8 334.9 826.2 334.6 C 826.6 334.5 827.5 335.2 828.2 336.3 C 829.1 337.4 828.2 337.9 827.0 337.3 Z M 828.7 333.6 C 829.2 333.8 829.6 333.9 829.0 334.0 C 828.5 334.2 827.8 333.1 828.7 333.6 Z M 825.6 329.3 C 826.5 329.7 826.9 330.0 825.8 330.2 C 824.8 330.4 824.0 328.6 825.6 329.3 Z M 831.8 335.2 C 832.6 336.3 832.3 336.7 831.2 336.0 C 830.3 335.5 830.0 334.7 830.4 334.5 C 830.7 334.3 831.0 334.1 831.8 335.2 Z M 813.8 301.4 C 813.3 301.5 812.6 300.7 813.5 301.0 C 814.0 301.2 814.4 301.2 813.8 301.4 Z M 825.1 311.6 C 824.5 311.8 823.8 310.9 824.7 311.2 C 825.2 311.4 825.7 311.5 825.1 311.6 Z M 765.4 286.0 C 764.7 286.2 763.2 284.4 764.0 284.5 C 764.7 284.6 766.2 285.6 765.4 286.0 Z M 763.9 292.8 C 763.0 293.1 762.5 292.0 763.3 292.2 C 764.4 292.4 764.9 292.6 763.9 292.8 Z M 847.6 347.7 C 846.9 347.6 846.6 346.7 847.5 347.1 C 848.2 347.4 848.3 347.8 847.6 347.7 Z M 822.4 311.4 C 821.4 311.8 821.0 310.0 821.9 310.3 C 823.0 310.6 823.5 310.9 822.4 311.4 Z M 815.2 326.3 C 818.0 327.0 816.3 328.7 815.4 328.3 C 812.1 327.0 810.7 325.1 815.2 326.3 Z M 804.2 318.5 C 805.1 318.9 805.2 319.2 804.6 319.1 C 803.9 318.9 803.5 318.1 804.2 318.5 Z M 819.7 319.6 C 819.2 319.7 818.3 318.5 819.2 318.8 C 819.7 319.1 820.3 319.5 819.7 319.6 Z M 807.3 321.1 C 808.7 322.4 808.7 322.9 807.5 321.9 C 806.3 321.0 807.4 323.2 805.9 321.7 C 804.5 320.3 806.0 320.0 807.3 321.1 Z M 812.8 322.7 C 811.5 320.8 813.5 321.5 815.9 323.3 C 818.0 324.9 814.4 325.0 812.8 322.7 Z M 870.8 350.4 C 870.8 350.4 870.7 350.4 870.7 350.4 C 870.7 350.3 870.8 350.3 870.8 350.4 Z M 773.7 302.3 C 775.2 302.6 774.5 303.5 773.9 303.5 C 773.3 303.4 771.0 301.8 773.7 302.3 Z M 788.7 306.3 C 787.8 306.3 787.8 305.7 788.4 305.8 C 789.0 305.8 789.6 306.3 788.7 306.3 Z M 785.8 307.0 C 784.1 306.9 783.9 305.6 784.9 305.9 C 786.1 306.4 786.6 307.0 785.8 307.0 Z M 775.0 301.9 C 774.8 301.6 775.4 301.3 775.7 301.7 C 776.0 302.1 775.3 302.3 775.0 301.9 Z M 796.7 312.5 C 798.7 314.1 795.1 314.2 793.5 311.9 C 792.2 310.0 794.3 310.7 796.7 312.5 Z M 796.7 312.5 " fill="#DB2800"></path></g></svg>