<?xml version="1.0" encoding="UTF-8"?><svg xmlns="http://www.w3.org/2000/svg" xmlns:xlink="http://www.w3.org/1999/xlink" clip-rule="evenodd" stroke-miterlimit="10" viewBox="0 0 893 168"><desc>SVG generated by Keynote</desc><defs></defs><g transform="matrix(1.00, 0.00, -0.00, -1.00, 0.0, 168.0)"><text xml:space="preserve" font-family="Avenir-HeavyOblique,Avenir" font-style="italic" font-weight="bold" font-size="28.2" fill="#646363" transform="matrix(1.00, 0.00, -0.00, -1.00, 0.0, 138.9)">•</text><text xml:space="preserve" font-family="Avenir-HeavyOblique,Avenir" font-style="italic" font-weight="bold" font-size="31.3" fill="#FEFFFF" transform="matrix(1.00, 0.00, -0.00, -1.00, 32.2, 138.0)">W</text><text xml:space="preserve" font-family="Avenir-HeavyOblique,Avenir" font-style="italic" font-weight="bold" font-size="31.3" fill="#FEFFFF" transform="matrix(1.00, 0.00, -0.00, -1.00, 62.9, 138.0)">h</text><text xml:space="preserve" font-family="Avenir-HeavyOblique,Avenir" font-style="italic" font-weight="bold" font-size="31.3" fill="#FEFFFF" transform="matrix(1.00, 0.00, -0.00, -1.00, 80.9, 138.0)">e</text><text xml:space="preserve" font-family="Avenir-HeavyOblique,Avenir" font-style="italic" font-weight="bold" font-size="31.3" fill="#FEFFFF" transform="matrix(1.00, 0.00, -0.00, -1.00, 98.9, 138.0)">t</text><text xml:space="preserve" font-family="Avenir-HeavyOblique,Avenir" font-style="italic" font-weight="bold" font-size="31.3" fill="#FEFFFF" transform="matrix(1.00, 0.00, -0.00, -1.00, 111.1, 138.0)">h</text><text xml:space="preserve" font-family="Avenir-HeavyOblique,Avenir" font-style="italic" font-weight="bold" font-size="31.3" fill="#FEFFFF" transform="matrix(1.00, 0.00, -0.00, -1.00, 129.1, 138.0)">e</text><text xml:space="preserve" font-family="Avenir-HeavyOblique,Avenir" font-style="italic" font-weight="bold" font-size="31.3" fill="#FEFFFF" transform="matrix(1.00, 0.00, -0.00, -1.00, 147.0, 138.0)">r</text><text xml:space="preserve" font-family="Avenir-HeavyOblique,Avenir" font-style="italic" font-weight="bold" font-size="31.3" fill="#FEFFFF" transform="matrix(1.00, 0.00, -0.00, -1.00, 159.2, 138.0)"> </text><text xml:space="preserve" font-family="Avenir-HeavyOblique,Avenir" font-style="italic" font-weight="bold" font-size="31.3" fill="#FEFFFF" transform="matrix(1.00, 0.00, -0.00, -1.00, 168.5, 138.0)">o</text><text xml:space="preserve" font-family="Avenir-HeavyOblique,Avenir" font-style="italic" font-weight="bold" font-size="31.3" fill="#FEFFFF" transform="matrix(1.00, 0.00, -0.00, -1.00, 187.6, 138.0)">r</text><text xml:space="preserve" font-family="Avenir-HeavyOblique,Avenir" font-style="italic" font-weight="bold" font-size="31.3" fill="#FEFFFF" transform="matrix(1.00, 0.00, -0.00, -1.00, 199.8, 138.0)"> </text><text xml:space="preserve" font-family="Avenir-HeavyOblique,Avenir" font-style="italic" font-weight="bold" font-size="31.3" fill="#FEFFFF" transform="matrix(1.00, 0.00, -0.00, -1.00, 209.1, 138.0)">n</text><text xml:space="preserve" font-family="Avenir-HeavyOblique,Avenir" font-style="italic" font-weight="bold" font-size="31.3" fill="#FEFFFF" transform="matrix(1.00, 0.00, -0.00, -1.00, 227.0, 138.0)">o</text><text xml:space="preserve" font-family="Avenir-HeavyOblique,Avenir" font-style="italic" font-weight="bold" font-size="31.3" fill="#FEFFFF" transform="matrix(1.00, 0.00, -0.00, -1.00, 246.1, 138.0)">t</text><text xml:space="preserve" font-family="Avenir-HeavyOblique,Avenir" font-style="italic" font-weight="bold" font-size="31.3" fill="#FEFFFF" transform="matrix(1.00, 0.00, -0.00, -1.00, 258.3, 138.0)"> </text><text xml:space="preserve" font-family="Avenir-HeavyOblique,Avenir" font-style="italic" font-weight="bold" font-size="31.3" fill="#FEFFFF" transform="matrix(1.00, 0.00, -0.00, -1.00, 267.6, 138.0)">e</text><text xml:space="preserve" font-family="Avenir-HeavyOblique,Avenir" font-style="italic" font-weight="bold" font-size="31.3" fill="#FEFFFF" transform="matrix(1.00, 0.00, -0.00, -1.00, 285.6, 138.0)">v</text><text xml:space="preserve" font-family="Avenir-HeavyOblique,Avenir" font-style="italic" font-weight="bold" font-size="31.3" fill="#FEFFFF" transform="matrix(1.00, 0.00, -0.00, -1.00, 301.8, 138.0)">e</text><text xml:space="preserve" font-family="Avenir-HeavyOblique,Avenir" font-style="italic" font-weight="bold" font-size="31.3" fill="#FEFFFF" transform="matrix(1.00, 0.00, -0.00, -1.00, 319.8, 138.0)">n</text><text xml:space="preserve" font-family="Avenir-HeavyOblique,Avenir" font-style="italic" font-weight="bold" font-size="31.3" fill="#FEFFFF" transform="matrix(1.00, 0.00, -0.00, -1.00, 337.8, 138.0)">t</text><text xml:space="preserve" font-family="Avenir-HeavyOblique,Avenir" font-style="italic" font-weight="bold" font-size="31.3" fill="#FEFFFF" transform="matrix(1.00, 0.00, -0.00, -1.00, 350.0, 138.0)"> </text><text xml:space="preserve" font-family="Avenir-HeavyOblique,Avenir" font-style="italic" font-weight="bold" font-size="31.3" fill="#FEFFFF" transform="matrix(1.00, 0.00, -0.00, -1.00, 359.2, 138.0)">s</text><text xml:space="preserve" font-family="Avenir-HeavyOblique,Avenir" font-style="italic" font-weight="bold" font-size="31.3" fill="#FEFFFF" transform="matrix(1.00, 0.00, -0.00, -1.00, 373.1, 138.0)">o</text><text xml:space="preserve" font-family="Avenir-HeavyOblique,Avenir" font-style="italic" font-weight="bold" font-size="31.3" fill="#FEFFFF" transform="matrix(1.00, 0.00, -0.00, -1.00, 392.2, 138.0)">u</text><text xml:space="preserve" font-family="Avenir-HeavyOblique,Avenir" font-style="italic" font-weight="bold" font-size="31.3" fill="#FEFFFF" transform="matrix(1.00, 0.00, -0.00, -1.00, 410.2, 138.0)">r</text><text xml:space="preserve" font-family="Avenir-HeavyOblique,Avenir" font-style="italic" font-weight="bold" font-size="31.3" fill="#FEFFFF" transform="matrix(1.00, 0.00, -0.00, -1.00, 421.8, 138.0)">c</text><text xml:space="preserve" font-family="Avenir-HeavyOblique,Avenir" font-style="italic" font-weight="bold" font-size="31.3" fill="#FEFFFF" transform="matrix(1.00, 0.00, -0.00, -1.00, 436.9, 138.0)">i</text><text xml:space="preserve" font-family="Avenir-HeavyOblique,Avenir" font-style="italic" font-weight="bold" font-size="31.3" fill="#FEFFFF" transform="matrix(1.00, 0.00, -0.00, -1.00, 445.1, 138.0)">n</text><text xml:space="preserve" font-family="Avenir-HeavyOblique,Avenir" font-style="italic" font-weight="bold" font-size="31.3" fill="#FEFFFF" transform="matrix(1.00, 0.00, -0.00, -1.00, 463.1, 138.0)">g</text><text xml:space="preserve" font-family="Avenir-HeavyOblique,Avenir" font-style="italic" font-weight="bold" font-size="31.3" fill="#FEFFFF" transform="matrix(1.00, 0.00, -0.00, -1.00, 482.8, 138.0)"> </text><text xml:space="preserve" font-family="Avenir-HeavyOblique,Avenir" font-style="italic" font-weight="bold" font-size="31.3" fill="#FEFFFF" transform="matrix(1.00, 0.00, -0.00, -1.00, 492.1, 138.0)">i</text><text xml:space="preserve" font-family="Avenir-HeavyOblique,Avenir" font-style="italic" font-weight="bold" font-size="31.3" fill="#FEFFFF" transform="matrix(1.00, 0.00, -0.00, -1.00, 500.2, 138.0)">s</text><text xml:space="preserve" font-family="Avenir-HeavyOblique,Avenir" font-style="italic" font-weight="bold" font-size="31.3" fill="#FEFFFF" transform="matrix(1.00, 0.00, -0.00, -1.00, 514.1, 138.0)"> </text><text xml:space="preserve" font-family="Avenir-HeavyOblique,Avenir" font-style="italic" font-weight="bold" font-size="31.3" fill="#FEFFFF" transform="matrix(1.00, 0.00, -0.00, -1.00, 523.4, 138.0)">u</text><text xml:space="preserve" font-family="Avenir-HeavyOblique,Avenir" font-style="italic" font-weight="bold" font-size="31.3" fill="#FEFFFF" transform="matrix(1.00, 0.00, -0.00, -1.00, 541.4, 138.0)">n</text><text xml:space="preserve" font-family="Avenir-HeavyOblique,Avenir" font-style="italic" font-weight="bold" font-size="31.3" fill="#FEFFFF" transform="matrix(1.00, 0.00, -0.00, -1.00, 559.3, 138.0)">i</text><text xml:space="preserve" font-family="Avenir-HeavyOblique,Avenir" font-style="italic" font-weight="bold" font-size="31.3" fill="#FEFFFF" transform="matrix(1.00, 0.00, -0.00, -1.00, 567.5, 138.0)">v</text><text xml:space="preserve" font-family="Avenir-HeavyOblique,Avenir" font-style="italic" font-weight="bold" font-size="31.3" fill="#FEFFFF" transform="matrix(1.00, 0.00, -0.00, -1.00, 583.7, 138.0)">e</text><text xml:space="preserve" font-family="Avenir-HeavyOblique,Avenir" font-style="italic" font-weight="bold" font-size="31.3" fill="#FEFFFF" transform="matrix(1.00, 0.00, -0.00, -1.00, 601.7, 138.0)">r</text><text xml:space="preserve" font-family="Avenir-HeavyOblique,Avenir" font-style="italic" font-weight="bold" font-size="31.3" fill="#FEFFFF" transform="matrix(1.00, 0.00, -0.00, -1.00, 613.9, 138.0)">s</text><text xml:space="preserve" font-family="Avenir-HeavyOblique,Avenir" font-style="italic" font-weight="bold" font-size="31.3" fill="#FEFFFF" transform="matrix(1.00, 0.00, -0.00, -1.00, 627.8, 138.0)">a</text><text xml:space="preserve" font-family="Avenir-HeavyOblique,Avenir" font-style="italic" font-weight="bold" font-size="31.3" fill="#FEFFFF" transform="matrix(1.00, 0.00, -0.00, -1.00, 644.6, 138.0)">l</text><text xml:space="preserve" font-family="Avenir-HeavyOblique,Avenir" font-style="italic" font-weight="bold" font-size="31.3" fill="#FEFFFF" transform="matrix(1.00, 0.00, -0.00, -1.00, 652.8, 138.0)">l</text><text xml:space="preserve" font-family="Avenir-HeavyOblique,Avenir" font-style="italic" font-weight="bold" font-size="31.3" fill="#FEFFFF" transform="matrix(1.00, 0.00, -0.00, -1.00, 660.9, 138.0)">y</text><text xml:space="preserve" font-family="Avenir-HeavyOblique,Avenir" font-style="italic" font-weight="bold" font-size="31.3" fill="#FEFFFF" transform="matrix(1.00, 0.00, -0.00, -1.00, 677.2, 138.0)"> </text><text xml:space="preserve" font-family="Avenir-HeavyOblique,Avenir" font-style="italic" font-weight="bold" font-size="31.3" fill="#FEFFFF" transform="matrix(1.00, 0.00, -0.00, -1.00, 686.5, 138.0)">a</text><text xml:space="preserve" font-family="Avenir-HeavyOblique,Avenir" font-style="italic" font-weight="bold" font-size="31.3" fill="#FEFFFF" transform="matrix(1.00, 0.00, -0.00, -1.00, 703.3, 138.0)">p</text><text xml:space="preserve" font-family="Avenir-HeavyOblique,Avenir" font-style="italic" font-weight="bold" font-size="31.3" fill="#FEFFFF" transform="matrix(1.00, 0.00, -0.00, -1.00, 723.0, 138.0)">p</text><text xml:space="preserve" font-family="Avenir-HeavyOblique,Avenir" font-style="italic" font-weight="bold" font-size="31.3" fill="#FEFFFF" transform="matrix(1.00, 0.00, -0.00, -1.00, 742.7, 138.0)">r</text><text xml:space="preserve" font-family="Avenir-HeavyOblique,Avenir" font-style="italic" font-weight="bold" font-size="31.3" fill="#FEFFFF" transform="matrix(1.00, 0.00, -0.00, -1.00, 754.4, 138.0)">o</text><text xml:space="preserve" font-family="Avenir-HeavyOblique,Avenir" font-style="italic" font-weight="bold" font-size="31.3" fill="#FEFFFF" transform="matrix(1.00, 0.00, -0.00, -1.00, 773.5, 138.0)">p</text><text xml:space="preserve" font-family="Avenir-HeavyOblique,Avenir" font-style="italic" font-weight="bold" font-size="31.3" fill="#FEFFFF" transform="matrix(1.00, 0.00, -0.00, -1.00, 793.2, 138.0)">r</text><text xml:space="preserve" font-family="Avenir-HeavyOblique,Avenir" font-style="italic" font-weight="bold" font-size="31.3" fill="#FEFFFF" transform="matrix(1.00, 0.00, -0.00, -1.00, 805.4, 138.0)">i</text><text xml:space="preserve" font-family="Avenir-HeavyOblique,Avenir" font-style="italic" font-weight="bold" font-size="31.3" fill="#FEFFFF" transform="matrix(1.00, 0.00, -0.00, -1.00, 813.5, 138.0)">a</text><text xml:space="preserve" font-family="Avenir-HeavyOblique,Avenir" font-style="italic" font-weight="bold" font-size="31.3" fill="#FEFFFF" transform="matrix(1.00, 0.00, -0.00, -1.00, 830.3, 138.0)">t</text><text xml:space="preserve" font-family="Avenir-HeavyOblique,Avenir" font-style="italic" font-weight="bold" font-size="31.3" fill="#FEFFFF" transform="matrix(1.00, 0.00, -0.00, -1.00, 842.5, 138.0)">e</text><text xml:space="preserve" font-family="Avenir-HeavyOblique,Avenir" font-style="italic" font-weight="bold" font-size="31.3" fill="#FEFFFF" transform="matrix(1.00, 0.00, -0.00, -1.00, 860.5, 138.0)">…</text><text xml:space="preserve" font-family="Avenir-HeavyOblique,Avenir" font-style="italic" font-weight="bold" font-size="31.3" fill="#FEFFFF" transform="matrix(1.00, 0.00, -0.00, -1.00, 891.8, 138.0)"> </text><text xml:space="preserve" font-family="Avenir-Light,Avenir" font-size="23.5" fill="#646363" transform="matrix(1.00, 0.00, -0.00, -1.00, 37.0, 73.3)">•</text><text xml:space="preserve" font-family="Avenir-Light,Avenir" font-size="26.1" fill="#FEFFFF" transform="matrix(1.00, 0.00, -0.00, -1.00, 63.8, 72.3)">C</text><text xml:space="preserve" font-family="Avenir-Light,Avenir" font-size="26.1" fill="#FEFFFF" transform="matrix(1.00, 0.00, -0.00, -1.00, 82.2, 72.3)">a</text><text xml:space="preserve" font-family="Avenir-Light,Avenir" font-size="26.1" fill="#FEFFFF" transform="matrix(1.00, 0.00, -0.00, -1.00, 95.7, 72.3)">n</text><text xml:space="preserve" font-family="Avenir-Light,Avenir" font-size="26.1" fill="#FEFFFF" transform="matrix(1.00, 0.00, -0.00, -1.00, 110.3, 72.3)"> </text><text xml:space="preserve" font-family="Avenir-Light,Avenir" font-size="26.1" fill="#FEFFFF" transform="matrix(1.00, 0.00, -0.00, -1.00, 117.0, 72.3)">a</text><text xml:space="preserve" font-family="Avenir-Light,Avenir" font-size="26.1" fill="#FEFFFF" transform="matrix(1.00, 0.00, -0.00, -1.00, 130.6, 72.3)">l</text><text xml:space="preserve" font-family="Avenir-Light,Avenir" font-size="26.1" fill="#FEFFFF" transform="matrix(1.00, 0.00, -0.00, -1.00, 136.9, 72.3)">l</text><text xml:space="preserve" font-family="Avenir-Light,Avenir" font-size="26.1" fill="#FEFFFF" transform="matrix(1.00, 0.00, -0.00, -1.00, 143.1, 72.3)"> </text><text xml:space="preserve" font-family="Avenir-Light,Avenir" font-size="26.1" fill="#FEFFFF" transform="matrix(1.00, 0.00, -0.00, -1.00, 149.9, 72.3)">d</text><text xml:space="preserve" font-family="Avenir-Light,Avenir" font-size="26.1" fill="#FEFFFF" transform="matrix(1.00, 0.00, -0.00, -1.00, 165.9, 72.3)">o</text><text xml:space="preserve" font-family="Avenir-Light,Avenir" font-size="26.1" fill="#FEFFFF" transform="matrix(1.00, 0.00, -0.00, -1.00, 181.4, 72.3)">m</text><text xml:space="preserve" font-family="Avenir-Light,Avenir" font-size="26.1" fill="#FEFFFF" transform="matrix(1.00, 0.00, -0.00, -1.00, 203.6, 72.3)">a</text><text xml:space="preserve" font-family="Avenir-Light,Avenir" font-size="26.1" fill="#FEFFFF" transform="matrix(1.00, 0.00, -0.00, -1.00, 217.2, 72.3)">i</text><text xml:space="preserve" font-family="Avenir-Light,Avenir" font-size="26.1" fill="#FEFFFF" transform="matrix(1.00, 0.00, -0.00, -1.00, 223.4, 72.3)">n</text><text xml:space="preserve" font-family="Avenir-Light,Avenir" font-size="26.1" fill="#FEFFFF" transform="matrix(1.00, 0.00, -0.00, -1.00, 237.9, 72.3)">s</text><text xml:space="preserve" font-family="Avenir-Light,Avenir" font-size="26.1" fill="#FEFFFF" transform="matrix(1.00, 0.00, -0.00, -1.00, 249.1, 72.3)"> </text><text xml:space="preserve" font-family="Avenir-Light,Avenir" font-size="26.1" fill="#FEFFFF" transform="matrix(1.00, 0.00, -0.00, -1.00, 255.8, 72.3)">b</text><text xml:space="preserve" font-family="Avenir-Light,Avenir" font-size="26.1" fill="#FEFFFF" transform="matrix(1.00, 0.00, -0.00, -1.00, 271.8, 72.3)">e</text><text xml:space="preserve" font-family="Avenir-Light,Avenir" font-size="26.1" fill="#FEFFFF" transform="matrix(1.00, 0.00, -0.00, -1.00, 286.3, 72.3)"> </text><text xml:space="preserve" font-family="Avenir-Light,Avenir" font-size="26.1" fill="#FEFFFF" transform="matrix(1.00, 0.00, -0.00, -1.00, 293.1, 72.3)">i</text><text xml:space="preserve" font-family="Avenir-Light,Avenir" font-size="26.1" fill="#FEFFFF" transform="matrix(1.00, 0.00, -0.00, -1.00, 299.4, 72.3)">n</text><text xml:space="preserve" font-family="Avenir-Light,Avenir" font-size="26.1" fill="#FEFFFF" transform="matrix(1.00, 0.00, -0.00, -1.00, 313.9, 72.3)">v</text><text xml:space="preserve" font-family="Avenir-Light,Avenir" font-size="26.1" fill="#FEFFFF" transform="matrix(1.00, 0.00, -0.00, -1.00, 325.9, 72.3)">e</text><text xml:space="preserve" font-family="Avenir-Light,Avenir" font-size="26.1" fill="#FEFFFF" transform="matrix(1.00, 0.00, -0.00, -1.00, 340.5, 72.3)">s</text><text xml:space="preserve" font-family="Avenir-Light,Avenir" font-size="26.1" fill="#FEFFFF" transform="matrix(1.00, 0.00, -0.00, -1.00, 351.6, 72.3)">t</text><text xml:space="preserve" font-family="Avenir-Light,Avenir" font-size="26.1" fill="#FEFFFF" transform="matrix(1.00, 0.00, -0.00, -1.00, 360.3, 72.3)">i</text><text xml:space="preserve" font-family="Avenir-Light,Avenir" font-size="26.1" fill="#FEFFFF" transform="matrix(1.00, 0.00, -0.00, -1.00, 366.6, 72.3)">g</text><text xml:space="preserve" font-family="Avenir-Light,Avenir" font-size="26.1" fill="#FEFFFF" transform="matrix(1.00, 0.00, -0.00, -1.00, 382.5, 72.3)">a</text><text xml:space="preserve" font-family="Avenir-Light,Avenir" font-size="26.1" fill="#FEFFFF" transform="matrix(1.00, 0.00, -0.00, -1.00, 396.1, 72.3)">t</text><text xml:space="preserve" font-family="Avenir-Light,Avenir" font-size="26.1" fill="#FEFFFF" transform="matrix(1.00, 0.00, -0.00, -1.00, 404.7, 72.3)">e</text><text xml:space="preserve" font-family="Avenir-Light,Avenir" font-size="26.1" fill="#FEFFFF" transform="matrix(1.00, 0.00, -0.00, -1.00, 419.3, 72.3)">d</text><text xml:space="preserve" font-family="Avenir-Light,Avenir" font-size="26.1" fill="#FEFFFF" transform="matrix(1.00, 0.00, -0.00, -1.00, 435.2, 72.3)"> </text><text xml:space="preserve" font-family="Avenir-Light,Avenir" font-size="26.1" fill="#FEFFFF" transform="matrix(1.00, 0.00, -0.00, -1.00, 442.0, 72.3)">b</text><text xml:space="preserve" font-family="Avenir-Light,Avenir" font-size="26.1" fill="#FEFFFF" transform="matrix(1.00, 0.00, -0.00, -1.00, 457.9, 72.3)">y</text><text xml:space="preserve" font-family="Avenir-Light,Avenir" font-size="26.1" fill="#FEFFFF" transform="matrix(1.00, 0.00, -0.00, -1.00, 470.0, 72.3)"> </text><text xml:space="preserve" font-family="Avenir-Light,Avenir" font-size="26.1" fill="#FEFFFF" transform="matrix(1.00, 0.00, -0.00, -1.00, 476.8, 72.3)">a</text><text xml:space="preserve" font-family="Avenir-Light,Avenir" font-size="26.1" fill="#FEFFFF" transform="matrix(1.00, 0.00, -0.00, -1.00, 490.4, 72.3)">s</text><text xml:space="preserve" font-family="Avenir-Light,Avenir" font-size="26.1" fill="#FEFFFF" transform="matrix(1.00, 0.00, -0.00, -1.00, 501.5, 72.3)">k</text><text xml:space="preserve" font-family="Avenir-Light,Avenir" font-size="26.1" fill="#FEFFFF" transform="matrix(1.00, 0.00, -0.00, -1.00, 514.0, 72.3)">i</text><text xml:space="preserve" font-family="Avenir-Light,Avenir" font-size="26.1" fill="#FEFFFF" transform="matrix(1.00, 0.00, -0.00, -1.00, 520.3, 72.3)">n</text><text xml:space="preserve" font-family="Avenir-Light,Avenir" font-size="26.1" fill="#FEFFFF" transform="matrix(1.00, 0.00, -0.00, -1.00, 534.8, 72.3)">g</text><text xml:space="preserve" font-family="Avenir-Light,Avenir" font-size="26.1" fill="#FEFFFF" transform="matrix(1.00, 0.00, -0.00, -1.00, 550.7, 72.3)">,</text><text xml:space="preserve" font-family="Avenir-Light,Avenir" font-size="26.1" fill="#FEFFFF" transform="matrix(1.00, 0.00, -0.00, -1.00, 557.5, 72.3)"> </text><text xml:space="preserve" font-family="Avenir-Light,Avenir" font-size="26.1" fill="#FEFFFF" transform="matrix(1.00, 0.00, -0.00, -1.00, 564.3, 72.3)">“</text><text xml:space="preserve" font-family="Avenir-Light,Avenir" font-size="26.1" fill="#FEFFFF" transform="matrix(1.00, 0.00, -0.00, -1.00, 577.9, 72.3)">W</text><text xml:space="preserve" font-family="Avenir-Light,Avenir" font-size="26.1" fill="#FEFFFF" transform="matrix(1.00, 0.00, -0.00, -1.00, 602.5, 72.3)">h</text><text xml:space="preserve" font-family="Avenir-Light,Avenir" font-size="26.1" fill="#FEFFFF" transform="matrix(1.00, 0.00, -0.00, -1.00, 617.0, 72.3)">a</text><text xml:space="preserve" font-family="Avenir-Light,Avenir" font-size="26.1" fill="#FEFFFF" transform="matrix(1.00, 0.00, -0.00, -1.00, 630.6, 72.3)">t</text><text xml:space="preserve" font-family="Avenir-Light,Avenir" font-size="26.1" fill="#FEFFFF" transform="matrix(1.00, 0.00, -0.00, -1.00, 639.3, 72.3)"> </text><text xml:space="preserve" font-family="Avenir-Light,Avenir" font-size="26.1" fill="#FEFFFF" transform="matrix(1.00, 0.00, -0.00, -1.00, 646.1, 72.3)">h</text><text xml:space="preserve" font-family="Avenir-Light,Avenir" font-size="26.1" fill="#FEFFFF" transform="matrix(1.00, 0.00, -0.00, -1.00, 660.6, 72.3)">a</text><text xml:space="preserve" font-family="Avenir-Light,Avenir" font-size="26.1" fill="#FEFFFF" transform="matrix(1.00, 0.00, -0.00, -1.00, 674.1, 72.3)">p</text><text xml:space="preserve" font-family="Avenir-Light,Avenir" font-size="26.1" fill="#FEFFFF" transform="matrix(1.00, 0.00, -0.00, -1.00, 690.1, 72.3)">p</text><text xml:space="preserve" font-family="Avenir-Light,Avenir" font-size="26.1" fill="#FEFFFF" transform="matrix(1.00, 0.00, -0.00, -1.00, 706.0, 72.3)">e</text><text xml:space="preserve" font-family="Avenir-Light,Avenir" font-size="26.1" fill="#FEFFFF" transform="matrix(1.00, 0.00, -0.00, -1.00, 720.5, 72.3)">n</text><text xml:space="preserve" font-family="Avenir-Light,Avenir" font-size="26.1" fill="#FEFFFF" transform="matrix(1.00, 0.00, -0.00, -1.00, 735.0, 72.3)">s</text><text xml:space="preserve" font-family="Avenir-Light,Avenir" font-size="26.1" fill="#FEFFFF" transform="matrix(1.00, 0.00, -0.00, -1.00, 746.2, 72.3)">?</text><text xml:space="preserve" font-family="Avenir-Light,Avenir" font-size="26.1" fill="#FEFFFF" transform="matrix(1.00, 0.00, -0.00, -1.00, 758.2, 72.3)">”</text><text xml:space="preserve" font-family="Avenir-Light,Avenir" font-size="26.1" fill="#FEFFFF" transform="matrix(1.00, 0.00, -0.00, -1.00, 771.8, 72.3)"> </text><text xml:space="preserve" font-family="Avenir-Light,Avenir" font-size="23.5" fill="#646363" transform="matrix(1.00, 0.00, -0.00, -1.00, 37.0, 9.5)">•</text><text xml:space="preserve" font-family="Avenir-Light,Avenir" font-size="26.1" fill="#FEFFFF" transform="matrix(1.00, 0.00, -0.00, -1.00, 63.8, 8.4)">I</text><text xml:space="preserve" font-family="Avenir-Light,Avenir" font-size="26.1" fill="#FEFFFF" transform="matrix(1.00, 0.00, -0.00, -1.00, 70.6, 8.4)">f</text><text xml:space="preserve" font-family="Avenir-Light,Avenir" font-size="26.1" fill="#FEFFFF" transform="matrix(1.00, 0.00, -0.00, -1.00, 78.3, 8.4)"> </text><text xml:space="preserve" font-family="Avenir-Light,Avenir" font-size="26.1" fill="#FEFFFF" transform="matrix(1.00, 0.00, -0.00, -1.00, 85.1, 8.4)">w</text><text xml:space="preserve" font-family="Avenir-Light,Avenir" font-size="26.1" fill="#FEFFFF" transform="matrix(1.00, 0.00, -0.00, -1.00, 103.5, 8.4)">e</text><text xml:space="preserve" font-family="Avenir-Light,Avenir" font-size="26.1" fill="#FEFFFF" transform="matrix(1.00, 0.00, -0.00, -1.00, 118.0, 8.4)"> </text><text xml:space="preserve" font-family="Avenir-Light,Avenir" font-size="26.1" fill="#FEFFFF" transform="matrix(1.00, 0.00, -0.00, -1.00, 124.8, 8.4)">c</text><text xml:space="preserve" font-family="Avenir-Light,Avenir" font-size="26.1" fill="#FEFFFF" transform="matrix(1.00, 0.00, -0.00, -1.00, 137.3, 8.4)">o</text><text xml:space="preserve" font-family="Avenir-Light,Avenir" font-size="26.1" fill="#FEFFFF" transform="matrix(1.00, 0.00, -0.00, -1.00, 152.9, 8.4)">n</text><text xml:space="preserve" font-family="Avenir-Light,Avenir" font-size="26.1" fill="#FEFFFF" transform="matrix(1.00, 0.00, -0.00, -1.00, 167.4, 8.4)">s</text><text xml:space="preserve" font-family="Avenir-Light,Avenir" font-size="26.1" fill="#FEFFFF" transform="matrix(1.00, 0.00, -0.00, -1.00, 178.5, 8.4)">i</text><text xml:space="preserve" font-family="Avenir-Light,Avenir" font-size="26.1" fill="#FEFFFF" transform="matrix(1.00, 0.00, -0.00, -1.00, 184.7, 8.4)">d</text><text xml:space="preserve" font-family="Avenir-Light,Avenir" font-size="26.1" fill="#FEFFFF" transform="matrix(1.00, 0.00, -0.00, -1.00, 200.7, 8.4)">e</text><text xml:space="preserve" font-family="Avenir-Light,Avenir" font-size="26.1" fill="#FEFFFF" transform="matrix(1.00, 0.00, -0.00, -1.00, 215.2, 8.4)">r</text><text xml:space="preserve" font-family="Avenir-Light,Avenir" font-size="26.1" fill="#FEFFFF" transform="matrix(1.00, 0.00, -0.00, -1.00, 223.9, 8.4)"> </text><text xml:space="preserve" font-family="Avenir-Light,Avenir" font-size="26.1" fill="#FEFFFF" transform="matrix(1.00, 0.00, -0.00, -1.00, 230.7, 8.4)">o</text><text xml:space="preserve" font-family="Avenir-Light,Avenir" font-size="26.1" fill="#FEFFFF" transform="matrix(1.00, 0.00, -0.00, -1.00, 246.2, 8.4)">n</text><text xml:space="preserve" font-family="Avenir-Light,Avenir" font-size="26.1" fill="#FEFFFF" transform="matrix(1.00, 0.00, -0.00, -1.00, 260.7, 8.4)">l</text><text xml:space="preserve" font-family="Avenir-Light,Avenir" font-size="26.1" fill="#FEFFFF" transform="matrix(1.00, 0.00, -0.00, -1.00, 267.0, 8.4)">y</text><text xml:space="preserve" font-family="Avenir-Light,Avenir" font-size="26.1" fill="#FEFFFF" transform="matrix(1.00, 0.00, -0.00, -1.00, 279.0, 8.4)"> </text><text xml:space="preserve" font-family="Avenir-Light,Avenir" font-size="26.1" fill="#FEFFFF" transform="matrix(1.00, 0.00, -0.00, -1.00, 285.8, 8.4)">t</text><text xml:space="preserve" font-family="Avenir-Light,Avenir" font-size="26.1" fill="#FEFFFF" transform="matrix(1.00, 0.00, -0.00, -1.00, 294.5, 8.4)">h</text><text xml:space="preserve" font-family="Avenir-Light,Avenir" font-size="26.1" fill="#FEFFFF" transform="matrix(1.00, 0.00, -0.00, -1.00, 309.1, 8.4)">e</text><text xml:space="preserve" font-family="Avenir-Light,Avenir" font-size="26.1" fill="#FEFFFF" transform="matrix(1.00, 0.00, -0.00, -1.00, 323.6, 8.4)"> </text><text xml:space="preserve" font-family="Avenir-Light,Avenir" font-size="26.1" fill="#FEFFFF" transform="matrix(1.00, 0.00, -0.00, -1.00, 330.4, 8.4)">e</text><text xml:space="preserve" font-family="Avenir-Light,Avenir" font-size="26.1" fill="#FEFFFF" transform="matrix(1.00, 0.00, -0.00, -1.00, 344.9, 8.4)">v</text><text xml:space="preserve" font-family="Avenir-Light,Avenir" font-size="26.1" fill="#FEFFFF" transform="matrix(1.00, 0.00, -0.00, -1.00, 357.0, 8.4)">e</text><text xml:space="preserve" font-family="Avenir-Light,Avenir" font-size="26.1" fill="#FEFFFF" transform="matrix(1.00, 0.00, -0.00, -1.00, 371.5, 8.4)">n</text><text xml:space="preserve" font-family="Avenir-Light,Avenir" font-size="26.1" fill="#FEFFFF" transform="matrix(1.00, 0.00, -0.00, -1.00, 386.0, 8.4)">t</text><text xml:space="preserve" font-family="Avenir-Light,Avenir" font-size="26.1" fill="#FEFFFF" transform="matrix(1.00, 0.00, -0.00, -1.00, 394.7, 8.4)">s</text><text xml:space="preserve" font-family="Avenir-Light,Avenir" font-size="26.1" fill="#FEFFFF" transform="matrix(1.00, 0.00, -0.00, -1.00, 405.8, 8.4)">,</text><text xml:space="preserve" font-family="Avenir-Light,Avenir" font-size="26.1" fill="#FEFFFF" transform="matrix(1.00, 0.00, -0.00, -1.00, 412.6, 8.4)"> </text><text xml:space="preserve" font-family="Avenir-Light,Avenir" font-size="26.1" fill="#FEFFFF" transform="matrix(1.00, 0.00, -0.00, -1.00, 419.4, 8.4)">w</text><text xml:space="preserve" font-family="Avenir-Light,Avenir" font-size="26.1" fill="#FEFFFF" transform="matrix(1.00, 0.00, -0.00, -1.00, 437.7, 8.4)">h</text><text xml:space="preserve" font-family="Avenir-Light,Avenir" font-size="26.1" fill="#FEFFFF" transform="matrix(1.00, 0.00, -0.00, -1.00, 452.2, 8.4)">a</text><text xml:space="preserve" font-family="Avenir-Light,Avenir" font-size="26.1" fill="#FEFFFF" transform="matrix(1.00, 0.00, -0.00, -1.00, 465.8, 8.4)">t</text><text xml:space="preserve" font-family="Avenir-Light,Avenir" font-size="26.1" fill="#FEFFFF" transform="matrix(1.00, 0.00, -0.00, -1.00, 474.5, 8.4)"> </text><text xml:space="preserve" font-family="Avenir-Light,Avenir" font-size="26.1" fill="#FEFFFF" transform="matrix(1.00, 0.00, -0.00, -1.00, 481.3, 8.4)">d</text><text xml:space="preserve" font-family="Avenir-Light,Avenir" font-size="26.1" fill="#FEFFFF" transform="matrix(1.00, 0.00, -0.00, -1.00, 497.2, 8.4)">o</text><text xml:space="preserve" font-family="Avenir-Light,Avenir" font-size="26.1" fill="#FEFFFF" transform="matrix(1.00, 0.00, -0.00, -1.00, 512.7, 8.4)"> </text><text xml:space="preserve" font-family="Avenir-Light,Avenir" font-size="26.1" fill="#FEFFFF" transform="matrix(1.00, 0.00, -0.00, -1.00, 519.5, 8.4)">w</text><text xml:space="preserve" font-family="Avenir-Light,Avenir" font-size="26.1" fill="#FEFFFF" transform="matrix(1.00, 0.00, -0.00, -1.00, 537.9, 8.4)">e</text><text xml:space="preserve" font-family="Avenir-Light,Avenir" font-size="26.1" fill="#FEFFFF" transform="matrix(1.00, 0.00, -0.00, -1.00, 552.4, 8.4)"> </text><text xml:space="preserve" font-family="Avenir-Light,Avenir" font-size="26.1" fill="#FEFFFF" transform="matrix(1.00, 0.00, -0.00, -1.00, 559.2, 8.4)">o</text><text xml:space="preserve" font-family="Avenir-Light,Avenir" font-size="26.1" fill="#FEFFFF" transform="matrix(1.00, 0.00, -0.00, -1.00, 574.7, 8.4)">v</text><text xml:space="preserve" font-family="Avenir-Light,Avenir" font-size="26.1" fill="#FEFFFF" transform="matrix(1.00, 0.00, -0.00, -1.00, 586.8, 8.4)">e</text><text xml:space="preserve" font-family="Avenir-Light,Avenir" font-size="26.1" fill="#FEFFFF" transform="matrix(1.00, 0.00, -0.00, -1.00, 601.3, 8.4)">r</text><text xml:space="preserve" font-family="Avenir-Light,Avenir" font-size="26.1" fill="#FEFFFF" transform="matrix(1.00, 0.00, -0.00, -1.00, 610.0, 8.4)">l</text><text xml:space="preserve" font-family="Avenir-Light,Avenir" font-size="26.1" fill="#FEFFFF" transform="matrix(1.00, 0.00, -0.00, -1.00, 616.2, 8.4)">o</text><text xml:space="preserve" font-family="Avenir-Light,Avenir" font-size="26.1" fill="#FEFFFF" transform="matrix(1.00, 0.00, -0.00, -1.00, 631.7, 8.4)">o</text><text xml:space="preserve" font-family="Avenir-Light,Avenir" font-size="26.1" fill="#FEFFFF" transform="matrix(1.00, 0.00, -0.00, -1.00, 647.2, 8.4)">k</text><text xml:space="preserve" font-family="Avenir-Light,Avenir" font-size="26.1" fill="#FEFFFF" transform="matrix(1.00, 0.00, -0.00, -1.00, 659.8, 8.4)">?</text></g></svg>