<?xml version="1.0" encoding="UTF-8"?><svg xmlns="http://www.w3.org/2000/svg" xmlns:xlink="http://www.w3.org/1999/xlink" clip-rule="evenodd" stroke-miterlimit="10" viewBox="0 0 868 81"><desc>SVG generated by Keynote</desc><defs></defs><g transform="matrix(1.00, 0.00, -0.00, -1.00, 0.0, 81.0)"><text xml:space="preserve" font-family="Avenir-Light,Avenir" font-size="28.2" fill="#646363" transform="matrix(1.00, 0.00, -0.00, -1.00, 0.0, 52.3)">•</text><text xml:space="preserve" font-family="Avenir-Light,Avenir" font-size="31.3" fill="#FEFFFF" transform="matrix(1.00, 0.00, -0.00, -1.00, 32.2, 51.5)">“</text><text xml:space="preserve" font-family="Avenir-Light,Avenir" font-size="31.3" fill="#FEFFFF" transform="matrix(1.00, 0.00, -0.00, -1.00, 48.5, 51.5)">A</text><text xml:space="preserve" font-family="Avenir-Light,Avenir" font-size="31.3" fill="#FEFFFF" transform="matrix(1.00, 0.00, -0.00, -1.00, 69.9, 51.5)">r</text><text xml:space="preserve" font-family="Avenir-Light,Avenir" font-size="31.3" fill="#FEFFFF" transform="matrix(1.00, 0.00, -0.00, -1.00, 79.8, 51.5)">c</text><text xml:space="preserve" font-family="Avenir-Light,Avenir" font-size="31.3" fill="#FEFFFF" transform="matrix(1.00, 0.00, -0.00, -1.00, 94.9, 51.5)">h</text><text xml:space="preserve" font-family="Avenir-Light,Avenir" font-size="31.3" fill="#FEFFFF" transform="matrix(1.00, 0.00, -0.00, -1.00, 112.3, 51.5)">i</text><text xml:space="preserve" font-family="Avenir-Light,Avenir" font-size="31.3" fill="#FEFFFF" transform="matrix(1.00, 0.00, -0.00, -1.00, 119.8, 51.5)">t</text><text xml:space="preserve" font-family="Avenir-Light,Avenir" font-size="31.3" fill="#FEFFFF" transform="matrix(1.00, 0.00, -0.00, -1.00, 130.2, 51.5)">e</text><text xml:space="preserve" font-family="Avenir-Light,Avenir" font-size="31.3" fill="#FEFFFF" transform="matrix(1.00, 0.00, -0.00, -1.00, 147.6, 51.5)">c</text><text xml:space="preserve" font-family="Avenir-Light,Avenir" font-size="31.3" fill="#FEFFFF" transform="matrix(1.00, 0.00, -0.00, -1.00, 162.7, 51.5)">t</text><text xml:space="preserve" font-family="Avenir-Light,Avenir" font-size="31.3" fill="#FEFFFF" transform="matrix(1.00, 0.00, -0.00, -1.00, 173.1, 51.5)">u</text><text xml:space="preserve" font-family="Avenir-Light,Avenir" font-size="31.3" fill="#FEFFFF" transform="matrix(1.00, 0.00, -0.00, -1.00, 190.5, 51.5)">r</text><text xml:space="preserve" font-family="Avenir-Light,Avenir" font-size="31.3" fill="#FEFFFF" transform="matrix(1.00, 0.00, -0.00, -1.00, 201.0, 51.5)">a</text><text xml:space="preserve" font-family="Avenir-Light,Avenir" font-size="31.3" fill="#FEFFFF" transform="matrix(1.00, 0.00, -0.00, -1.00, 217.2, 51.5)">l</text><text xml:space="preserve" font-family="Avenir-Light,Avenir" font-size="31.3" fill="#FEFFFF" transform="matrix(1.00, 0.00, -0.00, -1.00, 224.7, 51.5)"> </text><text xml:space="preserve" font-family="Avenir-Light,Avenir" font-size="31.3" fill="#FEFFFF" transform="matrix(1.00, 0.00, -0.00, -1.00, 232.9, 51.5)">p</text><text xml:space="preserve" font-family="Avenir-Light,Avenir" font-size="31.3" fill="#FEFFFF" transform="matrix(1.00, 0.00, -0.00, -1.00, 252.0, 51.5)">a</text><text xml:space="preserve" font-family="Avenir-Light,Avenir" font-size="31.3" fill="#FEFFFF" transform="matrix(1.00, 0.00, -0.00, -1.00, 268.3, 51.5)">t</text><text xml:space="preserve" font-family="Avenir-Light,Avenir" font-size="31.3" fill="#FEFFFF" transform="matrix(1.00, 0.00, -0.00, -1.00, 278.7, 51.5)">t</text><text xml:space="preserve" font-family="Avenir-Light,Avenir" font-size="31.3" fill="#FEFFFF" transform="matrix(1.00, 0.00, -0.00, -1.00, 289.2, 51.5)">e</text><text xml:space="preserve" font-family="Avenir-Light,Avenir" font-size="31.3" fill="#FEFFFF" transform="matrix(1.00, 0.00, -0.00, -1.00, 306.6, 51.5)">r</text><text xml:space="preserve" font-family="Avenir-Light,Avenir" font-size="31.3" fill="#FEFFFF" transform="matrix(1.00, 0.00, -0.00, -1.00, 317.0, 51.5)">n</text><text xml:space="preserve" font-family="Avenir-Light,Avenir" font-size="31.3" fill="#FEFFFF" transform="matrix(1.00, 0.00, -0.00, -1.00, 334.4, 51.5)"> </text><text xml:space="preserve" font-family="Avenir-Light,Avenir" font-size="31.3" fill="#FEFFFF" transform="matrix(1.00, 0.00, -0.00, -1.00, 342.6, 51.5)">i</text><text xml:space="preserve" font-family="Avenir-Light,Avenir" font-size="31.3" fill="#FEFFFF" transform="matrix(1.00, 0.00, -0.00, -1.00, 350.1, 51.5)">n</text><text xml:space="preserve" font-family="Avenir-Light,Avenir" font-size="31.3" fill="#FEFFFF" transform="matrix(1.00, 0.00, -0.00, -1.00, 367.5, 51.5)"> </text><text xml:space="preserve" font-family="Avenir-Light,Avenir" font-size="31.3" fill="#FEFFFF" transform="matrix(1.00, 0.00, -0.00, -1.00, 375.6, 51.5)">w</text><text xml:space="preserve" font-family="Avenir-Light,Avenir" font-size="31.3" fill="#FEFFFF" transform="matrix(1.00, 0.00, -0.00, -1.00, 397.7, 51.5)">h</text><text xml:space="preserve" font-family="Avenir-Light,Avenir" font-size="31.3" fill="#FEFFFF" transform="matrix(1.00, 0.00, -0.00, -1.00, 415.1, 51.5)">i</text><text xml:space="preserve" font-family="Avenir-Light,Avenir" font-size="31.3" fill="#FEFFFF" transform="matrix(1.00, 0.00, -0.00, -1.00, 422.6, 51.5)">c</text><text xml:space="preserve" font-family="Avenir-Light,Avenir" font-size="31.3" fill="#FEFFFF" transform="matrix(1.00, 0.00, -0.00, -1.00, 437.7, 51.5)">h</text><text xml:space="preserve" font-family="Avenir-Light,Avenir" font-size="31.3" fill="#FEFFFF" transform="matrix(1.00, 0.00, -0.00, -1.00, 455.1, 51.5)"> </text><text xml:space="preserve" font-family="Avenir-Light,Avenir" font-size="31.3" fill="#FEFFFF" transform="matrix(1.00, 0.00, -0.00, -1.00, 463.2, 51.5)">t</text><text xml:space="preserve" font-family="Avenir-Light,Avenir" font-size="31.3" fill="#FEFFFF" transform="matrix(1.00, 0.00, -0.00, -1.00, 473.7, 51.5)">h</text><text xml:space="preserve" font-family="Avenir-Light,Avenir" font-size="31.3" fill="#FEFFFF" transform="matrix(1.00, 0.00, -0.00, -1.00, 491.1, 51.5)">e</text><text xml:space="preserve" font-family="Avenir-Light,Avenir" font-size="31.3" fill="#FEFFFF" transform="matrix(1.00, 0.00, -0.00, -1.00, 508.5, 51.5)"> </text><text xml:space="preserve" font-family="Avenir-Light,Avenir" font-size="31.3" fill="#FEFFFF" transform="matrix(1.00, 0.00, -0.00, -1.00, 516.7, 51.5)">s</text><text xml:space="preserve" font-family="Avenir-Light,Avenir" font-size="31.3" fill="#FEFFFF" transform="matrix(1.00, 0.00, -0.00, -1.00, 530.0, 51.5)">t</text><text xml:space="preserve" font-family="Avenir-Light,Avenir" font-size="31.3" fill="#FEFFFF" transform="matrix(1.00, 0.00, -0.00, -1.00, 540.5, 51.5)">a</text><text xml:space="preserve" font-family="Avenir-Light,Avenir" font-size="31.3" fill="#FEFFFF" transform="matrix(1.00, 0.00, -0.00, -1.00, 556.7, 51.5)">t</text><text xml:space="preserve" font-family="Avenir-Light,Avenir" font-size="31.3" fill="#FEFFFF" transform="matrix(1.00, 0.00, -0.00, -1.00, 567.1, 51.5)">e</text><text xml:space="preserve" font-family="Avenir-Light,Avenir" font-size="31.3" fill="#FEFFFF" transform="matrix(1.00, 0.00, -0.00, -1.00, 584.5, 51.5)"> </text><text xml:space="preserve" font-family="Avenir-Light,Avenir" font-size="31.3" fill="#FEFFFF" transform="matrix(1.00, 0.00, -0.00, -1.00, 592.7, 51.5)">o</text><text xml:space="preserve" font-family="Avenir-Light,Avenir" font-size="31.3" fill="#FEFFFF" transform="matrix(1.00, 0.00, -0.00, -1.00, 611.3, 51.5)">f</text><text xml:space="preserve" font-family="Avenir-Light,Avenir" font-size="31.3" fill="#FEFFFF" transform="matrix(1.00, 0.00, -0.00, -1.00, 620.6, 51.5)"> </text><text xml:space="preserve" font-family="Avenir-Light,Avenir" font-size="31.3" fill="#FEFFFF" transform="matrix(1.00, 0.00, -0.00, -1.00, 628.7, 51.5)">t</text><text xml:space="preserve" font-family="Avenir-Light,Avenir" font-size="31.3" fill="#FEFFFF" transform="matrix(1.00, 0.00, -0.00, -1.00, 639.2, 51.5)">h</text><text xml:space="preserve" font-family="Avenir-Light,Avenir" font-size="31.3" fill="#FEFFFF" transform="matrix(1.00, 0.00, -0.00, -1.00, 656.6, 51.5)">e</text><text xml:space="preserve" font-family="Avenir-Light,Avenir" font-size="31.3" fill="#FEFFFF" transform="matrix(1.00, 0.00, -0.00, -1.00, 674.0, 51.5)"> </text><text xml:space="preserve" font-family="Avenir-Light,Avenir" font-size="31.3" fill="#FEFFFF" transform="matrix(1.00, 0.00, -0.00, -1.00, 682.1, 51.5)">a</text><text xml:space="preserve" font-family="Avenir-Light,Avenir" font-size="31.3" fill="#FEFFFF" transform="matrix(1.00, 0.00, -0.00, -1.00, 698.4, 51.5)">p</text><text xml:space="preserve" font-family="Avenir-Light,Avenir" font-size="31.3" fill="#FEFFFF" transform="matrix(1.00, 0.00, -0.00, -1.00, 717.5, 51.5)">p</text><text xml:space="preserve" font-family="Avenir-Light,Avenir" font-size="31.3" fill="#FEFFFF" transform="matrix(1.00, 0.00, -0.00, -1.00, 736.7, 51.5)">l</text><text xml:space="preserve" font-family="Avenir-Light,Avenir" font-size="31.3" fill="#FEFFFF" transform="matrix(1.00, 0.00, -0.00, -1.00, 744.2, 51.5)">i</text><text xml:space="preserve" font-family="Avenir-Light,Avenir" font-size="31.3" fill="#FEFFFF" transform="matrix(1.00, 0.00, -0.00, -1.00, 751.7, 51.5)">c</text><text xml:space="preserve" font-family="Avenir-Light,Avenir" font-size="31.3" fill="#FEFFFF" transform="matrix(1.00, 0.00, -0.00, -1.00, 766.8, 51.5)">a</text><text xml:space="preserve" font-family="Avenir-Light,Avenir" font-size="31.3" fill="#FEFFFF" transform="matrix(1.00, 0.00, -0.00, -1.00, 783.1, 51.5)">t</text><text xml:space="preserve" font-family="Avenir-Light,Avenir" font-size="31.3" fill="#FEFFFF" transform="matrix(1.00, 0.00, -0.00, -1.00, 793.5, 51.5)">i</text><text xml:space="preserve" font-family="Avenir-Light,Avenir" font-size="31.3" fill="#FEFFFF" transform="matrix(1.00, 0.00, -0.00, -1.00, 801.0, 51.5)">o</text><text xml:space="preserve" font-family="Avenir-Light,Avenir" font-size="31.3" fill="#FEFFFF" transform="matrix(1.00, 0.00, -0.00, -1.00, 819.6, 51.5)">n</text><text xml:space="preserve" font-family="Avenir-Light,Avenir" font-size="31.3" fill="#FEFFFF" transform="matrix(1.00, 0.00, -0.00, -1.00, 837.1, 51.5)"> </text><text xml:space="preserve" font-family="Avenir-Light,Avenir" font-size="31.3" fill="#FEFFFF" transform="matrix(1.00, 0.00, -0.00, -1.00, 845.2, 51.5)">i</text><text xml:space="preserve" font-family="Avenir-Light,Avenir" font-size="31.3" fill="#FEFFFF" transform="matrix(1.00, 0.00, -0.00, -1.00, 852.7, 51.5)">s</text><text xml:space="preserve" font-family="Avenir-Light,Avenir" font-size="31.3" fill="#FEFFFF" transform="matrix(1.00, 0.00, -0.00, -1.00, 866.1, 51.5)"> </text><text xml:space="preserve" font-family="Avenir-Light,Avenir" font-size="31.3" fill="#FEFFFF" transform="matrix(1.00, 0.00, -0.00, -1.00, 32.2, 9.5)">d</text><text xml:space="preserve" font-family="Avenir-Light,Avenir" font-size="31.3" fill="#FEFFFF" transform="matrix(1.00, 0.00, -0.00, -1.00, 51.3, 9.5)">e</text><text xml:space="preserve" font-family="Avenir-Light,Avenir" font-size="31.3" fill="#FEFFFF" transform="matrix(1.00, 0.00, -0.00, -1.00, 68.7, 9.5)">t</text><text xml:space="preserve" font-family="Avenir-Light,Avenir" font-size="31.3" fill="#FEFFFF" transform="matrix(1.00, 0.00, -0.00, -1.00, 79.2, 9.5)">e</text><text xml:space="preserve" font-family="Avenir-Light,Avenir" font-size="31.3" fill="#FEFFFF" transform="matrix(1.00, 0.00, -0.00, -1.00, 96.6, 9.5)">r</text><text xml:space="preserve" font-family="Avenir-Light,Avenir" font-size="31.3" fill="#FEFFFF" transform="matrix(1.00, 0.00, -0.00, -1.00, 107.0, 9.5)">m</text><text xml:space="preserve" font-family="Avenir-Light,Avenir" font-size="31.3" fill="#FEFFFF" transform="matrix(1.00, 0.00, -0.00, -1.00, 133.7, 9.5)">i</text><text xml:space="preserve" font-family="Avenir-Light,Avenir" font-size="31.3" fill="#FEFFFF" transform="matrix(1.00, 0.00, -0.00, -1.00, 141.2, 9.5)">n</text><text xml:space="preserve" font-family="Avenir-Light,Avenir" font-size="31.3" fill="#FEFFFF" transform="matrix(1.00, 0.00, -0.00, -1.00, 158.6, 9.5)">e</text><text xml:space="preserve" font-family="Avenir-Light,Avenir" font-size="31.3" fill="#FEFFFF" transform="matrix(1.00, 0.00, -0.00, -1.00, 176.0, 9.5)">d</text><text xml:space="preserve" font-family="Avenir-Light,Avenir" font-size="31.3" fill="#FEFFFF" transform="matrix(1.00, 0.00, -0.00, -1.00, 195.2, 9.5)"> </text><text xml:space="preserve" font-family="Avenir-Light,Avenir" font-size="31.3" fill="#FEFFFF" transform="matrix(1.00, 0.00, -0.00, -1.00, 203.3, 9.5)">b</text><text xml:space="preserve" font-family="Avenir-Light,Avenir" font-size="31.3" fill="#FEFFFF" transform="matrix(1.00, 0.00, -0.00, -1.00, 222.5, 9.5)">y</text><text xml:space="preserve" font-family="Avenir-Light,Avenir" font-size="31.3" fill="#FEFFFF" transform="matrix(1.00, 0.00, -0.00, -1.00, 237.0, 9.5)"> </text><text xml:space="preserve" font-family="Avenir-Light,Avenir" font-size="31.3" fill="#FEFFFF" transform="matrix(1.00, 0.00, -0.00, -1.00, 245.1, 9.5)">a</text><text xml:space="preserve" font-family="Avenir-Light,Avenir" font-size="31.3" fill="#FEFFFF" transform="matrix(1.00, 0.00, -0.00, -1.00, 261.4, 9.5)"> </text><text xml:space="preserve" font-family="Avenir-Light,Avenir" font-size="31.3" fill="#FEFFFF" transform="matrix(1.00, 0.00, -0.00, -1.00, 269.5, 9.5)">s</text><text xml:space="preserve" font-family="Avenir-Light,Avenir" font-size="31.3" fill="#FEFFFF" transform="matrix(1.00, 0.00, -0.00, -1.00, 282.8, 9.5)">e</text><text xml:space="preserve" font-family="Avenir-Light,Avenir" font-size="31.3" fill="#FEFFFF" transform="matrix(1.00, 0.00, -0.00, -1.00, 300.3, 9.5)">q</text><text xml:space="preserve" font-family="Avenir-Light,Avenir" font-size="31.3" fill="#FEFFFF" transform="matrix(1.00, 0.00, -0.00, -1.00, 319.4, 9.5)">u</text><text xml:space="preserve" font-family="Avenir-Light,Avenir" font-size="31.3" fill="#FEFFFF" transform="matrix(1.00, 0.00, -0.00, -1.00, 336.8, 9.5)">e</text><text xml:space="preserve" font-family="Avenir-Light,Avenir" font-size="31.3" fill="#FEFFFF" transform="matrix(1.00, 0.00, -0.00, -1.00, 354.2, 9.5)">n</text><text xml:space="preserve" font-family="Avenir-Light,Avenir" font-size="31.3" fill="#FEFFFF" transform="matrix(1.00, 0.00, -0.00, -1.00, 371.6, 9.5)">c</text><text xml:space="preserve" font-family="Avenir-Light,Avenir" font-size="31.3" fill="#FEFFFF" transform="matrix(1.00, 0.00, -0.00, -1.00, 386.7, 9.5)">e</text><text xml:space="preserve" font-family="Avenir-Light,Avenir" font-size="31.3" fill="#FEFFFF" transform="matrix(1.00, 0.00, -0.00, -1.00, 404.1, 9.5)"> </text><text xml:space="preserve" font-family="Avenir-Light,Avenir" font-size="31.3" fill="#FEFFFF" transform="matrix(1.00, 0.00, -0.00, -1.00, 412.3, 9.5)">o</text><text xml:space="preserve" font-family="Avenir-Light,Avenir" font-size="31.3" fill="#FEFFFF" transform="matrix(1.00, 0.00, -0.00, -1.00, 430.9, 9.5)">f</text><text xml:space="preserve" font-family="Avenir-Light,Avenir" font-size="31.3" fill="#FEFFFF" transform="matrix(1.00, 0.00, -0.00, -1.00, 440.1, 9.5)"> </text><text xml:space="preserve" font-family="Avenir-Light,Avenir" font-size="31.3" fill="#FEFFFF" transform="matrix(1.00, 0.00, -0.00, -1.00, 448.3, 9.5)">e</text><text xml:space="preserve" font-family="Avenir-Light,Avenir" font-size="31.3" fill="#FEFFFF" transform="matrix(1.00, 0.00, -0.00, -1.00, 465.7, 9.5)">v</text><text xml:space="preserve" font-family="Avenir-Light,Avenir" font-size="31.3" fill="#FEFFFF" transform="matrix(1.00, 0.00, -0.00, -1.00, 480.2, 9.5)">e</text><text xml:space="preserve" font-family="Avenir-Light,Avenir" font-size="31.3" fill="#FEFFFF" transform="matrix(1.00, 0.00, -0.00, -1.00, 497.6, 9.5)">n</text><text xml:space="preserve" font-family="Avenir-Light,Avenir" font-size="31.3" fill="#FEFFFF" transform="matrix(1.00, 0.00, -0.00, -1.00, 515.0, 9.5)">t</text><text xml:space="preserve" font-family="Avenir-Light,Avenir" font-size="31.3" fill="#FEFFFF" transform="matrix(1.00, 0.00, -0.00, -1.00, 525.4, 9.5)">s</text><text xml:space="preserve" font-family="Avenir-Light,Avenir" font-size="31.3" fill="#FEFFFF" transform="matrix(1.00, 0.00, -0.00, -1.00, 538.8, 9.5)">”</text></g></svg>