<?xml version="1.0" encoding="UTF-8"?><svg xmlns="http://www.w3.org/2000/svg" xmlns:xlink="http://www.w3.org/1999/xlink" clip-rule="evenodd" stroke-miterlimit="10" viewBox="0 0 753 148"><desc>SVG generated by Keynote</desc><defs></defs><g transform="matrix(1.00, 0.00, -0.00, -1.00, 0.0, 148.0)"><path d="M 68.7 64.1 C 67.3 64.9 63.6 63.7 62.5 64.5 M 68.7 64.1 C 68.7 64.1 68.7 64.1 68.7 64.1 C 70.1 63.2 64.2 60.6 63.7 59.6 C 63.1 58.6 62.0 59.7 61.3 59.7 C 59.4 59.7 62.0 57.2 58.2 58.0 C 55.3 58.6 52.5 57.4 49.7 57.2 C 47.2 56.9 45.5 57.0 45.9 59.9 C 49.5 62.1 48.9 64.5 48.9 64.5 C 46.0 64.8 39.7 65.3 37.6 64.1 C 37.0 63.8 38.7 56.8 38.2 56.8 C 36.4 56.2 35.7 58.4 33.9 58.4 C 32.0 58.4 31.0 58.7 29.3 57.5 C 29.0 57.2 25.5 57.0 26.9 58.1 C 25.5 58.0 23.4 57.4 22.0 58.0 C 20.8 58.5 20.5 60.8 22.1 61.1 C 21.8 61.4 28.7 62.0 28.8 61.5 C 28.6 63.5 23.1 60.7 21.7 63.6 C 19.8 67.7 23.0 66.0 24.8 67.2 C 26.7 68.3 21.8 70.3 20.0 70.3 C 16.3 70.3 25.5 74.0 21.7 75.1 C 18.0 76.3 21.9 77.3 25.0 79.2 C 27.2 80.5 26.4 82.1 24.7 83.0 C 27.1 82.7 28.5 83.2 30.3 85.5 C 32.7 86.0 31.7 84.4 31.4 83.3 C 30.4 78.6 38.9 84.0 39.3 83.9 C 40.6 83.8 41.6 82.4 43.0 82.9 C 44.0 83.3 43.8 85.4 44.7 85.4 C 46.0 85.3 47.3 85.3 48.6 85.3 C 49.5 85.3 47.3 84.4 48.7 83.0 C 50.2 81.6 48.2 79.0 47.9 78.6 C 48.1 77.0 54.4 83.8 57.9 83.6 C 61.3 83.5 59.1 81.9 61.4 81.8 C 63.5 81.7 62.8 83.7 64.3 83.8 C 65.8 83.8 66.3 82.6 67.6 83.1 C 70.5 84.3 70.5 81.0 68.5 78.5 C 67.5 77.3 65.7 76.4 66.9 74.2 C 68.0 72.1 71.5 73.3 69.8 71.8 C 68.1 70.3 61.0 72.5 60.1 71.2 C 59.1 69.8 66.8 70.2 65.7 68.3 C 64.7 66.5 64.1 68.7 61.6 67.7 C 61.8 66.7 63.0 67.6 63.2 66.4 C 63.4 65.2 61.5 65.3 62.5 64.5 C 63.6 63.7 67.3 64.9 68.7 64.1 C 68.7 64.1 68.7 64.1 68.7 64.1 Z M 34.7 60.0 C 34.7 60.0 34.7 60.0 34.7 60.0 C 34.3 59.5 35.1 59.0 35.9 59.3 C 36.8 59.5 35.1 60.4 34.7 60.0 C 34.7 60.0 34.7 60.0 34.7 60.0 Z M 57.8 85.4 C 57.8 85.4 57.8 85.4 57.8 85.4 C 57.5 85.0 58.2 84.4 59.0 84.7 C 59.9 85.0 58.2 85.8 57.8 85.4 C 57.8 85.4 57.8 85.4 57.8 85.4 Z M 33.0 83.4 C 33.0 83.4 33.0 83.4 33.0 83.4 C 32.7 83.0 33.4 82.4 34.3 82.7 C 35.1 83.0 33.4 83.9 33.0 83.4 C 33.0 83.4 33.0 83.4 33.0 83.4 Z M 43.6 61.2 C 43.6 61.2 43.6 61.2 43.6 61.2 C 44.7 61.1 46.2 62.1 43.7 63.0 C 42.7 63.2 41.8 63.2 41.0 62.9 C 40.1 62.9 38.8 62.7 38.3 62.1 C 40.5 61.6 42.4 59.9 43.6 61.2 C 43.6 61.2 43.6 61.2 43.6 61.2 Z M 44.3 72.2 C 44.3 72.2 44.3 72.2 44.3 72.2 C 44.7 71.5 46.9 71.3 46.7 73.2 C 45.3 73.7 43.9 72.9 44.3 72.2 C 44.3 72.2 44.3 72.2 44.3 72.2 Z M 17.8 64.4 C 17.8 64.4 17.8 64.4 17.8 64.4 C 18.2 63.7 20.4 63.5 20.2 65.4 C 18.8 65.9 17.4 65.1 17.8 64.4 C 17.8 64.4 17.8 64.4 17.8 64.4 Z M 49.6 66.2 C 49.6 66.2 49.6 66.2 49.6 66.2 C 50.9 66.6 51.5 68.3 49.8 68.5 C 49.1 67.7 45.3 67.4 49.6 66.2 C 49.6 66.2 49.6 66.2 49.6 66.2 Z M 58.0 59.9 C 58.0 59.9 58.0 59.9 58.0 59.9 C 58.8 60.3 59.3 60.1 59.1 61.6 C 58.0 61.6 58.3 61.7 57.1 61.8 C 55.3 61.4 54.4 64.9 53.5 62.8 C 52.2 59.9 57.4 58.8 58.0 59.9 C 58.0 59.9 58.0 59.9 58.0 59.9 Z M 52.2 68.9 C 52.2 68.9 52.2 68.9 52.2 68.9 C 52.7 69.0 53.1 69.4 53.2 69.7 C 52.9 70.5 51.8 69.2 52.2 68.9 C 52.2 68.9 52.2 68.9 52.2 68.9 Z M 21.5 78.5 C 21.5 78.5 21.5 78.5 21.5 78.5 C 21.9 78.6 22.4 79.1 22.5 79.3 C 22.1 80.1 21.0 78.9 21.5 78.5 C 21.5 78.5 21.5 78.5 21.5 78.5 Z M 41.0 84.4 C 41.0 84.4 41.0 84.4 41.0 84.4 C 41.4 84.5 41.9 85.0 42.0 85.2 C 41.6 86.0 40.6 84.7 41.0 84.4 C 41.0 84.4 41.0 84.4 41.0 84.4 Z M 33.7 65.0 C 33.7 65.0 33.7 65.0 33.7 65.0 C 32.8 65.8 30.3 63.9 30.6 63.4 C 31.5 61.9 34.6 64.2 33.7 65.0 C 33.7 65.0 33.7 65.0 33.7 65.0 Z M 68.3 59.4 C 68.3 59.4 68.3 59.4 68.3 59.4 C 67.4 60.2 64.9 58.4 65.2 57.9 C 66.1 56.3 69.2 58.7 68.3 59.4 C 68.3 59.4 68.3 59.4 68.3 59.4 Z M 624.5 61.2 C 624.5 61.2 624.5 61.2 624.5 61.2 C 625.2 61.1 625.8 61.0 626.5 60.6 C 626.2 60.5 625.9 60.3 625.6 60.2 C 625.1 60.2 624.7 60.2 624.2 60.2 C 622.2 60.2 625.0 57.7 620.9 58.5 C 618.0 59.0 617.8 58.0 615.0 57.6 C 614.3 57.7 616.0 60.8 616.1 61.3 C 616.5 63.3 614.4 65.8 613.9 65.6 C 612.9 65.8 610.3 66.3 608.3 65.3 C 605.9 65.4 607.1 61.3 607.1 61.3 C 604.1 61.6 605.1 61.0 602.8 60.5 C 601.1 60.6 601.6 63.1 599.8 63.1 C 599.2 63.6 598.6 58.7 594.6 58.7 C 592.5 58.7 591.5 58.9 589.7 57.6 C 589.3 57.3 585.5 57.1 587.0 58.3 C 586.2 58.2 584.9 58.0 584.4 58.7 C 582.8 61.7 587.4 60.5 587.7 61.3 C 587.8 61.6 585.1 62.1 585.5 63.3 C 585.9 64.8 575.7 63.9 579.3 65.6 C 583.2 67.4 582.0 72.1 581.2 72.7 C 580.6 72.7 580.4 70.2 579.1 71.6 C 577.8 73.0 581.2 74.6 581.2 75.6 C 581.2 81.6 581.3 77.8 584.6 79.8 C 586.2 80.8 583.7 82.3 583.0 83.2 C 583.2 83.5 586.1 83.4 586.3 83.7 C 587.8 83.9 587.4 83.2 588.7 84.8 C 589.5 85.6 591.8 84.6 592.1 84.6 C 592.8 84.2 590.9 84.3 590.7 83.5 C 589.9 79.8 593.5 84.2 595.9 84.1 C 598.3 84.0 599.2 83.8 599.7 83.9 C 600.0 83.9 599.9 81.3 600.5 81.5 C 601.4 81.1 602.1 82.3 602.9 83.1 C 603.6 83.9 605.7 82.0 606.8 82.1 C 607.9 82.3 607.7 83.6 610.3 84.4 C 612.8 85.2 612.7 81.4 612.4 80.4 C 611.1 76.9 614.5 83.9 616.2 83.7 C 618.0 83.5 618.0 82.0 619.1 82.1 C 619.7 82.3 620.3 82.7 620.8 83.2 C 621.3 82.4 622.2 82.9 624.1 82.8 C 624.3 82.8 624.5 82.8 624.7 82.8 C 624.9 82.5 622.0 80.9 622.3 80.4 C 623.2 79.1 624.8 81.0 625.4 81.8 C 626.4 80.6 627.9 80.1 629.5 80.7 C 632.7 81.9 632.7 78.6 630.5 76.0 C 629.5 74.8 627.1 73.2 628.9 71.6 C 630.6 70.0 633.9 71.7 632.0 69.2 C 631.8 69.2 632.3 67.9 629.3 68.8 C 626.2 69.8 624.5 68.3 624.5 68.2 C 622.8 68.1 622.5 69.4 621.5 68.4 C 620.5 67.5 623.0 67.4 624.7 67.5 C 625.0 67.0 624.1 66.0 625.7 66.0 C 627.3 65.9 627.3 67.3 628.0 66.4 C 628.8 65.5 627.9 65.9 627.7 65.6 C 628.9 65.4 630.1 65.4 631.3 65.5 C 633.7 65.9 629.9 62.9 628.9 62.7 C 627.0 62.3 625.1 64.5 624.5 61.2 C 624.5 61.2 624.5 61.2 624.5 61.2 Z M 626.2 70.9 C 626.2 70.9 626.2 70.9 626.2 70.9 C 625.5 71.2 623.3 70.7 624.3 70.0 C 625.2 69.4 626.8 70.5 626.2 70.9 C 626.2 70.9 626.2 70.9 626.2 70.9 Z M 609.6 85.9 C 609.6 85.9 609.6 85.9 609.6 85.9 C 609.0 86.2 606.7 85.7 607.7 85.0 C 608.7 84.4 610.3 85.5 609.6 85.9 C 609.6 85.9 609.6 85.9 609.6 85.9 Z M 610.2 59.5 C 610.2 59.5 610.2 59.5 610.2 59.5 C 609.5 60.8 607.5 58.6 608.3 58.0 C 609.2 58.2 610.0 59.0 610.2 59.5 C 610.2 59.5 610.2 59.5 610.2 59.5 Z M 617.3 80.4 C 617.3 80.4 617.3 80.4 617.3 80.4 C 617.0 80.4 616.7 80.4 616.4 80.4 C 616.8 79.7 618.3 79.2 618.9 79.1 C 619.1 80.3 618.0 80.4 617.3 80.4 C 617.3 80.4 617.3 80.4 617.3 80.4 Z M 602.5 59.5 C 602.5 59.5 602.5 59.5 602.5 59.5 C 601.6 60.5 600.5 60.0 599.5 59.9 C 599.2 56.0 603.5 58.5 602.5 59.5 C 602.5 59.5 602.5 59.5 602.5 59.5 Z M 588.8 66.0 C 588.8 66.0 588.8 66.0 588.8 66.0 C 590.4 67.2 586.3 69.2 585.6 68.1 C 584.9 66.9 586.4 66.5 587.4 66.4 C 587.6 66.1 587.2 64.8 588.8 66.0 C 588.8 66.0 588.8 66.0 588.8 66.0 Z M 598.3 81.1 C 598.3 81.1 598.3 81.1 598.3 81.1 C 598.6 80.9 598.9 80.3 599.2 80.7 C 599.4 81.0 598.8 81.6 598.3 81.1 C 598.3 81.1 598.3 81.1 598.3 81.1 Z M 628.1 82.1 C 628.1 82.1 628.1 82.1 628.1 82.1 C 628.3 81.9 628.6 81.3 628.9 81.7 C 629.1 82.0 628.5 82.6 628.1 82.1 C 628.1 82.1 628.1 82.1 628.1 82.1 Z M 589.8 80.4 C 589.8 80.4 589.8 80.4 589.8 80.4 C 589.4 79.3 590.6 79.9 591.1 79.6 C 591.4 80.5 590.3 81.5 589.8 80.4 C 589.8 80.4 589.8 80.4 589.8 80.4 Z M 609.0 62.3 C 609.0 62.3 609.0 62.3 609.0 62.3 C 610.3 60.6 614.0 60.4 614.0 63.6 C 612.9 63.8 611.9 64.3 610.8 64.0 C 610.1 63.9 609.5 62.8 609.0 62.3 C 609.0 62.3 609.0 62.3 609.0 62.3 Z M 620.2 61.7 C 620.2 61.7 620.2 61.7 620.2 61.7 C 620.8 61.1 622.4 61.2 621.5 62.7 C 621.0 63.2 620.5 63.6 619.8 63.7 C 619.2 64.0 617.9 64.9 617.5 64.3 C 617.1 63.7 618.5 61.4 620.2 61.7 C 620.2 61.7 620.2 61.7 620.2 61.7 Z M 602.4 62.9 C 602.4 62.9 602.4 62.9 602.4 62.9 C 602.7 61.9 605.5 61.8 605.5 62.4 C 605.5 62.9 602.1 63.9 602.4 62.9 C 602.4 62.9 602.4 62.9 602.4 62.9 Z M 613.3 59.9 C 613.3 59.9 613.3 59.9 613.3 59.9 C 613.7 59.9 614.0 60.1 613.8 60.3 C 613.5 60.5 613.1 60.5 612.9 60.3 C 612.8 60.1 612.9 59.8 613.3 59.9 C 613.3 59.9 613.3 59.9 613.3 59.9 Z M 594.0 57.2 C 594.0 57.2 594.0 57.2 594.0 57.2 C 594.4 57.3 594.7 57.4 594.5 57.6 C 594.2 57.8 593.8 57.8 593.6 57.6 C 593.5 57.5 593.6 57.1 594.0 57.2 C 594.0 57.2 594.0 57.2 594.0 57.2 Z M 625.4 58.9 C 625.4 58.9 625.4 58.9 625.4 58.9 C 625.8 59.0 626.2 59.1 625.9 59.3 C 625.7 59.5 625.2 59.5 625.1 59.3 C 624.9 59.2 625.0 58.8 625.4 58.9 C 625.4 58.9 625.4 58.9 625.4 58.9 Z M 595.7 60.8 C 595.7 60.8 595.7 60.8 595.7 60.8 C 596.4 61.4 596.4 62.4 594.9 62.5 C 603.2 65.8 591.4 66.6 590.3 64.1 C 588.7 60.4 595.1 59.4 595.7 60.8 C 595.7 60.8 595.7 60.8 595.7 60.8 Z M 84.7 64.2 C 82.6 62.3 78.4 64.0 76.1 63.0 C 73.6 62.1 71.8 59.4 70.8 62.9 C 70.1 65.3 64.0 65.3 64.6 67.6 C 65.0 69.3 65.9 70.6 65.8 72.5 C 65.7 75.8 63.1 76.6 66.2 79.0 C 68.7 80.9 68.4 76.7 70.4 81.0 C 71.8 84.0 75.0 84.2 76.4 81.2 C 77.6 78.3 79.7 76.7 81.3 80.7 C 82.1 82.7 82.2 83.3 83.9 84.0 C 84.5 84.3 88.8 82.4 88.8 82.4 C 88.5 81.7 85.8 79.5 88.1 79.2 C 89.6 79.0 91.7 81.0 91.1 82.8 C 90.1 85.9 99.2 83.4 98.4 82.6 C 98.7 82.8 100.7 86.2 101.5 83.7 C 101.5 83.7 105.4 83.2 106.0 83.2 C 114.0 82.3 100.9 77.2 109.5 77.1 C 115.2 77.0 111.5 81.5 111.8 82.4 C 112.5 84.3 117.1 84.1 118.8 84.3 C 120.2 84.4 121.5 82.3 122.4 81.3 C 123.7 79.9 126.8 80.5 127.9 81.9 C 128.4 82.5 129.3 84.3 130.1 84.5 C 130.1 84.5 132.9 84.7 132.4 84.1 C 132.1 83.9 129.8 82.6 130.8 81.8 C 131.5 81.2 134.0 84.2 134.9 84.4 C 136.7 84.9 136.6 79.7 139.8 82.1 C 142.1 83.8 140.7 83.6 142.2 81.2 C 143.1 79.9 146.5 82.9 146.7 83.9 C 145.6 78.8 149.1 83.3 149.3 82.5 C 149.2 83.1 147.4 83.4 147.6 84.0 C 147.7 84.3 161.1 85.2 161.6 83.5 C 162.1 81.8 160.1 80.2 163.8 80.8 C 164.9 80.9 166.8 82.1 166.6 82.6 C 164.7 83.4 165.3 82.8 163.1 84.0 C 163.1 84.1 167.5 84.6 168.1 84.6 C 170.5 84.7 171.3 83.5 173.4 82.3 C 174.8 81.5 176.0 83.9 177.7 84.0 C 179.6 84.1 181.3 84.2 183.3 83.8 C 185.1 83.3 185.7 83.5 185.8 81.7 C 185.8 80.0 189.5 79.9 190.4 79.0 C 191.3 78.1 191.5 78.2 192.8 79.1 C 195.1 80.7 193.5 80.9 193.7 81.8 C 194.6 85.0 200.6 84.6 202.5 84.1 C 204.7 83.5 201.2 82.0 201.6 81.6 C 202.7 80.9 204.2 81.8 205.3 81.8 C 207.0 81.8 205.4 82.9 205.9 83.4 C 208.8 86.2 209.9 80.4 211.8 80.8 C 214.5 81.5 215.3 85.6 218.5 83.6 C 221.9 81.5 224.6 85.5 228.0 83.8 C 230.8 82.5 235.1 87.1 236.6 82.9 C 237.4 81.0 240.2 78.8 240.2 76.7 C 240.2 76.1 238.4 70.1 237.7 71.1 C 238.1 70.4 240.1 70.6 240.3 69.7 C 240.4 68.9 237.5 67.9 237.1 67.4 C 236.9 67.1 240.5 65.6 240.7 65.0 C 240.9 64.2 234.7 62.7 234.6 59.9 C 234.6 58.7 232.1 57.8 232.2 59.2 C 232.2 59.9 233.2 63.5 234.0 63.4 C 233.6 63.4 230.4 62.5 230.4 62.5 C 230.8 63.0 231.0 63.6 231.1 64.4 C 230.9 64.7 223.9 64.7 223.6 64.3 C 222.9 63.2 223.8 60.0 222.9 59.3 C 222.3 58.8 220.7 60.8 219.8 60.7 C 218.3 60.6 219.9 58.9 218.4 58.5 C 218.0 58.3 210.1 59.6 210.0 60.2 C 209.9 60.4 212.0 63.4 212.1 64.4 C 212.3 66.4 210.0 65.5 209.1 65.4 C 207.6 65.3 202.0 63.5 202.0 60.9 C 202.0 60.1 205.9 59.8 206.5 59.4 C 205.8 59.9 200.7 55.3 199.2 58.5 C 199.0 59.0 201.0 59.2 201.1 59.4 C 201.3 59.8 199.9 62.8 198.9 62.6 C 198.3 62.4 196.8 60.2 196.1 60.9 C 196.4 60.6 194.0 63.6 193.8 62.4 C 193.9 63.1 195.9 65.2 195.4 65.9 C 195.4 65.9 191.3 65.5 191.0 65.4 C 188.1 64.6 189.1 65.6 187.5 66.8 C 186.0 68.0 182.5 69.1 183.1 65.8 C 183.8 62.0 180.5 60.9 180.5 63.8 C 180.5 66.8 180.0 66.1 177.5 65.4 C 174.9 64.7 172.3 65.9 170.2 63.6 C 167.6 60.8 171.7 60.2 170.9 59.1 C 170.0 57.9 167.8 58.1 166.6 58.3 C 164.7 58.8 166.3 60.7 165.6 61.0 C 164.2 61.6 162.6 58.6 161.2 59.1 C 161.0 59.1 158.8 61.0 159.3 61.0 C 153.1 60.6 159.5 62.2 160.2 64.9 C 160.5 65.8 156.8 64.0 157.7 67.3 C 158.6 70.7 153.3 70.6 153.0 69.0 C 153.4 68.6 153.7 68.3 154.1 67.9 C 153.5 66.1 148.1 66.7 147.9 65.2 C 147.8 64.5 155.2 62.2 154.0 60.4 C 153.3 59.3 151.7 61.1 151.3 61.6 C 150.6 62.5 150.4 60.3 150.1 60.0 C 150.3 60.2 147.1 60.3 146.7 61.6 C 146.5 61.9 149.1 62.9 148.2 63.3 C 144.8 64.7 146.7 62.0 145.1 60.3 C 144.1 59.2 138.5 58.1 138.6 58.3 C 138.8 58.6 140.6 59.0 140.3 59.7 C 139.8 60.8 137.9 60.0 137.5 60.9 C 137.3 61.2 139.0 61.7 138.9 62.0 C 138.1 63.0 134.3 62.6 134.2 63.6 C 134.1 64.5 138.0 63.9 138.0 65.1 C 138.0 66.0 136.0 67.5 135.7 65.9 C 135.3 63.9 131.7 66.3 130.5 65.2 C 129.2 64.1 132.7 62.5 129.8 62.1 C 126.4 61.5 128.8 63.2 128.1 64.2 C 126.1 67.1 122.1 57.9 120.9 60.2 C 120.5 61.0 123.9 64.6 120.7 63.8 C 119.3 63.4 112.8 66.8 112.8 63.9 C 112.8 63.2 116.7 62.9 116.4 62.3 C 115.7 61.0 113.2 61.3 112.1 61.0 C 110.4 60.7 111.3 59.2 110.2 58.2 C 108.8 57.1 107.8 60.3 106.6 60.1 C 105.4 59.9 106.5 64.7 106.7 65.3 C 106.2 63.4 102.7 65.9 101.7 64.1 C 99.5 60.1 99.1 61.6 96.3 60.3 C 96.9 60.4 97.3 60.6 97.5 61.2 C 97.3 61.5 95.2 61.7 95.0 61.6 C 95.8 61.9 96.4 62.4 96.9 63.2 C 96.9 63.3 87.8 68.3 86.8 64.1 C 86.7 63.5 86.1 56.5 84.5 58.7 C 83.9 59.4 84.8 64.3 84.7 64.2 M 118.4 61.4 C 119.0 61.3 119.4 61.6 119.6 62.2 C 119.0 62.7 118.3 62.8 117.6 62.4 C 117.4 61.7 117.7 61.4 118.4 61.4 M 118.1 59.1 C 118.7 59.1 119.1 59.3 119.2 59.9 C 115.6 61.4 115.3 56.4 118.5 58.2 C 118.6 58.2 117.6 59.0 118.1 59.1 M 148.0 58.8 C 148.1 59.3 145.3 60.3 145.8 59.0 C 146.1 58.4 147.7 58.3 148.0 58.8 M 153.7 64.2 C 154.7 65.4 152.4 65.5 152.0 64.9 C 151.5 64.0 153.5 63.9 153.7 64.2 M 219.9 62.4 C 220.4 65.1 214.5 69.2 214.0 65.3 C 213.5 60.8 219.2 58.8 219.9 62.4 M 176.1 59.9 C 175.9 60.9 173.2 60.0 173.4 58.8 C 173.7 56.9 176.4 58.7 176.1 59.9 M 173.7 63.1 C 173.5 64.2 171.8 63.5 171.7 62.8 C 171.7 62.1 174.0 61.9 173.7 63.1 M 207.3 62.5 C 207.6 61.7 209.6 62.8 209.1 63.2 C 208.6 63.5 207.0 63.3 207.3 62.5 C 207.3 62.5 207.3 62.5 207.3 62.5 Z M 226.9 62.9 C 226.4 62.6 226.8 61.8 227.2 62.2 C 227.6 62.5 227.3 63.1 226.9 62.9 C 226.9 62.9 226.9 62.9 226.9 62.9 Z M 188.3 63.8 C 186.2 63.6 188.3 61.0 190.5 62.3 C 192.4 63.4 190.8 64.0 188.3 63.8 C 188.3 63.8 188.3 63.8 188.3 63.8 Z M 217.5 82.3 C 218.0 82.6 217.1 83.3 216.5 83.0 C 215.4 82.3 217.1 82.1 217.5 82.3 C 217.5 82.3 217.5 82.3 217.5 82.3 Z M 112.7 67.3 C 113.6 67.9 112.3 68.3 111.9 67.8 C 111.4 67.3 111.8 66.6 112.7 67.3 C 112.7 67.3 112.7 67.3 112.7 67.3 Z M 90.4 62.4 C 91.3 63.1 89.2 63.1 88.8 62.6 C 88.4 62.1 89.5 61.8 90.4 62.4 C 90.4 62.4 90.4 62.4 90.4 62.4 Z M 72.4 77.1 C 73.3 77.8 71.9 78.1 71.6 77.7 C 71.1 77.1 71.5 76.4 72.4 77.1 C 72.4 77.1 72.4 77.1 72.4 77.1 Z M 105.2 74.1 C 106.2 74.7 104.8 75.1 104.4 74.6 C 104.0 74.1 104.3 73.4 105.2 74.1 C 105.2 74.1 105.2 74.1 105.2 74.1 Z M 108.4 64.5 C 107.6 63.4 108.3 59.9 110.4 62.7 C 112.5 65.5 109.3 65.7 108.4 64.5 C 108.4 64.5 108.4 64.5 108.4 64.5 Z M 180.8 81.6 C 180.8 81.6 182.0 80.2 182.4 80.6 C 184.2 82.4 180.8 81.6 180.8 81.6 C 180.8 81.6 180.8 81.6 180.8 81.6 Z M 154.6 67.0 C 154.6 67.0 155.7 66.4 155.9 66.5 C 157.5 67.6 154.6 67.0 154.6 67.0 C 154.6 67.0 154.6 67.0 154.6 67.0 Z M 142.3 57.5 C 142.3 57.5 143.4 56.8 143.6 56.9 C 145.3 58.0 142.3 57.5 142.3 57.5 C 142.3 57.5 142.3 57.5 142.3 57.5 Z M 90.8 60.5 C 88.3 60.0 90.4 58.6 92.2 59.2 C 93.8 59.6 93.2 60.9 90.8 60.5 C 90.8 60.5 90.8 60.5 90.8 60.5 Z M 98.7 65.9 C 96.5 63.8 98.8 62.9 100.4 64.7 C 101.7 66.3 100.9 67.9 98.7 65.9 C 98.7 65.9 98.7 65.9 98.7 65.9 Z M 89.3 67.7 C 89.8 67.6 90.0 67.8 89.8 68.4 C 89.3 69.2 87.3 68.8 86.8 68.1 C 86.0 66.7 89.3 67.7 89.3 67.7 M 94.7 77.9 C 98.7 74.6 95.0 82.7 94.5 81.9 C 93.8 80.9 93.8 78.6 94.7 77.9 C 94.7 77.9 94.7 77.9 94.7 77.9 Z M 129.1 80.5 C 129.9 79.7 131.2 80.7 130.3 81.4 C 129.8 81.9 128.3 81.4 129.1 80.5 C 129.1 80.5 129.1 80.5 129.1 80.5 Z M 125.5 61.2 C 125.9 60.7 128.0 61.0 127.2 61.7 C 126.7 62.1 124.6 62.0 125.5 61.2 C 125.5 61.2 125.5 61.2 125.5 61.2 Z M 73.7 59.7 C 74.2 59.3 76.3 59.5 75.5 60.2 C 74.9 60.7 72.9 60.5 73.7 59.7 C 73.7 59.7 73.7 59.7 73.7 59.7 Z M 149.0 74.1 C 150.7 72.8 152.1 74.5 150.7 75.1 C 149.4 75.7 147.3 75.3 149.0 74.1 C 149.0 74.1 149.0 74.1 149.0 74.1 Z M 184.9 66.4 C 185.7 65.7 186.4 66.8 185.8 66.9 C 185.0 67.1 184.5 66.7 184.9 66.4 C 184.9 66.4 184.9 66.4 184.9 66.4 Z M 191.5 63.7 C 192.1 63.3 192.8 63.9 192.1 64.0 C 191.4 64.2 191.1 63.9 191.5 63.7 C 191.5 63.7 191.5 63.7 191.5 63.7 Z M 219.3 70.5 C 220.5 69.7 222.3 71.0 220.7 71.3 C 218.9 71.6 218.3 71.1 219.3 70.5 C 219.3 70.5 219.3 70.5 219.3 70.5 Z M 197.6 60.5 C 198.1 60.1 198.9 60.7 198.2 60.9 C 197.4 61.0 197.2 60.8 197.6 60.5 C 197.6 60.5 197.6 60.5 197.6 60.5 Z M 216.8 62.2 C 217.9 61.3 219.0 62.8 218.0 62.9 C 217.0 63.1 216.3 62.7 216.8 62.2 C 216.8 62.2 216.8 62.2 216.8 62.2 Z M 214.1 56.5 C 215.2 55.5 216.3 57.0 215.4 57.2 C 214.3 57.4 213.6 56.9 214.1 56.5 C 214.1 56.5 214.1 56.5 214.1 56.5 Z M 171.4 85.4 C 172.5 84.5 173.5 86.0 172.6 86.1 C 171.6 86.3 170.8 85.9 171.4 85.4 C 171.4 85.4 171.4 85.4 171.4 85.4 Z M 101.3 58.3 C 103.3 58.1 104.0 59.1 102.8 60.0 C 101.7 61.0 99.3 58.4 101.3 58.3 C 101.3 58.3 101.3 58.3 101.3 58.3 Z M 215.3 64.8 C 215.9 64.2 216.3 65.0 215.9 65.3 C 215.4 65.5 214.7 65.4 215.3 64.8 C 215.3 64.8 215.3 64.8 215.3 64.8 Z M 168.3 70.0 C 168.7 70.6 168.7 71.1 168.3 71.5 C 167.1 71.4 165.7 69.4 166.1 67.9 C 166.4 66.5 170.4 68.5 169.5 69.8 C 169.3 70.1 168.0 69.2 168.3 70.0 M 174.6 79.4 C 175.4 80.0 174.5 80.7 173.8 80.0 C 173.0 79.1 173.8 78.8 174.6 79.4 C 174.6 79.4 174.6 79.4 174.6 79.4 Z M 153.3 82.9 C 154.2 83.5 153.2 84.2 152.5 83.5 C 151.7 82.6 152.5 82.3 153.3 82.9 C 153.3 82.9 153.3 82.9 153.3 82.9 Z M 194.2 59.4 C 195.3 59.5 194.2 58.7 194.5 58.4 C 195.2 58.4 195.7 58.7 196.2 59.3 C 196.7 60.8 193.6 59.8 193.4 59.5 C 193.7 59.5 193.9 59.4 194.2 59.4 M 219.5 80.4 C 220.6 80.5 219.5 79.7 219.8 79.4 C 220.5 79.4 221.0 79.7 221.5 80.3 C 222.0 81.8 218.9 80.8 218.7 80.5 C 219.0 80.5 219.2 80.4 219.5 80.4 M 66.9 61.8 C 67.1 62.3 64.3 63.3 64.8 62.0 C 65.0 61.4 66.7 61.3 66.9 61.8 M 148.6 85.9 C 148.8 86.3 146.0 87.3 146.5 86.0 C 146.7 85.5 148.4 85.3 148.6 85.9 M 158.5 78.7 C 159.6 78.8 158.5 78.0 158.8 77.7 C 159.5 77.7 160.1 78.0 160.5 78.6 C 161.1 80.1 157.9 79.1 157.7 78.8 C 158.0 78.8 158.3 78.7 158.5 78.7 M 204.9 80.2 C 204.8 79.6 206.3 79.6 205.8 80.3 C 205.5 80.7 205.0 80.7 204.9 80.2 C 204.9 80.2 204.9 80.2 204.9 80.2 Z M 134.5 61.8 C 134.4 61.2 136.2 61.7 135.4 62.1 C 134.9 62.3 134.6 62.4 134.5 61.8 C 134.5 61.8 134.5 61.8 134.5 61.8 Z M 160.5 68.5 C 159.6 69.3 159.6 67.8 160.0 67.2 C 160.9 65.6 162.4 69.1 161.9 69.2 C 161.6 69.2 160.7 68.3 160.5 68.5 M 127.0 69.4 C 125.3 70.7 125.8 64.5 128.5 68.1 C 131.1 71.6 127.3 69.1 127.0 69.4 M 230.5 81.7 C 231.2 81.1 227.6 80.3 228.0 79.7 C 228.9 78.3 231.9 81.1 231.9 82.4 C 231.9 82.8 229.4 82.8 230.5 81.7 M 202.0 65.5 C 202.6 64.8 199.0 64.1 199.4 63.5 C 200.4 62.1 203.3 64.9 203.3 66.2 C 203.3 66.5 200.8 66.6 202.0 65.5 M 139.8 64.6 C 138.9 64.5 140.9 62.4 141.8 63.8 C 143.2 66.2 140.4 64.6 139.8 64.6 M 80.4 61.3 C 79.9 61.5 79.5 61.3 79.1 60.7 C 78.7 59.9 81.6 59.7 81.4 60.0 C 81.0 60.5 80.7 60.9 80.4 61.3 M 190.8 80.4 C 191.2 79.3 192.4 80.8 191.7 81.1 C 190.8 81.5 190.3 81.5 190.8 80.4 C 190.8 80.4 190.8 80.4 190.8 80.4 Z M 98.3 86.0 C 98.8 84.9 100.0 86.5 99.2 86.8 C 98.3 87.1 97.9 87.1 98.3 86.0 C 98.3 86.0 98.3 86.0 98.3 86.0 Z M 237.9 60.5 C 238.4 59.6 239.5 60.8 238.8 61.0 C 237.9 61.3 237.5 61.3 237.9 60.5 C 237.9 60.5 237.9 60.5 237.9 60.5 Z M 198.5 68.4 C 198.8 68.2 200.7 68.9 199.1 69.7 C 198.2 70.2 198.1 68.7 198.5 68.4 C 198.5 68.4 198.5 68.4 198.5 68.4 Z M 226.9 59.5 C 227.4 59.2 230.0 60.0 227.8 60.9 C 226.6 61.4 226.4 59.9 226.9 59.5 C 226.9 59.5 226.9 59.5 226.9 59.5 Z M 180.5 73.5 C 181.0 73.0 181.5 73.6 180.8 74.0 C 180.3 74.3 180.0 74.0 180.5 73.5 C 180.5 73.5 180.5 73.5 180.5 73.5 Z M 176.9 57.0 C 177.3 56.5 177.9 57.1 177.2 57.5 C 176.6 57.7 176.4 57.5 176.9 57.0 C 176.9 57.0 176.9 57.0 176.9 57.0 Z M 157.2 64.0 C 157.6 63.5 158.2 64.1 157.5 64.5 C 156.9 64.8 156.7 64.5 157.2 64.0 C 157.2 64.0 157.2 64.0 157.2 64.0 Z M 185.8 58.3 C 188.6 57.4 190.5 58.3 187.1 60.3 C 185.0 61.5 185.1 58.5 185.8 58.3 C 185.8 58.3 185.8 58.3 185.8 58.3 Z M 165.5 74.8 C 166.1 74.3 166.5 75.0 165.8 75.3 C 165.4 75.4 164.9 75.2 165.5 74.8 C 165.5 74.8 165.5 74.8 165.5 74.8 Z M 163.9 63.1 C 162.0 61.8 169.8 60.7 168.7 64.1 C 167.1 68.5 164.7 63.7 163.9 63.1 M 131.1 59.2 C 130.4 58.5 132.8 58.2 132.7 59.5 C 132.6 61.9 131.3 59.4 131.1 59.2 M 118.0 80.9 C 118.0 80.9 118.6 82.1 117.9 81.8 C 116.8 81.3 118.0 80.9 118.0 80.9 C 118.0 80.9 118.0 80.9 118.0 80.9 Z M 121.5 79.2 C 122.0 78.4 123.9 79.4 122.7 79.7 C 122.0 80.0 121.0 80.0 121.5 79.2 C 121.5 79.2 121.5 79.2 121.5 79.2 Z M 123.1 58.2 C 123.3 57.9 124.2 58.3 123.6 58.5 C 123.3 58.6 122.9 58.6 123.1 58.2 C 123.1 58.2 123.1 58.2 123.1 58.2 Z M 122.0 85.4 C 122.4 84.8 124.3 85.6 123.1 85.8 C 122.4 86.0 121.5 86.0 122.0 85.4 C 122.0 85.4 122.0 85.4 122.0 85.4 Z M 172.4 57.4 C 172.6 57.1 173.4 57.5 172.9 57.7 C 172.6 57.7 172.2 57.7 172.4 57.4 C 172.4 57.4 172.4 57.4 172.4 57.4 Z M 232.6 57.2 C 232.8 56.9 233.7 57.3 233.1 57.5 C 232.8 57.5 232.4 57.5 232.6 57.2 C 232.6 57.2 232.6 57.2 232.6 57.2 Z M 82.1 78.6 C 82.6 77.7 84.4 78.9 83.2 79.3 C 82.6 79.5 81.7 79.5 82.1 78.6 C 82.1 78.6 82.1 78.6 82.1 78.6 Z M 178.6 63.9 C 179.1 63.0 180.6 64.2 179.2 64.7 C 178.5 64.9 178.1 64.9 178.6 63.9 C 178.6 63.9 178.6 63.9 178.6 63.9 Z M 109.5 79.9 C 110.0 79.0 111.5 80.2 110.1 80.6 C 109.3 80.8 109.0 80.9 109.5 79.9 C 109.5 79.9 109.5 79.9 109.5 79.9 Z M 174.7 62.6 C 175.0 62.0 175.9 62.5 175.2 62.8 C 174.8 62.9 174.5 63.1 174.7 62.6 C 174.7 62.6 174.7 62.6 174.7 62.6 Z M 189.0 81.8 C 189.2 81.2 190.2 81.7 189.4 82.0 C 189.0 82.1 188.7 82.3 189.0 81.8 C 189.0 81.8 189.0 81.8 189.0 81.8 Z M 201.9 85.5 C 202.1 84.9 203.1 85.4 202.3 85.7 C 201.9 85.8 201.6 86.0 201.9 85.5 C 201.9 85.5 201.9 85.5 201.9 85.5 Z M 188.0 70.2 C 188.3 69.8 189.5 70.4 188.7 70.6 C 188.3 70.7 187.7 70.7 188.0 70.2 C 188.0 70.2 188.0 70.2 188.0 70.2 Z M 105.3 72.8 C 104.0 72.9 102.2 71.2 102.0 69.5 C 102.2 70.8 106.3 69.6 106.8 69.8 C 107.2 70.0 106.5 72.6 105.3 72.8 M 192.0 71.6 C 184.3 72.5 188.4 66.7 193.5 68.6 C 193.9 68.8 193.3 71.5 192.0 71.6 C 193.9 68.8 193.3 71.5 192.0 71.6 C 193.9 68.8 193.3 71.5 192.0 71.6 C 193.9 68.8 193.3 71.5 192.0 71.6 M 243.8 57.8 C 239.3 58.4 242.4 58.7 240.3 61.5 C 239.9 62.0 236.4 64.2 236.8 65.0 C 237.4 66.2 239.8 64.8 240.4 65.8 C 241.8 68.1 237.7 68.5 237.3 69.5 C 236.1 72.0 238.4 74.5 240.0 75.9 C 242.1 77.9 241.5 74.5 242.9 73.9 C 243.9 73.5 243.5 76.6 243.3 77.2 C 242.8 80.0 240.2 78.1 241.0 82.1 C 241.5 84.6 241.7 85.7 244.2 84.7 C 246.0 84.0 245.8 81.2 246.5 79.3 C 246.9 78.4 253.1 79.0 251.6 81.2 C 250.6 82.7 249.9 84.1 252.3 84.0 C 253.1 83.7 253.7 83.2 254.4 82.5 C 255.4 81.6 256.3 83.2 257.6 82.4 C 260.4 80.8 264.4 86.1 268.1 84.3 C 268.6 84.1 271.9 78.8 273.4 83.4 C 274.4 83.7 274.5 81.0 275.1 81.0 C 277.2 81.1 276.7 83.0 277.3 83.5 C 278.8 83.8 284.3 79.9 284.4 82.4 C 284.6 86.3 290.2 84.4 290.5 83.6 C 290.6 83.2 295.6 84.2 298.2 83.7 C 297.9 83.4 297.6 83.2 297.2 83.0 C 297.6 83.0 298.3 82.5 298.6 82.5 C 297.6 82.5 294.2 81.1 293.5 80.3 C 293.2 79.9 300.1 77.7 299.7 80.5 C 299.5 81.9 299.3 82.9 301.0 82.3 C 303.5 81.5 301.3 83.3 302.9 83.9 C 305.7 84.8 306.0 80.8 308.3 83.1 C 309.8 84.7 309.9 83.3 311.5 82.8 C 314.4 82.0 314.6 85.0 317.1 84.7 C 317.4 84.6 322.7 84.4 321.4 83.0 C 320.4 82.0 317.9 81.7 317.2 80.3 C 315.7 77.4 322.8 80.9 322.1 80.7 C 323.6 81.0 327.3 77.5 328.2 78.4 C 329.0 79.1 324.9 82.0 324.5 82.4 C 322.8 84.0 329.8 83.5 329.6 83.5 C 330.6 83.8 332.0 82.3 332.8 82.8 C 334.0 83.7 334.0 84.1 335.5 83.9 C 336.6 83.8 337.3 83.9 338.3 83.9 C 339.7 83.9 340.1 81.2 341.2 80.3 C 343.1 78.9 343.0 81.7 344.0 82.2 C 346.4 83.3 351.6 80.1 352.5 82.4 C 353.4 85.1 356.7 78.6 359.0 81.4 C 359.8 82.4 362.1 83.1 362.6 82.4 C 361.6 84.0 366.2 83.9 367.1 84.0 C 368.3 84.3 369.1 82.9 370.1 82.4 C 371.4 81.7 372.5 83.5 373.5 84.1 C 376.0 85.6 374.5 80.6 376.5 82.3 C 379.8 85.1 377.9 77.9 378.9 77.6 C 379.3 77.4 381.3 82.1 381.7 82.7 C 382.6 83.6 382.4 80.9 383.1 81.8 C 384.0 82.9 385.4 84.7 386.7 82.9 C 387.3 82.2 386.2 79.2 387.3 79.5 C 387.5 79.6 389.2 80.9 389.3 80.4 C 389.7 75.2 392.7 85.3 389.7 83.3 C 391.0 84.2 398.9 84.9 399.0 82.6 C 399.0 81.5 395.5 81.2 396.1 80.0 C 397.2 77.6 403.3 81.3 401.3 82.4 C 402.7 81.6 405.9 85.1 408.0 83.6 C 408.3 83.3 410.0 84.0 410.0 83.5 C 410.1 82.7 409.8 80.7 410.4 80.1 C 411.5 78.8 414.5 77.4 413.8 75.1 C 413.6 74.5 410.4 66.0 410.1 66.6 C 410.5 65.7 412.6 65.9 412.7 64.7 C 412.8 62.7 406.8 65.1 407.5 62.3 C 407.5 62.3 405.5 61.8 405.4 61.1 C 405.0 58.9 405.9 59.6 403.7 59.3 C 401.9 59.0 403.3 59.7 402.5 61.0 C 402.1 61.7 400.5 57.6 397.9 59.8 C 400.1 60.3 399.2 61.4 400.4 63.0 C 402.1 65.3 398.5 65.4 397.6 65.6 C 393.7 66.3 392.1 64.9 389.0 62.9 C 387.2 61.8 391.9 55.5 388.3 59.5 C 386.7 61.2 380.0 59.7 377.8 60.7 C 377.9 60.6 379.6 62.0 379.6 62.3 C 379.9 66.6 372.0 62.9 370.8 61.9 C 369.1 60.4 369.4 61.9 370.3 63.5 C 371.5 65.7 369.3 65.9 368.0 65.8 C 367.3 65.8 365.1 65.2 364.5 65.8 C 363.7 66.7 361.1 60.7 360.3 60.2 C 358.5 59.1 358.1 61.7 356.0 60.6 C 355.7 60.5 351.1 57.4 351.1 58.6 C 351.1 61.2 359.3 62.5 352.4 63.7 C 352.0 63.8 344.0 64.4 344.9 62.9 C 345.3 62.2 346.4 62.6 347.0 62.3 C 344.5 63.5 343.4 57.0 339.7 58.7 C 337.8 59.5 329.2 57.9 332.2 61.3 C 334.8 64.3 331.2 65.9 328.8 64.1 C 326.7 62.4 326.0 61.9 323.9 63.5 C 323.6 63.8 318.5 64.8 319.0 63.1 C 319.3 62.0 321.2 62.6 321.4 60.8 C 321.5 59.7 320.4 58.8 319.5 59.3 C 318.6 59.8 318.4 61.3 317.8 62.1 C 317.6 62.3 315.4 61.2 315.2 61.2 C 313.8 61.0 311.8 61.4 310.6 60.5 C 309.6 59.9 311.3 58.7 310.6 58.2 C 307.0 55.6 310.8 63.3 310.8 62.9 C 310.8 63.1 306.4 65.3 305.9 65.4 C 302.7 66.0 301.6 64.2 300.9 61.1 C 300.7 60.5 305.3 59.8 305.3 59.8 C 302.7 55.6 299.2 59.0 296.3 58.4 C 295.4 58.3 289.8 56.2 291.0 59.8 C 291.6 61.9 289.6 61.0 288.8 61.1 C 289.0 61.1 292.2 64.4 292.8 64.9 C 290.5 65.2 288.3 65.7 286.0 65.7 C 284.7 65.7 283.0 65.9 281.9 65.3 C 281.3 65.0 280.7 62.1 279.2 63.2 C 280.1 62.5 281.4 62.2 282.4 61.8 C 281.3 61.5 278.8 56.9 277.2 59.1 C 276.7 59.8 277.7 60.9 276.5 61.2 C 275.3 61.4 273.9 61.4 272.8 62.0 C 271.8 62.5 272.3 67.5 268.4 65.2 C 268.6 65.3 266.9 61.7 267.0 61.9 C 266.7 60.1 266.4 59.3 264.6 59.2 C 265.8 59.2 265.5 65.1 263.0 65.6 C 260.6 66.1 255.5 65.8 255.7 61.6 C 254.0 60.7 252.6 58.1 250.2 60.6 C 248.8 62.1 245.4 62.9 243.6 61.1 C 243.1 60.6 245.7 59.9 246.0 59.5 C 246.3 58.8 244.2 57.7 243.8 57.8 M 248.3 58.9 C 249.0 59.9 245.7 59.5 246.8 58.1 C 247.4 58.0 247.9 58.2 248.3 58.9 M 246.5 60.9 C 246.0 61.4 245.8 60.6 246.1 60.5 C 246.4 60.3 247.0 60.4 246.5 60.9 C 246.5 60.9 246.5 60.9 246.5 60.9 Z M 270.9 62.4 C 269.6 62.6 269.7 62.1 270.5 61.5 C 271.4 60.8 272.2 62.1 270.9 62.4 C 270.9 62.4 270.9 62.4 270.9 62.4 Z M 290.3 86.1 C 289.0 86.4 289.0 85.8 289.8 85.2 C 290.7 84.6 291.5 85.9 290.3 86.1 C 290.3 86.1 290.3 86.1 290.3 86.1 Z M 287.3 62.9 C 287.3 63.2 286.6 63.2 286.6 62.8 C 286.6 62.4 287.3 62.6 287.3 62.9 C 287.3 62.9 287.3 62.9 287.3 62.9 Z M 262.2 63.9 C 262.2 64.2 261.6 64.1 261.6 63.8 C 261.6 63.4 262.2 63.5 262.2 63.9 C 262.2 63.9 262.2 63.9 262.2 63.9 Z M 285.7 59.4 C 286.4 59.8 284.7 62.1 283.4 58.7 C 283.2 57.9 285.8 58.7 286.0 58.9 C 286.2 59.1 285.1 59.1 285.7 59.4 M 307.0 58.0 C 307.6 58.2 307.7 58.6 307.4 59.3 C 307.4 59.4 305.4 58.4 307.0 58.0 M 353.9 85.9 C 354.5 86.1 354.6 86.5 354.3 87.1 C 354.3 87.3 352.3 86.3 353.9 85.9 M 357.7 57.8 C 358.3 57.3 359.5 58.7 359.2 59.0 C 358.6 59.6 356.8 58.6 357.7 57.8 M 328.1 61.6 C 328.4 61.3 331.8 61.5 331.1 62.2 C 330.5 62.9 327.9 61.7 328.1 61.6 M 374.8 59.8 C 374.2 59.4 373.3 59.1 372.6 58.7 C 372.3 58.5 377.5 57.2 377.5 58.8 C 377.5 59.9 375.2 59.9 374.8 59.8 M 382.8 57.7 C 383.2 57.3 385.1 57.9 385.0 58.7 C 384.8 59.9 382.1 58.4 382.8 57.7 M 345.9 59.0 C 346.4 59.2 346.0 59.9 345.4 59.8 C 344.6 59.6 345.4 58.9 345.9 59.0 C 345.9 59.0 345.9 59.0 345.9 59.0 Z M 325.4 60.2 C 325.1 60.2 322.8 59.5 323.4 58.8 C 325.1 57.0 330.9 58.9 325.4 60.2 M 273.8 58.9 C 273.8 58.9 275.7 57.8 276.0 59.7 C 276.3 62.3 273.9 59.1 273.8 58.9 M 264.2 60.9 C 264.8 61.1 264.4 61.8 263.9 61.5 C 263.3 61.2 263.6 60.8 264.2 60.9 C 264.2 60.9 264.2 60.9 264.2 60.9 Z M 361.7 59.5 C 362.5 60.0 360.8 60.3 360.8 59.8 C 360.8 59.4 361.0 59.1 361.7 59.5 C 361.7 59.5 361.7 59.5 361.7 59.5 Z M 371.2 58.9 C 371.9 59.3 370.2 59.6 370.2 59.2 C 370.2 58.7 370.4 58.5 371.2 58.9 C 371.2 58.9 371.2 58.9 371.2 58.9 Z M 386.8 85.0 C 387.6 85.4 385.9 85.7 385.9 85.2 C 385.9 84.8 386.1 84.5 386.8 85.0 C 386.8 85.0 386.8 85.0 386.8 85.0 Z M 271.3 71.8 C 270.7 72.2 270.3 72.0 270.1 71.3 C 270.2 70.7 270.5 70.4 271.0 70.3 C 270.4 70.4 267.0 69.9 268.7 68.5 C 270.3 67.2 272.0 69.4 273.5 68.8 C 274.0 68.6 274.6 66.9 274.5 66.6 C 274.6 66.7 275.9 67.3 276.5 69.6 C 277.2 72.3 272.1 71.2 271.3 71.8 M 319.2 68.1 C 319.5 68.2 322.3 68.6 322.2 69.0 C 321.2 73.1 314.3 68.7 315.5 65.1 C 317.0 60.6 320.2 68.5 319.2 68.1 M 384.0 63.5 C 381.8 63.5 386.9 65.4 386.7 66.5 C 386.2 68.3 382.1 65.1 381.7 64.5 C 379.2 60.6 385.8 60.8 386.1 62.9 C 385.5 63.5 384.8 63.7 384.0 63.5 M 396.9 61.7 C 397.8 62.5 392.7 63.2 392.1 62.8 C 391.2 62.3 391.8 60.6 392.3 60.1 C 394.2 58.4 395.5 60.5 396.9 61.7 M 307.3 62.3 C 308.9 63.9 302.6 64.9 303.0 62.6 C 303.2 61.5 306.8 61.8 307.3 62.3 M 346.4 77.0 C 345.6 75.8 350.4 76.1 350.8 75.9 C 351.4 75.6 349.0 73.1 349.5 73.3 C 351.8 73.8 362.6 74.2 354.0 76.5 C 352.3 77.0 350.9 79.8 349.2 80.2 C 345.7 81.1 347.8 79.0 346.4 77.0 M 250.3 63.9 C 251.8 64.2 250.8 61.8 251.7 61.4 C 252.8 60.9 254.2 63.8 253.4 64.8 C 250.1 68.5 245.2 62.5 250.3 63.9 M 275.1 64.6 C 273.8 64.2 274.5 63.3 275.2 63.5 C 276.1 63.6 276.3 64.9 275.1 64.6 C 275.1 64.6 275.1 64.6 275.1 64.6 Z M 284.8 63.3 C 285.3 63.2 286.6 64.3 286.2 65.2 C 285.7 66.3 282.6 63.6 284.8 63.3 M 254.2 56.9 C 254.8 56.9 256.0 58.0 255.7 58.8 C 255.1 60.0 252.1 57.2 254.2 56.9 M 346.2 68.9 C 346.8 68.8 348.0 69.9 347.7 70.7 C 347.1 71.9 344.1 69.2 346.2 68.9 M 326.3 63.7 C 328.0 63.4 329.7 67.6 328.0 67.2 C 326.8 67.0 323.1 64.1 326.3 63.7 M 303.0 78.6 C 303.3 78.7 303.7 78.8 304.0 78.9 C 305.9 82.3 297.0 78.9 303.0 78.6 M 341.9 60.7 C 345.0 60.5 342.9 66.3 341.3 66.1 C 337.5 65.8 339.1 61.0 341.9 60.7 M 321.5 62.9 C 320.9 62.4 322.3 61.7 323.1 62.9 C 323.3 63.2 322.2 63.4 321.5 62.9 C 321.5 62.9 321.5 62.9 321.5 62.9 Z M 348.9 77.9 C 349.1 78.4 348.6 78.8 348.4 78.2 C 348.2 77.7 348.7 77.4 348.9 77.9 C 348.9 77.9 348.9 77.9 348.9 77.9 Z M 351.8 77.5 C 352.3 77.7 351.4 78.5 350.9 78.1 C 350.1 77.4 351.3 77.3 351.8 77.5 C 351.8 77.5 351.8 77.5 351.8 77.5 Z M 350.2 59.9 C 350.8 60.0 349.8 60.9 349.3 60.5 C 348.5 59.8 349.7 59.7 350.2 59.9 C 350.2 59.9 350.2 59.9 350.2 59.9 Z M 263.5 81.3 C 266.3 80.9 266.1 82.1 263.9 82.0 C 262.5 81.8 260.8 81.6 263.5 81.3 C 263.5 81.3 263.5 81.3 263.5 81.3 Z M 293.5 59.5 C 297.7 58.7 297.7 65.3 293.5 63.7 C 293.5 63.7 289.3 60.3 293.5 59.5 C 293.5 59.5 293.5 59.5 293.5 59.5 Z M 306.2 69.1 C 306.6 68.7 306.9 70.1 306.2 70.4 C 305.6 70.7 305.8 69.6 306.2 69.1 C 306.2 69.1 306.2 69.1 306.2 69.1 Z M 337.6 56.2 C 338.0 55.7 338.3 57.1 337.6 57.4 C 337.1 57.7 337.2 56.6 337.6 56.2 C 337.6 56.2 337.6 56.2 337.6 56.2 Z M 266.9 82.2 C 267.3 81.8 267.6 83.2 266.9 83.5 C 266.4 83.8 266.5 82.7 266.9 82.2 C 266.9 82.2 266.9 82.2 266.9 82.2 Z M 369.4 63.9 C 369.8 63.4 370.1 64.8 369.4 65.1 C 368.9 65.4 369.0 64.3 369.4 63.9 C 369.4 63.9 369.4 63.9 369.4 63.9 Z M 330.6 79.0 C 330.1 77.7 333.4 78.2 331.9 78.8 C 330.4 79.4 331.2 80.3 330.6 79.0 C 330.6 79.0 330.6 79.0 330.6 79.0 Z M 340.7 79.1 C 340.5 78.3 341.9 78.1 341.5 78.9 C 341.3 79.5 340.9 79.8 340.7 79.1 C 340.7 79.1 340.7 79.1 340.7 79.1 Z M 385.3 57.1 C 385.1 56.3 386.5 56.1 386.1 56.9 C 385.9 57.5 385.5 57.9 385.3 57.1 C 385.3 57.1 385.3 57.1 385.3 57.1 Z M 366.4 86.0 C 366.2 85.3 367.6 85.1 367.2 85.9 C 367.0 86.4 366.6 86.8 366.4 86.0 C 366.4 86.0 366.4 86.0 366.4 86.0 Z M 374.9 77.4 C 375.9 77.8 375.2 78.7 374.5 77.7 C 374.0 77.0 373.9 76.9 374.9 77.4 C 374.9 77.4 374.9 77.4 374.9 77.4 Z M 348.4 61.7 C 348.5 60.9 354.8 61.4 351.8 62.3 C 350.3 62.9 348.2 63.2 348.4 61.7 C 348.4 61.7 348.4 61.7 348.4 61.7 Z M 399.8 75.0 C 400.5 74.4 401.1 75.7 400.7 76.4 C 400.7 76.4 399.2 75.6 399.8 75.0 C 399.8 75.0 399.8 75.0 399.8 75.0 Z M 405.0 64.9 C 405.6 64.3 406.2 65.6 405.8 66.3 C 405.8 66.3 404.4 65.5 405.0 64.9 C 405.0 64.9 405.0 64.9 405.0 64.9 Z M 407.5 59.5 C 408.2 58.9 408.8 60.2 408.4 61.0 C 408.4 61.0 406.9 60.1 407.5 59.5 C 407.5 59.5 407.5 59.5 407.5 59.5 Z M 284.6 74.1 C 283.4 75.0 283.9 73.1 283.9 73.1 C 285.9 73.3 285.9 73.3 284.6 74.1 C 284.6 74.1 284.6 74.1 284.6 74.1 Z M 280.6 57.7 C 280.1 58.1 280.3 57.3 280.3 57.3 C 281.1 57.4 281.1 57.4 280.6 57.7 C 280.6 57.7 280.6 57.7 280.6 57.7 Z M 294.3 56.9 C 293.8 57.3 294.0 56.5 294.0 56.5 C 294.8 56.6 294.8 56.6 294.3 56.9 C 294.3 56.9 294.3 56.9 294.3 56.9 Z M 282.1 84.1 C 281.4 84.5 281.7 83.5 281.7 83.5 C 282.9 83.6 282.9 83.6 282.1 84.1 C 282.1 84.1 282.1 84.1 282.1 84.1 Z M 333.4 70.1 C 332.2 70.9 332.7 69.2 332.7 69.2 C 334.5 69.4 334.5 69.4 333.4 70.1 C 333.4 70.1 333.4 70.1 333.4 70.1 Z M 338.2 76.7 C 337.0 77.5 337.5 75.8 337.5 75.8 C 339.3 76.0 339.3 76.0 338.2 76.7 C 338.2 76.7 338.2 76.7 338.2 76.7 Z M 326.4 85.6 C 325.9 85.9 326.1 85.2 326.1 85.2 C 326.9 85.2 326.9 85.2 326.4 85.6 C 326.4 85.6 326.4 85.6 326.4 85.6 Z M 341.9 82.5 C 341.4 82.8 341.6 82.1 341.6 82.1 C 342.4 82.2 342.4 82.2 341.9 82.5 C 341.9 82.5 341.9 82.5 341.9 82.5 Z M 247.8 81.0 C 248.8 80.9 248.8 81.7 247.7 81.5 C 247.1 81.5 246.9 81.1 247.8 81.0 C 247.8 81.0 247.8 81.0 247.8 81.0 Z M 246.8 68.4 C 248.3 68.3 248.3 70.1 246.1 69.7 C 245.0 69.5 245.3 68.6 246.8 68.4 C 246.8 68.4 246.8 68.4 246.8 68.4 Z M 334.9 61.0 C 334.4 60.8 336.2 60.3 336.3 60.3 C 337.0 60.4 337.3 61.9 337.5 62.0 C 336.7 61.6 335.7 61.3 334.9 61.0 M 315.4 62.6 C 316.1 62.9 315.6 63.4 315.1 63.2 C 314.6 62.9 314.7 62.3 315.4 62.6 C 315.4 62.6 315.4 62.6 315.4 62.6 Z M 367.8 61.4 C 369.1 63.3 365.1 63.5 364.3 62.0 C 364.1 61.6 366.5 59.6 367.8 61.4 C 367.8 61.4 367.8 61.4 367.8 61.4 Z M 357.4 82.5 C 357.6 82.1 358.5 82.5 358.0 82.7 C 357.2 83.0 357.2 82.8 357.4 82.5 C 357.4 82.5 357.4 82.5 357.4 82.5 Z M 362.6 80.3 C 363.6 79.7 364.5 82.1 363.6 81.8 C 362.3 81.4 361.5 80.9 362.6 80.3 C 362.6 80.3 362.6 80.3 362.6 80.3 Z M 390.8 66.8 C 391.5 66.8 392.1 67.3 392.3 68.2 C 392.9 69.7 388.2 66.5 390.8 66.8 M 312.9 58.1 C 313.7 58.0 314.3 58.2 314.8 58.9 C 315.8 61.3 310.1 57.9 312.9 58.1 M 374.3 61.7 C 375.3 62.0 373.9 62.7 373.5 62.1 C 373.0 61.4 373.4 61.3 374.3 61.7 C 374.3 61.7 374.3 61.7 374.3 61.7 Z M 397.0 64.0 C 397.9 64.3 396.6 65.0 396.2 64.4 C 395.7 63.7 396.1 63.6 397.0 64.0 C 397.0 64.0 397.0 64.0 397.0 64.0 Z M 299.1 61.5 C 301.2 61.0 299.6 64.9 298.7 65.4 C 296.7 66.6 298.2 63.1 298.2 62.9 C 298.1 62.8 298.2 64.5 298.6 64.0 C 299.5 62.9 298.3 61.7 299.1 61.5 M 260.3 63.4 C 261.9 63.7 261.5 65.3 260.4 64.7 C 259.3 64.1 258.7 63.1 260.3 63.4 C 260.3 63.4 260.3 63.4 260.3 63.4 Z M 428.0 59.6 C 426.2 56.8 423.3 58.1 420.2 57.6 C 419.8 57.5 417.2 59.1 417.9 59.6 C 420.4 61.5 418.9 66.4 417.4 62.6 C 416.4 60.3 417.6 56.7 414.4 57.8 C 412.0 58.5 415.0 61.6 412.6 62.8 C 412.2 63.0 409.4 63.8 409.6 64.7 C 409.9 65.6 411.3 65.2 411.3 66.3 C 411.3 67.6 410.4 69.0 410.0 70.2 C 409.4 72.2 410.3 76.0 411.8 77.2 C 412.7 77.9 416.2 78.0 414.7 79.9 C 411.8 83.6 421.7 86.9 422.3 84.5 C 422.7 82.7 424.1 81.7 425.3 80.7 C 427.3 79.0 428.5 82.9 429.9 83.2 C 437.5 84.9 431.1 78.5 432.4 76.8 C 433.0 76.0 435.9 76.1 436.8 76.3 C 440.3 76.9 437.8 79.7 438.0 83.0 C 438.0 84.0 446.9 84.8 445.6 81.4 C 449.0 81.5 446.4 84.0 451.1 83.7 C 452.4 83.6 450.8 81.5 452.6 81.4 C 457.2 81.5 454.2 83.5 455.9 83.6 C 457.6 83.7 459.2 82.7 460.3 81.2 C 461.2 80.0 461.5 81.0 462.4 81.4 C 464.2 82.3 464.0 79.1 465.6 79.3 C 471.7 79.9 464.1 83.8 466.3 83.9 C 474.5 84.2 472.7 80.9 477.3 81.1 C 479.1 81.2 481.9 87.2 484.7 82.7 C 488.4 76.9 488.5 84.6 492.0 84.3 C 493.3 84.1 494.0 84.0 495.3 84.1 C 496.2 84.2 494.5 81.2 494.9 80.5 C 495.1 79.9 498.6 76.8 497.8 75.8 C 495.4 73.3 496.0 77.8 492.8 77.7 C 489.3 77.5 491.9 76.1 492.5 75.3 C 493.1 75.2 494.2 74.9 494.7 74.6 C 495.2 73.7 493.2 72.5 493.5 71.6 C 493.7 70.8 500.4 71.0 500.5 71.8 C 500.8 73.0 497.6 72.5 499.2 75.2 C 500.6 77.7 500.2 77.8 498.1 79.2 C 495.3 81.2 500.2 84.4 501.9 84.5 C 503.1 84.5 505.7 84.8 506.8 84.4 C 509.1 83.6 505.2 81.6 511.1 82.3 C 514.2 82.7 521.4 78.5 523.1 80.3 C 523.7 80.9 519.9 83.9 524.4 83.9 C 526.7 83.9 529.0 84.4 531.1 84.5 C 538.2 84.6 532.5 83.2 534.1 82.5 C 536.5 81.5 539.1 84.0 541.6 83.6 C 543.4 83.2 544.3 81.0 546.3 82.1 C 548.6 83.3 548.8 84.0 551.4 83.9 C 551.8 83.9 556.8 82.8 556.7 82.5 C 556.2 81.7 553.1 82.7 553.3 81.7 C 554.1 78.1 557.8 80.2 559.5 80.9 C 560.5 81.4 563.9 79.9 564.0 82.0 C 564.1 83.2 560.8 83.8 561.4 83.9 C 568.6 84.7 571.3 81.7 573.8 81.9 C 577.3 82.2 573.4 83.6 577.2 83.8 C 578.6 83.9 579.6 82.9 580.5 82.0 C 581.8 80.8 582.0 78.7 582.8 77.1 C 584.0 74.8 585.0 73.8 584.9 71.1 C 584.9 69.6 584.8 67.9 584.3 66.5 C 583.8 65.4 582.2 65.7 582.1 64.2 C 582.0 62.9 585.2 60.5 584.6 60.1 C 580.7 57.5 581.0 61.5 580.3 61.8 C 579.6 62.2 579.0 60.6 578.2 60.2 C 577.1 59.6 575.6 58.9 576.8 61.9 C 576.9 61.6 572.1 63.1 570.8 61.0 C 570.0 59.5 565.1 61.1 562.5 60.8 C 562.9 61.9 566.6 65.1 562.9 65.6 C 560.9 65.8 560.2 65.9 558.8 63.9 C 558.4 63.3 560.7 62.4 560.3 62.0 C 559.7 61.8 559.2 61.7 558.6 61.5 C 558.3 61.4 560.7 59.5 560.4 59.4 C 556.3 57.4 549.3 57.8 551.3 61.3 C 551.7 62.1 557.2 63.5 554.5 63.9 C 551.5 64.3 548.9 64.0 546.7 64.1 C 547.1 64.1 547.4 67.4 544.0 66.6 C 543.6 66.8 541.7 66.8 542.2 67.1 C 542.7 67.4 545.7 66.9 545.8 67.9 C 545.9 68.9 542.6 68.1 539.9 67.6 C 537.0 67.1 539.9 68.9 538.2 68.9 C 533.7 69.1 539.5 63.5 532.2 64.0 C 531.7 64.0 534.1 66.3 534.0 66.2 C 534.9 67.9 525.9 63.3 530.3 62.8 C 531.7 62.6 533.2 61.6 531.3 60.4 C 529.1 58.9 529.4 60.7 527.8 61.7 C 528.5 61.3 525.4 59.6 525.3 59.5 C 524.2 59.3 523.8 61.4 523.0 60.9 C 522.6 60.7 517.8 57.0 519.4 60.8 C 519.8 61.7 522.7 63.9 522.5 64.9 C 522.4 65.9 517.8 65.2 517.3 65.1 C 515.7 64.7 515.4 62.7 515.6 62.8 C 513.6 62.0 510.6 66.8 511.0 61.6 C 511.1 60.5 511.4 58.9 511.0 58.0 C 510.6 56.9 507.5 57.8 507.6 58.2 C 507.8 59.9 509.4 60.4 508.7 62.6 C 508.0 64.7 509.1 63.8 509.1 64.9 C 509.1 65.4 505.2 65.7 505.6 64.4 C 505.8 63.4 507.0 62.1 505.9 61.2 C 505.6 61.0 501.9 59.1 502.1 59.9 C 503.1 63.6 500.2 61.7 501.2 61.0 C 502.4 60.1 499.6 56.6 498.6 58.3 C 498.1 59.2 501.0 62.2 497.3 62.5 C 497.3 62.5 494.0 59.1 494.5 62.4 C 494.8 64.2 496.5 65.8 494.2 66.0 C 493.2 66.0 488.3 66.9 487.8 65.5 C 487.3 64.2 491.7 62.8 490.6 61.2 C 489.7 59.9 488.9 63.2 488.0 62.1 C 484.7 58.7 487.0 62.9 484.7 63.2 C 482.0 63.5 481.9 59.5 484.3 59.3 C 484.0 59.3 489.5 59.9 488.3 58.7 C 486.7 57.2 478.3 56.7 479.8 59.8 C 480.6 61.3 481.8 65.0 478.9 64.1 C 479.6 64.3 476.0 56.9 475.6 59.5 C 475.2 62.3 478.5 63.4 475.7 65.2 C 472.5 67.3 469.8 65.9 466.4 66.1 C 465.9 66.2 463.2 65.9 462.9 64.4 C 462.6 63.1 464.2 62.4 464.6 62.4 C 466.8 62.4 458.7 59.1 463.9 58.7 C 464.7 58.6 460.0 58.4 459.4 58.4 C 456.2 58.4 462.9 63.7 460.1 63.8 C 458.3 63.9 453.4 64.5 453.0 61.6 C 452.3 56.9 449.3 64.2 448.8 65.2 C 448.5 65.9 443.7 65.8 442.7 65.3 C 439.5 63.9 442.2 61.7 440.7 61.2 C 439.6 60.9 437.1 61.0 438.7 59.1 C 440.1 57.4 437.1 57.7 436.4 57.8 C 434.8 58.2 435.0 64.3 432.8 64.4 C 429.1 64.6 429.9 62.6 428.0 59.6 M 442.2 63.5 C 442.2 62.6 444.6 62.5 444.5 63.3 C 444.3 64.8 442.2 64.4 442.2 63.5 M 410.2 59.7 C 410.2 58.8 412.6 58.7 412.5 59.5 C 412.3 60.9 410.2 60.5 410.2 59.7 M 455.3 61.2 C 455.3 59.9 457.7 60.7 457.9 61.4 C 458.3 63.0 455.3 62.6 455.3 61.2 M 541.1 65.1 C 540.3 65.3 539.7 65.5 539.0 64.8 C 538.3 64.2 542.3 63.8 541.1 65.1 M 422.9 59.2 C 422.9 58.2 425.7 58.0 425.6 59.4 C 425.5 61.4 422.9 60.3 422.9 59.2 M 417.1 65.5 C 417.4 65.3 417.7 65.5 418.0 65.9 C 418.3 66.5 416.6 66.3 417.1 65.5 M 549.6 58.5 C 549.9 58.3 550.2 58.4 550.5 58.9 C 550.8 59.5 549.2 59.3 549.6 58.5 M 526.6 58.4 C 527.2 58.1 527.7 58.2 528.2 58.8 C 528.3 59.0 526.0 59.6 526.6 58.4 M 525.7 85.2 C 526.4 85.0 526.9 85.1 527.4 85.7 C 527.4 85.8 525.1 86.5 525.7 85.2 M 562.1 58.2 C 562.4 57.2 564.7 57.6 564.9 58.5 C 565.2 59.5 561.9 59.1 562.1 58.2 M 575.0 64.1 C 575.2 63.2 577.8 63.2 578.1 64.1 C 578.4 65.5 574.8 64.8 575.0 64.1 M 439.3 72.9 C 441.2 72.9 439.5 74.3 439.1 73.9 C 438.4 73.3 437.3 72.9 439.3 72.9 C 439.3 72.9 439.3 72.9 439.3 72.9 Z M 481.4 79.6 C 481.0 79.5 479.7 79.9 479.7 78.9 C 479.7 77.9 483.6 79.3 483.5 80.1 C 483.2 82.1 481.5 79.6 481.4 79.6 M 473.7 62.0 C 476.1 64.2 474.0 64.0 472.5 64.7 C 471.2 65.3 471.2 59.8 473.7 62.0 C 473.7 62.0 473.7 62.0 473.7 62.0 Z M 466.3 64.4 C 467.1 64.6 465.9 65.3 465.9 65.3 C 465.2 64.7 465.4 64.3 466.3 64.4 C 466.3 64.4 466.3 64.4 466.3 64.4 Z M 490.1 64.8 C 490.3 65.1 489.2 65.5 489.3 65.0 C 489.4 64.4 489.9 64.4 490.1 64.8 C 490.1 64.8 490.1 64.8 490.1 64.8 Z M 485.2 65.2 C 485.4 65.6 483.1 65.8 483.2 65.2 C 483.3 64.7 485.0 64.9 485.2 65.2 C 485.2 65.2 485.2 65.2 485.2 65.2 Z M 519.8 82.6 C 520.0 82.9 517.7 83.1 517.8 82.5 C 517.9 82.0 519.6 82.2 519.8 82.6 C 519.8 82.6 519.8 82.6 519.8 82.6 Z M 477.7 67.1 C 478.1 68.4 475.6 69.9 475.8 67.7 C 476.1 65.8 477.2 65.8 477.7 67.1 C 477.7 67.1 477.7 67.1 477.7 67.1 Z M 503.2 80.1 C 504.2 78.7 505.5 81.9 505.8 81.8 C 505.5 81.9 502.5 81.2 503.2 80.1 M 554.4 59.5 C 555.4 58.0 556.7 61.3 557.0 61.2 C 556.7 61.3 553.7 60.6 554.4 59.5 M 504.1 57.9 C 505.1 56.5 506.4 59.7 506.6 59.6 C 506.3 59.8 503.3 59.0 504.1 57.9 M 444.9 61.1 C 445.2 60.2 446.9 62.7 446.5 63.0 C 445.8 63.5 444.5 62.0 444.9 61.1 M 472.8 84.8 C 472.6 83.8 475.2 84.3 475.0 84.9 C 474.7 85.8 473.0 85.7 472.8 84.8 M 425.4 83.0 C 425.2 82.0 427.7 82.5 427.6 83.1 C 427.3 84.0 425.6 83.9 425.4 83.0 M 547.3 84.7 C 547.1 83.7 549.8 84.4 549.5 84.8 C 549.0 85.2 547.3 85.1 547.3 84.7 M 510.0 66.7 C 508.8 66.3 517.8 67.8 512.6 69.9 C 511.6 70.4 510.4 70.1 509.7 69.9 C 506.5 69.3 511.7 68.7 511.5 68.0 C 511.3 67.4 510.0 67.6 509.9 67.5 C 509.9 67.5 511.2 67.0 510.0 66.7 C 510.0 66.7 510.0 66.7 510.0 66.7 Z M 525.8 79.1 C 526.0 78.4 528.0 80.3 527.7 80.6 C 527.1 81.2 525.5 80.3 525.8 79.1 M 517.8 61.6 C 518.0 60.9 520.0 62.8 519.7 63.1 C 519.1 63.7 517.5 62.8 517.8 61.6 M 543.6 62.1 C 544.4 61.0 546.0 64.2 545.3 64.6 C 544.0 65.1 542.5 63.8 543.6 62.1 M 546.8 60.6 C 547.3 60.9 546.9 61.7 546.5 61.3 C 546.2 60.9 546.3 60.3 546.8 60.6 C 546.8 60.6 546.8 60.6 546.8 60.6 Z M 575.1 58.4 C 575.6 58.7 575.2 59.4 574.8 59.1 C 574.4 58.7 574.6 58.0 575.1 58.4 C 575.1 58.4 575.1 58.4 575.1 58.4 Z M 535.4 62.8 C 535.9 63.1 535.4 63.9 535.1 63.6 C 534.7 63.1 534.9 62.5 535.4 62.8 C 535.4 62.8 535.4 62.8 535.4 62.8 Z M 558.7 83.7 C 559.2 83.6 559.2 84.4 558.8 84.3 C 558.1 84.3 558.2 83.8 558.7 83.7 C 558.7 83.7 558.7 83.7 558.7 83.7 Z M 555.8 80.4 C 556.3 80.3 556.3 81.1 555.9 81.0 C 555.2 81.0 555.3 80.4 555.8 80.4 C 555.8 80.4 555.8 80.4 555.8 80.4 Z M 430.2 59.6 C 429.4 58.2 432.0 58.5 432.9 60.7 C 433.5 62.1 433.4 62.3 432.1 62.5 C 429.5 62.8 431.2 61.3 430.2 59.6 M 568.3 80.4 C 570.7 81.0 569.0 82.3 567.0 82.0 C 567.0 82.0 566.0 79.8 568.3 80.4 C 568.3 80.4 568.3 80.4 568.3 80.4 Z M 532.3 67.4 C 533.4 66.8 535.2 68.6 533.4 69.5 C 532.2 70.1 531.4 67.9 532.3 67.4 M 548.4 61.1 C 549.5 60.5 551.3 62.3 549.5 63.2 C 548.4 63.8 547.5 61.6 548.4 61.1 M 473.5 57.0 C 474.6 56.3 476.4 58.2 474.5 59.1 C 473.4 59.7 472.6 57.5 473.5 57.0 M 568.3 62.2 C 570.5 61.2 574.6 64.1 570.6 65.6 C 568.6 66.4 566.3 63.1 568.3 62.2 M 467.9 62.2 C 467.3 62.7 466.1 61.5 467.1 60.8 C 467.9 60.3 468.5 61.8 467.9 62.2 M 495.0 72.3 C 495.9 72.0 496.8 72.0 497.6 72.5 C 499.8 74.3 493.0 73.5 495.0 72.3 M 515.5 65.5 C 515.8 65.5 515.3 66.7 514.9 66.3 C 514.5 65.9 515.1 65.5 515.5 65.5 C 515.5 65.5 515.5 65.5 515.5 65.5 Z M 503.6 65.5 C 503.4 66.1 500.3 65.5 500.6 65.2 C 500.9 64.8 503.8 64.9 503.6 65.5 C 503.6 65.5 503.6 65.5 503.6 65.5 Z M 435.9 64.6 C 438.8 65.2 435.4 66.1 435.4 65.6 C 435.2 64.5 435.2 64.5 435.9 64.6 C 435.9 64.6 435.9 64.6 435.9 64.6 Z M 562.8 74.8 C 563.8 75.2 562.1 76.6 562.0 76.0 C 561.8 74.7 561.8 74.5 562.8 74.8 C 562.8 74.8 562.8 74.8 562.8 74.8 Z M 533.9 59.0 C 534.9 59.4 532.3 59.9 532.2 59.4 C 531.9 58.0 532.9 58.7 533.9 59.0 C 533.9 59.0 533.9 59.0 533.9 59.0 Z M 579.3 58.4 C 580.3 58.7 577.6 59.3 577.6 58.7 C 577.3 57.4 578.3 58.1 579.3 58.4 C 579.3 58.4 579.3 58.4 579.3 58.4 Z M 426.8 63.7 C 429.3 64.7 425.1 68.5 424.9 67.0 C 424.3 63.2 424.2 62.8 426.8 63.7 C 426.8 63.7 426.8 63.7 426.8 63.7 Z M 508.3 61.8 C 509.0 62.0 507.9 63.2 507.8 62.7 C 507.7 61.6 507.7 61.5 508.3 61.8 C 508.3 61.8 508.3 61.8 508.3 61.8 Z M 456.9 58.0 C 457.5 58.3 456.4 59.4 456.4 58.9 C 456.2 57.9 456.2 57.7 456.9 58.0 C 456.9 58.0 456.9 58.0 456.9 58.0 Z M 448.1 63.0 C 448.6 63.3 447.8 64.2 447.7 63.8 C 447.6 62.9 447.6 62.8 448.1 63.0 C 448.1 63.0 448.1 63.0 448.1 63.0 Z M 450.6 84.3 C 451.1 84.5 450.2 85.5 450.2 85.1 C 450.1 84.2 450.0 84.1 450.6 84.3 C 450.6 84.3 450.6 84.3 450.6 84.3 Z M 453.6 74.5 C 455.2 75.1 452.5 77.6 452.4 76.6 C 452.0 74.3 452.0 74.0 453.6 74.5 C 453.6 74.5 453.6 74.5 453.6 74.5 Z M 435.6 78.2 C 436.5 78.5 435.0 79.9 434.9 79.4 C 434.8 78.0 434.7 77.9 435.6 78.2 C 435.6 78.2 435.6 78.2 435.6 78.2 Z M 436.0 81.1 C 436.4 81.2 435.7 81.9 435.7 81.7 C 435.6 81.0 435.6 80.9 436.0 81.1 C 436.0 81.1 436.0 81.1 436.0 81.1 Z M 548.5 67.1 C 549.4 67.5 547.8 69.1 547.8 68.5 C 547.5 66.9 547.5 66.7 548.5 67.1 C 548.5 67.1 548.5 67.1 548.5 67.1 Z M 538.9 76.0 C 540.3 73.6 543.8 77.0 540.8 77.0 C 537.9 77.0 537.4 78.4 538.9 76.0 C 538.9 76.0 538.9 76.0 538.9 76.0 Z M 481.3 71.7 C 482.0 70.2 483.9 72.3 482.3 72.3 C 480.8 72.3 480.5 73.2 481.3 71.7 C 481.3 71.7 481.3 71.7 481.3 71.7 Z M 487.7 83.3 C 488.0 82.7 488.7 83.5 488.1 83.5 C 487.5 83.5 487.4 83.8 487.7 83.3 C 487.7 83.3 487.7 83.3 487.7 83.3 Z M 448.2 57.8 C 449.2 58.7 447.9 60.5 447.5 59.5 C 447.0 58.1 447.2 56.9 448.2 57.8 C 448.2 57.8 448.2 57.8 448.2 57.8 Z M 437.2 61.5 C 437.1 61.7 436.4 63.3 436.1 62.9 C 434.5 60.7 437.5 60.6 437.2 61.5 M 492.4 58.9 C 494.3 58.5 494.4 61.1 492.4 60.6 C 490.4 60.1 491.2 59.1 492.4 58.9 C 492.4 58.9 492.4 58.9 492.4 58.9 Z M 527.3 65.9 C 528.1 65.7 527.9 66.8 527.0 67.0 C 526.5 67.1 526.6 66.2 527.3 65.9 C 527.3 65.9 527.3 65.9 527.3 65.9 Z M 562.0 63.0 C 563.2 62.6 562.8 64.7 561.5 64.9 C 560.6 65.1 560.7 63.5 562.0 63.0 C 562.0 63.0 562.0 63.0 562.0 63.0 Z M 514.1 59.5 C 515.5 59.0 515.0 61.0 513.6 61.2 C 512.6 61.4 512.7 59.9 514.1 59.5 C 514.1 59.5 514.1 59.5 514.1 59.5 Z M 497.6 63.6 C 499.0 63.1 498.6 65.2 497.1 65.4 C 496.0 65.5 496.2 64.0 497.6 63.6 C 497.6 63.6 497.6 63.6 497.6 63.6 Z M 569.6 69.4 C 570.6 70.4 569.5 71.2 568.8 70.2 C 568.0 69.2 568.6 68.3 569.6 69.4 C 569.6 69.4 569.6 69.4 569.6 69.4 Z M 518.0 58.8 C 518.5 59.3 518.0 59.7 517.6 59.3 C 517.2 58.7 517.5 58.3 518.0 58.8 C 518.0 58.8 518.0 58.8 518.0 58.8 Z M 528.1 73.1 C 529.5 72.6 528.5 75.2 527.1 74.3 C 525.6 73.4 527.6 73.2 528.1 73.1 C 528.1 73.1 528.1 73.1 528.1 73.1 Z M 438.8 55.1 C 439.4 54.8 439.0 56.3 438.4 55.8 C 437.8 55.2 438.6 55.2 438.8 55.1 C 438.8 55.1 438.8 55.1 438.8 55.1 Z M 570.0 63.4 C 570.6 63.1 570.2 64.6 569.6 64.1 C 569.0 63.5 569.8 63.5 570.0 63.4 C 570.0 63.4 570.0 63.4 570.0 63.4 Z M 572.1 59.4 C 572.7 59.1 572.3 60.6 571.7 60.1 C 571.1 59.6 571.9 59.5 572.1 59.4 C 572.1 59.4 572.1 59.4 572.1 59.4 Z M 547.5 80.8 C 546.7 81.2 542.7 81.2 543.8 79.3 C 545.3 76.8 546.8 79.3 548.7 79.3 C 550.4 79.4 546.4 77.2 551.1 77.4 C 552.5 77.4 549.7 76.1 549.6 74.9 C 549.5 74.0 559.0 74.6 557.2 76.9 C 556.6 77.7 553.9 78.5 553.1 78.7 C 550.7 79.0 551.6 79.7 549.5 80.9 C 548.9 80.8 548.2 80.8 547.5 80.8 C 547.5 80.8 547.5 80.8 547.5 80.8 Z M 547.5 80.8 " fill="#DB2800"></path><path d="M 620.0 60.9 C 617.2 62.4 618.5 69.3 619.8 69.9 C 621.2 70.6 619.0 76.9 621.4 77.6 C 623.8 78.3 624.6 78.6 623.9 77.6 C 623.1 76.6 625.7 78.4 628.4 78.1 C 631.2 77.8 625.3 79.8 633.4 79.2 C 636.4 79.0 633.7 81.3 637.3 81.6 C 640.8 81.9 639.7 79.0 639.6 77.5 C 639.6 76.1 647.4 79.8 650.0 78.3 C 651.1 77.6 655.0 80.5 655.1 82.3 C 655.1 83.3 651.5 83.7 652.6 84.9 C 653.7 86.1 655.2 85.7 656.7 85.9 C 658.3 86.0 660.3 85.5 659.8 84.4 C 659.4 83.2 659.2 82.3 660.8 83.1 C 662.3 84.0 664.2 84.4 664.7 85.0 C 665.4 85.6 669.1 83.5 668.1 83.1 C 667.2 82.5 671.8 83.8 672.0 83.0 C 672.1 82.3 672.5 81.8 671.0 81.1 C 669.5 80.5 669.1 81.2 668.0 80.0 C 666.9 78.9 666.3 78.1 667.7 78.0 C 669.1 77.9 671.5 78.3 671.1 77.4 C 670.6 76.6 669.9 75.4 670.5 74.3 C 671.1 73.1 672.9 72.7 673.7 73.0 C 674.5 73.3 678.2 73.8 675.9 74.7 C 673.5 75.5 677.6 76.0 678.2 76.6 C 678.8 77.3 679.2 75.8 681.0 76.5 C 682.6 77.2 682.0 78.6 677.5 81.1 C 676.6 81.6 674.4 82.6 675.2 83.6 C 676.0 84.5 677.8 83.3 678.8 82.3 C 679.8 81.2 679.8 83.5 680.4 84.0 C 681.0 84.6 680.9 82.2 681.6 82.8 C 682.3 83.4 683.2 84.8 684.1 83.5 C 685.0 82.3 685.6 82.1 684.4 81.7 C 683.3 81.4 682.1 80.7 683.1 80.4 C 684.0 80.1 694.0 78.4 690.2 77.9 C 686.0 77.3 705.2 75.1 693.8 73.7 C 682.8 72.3 697.0 66.6 691.9 66.3 C 686.8 66.0 690.3 61.4 685.2 61.1 C 684.2 61.1 681.4 59.7 681.6 59.2 C 681.8 58.6 684.0 58.1 683.9 57.5 C 683.8 56.9 682.0 56.8 680.2 57.1 C 678.4 57.4 677.7 58.3 675.0 57.6 C 672.2 56.9 670.5 56.7 668.4 56.8 C 666.4 56.9 665.3 57.7 665.2 58.1 C 665.0 58.5 665.9 59.0 666.1 60.0 C 666.2 60.9 664.0 61.3 662.3 61.0 C 660.6 60.8 660.1 59.2 658.3 59.1 C 656.6 59.0 653.8 57.9 655.0 57.5 C 656.2 57.1 658.4 58.4 659.9 58.4 C 661.5 58.4 664.6 58.0 663.2 57.4 C 661.7 56.8 655.0 56.7 653.9 56.8 C 652.9 56.8 648.4 60.6 647.8 59.3 C 646.4 56.7 642.6 57.7 641.4 57.2 C 640.1 56.8 631.8 58.2 632.5 59.0 C 634.8 61.6 626.3 61.7 626.4 63.4 C 626.5 64.9 624.6 60.0 620.0 60.7 M 673.1 81.0 C 672.9 80.7 674.6 80.1 675.5 80.2 C 676.4 80.3 675.8 81.4 675.0 81.3 C 674.3 81.2 673.2 81.3 673.1 81.0 Z M 675.6 79.4 C 675.1 78.8 675.4 78.0 676.7 78.2 C 678.7 78.4 677.8 79.4 677.2 79.6 C 676.7 79.8 676.0 79.8 675.6 79.4 Z M 645.7 84.1 C 645.8 83.6 647.1 83.6 648.5 84.1 C 649.8 84.6 649.5 85.9 648.1 86.2 C 647.1 86.4 645.5 84.6 645.7 84.1 Z M 648.9 80.5 C 649.1 80.0 649.2 79.5 650.5 80.1 C 651.9 80.6 651.9 81.2 650.6 81.4 C 649.5 81.7 648.7 81.0 648.9 80.5 Z M 629.5 79.7 C 632.2 79.9 629.4 82.8 626.5 81.3 C 624.0 80.1 626.2 79.5 629.5 79.7 Z M 640.7 58.9 C 640.7 58.9 639.0 59.6 638.5 59.4 C 636.1 58.5 640.7 58.9 640.7 58.9 Z M 674.5 76.3 C 674.5 76.3 673.0 77.0 672.8 76.8 C 670.6 75.7 674.5 76.3 674.5 76.3 Z M 684.3 67.1 C 683.5 67.7 682.9 66.8 683.6 66.5 C 684.2 66.2 685.1 66.5 684.3 67.1 Z M 634.1 76.8 C 633.0 77.6 631.9 76.4 632.8 76.2 C 633.9 76.0 634.5 76.4 634.1 76.8 Z M 625.1 79.8 C 624.4 80.2 623.4 79.5 624.3 79.4 C 625.3 79.2 625.7 79.5 625.1 79.8 Z M 640.4 83.3 C 639.9 81.9 639.7 80.9 641.7 82.4 C 643.7 83.9 643.6 84.8 643.3 85.7 C 643.1 86.5 639.4 85.8 639.0 84.7 C 637.8 82.1 641.0 84.7 640.4 83.3 Z M 647.8 62.5 C 646.7 61.9 647.9 61.1 648.8 61.9 C 649.9 62.9 648.8 63.2 647.8 62.5 Z M 620.8 83.7 C 622.9 84.1 623.2 84.7 621.5 84.5 M 669.3 63.4 C 667.6 63.2 670.2 65.0 667.9 64.3 C 665.6 63.7 666.6 62.2 668.5 62.5 C 670.7 63.0 671.0 63.6 669.3 63.4 Z M 666.6 74.6 C 667.2 74.2 668.4 74.6 667.3 76.1 C 666.2 77.5 663.7 74.0 664.7 73.8 C 666.2 73.7 665.9 75.0 666.6 74.6 Z M 626.2 61.4 C 625.6 62.6 624.0 60.9 625.0 60.6 C 626.2 60.1 626.8 60.1 626.2 61.4 Z M 639.9 69.0 C 639.3 69.5 638.5 68.8 639.4 68.5 C 640.2 68.2 640.5 68.5 639.9 69.0 Z M 671.0 79.6 C 670.4 80.1 669.6 79.4 670.6 79.0 C 671.3 78.7 671.6 79.1 671.0 79.6 Z M 632.7 85.8 C 629.0 86.8 626.5 85.7 631.0 83.6 C 633.9 82.3 633.7 85.5 632.7 85.8 Z M 659.9 67.7 C 659.1 68.1 658.7 67.4 659.5 67.1 C 660.1 66.9 660.8 67.2 659.9 67.7 Z M 656.3 73.7 C 657.9 74.7 655.9 75.9 651.6 74.7 C 647.3 73.5 651.5 70.0 653.9 71.0 C 657.6 72.3 654.6 72.7 656.3 73.7 Z M 642.3 79.5 C 641.7 80.6 639.7 79.2 641.5 78.8 C 642.6 78.5 643.0 78.5 642.3 79.5 Z M 647.6 81.1 C 647.2 81.7 645.9 81.1 647.0 80.9 C 647.5 80.8 647.9 80.5 647.6 81.1 Z M 628.6 59.9 C 628.3 60.4 627.0 59.9 628.1 59.6 C 628.6 59.5 629.0 59.3 628.6 59.9 Z M 629.9 72.6 C 629.5 73.1 627.8 72.4 628.9 72.2 C 629.5 72.0 630.3 72.0 629.9 72.6 Z M 666.3 131.3 C 666.7 130.7 668.7 129.8 668.8 130.7 C 668.9 131.7 665.9 132.1 666.3 131.3 Z M 647.7 139.6 C 647.3 140.2 643.7 141.1 645.8 139.0 C 647.1 137.7 648.1 139.0 647.7 139.6 Z M 680.9 119.4 C 681.7 118.7 682.1 118.8 681.8 119.3 C 681.4 120.0 680.2 120.0 680.9 119.4 Z M 699.9 76.6 C 700.6 75.5 702.9 75.2 704.2 74.3 C 704.2 74.3 704.2 74.3 704.3 74.2 C 704.2 74.7 704.0 75.2 704.0 75.6 C 703.8 75.7 703.5 75.8 703.3 75.9 C 701.9 76.9 699.1 77.6 699.9 76.6 Z M 706.2 71.6 C 707.6 71.3 705.5 73.3 704.3 74.2 C 704.7 73.0 705.4 71.8 706.2 71.6 Z M 633.6 145.6 C 633.5 146.6 631.4 146.2 632.2 145.6 C 633.1 144.8 633.7 144.5 633.6 145.6 Z M 645.9 136.6 C 646.6 136.6 646.6 137.5 645.8 137.4 C 645.3 137.4 645.2 136.6 645.9 136.6 Z M 705.3 101.6 C 705.1 101.1 705.0 100.6 706.4 100.3 C 707.8 100.0 708.1 100.4 707.1 101.4 C 706.4 102.2 705.4 102.1 705.3 101.6 Z M 708.4 102.8 C 709.8 102.5 710.2 103.8 709.3 104.8 C 708.5 105.6 706.3 104.9 706.2 104.4 C 706.0 103.8 707.0 103.1 708.4 102.8 Z M 702.9 110.3 C 702.9 111.0 701.6 111.2 702.3 110.4 C 702.7 109.9 702.9 109.6 702.9 110.3 Z M 727.6 81.1 C 729.2 80.1 729.0 81.4 728.7 82.0 C 728.4 82.5 727.9 83.0 727.3 82.8 C 726.6 82.6 726.4 81.7 727.6 81.1 Z M 696.3 113.0 C 693.8 115.9 691.1 116.3 693.8 112.0 C 695.5 109.4 697.0 112.3 696.3 113.0 Z M 685.2 117.7 C 687.3 116.9 687.8 117.3 686.3 118.0 C 684.7 118.7 687.9 118.8 685.6 119.5 C 683.3 120.2 683.3 118.4 685.2 117.7 Z M 690.4 109.6 C 692.9 108.3 692.0 112.3 688.8 112.6 C 686.1 112.9 687.6 111.2 690.4 109.6 Z M 691.5 104.8 C 692.2 104.2 693.0 104.1 692.8 104.7 C 692.3 106.0 690.8 105.5 691.5 104.8 Z M 686.0 112.2 C 686.8 111.5 687.2 111.5 686.9 112.1 C 686.5 112.8 685.3 112.8 686.0 112.2 Z M 723.9 85.7 C 723.7 86.6 722.7 86.5 723.2 85.6 C 723.6 84.8 724.1 84.9 723.9 85.7 Z M 663.5 99.6 C 663.4 100.3 662.1 100.5 662.9 99.8 C 663.2 99.3 663.5 99.0 663.5 99.6 Z M 724.8 80.8 C 724.8 80.8 724.0 82.3 723.8 82.3 C 721.4 82.6 724.8 80.8 724.8 80.8 Z M 678.5 96.2 C 678.6 97.5 676.5 97.0 677.1 96.2 C 678.0 95.2 678.5 94.9 678.5 96.2 Z M 679.8 93.6 C 679.8 94.3 678.5 94.5 679.2 93.7 C 679.6 93.3 679.8 92.9 679.8 93.6 Z M 657.9 127.3 C 658.3 126.8 659.2 126.5 658.8 127.4 C 658.4 128.3 657.5 127.9 657.9 127.3 Z M 628.0 136.0 C 626.3 136.6 621.9 133.1 622.3 131.9 C 622.7 130.6 624.4 125.1 623.6 124.4 C 622.9 123.7 626.1 122.1 626.9 121.4 C 627.6 120.8 630.3 121.2 630.8 121.2 C 631.4 121.2 633.3 119.5 633.3 119.5 C 633.3 119.5 634.0 118.4 635.6 117.3 C 637.3 116.1 639.4 116.3 642.1 115.4 C 644.7 114.6 644.7 112.7 646.6 111.2 C 648.4 109.8 652.4 111.4 654.4 110.6 C 656.5 109.9 654.7 107.6 656.8 105.9 C 658.8 104.2 660.5 103.9 660.1 104.7 C 659.7 105.6 660.8 105.8 661.4 105.4 C 662.1 105.0 665.1 103.9 665.7 102.9 C 666.3 101.8 658.3 104.3 666.7 98.9 C 670.8 96.1 676.9 93.1 674.5 97.4 C 672.7 100.5 680.6 98.9 679.7 97.7 C 678.8 96.4 685.7 91.7 682.6 90.8 C 681.6 90.5 687.7 84.6 688.9 84.3 C 690.1 84.0 692.6 80.9 695.1 82.3 C 696.2 83.0 706.3 79.5 704.2 76.6 C 704.0 76.4 704.0 76.0 704.0 75.6 C 705.1 75.2 706.2 75.8 707.3 75.2 C 708.7 74.3 710.3 72.7 709.7 72.0 C 709.1 71.3 708.1 71.4 708.0 70.9 C 708.0 70.6 708.2 69.9 708.8 69.0 C 707.8 68.1 706.3 66.2 706.7 66.9 C 707.2 67.8 703.4 66.5 703.2 65.8 C 703.0 65.1 701.8 63.6 701.1 62.2 C 700.3 60.7 700.0 61.4 699.8 62.3 C 699.5 63.3 697.8 62.2 696.7 61.3 C 695.6 60.2 694.2 59.5 694.0 58.2 C 693.8 56.8 696.7 58.8 697.2 58.2 C 698.0 57.1 696.4 53.1 695.3 52.8 C 692.6 52.2 688.4 45.7 687.8 46.5 C 687.1 47.4 686.8 49.3 684.0 47.5 C 675.7 42.1 687.6 46.4 685.3 44.9 C 678.8 41.1 681.2 42.2 678.9 40.9 C 676.7 39.7 675.6 37.4 675.7 38.3 C 675.8 39.2 674.8 38.1 673.2 36.5 C 671.7 35.0 673.1 40.3 672.4 39.3 C 671.6 38.3 670.7 38.9 669.3 38.8 C 667.9 38.7 669.1 37.5 667.4 36.0 C 665.1 34.0 665.8 37.0 663.8 36.4 C 661.9 35.9 667.1 38.9 664.0 38.0 C 660.9 37.1 658.3 34.1 657.8 33.3 C 657.2 32.6 662.9 35.4 663.3 35.0 C 663.6 34.6 660.9 33.0 661.5 32.6 C 662.0 32.2 659.0 29.5 657.5 28.5 C 655.9 27.5 653.7 28.7 654.7 30.2 C 655.6 31.6 652.8 30.3 651.6 29.3 C 650.3 28.4 650.5 29.3 649.0 28.9 C 647.5 28.6 646.4 28.2 645.0 27.1 C 643.8 26.1 645.5 26.3 645.4 25.7 C 645.3 25.1 644.0 24.6 641.5 24.6 C 639.1 24.6 644.3 21.7 642.4 21.0 C 640.6 20.3 638.1 19.5 636.3 18.4 C 634.5 17.3 634.8 18.7 634.9 19.3 C 634.9 19.9 631.0 16.6 631.6 17.4 C 632.2 18.3 631.6 20.8 630.6 20.4 C 627.1 18.9 629.8 19.2 629.5 17.7 C 629.1 16.3 624.5 14.4 625.5 13.9 C 626.4 13.4 630.6 14.5 630.5 14.0 C 630.4 13.5 627.5 9.7 627.9 9.4 C 628.4 9.1 634.7 9.0 633.4 8.4 C 632.2 7.8 630.1 4.1 631.4 3.8 C 632.6 3.5 636.1 4.7 635.7 4.1 C 632.8 -0.7 644.1 2.4 645.0 2.5 C 645.8 2.6 643.9 5.2 646.0 5.7 C 647.9 6.2 649.2 8.7 648.1 8.5 C 648.1 8.5 649.3 8.5 650.9 9.0 C 652.6 9.5 653.3 10.7 655.1 11.9 C 656.9 13.1 658.4 12.5 660.5 13.1 C 662.4 13.8 662.6 16.8 664.1 17.8 C 665.5 18.9 666.8 17.0 669.0 17.8 C 671.2 18.6 672.1 19.6 671.2 19.6 C 670.3 19.6 670.6 20.4 671.2 20.7 C 671.8 21.0 673.8 22.8 675.0 22.9 C 676.1 23.0 670.9 18.3 678.7 22.4 C 682.6 24.5 683.9 28.1 682.9 27.6 C 680.0 26.2 684.0 32.5 684.6 31.6 C 685.4 30.6 691.9 34.8 691.4 32.0 C 691.3 31.2 698.4 34.6 699.1 35.5 C 699.8 36.5 703.2 37.9 702.9 40.3 C 702.8 41.5 708.0 41.6 708.9 42.2 C 709.8 42.8 714.8 46.7 715.6 48.0 C 716.4 49.3 713.8 47.6 712.7 46.7 C 711.5 45.8 710.5 43.7 709.4 43.3 C 708.3 42.8 709.8 45.1 711.1 46.2 C 712.4 47.3 712.0 48.6 713.1 49.8 C 714.3 50.9 716.2 52.1 716.5 51.4 C 716.9 50.7 716.4 49.8 716.8 49.7 C 717.1 49.5 718.3 49.6 719.9 50.9 C 721.5 52.1 722.7 53.3 724.5 55.5 C 726.2 57.8 727.1 57.6 728.7 58.6 C 730.2 59.7 731.4 60.9 731.3 61.4 C 731.1 61.9 729.0 60.7 728.7 60.9 C 728.3 61.2 729.5 62.6 730.1 63.5 C 730.5 64.2 733.1 68.7 733.6 69.3 C 733.4 69.5 732.9 70.0 732.3 70.8 L 733.1 72.5 C 732.6 73.4 734.3 79.8 735.4 79.5 C 736.5 79.1 736.1 79.5 736.1 81.2 C 736.1 82.9 734.6 82.3 733.8 82.2 C 733.0 82.1 734.3 84.0 733.6 83.9 C 732.8 83.8 731.6 81.8 731.4 83.4 C 731.2 84.9 730.4 87.1 729.3 86.7 C 728.2 86.4 729.3 84.1 729.7 83.1 C 731.8 78.2 732.0 78.9 730.3 79.3 C 728.7 79.7 728.6 79.0 727.8 78.8 C 727.1 78.7 724.6 80.1 724.7 79.3 L 724.2 79.7 C 724.3 79.6 723.7 78.9 722.9 78.2 C 722.7 78.3 722.5 78.4 722.4 78.4 C 721.6 78.6 720.4 80.1 720.6 81.5 C 720.7 82.8 721.9 83.4 722.7 83.8 C 723.6 84.3 721.5 85.5 720.4 86.4 C 719.4 87.3 720.3 87.6 721.8 87.9 C 723.2 88.3 723.2 87.4 724.7 87.1 C 726.3 86.7 726.2 87.4 726.5 88.1 C 726.8 88.9 722.5 90.6 723.5 90.4 C 724.5 90.3 722.7 94.3 721.9 94.2 C 721.2 94.0 719.4 94.7 717.8 94.9 C 716.1 95.1 716.7 95.8 717.7 96.6 C 718.7 97.3 717.3 98.8 716.0 99.6 C 714.8 100.4 713.7 101.6 712.2 101.1 C 710.6 100.7 713.4 98.4 712.8 97.5 C 711.8 96.0 707.1 95.8 706.5 96.9 C 705.3 99.7 696.6 103.8 697.4 105.0 C 698.2 106.2 709.7 101.2 698.2 108.9 C 695.3 110.8 695.5 100.7 693.2 102.5 C 686.8 107.5 690.9 107.1 688.8 108.8 C 686.6 110.6 683.6 110.5 684.7 110.9 C 685.8 111.3 684.2 111.7 681.7 112.4 C 679.3 113.2 686.4 114.8 684.9 115.0 C 683.4 115.2 683.8 116.5 683.2 117.9 C 682.7 119.4 681.5 117.4 679.1 118.3 C 675.7 119.5 679.8 120.6 678.5 122.3 C 677.1 123.9 682.7 120.4 680.6 123.2 C 678.4 125.9 673.5 126.7 672.3 126.7 C 671.0 126.7 676.8 120.0 673.2 122.4 C 672.6 122.8 670.8 121.8 670.4 121.0 C 670.2 120.3 665.0 123.0 663.0 123.9 C 661.0 124.9 664.4 127.7 666.7 127.7 C 669.1 127.8 666.2 129.7 664.4 130.2 C 662.5 130.8 663.8 131.3 662.7 132.6 C 661.6 133.8 660.5 134.6 658.5 135.2 C 656.4 135.8 657.5 134.2 656.6 133.9 C 655.7 133.6 653.0 135.5 651.8 137.8 C 650.6 140.1 651.7 133.3 649.7 134.6 C 647.8 135.9 643.9 136.3 641.2 137.1 C 638.5 137.9 640.9 138.7 641.8 139.1 C 642.8 139.5 635.5 140.5 637.2 140.7 C 638.9 140.8 642.5 143.3 641.3 143.8 C 636.9 145.8 638.9 143.6 636.4 142.8 C 633.9 141.9 628.0 144.4 627.8 143.2 C 627.7 142.0 632.0 139.2 631.0 138.9 C 630.1 138.6 626.1 139.4 625.9 138.8 C 625.8 138.3 629.7 135.4 628.0 136.0 Z M 646.6 10.6 C 645.8 9.5 644.0 8.9 645.1 8.8 C 646.1 8.7 645.6 8.6 644.7 7.9 C 643.7 7.2 643.8 8.7 644.0 9.4 C 644.2 10.0 647.4 11.7 646.6 10.6 Z M 653.3 24.4 C 651.6 23.1 646.3 23.2 645.7 24.3 C 645.1 25.3 647.7 26.1 649.0 27.3 C 650.3 28.4 654.9 25.6 653.3 24.4 Z M 656.1 15.2 C 654.8 14.3 653.3 14.8 654.8 15.9 C 656.2 17.1 655.1 15.2 656.3 15.9 C 657.5 16.7 657.6 16.2 656.1 15.2 Z M 660.4 14.2 C 660.0 13.7 658.6 13.7 658.9 14.1 C 659.3 14.5 661.2 15.2 660.4 14.2 Z M 667.4 34.8 C 666.6 33.4 664.7 32.4 665.8 32.5 C 666.9 32.5 666.4 32.3 665.5 31.4 C 664.5 30.4 664.6 32.2 664.8 33.0 C 665.0 33.8 668.1 36.1 667.4 34.8 Z M 669.9 21.4 C 669.1 21.6 670.6 22.4 670.8 22.0 C 671.0 21.6 670.5 21.3 669.9 21.4 Z M 671.0 31.7 C 669.0 31.2 670.6 32.8 671.1 32.9 C 671.6 32.9 672.3 32.0 671.0 31.7 Z M 679.4 35.1 C 676.9 33.7 677.1 34.7 677.4 35.3 C 677.6 35.7 674.7 35.6 677.3 36.3 C 679.8 37.0 680.5 39.8 682.9 39.6 C 685.8 39.1 681.8 36.4 679.4 35.1 Z M 683.2 42.2 C 682.5 41.8 682.6 43.0 683.9 43.1 C 684.4 43.2 684.1 42.6 683.2 42.2 Z M 692.1 41.2 C 691.2 41.0 691.4 41.8 692.2 41.8 C 692.9 41.8 692.8 41.5 692.1 41.2 Z M 695.8 35.4 C 696.1 35.7 697.7 36.2 697.7 36.2 C 697.7 36.2 694.5 33.6 695.8 35.4 Z M 699.4 59.2 C 702.0 62.6 704.2 63.1 703.4 61.5 C 702.6 59.9 705.0 61.6 703.0 58.5 C 701.5 56.4 696.7 55.9 699.4 59.2 Z M 702.5 42.5 C 702.2 41.5 700.9 41.3 701.4 42.3 C 701.9 43.3 702.8 43.7 702.5 42.5 Z M 704.1 53.6 C 703.3 51.5 702.9 52.2 702.7 53.4 C 702.4 54.6 701.3 51.1 700.9 53.4 C 700.7 54.3 703.1 56.9 703.8 56.5 C 704.4 56.2 704.9 55.7 704.1 53.6 Z M 708.3 81.9 C 707.8 82.7 708.5 83.1 708.9 82.2 C 709.3 81.3 708.6 81.5 708.3 81.9 Z M 708.0 51.9 C 707.2 51.6 707.2 52.3 708.1 52.5 C 708.9 52.7 708.5 52.1 708.0 51.9 Z M 709.7 60.8 C 709.0 60.7 709.9 60.0 708.6 59.2 C 707.8 58.6 708.0 62.4 709.5 62.2 C 711.0 62.0 710.3 60.9 709.7 60.8 Z M 712.8 63.1 C 711.8 63.4 711.8 64.6 711.7 65.4 C 711.6 66.2 709.9 64.4 708.8 63.6 C 707.7 62.8 707.8 63.6 708.1 65.0 C 708.3 66.4 709.0 66.3 709.8 67.6 C 709.9 67.7 709.9 67.8 709.9 67.9 C 710.9 67.0 711.9 66.4 713.0 65.7 C 712.9 65.4 713.1 65.4 713.3 65.5 C 713.9 65.2 714.5 64.9 715.3 64.5 C 715.4 64.4 715.6 64.4 715.8 64.4 C 715.3 63.7 713.8 62.9 712.8 63.1 Z M 713.4 74.5 C 715.0 73.9 713.6 73.7 713.5 73.3 C 713.2 73.2 712.8 73.1 712.5 72.9 C 711.3 73.8 711.4 75.3 713.4 74.5 Z M 717.1 54.6 C 715.8 53.1 714.4 53.5 715.8 55.3 C 717.2 57.2 716.1 54.4 717.3 55.6 C 718.5 56.8 718.6 56.3 717.1 54.6 Z M 719.1 84.9 C 719.2 83.1 718.0 83.4 717.7 84.1 C 717.5 84.9 717.0 83.5 715.9 84.6 C 715.2 85.3 719.1 86.8 719.1 84.9 Z M 714.3 95.4 C 718.3 93.9 719.3 91.8 717.4 91.9 C 715.6 92.0 717.8 89.9 714.1 90.9 C 711.7 91.5 710.2 96.9 714.3 95.4 Z M 708.3 90.8 C 709.2 91.5 712.5 89.9 712.2 89.0 C 712.0 88.1 711.6 87.4 709.2 87.3 C 706.9 87.1 707.5 87.9 708.7 88.8 C 709.9 89.6 706.0 89.2 708.3 90.8 Z M 696.7 85.0 C 697.8 84.9 698.5 84.0 697.2 83.8 C 696.0 83.7 695.5 85.1 696.7 85.0 Z M 693.6 94.8 C 693.8 94.1 693.4 94.0 693.0 94.7 C 692.4 95.5 693.3 95.6 693.6 94.8 Z M 699.3 86.8 C 699.3 86.8 693.3 87.7 693.9 89.8 C 694.1 90.3 699.3 86.8 699.3 86.8 Z M 681.5 107.3 C 682.1 107.3 681.0 110.3 682.7 108.0 C 684.4 105.8 688.0 106.5 688.3 103.9 C 688.7 100.5 684.3 103.2 681.9 105.1 C 679.5 106.9 680.7 107.3 681.5 107.3 Z M 674.9 111.9 C 673.5 113.8 676.1 113.0 676.4 112.6 C 676.6 112.0 675.7 110.8 674.9 111.9 Z M 674.3 119.2 C 675.3 119.4 679.4 117.6 677.5 117.6 C 675.5 117.6 673.5 118.9 674.0 117.8 C 674.4 116.7 673.9 117.1 672.5 117.5 C 670.9 117.9 673.2 118.9 674.3 119.2 Z M 662.8 106.5 C 662.3 106.1 661.8 106.4 661.7 107.0 C 661.5 108.0 663.2 106.9 662.8 106.5 Z M 654.6 132.5 C 655.9 133.8 658.2 131.9 660.3 131.4 C 662.5 130.9 660.6 124.5 658.1 125.2 C 655.6 126.0 653.3 131.2 654.6 132.5 Z M 647.9 112.0 C 647.0 112.0 646.3 113.3 647.0 113.3 C 647.7 113.2 649.5 111.8 647.9 112.0 Z M 647.3 118.3 C 649.6 117.6 646.5 117.5 648.0 116.8 C 649.6 116.2 649.1 115.8 647.0 116.5 C 645.1 117.2 644.9 118.9 647.3 118.3 Z M 632.0 123.6 C 633.1 123.9 637.4 122.2 635.4 122.2 C 633.4 122.2 631.3 123.4 631.8 122.3 C 632.4 121.3 631.8 121.7 630.4 122.0 C 628.7 122.4 631.0 123.3 632.0 123.6 Z M 658.4 130.7 C 657.6 132.3 655.5 131.6 656.5 130.8 C 657.7 130.0 658.7 130.0 658.4 130.7 Z M 687.2 103.4 C 687.1 104.1 685.4 104.4 686.1 103.6 C 686.6 103.2 687.2 102.7 687.2 103.4 Z M 675.1 39.6 C 676.0 40.0 676.1 40.3 675.5 40.2 C 674.8 40.1 674.4 39.2 675.1 39.6 Z M 690.0 56.3 C 689.1 55.7 688.8 53.9 689.2 53.6 C 689.6 53.5 690.5 54.2 691.2 55.3 C 692.1 56.4 691.2 56.9 690.0 56.3 Z M 691.7 52.6 C 692.2 52.8 692.6 52.9 692.0 53.0 C 691.5 53.2 690.8 52.1 691.7 52.6 Z M 688.6 48.3 C 689.5 48.7 689.9 49.0 688.8 49.2 C 687.8 49.4 687.0 47.6 688.6 48.3 Z M 694.8 54.2 C 695.6 55.3 695.3 55.7 694.2 55.0 C 693.3 54.5 693.0 53.7 693.4 53.5 C 693.7 53.3 694.0 53.1 694.8 54.2 Z M 676.8 20.4 C 676.3 20.5 675.6 19.7 676.5 20.0 C 677.0 20.2 677.4 20.2 676.8 20.4 Z M 688.1 30.6 C 687.5 30.8 686.8 29.9 687.7 30.2 C 688.2 30.4 688.7 30.5 688.1 30.6 Z M 628.4 5.0 C 627.7 5.2 626.2 3.4 627.0 3.5 C 627.7 3.6 629.2 4.6 628.4 5.0 Z M 626.9 11.8 C 626.0 12.1 625.5 11.0 626.3 11.2 C 627.4 11.4 627.9 11.6 626.9 11.8 Z M 710.6 66.7 C 709.9 66.6 709.6 65.7 710.5 66.1 C 711.2 66.4 711.3 66.8 710.6 66.7 Z M 685.4 30.4 C 684.4 30.8 684.0 29.0 684.9 29.3 C 686.0 29.6 686.5 29.9 685.4 30.4 Z M 678.2 45.3 C 681.0 46.0 679.3 47.7 678.4 47.3 C 675.1 46.0 673.7 44.1 678.2 45.3 Z M 667.2 37.5 C 668.1 37.9 668.2 38.2 667.6 38.1 C 666.9 37.9 666.5 37.1 667.2 37.5 Z M 682.7 38.6 C 682.2 38.7 681.3 37.5 682.2 37.8 C 682.7 38.1 683.3 38.5 682.7 38.6 Z M 670.3 40.1 C 671.7 41.4 671.7 41.9 670.5 40.9 C 669.3 40.0 670.4 42.2 668.9 40.7 C 667.5 39.3 669.0 39.0 670.3 40.1 Z M 675.8 41.7 C 674.5 39.8 676.5 40.5 678.9 42.3 C 681.0 43.9 677.4 44.0 675.8 41.7 Z M 733.8 69.4 C 733.8 69.4 733.7 69.4 733.7 69.4 C 733.7 69.3 733.8 69.3 733.8 69.4 Z M 636.7 21.3 C 638.2 21.6 637.5 22.5 636.9 22.5 C 636.3 22.4 634.0 20.8 636.7 21.3 Z M 651.7 25.3 C 650.8 25.3 650.8 24.7 651.4 24.8 C 652.0 24.8 652.6 25.3 651.7 25.3 Z M 648.8 26.0 C 647.1 25.9 646.9 24.6 647.9 24.9 C 649.1 25.4 649.6 26.0 648.8 26.0 Z M 638.0 20.9 C 637.8 20.6 638.4 20.3 638.7 20.7 C 639.0 21.1 638.3 21.3 638.0 20.9 Z M 659.7 31.5 C 661.7 33.1 658.1 33.2 656.5 30.9 C 655.2 29.0 657.3 29.7 659.7 31.5 Z M 659.7 31.5 " fill="#DB2800"></path></g></svg>