<?xml version="1.0" encoding="UTF-8"?><svg xmlns="http://www.w3.org/2000/svg" xmlns:xlink="http://www.w3.org/1999/xlink" clip-rule="evenodd" stroke-miterlimit="10" viewBox="0 0 880 138"><desc>SVG generated by Keynote</desc><defs></defs><g transform="matrix(1.00, 0.00, -0.00, -1.00, 0.0, 138.0)"><text xml:space="preserve" font-family="Avenir-Light,Avenir" font-size="36.0" fill="#FEFFFF" transform="matrix(1.00, 0.00, -0.00, -1.00, 1.0, 108.7)">“</text><text xml:space="preserve" font-family="Avenir-Light,Avenir" font-size="36.0" fill="#FEFFFF" transform="matrix(1.00, 0.00, -0.00, -1.00, 19.7, 108.7)">T</text><text xml:space="preserve" font-family="Avenir-Light,Avenir" font-size="36.0" fill="#FEFFFF" transform="matrix(1.00, 0.00, -0.00, -1.00, 40.4, 108.7)">h</text><text xml:space="preserve" font-family="Avenir-Light,Avenir" font-size="36.0" fill="#FEFFFF" transform="matrix(1.00, 0.00, -0.00, -1.00, 60.4, 108.7)">e</text><text xml:space="preserve" font-family="Avenir-Light,Avenir" font-size="36.0" fill="#FEFFFF" transform="matrix(1.00, 0.00, -0.00, -1.00, 80.4, 108.7)">r</text><text xml:space="preserve" font-family="Avenir-Light,Avenir" font-size="36.0" fill="#FEFFFF" transform="matrix(1.00, 0.00, -0.00, -1.00, 91.8, 108.7)">e</text><text xml:space="preserve" font-family="Avenir-Light,Avenir" font-size="36.0" fill="#FEFFFF" transform="matrix(1.00, 0.00, -0.00, -1.00, 111.8, 108.7)"> </text><text xml:space="preserve" font-family="Avenir-Light,Avenir" font-size="36.0" fill="#FEFFFF" transform="matrix(1.00, 0.00, -0.00, -1.00, 121.1, 108.7)">i</text><text xml:space="preserve" font-family="Avenir-Light,Avenir" font-size="36.0" fill="#FEFFFF" transform="matrix(1.00, 0.00, -0.00, -1.00, 129.8, 108.7)">s</text><text xml:space="preserve" font-family="Avenir-Light,Avenir" font-size="36.0" fill="#FEFFFF" transform="matrix(1.00, 0.00, -0.00, -1.00, 145.1, 108.7)"> </text><text xml:space="preserve" font-family="Avenir-Light,Avenir" font-size="36.0" fill="#FEFFFF" transform="matrix(1.00, 0.00, -0.00, -1.00, 154.5, 108.7)">a</text><text xml:space="preserve" font-family="Avenir-Light,Avenir" font-size="36.0" fill="#FEFFFF" transform="matrix(1.00, 0.00, -0.00, -1.00, 173.2, 108.7)"> </text><text xml:space="preserve" font-family="Avenir-Light,Avenir" font-size="36.0" fill="#FEFFFF" transform="matrix(1.00, 0.00, -0.00, -1.00, 182.5, 108.7)">n</text><text xml:space="preserve" font-family="Avenir-Light,Avenir" font-size="36.0" fill="#FEFFFF" transform="matrix(1.00, 0.00, -0.00, -1.00, 202.5, 108.7)">e</text><text xml:space="preserve" font-family="Avenir-Light,Avenir" font-size="36.0" fill="#FEFFFF" transform="matrix(1.00, 0.00, -0.00, -1.00, 222.5, 108.7)">e</text><text xml:space="preserve" font-family="Avenir-Light,Avenir" font-size="36.0" fill="#FEFFFF" transform="matrix(1.00, 0.00, -0.00, -1.00, 242.6, 108.7)">d</text><text xml:space="preserve" font-family="Avenir-Light,Avenir" font-size="36.0" fill="#FEFFFF" transform="matrix(1.00, 0.00, -0.00, -1.00, 264.6, 108.7)"> </text><text xml:space="preserve" font-family="Avenir-Light,Avenir" font-size="36.0" fill="#FEFFFF" transform="matrix(1.00, 0.00, -0.00, -1.00, 273.9, 108.7)">t</text><text xml:space="preserve" font-family="Avenir-Light,Avenir" font-size="36.0" fill="#FEFFFF" transform="matrix(1.00, 0.00, -0.00, -1.00, 285.9, 108.7)">o</text><text xml:space="preserve" font-family="Avenir-Light,Avenir" font-size="36.0" fill="#FEFFFF" transform="matrix(1.00, 0.00, -0.00, -1.00, 307.3, 108.7)"> </text><text xml:space="preserve" font-family="Avenir-Light,Avenir" font-size="36.0" fill="#FEFFFF" transform="matrix(1.00, 0.00, -0.00, -1.00, 316.6, 108.7)">m</text><text xml:space="preserve" font-family="Avenir-Light,Avenir" font-size="36.0" fill="#FEFFFF" transform="matrix(1.00, 0.00, -0.00, -1.00, 347.3, 108.7)">o</text><text xml:space="preserve" font-family="Avenir-Light,Avenir" font-size="36.0" fill="#FEFFFF" transform="matrix(1.00, 0.00, -0.00, -1.00, 368.7, 108.7)">v</text><text xml:space="preserve" font-family="Avenir-Light,Avenir" font-size="36.0" fill="#FEFFFF" transform="matrix(1.00, 0.00, -0.00, -1.00, 385.4, 108.7)">e</text><text xml:space="preserve" font-family="Avenir-Light,Avenir" font-size="36.0" fill="#FEFFFF" transform="matrix(1.00, 0.00, -0.00, -1.00, 405.4, 108.7)"> </text><text xml:space="preserve" font-family="Avenir-Light,Avenir" font-size="36.0" fill="#FEFFFF" transform="matrix(1.00, 0.00, -0.00, -1.00, 414.7, 108.7)">b</text><text xml:space="preserve" font-family="Avenir-Light,Avenir" font-size="36.0" fill="#FEFFFF" transform="matrix(1.00, 0.00, -0.00, -1.00, 436.7, 108.7)">e</text><text xml:space="preserve" font-family="Avenir-Light,Avenir" font-size="36.0" fill="#FEFFFF" transform="matrix(1.00, 0.00, -0.00, -1.00, 456.8, 108.7)">y</text><text xml:space="preserve" font-family="Avenir-Light,Avenir" font-size="36.0" fill="#FEFFFF" transform="matrix(1.00, 0.00, -0.00, -1.00, 473.4, 108.7)">o</text><text xml:space="preserve" font-family="Avenir-Light,Avenir" font-size="36.0" fill="#FEFFFF" transform="matrix(1.00, 0.00, -0.00, -1.00, 494.8, 108.7)">n</text><text xml:space="preserve" font-family="Avenir-Light,Avenir" font-size="36.0" fill="#FEFFFF" transform="matrix(1.00, 0.00, -0.00, -1.00, 514.8, 108.7)">d</text><text xml:space="preserve" font-family="Avenir-Light,Avenir" font-size="36.0" fill="#FEFFFF" transform="matrix(1.00, 0.00, -0.00, -1.00, 536.8, 108.7)"> </text><text xml:space="preserve" font-family="Avenir-Light,Avenir" font-size="36.0" fill="#FEFFFF" transform="matrix(1.00, 0.00, -0.00, -1.00, 546.2, 108.7)">‘</text><text xml:space="preserve" font-family="Avenir-Light,Avenir" font-size="36.0" fill="#FEFFFF" transform="matrix(1.00, 0.00, -0.00, -1.00, 555.5, 108.7)">E</text><text xml:space="preserve" font-family="Avenir-Light,Avenir" font-size="36.0" fill="#FEFFFF" transform="matrix(1.00, 0.00, -0.00, -1.00, 576.9, 108.7)">v</text><text xml:space="preserve" font-family="Avenir-Light,Avenir" font-size="36.0" fill="#FEFFFF" transform="matrix(1.00, 0.00, -0.00, -1.00, 593.6, 108.7)">e</text><text xml:space="preserve" font-family="Avenir-Light,Avenir" font-size="36.0" fill="#FEFFFF" transform="matrix(1.00, 0.00, -0.00, -1.00, 613.6, 108.7)">r</text><text xml:space="preserve" font-family="Avenir-Light,Avenir" font-size="36.0" fill="#FEFFFF" transform="matrix(1.00, 0.00, -0.00, -1.00, 625.6, 108.7)">y</text><text xml:space="preserve" font-family="Avenir-Light,Avenir" font-size="36.0" fill="#FEFFFF" transform="matrix(1.00, 0.00, -0.00, -1.00, 642.2, 108.7)">t</text><text xml:space="preserve" font-family="Avenir-Light,Avenir" font-size="36.0" fill="#FEFFFF" transform="matrix(1.00, 0.00, -0.00, -1.00, 654.3, 108.7)">h</text><text xml:space="preserve" font-family="Avenir-Light,Avenir" font-size="36.0" fill="#FEFFFF" transform="matrix(1.00, 0.00, -0.00, -1.00, 674.3, 108.7)">i</text><text xml:space="preserve" font-family="Avenir-Light,Avenir" font-size="36.0" fill="#FEFFFF" transform="matrix(1.00, 0.00, -0.00, -1.00, 682.9, 108.7)">n</text><text xml:space="preserve" font-family="Avenir-Light,Avenir" font-size="36.0" fill="#FEFFFF" transform="matrix(1.00, 0.00, -0.00, -1.00, 702.9, 108.7)">g</text><text xml:space="preserve" font-family="Avenir-Light,Avenir" font-size="36.0" fill="#FEFFFF" transform="matrix(1.00, 0.00, -0.00, -1.00, 724.9, 108.7)"> </text><text xml:space="preserve" font-family="Avenir-Light,Avenir" font-size="36.0" fill="#FEFFFF" transform="matrix(1.00, 0.00, -0.00, -1.00, 734.3, 108.7)">i</text><text xml:space="preserve" font-family="Avenir-Light,Avenir" font-size="36.0" fill="#FEFFFF" transform="matrix(1.00, 0.00, -0.00, -1.00, 742.9, 108.7)">s</text><text xml:space="preserve" font-family="Avenir-Light,Avenir" font-size="36.0" fill="#FEFFFF" transform="matrix(1.00, 0.00, -0.00, -1.00, 758.3, 108.7)"> </text><text xml:space="preserve" font-family="Avenir-Light,Avenir" font-size="36.0" fill="#FEFFFF" transform="matrix(1.00, 0.00, -0.00, -1.00, 767.6, 108.7)">a</text><text xml:space="preserve" font-family="Avenir-Light,Avenir" font-size="36.0" fill="#FEFFFF" transform="matrix(1.00, 0.00, -0.00, -1.00, 786.3, 108.7)">n</text><text xml:space="preserve" font-family="Avenir-Light,Avenir" font-size="36.0" fill="#FEFFFF" transform="matrix(1.00, 0.00, -0.00, -1.00, 806.3, 108.7)"> </text><text xml:space="preserve" font-family="Avenir-Light,Avenir" font-size="36.0" fill="#FEFFFF" transform="matrix(1.00, 0.00, -0.00, -1.00, 1.0, 59.7)">o</text><text xml:space="preserve" font-family="Avenir-Light,Avenir" font-size="36.0" fill="#FEFFFF" transform="matrix(1.00, 0.00, -0.00, -1.00, 22.4, 59.7)">b</text><text xml:space="preserve" font-family="Avenir-Light,Avenir" font-size="36.0" fill="#FEFFFF" transform="matrix(1.00, 0.00, -0.00, -1.00, 44.4, 59.7)">j</text><text xml:space="preserve" font-family="Avenir-Light,Avenir" font-size="36.0" fill="#FEFFFF" transform="matrix(1.00, 0.00, -0.00, -1.00, 53.0, 59.7)">e</text><text xml:space="preserve" font-family="Avenir-Light,Avenir" font-size="36.0" fill="#FEFFFF" transform="matrix(1.00, 0.00, -0.00, -1.00, 73.0, 59.7)">c</text><text xml:space="preserve" font-family="Avenir-Light,Avenir" font-size="36.0" fill="#FEFFFF" transform="matrix(1.00, 0.00, -0.00, -1.00, 90.4, 59.7)">t</text><text xml:space="preserve" font-family="Avenir-Light,Avenir" font-size="36.0" fill="#FEFFFF" transform="matrix(1.00, 0.00, -0.00, -1.00, 102.4, 59.7)">’</text><text xml:space="preserve" font-family="Avenir-Light,Avenir" font-size="36.0" fill="#FEFFFF" transform="matrix(1.00, 0.00, -0.00, -1.00, 111.7, 59.7)"> </text><text xml:space="preserve" font-family="Avenir-Light,Avenir" font-size="36.0" fill="#FEFFFF" transform="matrix(1.00, 0.00, -0.00, -1.00, 121.1, 59.7)">t</text><text xml:space="preserve" font-family="Avenir-Light,Avenir" font-size="36.0" fill="#FEFFFF" transform="matrix(1.00, 0.00, -0.00, -1.00, 133.1, 59.7)">o</text><text xml:space="preserve" font-family="Avenir-Light,Avenir" font-size="36.0" fill="#FEFFFF" transform="matrix(1.00, 0.00, -0.00, -1.00, 154.5, 59.7)"> </text><text xml:space="preserve" font-family="Avenir-Light,Avenir" font-size="36.0" fill="#FEFFFF" transform="matrix(1.00, 0.00, -0.00, -1.00, 163.8, 59.7)">a</text><text xml:space="preserve" font-family="Avenir-Light,Avenir" font-size="36.0" fill="#FEFFFF" transform="matrix(1.00, 0.00, -0.00, -1.00, 182.5, 59.7)">t</text><text xml:space="preserve" font-family="Avenir-Light,Avenir" font-size="36.0" fill="#FEFFFF" transform="matrix(1.00, 0.00, -0.00, -1.00, 194.5, 59.7)"> </text><text xml:space="preserve" font-family="Avenir-Light,Avenir" font-size="36.0" fill="#FEFFFF" transform="matrix(1.00, 0.00, -0.00, -1.00, 203.9, 59.7)">l</text><text xml:space="preserve" font-family="Avenir-Light,Avenir" font-size="36.0" fill="#FEFFFF" transform="matrix(1.00, 0.00, -0.00, -1.00, 212.5, 59.7)">e</text><text xml:space="preserve" font-family="Avenir-Light,Avenir" font-size="36.0" fill="#FEFFFF" transform="matrix(1.00, 0.00, -0.00, -1.00, 232.5, 59.7)">a</text><text xml:space="preserve" font-family="Avenir-Light,Avenir" font-size="36.0" fill="#FEFFFF" transform="matrix(1.00, 0.00, -0.00, -1.00, 251.2, 59.7)">s</text><text xml:space="preserve" font-family="Avenir-Light,Avenir" font-size="36.0" fill="#FEFFFF" transform="matrix(1.00, 0.00, -0.00, -1.00, 266.5, 59.7)">t</text><text xml:space="preserve" font-family="Avenir-Light,Avenir" font-size="36.0" fill="#FEFFFF" transform="matrix(1.00, 0.00, -0.00, -1.00, 278.5, 59.7)"> </text><text xml:space="preserve" font-family="Avenir-Light,Avenir" font-size="36.0" fill="#FEFFFF" transform="matrix(1.00, 0.00, -0.00, -1.00, 287.9, 59.7)">t</text><text xml:space="preserve" font-family="Avenir-Light,Avenir" font-size="36.0" fill="#FEFFFF" transform="matrix(1.00, 0.00, -0.00, -1.00, 299.9, 59.7)">h</text><text xml:space="preserve" font-family="Avenir-Light,Avenir" font-size="36.0" fill="#FEFFFF" transform="matrix(1.00, 0.00, -0.00, -1.00, 319.9, 59.7)">e</text><text xml:space="preserve" font-family="Avenir-Light,Avenir" font-size="36.0" fill="#FEFFFF" transform="matrix(1.00, 0.00, -0.00, -1.00, 339.9, 59.7)"> </text><text xml:space="preserve" font-family="Avenir-Light,Avenir" font-size="36.0" fill="#FEFFFF" transform="matrix(1.00, 0.00, -0.00, -1.00, 349.3, 59.7)">e</text><text xml:space="preserve" font-family="Avenir-Light,Avenir" font-size="36.0" fill="#FEFFFF" transform="matrix(1.00, 0.00, -0.00, -1.00, 369.3, 59.7)">q</text><text xml:space="preserve" font-family="Avenir-Light,Avenir" font-size="36.0" fill="#FEFFFF" transform="matrix(1.00, 0.00, -0.00, -1.00, 391.3, 59.7)">u</text><text xml:space="preserve" font-family="Avenir-Light,Avenir" font-size="36.0" fill="#FEFFFF" transform="matrix(1.00, 0.00, -0.00, -1.00, 411.3, 59.7)">i</text><text xml:space="preserve" font-family="Avenir-Light,Avenir" font-size="36.0" fill="#FEFFFF" transform="matrix(1.00, 0.00, -0.00, -1.00, 420.0, 59.7)">v</text><text xml:space="preserve" font-family="Avenir-Light,Avenir" font-size="36.0" fill="#FEFFFF" transform="matrix(1.00, 0.00, -0.00, -1.00, 436.6, 59.7)">a</text><text xml:space="preserve" font-family="Avenir-Light,Avenir" font-size="36.0" fill="#FEFFFF" transform="matrix(1.00, 0.00, -0.00, -1.00, 455.3, 59.7)">l</text><text xml:space="preserve" font-family="Avenir-Light,Avenir" font-size="36.0" fill="#FEFFFF" transform="matrix(1.00, 0.00, -0.00, -1.00, 464.0, 59.7)">e</text><text xml:space="preserve" font-family="Avenir-Light,Avenir" font-size="36.0" fill="#FEFFFF" transform="matrix(1.00, 0.00, -0.00, -1.00, 484.0, 59.7)">n</text><text xml:space="preserve" font-family="Avenir-Light,Avenir" font-size="36.0" fill="#FEFFFF" transform="matrix(1.00, 0.00, -0.00, -1.00, 504.0, 59.7)">t</text><text xml:space="preserve" font-family="Avenir-Light,Avenir" font-size="36.0" fill="#FEFFFF" transform="matrix(1.00, 0.00, -0.00, -1.00, 516.0, 59.7)"> </text><text xml:space="preserve" font-family="Avenir-Light,Avenir" font-size="36.0" fill="#FEFFFF" transform="matrix(1.00, 0.00, -0.00, -1.00, 525.3, 59.7)">o</text><text xml:space="preserve" font-family="Avenir-Light,Avenir" font-size="36.0" fill="#FEFFFF" transform="matrix(1.00, 0.00, -0.00, -1.00, 546.7, 59.7)">f</text><text xml:space="preserve" font-family="Avenir-Light,Avenir" font-size="36.0" fill="#FEFFFF" transform="matrix(1.00, 0.00, -0.00, -1.00, 557.4, 59.7)"> </text><text xml:space="preserve" font-family="Avenir-Light,Avenir" font-size="36.0" fill="#FEFFFF" transform="matrix(1.00, 0.00, -0.00, -1.00, 566.7, 59.7)">d</text><text xml:space="preserve" font-family="Avenir-Light,Avenir" font-size="36.0" fill="#FEFFFF" transform="matrix(1.00, 0.00, -0.00, -1.00, 588.8, 59.7)">i</text><text xml:space="preserve" font-family="Avenir-Light,Avenir" font-size="36.0" fill="#FEFFFF" transform="matrix(1.00, 0.00, -0.00, -1.00, 597.4, 59.7)">s</text><text xml:space="preserve" font-family="Avenir-Light,Avenir" font-size="36.0" fill="#FEFFFF" transform="matrix(1.00, 0.00, -0.00, -1.00, 612.7, 59.7)">t</text><text xml:space="preserve" font-family="Avenir-Light,Avenir" font-size="36.0" fill="#FEFFFF" transform="matrix(1.00, 0.00, -0.00, -1.00, 624.8, 59.7)">i</text><text xml:space="preserve" font-family="Avenir-Light,Avenir" font-size="36.0" fill="#FEFFFF" transform="matrix(1.00, 0.00, -0.00, -1.00, 633.4, 59.7)">n</text><text xml:space="preserve" font-family="Avenir-Light,Avenir" font-size="36.0" fill="#FEFFFF" transform="matrix(1.00, 0.00, -0.00, -1.00, 653.4, 59.7)">g</text><text xml:space="preserve" font-family="Avenir-Light,Avenir" font-size="36.0" fill="#FEFFFF" transform="matrix(1.00, 0.00, -0.00, -1.00, 675.4, 59.7)">u</text><text xml:space="preserve" font-family="Avenir-Light,Avenir" font-size="36.0" fill="#FEFFFF" transform="matrix(1.00, 0.00, -0.00, -1.00, 695.4, 59.7)">i</text><text xml:space="preserve" font-family="Avenir-Light,Avenir" font-size="36.0" fill="#FEFFFF" transform="matrix(1.00, 0.00, -0.00, -1.00, 704.1, 59.7)">s</text><text xml:space="preserve" font-family="Avenir-Light,Avenir" font-size="36.0" fill="#FEFFFF" transform="matrix(1.00, 0.00, -0.00, -1.00, 719.4, 59.7)">h</text><text xml:space="preserve" font-family="Avenir-Light,Avenir" font-size="36.0" fill="#FEFFFF" transform="matrix(1.00, 0.00, -0.00, -1.00, 739.4, 59.7)">i</text><text xml:space="preserve" font-family="Avenir-Light,Avenir" font-size="36.0" fill="#FEFFFF" transform="matrix(1.00, 0.00, -0.00, -1.00, 748.1, 59.7)">n</text><text xml:space="preserve" font-family="Avenir-Light,Avenir" font-size="36.0" fill="#FEFFFF" transform="matrix(1.00, 0.00, -0.00, -1.00, 768.1, 59.7)">g</text><text xml:space="preserve" font-family="Avenir-Light,Avenir" font-size="36.0" fill="#FEFFFF" transform="matrix(1.00, 0.00, -0.00, -1.00, 790.1, 59.7)"> </text><text xml:space="preserve" font-family="Avenir-Light,Avenir" font-size="36.0" fill="#FEFFFF" transform="matrix(1.00, 0.00, -0.00, -1.00, 799.4, 59.7)">b</text><text xml:space="preserve" font-family="Avenir-Light,Avenir" font-size="36.0" fill="#FEFFFF" transform="matrix(1.00, 0.00, -0.00, -1.00, 821.4, 59.7)">o</text><text xml:space="preserve" font-family="Avenir-Light,Avenir" font-size="36.0" fill="#FEFFFF" transform="matrix(1.00, 0.00, -0.00, -1.00, 842.8, 59.7)">l</text><text xml:space="preserve" font-family="Avenir-Light,Avenir" font-size="36.0" fill="#FEFFFF" transform="matrix(1.00, 0.00, -0.00, -1.00, 851.5, 59.7)">t</text><text xml:space="preserve" font-family="Avenir-Light,Avenir" font-size="36.0" fill="#FEFFFF" transform="matrix(1.00, 0.00, -0.00, -1.00, 863.5, 59.7)">s</text><text xml:space="preserve" font-family="Avenir-Light,Avenir" font-size="36.0" fill="#FEFFFF" transform="matrix(1.00, 0.00, -0.00, -1.00, 878.8, 59.7)"> </text><text xml:space="preserve" font-family="Avenir-Light,Avenir" font-size="36.0" fill="#FEFFFF" transform="matrix(1.00, 0.00, -0.00, -1.00, 1.0, 10.7)">f</text><text xml:space="preserve" font-family="Avenir-Light,Avenir" font-size="36.0" fill="#FEFFFF" transform="matrix(1.00, 0.00, -0.00, -1.00, 11.7, 10.7)">r</text><text xml:space="preserve" font-family="Avenir-Light,Avenir" font-size="36.0" fill="#FEFFFF" transform="matrix(1.00, 0.00, -0.00, -1.00, 23.0, 10.7)">o</text><text xml:space="preserve" font-family="Avenir-Light,Avenir" font-size="36.0" fill="#FEFFFF" transform="matrix(1.00, 0.00, -0.00, -1.00, 44.4, 10.7)">m</text><text xml:space="preserve" font-family="Avenir-Light,Avenir" font-size="36.0" fill="#FEFFFF" transform="matrix(1.00, 0.00, -0.00, -1.00, 75.1, 10.7)"> </text><text xml:space="preserve" font-family="Avenir-Light,Avenir" font-size="36.0" fill="#FEFFFF" transform="matrix(1.00, 0.00, -0.00, -1.00, 84.4, 10.7)">s</text><text xml:space="preserve" font-family="Avenir-Light,Avenir" font-size="36.0" fill="#FEFFFF" transform="matrix(1.00, 0.00, -0.00, -1.00, 99.7, 10.7)">p</text><text xml:space="preserve" font-family="Avenir-Light,Avenir" font-size="36.0" fill="#FEFFFF" transform="matrix(1.00, 0.00, -0.00, -1.00, 121.7, 10.7)">r</text><text xml:space="preserve" font-family="Avenir-Light,Avenir" font-size="36.0" fill="#FEFFFF" transform="matrix(1.00, 0.00, -0.00, -1.00, 133.7, 10.7)">i</text><text xml:space="preserve" font-family="Avenir-Light,Avenir" font-size="36.0" fill="#FEFFFF" transform="matrix(1.00, 0.00, -0.00, -1.00, 142.4, 10.7)">n</text><text xml:space="preserve" font-family="Avenir-Light,Avenir" font-size="36.0" fill="#FEFFFF" transform="matrix(1.00, 0.00, -0.00, -1.00, 162.4, 10.7)">g</text><text xml:space="preserve" font-family="Avenir-Light,Avenir" font-size="36.0" fill="#FEFFFF" transform="matrix(1.00, 0.00, -0.00, -1.00, 184.4, 10.7)">s</text><text xml:space="preserve" font-family="Avenir-Light,Avenir" font-size="36.0" fill="#FEFFFF" transform="matrix(1.00, 0.00, -0.00, -1.00, 199.7, 10.7)">.</text><text xml:space="preserve" font-family="Avenir-Light,Avenir" font-size="36.0" fill="#FEFFFF" transform="matrix(1.00, 0.00, -0.00, -1.00, 209.1, 10.7)">”</text></g></svg>