<?xml version="1.0" encoding="UTF-8"?><svg xmlns="http://www.w3.org/2000/svg" xmlns:xlink="http://www.w3.org/1999/xlink" clip-rule="evenodd" stroke-miterlimit="10" viewBox="0 0 914 157"><desc>SVG generated by Keynote</desc><defs></defs><g transform="matrix(1.00, 0.00, -0.00, -1.00, 0.0, 157.0)"><text xml:space="preserve" font-family="Avenir-Light,Avenir" font-size="30.2" fill="#FEFFFF" transform="matrix(1.00, 0.00, -0.00, -1.00, 1.0, 132.1)">“</text><text xml:space="preserve" font-family="Avenir-Light,Avenir" font-size="30.2" fill="#FEFFFF" transform="matrix(1.00, 0.00, -0.00, -1.00, 16.7, 132.1)">W</text><text xml:space="preserve" font-family="Avenir-Light,Avenir" font-size="30.2" fill="#FEFFFF" transform="matrix(1.00, 0.00, -0.00, -1.00, 45.3, 132.1)">h</text><text xml:space="preserve" font-family="Avenir-Light,Avenir" font-size="30.2" fill="#FEFFFF" transform="matrix(1.00, 0.00, -0.00, -1.00, 62.1, 132.1)">e</text><text xml:space="preserve" font-family="Avenir-Light,Avenir" font-size="30.2" fill="#FEFFFF" transform="matrix(1.00, 0.00, -0.00, -1.00, 78.9, 132.1)">n</text><text xml:space="preserve" font-family="Avenir-Light,Avenir" font-size="30.2" fill="#FEFFFF" transform="matrix(1.00, 0.00, -0.00, -1.00, 95.7, 132.1)"> </text><text xml:space="preserve" font-family="Avenir-Light,Avenir" font-size="30.2" fill="#FEFFFF" transform="matrix(1.00, 0.00, -0.00, -1.00, 103.6, 132.1)">a</text><text xml:space="preserve" font-family="Avenir-Light,Avenir" font-size="30.2" fill="#FEFFFF" transform="matrix(1.00, 0.00, -0.00, -1.00, 119.3, 132.1)"> </text><text xml:space="preserve" font-family="Avenir-Light,Avenir" font-size="30.2" fill="#FEFFFF" transform="matrix(1.00, 0.00, -0.00, -1.00, 127.1, 132.1)">b</text><text xml:space="preserve" font-family="Avenir-Light,Avenir" font-size="30.2" fill="#FEFFFF" transform="matrix(1.00, 0.00, -0.00, -1.00, 145.6, 132.1)">u</text><text xml:space="preserve" font-family="Avenir-Light,Avenir" font-size="30.2" fill="#FEFFFF" transform="matrix(1.00, 0.00, -0.00, -1.00, 162.4, 132.1)">i</text><text xml:space="preserve" font-family="Avenir-Light,Avenir" font-size="30.2" fill="#FEFFFF" transform="matrix(1.00, 0.00, -0.00, -1.00, 169.7, 132.1)">l</text><text xml:space="preserve" font-family="Avenir-Light,Avenir" font-size="30.2" fill="#FEFFFF" transform="matrix(1.00, 0.00, -0.00, -1.00, 176.9, 132.1)">d</text><text xml:space="preserve" font-family="Avenir-Light,Avenir" font-size="30.2" fill="#FEFFFF" transform="matrix(1.00, 0.00, -0.00, -1.00, 195.4, 132.1)">i</text><text xml:space="preserve" font-family="Avenir-Light,Avenir" font-size="30.2" fill="#FEFFFF" transform="matrix(1.00, 0.00, -0.00, -1.00, 202.7, 132.1)">n</text><text xml:space="preserve" font-family="Avenir-Light,Avenir" font-size="30.2" fill="#FEFFFF" transform="matrix(1.00, 0.00, -0.00, -1.00, 219.5, 132.1)">g</text><text xml:space="preserve" font-family="Avenir-Light,Avenir" font-size="30.2" fill="#FEFFFF" transform="matrix(1.00, 0.00, -0.00, -1.00, 238.0, 132.1)"> </text><text xml:space="preserve" font-family="Avenir-Light,Avenir" font-size="30.2" fill="#FEFFFF" transform="matrix(1.00, 0.00, -0.00, -1.00, 245.9, 132.1)">h</text><text xml:space="preserve" font-family="Avenir-Light,Avenir" font-size="30.2" fill="#FEFFFF" transform="matrix(1.00, 0.00, -0.00, -1.00, 262.7, 132.1)">a</text><text xml:space="preserve" font-family="Avenir-Light,Avenir" font-size="30.2" fill="#FEFFFF" transform="matrix(1.00, 0.00, -0.00, -1.00, 278.4, 132.1)">s</text><text xml:space="preserve" font-family="Avenir-Light,Avenir" font-size="30.2" fill="#FEFFFF" transform="matrix(1.00, 0.00, -0.00, -1.00, 291.2, 132.1)"> </text><text xml:space="preserve" font-family="Avenir-Light,Avenir" font-size="30.2" fill="#FEFFFF" transform="matrix(1.00, 0.00, -0.00, -1.00, 299.1, 132.1)">t</text><text xml:space="preserve" font-family="Avenir-Light,Avenir" font-size="30.2" fill="#FEFFFF" transform="matrix(1.00, 0.00, -0.00, -1.00, 309.2, 132.1)">h</text><text xml:space="preserve" font-family="Avenir-Light,Avenir" font-size="30.2" fill="#FEFFFF" transform="matrix(1.00, 0.00, -0.00, -1.00, 326.0, 132.1)">i</text><text xml:space="preserve" font-family="Avenir-Light,Avenir" font-size="30.2" fill="#FEFFFF" transform="matrix(1.00, 0.00, -0.00, -1.00, 333.3, 132.1)">s</text><text xml:space="preserve" font-family="Avenir-Light,Avenir" font-size="30.2" fill="#FEFFFF" transform="matrix(1.00, 0.00, -0.00, -1.00, 346.2, 132.1)"> </text><text xml:space="preserve" font-family="Avenir-Light,Avenir" font-size="30.2" fill="#FEFFFF" transform="matrix(1.00, 0.00, -0.00, -1.00, 354.0, 132.1)">f</text><text xml:space="preserve" font-family="Avenir-Light,Avenir" font-size="30.2" fill="#FEFFFF" transform="matrix(1.00, 0.00, -0.00, -1.00, 363.0, 132.1)">i</text><text xml:space="preserve" font-family="Avenir-Light,Avenir" font-size="30.2" fill="#FEFFFF" transform="matrix(1.00, 0.00, -0.00, -1.00, 370.2, 132.1)">r</text><text xml:space="preserve" font-family="Avenir-Light,Avenir" font-size="30.2" fill="#FEFFFF" transform="matrix(1.00, 0.00, -0.00, -1.00, 379.8, 132.1)">e</text><text xml:space="preserve" font-family="Avenir-Light,Avenir" font-size="30.2" fill="#FEFFFF" transform="matrix(1.00, 0.00, -0.00, -1.00, 396.6, 132.1)">,</text><text xml:space="preserve" font-family="Avenir-Light,Avenir" font-size="30.2" fill="#FEFFFF" transform="matrix(1.00, 0.00, -0.00, -1.00, 404.4, 132.1)"> </text><text xml:space="preserve" font-family="Avenir-Light,Avenir" font-size="30.2" fill="#FEFFFF" transform="matrix(1.00, 0.00, -0.00, -1.00, 412.3, 132.1)">t</text><text xml:space="preserve" font-family="Avenir-Light,Avenir" font-size="30.2" fill="#FEFFFF" transform="matrix(1.00, 0.00, -0.00, -1.00, 422.4, 132.1)">h</text><text xml:space="preserve" font-family="Avenir-Light,Avenir" font-size="30.2" fill="#FEFFFF" transform="matrix(1.00, 0.00, -0.00, -1.00, 439.2, 132.1)">e</text><text xml:space="preserve" font-family="Avenir-Light,Avenir" font-size="30.2" fill="#FEFFFF" transform="matrix(1.00, 0.00, -0.00, -1.00, 456.0, 132.1)">n</text><text xml:space="preserve" font-family="Avenir-Light,Avenir" font-size="30.2" fill="#FEFFFF" transform="matrix(1.00, 0.00, -0.00, -1.00, 472.8, 132.1)"> </text><text xml:space="preserve" font-family="Avenir-Light,Avenir" font-size="30.2" fill="#FEFFFF" transform="matrix(1.00, 0.00, -0.00, -1.00, 480.7, 132.1)">i</text><text xml:space="preserve" font-family="Avenir-Light,Avenir" font-size="30.2" fill="#FEFFFF" transform="matrix(1.00, 0.00, -0.00, -1.00, 488.0, 132.1)">t</text><text xml:space="preserve" font-family="Avenir-Light,Avenir" font-size="30.2" fill="#FEFFFF" transform="matrix(1.00, 0.00, -0.00, -1.00, 498.0, 132.1)"> </text><text xml:space="preserve" font-family="Avenir-Light,Avenir" font-size="30.2" fill="#FEFFFF" transform="matrix(1.00, 0.00, -0.00, -1.00, 505.9, 132.1)">b</text><text xml:space="preserve" font-family="Avenir-Light,Avenir" font-size="30.2" fill="#FEFFFF" transform="matrix(1.00, 0.00, -0.00, -1.00, 524.4, 132.1)">e</text><text xml:space="preserve" font-family="Avenir-Light,Avenir" font-size="30.2" fill="#FEFFFF" transform="matrix(1.00, 0.00, -0.00, -1.00, 541.2, 132.1)">c</text><text xml:space="preserve" font-family="Avenir-Light,Avenir" font-size="30.2" fill="#FEFFFF" transform="matrix(1.00, 0.00, -0.00, -1.00, 555.7, 132.1)">o</text><text xml:space="preserve" font-family="Avenir-Light,Avenir" font-size="30.2" fill="#FEFFFF" transform="matrix(1.00, 0.00, -0.00, -1.00, 573.7, 132.1)">m</text><text xml:space="preserve" font-family="Avenir-Light,Avenir" font-size="30.2" fill="#FEFFFF" transform="matrix(1.00, 0.00, -0.00, -1.00, 599.4, 132.1)">e</text><text xml:space="preserve" font-family="Avenir-Light,Avenir" font-size="30.2" fill="#FEFFFF" transform="matrix(1.00, 0.00, -0.00, -1.00, 616.3, 132.1)">s</text><text xml:space="preserve" font-family="Avenir-Light,Avenir" font-size="30.2" fill="#FEFFFF" transform="matrix(1.00, 0.00, -0.00, -1.00, 629.1, 132.1)"> </text><text xml:space="preserve" font-family="Avenir-Light,Avenir" font-size="30.2" fill="#FEFFFF" transform="matrix(1.00, 0.00, -0.00, -1.00, 637.0, 132.1)">a</text><text xml:space="preserve" font-family="Avenir-Light,Avenir" font-size="30.2" fill="#FEFFFF" transform="matrix(1.00, 0.00, -0.00, -1.00, 652.7, 132.1)"> </text><text xml:space="preserve" font-family="Avenir-Light,Avenir" font-size="30.2" fill="#FEFFFF" transform="matrix(1.00, 0.00, -0.00, -1.00, 660.6, 132.1)">p</text><text xml:space="preserve" font-family="Avenir-Light,Avenir" font-size="30.2" fill="#FEFFFF" transform="matrix(1.00, 0.00, -0.00, -1.00, 679.0, 132.1)">a</text><text xml:space="preserve" font-family="Avenir-Light,Avenir" font-size="30.2" fill="#FEFFFF" transform="matrix(1.00, 0.00, -0.00, -1.00, 694.7, 132.1)">r</text><text xml:space="preserve" font-family="Avenir-Light,Avenir" font-size="30.2" fill="#FEFFFF" transform="matrix(1.00, 0.00, -0.00, -1.00, 704.8, 132.1)">t</text><text xml:space="preserve" font-family="Avenir-Light,Avenir" font-size="30.2" fill="#FEFFFF" transform="matrix(1.00, 0.00, -0.00, -1.00, 714.9, 132.1)"> </text><text xml:space="preserve" font-family="Avenir-Light,Avenir" font-size="30.2" fill="#FEFFFF" transform="matrix(1.00, 0.00, -0.00, -1.00, 722.7, 132.1)">o</text><text xml:space="preserve" font-family="Avenir-Light,Avenir" font-size="30.2" fill="#FEFFFF" transform="matrix(1.00, 0.00, -0.00, -1.00, 740.7, 132.1)">f</text><text xml:space="preserve" font-family="Avenir-Light,Avenir" font-size="30.2" fill="#FEFFFF" transform="matrix(1.00, 0.00, -0.00, -1.00, 749.7, 132.1)"> </text><text xml:space="preserve" font-family="Avenir-Light,Avenir" font-size="30.2" fill="#FEFFFF" transform="matrix(1.00, 0.00, -0.00, -1.00, 757.5, 132.1)">n</text><text xml:space="preserve" font-family="Avenir-Light,Avenir" font-size="30.2" fill="#FEFFFF" transform="matrix(1.00, 0.00, -0.00, -1.00, 774.3, 132.1)">a</text><text xml:space="preserve" font-family="Avenir-Light,Avenir" font-size="30.2" fill="#FEFFFF" transform="matrix(1.00, 0.00, -0.00, -1.00, 790.0, 132.1)">t</text><text xml:space="preserve" font-family="Avenir-Light,Avenir" font-size="30.2" fill="#FEFFFF" transform="matrix(1.00, 0.00, -0.00, -1.00, 800.1, 132.1)">u</text><text xml:space="preserve" font-family="Avenir-Light,Avenir" font-size="30.2" fill="#FEFFFF" transform="matrix(1.00, 0.00, -0.00, -1.00, 816.9, 132.1)">r</text><text xml:space="preserve" font-family="Avenir-Light,Avenir" font-size="30.2" fill="#FEFFFF" transform="matrix(1.00, 0.00, -0.00, -1.00, 826.4, 132.1)">e</text><text xml:space="preserve" font-family="Avenir-Light,Avenir" font-size="30.2" fill="#FEFFFF" transform="matrix(1.00, 0.00, -0.00, -1.00, 843.2, 132.1)">.</text><text xml:space="preserve" font-family="Avenir-Light,Avenir" font-size="30.2" fill="#FEFFFF" transform="matrix(1.00, 0.00, -0.00, -1.00, 851.1, 132.1)"> </text><text xml:space="preserve" font-family="Avenir-Light,Avenir" font-size="30.2" fill="#FEFFFF" transform="matrix(1.00, 0.00, -0.00, -1.00, 859.0, 132.1)">L</text><text xml:space="preserve" font-family="Avenir-Light,Avenir" font-size="30.2" fill="#FEFFFF" transform="matrix(1.00, 0.00, -0.00, -1.00, 874.1, 132.1)">i</text><text xml:space="preserve" font-family="Avenir-Light,Avenir" font-size="30.2" fill="#FEFFFF" transform="matrix(1.00, 0.00, -0.00, -1.00, 881.3, 132.1)">k</text><text xml:space="preserve" font-family="Avenir-Light,Avenir" font-size="30.2" fill="#FEFFFF" transform="matrix(1.00, 0.00, -0.00, -1.00, 895.9, 132.1)">e</text><text xml:space="preserve" font-family="Avenir-Light,Avenir" font-size="30.2" fill="#FEFFFF" transform="matrix(1.00, 0.00, -0.00, -1.00, 912.7, 132.1)"> </text><text xml:space="preserve" font-family="Avenir-Light,Avenir" font-size="30.2" fill="#FEFFFF" transform="matrix(1.00, 0.00, -0.00, -1.00, 1.0, 91.1)">o</text><text xml:space="preserve" font-family="Avenir-Light,Avenir" font-size="30.2" fill="#FEFFFF" transform="matrix(1.00, 0.00, -0.00, -1.00, 19.0, 91.1)">c</text><text xml:space="preserve" font-family="Avenir-Light,Avenir" font-size="30.2" fill="#FEFFFF" transform="matrix(1.00, 0.00, -0.00, -1.00, 33.5, 91.1)">e</text><text xml:space="preserve" font-family="Avenir-Light,Avenir" font-size="30.2" fill="#FEFFFF" transform="matrix(1.00, 0.00, -0.00, -1.00, 50.3, 91.1)">a</text><text xml:space="preserve" font-family="Avenir-Light,Avenir" font-size="30.2" fill="#FEFFFF" transform="matrix(1.00, 0.00, -0.00, -1.00, 66.0, 91.1)">n</text><text xml:space="preserve" font-family="Avenir-Light,Avenir" font-size="30.2" fill="#FEFFFF" transform="matrix(1.00, 0.00, -0.00, -1.00, 82.8, 91.1)"> </text><text xml:space="preserve" font-family="Avenir-Light,Avenir" font-size="30.2" fill="#FEFFFF" transform="matrix(1.00, 0.00, -0.00, -1.00, 90.7, 91.1)">w</text><text xml:space="preserve" font-family="Avenir-Light,Avenir" font-size="30.2" fill="#FEFFFF" transform="matrix(1.00, 0.00, -0.00, -1.00, 112.0, 91.1)">a</text><text xml:space="preserve" font-family="Avenir-Light,Avenir" font-size="30.2" fill="#FEFFFF" transform="matrix(1.00, 0.00, -0.00, -1.00, 127.7, 91.1)">v</text><text xml:space="preserve" font-family="Avenir-Light,Avenir" font-size="30.2" fill="#FEFFFF" transform="matrix(1.00, 0.00, -0.00, -1.00, 141.7, 91.1)">e</text><text xml:space="preserve" font-family="Avenir-Light,Avenir" font-size="30.2" fill="#FEFFFF" transform="matrix(1.00, 0.00, -0.00, -1.00, 158.5, 91.1)">s</text><text xml:space="preserve" font-family="Avenir-Light,Avenir" font-size="30.2" fill="#FEFFFF" transform="matrix(1.00, 0.00, -0.00, -1.00, 171.4, 91.1)">,</text><text xml:space="preserve" font-family="Avenir-Light,Avenir" font-size="30.2" fill="#FEFFFF" transform="matrix(1.00, 0.00, -0.00, -1.00, 179.2, 91.1)"> </text><text xml:space="preserve" font-family="Avenir-Light,Avenir" font-size="30.2" fill="#FEFFFF" transform="matrix(1.00, 0.00, -0.00, -1.00, 187.1, 91.1)">o</text><text xml:space="preserve" font-family="Avenir-Light,Avenir" font-size="30.2" fill="#FEFFFF" transform="matrix(1.00, 0.00, -0.00, -1.00, 205.1, 91.1)">r</text><text xml:space="preserve" font-family="Avenir-Light,Avenir" font-size="30.2" fill="#FEFFFF" transform="matrix(1.00, 0.00, -0.00, -1.00, 215.1, 91.1)"> </text><text xml:space="preserve" font-family="Avenir-Light,Avenir" font-size="30.2" fill="#FEFFFF" transform="matrix(1.00, 0.00, -0.00, -1.00, 223.0, 91.1)">b</text><text xml:space="preserve" font-family="Avenir-Light,Avenir" font-size="30.2" fill="#FEFFFF" transform="matrix(1.00, 0.00, -0.00, -1.00, 241.5, 91.1)">l</text><text xml:space="preserve" font-family="Avenir-Light,Avenir" font-size="30.2" fill="#FEFFFF" transform="matrix(1.00, 0.00, -0.00, -1.00, 248.7, 91.1)">a</text><text xml:space="preserve" font-family="Avenir-Light,Avenir" font-size="30.2" fill="#FEFFFF" transform="matrix(1.00, 0.00, -0.00, -1.00, 264.4, 91.1)">d</text><text xml:space="preserve" font-family="Avenir-Light,Avenir" font-size="30.2" fill="#FEFFFF" transform="matrix(1.00, 0.00, -0.00, -1.00, 282.9, 91.1)">e</text><text xml:space="preserve" font-family="Avenir-Light,Avenir" font-size="30.2" fill="#FEFFFF" transform="matrix(1.00, 0.00, -0.00, -1.00, 299.7, 91.1)">s</text><text xml:space="preserve" font-family="Avenir-Light,Avenir" font-size="30.2" fill="#FEFFFF" transform="matrix(1.00, 0.00, -0.00, -1.00, 312.6, 91.1)"> </text><text xml:space="preserve" font-family="Avenir-Light,Avenir" font-size="30.2" fill="#FEFFFF" transform="matrix(1.00, 0.00, -0.00, -1.00, 320.5, 91.1)">o</text><text xml:space="preserve" font-family="Avenir-Light,Avenir" font-size="30.2" fill="#FEFFFF" transform="matrix(1.00, 0.00, -0.00, -1.00, 338.4, 91.1)">f</text><text xml:space="preserve" font-family="Avenir-Light,Avenir" font-size="30.2" fill="#FEFFFF" transform="matrix(1.00, 0.00, -0.00, -1.00, 347.4, 91.1)"> </text><text xml:space="preserve" font-family="Avenir-Light,Avenir" font-size="30.2" fill="#FEFFFF" transform="matrix(1.00, 0.00, -0.00, -1.00, 355.2, 91.1)">g</text><text xml:space="preserve" font-family="Avenir-Light,Avenir" font-size="30.2" fill="#FEFFFF" transform="matrix(1.00, 0.00, -0.00, -1.00, 373.7, 91.1)">r</text><text xml:space="preserve" font-family="Avenir-Light,Avenir" font-size="30.2" fill="#FEFFFF" transform="matrix(1.00, 0.00, -0.00, -1.00, 383.8, 91.1)">a</text><text xml:space="preserve" font-family="Avenir-Light,Avenir" font-size="30.2" fill="#FEFFFF" transform="matrix(1.00, 0.00, -0.00, -1.00, 399.5, 91.1)">s</text><text xml:space="preserve" font-family="Avenir-Light,Avenir" font-size="30.2" fill="#FEFFFF" transform="matrix(1.00, 0.00, -0.00, -1.00, 412.4, 91.1)">s</text><text xml:space="preserve" font-family="Avenir-Light,Avenir" font-size="30.2" fill="#FEFFFF" transform="matrix(1.00, 0.00, -0.00, -1.00, 425.2, 91.1)">,</text><text xml:space="preserve" font-family="Avenir-Light,Avenir" font-size="30.2" fill="#FEFFFF" transform="matrix(1.00, 0.00, -0.00, -1.00, 433.1, 91.1)"> </text><text xml:space="preserve" font-family="Avenir-Light,Avenir" font-size="30.2" fill="#FEFFFF" transform="matrix(1.00, 0.00, -0.00, -1.00, 441.0, 91.1)">i</text><text xml:space="preserve" font-family="Avenir-Light,Avenir" font-size="30.2" fill="#FEFFFF" transform="matrix(1.00, 0.00, -0.00, -1.00, 448.2, 91.1)">t</text><text xml:space="preserve" font-family="Avenir-Light,Avenir" font-size="30.2" fill="#FEFFFF" transform="matrix(1.00, 0.00, -0.00, -1.00, 458.3, 91.1)">s</text><text xml:space="preserve" font-family="Avenir-Light,Avenir" font-size="30.2" fill="#FEFFFF" transform="matrix(1.00, 0.00, -0.00, -1.00, 471.2, 91.1)"> </text><text xml:space="preserve" font-family="Avenir-Light,Avenir" font-size="30.2" fill="#FEFFFF" transform="matrix(1.00, 0.00, -0.00, -1.00, 479.0, 91.1)">p</text><text xml:space="preserve" font-family="Avenir-Light,Avenir" font-size="30.2" fill="#FEFFFF" transform="matrix(1.00, 0.00, -0.00, -1.00, 497.5, 91.1)">a</text><text xml:space="preserve" font-family="Avenir-Light,Avenir" font-size="30.2" fill="#FEFFFF" transform="matrix(1.00, 0.00, -0.00, -1.00, 513.2, 91.1)">r</text><text xml:space="preserve" font-family="Avenir-Light,Avenir" font-size="30.2" fill="#FEFFFF" transform="matrix(1.00, 0.00, -0.00, -1.00, 523.3, 91.1)">t</text><text xml:space="preserve" font-family="Avenir-Light,Avenir" font-size="30.2" fill="#FEFFFF" transform="matrix(1.00, 0.00, -0.00, -1.00, 533.3, 91.1)">s</text><text xml:space="preserve" font-family="Avenir-Light,Avenir" font-size="30.2" fill="#FEFFFF" transform="matrix(1.00, 0.00, -0.00, -1.00, 546.2, 91.1)"> </text><text xml:space="preserve" font-family="Avenir-Light,Avenir" font-size="30.2" fill="#FEFFFF" transform="matrix(1.00, 0.00, -0.00, -1.00, 554.1, 91.1)">a</text><text xml:space="preserve" font-family="Avenir-Light,Avenir" font-size="30.2" fill="#FEFFFF" transform="matrix(1.00, 0.00, -0.00, -1.00, 569.8, 91.1)">r</text><text xml:space="preserve" font-family="Avenir-Light,Avenir" font-size="30.2" fill="#FEFFFF" transform="matrix(1.00, 0.00, -0.00, -1.00, 579.3, 91.1)">e</text><text xml:space="preserve" font-family="Avenir-Light,Avenir" font-size="30.2" fill="#FEFFFF" transform="matrix(1.00, 0.00, -0.00, -1.00, 596.1, 91.1)"> </text><text xml:space="preserve" font-family="Avenir-Light,Avenir" font-size="30.2" fill="#FEFFFF" transform="matrix(1.00, 0.00, -0.00, -1.00, 604.0, 91.1)">g</text><text xml:space="preserve" font-family="Avenir-Light,Avenir" font-size="30.2" fill="#FEFFFF" transform="matrix(1.00, 0.00, -0.00, -1.00, 622.5, 91.1)">o</text><text xml:space="preserve" font-family="Avenir-Light,Avenir" font-size="30.2" fill="#FEFFFF" transform="matrix(1.00, 0.00, -0.00, -1.00, 640.4, 91.1)">v</text><text xml:space="preserve" font-family="Avenir-Light,Avenir" font-size="30.2" fill="#FEFFFF" transform="matrix(1.00, 0.00, -0.00, -1.00, 654.4, 91.1)">e</text><text xml:space="preserve" font-family="Avenir-Light,Avenir" font-size="30.2" fill="#FEFFFF" transform="matrix(1.00, 0.00, -0.00, -1.00, 671.2, 91.1)">r</text><text xml:space="preserve" font-family="Avenir-Light,Avenir" font-size="30.2" fill="#FEFFFF" transform="matrix(1.00, 0.00, -0.00, -1.00, 681.3, 91.1)">n</text><text xml:space="preserve" font-family="Avenir-Light,Avenir" font-size="30.2" fill="#FEFFFF" transform="matrix(1.00, 0.00, -0.00, -1.00, 698.1, 91.1)">e</text><text xml:space="preserve" font-family="Avenir-Light,Avenir" font-size="30.2" fill="#FEFFFF" transform="matrix(1.00, 0.00, -0.00, -1.00, 714.9, 91.1)">d</text><text xml:space="preserve" font-family="Avenir-Light,Avenir" font-size="30.2" fill="#FEFFFF" transform="matrix(1.00, 0.00, -0.00, -1.00, 733.4, 91.1)"> </text><text xml:space="preserve" font-family="Avenir-Light,Avenir" font-size="30.2" fill="#FEFFFF" transform="matrix(1.00, 0.00, -0.00, -1.00, 741.3, 91.1)">b</text><text xml:space="preserve" font-family="Avenir-Light,Avenir" font-size="30.2" fill="#FEFFFF" transform="matrix(1.00, 0.00, -0.00, -1.00, 759.8, 91.1)">y</text><text xml:space="preserve" font-family="Avenir-Light,Avenir" font-size="30.2" fill="#FEFFFF" transform="matrix(1.00, 0.00, -0.00, -1.00, 773.8, 91.1)"> </text><text xml:space="preserve" font-family="Avenir-Light,Avenir" font-size="30.2" fill="#FEFFFF" transform="matrix(1.00, 0.00, -0.00, -1.00, 781.6, 91.1)">t</text><text xml:space="preserve" font-family="Avenir-Light,Avenir" font-size="30.2" fill="#FEFFFF" transform="matrix(1.00, 0.00, -0.00, -1.00, 791.7, 91.1)">h</text><text xml:space="preserve" font-family="Avenir-Light,Avenir" font-size="30.2" fill="#FEFFFF" transform="matrix(1.00, 0.00, -0.00, -1.00, 808.5, 91.1)">e</text><text xml:space="preserve" font-family="Avenir-Light,Avenir" font-size="30.2" fill="#FEFFFF" transform="matrix(1.00, 0.00, -0.00, -1.00, 825.3, 91.1)"> </text><text xml:space="preserve" font-family="Avenir-Light,Avenir" font-size="30.2" fill="#FEFFFF" transform="matrix(1.00, 0.00, -0.00, -1.00, 1.0, 50.1)">e</text><text xml:space="preserve" font-family="Avenir-Light,Avenir" font-size="30.2" fill="#FEFFFF" transform="matrix(1.00, 0.00, -0.00, -1.00, 17.8, 50.1)">n</text><text xml:space="preserve" font-family="Avenir-Light,Avenir" font-size="30.2" fill="#FEFFFF" transform="matrix(1.00, 0.00, -0.00, -1.00, 34.6, 50.1)">d</text><text xml:space="preserve" font-family="Avenir-Light,Avenir" font-size="30.2" fill="#FEFFFF" transform="matrix(1.00, 0.00, -0.00, -1.00, 53.1, 50.1)">l</text><text xml:space="preserve" font-family="Avenir-Light,Avenir" font-size="30.2" fill="#FEFFFF" transform="matrix(1.00, 0.00, -0.00, -1.00, 60.4, 50.1)">e</text><text xml:space="preserve" font-family="Avenir-Light,Avenir" font-size="30.2" fill="#FEFFFF" transform="matrix(1.00, 0.00, -0.00, -1.00, 77.2, 50.1)">s</text><text xml:space="preserve" font-family="Avenir-Light,Avenir" font-size="30.2" fill="#FEFFFF" transform="matrix(1.00, 0.00, -0.00, -1.00, 90.1, 50.1)">s</text><text xml:space="preserve" font-family="Avenir-Light,Avenir" font-size="30.2" fill="#FEFFFF" transform="matrix(1.00, 0.00, -0.00, -1.00, 103.0, 50.1)"> </text><text xml:space="preserve" font-family="Avenir-Light,Avenir" font-size="30.2" fill="#FEFFFF" transform="matrix(1.00, 0.00, -0.00, -1.00, 110.8, 50.1)">p</text><text xml:space="preserve" font-family="Avenir-Light,Avenir" font-size="30.2" fill="#FEFFFF" transform="matrix(1.00, 0.00, -0.00, -1.00, 129.3, 50.1)">l</text><text xml:space="preserve" font-family="Avenir-Light,Avenir" font-size="30.2" fill="#FEFFFF" transform="matrix(1.00, 0.00, -0.00, -1.00, 136.6, 50.1)">a</text><text xml:space="preserve" font-family="Avenir-Light,Avenir" font-size="30.2" fill="#FEFFFF" transform="matrix(1.00, 0.00, -0.00, -1.00, 152.3, 50.1)">y</text><text xml:space="preserve" font-family="Avenir-Light,Avenir" font-size="30.2" fill="#FEFFFF" transform="matrix(1.00, 0.00, -0.00, -1.00, 166.3, 50.1)"> </text><text xml:space="preserve" font-family="Avenir-Light,Avenir" font-size="30.2" fill="#FEFFFF" transform="matrix(1.00, 0.00, -0.00, -1.00, 174.1, 50.1)">o</text><text xml:space="preserve" font-family="Avenir-Light,Avenir" font-size="30.2" fill="#FEFFFF" transform="matrix(1.00, 0.00, -0.00, -1.00, 192.1, 50.1)">f</text><text xml:space="preserve" font-family="Avenir-Light,Avenir" font-size="30.2" fill="#FEFFFF" transform="matrix(1.00, 0.00, -0.00, -1.00, 201.0, 50.1)"> </text><text xml:space="preserve" font-family="Avenir-Light,Avenir" font-size="30.2" fill="#FEFFFF" transform="matrix(1.00, 0.00, -0.00, -1.00, 208.9, 50.1)">r</text><text xml:space="preserve" font-family="Avenir-Light,Avenir" font-size="30.2" fill="#FEFFFF" transform="matrix(1.00, 0.00, -0.00, -1.00, 218.4, 50.1)">e</text><text xml:space="preserve" font-family="Avenir-Light,Avenir" font-size="30.2" fill="#FEFFFF" transform="matrix(1.00, 0.00, -0.00, -1.00, 235.2, 50.1)">p</text><text xml:space="preserve" font-family="Avenir-Light,Avenir" font-size="30.2" fill="#FEFFFF" transform="matrix(1.00, 0.00, -0.00, -1.00, 253.7, 50.1)">e</text><text xml:space="preserve" font-family="Avenir-Light,Avenir" font-size="30.2" fill="#FEFFFF" transform="matrix(1.00, 0.00, -0.00, -1.00, 270.5, 50.1)">t</text><text xml:space="preserve" font-family="Avenir-Light,Avenir" font-size="30.2" fill="#FEFFFF" transform="matrix(1.00, 0.00, -0.00, -1.00, 280.6, 50.1)">i</text><text xml:space="preserve" font-family="Avenir-Light,Avenir" font-size="30.2" fill="#FEFFFF" transform="matrix(1.00, 0.00, -0.00, -1.00, 287.9, 50.1)">t</text><text xml:space="preserve" font-family="Avenir-Light,Avenir" font-size="30.2" fill="#FEFFFF" transform="matrix(1.00, 0.00, -0.00, -1.00, 298.0, 50.1)">i</text><text xml:space="preserve" font-family="Avenir-Light,Avenir" font-size="30.2" fill="#FEFFFF" transform="matrix(1.00, 0.00, -0.00, -1.00, 305.2, 50.1)">o</text><text xml:space="preserve" font-family="Avenir-Light,Avenir" font-size="30.2" fill="#FEFFFF" transform="matrix(1.00, 0.00, -0.00, -1.00, 323.2, 50.1)">n</text><text xml:space="preserve" font-family="Avenir-Light,Avenir" font-size="30.2" fill="#FEFFFF" transform="matrix(1.00, 0.00, -0.00, -1.00, 340.0, 50.1)"> </text><text xml:space="preserve" font-family="Avenir-Light,Avenir" font-size="30.2" fill="#FEFFFF" transform="matrix(1.00, 0.00, -0.00, -1.00, 347.9, 50.1)">a</text><text xml:space="preserve" font-family="Avenir-Light,Avenir" font-size="30.2" fill="#FEFFFF" transform="matrix(1.00, 0.00, -0.00, -1.00, 363.6, 50.1)">n</text><text xml:space="preserve" font-family="Avenir-Light,Avenir" font-size="30.2" fill="#FEFFFF" transform="matrix(1.00, 0.00, -0.00, -1.00, 380.4, 50.1)">d</text><text xml:space="preserve" font-family="Avenir-Light,Avenir" font-size="30.2" fill="#FEFFFF" transform="matrix(1.00, 0.00, -0.00, -1.00, 398.9, 50.1)"> </text><text xml:space="preserve" font-family="Avenir-Light,Avenir" font-size="30.2" fill="#FEFFFF" transform="matrix(1.00, 0.00, -0.00, -1.00, 406.7, 50.1)">v</text><text xml:space="preserve" font-family="Avenir-Light,Avenir" font-size="30.2" fill="#FEFFFF" transform="matrix(1.00, 0.00, -0.00, -1.00, 420.7, 50.1)">a</text><text xml:space="preserve" font-family="Avenir-Light,Avenir" font-size="30.2" fill="#FEFFFF" transform="matrix(1.00, 0.00, -0.00, -1.00, 436.4, 50.1)">r</text><text xml:space="preserve" font-family="Avenir-Light,Avenir" font-size="30.2" fill="#FEFFFF" transform="matrix(1.00, 0.00, -0.00, -1.00, 446.5, 50.1)">i</text><text xml:space="preserve" font-family="Avenir-Light,Avenir" font-size="30.2" fill="#FEFFFF" transform="matrix(1.00, 0.00, -0.00, -1.00, 453.8, 50.1)">e</text><text xml:space="preserve" font-family="Avenir-Light,Avenir" font-size="30.2" fill="#FEFFFF" transform="matrix(1.00, 0.00, -0.00, -1.00, 470.6, 50.1)">t</text><text xml:space="preserve" font-family="Avenir-Light,Avenir" font-size="30.2" fill="#FEFFFF" transform="matrix(1.00, 0.00, -0.00, -1.00, 480.6, 50.1)">y</text><text xml:space="preserve" font-family="Avenir-Light,Avenir" font-size="30.2" fill="#FEFFFF" transform="matrix(1.00, 0.00, -0.00, -1.00, 494.6, 50.1)"> </text><text xml:space="preserve" font-family="Avenir-Light,Avenir" font-size="30.2" fill="#FEFFFF" transform="matrix(1.00, 0.00, -0.00, -1.00, 502.5, 50.1)">c</text><text xml:space="preserve" font-family="Avenir-Light,Avenir" font-size="30.2" fill="#FEFFFF" transform="matrix(1.00, 0.00, -0.00, -1.00, 517.0, 50.1)">r</text><text xml:space="preserve" font-family="Avenir-Light,Avenir" font-size="30.2" fill="#FEFFFF" transform="matrix(1.00, 0.00, -0.00, -1.00, 526.6, 50.1)">e</text><text xml:space="preserve" font-family="Avenir-Light,Avenir" font-size="30.2" fill="#FEFFFF" transform="matrix(1.00, 0.00, -0.00, -1.00, 543.4, 50.1)">a</text><text xml:space="preserve" font-family="Avenir-Light,Avenir" font-size="30.2" fill="#FEFFFF" transform="matrix(1.00, 0.00, -0.00, -1.00, 559.1, 50.1)">t</text><text xml:space="preserve" font-family="Avenir-Light,Avenir" font-size="30.2" fill="#FEFFFF" transform="matrix(1.00, 0.00, -0.00, -1.00, 569.1, 50.1)">e</text><text xml:space="preserve" font-family="Avenir-Light,Avenir" font-size="30.2" fill="#FEFFFF" transform="matrix(1.00, 0.00, -0.00, -1.00, 586.0, 50.1)">d</text><text xml:space="preserve" font-family="Avenir-Light,Avenir" font-size="30.2" fill="#FEFFFF" transform="matrix(1.00, 0.00, -0.00, -1.00, 604.4, 50.1)"> </text><text xml:space="preserve" font-family="Avenir-Light,Avenir" font-size="30.2" fill="#FEFFFF" transform="matrix(1.00, 0.00, -0.00, -1.00, 612.3, 50.1)">i</text><text xml:space="preserve" font-family="Avenir-Light,Avenir" font-size="30.2" fill="#FEFFFF" transform="matrix(1.00, 0.00, -0.00, -1.00, 619.6, 50.1)">n</text><text xml:space="preserve" font-family="Avenir-Light,Avenir" font-size="30.2" fill="#FEFFFF" transform="matrix(1.00, 0.00, -0.00, -1.00, 636.4, 50.1)"> </text><text xml:space="preserve" font-family="Avenir-Light,Avenir" font-size="30.2" fill="#FEFFFF" transform="matrix(1.00, 0.00, -0.00, -1.00, 644.2, 50.1)">t</text><text xml:space="preserve" font-family="Avenir-Light,Avenir" font-size="30.2" fill="#FEFFFF" transform="matrix(1.00, 0.00, -0.00, -1.00, 654.3, 50.1)">h</text><text xml:space="preserve" font-family="Avenir-Light,Avenir" font-size="30.2" fill="#FEFFFF" transform="matrix(1.00, 0.00, -0.00, -1.00, 671.1, 50.1)">e</text><text xml:space="preserve" font-family="Avenir-Light,Avenir" font-size="30.2" fill="#FEFFFF" transform="matrix(1.00, 0.00, -0.00, -1.00, 688.0, 50.1)"> </text><text xml:space="preserve" font-family="Avenir-Light,Avenir" font-size="30.2" fill="#FEFFFF" transform="matrix(1.00, 0.00, -0.00, -1.00, 695.8, 50.1)">p</text><text xml:space="preserve" font-family="Avenir-Light,Avenir" font-size="30.2" fill="#FEFFFF" transform="matrix(1.00, 0.00, -0.00, -1.00, 714.3, 50.1)">r</text><text xml:space="preserve" font-family="Avenir-Light,Avenir" font-size="30.2" fill="#FEFFFF" transform="matrix(1.00, 0.00, -0.00, -1.00, 723.8, 50.1)">e</text><text xml:space="preserve" font-family="Avenir-Light,Avenir" font-size="30.2" fill="#FEFFFF" transform="matrix(1.00, 0.00, -0.00, -1.00, 740.6, 50.1)">s</text><text xml:space="preserve" font-family="Avenir-Light,Avenir" font-size="30.2" fill="#FEFFFF" transform="matrix(1.00, 0.00, -0.00, -1.00, 753.5, 50.1)">e</text><text xml:space="preserve" font-family="Avenir-Light,Avenir" font-size="30.2" fill="#FEFFFF" transform="matrix(1.00, 0.00, -0.00, -1.00, 770.3, 50.1)">n</text><text xml:space="preserve" font-family="Avenir-Light,Avenir" font-size="30.2" fill="#FEFFFF" transform="matrix(1.00, 0.00, -0.00, -1.00, 787.1, 50.1)">c</text><text xml:space="preserve" font-family="Avenir-Light,Avenir" font-size="30.2" fill="#FEFFFF" transform="matrix(1.00, 0.00, -0.00, -1.00, 801.7, 50.1)">e</text><text xml:space="preserve" font-family="Avenir-Light,Avenir" font-size="30.2" fill="#FEFFFF" transform="matrix(1.00, 0.00, -0.00, -1.00, 818.5, 50.1)"> </text><text xml:space="preserve" font-family="Avenir-Light,Avenir" font-size="30.2" fill="#FEFFFF" transform="matrix(1.00, 0.00, -0.00, -1.00, 826.4, 50.1)">o</text><text xml:space="preserve" font-family="Avenir-Light,Avenir" font-size="30.2" fill="#FEFFFF" transform="matrix(1.00, 0.00, -0.00, -1.00, 844.3, 50.1)">f</text><text xml:space="preserve" font-family="Avenir-Light,Avenir" font-size="30.2" fill="#FEFFFF" transform="matrix(1.00, 0.00, -0.00, -1.00, 853.3, 50.1)"> </text><text xml:space="preserve" font-family="Avenir-Heavy,Avenir" font-weight="bold" font-size="30.2" fill="#FEFFFF" transform="matrix(1.00, 0.00, -0.00, -1.00, 861.1, 50.1)">t</text><text xml:space="preserve" font-family="Avenir-Heavy,Avenir" font-weight="bold" font-size="30.2" fill="#FEFFFF" transform="matrix(1.00, 0.00, -0.00, -1.00, 872.9, 50.1)">h</text><text xml:space="preserve" font-family="Avenir-Heavy,Avenir" font-weight="bold" font-size="30.2" fill="#FEFFFF" transform="matrix(1.00, 0.00, -0.00, -1.00, 890.3, 50.1)">e</text><text xml:space="preserve" font-family="Avenir-Heavy,Avenir" font-weight="bold" font-size="30.2" fill="#FEFFFF" transform="matrix(1.00, 0.00, -0.00, -1.00, 907.7, 50.1)"> </text><text xml:space="preserve" font-family="Avenir-Heavy,Avenir" font-weight="bold" font-size="30.2" fill="#FEFFFF" transform="matrix(1.00, 0.00, -0.00, -1.00, 1.0, 9.1)">f</text><text xml:space="preserve" font-family="Avenir-Heavy,Avenir" font-weight="bold" font-size="30.2" fill="#FEFFFF" transform="matrix(1.00, 0.00, -0.00, -1.00, 11.6, 9.1)">a</text><text xml:space="preserve" font-family="Avenir-Heavy,Avenir" font-weight="bold" font-size="30.2" fill="#FEFFFF" transform="matrix(1.00, 0.00, -0.00, -1.00, 27.9, 9.1)">c</text><text xml:space="preserve" font-family="Avenir-Heavy,Avenir" font-weight="bold" font-size="30.2" fill="#FEFFFF" transform="matrix(1.00, 0.00, -0.00, -1.00, 42.5, 9.1)">t</text><text xml:space="preserve" font-family="Avenir-Heavy,Avenir" font-weight="bold" font-size="30.2" fill="#FEFFFF" transform="matrix(1.00, 0.00, -0.00, -1.00, 54.2, 9.1)"> </text><text xml:space="preserve" font-family="Avenir-Heavy,Avenir" font-weight="bold" font-size="30.2" fill="#FEFFFF" transform="matrix(1.00, 0.00, -0.00, -1.00, 63.2, 9.1)">t</text><text xml:space="preserve" font-family="Avenir-Heavy,Avenir" font-weight="bold" font-size="30.2" fill="#FEFFFF" transform="matrix(1.00, 0.00, -0.00, -1.00, 75.0, 9.1)">h</text><text xml:space="preserve" font-family="Avenir-Heavy,Avenir" font-weight="bold" font-size="30.2" fill="#FEFFFF" transform="matrix(1.00, 0.00, -0.00, -1.00, 92.3, 9.1)">a</text><text xml:space="preserve" font-family="Avenir-Heavy,Avenir" font-weight="bold" font-size="30.2" fill="#FEFFFF" transform="matrix(1.00, 0.00, -0.00, -1.00, 108.6, 9.1)">t</text><text xml:space="preserve" font-family="Avenir-Heavy,Avenir" font-weight="bold" font-size="30.2" fill="#FEFFFF" transform="matrix(1.00, 0.00, -0.00, -1.00, 120.3, 9.1)"> </text><text xml:space="preserve" font-family="Avenir-Heavy,Avenir" font-weight="bold" font-size="30.2" fill="#FEFFFF" transform="matrix(1.00, 0.00, -0.00, -1.00, 129.3, 9.1)">a</text><text xml:space="preserve" font-family="Avenir-Heavy,Avenir" font-weight="bold" font-size="30.2" fill="#FEFFFF" transform="matrix(1.00, 0.00, -0.00, -1.00, 145.5, 9.1)">l</text><text xml:space="preserve" font-family="Avenir-Heavy,Avenir" font-weight="bold" font-size="30.2" fill="#FEFFFF" transform="matrix(1.00, 0.00, -0.00, -1.00, 153.4, 9.1)">l</text><text xml:space="preserve" font-family="Avenir-Heavy,Avenir" font-weight="bold" font-size="30.2" fill="#FEFFFF" transform="matrix(1.00, 0.00, -0.00, -1.00, 161.3, 9.1)"> </text><text xml:space="preserve" font-family="Avenir-Heavy,Avenir" font-weight="bold" font-size="30.2" fill="#FEFFFF" transform="matrix(1.00, 0.00, -0.00, -1.00, 170.2, 9.1)">t</text><text xml:space="preserve" font-family="Avenir-Heavy,Avenir" font-weight="bold" font-size="30.2" fill="#FEFFFF" transform="matrix(1.00, 0.00, -0.00, -1.00, 182.0, 9.1)">h</text><text xml:space="preserve" font-family="Avenir-Heavy,Avenir" font-weight="bold" font-size="30.2" fill="#FEFFFF" transform="matrix(1.00, 0.00, -0.00, -1.00, 199.4, 9.1)">i</text><text xml:space="preserve" font-family="Avenir-Heavy,Avenir" font-weight="bold" font-size="30.2" fill="#FEFFFF" transform="matrix(1.00, 0.00, -0.00, -1.00, 207.2, 9.1)">n</text><text xml:space="preserve" font-family="Avenir-Heavy,Avenir" font-weight="bold" font-size="30.2" fill="#FEFFFF" transform="matrix(1.00, 0.00, -0.00, -1.00, 224.6, 9.1)">g</text><text xml:space="preserve" font-family="Avenir-Heavy,Avenir" font-weight="bold" font-size="30.2" fill="#FEFFFF" transform="matrix(1.00, 0.00, -0.00, -1.00, 243.6, 9.1)">s</text><text xml:space="preserve" font-family="Avenir-Heavy,Avenir" font-weight="bold" font-size="30.2" fill="#FEFFFF" transform="matrix(1.00, 0.00, -0.00, -1.00, 257.1, 9.1)"> </text><text xml:space="preserve" font-family="Avenir-Heavy,Avenir" font-weight="bold" font-size="30.2" fill="#FEFFFF" transform="matrix(1.00, 0.00, -0.00, -1.00, 266.0, 9.1)">p</text><text xml:space="preserve" font-family="Avenir-Heavy,Avenir" font-weight="bold" font-size="30.2" fill="#FEFFFF" transform="matrix(1.00, 0.00, -0.00, -1.00, 285.1, 9.1)">a</text><text xml:space="preserve" font-family="Avenir-Heavy,Avenir" font-weight="bold" font-size="30.2" fill="#FEFFFF" transform="matrix(1.00, 0.00, -0.00, -1.00, 301.3, 9.1)">s</text><text xml:space="preserve" font-family="Avenir-Heavy,Avenir" font-weight="bold" font-size="30.2" fill="#FEFFFF" transform="matrix(1.00, 0.00, -0.00, -1.00, 314.7, 9.1)">s</text><text xml:space="preserve" font-family="Avenir-Light,Avenir" font-size="30.2" fill="#FEFFFF" transform="matrix(1.00, 0.00, -0.00, -1.00, 328.2, 9.1)">.</text><text xml:space="preserve" font-family="Avenir-Light,Avenir" font-size="30.2" fill="#FEFFFF" transform="matrix(1.00, 0.00, -0.00, -1.00, 336.0, 9.1)"> </text><text xml:space="preserve" font-family="Avenir-Light,Avenir" font-size="30.2" fill="#FEFFFF" transform="matrix(1.00, 0.00, -0.00, -1.00, 343.9, 9.1)">T</text><text xml:space="preserve" font-family="Avenir-Light,Avenir" font-size="30.2" fill="#FEFFFF" transform="matrix(1.00, 0.00, -0.00, -1.00, 361.2, 9.1)">h</text><text xml:space="preserve" font-family="Avenir-Light,Avenir" font-size="30.2" fill="#FEFFFF" transform="matrix(1.00, 0.00, -0.00, -1.00, 378.1, 9.1)">i</text><text xml:space="preserve" font-family="Avenir-Light,Avenir" font-size="30.2" fill="#FEFFFF" transform="matrix(1.00, 0.00, -0.00, -1.00, 385.3, 9.1)">s</text><text xml:space="preserve" font-family="Avenir-Light,Avenir" font-size="30.2" fill="#FEFFFF" transform="matrix(1.00, 0.00, -0.00, -1.00, 398.2, 9.1)"> </text><text xml:space="preserve" font-family="Avenir-Light,Avenir" font-size="30.2" fill="#FEFFFF" transform="matrix(1.00, 0.00, -0.00, -1.00, 406.1, 9.1)">i</text><text xml:space="preserve" font-family="Avenir-Light,Avenir" font-size="30.2" fill="#FEFFFF" transform="matrix(1.00, 0.00, -0.00, -1.00, 413.3, 9.1)">s</text><text xml:space="preserve" font-family="Avenir-Light,Avenir" font-size="30.2" fill="#FEFFFF" transform="matrix(1.00, 0.00, -0.00, -1.00, 426.2, 9.1)"> </text><text xml:space="preserve" font-family="Avenir-Light,Avenir" font-size="30.2" fill="#FEFFFF" transform="matrix(1.00, 0.00, -0.00, -1.00, 434.1, 9.1)">t</text><text xml:space="preserve" font-family="Avenir-Light,Avenir" font-size="30.2" fill="#FEFFFF" transform="matrix(1.00, 0.00, -0.00, -1.00, 444.2, 9.1)">h</text><text xml:space="preserve" font-family="Avenir-Light,Avenir" font-size="30.2" fill="#FEFFFF" transform="matrix(1.00, 0.00, -0.00, -1.00, 461.0, 9.1)">e</text><text xml:space="preserve" font-family="Avenir-Light,Avenir" font-size="30.2" fill="#FEFFFF" transform="matrix(1.00, 0.00, -0.00, -1.00, 477.8, 9.1)"> </text><text xml:space="preserve" font-family="Avenir-Light,Avenir" font-size="30.2" fill="#FEFFFF" transform="matrix(1.00, 0.00, -0.00, -1.00, 485.7, 9.1)">q</text><text xml:space="preserve" font-family="Avenir-Light,Avenir" font-size="30.2" fill="#FEFFFF" transform="matrix(1.00, 0.00, -0.00, -1.00, 504.1, 9.1)">u</text><text xml:space="preserve" font-family="Avenir-Light,Avenir" font-size="30.2" fill="#FEFFFF" transform="matrix(1.00, 0.00, -0.00, -1.00, 520.9, 9.1)">a</text><text xml:space="preserve" font-family="Avenir-Light,Avenir" font-size="30.2" fill="#FEFFFF" transform="matrix(1.00, 0.00, -0.00, -1.00, 536.6, 9.1)">l</text><text xml:space="preserve" font-family="Avenir-Light,Avenir" font-size="30.2" fill="#FEFFFF" transform="matrix(1.00, 0.00, -0.00, -1.00, 543.9, 9.1)">i</text><text xml:space="preserve" font-family="Avenir-Light,Avenir" font-size="30.2" fill="#FEFFFF" transform="matrix(1.00, 0.00, -0.00, -1.00, 551.2, 9.1)">t</text><text xml:space="preserve" font-family="Avenir-Light,Avenir" font-size="30.2" fill="#FEFFFF" transform="matrix(1.00, 0.00, -0.00, -1.00, 561.3, 9.1)">y</text><text xml:space="preserve" font-family="Avenir-Light,Avenir" font-size="30.2" fill="#FEFFFF" transform="matrix(1.00, 0.00, -0.00, -1.00, 575.3, 9.1)"> </text><text xml:space="preserve" font-family="Avenir-Light,Avenir" font-size="30.2" fill="#FEFFFF" transform="matrix(1.00, 0.00, -0.00, -1.00, 583.1, 9.1)">i</text><text xml:space="preserve" font-family="Avenir-Light,Avenir" font-size="30.2" fill="#FEFFFF" transform="matrix(1.00, 0.00, -0.00, -1.00, 590.4, 9.1)">t</text><text xml:space="preserve" font-family="Avenir-Light,Avenir" font-size="30.2" fill="#FEFFFF" transform="matrix(1.00, 0.00, -0.00, -1.00, 600.4, 9.1)">s</text><text xml:space="preserve" font-family="Avenir-Light,Avenir" font-size="30.2" fill="#FEFFFF" transform="matrix(1.00, 0.00, -0.00, -1.00, 613.3, 9.1)">e</text><text xml:space="preserve" font-family="Avenir-Light,Avenir" font-size="30.2" fill="#FEFFFF" transform="matrix(1.00, 0.00, -0.00, -1.00, 630.1, 9.1)">l</text><text xml:space="preserve" font-family="Avenir-Light,Avenir" font-size="30.2" fill="#FEFFFF" transform="matrix(1.00, 0.00, -0.00, -1.00, 637.4, 9.1)">f</text><text xml:space="preserve" font-family="Avenir-Light,Avenir" font-size="30.2" fill="#FEFFFF" transform="matrix(1.00, 0.00, -0.00, -1.00, 646.4, 9.1)">”</text></g></svg>