<?xml version="1.0" encoding="UTF-8"?><svg xmlns="http://www.w3.org/2000/svg" xmlns:xlink="http://www.w3.org/1999/xlink" clip-rule="evenodd" stroke-miterlimit="10" viewBox="0 0 1024 768"><desc>SVG generated by Keynote</desc><defs></defs><g transform="matrix(1.00, 0.00, -0.00, -1.00, 0.0, 768.0)"><path d="M 0.0 0.0 L 1024.0 0.0 L 1024.0 768.0 L 0.0 768.0 Z M 0.0 0.0 " fill="#000000"></path><path d="M 758.7 306.8 C 626.5 306.8 519.4 253.7 519.4 188.1 C 519.4 154.7 547.2 124.6 591.9 103.0 L 521.5 34.7 L 644.8 83.7 C 678.7 74.5 717.5 69.3 758.7 69.3 C 890.9 69.3 998.1 122.5 998.1 188.1 C 998.1 253.7 890.9 306.8 758.7 306.8 Z M 758.7 306.8 " fill="#FF2E00" fill-opacity="0.54"></path><text xml:space="preserve" font-family="Avenir-Light,Avenir" font-size="45.0" fill="#FEFFFF" transform="matrix(1.00, 0.00, -0.00, -1.00, 74.0, 671.5)">R</text><text xml:space="preserve" font-family="Avenir-Light,Avenir" font-size="45.0" fill="#FEFFFF" transform="matrix(1.00, 0.00, -0.00, -1.00, 107.9, 671.5)">E</text><text xml:space="preserve" font-family="Avenir-Light,Avenir" font-size="45.0" fill="#FEFFFF" transform="matrix(1.00, 0.00, -0.00, -1.00, 141.8, 671.5)">L</text><text xml:space="preserve" font-family="Avenir-Light,Avenir" font-size="45.0" fill="#FEFFFF" transform="matrix(1.00, 0.00, -0.00, -1.00, 171.5, 671.5)">I</text><text xml:space="preserve" font-family="Avenir-Light,Avenir" font-size="45.0" fill="#FEFFFF" transform="matrix(1.00, 0.00, -0.00, -1.00, 190.4, 671.5)">A</text><text xml:space="preserve" font-family="Avenir-Light,Avenir" font-size="45.0" fill="#FEFFFF" transform="matrix(1.00, 0.00, -0.00, -1.00, 228.4, 671.5)">B</text><text xml:space="preserve" font-family="Avenir-Light,Avenir" font-size="45.0" fill="#FEFFFF" transform="matrix(1.00, 0.00, -0.00, -1.00, 263.9, 671.5)">L</text><text xml:space="preserve" font-family="Avenir-Light,Avenir" font-size="45.0" fill="#FEFFFF" transform="matrix(1.00, 0.00, -0.00, -1.00, 293.6, 671.5)">E</text><text xml:space="preserve" font-family="Avenir-Light,Avenir" font-size="45.0" fill="#FEFFFF" transform="matrix(1.00, 0.00, -0.00, -1.00, 327.5, 671.5)"> </text><text xml:space="preserve" font-family="Avenir-Light,Avenir" font-size="45.0" fill="#FEFFFF" transform="matrix(1.00, 0.00, -0.00, -1.00, 346.4, 671.5)">P</text><text xml:space="preserve" font-family="Avenir-Light,Avenir" font-size="45.0" fill="#FEFFFF" transform="matrix(1.00, 0.00, -0.00, -1.00, 379.5, 671.5)">R</text><text xml:space="preserve" font-family="Avenir-Light,Avenir" font-size="45.0" fill="#FEFFFF" transform="matrix(1.00, 0.00, -0.00, -1.00, 413.3, 671.5)">O</text><text xml:space="preserve" font-family="Avenir-Light,Avenir" font-size="45.0" fill="#FEFFFF" transform="matrix(1.00, 0.00, -0.00, -1.00, 458.1, 671.5)">C</text><text xml:space="preserve" font-family="Avenir-Light,Avenir" font-size="45.0" fill="#FEFFFF" transform="matrix(1.00, 0.00, -0.00, -1.00, 497.0, 671.5)">E</text><text xml:space="preserve" font-family="Avenir-Light,Avenir" font-size="45.0" fill="#FEFFFF" transform="matrix(1.00, 0.00, -0.00, -1.00, 530.8, 671.5)">S</text><text xml:space="preserve" font-family="Avenir-Light,Avenir" font-size="45.0" fill="#FEFFFF" transform="matrix(1.00, 0.00, -0.00, -1.00, 563.1, 671.5)">S</text><text xml:space="preserve" font-family="Avenir-Light,Avenir" font-size="45.0" fill="#FEFFFF" transform="matrix(1.00, 0.00, -0.00, -1.00, 595.3, 671.5)">I</text><text xml:space="preserve" font-family="Avenir-Light,Avenir" font-size="45.0" fill="#FEFFFF" transform="matrix(1.00, 0.00, -0.00, -1.00, 614.2, 671.5)">N</text><text xml:space="preserve" font-family="Avenir-Light,Avenir" font-size="45.0" fill="#FEFFFF" transform="matrix(1.00, 0.00, -0.00, -1.00, 656.4, 671.5)">G</text><path d="M 0.1 0.3 L 340.1 0.3 L 340.1 223.3 L 0.1 223.3 Z M 0.0 0.0 " fill="none" stroke="#55D6FF" stroke-width="1.00" transform="matrix(1.00, 0.00, 0.00, -1.00, 125.4, 560.8)"></path><path d="M -0.1 0.3 L 339.9 0.3 L 339.9 223.3 L -0.1 223.3 Z M 0.0 0.0 " fill="none" stroke="#55D6FF" stroke-width="1.00" transform="matrix(1.00, 0.00, 0.00, -1.00, 558.6, 560.8)"></path><text xml:space="preserve" font-family="Avenir-Light,Avenir" font-size="40.0" fill="#FEFFFF" transform="matrix(1.00, 0.00, -0.00, -1.00, 228.0, 463.8)">P</text><text xml:space="preserve" font-family="Avenir-Light,Avenir" font-size="40.0" fill="#FEFFFF" transform="matrix(1.00, 0.00, -0.00, -1.00, 250.9, 463.8)">r</text><text xml:space="preserve" font-family="Avenir-Light,Avenir" font-size="40.0" fill="#FEFFFF" transform="matrix(1.00, 0.00, -0.00, -1.00, 263.5, 463.8)">o</text><text xml:space="preserve" font-family="Avenir-Light,Avenir" font-size="40.0" fill="#FEFFFF" transform="matrix(1.00, 0.00, -0.00, -1.00, 287.3, 463.8)">c</text><text xml:space="preserve" font-family="Avenir-Light,Avenir" font-size="40.0" fill="#FEFFFF" transform="matrix(1.00, 0.00, -0.00, -1.00, 306.5, 463.8)">e</text><text xml:space="preserve" font-family="Avenir-Light,Avenir" font-size="40.0" fill="#FEFFFF" transform="matrix(1.00, 0.00, -0.00, -1.00, 328.8, 463.8)">s</text><text xml:space="preserve" font-family="Avenir-Light,Avenir" font-size="40.0" fill="#FEFFFF" transform="matrix(1.00, 0.00, -0.00, -1.00, 345.8, 463.8)">s</text><text xml:space="preserve" font-family="Avenir-Light,Avenir" font-size="40.0" fill="#FEFFFF" transform="matrix(1.00, 0.00, -0.00, -1.00, 362.8, 463.8)"> </text><text xml:space="preserve" font-family="Avenir-Light,Avenir" font-size="40.0" fill="#FEFFFF" transform="matrix(1.00, 0.00, -0.00, -1.00, 206.1, 408.8)">c</text><text xml:space="preserve" font-family="Avenir-Light,Avenir" font-size="40.0" fill="#FEFFFF" transform="matrix(1.00, 0.00, -0.00, -1.00, 225.3, 408.8)">o</text><text xml:space="preserve" font-family="Avenir-Light,Avenir" font-size="40.0" fill="#FEFFFF" transform="matrix(1.00, 0.00, -0.00, -1.00, 249.1, 408.8)">m</text><text xml:space="preserve" font-family="Avenir-Light,Avenir" font-size="40.0" fill="#FEFFFF" transform="matrix(1.00, 0.00, -0.00, -1.00, 283.2, 408.8)">m</text><text xml:space="preserve" font-family="Avenir-Light,Avenir" font-size="40.0" fill="#FEFFFF" transform="matrix(1.00, 0.00, -0.00, -1.00, 317.3, 408.8)">a</text><text xml:space="preserve" font-family="Avenir-Light,Avenir" font-size="40.0" fill="#FEFFFF" transform="matrix(1.00, 0.00, -0.00, -1.00, 338.0, 408.8)">n</text><text xml:space="preserve" font-family="Avenir-Light,Avenir" font-size="40.0" fill="#FEFFFF" transform="matrix(1.00, 0.00, -0.00, -1.00, 360.3, 408.8)">d</text><path d="M 0.5 0.3 L 136.3 0.3 L 139.5 0.3 " fill="none" stroke="#55D6FF" stroke-width="7.00" transform="matrix(1.00, 0.00, 0.00, -1.00, 28.5, 448.8)"></path><path d="M 0.0 0.0 L 3.0 5.0 L 6.0 0.0 M 3.0 0.0 L 3.0 5.0 " fill="none" stroke="#55D6FF" stroke-width="1.52" stroke-linejoin="round" transform="matrix(0.00, 4.60, 4.60, 0.00, 164.5, 434.7)"></path><text xml:space="preserve" font-family="Avenir-Light,Avenir" font-size="30.0" fill="#FEFFFF" transform="matrix(1.00, 0.00, -0.00, -1.00, 37.0, 476.4)">c</text><text xml:space="preserve" font-family="Avenir-Light,Avenir" font-size="30.0" fill="#FEFFFF" transform="matrix(1.00, 0.00, -0.00, -1.00, 51.4, 476.4)">m</text><text xml:space="preserve" font-family="Avenir-Light,Avenir" font-size="30.0" fill="#FEFFFF" transform="matrix(1.00, 0.00, -0.00, -1.00, 77.0, 476.4)">d</text><text xml:space="preserve" font-family="Avenir-Light,Avenir" font-size="40.0" fill="#FEFFFF" transform="matrix(1.00, 0.00, -0.00, -1.00, 661.2, 463.8)">P</text><text xml:space="preserve" font-family="Avenir-Light,Avenir" font-size="40.0" fill="#FEFFFF" transform="matrix(1.00, 0.00, -0.00, -1.00, 684.1, 463.8)">r</text><text xml:space="preserve" font-family="Avenir-Light,Avenir" font-size="40.0" fill="#FEFFFF" transform="matrix(1.00, 0.00, -0.00, -1.00, 696.7, 463.8)">o</text><text xml:space="preserve" font-family="Avenir-Light,Avenir" font-size="40.0" fill="#FEFFFF" transform="matrix(1.00, 0.00, -0.00, -1.00, 720.5, 463.8)">c</text><text xml:space="preserve" font-family="Avenir-Light,Avenir" font-size="40.0" fill="#FEFFFF" transform="matrix(1.00, 0.00, -0.00, -1.00, 739.7, 463.8)">e</text><text xml:space="preserve" font-family="Avenir-Light,Avenir" font-size="40.0" fill="#FEFFFF" transform="matrix(1.00, 0.00, -0.00, -1.00, 762.0, 463.8)">s</text><text xml:space="preserve" font-family="Avenir-Light,Avenir" font-size="40.0" fill="#FEFFFF" transform="matrix(1.00, 0.00, -0.00, -1.00, 779.0, 463.8)">s</text><text xml:space="preserve" font-family="Avenir-Light,Avenir" font-size="40.0" fill="#FEFFFF" transform="matrix(1.00, 0.00, -0.00, -1.00, 796.0, 463.8)"> </text><text xml:space="preserve" font-family="Avenir-Light,Avenir" font-size="40.0" fill="#FEFFFF" transform="matrix(1.00, 0.00, -0.00, -1.00, 679.3, 408.8)">e</text><text xml:space="preserve" font-family="Avenir-Light,Avenir" font-size="40.0" fill="#FEFFFF" transform="matrix(1.00, 0.00, -0.00, -1.00, 701.6, 408.8)">v</text><text xml:space="preserve" font-family="Avenir-Light,Avenir" font-size="40.0" fill="#FEFFFF" transform="matrix(1.00, 0.00, -0.00, -1.00, 720.1, 408.8)">e</text><text xml:space="preserve" font-family="Avenir-Light,Avenir" font-size="40.0" fill="#FEFFFF" transform="matrix(1.00, 0.00, -0.00, -1.00, 742.3, 408.8)">n</text><text xml:space="preserve" font-family="Avenir-Light,Avenir" font-size="40.0" fill="#FEFFFF" transform="matrix(1.00, 0.00, -0.00, -1.00, 764.6, 408.8)">t</text><path d="M 0.5 -0.3 L 136.3 -0.3 L 139.5 -0.3 " fill="none" stroke="#55D6FF" stroke-width="7.00" transform="matrix(1.00, 0.00, 0.00, -1.00, 436.5, 449.2)"></path><path d="M 0.0 0.0 L 3.0 5.0 L 6.0 0.0 M 3.0 0.0 L 3.0 5.0 " fill="none" stroke="#55D6FF" stroke-width="1.52" stroke-linejoin="round" transform="matrix(0.00, 4.60, 4.60, 0.00, 572.5, 435.7)"></path><text xml:space="preserve" font-family="Avenir-Light,Avenir" font-size="30.0" fill="#FEFFFF" transform="matrix(1.00, 0.00, -0.00, -1.00, 440.5, 476.4)">n</text><text xml:space="preserve" font-family="Avenir-Light,Avenir" font-size="30.0" fill="#FEFFFF" transform="matrix(1.00, 0.00, -0.00, -1.00, 457.2, 476.4)">o</text><text xml:space="preserve" font-family="Avenir-Light,Avenir" font-size="30.0" fill="#FEFFFF" transform="matrix(1.00, 0.00, -0.00, -1.00, 475.0, 476.4)">t</text><text xml:space="preserve" font-family="Avenir-Light,Avenir" font-size="30.0" fill="#FEFFFF" transform="matrix(1.00, 0.00, -0.00, -1.00, 485.0, 476.4)">i</text><text xml:space="preserve" font-family="Avenir-Light,Avenir" font-size="30.0" fill="#FEFFFF" transform="matrix(1.00, 0.00, -0.00, -1.00, 492.2, 476.4)">f</text><text xml:space="preserve" font-family="Avenir-Light,Avenir" font-size="30.0" fill="#FEFFFF" transform="matrix(1.00, 0.00, -0.00, -1.00, 501.1, 476.4)">i</text><text xml:space="preserve" font-family="Avenir-Light,Avenir" font-size="30.0" fill="#FEFFFF" transform="matrix(1.00, 0.00, -0.00, -1.00, 508.3, 476.4)">c</text><text xml:space="preserve" font-family="Avenir-Light,Avenir" font-size="30.0" fill="#FEFFFF" transform="matrix(1.00, 0.00, -0.00, -1.00, 522.8, 476.4)">a</text><text xml:space="preserve" font-family="Avenir-Light,Avenir" font-size="30.0" fill="#FEFFFF" transform="matrix(1.00, 0.00, -0.00, -1.00, 538.3, 476.4)">t</text><text xml:space="preserve" font-family="Avenir-Light,Avenir" font-size="30.0" fill="#FEFFFF" transform="matrix(1.00, 0.00, -0.00, -1.00, 548.3, 476.4)">i</text><text xml:space="preserve" font-family="Avenir-Light,Avenir" font-size="30.0" fill="#FEFFFF" transform="matrix(1.00, 0.00, -0.00, -1.00, 555.5, 476.4)">o</text><text xml:space="preserve" font-family="Avenir-Light,Avenir" font-size="30.0" fill="#FEFFFF" transform="matrix(1.00, 0.00, -0.00, -1.00, 573.4, 476.4)">n</text><path d="M 0.0 0.0 L 121.9 0.0 L 125.4 0.0 " fill="none" stroke="#55D6FF" stroke-width="7.00" transform="matrix(0.27, -0.96, -0.96, -0.27, 712.6, 366.2)"></path><path d="M 0.0 0.0 L 3.0 5.0 L 6.0 0.0 M 3.0 0.0 L 3.0 5.0 " fill="none" stroke="#55D6FF" stroke-width="1.52" stroke-linejoin="round" transform="matrix(4.43, 1.24, 1.24, -4.43, 732.3, 245.1)"></path><path d="M 0.0 0.0 L 144.9 0.0 L 148.4 0.0 " fill="none" stroke="#55D6FF" stroke-width="7.00" transform="matrix(0.49, -0.87, -0.87, -0.49, 292.9, 369.4)"></path><path d="M 0.0 0.0 L 3.0 5.0 L 6.0 0.0 M 3.0 0.0 L 3.0 5.0 " fill="none" stroke="#55D6FF" stroke-width="1.52" stroke-linejoin="round" transform="matrix(4.01, 2.25, 2.25, -4.01, 351.6, 236.1)"></path><g><clipPath id="clip0x60000a8b1280"><path d="M 365.7 126.1 L 404.4 126.1 L 404.4 211.4 L 365.7 211.4 Z M 365.7 126.1 "></path></clipPath><g clip-path="url(#clip0x60000a8b1280)"><path d="M 0.3 0.4 L 35.3 0.4 L 35.3 82.4 L 0.3 82.4 Z M 0.0 0.0 " fill="none" stroke="#55D6FF" stroke-width="1.00" transform="matrix(1.00, 0.00, 0.00, -1.00, 367.2, 209.9)"></path></g></g><g><clipPath id="clip0x60000a8b12e0"><path d="M 365.7 137.5 L 404.4 137.5 L 404.4 152.3 L 365.7 152.3 Z M 365.7 137.5 "></path></clipPath><g clip-path="url(#clip0x60000a8b12e0)"><path d="M 0.3 0.3 L 35.3 0.3 L 35.3 11.3 L 0.3 11.3 Z M 0.0 0.0 " fill="none" stroke="#55D6FF" stroke-width="1.00" transform="matrix(1.00, 0.00, 0.00, -1.00, 367.2, 150.8)"></path></g></g><g><clipPath id="clip0x60000a8b1520"><path d="M 365.7 161.4 L 404.4 161.4 L 404.4 176.1 L 365.7 176.1 Z M 365.7 161.4 "></path></clipPath><g clip-path="url(#clip0x60000a8b1520)"><path d="M 0.3 0.1 L 35.3 0.1 L 35.3 12.1 L 0.3 12.1 Z M 0.0 0.0 " fill="none" stroke="#55D6FF" stroke-width="1.00" transform="matrix(1.00, 0.00, 0.00, -1.00, 367.2, 174.6)"></path></g></g><g><clipPath id="clip0x60000a8b1760"><path d="M 365.7 183.5 L 404.4 183.5 L 404.4 198.2 L 365.7 198.2 Z M 365.7 183.5 "></path></clipPath><g clip-path="url(#clip0x60000a8b1760)"><path d="M 0.3 0.2 L 35.3 0.2 L 35.3 12.2 L 0.3 12.2 Z M 0.0 0.0 " fill="none" stroke="#55D6FF" stroke-width="1.00" transform="matrix(1.00, 0.00, 0.00, -1.00, 367.2, 196.7)"></path></g></g><text xml:space="preserve" font-family="Avenir-Light,Avenir" font-size="30.0" fill="#FEFFFF" transform="matrix(1.00, 0.00, -0.00, -1.00, 282.7, 90.9)">n</text><text xml:space="preserve" font-family="Avenir-Light,Avenir" font-size="30.0" fill="#FEFFFF" transform="matrix(1.00, 0.00, -0.00, -1.00, 299.4, 90.9)">o</text><text xml:space="preserve" font-family="Avenir-Light,Avenir" font-size="30.0" fill="#FEFFFF" transform="matrix(1.00, 0.00, -0.00, -1.00, 317.2, 90.9)">t</text><text xml:space="preserve" font-family="Avenir-Light,Avenir" font-size="30.0" fill="#FEFFFF" transform="matrix(1.00, 0.00, -0.00, -1.00, 327.2, 90.9)">i</text><text xml:space="preserve" font-family="Avenir-Light,Avenir" font-size="30.0" fill="#FEFFFF" transform="matrix(1.00, 0.00, -0.00, -1.00, 334.4, 90.9)">f</text><text xml:space="preserve" font-family="Avenir-Light,Avenir" font-size="30.0" fill="#FEFFFF" transform="matrix(1.00, 0.00, -0.00, -1.00, 343.3, 90.9)">i</text><text xml:space="preserve" font-family="Avenir-Light,Avenir" font-size="30.0" fill="#FEFFFF" transform="matrix(1.00, 0.00, -0.00, -1.00, 350.5, 90.9)">c</text><text xml:space="preserve" font-family="Avenir-Light,Avenir" font-size="30.0" fill="#FEFFFF" transform="matrix(1.00, 0.00, -0.00, -1.00, 365.0, 90.9)">a</text><text xml:space="preserve" font-family="Avenir-Light,Avenir" font-size="30.0" fill="#FEFFFF" transform="matrix(1.00, 0.00, -0.00, -1.00, 380.5, 90.9)">t</text><text xml:space="preserve" font-family="Avenir-Light,Avenir" font-size="30.0" fill="#FEFFFF" transform="matrix(1.00, 0.00, -0.00, -1.00, 390.5, 90.9)">i</text><text xml:space="preserve" font-family="Avenir-Light,Avenir" font-size="30.0" fill="#FEFFFF" transform="matrix(1.00, 0.00, -0.00, -1.00, 397.7, 90.9)">o</text><text xml:space="preserve" font-family="Avenir-Light,Avenir" font-size="30.0" fill="#FEFFFF" transform="matrix(1.00, 0.00, -0.00, -1.00, 415.6, 90.9)">n</text><text xml:space="preserve" font-family="Avenir-Light,Avenir" font-size="30.0" fill="#FEFFFF" transform="matrix(1.00, 0.00, -0.00, -1.00, 432.2, 90.9)">s</text><path d="M 0.0 0.0 L 125.2 0.0 L 128.7 0.0 " fill="none" stroke="#55D6FF" stroke-width="7.00" transform="matrix(-0.26, -0.97, -0.97, 0.26, 294.4, 368.1)"></path><path d="M 0.0 0.0 L 3.0 5.0 L 6.0 0.0 M 3.0 0.0 L 3.0 5.0 " fill="none" stroke="#55D6FF" stroke-width="1.52" stroke-linejoin="round" transform="matrix(4.44, -1.18, -1.18, -4.44, 248.8, 250.6)"></path><g><clipPath id="clip0x60400b0b6c20"><path d="M 133.8 95.0 L 337.6 95.0 L 337.6 218.7 L 133.8 218.7 Z M 133.8 95.0 "></path></clipPath><g clip-path="url(#clip0x60400b0b6c20)"><path d="M 235.7 217.7 C 180.0 217.7 134.8 195.8 134.8 168.8 C 134.8 152.4 151.5 137.9 177.0 129.0 L 153.5 96.0 L 202.6 122.6 C 213.0 120.8 224.1 119.8 235.7 119.8 C 291.5 119.8 336.6 141.7 336.6 168.8 C 336.6 195.8 291.5 217.7 235.7 217.7 Z M 235.7 217.7 " fill="#1E3B6D"></path></g></g><g><clipPath id="clip0x60400b0b6e60"><path d="M 127.1 138.8 L 344.3 138.8 L 344.3 200.3 L 127.1 200.3 Z M 127.1 138.8 "></path></clipPath><g clip-path="url(#clip0x60400b0b6e60)"><text xml:space="preserve" font-family="Avenir-Light,Avenir" font-size="30.0" fill="#FEFFFF" transform="matrix(1.00, 0.00, -0.00, -1.00, 137.9, 160.1)">d</text><text xml:space="preserve" font-family="Avenir-Light,Avenir" font-size="30.0" fill="#FEFFFF" transform="matrix(1.00, 0.00, -0.00, -1.00, 156.2, 160.1)">o</text><text xml:space="preserve" font-family="Avenir-Light,Avenir" font-size="30.0" fill="#FEFFFF" transform="matrix(1.00, 0.00, -0.00, -1.00, 174.0, 160.1)">m</text><text xml:space="preserve" font-family="Avenir-Light,Avenir" font-size="30.0" fill="#FEFFFF" transform="matrix(1.00, 0.00, -0.00, -1.00, 199.6, 160.1)">a</text><text xml:space="preserve" font-family="Avenir-Light,Avenir" font-size="30.0" fill="#FEFFFF" transform="matrix(1.00, 0.00, -0.00, -1.00, 215.2, 160.1)">i</text><text xml:space="preserve" font-family="Avenir-Light,Avenir" font-size="30.0" fill="#FEFFFF" transform="matrix(1.00, 0.00, -0.00, -1.00, 222.4, 160.1)">n</text><text xml:space="preserve" font-family="Avenir-Light,Avenir" font-size="30.0" fill="#FEFFFF" transform="matrix(1.00, 0.00, -0.00, -1.00, 239.1, 160.1)"> </text><text xml:space="preserve" font-family="Avenir-Light,Avenir" font-size="30.0" fill="#FEFFFF" transform="matrix(1.00, 0.00, -0.00, -1.00, 246.9, 160.1)">e</text><text xml:space="preserve" font-family="Avenir-Light,Avenir" font-size="30.0" fill="#FEFFFF" transform="matrix(1.00, 0.00, -0.00, -1.00, 263.5, 160.1)">v</text><text xml:space="preserve" font-family="Avenir-Light,Avenir" font-size="30.0" fill="#FEFFFF" transform="matrix(1.00, 0.00, -0.00, -1.00, 277.4, 160.1)">e</text><text xml:space="preserve" font-family="Avenir-Light,Avenir" font-size="30.0" fill="#FEFFFF" transform="matrix(1.00, 0.00, -0.00, -1.00, 294.1, 160.1)">n</text><text xml:space="preserve" font-family="Avenir-Light,Avenir" font-size="30.0" fill="#FEFFFF" transform="matrix(1.00, 0.00, -0.00, -1.00, 310.8, 160.1)">t</text><text xml:space="preserve" font-family="Avenir-Light,Avenir" font-size="30.0" fill="#FEFFFF" transform="matrix(1.00, 0.00, -0.00, -1.00, 320.8, 160.1)">s</text></g></g><path d="M 0.0 0.0 L 217.0 0.0 L 220.5 0.0 " fill="none" stroke="#55D6FF" stroke-width="7.00" transform="matrix(0.82, -0.57, -0.57, -0.82, 712.2, 363.7)"></path><path d="M 0.0 0.0 L 3.0 5.0 L 6.0 0.0 M 3.0 0.0 L 3.0 5.0 " fill="none" stroke="#55D6FF" stroke-width="1.52" stroke-linejoin="round" transform="matrix(2.62, 3.78, 3.78, -2.62, 882.9, 229.0)"></path><path d="M -0.1 0.3 L 35.9 0.3 L 35.9 11.3 L -0.1 11.3 Z M 0.0 0.0 " fill="none" stroke="#55D6FF" stroke-width="1.00" transform="matrix(1.00, 0.00, 0.00, -1.00, 580.6, 150.8)"></path><path d="M 14.1 -0.1 L 16.1 -0.1 L 90.1 -0.1 " fill="none" stroke="#55D6FF" stroke-width="4.00" transform="matrix(1.00, 0.00, 0.00, -1.00, 475.9, 144.9)"></path><path d="M 0.0 0.0 L 3.0 5.0 L 6.0 0.0 M 3.0 0.0 L 3.0 5.0 " fill="none" stroke="#55D6FF" stroke-width="1.43" stroke-linejoin="round" transform="matrix(0.00, -2.80, -2.80, 0.00, 492.0, 153.4)"></path><path d="M 0.0 0.0 L 197.5 0.0 L 201.0 0.0 " fill="none" stroke="#55D6FF" stroke-width="7.00" transform="matrix(-0.45, -0.89, -0.89, 0.45, 712.5, 364.3)"></path><path d="M 0.0 0.0 L 3.0 5.0 L 6.0 0.0 M 3.0 0.0 L 3.0 5.0 " fill="none" stroke="#55D6FF" stroke-width="1.52" stroke-linejoin="round" transform="matrix(4.10, -2.08, -2.08, -4.10, 610.9, 194.5)"></path><text xml:space="preserve" font-family="Avenir-Light,Avenir" font-size="30.0" fill="#FEFFFF" transform="matrix(1.00, 0.00, -0.00, -1.00, 553.5, 105.4)">t</text><text xml:space="preserve" font-family="Avenir-Light,Avenir" font-size="30.0" fill="#FEFFFF" transform="matrix(1.00, 0.00, -0.00, -1.00, 563.5, 105.4)">r</text><text xml:space="preserve" font-family="Avenir-Light,Avenir" font-size="30.0" fill="#FEFFFF" transform="matrix(1.00, 0.00, -0.00, -1.00, 573.5, 105.4)">a</text><text xml:space="preserve" font-family="Avenir-Light,Avenir" font-size="30.0" fill="#FEFFFF" transform="matrix(1.00, 0.00, -0.00, -1.00, 589.1, 105.4)">c</text><text xml:space="preserve" font-family="Avenir-Light,Avenir" font-size="30.0" fill="#FEFFFF" transform="matrix(1.00, 0.00, -0.00, -1.00, 603.5, 105.4)">k</text><text xml:space="preserve" font-family="Avenir-Light,Avenir" font-size="30.0" fill="#FEFFFF" transform="matrix(1.00, 0.00, -0.00, -1.00, 617.9, 105.4)">i</text><text xml:space="preserve" font-family="Avenir-Light,Avenir" font-size="30.0" fill="#FEFFFF" transform="matrix(1.00, 0.00, -0.00, -1.00, 625.1, 105.4)">n</text><text xml:space="preserve" font-family="Avenir-Light,Avenir" font-size="30.0" fill="#FEFFFF" transform="matrix(1.00, 0.00, -0.00, -1.00, 641.8, 105.4)">g</text><g><clipPath id="clip0x60400b0b7c40"><path d="M 897.8 126.9 L 936.6 126.9 L 936.6 212.3 L 897.8 212.3 Z M 897.8 126.9 "></path></clipPath><g clip-path="url(#clip0x60400b0b7c40)"><path d="M 0.2 0.3 L 36.2 0.3 L 36.2 82.3 L 0.2 82.3 Z M 0.0 0.0 " fill="none" stroke="#55D6FF" stroke-width="1.00" transform="matrix(1.00, 0.00, 0.00, -1.00, 899.3, 210.8)"></path></g></g><g><clipPath id="clip0x60400b0b7ca0"><path d="M 897.8 138.4 L 936.6 138.4 L 936.6 153.1 L 897.8 153.1 Z M 897.8 138.4 "></path></clipPath><g clip-path="url(#clip0x60400b0b7ca0)"><path d="M 0.2 0.1 L 36.2 0.1 L 36.2 12.1 L 0.2 12.1 Z M 0.0 0.0 " fill="none" stroke="#55D6FF" stroke-width="1.00" transform="matrix(1.00, 0.00, 0.00, -1.00, 899.3, 151.6)"></path></g></g><g><clipPath id="clip0x60400b0b7ee0"><path d="M 897.8 162.2 L 936.6 162.2 L 936.6 177.0 L 897.8 177.0 Z M 897.8 162.2 "></path></clipPath><g clip-path="url(#clip0x60400b0b7ee0)"><path d="M 0.2 -0.0 L 36.2 -0.0 L 36.2 12.0 L 0.2 12.0 Z M 0.0 0.0 " fill="none" stroke="#55D6FF" stroke-width="1.00" transform="matrix(1.00, 0.00, 0.00, -1.00, 899.3, 175.5)"></path></g></g><g><clipPath id="clip0x60400b0b8120"><path d="M 897.8 184.3 L 936.6 184.3 L 936.6 199.0 L 897.8 199.0 Z M 897.8 184.3 "></path></clipPath><g clip-path="url(#clip0x60400b0b8120)"><path d="M 0.2 0.0 L 36.2 0.0 L 36.2 12.0 L 0.2 12.0 Z M 0.0 0.0 " fill="none" stroke="#55D6FF" stroke-width="1.00" transform="matrix(1.00, 0.00, 0.00, -1.00, 899.3, 197.5)"></path></g></g><text xml:space="preserve" font-family="Avenir-Light,Avenir" font-size="30.0" fill="#FEFFFF" transform="matrix(1.00, 0.00, -0.00, -1.00, 814.9, 91.7)">n</text><text xml:space="preserve" font-family="Avenir-Light,Avenir" font-size="30.0" fill="#FEFFFF" transform="matrix(1.00, 0.00, -0.00, -1.00, 831.6, 91.7)">o</text><text xml:space="preserve" font-family="Avenir-Light,Avenir" font-size="30.0" fill="#FEFFFF" transform="matrix(1.00, 0.00, -0.00, -1.00, 849.4, 91.7)">t</text><text xml:space="preserve" font-family="Avenir-Light,Avenir" font-size="30.0" fill="#FEFFFF" transform="matrix(1.00, 0.00, -0.00, -1.00, 859.4, 91.7)">i</text><text xml:space="preserve" font-family="Avenir-Light,Avenir" font-size="30.0" fill="#FEFFFF" transform="matrix(1.00, 0.00, -0.00, -1.00, 866.6, 91.7)">f</text><text xml:space="preserve" font-family="Avenir-Light,Avenir" font-size="30.0" fill="#FEFFFF" transform="matrix(1.00, 0.00, -0.00, -1.00, 875.5, 91.7)">i</text><text xml:space="preserve" font-family="Avenir-Light,Avenir" font-size="30.0" fill="#FEFFFF" transform="matrix(1.00, 0.00, -0.00, -1.00, 882.7, 91.7)">c</text><text xml:space="preserve" font-family="Avenir-Light,Avenir" font-size="30.0" fill="#FEFFFF" transform="matrix(1.00, 0.00, -0.00, -1.00, 897.1, 91.7)">a</text><text xml:space="preserve" font-family="Avenir-Light,Avenir" font-size="30.0" fill="#FEFFFF" transform="matrix(1.00, 0.00, -0.00, -1.00, 912.7, 91.7)">t</text><text xml:space="preserve" font-family="Avenir-Light,Avenir" font-size="30.0" fill="#FEFFFF" transform="matrix(1.00, 0.00, -0.00, -1.00, 922.7, 91.7)">i</text><text xml:space="preserve" font-family="Avenir-Light,Avenir" font-size="30.0" fill="#FEFFFF" transform="matrix(1.00, 0.00, -0.00, -1.00, 929.9, 91.7)">o</text><text xml:space="preserve" font-family="Avenir-Light,Avenir" font-size="30.0" fill="#FEFFFF" transform="matrix(1.00, 0.00, -0.00, -1.00, 947.7, 91.7)">n</text><text xml:space="preserve" font-family="Avenir-Light,Avenir" font-size="30.0" fill="#FEFFFF" transform="matrix(1.00, 0.00, -0.00, -1.00, 964.4, 91.7)">s</text><g><clipPath id="clip0x60400b0b8a80"><path d="M 665.9 95.8 L 869.8 95.8 L 869.8 219.6 L 665.9 219.6 Z M 665.9 95.8 "></path></clipPath><g clip-path="url(#clip0x60400b0b8a80)"><path d="M 767.9 218.6 C 712.1 218.6 666.9 196.6 666.9 169.6 C 666.9 153.2 683.6 138.7 709.2 129.8 L 685.7 96.8 L 734.7 123.4 C 745.1 121.6 756.3 120.6 767.9 120.6 C 823.6 120.6 868.8 142.5 868.8 169.6 C 868.8 196.6 823.6 218.6 767.9 218.6 Z M 767.9 218.6 " fill="#1E3B6D"></path></g></g><g><clipPath id="clip0x60400b0b8ae0"><path d="M 659.3 139.7 L 876.4 139.7 L 876.4 201.1 L 659.3 201.1 Z M 659.3 139.7 "></path></clipPath><g clip-path="url(#clip0x60400b0b8ae0)"><text xml:space="preserve" font-family="Avenir-Light,Avenir" font-size="30.0" fill="#FEFFFF" transform="matrix(1.00, 0.00, -0.00, -1.00, 670.0, 160.9)">d</text><text xml:space="preserve" font-family="Avenir-Light,Avenir" font-size="30.0" fill="#FEFFFF" transform="matrix(1.00, 0.00, -0.00, -1.00, 688.4, 160.9)">o</text><text xml:space="preserve" font-family="Avenir-Light,Avenir" font-size="30.0" fill="#FEFFFF" transform="matrix(1.00, 0.00, -0.00, -1.00, 706.2, 160.9)">m</text><text xml:space="preserve" font-family="Avenir-Light,Avenir" font-size="30.0" fill="#FEFFFF" transform="matrix(1.00, 0.00, -0.00, -1.00, 731.7, 160.9)">a</text><text xml:space="preserve" font-family="Avenir-Light,Avenir" font-size="30.0" fill="#FEFFFF" transform="matrix(1.00, 0.00, -0.00, -1.00, 747.3, 160.9)">i</text><text xml:space="preserve" font-family="Avenir-Light,Avenir" font-size="30.0" fill="#FEFFFF" transform="matrix(1.00, 0.00, -0.00, -1.00, 754.5, 160.9)">n</text><text xml:space="preserve" font-family="Avenir-Light,Avenir" font-size="30.0" fill="#FEFFFF" transform="matrix(1.00, 0.00, -0.00, -1.00, 771.2, 160.9)"> </text><text xml:space="preserve" font-family="Avenir-Light,Avenir" font-size="30.0" fill="#FEFFFF" transform="matrix(1.00, 0.00, -0.00, -1.00, 779.0, 160.9)">e</text><text xml:space="preserve" font-family="Avenir-Light,Avenir" font-size="30.0" fill="#FEFFFF" transform="matrix(1.00, 0.00, -0.00, -1.00, 795.7, 160.9)">v</text><text xml:space="preserve" font-family="Avenir-Light,Avenir" font-size="30.0" fill="#FEFFFF" transform="matrix(1.00, 0.00, -0.00, -1.00, 809.6, 160.9)">e</text><text xml:space="preserve" font-family="Avenir-Light,Avenir" font-size="30.0" fill="#FEFFFF" transform="matrix(1.00, 0.00, -0.00, -1.00, 826.2, 160.9)">n</text><text xml:space="preserve" font-family="Avenir-Light,Avenir" font-size="30.0" fill="#FEFFFF" transform="matrix(1.00, 0.00, -0.00, -1.00, 842.9, 160.9)">t</text><text xml:space="preserve" font-family="Avenir-Light,Avenir" font-size="30.0" fill="#FEFFFF" transform="matrix(1.00, 0.00, -0.00, -1.00, 852.9, 160.9)">s</text></g></g><text xml:space="preserve" font-family="Avenir-Light,Avenir" font-size="30.0" fill="#FEFFFF" transform="matrix(1.00, 0.00, -0.00, -1.00, 147.8, 280.6)">a</text><text xml:space="preserve" font-family="Avenir-Light,Avenir" font-size="30.0" fill="#FEFFFF" transform="matrix(1.00, 0.00, -0.00, -1.00, 163.4, 280.6)">t</text><text xml:space="preserve" font-family="Avenir-Light,Avenir" font-size="30.0" fill="#FEFFFF" transform="matrix(1.00, 0.00, -0.00, -1.00, 173.4, 280.6)">o</text><text xml:space="preserve" font-family="Avenir-Light,Avenir" font-size="30.0" fill="#FEFFFF" transform="matrix(1.00, 0.00, -0.00, -1.00, 191.2, 280.6)">m</text><text xml:space="preserve" font-family="Avenir-Light,Avenir" font-size="30.0" fill="#FEFFFF" transform="matrix(1.00, 0.00, -0.00, -1.00, 216.8, 280.6)">i</text><text xml:space="preserve" font-family="Avenir-Light,Avenir" font-size="30.0" fill="#FEFFFF" transform="matrix(1.00, 0.00, -0.00, -1.00, 224.0, 280.6)">c</text><text xml:space="preserve" font-family="Avenir-Light,Avenir" font-size="30.0" fill="#FEFFFF" transform="matrix(1.00, 0.00, -0.00, -1.00, 561.8, 280.6)">a</text><text xml:space="preserve" font-family="Avenir-Light,Avenir" font-size="30.0" fill="#FEFFFF" transform="matrix(1.00, 0.00, -0.00, -1.00, 577.4, 280.6)">t</text><text xml:space="preserve" font-family="Avenir-Light,Avenir" font-size="30.0" fill="#FEFFFF" transform="matrix(1.00, 0.00, -0.00, -1.00, 587.4, 280.6)">o</text><text xml:space="preserve" font-family="Avenir-Light,Avenir" font-size="30.0" fill="#FEFFFF" transform="matrix(1.00, 0.00, -0.00, -1.00, 605.2, 280.6)">m</text><text xml:space="preserve" font-family="Avenir-Light,Avenir" font-size="30.0" fill="#FEFFFF" transform="matrix(1.00, 0.00, -0.00, -1.00, 630.8, 280.6)">i</text><text xml:space="preserve" font-family="Avenir-Light,Avenir" font-size="30.0" fill="#FEFFFF" transform="matrix(1.00, 0.00, -0.00, -1.00, 638.0, 280.6)">c</text><path d="M 0.0 -0.3 L 88.4 -0.3 L 92.0 -0.3 " fill="none" stroke="#55D6FF" stroke-width="7.00" transform="matrix(1.00, 0.00, 0.00, -1.00, 865.0, 449.2)"></path><path d="M 0.0 0.0 L 3.0 5.0 L 6.0 0.0 M 3.0 0.0 L 3.0 5.0 " fill="none" stroke="#55D6FF" stroke-width="1.52" stroke-linejoin="round" transform="matrix(0.00, 4.60, 4.60, 0.00, 953.5, 435.7)"></path><text xml:space="preserve" font-family="Avenir-Light,Avenir" font-size="30.0" fill="#FEFFFF" transform="matrix(1.00, 0.00, -0.00, -1.00, 844.2, 476.4)">n</text><text xml:space="preserve" font-family="Avenir-Light,Avenir" font-size="30.0" fill="#FEFFFF" transform="matrix(1.00, 0.00, -0.00, -1.00, 860.8, 476.4)">o</text><text xml:space="preserve" font-family="Avenir-Light,Avenir" font-size="30.0" fill="#FEFFFF" transform="matrix(1.00, 0.00, -0.00, -1.00, 878.7, 476.4)">t</text><text xml:space="preserve" font-family="Avenir-Light,Avenir" font-size="30.0" fill="#FEFFFF" transform="matrix(1.00, 0.00, -0.00, -1.00, 888.7, 476.4)">i</text><text xml:space="preserve" font-family="Avenir-Light,Avenir" font-size="30.0" fill="#FEFFFF" transform="matrix(1.00, 0.00, -0.00, -1.00, 895.9, 476.4)">f</text><text xml:space="preserve" font-family="Avenir-Light,Avenir" font-size="30.0" fill="#FEFFFF" transform="matrix(1.00, 0.00, -0.00, -1.00, 904.8, 476.4)">i</text><text xml:space="preserve" font-family="Avenir-Light,Avenir" font-size="30.0" fill="#FEFFFF" transform="matrix(1.00, 0.00, -0.00, -1.00, 912.0, 476.4)">c</text><text xml:space="preserve" font-family="Avenir-Light,Avenir" font-size="30.0" fill="#FEFFFF" transform="matrix(1.00, 0.00, -0.00, -1.00, 926.4, 476.4)">a</text><text xml:space="preserve" font-family="Avenir-Light,Avenir" font-size="30.0" fill="#FEFFFF" transform="matrix(1.00, 0.00, -0.00, -1.00, 942.0, 476.4)">t</text><text xml:space="preserve" font-family="Avenir-Light,Avenir" font-size="30.0" fill="#FEFFFF" transform="matrix(1.00, 0.00, -0.00, -1.00, 952.0, 476.4)">i</text><text xml:space="preserve" font-family="Avenir-Light,Avenir" font-size="30.0" fill="#FEFFFF" transform="matrix(1.00, 0.00, -0.00, -1.00, 959.2, 476.4)">o</text><text xml:space="preserve" font-family="Avenir-Light,Avenir" font-size="30.0" fill="#FEFFFF" transform="matrix(1.00, 0.00, -0.00, -1.00, 977.0, 476.4)">n</text></g></svg>