<?xml version="1.0" encoding="UTF-8"?><svg xmlns="http://www.w3.org/2000/svg" xmlns:xlink="http://www.w3.org/1999/xlink" clip-rule="evenodd" stroke-miterlimit="10" viewBox="0 0 1024 768"><desc>SVG generated by Keynote</desc><defs></defs><g transform="matrix(1.00, 0.00, -0.00, -1.00, 0.0, 768.0)"><path d="M 0.0 0.0 L 1024.0 0.0 L 1024.0 768.0 L 0.0 768.0 Z M 0.0 0.0 " fill="#000000"></path><text xml:space="preserve" font-family="Avenir-Light,Avenir" font-size="42.3" fill="#FEFFFF" transform="matrix(1.00, 0.00, -0.00, -1.00, 74.0, 674.5)">E</text><text xml:space="preserve" font-family="Avenir-Light,Avenir" font-size="42.3" fill="#FEFFFF" transform="matrix(1.00, 0.00, -0.00, -1.00, 105.9, 674.5)">P</text><text xml:space="preserve" font-family="Avenir-Light,Avenir" font-size="42.3" fill="#FEFFFF" transform="matrix(1.00, 0.00, -0.00, -1.00, 136.9, 674.5)">I</text><text xml:space="preserve" font-family="Avenir-Light,Avenir" font-size="42.3" fill="#FEFFFF" transform="matrix(1.00, 0.00, -0.00, -1.00, 154.7, 674.5)">S</text><text xml:space="preserve" font-family="Avenir-Light,Avenir" font-size="42.3" fill="#FEFFFF" transform="matrix(1.00, 0.00, -0.00, -1.00, 185.0, 674.5)">O</text><text xml:space="preserve" font-family="Avenir-Light,Avenir" font-size="42.3" fill="#FEFFFF" transform="matrix(1.00, 0.00, -0.00, -1.00, 227.0, 674.5)">D</text><text xml:space="preserve" font-family="Avenir-Light,Avenir" font-size="42.3" fill="#FEFFFF" transform="matrix(1.00, 0.00, -0.00, -1.00, 265.1, 674.5)">E</text><text xml:space="preserve" font-family="Avenir-Light,Avenir" font-size="42.3" fill="#FEFFFF" transform="matrix(1.00, 0.00, -0.00, -1.00, 297.0, 674.5)">S</text><text xml:space="preserve" font-family="Avenir-Light,Avenir" font-size="42.3" fill="#FEFFFF" transform="matrix(1.00, 0.00, -0.00, -1.00, 327.3, 674.5)"> </text><text xml:space="preserve" font-family="Avenir-Light,Avenir" font-size="42.3" fill="#FEFFFF" transform="matrix(1.00, 0.00, -0.00, -1.00, 345.0, 674.5)">B</text><text xml:space="preserve" font-family="Avenir-Light,Avenir" font-size="42.3" fill="#FEFFFF" transform="matrix(1.00, 0.00, -0.00, -1.00, 378.4, 674.5)">Y</text><text xml:space="preserve" font-family="Avenir-Light,Avenir" font-size="42.3" fill="#FEFFFF" transform="matrix(1.00, 0.00, -0.00, -1.00, 409.5, 674.5)"> </text><text xml:space="preserve" font-family="Avenir-Light,Avenir" font-size="42.3" fill="#FEFFFF" transform="matrix(1.00, 0.00, -0.00, -1.00, 427.2, 674.5)">W</text><text xml:space="preserve" font-family="Avenir-Light,Avenir" font-size="42.3" fill="#FEFFFF" transform="matrix(1.00, 0.00, -0.00, -1.00, 473.2, 674.5)">A</text><text xml:space="preserve" font-family="Avenir-Light,Avenir" font-size="42.3" fill="#FEFFFF" transform="matrix(1.00, 0.00, -0.00, -1.00, 508.9, 674.5)">R</text><text xml:space="preserve" font-family="Avenir-Light,Avenir" font-size="42.3" fill="#FEFFFF" transform="matrix(1.00, 0.00, -0.00, -1.00, 540.8, 674.5)">D</text><text xml:space="preserve" font-family="Avenir-Light,Avenir" font-size="42.3" fill="#FEFFFF" transform="matrix(1.00, 0.00, -0.00, -1.00, 578.9, 674.5)"> </text><text xml:space="preserve" font-family="Avenir-Light,Avenir" font-size="42.3" fill="#FEFFFF" transform="matrix(1.00, 0.00, -0.00, -1.00, 596.7, 674.5)">C</text><text xml:space="preserve" font-family="Avenir-Light,Avenir" font-size="42.3" fill="#FEFFFF" transform="matrix(1.00, 0.00, -0.00, -1.00, 633.2, 674.5)">U</text><text xml:space="preserve" font-family="Avenir-Light,Avenir" font-size="42.3" fill="#FEFFFF" transform="matrix(1.00, 0.00, -0.00, -1.00, 668.9, 674.5)">N</text><text xml:space="preserve" font-family="Avenir-Light,Avenir" font-size="42.3" fill="#FEFFFF" transform="matrix(1.00, 0.00, -0.00, -1.00, 708.6, 674.5)">N</text><text xml:space="preserve" font-family="Avenir-Light,Avenir" font-size="42.3" fill="#FEFFFF" transform="matrix(1.00, 0.00, -0.00, -1.00, 748.3, 674.5)">I</text><text xml:space="preserve" font-family="Avenir-Light,Avenir" font-size="42.3" fill="#FEFFFF" transform="matrix(1.00, 0.00, -0.00, -1.00, 766.0, 674.5)">N</text><text xml:space="preserve" font-family="Avenir-Light,Avenir" font-size="42.3" fill="#FEFFFF" transform="matrix(1.00, 0.00, -0.00, -1.00, 805.7, 674.5)">G</text><text xml:space="preserve" font-family="Avenir-Light,Avenir" font-size="42.3" fill="#FEFFFF" transform="matrix(1.00, 0.00, -0.00, -1.00, 845.4, 674.5)">H</text><text xml:space="preserve" font-family="Avenir-Light,Avenir" font-size="42.3" fill="#FEFFFF" transform="matrix(1.00, 0.00, -0.00, -1.00, 882.7, 674.5)">A</text><text xml:space="preserve" font-family="Avenir-Light,Avenir" font-size="42.3" fill="#FEFFFF" transform="matrix(1.00, 0.00, -0.00, -1.00, 918.4, 674.5)">M</text></g></svg>