<?xml version="1.0" encoding="UTF-8"?><svg xmlns="http://www.w3.org/2000/svg" xmlns:xlink="http://www.w3.org/1999/xlink" clip-rule="evenodd" stroke-miterlimit="10" viewBox="0 0 792 37"><desc>SVG generated by Keynote</desc><defs></defs><g transform="matrix(1.00, 0.00, -0.00, -1.00, 0.0, 37.0)"><text xml:space="preserve" font-family="Avenir-Light,Avenir" font-size="45.0" fill="#FEFFFF" transform="matrix(1.00, 0.00, -0.00, -1.00, 1.0, 2.5)">A</text><text xml:space="preserve" font-family="Avenir-Light,Avenir" font-size="45.0" fill="#FEFFFF" transform="matrix(1.00, 0.00, -0.00, -1.00, 39.0, 2.5)">P</text><text xml:space="preserve" font-family="Avenir-Light,Avenir" font-size="45.0" fill="#FEFFFF" transform="matrix(1.00, 0.00, -0.00, -1.00, 72.1, 2.5)">P</text><text xml:space="preserve" font-family="Avenir-Light,Avenir" font-size="45.0" fill="#FEFFFF" transform="matrix(1.00, 0.00, -0.00, -1.00, 105.1, 2.5)">L</text><text xml:space="preserve" font-family="Avenir-Light,Avenir" font-size="45.0" fill="#FEFFFF" transform="matrix(1.00, 0.00, -0.00, -1.00, 134.8, 2.5)">I</text><text xml:space="preserve" font-family="Avenir-Light,Avenir" font-size="45.0" fill="#FEFFFF" transform="matrix(1.00, 0.00, -0.00, -1.00, 153.7, 2.5)">C</text><text xml:space="preserve" font-family="Avenir-Light,Avenir" font-size="45.0" fill="#FEFFFF" transform="matrix(1.00, 0.00, -0.00, -1.00, 192.6, 2.5)">A</text><text xml:space="preserve" font-family="Avenir-Light,Avenir" font-size="45.0" fill="#FEFFFF" transform="matrix(1.00, 0.00, -0.00, -1.00, 227.5, 2.5)">T</text><text xml:space="preserve" font-family="Avenir-Light,Avenir" font-size="45.0" fill="#FEFFFF" transform="matrix(1.00, 0.00, -0.00, -1.00, 260.6, 2.5)">I</text><text xml:space="preserve" font-family="Avenir-Light,Avenir" font-size="45.0" fill="#FEFFFF" transform="matrix(1.00, 0.00, -0.00, -1.00, 279.5, 2.5)">O</text><text xml:space="preserve" font-family="Avenir-Light,Avenir" font-size="45.0" fill="#FEFFFF" transform="matrix(1.00, 0.00, -0.00, -1.00, 324.2, 2.5)">N</text><text xml:space="preserve" font-family="Avenir-Light,Avenir" font-size="45.0" fill="#FEFFFF" transform="matrix(1.00, 0.00, -0.00, -1.00, 366.4, 2.5)"> </text><text xml:space="preserve" font-family="Avenir-Light,Avenir" font-size="45.0" fill="#FEFFFF" transform="matrix(1.00, 0.00, -0.00, -1.00, 385.3, 2.5)">W</text><text xml:space="preserve" font-family="Avenir-Light,Avenir" font-size="45.0" fill="#FEFFFF" transform="matrix(1.00, 0.00, -0.00, -1.00, 435.0, 2.5)">I</text><text xml:space="preserve" font-family="Avenir-Light,Avenir" font-size="45.0" fill="#FEFFFF" transform="matrix(1.00, 0.00, -0.00, -1.00, 453.9, 2.5)">T</text><text xml:space="preserve" font-family="Avenir-Light,Avenir" font-size="45.0" fill="#FEFFFF" transform="matrix(1.00, 0.00, -0.00, -1.00, 486.9, 2.5)">H</text><text xml:space="preserve" font-family="Avenir-Light,Avenir" font-size="45.0" fill="#FEFFFF" transform="matrix(1.00, 0.00, -0.00, -1.00, 526.6, 2.5)"> </text><text xml:space="preserve" font-family="Avenir-Light,Avenir" font-size="45.0" fill="#FEFFFF" transform="matrix(1.00, 0.00, -0.00, -1.00, 545.5, 2.5)">A</text><text xml:space="preserve" font-family="Avenir-Light,Avenir" font-size="45.0" fill="#FEFFFF" transform="matrix(1.00, 0.00, -0.00, -1.00, 583.5, 2.5)"> </text><text xml:space="preserve" font-family="Avenir-Light,Avenir" font-size="45.0" fill="#FEFFFF" transform="matrix(1.00, 0.00, -0.00, -1.00, 602.4, 2.5)">M</text><text xml:space="preserve" font-family="Avenir-Light,Avenir" font-size="45.0" fill="#FEFFFF" transform="matrix(1.00, 0.00, -0.00, -1.00, 649.6, 2.5)">O</text><text xml:space="preserve" font-family="Avenir-Light,Avenir" font-size="45.0" fill="#FEFFFF" transform="matrix(1.00, 0.00, -0.00, -1.00, 694.4, 2.5)">D</text><text xml:space="preserve" font-family="Avenir-Light,Avenir" font-size="45.0" fill="#FEFFFF" transform="matrix(1.00, 0.00, -0.00, -1.00, 734.9, 2.5)">E</text><text xml:space="preserve" font-family="Avenir-Light,Avenir" font-size="45.0" fill="#FEFFFF" transform="matrix(1.00, 0.00, -0.00, -1.00, 768.8, 2.5)">L</text></g></svg>