<?xml version="1.0" encoding="UTF-8"?><svg xmlns="http://www.w3.org/2000/svg" xmlns:xlink="http://www.w3.org/1999/xlink" clip-rule="evenodd" stroke-miterlimit="10" viewBox="0 0 419 33"><desc>SVG generated by Keynote</desc><defs></defs><g transform="matrix(1.00, 0.00, -0.00, -1.00, 0.0, 33.0)"><text xml:space="preserve" font-family="Avenir-Light,Avenir" font-size="30.2" fill="#FEFFFF" transform="matrix(1.00, 0.00, -0.00, -1.00, 1.0, 8.2)">—</text><text xml:space="preserve" font-family="Avenir-Light,Avenir" font-size="30.2" fill="#FEFFFF" transform="matrix(1.00, 0.00, -0.00, -1.00, 31.2, 8.2)"> </text><text xml:space="preserve" font-family="Avenir-Light,Avenir" font-size="30.2" fill="#FEFFFF" transform="matrix(1.00, 0.00, -0.00, -1.00, 39.1, 8.2)">C</text><text xml:space="preserve" font-family="Avenir-Light,Avenir" font-size="30.2" fill="#FEFFFF" transform="matrix(1.00, 0.00, -0.00, -1.00, 60.4, 8.2)">h</text><text xml:space="preserve" font-family="Avenir-Light,Avenir" font-size="30.2" fill="#FEFFFF" transform="matrix(1.00, 0.00, -0.00, -1.00, 77.2, 8.2)">r</text><text xml:space="preserve" font-family="Avenir-Light,Avenir" font-size="30.2" fill="#FEFFFF" transform="matrix(1.00, 0.00, -0.00, -1.00, 87.3, 8.2)">i</text><text xml:space="preserve" font-family="Avenir-Light,Avenir" font-size="30.2" fill="#FEFFFF" transform="matrix(1.00, 0.00, -0.00, -1.00, 94.5, 8.2)">s</text><text xml:space="preserve" font-family="Avenir-Light,Avenir" font-size="30.2" fill="#FEFFFF" transform="matrix(1.00, 0.00, -0.00, -1.00, 107.4, 8.2)">t</text><text xml:space="preserve" font-family="Avenir-Light,Avenir" font-size="30.2" fill="#FEFFFF" transform="matrix(1.00, 0.00, -0.00, -1.00, 117.5, 8.2)">o</text><text xml:space="preserve" font-family="Avenir-Light,Avenir" font-size="30.2" fill="#FEFFFF" transform="matrix(1.00, 0.00, -0.00, -1.00, 135.4, 8.2)">p</text><text xml:space="preserve" font-family="Avenir-Light,Avenir" font-size="30.2" fill="#FEFFFF" transform="matrix(1.00, 0.00, -0.00, -1.00, 153.9, 8.2)">h</text><text xml:space="preserve" font-family="Avenir-Light,Avenir" font-size="30.2" fill="#FEFFFF" transform="matrix(1.00, 0.00, -0.00, -1.00, 170.7, 8.2)">e</text><text xml:space="preserve" font-family="Avenir-Light,Avenir" font-size="30.2" fill="#FEFFFF" transform="matrix(1.00, 0.00, -0.00, -1.00, 187.6, 8.2)">r</text><text xml:space="preserve" font-family="Avenir-Light,Avenir" font-size="30.2" fill="#FEFFFF" transform="matrix(1.00, 0.00, -0.00, -1.00, 197.6, 8.2)"> </text><text xml:space="preserve" font-family="Avenir-Light,Avenir" font-size="30.2" fill="#FEFFFF" transform="matrix(1.00, 0.00, -0.00, -1.00, 205.5, 8.2)">A</text><text xml:space="preserve" font-family="Avenir-Light,Avenir" font-size="30.2" fill="#FEFFFF" transform="matrix(1.00, 0.00, -0.00, -1.00, 226.2, 8.2)">l</text><text xml:space="preserve" font-family="Avenir-Light,Avenir" font-size="30.2" fill="#FEFFFF" transform="matrix(1.00, 0.00, -0.00, -1.00, 233.5, 8.2)">e</text><text xml:space="preserve" font-family="Avenir-Light,Avenir" font-size="30.2" fill="#FEFFFF" transform="matrix(1.00, 0.00, -0.00, -1.00, 250.3, 8.2)">x</text><text xml:space="preserve" font-family="Avenir-Light,Avenir" font-size="30.2" fill="#FEFFFF" transform="matrix(1.00, 0.00, -0.00, -1.00, 264.8, 8.2)">a</text><text xml:space="preserve" font-family="Avenir-Light,Avenir" font-size="30.2" fill="#FEFFFF" transform="matrix(1.00, 0.00, -0.00, -1.00, 280.5, 8.2)">n</text><text xml:space="preserve" font-family="Avenir-Light,Avenir" font-size="30.2" fill="#FEFFFF" transform="matrix(1.00, 0.00, -0.00, -1.00, 297.3, 8.2)">d</text><text xml:space="preserve" font-family="Avenir-Light,Avenir" font-size="30.2" fill="#FEFFFF" transform="matrix(1.00, 0.00, -0.00, -1.00, 315.8, 8.2)">e</text><text xml:space="preserve" font-family="Avenir-Light,Avenir" font-size="30.2" fill="#FEFFFF" transform="matrix(1.00, 0.00, -0.00, -1.00, 332.6, 8.2)">r</text><text xml:space="preserve" font-family="Avenir-Light,Avenir" font-size="30.2" fill="#FEFFFF" transform="matrix(1.00, 0.00, -0.00, -1.00, 339.9, 8.2)">,</text><text xml:space="preserve" font-family="Avenir-Light,Avenir" font-size="30.2" fill="#FEFFFF" transform="matrix(1.00, 0.00, -0.00, -1.00, 347.8, 8.2)"> </text><text xml:space="preserve" font-family="Avenir-Light,Avenir" font-size="30.2" fill="#FEFFFF" transform="matrix(1.00, 0.00, -0.00, -1.00, 355.6, 8.2)">1</text><text xml:space="preserve" font-family="Avenir-Light,Avenir" font-size="30.2" fill="#FEFFFF" transform="matrix(1.00, 0.00, -0.00, -1.00, 371.3, 8.2)">9</text><text xml:space="preserve" font-family="Avenir-Light,Avenir" font-size="30.2" fill="#FEFFFF" transform="matrix(1.00, 0.00, -0.00, -1.00, 387.1, 8.2)">7</text><text xml:space="preserve" font-family="Avenir-Light,Avenir" font-size="30.2" fill="#FEFFFF" transform="matrix(1.00, 0.00, -0.00, -1.00, 402.8, 8.2)">9</text></g></svg>