<?xml version="1.0" encoding="UTF-8"?><svg xmlns="http://www.w3.org/2000/svg" xmlns:xlink="http://www.w3.org/1999/xlink" clip-rule="evenodd" stroke-miterlimit="10" viewBox="0 0 859 116"><desc>SVG generated by Keynote</desc><defs></defs><g transform="matrix(1.00, 0.00, -0.00, -1.00, 0.0, 116.0)"><text xml:space="preserve" font-family="Avenir-Light,Avenir" font-size="30.2" fill="#FEFFFF" transform="matrix(1.00, 0.00, -0.00, -1.00, 1.0, 90.8)">“</text><text xml:space="preserve" font-family="Avenir-Light,Avenir" font-size="30.2" fill="#FEFFFF" transform="matrix(1.00, 0.00, -0.00, -1.00, 16.7, 90.8)">T</text><text xml:space="preserve" font-family="Avenir-Light,Avenir" font-size="30.2" fill="#FEFFFF" transform="matrix(1.00, 0.00, -0.00, -1.00, 34.1, 90.8)">h</text><text xml:space="preserve" font-family="Avenir-Light,Avenir" font-size="30.2" fill="#FEFFFF" transform="matrix(1.00, 0.00, -0.00, -1.00, 50.9, 90.8)">e</text><text xml:space="preserve" font-family="Avenir-Light,Avenir" font-size="30.2" fill="#FEFFFF" transform="matrix(1.00, 0.00, -0.00, -1.00, 67.7, 90.8)"> </text><text xml:space="preserve" font-family="Avenir-Heavy,Avenir" font-weight="bold" font-size="30.2" fill="#FEFFFF" transform="matrix(1.00, 0.00, -0.00, -1.00, 75.6, 90.8)">p</text><text xml:space="preserve" font-family="Avenir-Heavy,Avenir" font-weight="bold" font-size="30.2" fill="#FEFFFF" transform="matrix(1.00, 0.00, -0.00, -1.00, 94.6, 90.8)">r</text><text xml:space="preserve" font-family="Avenir-Heavy,Avenir" font-weight="bold" font-size="30.2" fill="#FEFFFF" transform="matrix(1.00, 0.00, -0.00, -1.00, 105.8, 90.8)">o</text><text xml:space="preserve" font-family="Avenir-Heavy,Avenir" font-weight="bold" font-size="30.2" fill="#FEFFFF" transform="matrix(1.00, 0.00, -0.00, -1.00, 124.3, 90.8)">c</text><text xml:space="preserve" font-family="Avenir-Heavy,Avenir" font-weight="bold" font-size="30.2" fill="#FEFFFF" transform="matrix(1.00, 0.00, -0.00, -1.00, 138.9, 90.8)">e</text><text xml:space="preserve" font-family="Avenir-Heavy,Avenir" font-weight="bold" font-size="30.2" fill="#FEFFFF" transform="matrix(1.00, 0.00, -0.00, -1.00, 156.2, 90.8)">s</text><text xml:space="preserve" font-family="Avenir-Heavy,Avenir" font-weight="bold" font-size="30.2" fill="#FEFFFF" transform="matrix(1.00, 0.00, -0.00, -1.00, 169.6, 90.8)">s</text><text xml:space="preserve" font-family="Avenir-Heavy,Avenir" font-weight="bold" font-size="30.2" fill="#FEFFFF" transform="matrix(1.00, 0.00, -0.00, -1.00, 183.1, 90.8)"> </text><text xml:space="preserve" font-family="Avenir-Heavy,Avenir" font-weight="bold" font-size="30.2" fill="#FEFFFF" transform="matrix(1.00, 0.00, -0.00, -1.00, 192.0, 90.8)">o</text><text xml:space="preserve" font-family="Avenir-Heavy,Avenir" font-weight="bold" font-size="30.2" fill="#FEFFFF" transform="matrix(1.00, 0.00, -0.00, -1.00, 210.5, 90.8)">f</text><text xml:space="preserve" font-family="Avenir-Heavy,Avenir" font-weight="bold" font-size="30.2" fill="#FEFFFF" transform="matrix(1.00, 0.00, -0.00, -1.00, 221.1, 90.8)"> </text><text xml:space="preserve" font-family="Avenir-Heavy,Avenir" font-weight="bold" font-size="30.2" fill="#FEFFFF" transform="matrix(1.00, 0.00, -0.00, -1.00, 230.1, 90.8)">u</text><text xml:space="preserve" font-family="Avenir-Heavy,Avenir" font-weight="bold" font-size="30.2" fill="#FEFFFF" transform="matrix(1.00, 0.00, -0.00, -1.00, 247.4, 90.8)">n</text><text xml:space="preserve" font-family="Avenir-Heavy,Avenir" font-weight="bold" font-size="30.2" fill="#FEFFFF" transform="matrix(1.00, 0.00, -0.00, -1.00, 264.8, 90.8)">f</text><text xml:space="preserve" font-family="Avenir-Heavy,Avenir" font-weight="bold" font-size="30.2" fill="#FEFFFF" transform="matrix(1.00, 0.00, -0.00, -1.00, 275.4, 90.8)">o</text><text xml:space="preserve" font-family="Avenir-Heavy,Avenir" font-weight="bold" font-size="30.2" fill="#FEFFFF" transform="matrix(1.00, 0.00, -0.00, -1.00, 293.9, 90.8)">l</text><text xml:space="preserve" font-family="Avenir-Heavy,Avenir" font-weight="bold" font-size="30.2" fill="#FEFFFF" transform="matrix(1.00, 0.00, -0.00, -1.00, 301.7, 90.8)">d</text><text xml:space="preserve" font-family="Avenir-Heavy,Avenir" font-weight="bold" font-size="30.2" fill="#FEFFFF" transform="matrix(1.00, 0.00, -0.00, -1.00, 320.8, 90.8)">i</text><text xml:space="preserve" font-family="Avenir-Heavy,Avenir" font-weight="bold" font-size="30.2" fill="#FEFFFF" transform="matrix(1.00, 0.00, -0.00, -1.00, 328.7, 90.8)">n</text><text xml:space="preserve" font-family="Avenir-Heavy,Avenir" font-weight="bold" font-size="30.2" fill="#FEFFFF" transform="matrix(1.00, 0.00, -0.00, -1.00, 346.0, 90.8)">g</text><text xml:space="preserve" font-family="Avenir-Heavy,Avenir" font-weight="bold" font-size="30.2" fill="#FEFFFF" transform="matrix(1.00, 0.00, -0.00, -1.00, 365.1, 90.8)"> </text><text xml:space="preserve" font-family="Avenir-Heavy,Avenir" font-weight="bold" font-size="30.2" fill="#FEFFFF" transform="matrix(1.00, 0.00, -0.00, -1.00, 374.0, 90.8)">g</text><text xml:space="preserve" font-family="Avenir-Heavy,Avenir" font-weight="bold" font-size="30.2" fill="#FEFFFF" transform="matrix(1.00, 0.00, -0.00, -1.00, 393.1, 90.8)">o</text><text xml:space="preserve" font-family="Avenir-Heavy,Avenir" font-weight="bold" font-size="30.2" fill="#FEFFFF" transform="matrix(1.00, 0.00, -0.00, -1.00, 411.5, 90.8)">e</text><text xml:space="preserve" font-family="Avenir-Heavy,Avenir" font-weight="bold" font-size="30.2" fill="#FEFFFF" transform="matrix(1.00, 0.00, -0.00, -1.00, 428.9, 90.8)">s</text><text xml:space="preserve" font-family="Avenir-Heavy,Avenir" font-weight="bold" font-size="30.2" fill="#FEFFFF" transform="matrix(1.00, 0.00, -0.00, -1.00, 442.3, 90.8)"> </text><text xml:space="preserve" font-family="Avenir-Heavy,Avenir" font-weight="bold" font-size="30.2" fill="#FEFFFF" transform="matrix(1.00, 0.00, -0.00, -1.00, 451.3, 90.8)">s</text><text xml:space="preserve" font-family="Avenir-Heavy,Avenir" font-weight="bold" font-size="30.2" fill="#FEFFFF" transform="matrix(1.00, 0.00, -0.00, -1.00, 464.7, 90.8)">t</text><text xml:space="preserve" font-family="Avenir-Heavy,Avenir" font-weight="bold" font-size="30.2" fill="#FEFFFF" transform="matrix(1.00, 0.00, -0.00, -1.00, 476.5, 90.8)">e</text><text xml:space="preserve" font-family="Avenir-Heavy,Avenir" font-weight="bold" font-size="30.2" fill="#FEFFFF" transform="matrix(1.00, 0.00, -0.00, -1.00, 493.8, 90.8)">p</text><text xml:space="preserve" font-family="Avenir-Heavy,Avenir" font-weight="bold" font-size="30.2" fill="#FEFFFF" transform="matrix(1.00, 0.00, -0.00, -1.00, 512.9, 90.8)"> </text><text xml:space="preserve" font-family="Avenir-Heavy,Avenir" font-weight="bold" font-size="30.2" fill="#FEFFFF" transform="matrix(1.00, 0.00, -0.00, -1.00, 521.8, 90.8)">b</text><text xml:space="preserve" font-family="Avenir-Heavy,Avenir" font-weight="bold" font-size="30.2" fill="#FEFFFF" transform="matrix(1.00, 0.00, -0.00, -1.00, 540.9, 90.8)">y</text><text xml:space="preserve" font-family="Avenir-Heavy,Avenir" font-weight="bold" font-size="30.2" fill="#FEFFFF" transform="matrix(1.00, 0.00, -0.00, -1.00, 556.6, 90.8)"> </text><text xml:space="preserve" font-family="Avenir-Heavy,Avenir" font-weight="bold" font-size="30.2" fill="#FEFFFF" transform="matrix(1.00, 0.00, -0.00, -1.00, 565.5, 90.8)">s</text><text xml:space="preserve" font-family="Avenir-Heavy,Avenir" font-weight="bold" font-size="30.2" fill="#FEFFFF" transform="matrix(1.00, 0.00, -0.00, -1.00, 578.9, 90.8)">t</text><text xml:space="preserve" font-family="Avenir-Heavy,Avenir" font-weight="bold" font-size="30.2" fill="#FEFFFF" transform="matrix(1.00, 0.00, -0.00, -1.00, 590.7, 90.8)">e</text><text xml:space="preserve" font-family="Avenir-Heavy,Avenir" font-weight="bold" font-size="30.2" fill="#FEFFFF" transform="matrix(1.00, 0.00, -0.00, -1.00, 608.1, 90.8)">p</text><text xml:space="preserve" font-family="Avenir-Light,Avenir" font-size="30.2" fill="#FEFFFF" transform="matrix(1.00, 0.00, -0.00, -1.00, 627.1, 90.8)">,</text><text xml:space="preserve" font-family="Avenir-Light,Avenir" font-size="30.2" fill="#FEFFFF" transform="matrix(1.00, 0.00, -0.00, -1.00, 635.0, 90.8)"> </text><text xml:space="preserve" font-family="Avenir-Light,Avenir" font-size="30.2" fill="#FEFFFF" transform="matrix(1.00, 0.00, -0.00, -1.00, 642.8, 90.8)">o</text><text xml:space="preserve" font-family="Avenir-Light,Avenir" font-size="30.2" fill="#FEFFFF" transform="matrix(1.00, 0.00, -0.00, -1.00, 660.8, 90.8)">n</text><text xml:space="preserve" font-family="Avenir-Light,Avenir" font-size="30.2" fill="#FEFFFF" transform="matrix(1.00, 0.00, -0.00, -1.00, 677.6, 90.8)">e</text><text xml:space="preserve" font-family="Avenir-Light,Avenir" font-size="30.2" fill="#FEFFFF" transform="matrix(1.00, 0.00, -0.00, -1.00, 694.4, 90.8)"> </text><text xml:space="preserve" font-family="Avenir-Light,Avenir" font-size="30.2" fill="#FEFFFF" transform="matrix(1.00, 0.00, -0.00, -1.00, 702.3, 90.8)">p</text><text xml:space="preserve" font-family="Avenir-Light,Avenir" font-size="30.2" fill="#FEFFFF" transform="matrix(1.00, 0.00, -0.00, -1.00, 720.8, 90.8)">a</text><text xml:space="preserve" font-family="Avenir-Light,Avenir" font-size="30.2" fill="#FEFFFF" transform="matrix(1.00, 0.00, -0.00, -1.00, 736.5, 90.8)">t</text><text xml:space="preserve" font-family="Avenir-Light,Avenir" font-size="30.2" fill="#FEFFFF" transform="matrix(1.00, 0.00, -0.00, -1.00, 746.6, 90.8)">t</text><text xml:space="preserve" font-family="Avenir-Light,Avenir" font-size="30.2" fill="#FEFFFF" transform="matrix(1.00, 0.00, -0.00, -1.00, 756.6, 90.8)">e</text><text xml:space="preserve" font-family="Avenir-Light,Avenir" font-size="30.2" fill="#FEFFFF" transform="matrix(1.00, 0.00, -0.00, -1.00, 773.5, 90.8)">r</text><text xml:space="preserve" font-family="Avenir-Light,Avenir" font-size="30.2" fill="#FEFFFF" transform="matrix(1.00, 0.00, -0.00, -1.00, 783.5, 90.8)">n</text><text xml:space="preserve" font-family="Avenir-Light,Avenir" font-size="30.2" fill="#FEFFFF" transform="matrix(1.00, 0.00, -0.00, -1.00, 800.3, 90.8)"> </text><text xml:space="preserve" font-family="Avenir-Light,Avenir" font-size="30.2" fill="#FEFFFF" transform="matrix(1.00, 0.00, -0.00, -1.00, 808.2, 90.8)">a</text><text xml:space="preserve" font-family="Avenir-Light,Avenir" font-size="30.2" fill="#FEFFFF" transform="matrix(1.00, 0.00, -0.00, -1.00, 823.9, 90.8)">t</text><text xml:space="preserve" font-family="Avenir-Light,Avenir" font-size="30.2" fill="#FEFFFF" transform="matrix(1.00, 0.00, -0.00, -1.00, 834.0, 90.8)"> </text><text xml:space="preserve" font-family="Avenir-Light,Avenir" font-size="30.2" fill="#FEFFFF" transform="matrix(1.00, 0.00, -0.00, -1.00, 841.8, 90.8)">a</text><text xml:space="preserve" font-family="Avenir-Light,Avenir" font-size="30.2" fill="#FEFFFF" transform="matrix(1.00, 0.00, -0.00, -1.00, 857.5, 90.8)"> </text><text xml:space="preserve" font-family="Avenir-Light,Avenir" font-size="30.2" fill="#FEFFFF" transform="matrix(1.00, 0.00, -0.00, -1.00, 1.0, 49.8)">t</text><text xml:space="preserve" font-family="Avenir-Light,Avenir" font-size="30.2" fill="#FEFFFF" transform="matrix(1.00, 0.00, -0.00, -1.00, 11.1, 49.8)">i</text><text xml:space="preserve" font-family="Avenir-Light,Avenir" font-size="30.2" fill="#FEFFFF" transform="matrix(1.00, 0.00, -0.00, -1.00, 18.4, 49.8)">m</text><text xml:space="preserve" font-family="Avenir-Light,Avenir" font-size="30.2" fill="#FEFFFF" transform="matrix(1.00, 0.00, -0.00, -1.00, 44.1, 49.8)">e</text><text xml:space="preserve" font-family="Avenir-Light,Avenir" font-size="30.2" fill="#FEFFFF" transform="matrix(1.00, 0.00, -0.00, -1.00, 60.9, 49.8)">”</text><text xml:space="preserve" font-family="Avenir-Light,Avenir" font-size="30.2" fill="#FEFFFF" transform="matrix(1.00, 0.00, -0.00, -1.00, 76.7, 49.8)"> </text><text xml:space="preserve" font-family="Avenir-Light,Avenir" font-size="30.2" fill="#FEFFFF" transform="matrix(1.00, 0.00, -0.00, -1.00, 84.5, 49.8)">…</text><text xml:space="preserve" font-family="Avenir-Light,Avenir" font-size="30.2" fill="#FEFFFF" transform="matrix(1.00, 0.00, -0.00, -1.00, 114.8, 49.8)"> </text><text xml:space="preserve" font-family="Avenir-Light,Avenir" font-size="30.2" fill="#FEFFFF" transform="matrix(1.00, 0.00, -0.00, -1.00, 122.6, 49.8)">“</text><text xml:space="preserve" font-family="Avenir-Light,Avenir" font-size="30.2" fill="#FEFFFF" transform="matrix(1.00, 0.00, -0.00, -1.00, 138.4, 49.8)">I</text><text xml:space="preserve" font-family="Avenir-Light,Avenir" font-size="30.2" fill="#FEFFFF" transform="matrix(1.00, 0.00, -0.00, -1.00, 146.2, 49.8)">n</text><text xml:space="preserve" font-family="Avenir-Light,Avenir" font-size="30.2" fill="#FEFFFF" transform="matrix(1.00, 0.00, -0.00, -1.00, 163.0, 49.8)">d</text><text xml:space="preserve" font-family="Avenir-Light,Avenir" font-size="30.2" fill="#FEFFFF" transform="matrix(1.00, 0.00, -0.00, -1.00, 181.5, 49.8)">e</text><text xml:space="preserve" font-family="Avenir-Light,Avenir" font-size="30.2" fill="#FEFFFF" transform="matrix(1.00, 0.00, -0.00, -1.00, 198.3, 49.8)">e</text><text xml:space="preserve" font-family="Avenir-Light,Avenir" font-size="30.2" fill="#FEFFFF" transform="matrix(1.00, 0.00, -0.00, -1.00, 215.1, 49.8)">d</text><text xml:space="preserve" font-family="Avenir-Light,Avenir" font-size="30.2" fill="#FEFFFF" transform="matrix(1.00, 0.00, -0.00, -1.00, 233.6, 49.8)">,</text><text xml:space="preserve" font-family="Avenir-Light,Avenir" font-size="30.2" fill="#FEFFFF" transform="matrix(1.00, 0.00, -0.00, -1.00, 241.5, 49.8)"> </text><text xml:space="preserve" font-family="Avenir-Light,Avenir" font-size="30.2" fill="#FEFFFF" transform="matrix(1.00, 0.00, -0.00, -1.00, 249.3, 49.8)">t</text><text xml:space="preserve" font-family="Avenir-Light,Avenir" font-size="30.2" fill="#FEFFFF" transform="matrix(1.00, 0.00, -0.00, -1.00, 259.4, 49.8)">h</text><text xml:space="preserve" font-family="Avenir-Light,Avenir" font-size="30.2" fill="#FEFFFF" transform="matrix(1.00, 0.00, -0.00, -1.00, 276.2, 49.8)">i</text><text xml:space="preserve" font-family="Avenir-Light,Avenir" font-size="30.2" fill="#FEFFFF" transform="matrix(1.00, 0.00, -0.00, -1.00, 283.5, 49.8)">s</text><text xml:space="preserve" font-family="Avenir-Light,Avenir" font-size="30.2" fill="#FEFFFF" transform="matrix(1.00, 0.00, -0.00, -1.00, 296.4, 49.8)"> </text><text xml:space="preserve" font-family="Avenir-Light,Avenir" font-size="30.2" fill="#FEFFFF" transform="matrix(1.00, 0.00, -0.00, -1.00, 304.2, 49.8)">s</text><text xml:space="preserve" font-family="Avenir-Light,Avenir" font-size="30.2" fill="#FEFFFF" transform="matrix(1.00, 0.00, -0.00, -1.00, 317.1, 49.8)">u</text><text xml:space="preserve" font-family="Avenir-Light,Avenir" font-size="30.2" fill="#FEFFFF" transform="matrix(1.00, 0.00, -0.00, -1.00, 333.9, 49.8)">b</text><text xml:space="preserve" font-family="Avenir-Light,Avenir" font-size="30.2" fill="#FEFFFF" transform="matrix(1.00, 0.00, -0.00, -1.00, 352.4, 49.8)">t</text><text xml:space="preserve" font-family="Avenir-Light,Avenir" font-size="30.2" fill="#FEFFFF" transform="matrix(1.00, 0.00, -0.00, -1.00, 362.5, 49.8)">l</text><text xml:space="preserve" font-family="Avenir-Light,Avenir" font-size="30.2" fill="#FEFFFF" transform="matrix(1.00, 0.00, -0.00, -1.00, 369.8, 49.8)">e</text><text xml:space="preserve" font-family="Avenir-Light,Avenir" font-size="30.2" fill="#FEFFFF" transform="matrix(1.00, 0.00, -0.00, -1.00, 386.6, 49.8)"> </text><text xml:space="preserve" font-family="Avenir-Light,Avenir" font-size="30.2" fill="#FEFFFF" transform="matrix(1.00, 0.00, -0.00, -1.00, 394.5, 49.8)">a</text><text xml:space="preserve" font-family="Avenir-Light,Avenir" font-size="30.2" fill="#FEFFFF" transform="matrix(1.00, 0.00, -0.00, -1.00, 410.1, 49.8)">n</text><text xml:space="preserve" font-family="Avenir-Light,Avenir" font-size="30.2" fill="#FEFFFF" transform="matrix(1.00, 0.00, -0.00, -1.00, 427.0, 49.8)">d</text><text xml:space="preserve" font-family="Avenir-Light,Avenir" font-size="30.2" fill="#FEFFFF" transform="matrix(1.00, 0.00, -0.00, -1.00, 445.4, 49.8)"> </text><text xml:space="preserve" font-family="Avenir-Light,Avenir" font-size="30.2" fill="#FEFFFF" transform="matrix(1.00, 0.00, -0.00, -1.00, 453.3, 49.8)">c</text><text xml:space="preserve" font-family="Avenir-Light,Avenir" font-size="30.2" fill="#FEFFFF" transform="matrix(1.00, 0.00, -0.00, -1.00, 467.8, 49.8)">o</text><text xml:space="preserve" font-family="Avenir-Light,Avenir" font-size="30.2" fill="#FEFFFF" transform="matrix(1.00, 0.00, -0.00, -1.00, 485.8, 49.8)">m</text><text xml:space="preserve" font-family="Avenir-Light,Avenir" font-size="30.2" fill="#FEFFFF" transform="matrix(1.00, 0.00, -0.00, -1.00, 511.6, 49.8)">p</text><text xml:space="preserve" font-family="Avenir-Light,Avenir" font-size="30.2" fill="#FEFFFF" transform="matrix(1.00, 0.00, -0.00, -1.00, 530.0, 49.8)">l</text><text xml:space="preserve" font-family="Avenir-Light,Avenir" font-size="30.2" fill="#FEFFFF" transform="matrix(1.00, 0.00, -0.00, -1.00, 537.3, 49.8)">e</text><text xml:space="preserve" font-family="Avenir-Light,Avenir" font-size="30.2" fill="#FEFFFF" transform="matrix(1.00, 0.00, -0.00, -1.00, 554.1, 49.8)">x</text><text xml:space="preserve" font-family="Avenir-Light,Avenir" font-size="30.2" fill="#FEFFFF" transform="matrix(1.00, 0.00, -0.00, -1.00, 568.7, 49.8)"> </text><text xml:space="preserve" font-family="Avenir-Heavy,Avenir" font-weight="bold" font-size="30.2" fill="#FEFFFF" transform="matrix(1.00, 0.00, -0.00, -1.00, 576.5, 49.8)">f</text><text xml:space="preserve" font-family="Avenir-Heavy,Avenir" font-weight="bold" font-size="30.2" fill="#FEFFFF" transform="matrix(1.00, 0.00, -0.00, -1.00, 587.2, 49.8)">r</text><text xml:space="preserve" font-family="Avenir-Heavy,Avenir" font-weight="bold" font-size="30.2" fill="#FEFFFF" transform="matrix(1.00, 0.00, -0.00, -1.00, 598.4, 49.8)">e</text><text xml:space="preserve" font-family="Avenir-Heavy,Avenir" font-weight="bold" font-size="30.2" fill="#FEFFFF" transform="matrix(1.00, 0.00, -0.00, -1.00, 615.7, 49.8)">e</text><text xml:space="preserve" font-family="Avenir-Heavy,Avenir" font-weight="bold" font-size="30.2" fill="#FEFFFF" transform="matrix(1.00, 0.00, -0.00, -1.00, 633.1, 49.8)">d</text><text xml:space="preserve" font-family="Avenir-Heavy,Avenir" font-weight="bold" font-size="30.2" fill="#FEFFFF" transform="matrix(1.00, 0.00, -0.00, -1.00, 652.2, 49.8)">o</text><text xml:space="preserve" font-family="Avenir-Heavy,Avenir" font-weight="bold" font-size="30.2" fill="#FEFFFF" transform="matrix(1.00, 0.00, -0.00, -1.00, 670.6, 49.8)">m</text><text xml:space="preserve" font-family="Avenir-Heavy,Avenir" font-weight="bold" font-size="30.2" fill="#FEFFFF" transform="matrix(1.00, 0.00, -0.00, -1.00, 696.9, 49.8)"> </text><text xml:space="preserve" font-family="Avenir-Heavy,Avenir" font-weight="bold" font-size="30.2" fill="#FEFFFF" transform="matrix(1.00, 0.00, -0.00, -1.00, 705.9, 49.8)">f</text><text xml:space="preserve" font-family="Avenir-Heavy,Avenir" font-weight="bold" font-size="30.2" fill="#FEFFFF" transform="matrix(1.00, 0.00, -0.00, -1.00, 716.5, 49.8)">r</text><text xml:space="preserve" font-family="Avenir-Heavy,Avenir" font-weight="bold" font-size="30.2" fill="#FEFFFF" transform="matrix(1.00, 0.00, -0.00, -1.00, 727.7, 49.8)">o</text><text xml:space="preserve" font-family="Avenir-Heavy,Avenir" font-weight="bold" font-size="30.2" fill="#FEFFFF" transform="matrix(1.00, 0.00, -0.00, -1.00, 746.2, 49.8)">m</text><text xml:space="preserve" font-family="Avenir-Heavy,Avenir" font-weight="bold" font-size="30.2" fill="#FEFFFF" transform="matrix(1.00, 0.00, -0.00, -1.00, 772.5, 49.8)"> </text><text xml:space="preserve" font-family="Avenir-Heavy,Avenir" font-weight="bold" font-size="30.2" fill="#FEFFFF" transform="matrix(1.00, 0.00, -0.00, -1.00, 781.4, 49.8)">i</text><text xml:space="preserve" font-family="Avenir-Heavy,Avenir" font-weight="bold" font-size="30.2" fill="#FEFFFF" transform="matrix(1.00, 0.00, -0.00, -1.00, 789.3, 49.8)">n</text><text xml:space="preserve" font-family="Avenir-Heavy,Avenir" font-weight="bold" font-size="30.2" fill="#FEFFFF" transform="matrix(1.00, 0.00, -0.00, -1.00, 806.7, 49.8)">n</text><text xml:space="preserve" font-family="Avenir-Heavy,Avenir" font-weight="bold" font-size="30.2" fill="#FEFFFF" transform="matrix(1.00, 0.00, -0.00, -1.00, 824.0, 49.8)">e</text><text xml:space="preserve" font-family="Avenir-Heavy,Avenir" font-weight="bold" font-size="30.2" fill="#FEFFFF" transform="matrix(1.00, 0.00, -0.00, -1.00, 841.4, 49.8)">r</text><text xml:space="preserve" font-family="Avenir-Heavy,Avenir" font-weight="bold" font-size="30.2" fill="#FEFFFF" transform="matrix(1.00, 0.00, -0.00, -1.00, 853.1, 49.8)"> </text><text xml:space="preserve" font-family="Avenir-Heavy,Avenir" font-weight="bold" font-size="30.2" fill="#FEFFFF" transform="matrix(1.00, 0.00, -0.00, -1.00, 1.0, 8.8)">c</text><text xml:space="preserve" font-family="Avenir-Heavy,Avenir" font-weight="bold" font-size="30.2" fill="#FEFFFF" transform="matrix(1.00, 0.00, -0.00, -1.00, 15.6, 8.8)">o</text><text xml:space="preserve" font-family="Avenir-Heavy,Avenir" font-weight="bold" font-size="30.2" fill="#FEFFFF" transform="matrix(1.00, 0.00, -0.00, -1.00, 34.0, 8.8)">n</text><text xml:space="preserve" font-family="Avenir-Heavy,Avenir" font-weight="bold" font-size="30.2" fill="#FEFFFF" transform="matrix(1.00, 0.00, -0.00, -1.00, 51.4, 8.8)">t</text><text xml:space="preserve" font-family="Avenir-Heavy,Avenir" font-weight="bold" font-size="30.2" fill="#FEFFFF" transform="matrix(1.00, 0.00, -0.00, -1.00, 63.1, 8.8)">r</text><text xml:space="preserve" font-family="Avenir-Heavy,Avenir" font-weight="bold" font-size="30.2" fill="#FEFFFF" transform="matrix(1.00, 0.00, -0.00, -1.00, 74.9, 8.8)">a</text><text xml:space="preserve" font-family="Avenir-Heavy,Avenir" font-weight="bold" font-size="30.2" fill="#FEFFFF" transform="matrix(1.00, 0.00, -0.00, -1.00, 91.1, 8.8)">d</text><text xml:space="preserve" font-family="Avenir-Heavy,Avenir" font-weight="bold" font-size="30.2" fill="#FEFFFF" transform="matrix(1.00, 0.00, -0.00, -1.00, 110.2, 8.8)">i</text><text xml:space="preserve" font-family="Avenir-Heavy,Avenir" font-weight="bold" font-size="30.2" fill="#FEFFFF" transform="matrix(1.00, 0.00, -0.00, -1.00, 118.1, 8.8)">c</text><text xml:space="preserve" font-family="Avenir-Heavy,Avenir" font-weight="bold" font-size="30.2" fill="#FEFFFF" transform="matrix(1.00, 0.00, -0.00, -1.00, 132.7, 8.8)">t</text><text xml:space="preserve" font-family="Avenir-Heavy,Avenir" font-weight="bold" font-size="30.2" fill="#FEFFFF" transform="matrix(1.00, 0.00, -0.00, -1.00, 144.5, 8.8)">i</text><text xml:space="preserve" font-family="Avenir-Heavy,Avenir" font-weight="bold" font-size="30.2" fill="#FEFFFF" transform="matrix(1.00, 0.00, -0.00, -1.00, 152.3, 8.8)">o</text><text xml:space="preserve" font-family="Avenir-Heavy,Avenir" font-weight="bold" font-size="30.2" fill="#FEFFFF" transform="matrix(1.00, 0.00, -0.00, -1.00, 170.8, 8.8)">n</text><text xml:space="preserve" font-family="Avenir-Heavy,Avenir" font-weight="bold" font-size="30.2" fill="#FEFFFF" transform="matrix(1.00, 0.00, -0.00, -1.00, 188.1, 8.8)">s</text><text xml:space="preserve" font-family="Avenir-Light,Avenir" font-size="30.2" fill="#FEFFFF" transform="matrix(1.00, 0.00, -0.00, -1.00, 201.6, 8.8)"> </text><text xml:space="preserve" font-family="Avenir-Light,Avenir" font-size="30.2" fill="#FEFFFF" transform="matrix(1.00, 0.00, -0.00, -1.00, 209.4, 8.8)">i</text><text xml:space="preserve" font-family="Avenir-Light,Avenir" font-size="30.2" fill="#FEFFFF" transform="matrix(1.00, 0.00, -0.00, -1.00, 216.7, 8.8)">s</text><text xml:space="preserve" font-family="Avenir-Light,Avenir" font-size="30.2" fill="#FEFFFF" transform="matrix(1.00, 0.00, -0.00, -1.00, 229.6, 8.8)"> </text><text xml:space="preserve" font-family="Avenir-Light,Avenir" font-size="30.2" fill="#FEFFFF" transform="matrix(1.00, 0.00, -0.00, -1.00, 237.4, 8.8)">j</text><text xml:space="preserve" font-family="Avenir-Light,Avenir" font-size="30.2" fill="#FEFFFF" transform="matrix(1.00, 0.00, -0.00, -1.00, 244.7, 8.8)">u</text><text xml:space="preserve" font-family="Avenir-Light,Avenir" font-size="30.2" fill="#FEFFFF" transform="matrix(1.00, 0.00, -0.00, -1.00, 261.5, 8.8)">s</text><text xml:space="preserve" font-family="Avenir-Light,Avenir" font-size="30.2" fill="#FEFFFF" transform="matrix(1.00, 0.00, -0.00, -1.00, 274.4, 8.8)">t</text><text xml:space="preserve" font-family="Avenir-Light,Avenir" font-size="30.2" fill="#FEFFFF" transform="matrix(1.00, 0.00, -0.00, -1.00, 284.4, 8.8)"> </text><text xml:space="preserve" font-family="Avenir-Light,Avenir" font-size="30.2" fill="#FEFFFF" transform="matrix(1.00, 0.00, -0.00, -1.00, 292.3, 8.8)">t</text><text xml:space="preserve" font-family="Avenir-Light,Avenir" font-size="30.2" fill="#FEFFFF" transform="matrix(1.00, 0.00, -0.00, -1.00, 302.4, 8.8)">h</text><text xml:space="preserve" font-family="Avenir-Light,Avenir" font-size="30.2" fill="#FEFFFF" transform="matrix(1.00, 0.00, -0.00, -1.00, 319.2, 8.8)">e</text><text xml:space="preserve" font-family="Avenir-Light,Avenir" font-size="30.2" fill="#FEFFFF" transform="matrix(1.00, 0.00, -0.00, -1.00, 336.0, 8.8)"> </text><text xml:space="preserve" font-family="Avenir-Light,Avenir" font-size="30.2" fill="#FEFFFF" transform="matrix(1.00, 0.00, -0.00, -1.00, 343.9, 8.8)">v</text><text xml:space="preserve" font-family="Avenir-Light,Avenir" font-size="30.2" fill="#FEFFFF" transform="matrix(1.00, 0.00, -0.00, -1.00, 357.9, 8.8)">e</text><text xml:space="preserve" font-family="Avenir-Light,Avenir" font-size="30.2" fill="#FEFFFF" transform="matrix(1.00, 0.00, -0.00, -1.00, 374.7, 8.8)">r</text><text xml:space="preserve" font-family="Avenir-Light,Avenir" font-size="30.2" fill="#FEFFFF" transform="matrix(1.00, 0.00, -0.00, -1.00, 384.8, 8.8)">y</text><text xml:space="preserve" font-family="Avenir-Light,Avenir" font-size="30.2" fill="#FEFFFF" transform="matrix(1.00, 0.00, -0.00, -1.00, 398.8, 8.8)"> </text><text xml:space="preserve" font-family="Avenir-Light,Avenir" font-size="30.2" fill="#FEFFFF" transform="matrix(1.00, 0.00, -0.00, -1.00, 406.6, 8.8)">q</text><text xml:space="preserve" font-family="Avenir-Light,Avenir" font-size="30.2" fill="#FEFFFF" transform="matrix(1.00, 0.00, -0.00, -1.00, 425.1, 8.8)">u</text><text xml:space="preserve" font-family="Avenir-Light,Avenir" font-size="30.2" fill="#FEFFFF" transform="matrix(1.00, 0.00, -0.00, -1.00, 441.9, 8.8)">a</text><text xml:space="preserve" font-family="Avenir-Light,Avenir" font-size="30.2" fill="#FEFFFF" transform="matrix(1.00, 0.00, -0.00, -1.00, 457.6, 8.8)">l</text><text xml:space="preserve" font-family="Avenir-Light,Avenir" font-size="30.2" fill="#FEFFFF" transform="matrix(1.00, 0.00, -0.00, -1.00, 464.9, 8.8)">i</text><text xml:space="preserve" font-family="Avenir-Light,Avenir" font-size="30.2" fill="#FEFFFF" transform="matrix(1.00, 0.00, -0.00, -1.00, 472.2, 8.8)">t</text><text xml:space="preserve" font-family="Avenir-Light,Avenir" font-size="30.2" fill="#FEFFFF" transform="matrix(1.00, 0.00, -0.00, -1.00, 482.2, 8.8)">y</text><text xml:space="preserve" font-family="Avenir-Light,Avenir" font-size="30.2" fill="#FEFFFF" transform="matrix(1.00, 0.00, -0.00, -1.00, 496.2, 8.8)"> </text><text xml:space="preserve" font-family="Avenir-Light,Avenir" font-size="30.2" fill="#FEFFFF" transform="matrix(1.00, 0.00, -0.00, -1.00, 504.1, 8.8)">w</text><text xml:space="preserve" font-family="Avenir-Light,Avenir" font-size="30.2" fill="#FEFFFF" transform="matrix(1.00, 0.00, -0.00, -1.00, 525.4, 8.8)">h</text><text xml:space="preserve" font-family="Avenir-Light,Avenir" font-size="30.2" fill="#FEFFFF" transform="matrix(1.00, 0.00, -0.00, -1.00, 542.2, 8.8)">i</text><text xml:space="preserve" font-family="Avenir-Light,Avenir" font-size="30.2" fill="#FEFFFF" transform="matrix(1.00, 0.00, -0.00, -1.00, 549.5, 8.8)">c</text><text xml:space="preserve" font-family="Avenir-Light,Avenir" font-size="30.2" fill="#FEFFFF" transform="matrix(1.00, 0.00, -0.00, -1.00, 564.0, 8.8)">h</text><text xml:space="preserve" font-family="Avenir-Light,Avenir" font-size="30.2" fill="#FEFFFF" transform="matrix(1.00, 0.00, -0.00, -1.00, 580.8, 8.8)"> </text><text xml:space="preserve" font-family="Avenir-Light,Avenir" font-size="30.2" fill="#FEFFFF" transform="matrix(1.00, 0.00, -0.00, -1.00, 588.7, 8.8)">m</text><text xml:space="preserve" font-family="Avenir-Light,Avenir" font-size="30.2" fill="#FEFFFF" transform="matrix(1.00, 0.00, -0.00, -1.00, 614.4, 8.8)">a</text><text xml:space="preserve" font-family="Avenir-Light,Avenir" font-size="30.2" fill="#FEFFFF" transform="matrix(1.00, 0.00, -0.00, -1.00, 630.1, 8.8)">k</text><text xml:space="preserve" font-family="Avenir-Light,Avenir" font-size="30.2" fill="#FEFFFF" transform="matrix(1.00, 0.00, -0.00, -1.00, 644.7, 8.8)">e</text><text xml:space="preserve" font-family="Avenir-Light,Avenir" font-size="30.2" fill="#FEFFFF" transform="matrix(1.00, 0.00, -0.00, -1.00, 661.5, 8.8)">s</text><text xml:space="preserve" font-family="Avenir-Light,Avenir" font-size="30.2" fill="#FEFFFF" transform="matrix(1.00, 0.00, -0.00, -1.00, 674.4, 8.8)"> </text><text xml:space="preserve" font-family="Avenir-Light,Avenir" font-size="30.2" fill="#FEFFFF" transform="matrix(1.00, 0.00, -0.00, -1.00, 682.2, 8.8)">t</text><text xml:space="preserve" font-family="Avenir-Light,Avenir" font-size="30.2" fill="#FEFFFF" transform="matrix(1.00, 0.00, -0.00, -1.00, 692.3, 8.8)">h</text><text xml:space="preserve" font-family="Avenir-Light,Avenir" font-size="30.2" fill="#FEFFFF" transform="matrix(1.00, 0.00, -0.00, -1.00, 709.2, 8.8)">i</text><text xml:space="preserve" font-family="Avenir-Light,Avenir" font-size="30.2" fill="#FEFFFF" transform="matrix(1.00, 0.00, -0.00, -1.00, 716.4, 8.8)">n</text><text xml:space="preserve" font-family="Avenir-Light,Avenir" font-size="30.2" fill="#FEFFFF" transform="matrix(1.00, 0.00, -0.00, -1.00, 733.2, 8.8)">g</text><text xml:space="preserve" font-family="Avenir-Light,Avenir" font-size="30.2" fill="#FEFFFF" transform="matrix(1.00, 0.00, -0.00, -1.00, 751.7, 8.8)">s</text><text xml:space="preserve" font-family="Avenir-Light,Avenir" font-size="30.2" fill="#FEFFFF" transform="matrix(1.00, 0.00, -0.00, -1.00, 764.6, 8.8)"> </text><text xml:space="preserve" font-family="Avenir-Light,Avenir" font-size="30.2" fill="#FEFFFF" transform="matrix(1.00, 0.00, -0.00, -1.00, 772.5, 8.8)">a</text><text xml:space="preserve" font-family="Avenir-Light,Avenir" font-size="30.2" fill="#FEFFFF" transform="matrix(1.00, 0.00, -0.00, -1.00, 788.1, 8.8)">l</text><text xml:space="preserve" font-family="Avenir-Light,Avenir" font-size="30.2" fill="#FEFFFF" transform="matrix(1.00, 0.00, -0.00, -1.00, 795.4, 8.8)">i</text><text xml:space="preserve" font-family="Avenir-Light,Avenir" font-size="30.2" fill="#FEFFFF" transform="matrix(1.00, 0.00, -0.00, -1.00, 802.7, 8.8)">v</text><text xml:space="preserve" font-family="Avenir-Light,Avenir" font-size="30.2" fill="#FEFFFF" transform="matrix(1.00, 0.00, -0.00, -1.00, 816.7, 8.8)">e</text><text xml:space="preserve" font-family="Avenir-Light,Avenir" font-size="30.2" fill="#FEFFFF" transform="matrix(1.00, 0.00, -0.00, -1.00, 833.5, 8.8)">”</text></g></svg>