<?xml version="1.0" encoding="UTF-8"?><svg xmlns="http://www.w3.org/2000/svg" xmlns:xlink="http://www.w3.org/1999/xlink" clip-rule="evenodd" stroke-miterlimit="10" viewBox="0 0 813 74"><desc>SVG generated by Keynote</desc><defs></defs><g transform="matrix(1.00, 0.00, -0.00, -1.00, 0.0, 74.0)"><text xml:space="preserve" font-family="Avenir-Light,Avenir" font-size="30.2" fill="#FEFFFF" transform="matrix(1.00, 0.00, -0.00, -1.00, -1.0, 49.5)">“</text><text xml:space="preserve" font-family="Avenir-Light,Avenir" font-size="30.2" fill="#FEFFFF" transform="matrix(1.00, 0.00, -0.00, -1.00, 14.7, 49.5)">A</text><text xml:space="preserve" font-family="Avenir-Light,Avenir" font-size="30.2" fill="#FEFFFF" transform="matrix(1.00, 0.00, -0.00, -1.00, 35.4, 49.5)">t</text><text xml:space="preserve" font-family="Avenir-Light,Avenir" font-size="30.2" fill="#FEFFFF" transform="matrix(1.00, 0.00, -0.00, -1.00, 45.5, 49.5)"> </text><text xml:space="preserve" font-family="Avenir-Light,Avenir" font-size="30.2" fill="#FEFFFF" transform="matrix(1.00, 0.00, -0.00, -1.00, 53.4, 49.5)">t</text><text xml:space="preserve" font-family="Avenir-Light,Avenir" font-size="30.2" fill="#FEFFFF" transform="matrix(1.00, 0.00, -0.00, -1.00, 63.5, 49.5)">h</text><text xml:space="preserve" font-family="Avenir-Light,Avenir" font-size="30.2" fill="#FEFFFF" transform="matrix(1.00, 0.00, -0.00, -1.00, 80.3, 49.5)">i</text><text xml:space="preserve" font-family="Avenir-Light,Avenir" font-size="30.2" fill="#FEFFFF" transform="matrix(1.00, 0.00, -0.00, -1.00, 87.5, 49.5)">s</text><text xml:space="preserve" font-family="Avenir-Light,Avenir" font-size="30.2" fill="#FEFFFF" transform="matrix(1.00, 0.00, -0.00, -1.00, 100.4, 49.5)"> </text><text xml:space="preserve" font-family="Avenir-Light,Avenir" font-size="30.2" fill="#FEFFFF" transform="matrix(1.00, 0.00, -0.00, -1.00, 108.3, 49.5)">f</text><text xml:space="preserve" font-family="Avenir-Light,Avenir" font-size="30.2" fill="#FEFFFF" transform="matrix(1.00, 0.00, -0.00, -1.00, 117.2, 49.5)">i</text><text xml:space="preserve" font-family="Avenir-Light,Avenir" font-size="30.2" fill="#FEFFFF" transform="matrix(1.00, 0.00, -0.00, -1.00, 124.5, 49.5)">n</text><text xml:space="preserve" font-family="Avenir-Light,Avenir" font-size="30.2" fill="#FEFFFF" transform="matrix(1.00, 0.00, -0.00, -1.00, 141.3, 49.5)">a</text><text xml:space="preserve" font-family="Avenir-Light,Avenir" font-size="30.2" fill="#FEFFFF" transform="matrix(1.00, 0.00, -0.00, -1.00, 157.0, 49.5)">l</text><text xml:space="preserve" font-family="Avenir-Light,Avenir" font-size="30.2" fill="#FEFFFF" transform="matrix(1.00, 0.00, -0.00, -1.00, 164.3, 49.5)"> </text><text xml:space="preserve" font-family="Avenir-Light,Avenir" font-size="30.2" fill="#FEFFFF" transform="matrix(1.00, 0.00, -0.00, -1.00, 172.1, 49.5)">s</text><text xml:space="preserve" font-family="Avenir-Light,Avenir" font-size="30.2" fill="#FEFFFF" transform="matrix(1.00, 0.00, -0.00, -1.00, 185.0, 49.5)">t</text><text xml:space="preserve" font-family="Avenir-Light,Avenir" font-size="30.2" fill="#FEFFFF" transform="matrix(1.00, 0.00, -0.00, -1.00, 195.1, 49.5)">a</text><text xml:space="preserve" font-family="Avenir-Light,Avenir" font-size="30.2" fill="#FEFFFF" transform="matrix(1.00, 0.00, -0.00, -1.00, 210.8, 49.5)">g</text><text xml:space="preserve" font-family="Avenir-Light,Avenir" font-size="30.2" fill="#FEFFFF" transform="matrix(1.00, 0.00, -0.00, -1.00, 229.2, 49.5)">e</text><text xml:space="preserve" font-family="Avenir-Light,Avenir" font-size="30.2" fill="#FEFFFF" transform="matrix(1.00, 0.00, -0.00, -1.00, 246.1, 49.5)">,</text><text xml:space="preserve" font-family="Avenir-Light,Avenir" font-size="30.2" fill="#FEFFFF" transform="matrix(1.00, 0.00, -0.00, -1.00, 253.9, 49.5)"> </text><text xml:space="preserve" font-family="Avenir-Light,Avenir" font-size="30.2" fill="#FEFFFF" transform="matrix(1.00, 0.00, -0.00, -1.00, 261.8, 49.5)">t</text><text xml:space="preserve" font-family="Avenir-Light,Avenir" font-size="30.2" fill="#FEFFFF" transform="matrix(1.00, 0.00, -0.00, -1.00, 271.9, 49.5)">h</text><text xml:space="preserve" font-family="Avenir-Light,Avenir" font-size="30.2" fill="#FEFFFF" transform="matrix(1.00, 0.00, -0.00, -1.00, 288.7, 49.5)">e</text><text xml:space="preserve" font-family="Avenir-Light,Avenir" font-size="30.2" fill="#FEFFFF" transform="matrix(1.00, 0.00, -0.00, -1.00, 305.5, 49.5)"> </text><text xml:space="preserve" font-family="Avenir-Light,Avenir" font-size="30.2" fill="#FEFFFF" transform="matrix(1.00, 0.00, -0.00, -1.00, 313.4, 49.5)">p</text><text xml:space="preserve" font-family="Avenir-Light,Avenir" font-size="30.2" fill="#FEFFFF" transform="matrix(1.00, 0.00, -0.00, -1.00, 331.9, 49.5)">a</text><text xml:space="preserve" font-family="Avenir-Light,Avenir" font-size="30.2" fill="#FEFFFF" transform="matrix(1.00, 0.00, -0.00, -1.00, 347.5, 49.5)">t</text><text xml:space="preserve" font-family="Avenir-Light,Avenir" font-size="30.2" fill="#FEFFFF" transform="matrix(1.00, 0.00, -0.00, -1.00, 357.6, 49.5)">t</text><text xml:space="preserve" font-family="Avenir-Light,Avenir" font-size="30.2" fill="#FEFFFF" transform="matrix(1.00, 0.00, -0.00, -1.00, 367.7, 49.5)">e</text><text xml:space="preserve" font-family="Avenir-Light,Avenir" font-size="30.2" fill="#FEFFFF" transform="matrix(1.00, 0.00, -0.00, -1.00, 384.5, 49.5)">r</text><text xml:space="preserve" font-family="Avenir-Light,Avenir" font-size="30.2" fill="#FEFFFF" transform="matrix(1.00, 0.00, -0.00, -1.00, 394.6, 49.5)">n</text><text xml:space="preserve" font-family="Avenir-Light,Avenir" font-size="30.2" fill="#FEFFFF" transform="matrix(1.00, 0.00, -0.00, -1.00, 411.4, 49.5)">s</text><text xml:space="preserve" font-family="Avenir-Light,Avenir" font-size="30.2" fill="#FEFFFF" transform="matrix(1.00, 0.00, -0.00, -1.00, 424.3, 49.5)"> </text><text xml:space="preserve" font-family="Avenir-Light,Avenir" font-size="30.2" fill="#FEFFFF" transform="matrix(1.00, 0.00, -0.00, -1.00, 432.2, 49.5)">a</text><text xml:space="preserve" font-family="Avenir-Light,Avenir" font-size="30.2" fill="#FEFFFF" transform="matrix(1.00, 0.00, -0.00, -1.00, 447.9, 49.5)">r</text><text xml:space="preserve" font-family="Avenir-Light,Avenir" font-size="30.2" fill="#FEFFFF" transform="matrix(1.00, 0.00, -0.00, -1.00, 457.4, 49.5)">e</text><text xml:space="preserve" font-family="Avenir-Light,Avenir" font-size="30.2" fill="#FEFFFF" transform="matrix(1.00, 0.00, -0.00, -1.00, 474.2, 49.5)"> </text><text xml:space="preserve" font-family="Avenir-Light,Avenir" font-size="30.2" fill="#FEFFFF" transform="matrix(1.00, 0.00, -0.00, -1.00, 482.1, 49.5)">n</text><text xml:space="preserve" font-family="Avenir-Light,Avenir" font-size="30.2" fill="#FEFFFF" transform="matrix(1.00, 0.00, -0.00, -1.00, 498.9, 49.5)">o</text><text xml:space="preserve" font-family="Avenir-Light,Avenir" font-size="30.2" fill="#FEFFFF" transform="matrix(1.00, 0.00, -0.00, -1.00, 516.8, 49.5)"> </text><text xml:space="preserve" font-family="Avenir-Light,Avenir" font-size="30.2" fill="#FEFFFF" transform="matrix(1.00, 0.00, -0.00, -1.00, 524.7, 49.5)">l</text><text xml:space="preserve" font-family="Avenir-Light,Avenir" font-size="30.2" fill="#FEFFFF" transform="matrix(1.00, 0.00, -0.00, -1.00, 531.9, 49.5)">o</text><text xml:space="preserve" font-family="Avenir-Light,Avenir" font-size="30.2" fill="#FEFFFF" transform="matrix(1.00, 0.00, -0.00, -1.00, 549.9, 49.5)">n</text><text xml:space="preserve" font-family="Avenir-Light,Avenir" font-size="30.2" fill="#FEFFFF" transform="matrix(1.00, 0.00, -0.00, -1.00, 566.7, 49.5)">g</text><text xml:space="preserve" font-family="Avenir-Light,Avenir" font-size="30.2" fill="#FEFFFF" transform="matrix(1.00, 0.00, -0.00, -1.00, 585.2, 49.5)">e</text><text xml:space="preserve" font-family="Avenir-Light,Avenir" font-size="30.2" fill="#FEFFFF" transform="matrix(1.00, 0.00, -0.00, -1.00, 602.0, 49.5)">r</text><text xml:space="preserve" font-family="Avenir-Light,Avenir" font-size="30.2" fill="#FEFFFF" transform="matrix(1.00, 0.00, -0.00, -1.00, 612.1, 49.5)"> </text><text xml:space="preserve" font-family="Avenir-Light,Avenir" font-size="30.2" fill="#FEFFFF" transform="matrix(1.00, 0.00, -0.00, -1.00, 619.9, 49.5)">i</text><text xml:space="preserve" font-family="Avenir-Light,Avenir" font-size="30.2" fill="#FEFFFF" transform="matrix(1.00, 0.00, -0.00, -1.00, 627.2, 49.5)">m</text><text xml:space="preserve" font-family="Avenir-Light,Avenir" font-size="30.2" fill="#FEFFFF" transform="matrix(1.00, 0.00, -0.00, -1.00, 653.0, 49.5)">p</text><text xml:space="preserve" font-family="Avenir-Light,Avenir" font-size="30.2" fill="#FEFFFF" transform="matrix(1.00, 0.00, -0.00, -1.00, 671.4, 49.5)">o</text><text xml:space="preserve" font-family="Avenir-Light,Avenir" font-size="30.2" fill="#FEFFFF" transform="matrix(1.00, 0.00, -0.00, -1.00, 689.4, 49.5)">r</text><text xml:space="preserve" font-family="Avenir-Light,Avenir" font-size="30.2" fill="#FEFFFF" transform="matrix(1.00, 0.00, -0.00, -1.00, 699.5, 49.5)">t</text><text xml:space="preserve" font-family="Avenir-Light,Avenir" font-size="30.2" fill="#FEFFFF" transform="matrix(1.00, 0.00, -0.00, -1.00, 709.5, 49.5)">a</text><text xml:space="preserve" font-family="Avenir-Light,Avenir" font-size="30.2" fill="#FEFFFF" transform="matrix(1.00, 0.00, -0.00, -1.00, 725.2, 49.5)">n</text><text xml:space="preserve" font-family="Avenir-Light,Avenir" font-size="30.2" fill="#FEFFFF" transform="matrix(1.00, 0.00, -0.00, -1.00, 742.1, 49.5)">t</text><text xml:space="preserve" font-family="Avenir-Light,Avenir" font-size="30.2" fill="#FEFFFF" transform="matrix(1.00, 0.00, -0.00, -1.00, 752.1, 49.5)">:</text><text xml:space="preserve" font-family="Avenir-Light,Avenir" font-size="30.2" fill="#FEFFFF" transform="matrix(1.00, 0.00, -0.00, -1.00, 760.0, 49.5)"> </text><text xml:space="preserve" font-family="Avenir-Light,Avenir" font-size="30.2" fill="#FEFFFF" transform="matrix(1.00, 0.00, -0.00, -1.00, 767.9, 49.5)">t</text><text xml:space="preserve" font-family="Avenir-Light,Avenir" font-size="30.2" fill="#FEFFFF" transform="matrix(1.00, 0.00, -0.00, -1.00, 778.0, 49.5)">h</text><text xml:space="preserve" font-family="Avenir-Light,Avenir" font-size="30.2" fill="#FEFFFF" transform="matrix(1.00, 0.00, -0.00, -1.00, 794.8, 49.5)">e</text><text xml:space="preserve" font-family="Avenir-Light,Avenir" font-size="30.2" fill="#FEFFFF" transform="matrix(1.00, 0.00, -0.00, -1.00, 811.6, 49.5)"> </text><text xml:space="preserve" font-family="Avenir-Light,Avenir" font-size="30.2" fill="#FEFFFF" transform="matrix(1.00, 0.00, -0.00, -1.00, -1.0, 8.5)">p</text><text xml:space="preserve" font-family="Avenir-Light,Avenir" font-size="30.2" fill="#FEFFFF" transform="matrix(1.00, 0.00, -0.00, -1.00, 17.5, 8.5)">a</text><text xml:space="preserve" font-family="Avenir-Light,Avenir" font-size="30.2" fill="#FEFFFF" transform="matrix(1.00, 0.00, -0.00, -1.00, 33.2, 8.5)">t</text><text xml:space="preserve" font-family="Avenir-Light,Avenir" font-size="30.2" fill="#FEFFFF" transform="matrix(1.00, 0.00, -0.00, -1.00, 43.3, 8.5)">t</text><text xml:space="preserve" font-family="Avenir-Light,Avenir" font-size="30.2" fill="#FEFFFF" transform="matrix(1.00, 0.00, -0.00, -1.00, 53.3, 8.5)">e</text><text xml:space="preserve" font-family="Avenir-Light,Avenir" font-size="30.2" fill="#FEFFFF" transform="matrix(1.00, 0.00, -0.00, -1.00, 70.2, 8.5)">r</text><text xml:space="preserve" font-family="Avenir-Light,Avenir" font-size="30.2" fill="#FEFFFF" transform="matrix(1.00, 0.00, -0.00, -1.00, 80.2, 8.5)">n</text><text xml:space="preserve" font-family="Avenir-Light,Avenir" font-size="30.2" fill="#FEFFFF" transform="matrix(1.00, 0.00, -0.00, -1.00, 97.0, 8.5)">s</text><text xml:space="preserve" font-family="Avenir-Light,Avenir" font-size="30.2" fill="#FEFFFF" transform="matrix(1.00, 0.00, -0.00, -1.00, 109.9, 8.5)"> </text><text xml:space="preserve" font-family="Avenir-Light,Avenir" font-size="30.2" fill="#FEFFFF" transform="matrix(1.00, 0.00, -0.00, -1.00, 117.8, 8.5)">h</text><text xml:space="preserve" font-family="Avenir-Light,Avenir" font-size="30.2" fill="#FEFFFF" transform="matrix(1.00, 0.00, -0.00, -1.00, 134.6, 8.5)">a</text><text xml:space="preserve" font-family="Avenir-Light,Avenir" font-size="30.2" fill="#FEFFFF" transform="matrix(1.00, 0.00, -0.00, -1.00, 150.3, 8.5)">v</text><text xml:space="preserve" font-family="Avenir-Light,Avenir" font-size="30.2" fill="#FEFFFF" transform="matrix(1.00, 0.00, -0.00, -1.00, 164.3, 8.5)">e</text><text xml:space="preserve" font-family="Avenir-Light,Avenir" font-size="30.2" fill="#FEFFFF" transform="matrix(1.00, 0.00, -0.00, -1.00, 181.1, 8.5)"> </text><text xml:space="preserve" font-family="Avenir-Light,Avenir" font-size="30.2" fill="#FEFFFF" transform="matrix(1.00, 0.00, -0.00, -1.00, 189.0, 8.5)">t</text><text xml:space="preserve" font-family="Avenir-Light,Avenir" font-size="30.2" fill="#FEFFFF" transform="matrix(1.00, 0.00, -0.00, -1.00, 199.0, 8.5)">a</text><text xml:space="preserve" font-family="Avenir-Light,Avenir" font-size="30.2" fill="#FEFFFF" transform="matrix(1.00, 0.00, -0.00, -1.00, 214.7, 8.5)">u</text><text xml:space="preserve" font-family="Avenir-Light,Avenir" font-size="30.2" fill="#FEFFFF" transform="matrix(1.00, 0.00, -0.00, -1.00, 231.5, 8.5)">g</text><text xml:space="preserve" font-family="Avenir-Light,Avenir" font-size="30.2" fill="#FEFFFF" transform="matrix(1.00, 0.00, -0.00, -1.00, 250.0, 8.5)">h</text><text xml:space="preserve" font-family="Avenir-Light,Avenir" font-size="30.2" fill="#FEFFFF" transform="matrix(1.00, 0.00, -0.00, -1.00, 266.8, 8.5)">t</text><text xml:space="preserve" font-family="Avenir-Light,Avenir" font-size="30.2" fill="#FEFFFF" transform="matrix(1.00, 0.00, -0.00, -1.00, 276.9, 8.5)"> </text><text xml:space="preserve" font-family="Avenir-Light,Avenir" font-size="30.2" fill="#FEFFFF" transform="matrix(1.00, 0.00, -0.00, -1.00, 284.8, 8.5)">y</text><text xml:space="preserve" font-family="Avenir-Light,Avenir" font-size="30.2" fill="#FEFFFF" transform="matrix(1.00, 0.00, -0.00, -1.00, 298.8, 8.5)">o</text><text xml:space="preserve" font-family="Avenir-Light,Avenir" font-size="30.2" fill="#FEFFFF" transform="matrix(1.00, 0.00, -0.00, -1.00, 316.7, 8.5)">u</text><text xml:space="preserve" font-family="Avenir-Light,Avenir" font-size="30.2" fill="#FEFFFF" transform="matrix(1.00, 0.00, -0.00, -1.00, 333.5, 8.5)"> </text><text xml:space="preserve" font-family="Avenir-Light,Avenir" font-size="30.2" fill="#FEFFFF" transform="matrix(1.00, 0.00, -0.00, -1.00, 341.4, 8.5)">t</text><text xml:space="preserve" font-family="Avenir-Light,Avenir" font-size="30.2" fill="#FEFFFF" transform="matrix(1.00, 0.00, -0.00, -1.00, 351.5, 8.5)">o</text><text xml:space="preserve" font-family="Avenir-Light,Avenir" font-size="30.2" fill="#FEFFFF" transform="matrix(1.00, 0.00, -0.00, -1.00, 369.4, 8.5)"> </text><text xml:space="preserve" font-family="Avenir-Heavy,Avenir" font-weight="bold" font-size="30.2" fill="#FEFFFF" transform="matrix(1.00, 0.00, -0.00, -1.00, 377.3, 8.5)">b</text><text xml:space="preserve" font-family="Avenir-Heavy,Avenir" font-weight="bold" font-size="30.2" fill="#FEFFFF" transform="matrix(1.00, 0.00, -0.00, -1.00, 396.4, 8.5)">e</text><text xml:space="preserve" font-family="Avenir-Heavy,Avenir" font-weight="bold" font-size="30.2" fill="#FEFFFF" transform="matrix(1.00, 0.00, -0.00, -1.00, 413.7, 8.5)"> </text><text xml:space="preserve" font-family="Avenir-Heavy,Avenir" font-weight="bold" font-size="30.2" fill="#FEFFFF" transform="matrix(1.00, 0.00, -0.00, -1.00, 422.7, 8.5)">r</text><text xml:space="preserve" font-family="Avenir-Heavy,Avenir" font-weight="bold" font-size="30.2" fill="#FEFFFF" transform="matrix(1.00, 0.00, -0.00, -1.00, 433.9, 8.5)">e</text><text xml:space="preserve" font-family="Avenir-Heavy,Avenir" font-weight="bold" font-size="30.2" fill="#FEFFFF" transform="matrix(1.00, 0.00, -0.00, -1.00, 451.2, 8.5)">c</text><text xml:space="preserve" font-family="Avenir-Heavy,Avenir" font-weight="bold" font-size="30.2" fill="#FEFFFF" transform="matrix(1.00, 0.00, -0.00, -1.00, 465.8, 8.5)">e</text><text xml:space="preserve" font-family="Avenir-Heavy,Avenir" font-weight="bold" font-size="30.2" fill="#FEFFFF" transform="matrix(1.00, 0.00, -0.00, -1.00, 483.2, 8.5)">p</text><text xml:space="preserve" font-family="Avenir-Heavy,Avenir" font-weight="bold" font-size="30.2" fill="#FEFFFF" transform="matrix(1.00, 0.00, -0.00, -1.00, 502.2, 8.5)">t</text><text xml:space="preserve" font-family="Avenir-Heavy,Avenir" font-weight="bold" font-size="30.2" fill="#FEFFFF" transform="matrix(1.00, 0.00, -0.00, -1.00, 514.0, 8.5)">i</text><text xml:space="preserve" font-family="Avenir-Heavy,Avenir" font-weight="bold" font-size="30.2" fill="#FEFFFF" transform="matrix(1.00, 0.00, -0.00, -1.00, 521.9, 8.5)">v</text><text xml:space="preserve" font-family="Avenir-Heavy,Avenir" font-weight="bold" font-size="30.2" fill="#FEFFFF" transform="matrix(1.00, 0.00, -0.00, -1.00, 537.6, 8.5)">e</text><text xml:space="preserve" font-family="Avenir-Heavy,Avenir" font-weight="bold" font-size="30.2" fill="#FEFFFF" transform="matrix(1.00, 0.00, -0.00, -1.00, 554.9, 8.5)"> </text><text xml:space="preserve" font-family="Avenir-Heavy,Avenir" font-weight="bold" font-size="30.2" fill="#FEFFFF" transform="matrix(1.00, 0.00, -0.00, -1.00, 563.9, 8.5)">t</text><text xml:space="preserve" font-family="Avenir-Heavy,Avenir" font-weight="bold" font-size="30.2" fill="#FEFFFF" transform="matrix(1.00, 0.00, -0.00, -1.00, 575.6, 8.5)">o</text><text xml:space="preserve" font-family="Avenir-Heavy,Avenir" font-weight="bold" font-size="30.2" fill="#FEFFFF" transform="matrix(1.00, 0.00, -0.00, -1.00, 594.1, 8.5)"> </text><text xml:space="preserve" font-family="Avenir-Heavy,Avenir" font-weight="bold" font-size="30.2" fill="#FEFFFF" transform="matrix(1.00, 0.00, -0.00, -1.00, 603.0, 8.5)">w</text><text xml:space="preserve" font-family="Avenir-Heavy,Avenir" font-weight="bold" font-size="30.2" fill="#FEFFFF" transform="matrix(1.00, 0.00, -0.00, -1.00, 627.1, 8.5)">h</text><text xml:space="preserve" font-family="Avenir-Heavy,Avenir" font-weight="bold" font-size="30.2" fill="#FEFFFF" transform="matrix(1.00, 0.00, -0.00, -1.00, 644.5, 8.5)">a</text><text xml:space="preserve" font-family="Avenir-Heavy,Avenir" font-weight="bold" font-size="30.2" fill="#FEFFFF" transform="matrix(1.00, 0.00, -0.00, -1.00, 660.7, 8.5)">t</text><text xml:space="preserve" font-family="Avenir-Heavy,Avenir" font-weight="bold" font-size="30.2" fill="#FEFFFF" transform="matrix(1.00, 0.00, -0.00, -1.00, 672.5, 8.5)"> </text><text xml:space="preserve" font-family="Avenir-Heavy,Avenir" font-weight="bold" font-size="30.2" fill="#FEFFFF" transform="matrix(1.00, 0.00, -0.00, -1.00, 681.4, 8.5)">i</text><text xml:space="preserve" font-family="Avenir-Heavy,Avenir" font-weight="bold" font-size="30.2" fill="#FEFFFF" transform="matrix(1.00, 0.00, -0.00, -1.00, 689.3, 8.5)">s</text><text xml:space="preserve" font-family="Avenir-Heavy,Avenir" font-weight="bold" font-size="30.2" fill="#FEFFFF" transform="matrix(1.00, 0.00, -0.00, -1.00, 702.7, 8.5)"> </text><text xml:space="preserve" font-family="Avenir-Heavy,Avenir" font-weight="bold" font-size="30.2" fill="#FEFFFF" transform="matrix(1.00, 0.00, -0.00, -1.00, 711.7, 8.5)">r</text><text xml:space="preserve" font-family="Avenir-Heavy,Avenir" font-weight="bold" font-size="30.2" fill="#FEFFFF" transform="matrix(1.00, 0.00, -0.00, -1.00, 722.9, 8.5)">e</text><text xml:space="preserve" font-family="Avenir-Heavy,Avenir" font-weight="bold" font-size="30.2" fill="#FEFFFF" transform="matrix(1.00, 0.00, -0.00, -1.00, 740.2, 8.5)">a</text><text xml:space="preserve" font-family="Avenir-Heavy,Avenir" font-weight="bold" font-size="30.2" fill="#FEFFFF" transform="matrix(1.00, 0.00, -0.00, -1.00, 756.5, 8.5)">l</text><text xml:space="preserve" font-family="Avenir-Light,Avenir" font-size="30.2" fill="#FEFFFF" transform="matrix(1.00, 0.00, -0.00, -1.00, 764.3, 8.5)">”</text></g></svg>