<?xml version="1.0" encoding="UTF-8"?><svg xmlns="http://www.w3.org/2000/svg" xmlns:xlink="http://www.w3.org/1999/xlink" clip-rule="evenodd" stroke-miterlimit="10" viewBox="0 0 1024 768"><desc>SVG generated by Keynote</desc><defs></defs><g transform="matrix(1.00, 0.00, -0.00, -1.00, 0.0, 768.0)"><path d="M 0.0 0.0 L 1024.0 0.0 L 1024.0 768.0 L 0.0 768.0 Z M 0.0 0.0 " fill="#000000"></path><text xml:space="preserve" font-family="Avenir-Light,Avenir" font-size="45.0" fill="#FEFFFF" transform="matrix(1.00, 0.00, -0.00, -1.00, 74.0, 671.5)">A</text><text xml:space="preserve" font-family="Avenir-Light,Avenir" font-size="45.0" fill="#FEFFFF" transform="matrix(1.00, 0.00, -0.00, -1.00, 112.0, 671.5)">L</text><text xml:space="preserve" font-family="Avenir-Light,Avenir" font-size="45.0" fill="#FEFFFF" transform="matrix(1.00, 0.00, -0.00, -1.00, 141.7, 671.5)">E</text><text xml:space="preserve" font-family="Avenir-Light,Avenir" font-size="45.0" fill="#FEFFFF" transform="matrix(1.00, 0.00, -0.00, -1.00, 175.6, 671.5)">X</text><text xml:space="preserve" font-family="Avenir-Light,Avenir" font-size="45.0" fill="#FEFFFF" transform="matrix(1.00, 0.00, -0.00, -1.00, 210.3, 671.5)">A</text><text xml:space="preserve" font-family="Avenir-Light,Avenir" font-size="45.0" fill="#FEFFFF" transform="matrix(1.00, 0.00, -0.00, -1.00, 248.3, 671.5)">N</text><text xml:space="preserve" font-family="Avenir-Light,Avenir" font-size="45.0" fill="#FEFFFF" transform="matrix(1.00, 0.00, -0.00, -1.00, 290.5, 671.5)">D</text><text xml:space="preserve" font-family="Avenir-Light,Avenir" font-size="45.0" fill="#FEFFFF" transform="matrix(1.00, 0.00, -0.00, -1.00, 331.1, 671.5)">R</text><text xml:space="preserve" font-family="Avenir-Light,Avenir" font-size="45.0" fill="#FEFFFF" transform="matrix(1.00, 0.00, -0.00, -1.00, 365.0, 671.5)">I</text><text xml:space="preserve" font-family="Avenir-Light,Avenir" font-size="45.0" fill="#FEFFFF" transform="matrix(1.00, 0.00, -0.00, -1.00, 383.9, 671.5)">A</text><text xml:space="preserve" font-family="Avenir-Light,Avenir" font-size="45.0" fill="#FEFFFF" transform="matrix(1.00, 0.00, -0.00, -1.00, 421.9, 671.5)">N</text><text xml:space="preserve" font-family="Avenir-Light,Avenir" font-size="45.0" fill="#FEFFFF" transform="matrix(1.00, 0.00, -0.00, -1.00, 464.1, 671.5)"> </text><text xml:space="preserve" font-family="Avenir-Light,Avenir" font-size="45.0" fill="#FEFFFF" transform="matrix(1.00, 0.00, -0.00, -1.00, 483.0, 671.5)">F</text><text xml:space="preserve" font-family="Avenir-Light,Avenir" font-size="45.0" fill="#FEFFFF" transform="matrix(1.00, 0.00, -0.00, -1.00, 515.2, 671.5)">O</text><text xml:space="preserve" font-family="Avenir-Light,Avenir" font-size="45.0" fill="#FEFFFF" transform="matrix(1.00, 0.00, -0.00, -1.00, 560.0, 671.5)">R</text><text xml:space="preserve" font-family="Avenir-Light,Avenir" font-size="45.0" fill="#FEFFFF" transform="matrix(1.00, 0.00, -0.00, -1.00, 593.8, 671.5)">M</text></g></svg>